<?xml version="1.0" encoding="utf-8"?>
<!-- Generator: Adobe Illustrator 25.2.1, SVG Export Plug-In . SVG Version: 6.00 Build 0)  -->
<svg version="1.1" id="レイヤー_1" xmlns="http://www.w3.org/2000/svg" xmlns:xlink="http://www.w3.org/1999/xlink" x="0px"
	 y="0px" viewBox="0 0 400 150" style="enable-background:new 0 0 400 150;" xml:space="preserve">
<style type="text/css">
	.st0{fill:#09096B;stroke:#111887;stroke-width:3;stroke-miterlimit:10;}
	.st1{fill:#FFFFFF;}
	.st2{font-family:'851H-kktt';}
	.st3{font-size:69.028px;}
	.st4{font-size:94.785px;}
	.st5{fill:none;stroke:#FFFFFF;stroke-width:5;stroke-miterlimit:10;}
</style>
<g>
	<path class="st0" d="M377.2,150H22.8C10.2,150,0,139.8,0,127.2V22.8C0,10.2,10.2,0,22.8,0h354.4C389.8,0,400,10.2,400,22.8v104.4
		C400,139.8,389.8,150,377.2,150z"/>
</g>
<text transform="matrix(1 0 0 1 97.3413 102.3213)" class="st1 st2 st3">Download</text>
<text transform="matrix(1 0 0 1 3.1289 107.9492)" class="st1 st2 st4">↓</text>
<g>
	<path class="st5" d="M18,90.5c-2.7,14-3.9,19.2-3.9,19.2c-0.6,2.7,1.1,4.9,3.9,4.9h54.7c2.8,0,5.5-2.2,6.1-4.9l4.3-19.2"/>
</g>
</svg>
