<?xml version="1.0" encoding="utf-8"?>
<!-- Generator: Adobe Illustrator 25.2.1, SVG Export Plug-In . SVG Version: 6.00 Build 0)  -->
<svg version="1.1" id="レイヤー_1" xmlns="http://www.w3.org/2000/svg" xmlns:xlink="http://www.w3.org/1999/xlink" x="0px"
	 y="0px" viewBox="0 0 1190.6 841.9" style="enable-background:new 0 0 1190.6 841.9;" xml:space="preserve">
<style type="text/css">
	.st0{opacity:0.7;fill:#FFFFFF;enable-background:new    ;}
	.st1{fill:none;stroke:#DBDCDC;stroke-miterlimit:10;}
	.st2{fill:#231815;}
	.st3{font-family:'KozGoPr6N-Regular-83pv-RKSJ-H';}
	.st4{font-size:12px;}
	.st5{letter-spacing:3;}
	.st6{font-family:'ArialMT';}
	.st7{enable-background:new    ;}
	.st8{fill:#772A2A;}
	.st9{fill:#EAD8A9;}
	.st10{clip-path:url(#SVGID_2_);}
	.st11{fill:#FFFFFF;}
	.st12{fill:#EAD5A9;}
	.st13{fill:#771818;}
	.st14{clip-path:url(#SVGID_4_);}
	.st15{clip-path:url(#SVGID_6_);}
	.st16{font-family:'SignPainter-HouseScript';}
	.st17{font-size:8.95px;}
</style>
<g id="レイヤー_5">
	<rect class="st0" width="1190.6" height="841.9"/>
</g>
<rect x="28.8" y="87.3" class="st1" width="100" height="100"/>
<rect x="143.8" y="87.3" class="st1" width="100" height="100"/>
<rect x="258.8" y="87.3" class="st1" width="100" height="100"/>
<rect x="373.8" y="87.3" class="st1" width="100" height="100"/>
<rect x="488.8" y="87.3" class="st1" width="100" height="100"/>
<rect x="603.8" y="87.3" class="st1" width="100" height="100"/>
<rect x="718.8" y="87.3" class="st1" width="100" height="100"/>
<rect x="833.8" y="87.3" class="st1" width="100" height="100"/>
<rect x="948.8" y="87.3" class="st1" width="100" height="100"/>
<rect x="1063.8" y="87.3" class="st1" width="100" height="100"/>
<rect x="28.8" y="228.1" class="st1" width="100" height="100"/>
<rect x="143.8" y="228.1" class="st1" width="100" height="100"/>
<rect x="258.8" y="228.1" class="st1" width="100" height="100"/>
<rect x="373.8" y="228.1" class="st1" width="100" height="100"/>
<rect x="488.8" y="228.1" class="st1" width="100" height="100"/>
<rect x="603.8" y="228.1" class="st1" width="100" height="100"/>
<rect x="718.8" y="228.1" class="st1" width="100" height="100"/>
<rect x="833.8" y="228.1" class="st1" width="100" height="100"/>
<rect x="948.8" y="228.1" class="st1" width="100" height="100"/>
<rect x="1063.8" y="228.1" class="st1" width="100" height="100"/>
<rect x="28.8" y="368.8" class="st1" width="100" height="100"/>
<rect x="143.8" y="368.8" class="st1" width="100" height="100"/>
<rect x="258.8" y="368.8" class="st1" width="100" height="100"/>
<rect x="373.8" y="368.8" class="st1" width="100" height="100"/>
<rect x="488.8" y="368.8" class="st1" width="100" height="100"/>
<rect x="603.8" y="368.8" class="st1" width="100" height="100"/>
<rect x="718.8" y="368.8" class="st1" width="100" height="100"/>
<rect x="833.8" y="368.8" class="st1" width="100" height="100"/>
<rect x="948.8" y="368.8" class="st1" width="100" height="100"/>
<rect x="1063.8" y="368.8" class="st1" width="100" height="100"/>
<rect x="28.8" y="509.6" class="st1" width="100" height="100"/>
<rect x="143.8" y="509.6" class="st1" width="100" height="100"/>
<rect x="258.8" y="509.6" class="st1" width="100" height="100"/>
<rect x="373.8" y="509.6" class="st1" width="100" height="100"/>
<rect x="488.8" y="509.6" class="st1" width="100" height="100"/>
<rect x="603.8" y="509.6" class="st1" width="100" height="100"/>
<rect x="718.8" y="509.6" class="st1" width="100" height="100"/>
<rect x="833.8" y="509.6" class="st1" width="100" height="100"/>
<rect x="948.8" y="509.6" class="st1" width="100" height="100"/>
<rect x="1063.8" y="509.6" class="st1" width="100" height="100"/>
<rect x="28.8" y="650.4" class="st1" width="100" height="100"/>
<rect x="143.8" y="650.4" class="st1" width="100" height="100"/>
<rect x="258.8" y="650.4" class="st1" width="100" height="100"/>
<rect x="373.8" y="650.4" class="st1" width="100" height="100"/>
<rect x="488.8" y="650.4" class="st1" width="100" height="100"/>
<rect x="603.8" y="650.4" class="st1" width="100" height="100"/>
<rect x="718.8" y="650.4" class="st1" width="100" height="100"/>
<rect x="833.8" y="650.4" class="st1" width="100" height="100"/>
<rect x="948.8" y="650.4" class="st1" width="100" height="100"/>
<rect x="1063.8" y="650.4" class="st1" width="100" height="100"/>
<g id="アイコン名">
	<g id="アイコン名5">
		<text transform="matrix(1 0 0 1 400.34 773.94)" class="st2 st3 st4">じょうろ</text>
		<text transform="matrix(1 0 0 1 298.79 774.39)" class="st2 st3 st4">き</text>
		<text transform="matrix(1 0 0 1 1101.83 773.94)" class="st2 st3 st4">とり</text>
		<text transform="matrix(1 0 0 1 183.42 774.95)" class="st2 st3 st4">くも</text>
		<text transform="matrix(1 0 0 1 982.33 774.39)" class="st2 st3 st4">きのこ</text>
		<text transform="matrix(1 0 0 1 865.83 773.94)" class="st2 st3 st4">ちょう</text>
		<text transform="matrix(1 0 0 1 752.08 773.94)" class="st2 st3 st4">もみじ</text>
		<text transform="matrix(1 0 0 1 627.78 774.39)" class="st2 st3 st4">どんぐり</text>
		<text transform="matrix(1 0 0 1 506.19 773.94)" class="st2 st3 st4">ちゅーりっぷ</text>
		<text transform="matrix(1 0 0 1 55.61 774.95)" class="st2 st3 st4">かんぱい</text>
	</g>
	<g id="アイコン名4">
		<text transform="matrix(1 0 0 1 171.42 633.34)" class="st2 st3 st4">にんじん</text>
		<text transform="matrix(1 0 0 1 401.54 633.5)" class="st2 st3 st4">けー</text>
		<text transform="matrix(1 0 0 1 425.54 633.5)" class="st2 st3 st4 st5">き</text>
		<text transform="matrix(1 0 0 1 440.54 633.5)" class="st2 st6 st4">2</text>
		<text transform="matrix(1 0 0 1 286.13 633.81)" class="st7"><tspan x="0" y="0" class="st2 st3 st4">けーき</tspan><tspan x="36" y="0" class="st2 st6 st4"> 1</tspan></text>
		<text transform="matrix(1 0 0 1 513.09 633.34)" class="st2 st3 st4">どーなつ</text>
		<text transform="matrix(1 0 0 1 635.83 633.81)" class="st2 st3 st4">ぷりん</text>
		<text transform="matrix(1 0 0 1 871.83 633.34)" class="st3 st4">ぴざ</text>
		<text transform="matrix(1 0 0 1 980.83 633.34)" class="st2 st3 st4">おすし</text>
		<text transform="matrix(1 0 0 1 61.61 633.34)" class="st2 st3 st4">さかな</text>
		<text transform="matrix(1 0 0 1 739.78 633.34)" class="st2 st3 st4">きゃんでぃ</text>
		<text transform="matrix(1 0 0 1 1091.65 633.34)" class="st2 st3 st4">じゅーす</text>
	</g>
	<g id="アイコン名3">
		<text transform="matrix(1 0 0 1 637.3 493.76)" class="st2 st3 st4">りんご</text>
		<text transform="matrix(1 0 0 1 861.85 493.76)" class="st2 st3 st4">かぼちゃ</text>
		<text transform="matrix(1 0 0 1 756.93 494.01)" class="st2 st3 st4">なし</text>
		<text transform="matrix(1 0 0 1 170.29 494.01)" class="st2 st3 st4">おにぎり</text>
		<text transform="matrix(1 0 0 1 524.19 493.76)" class="st2 st3 st4">とまと</text>
		<text transform="matrix(1 0 0 1 290.83 494.01)" class="st2 st3 st4">ぱん１</text>
		<text transform="matrix(1 0 0 1 407.74 494.12)" class="st2 st3 st4">ぱ</text>
		<text transform="matrix(1 0 0 1 419.74 494.12)" class="st2 st3 st4 st5">ん</text>
		<text transform="matrix(1 0 0 1 434.74 494.12)" class="st2 st6 st4">2</text>
		<text transform="matrix(1 0 0 1 982.33 493.76)" class="st2 st3 st4">れもん</text>
		<text transform="matrix(1 0 0 1 1079.65 494.01)" class="st2 st3 st4">ぶろっこりー</text>
		<text transform="matrix(1 0 0 1 47.01 494.25)" class="st2 st3 st4">けちゃっぷ</text>
	</g>
	<g id="アイコン名2">
		<text transform="matrix(1 0 0 1 59.01 353.5)" class="st2 st3 st4">こっぷ</text>
		<text transform="matrix(1 0 0 1 396.58 353.5)" class="st2 st3 st4">すぷーん</text>
		<text transform="matrix(1 0 0 1 515.15 353.75)" class="st2 st3 st4">ふぉーく</text>
		<text transform="matrix(1 0 0 1 1085.65 353.74)" class="st2 st3 st4">まよねーず</text>
		<text transform="matrix(1 0 0 1 986.96 353.01)" class="st2 st3 st4">しお</text>
		<text transform="matrix(1 0 0 1 290.83 353.01)" class="st2 st3 st4">おはし</text>
		<text transform="matrix(1 0 0 1 751.3 353.5)" class="st2 st3 st4">ごはん</text>
		<text transform="matrix(1 0 0 1 867.33 353.5)" class="st2 st3 st4">わいん</text>
		<text transform="matrix(1 0 0 1 629.79 353.5)" class="st2 st3 st4">どんぶり</text>
		<text transform="matrix(1 0 0 1 169.83 353.5)" class="st2 st3 st4">しょっき</text>
	</g>
	<g id="アイコン名1">
		<text transform="matrix(1 0 0 1 65.01 210.68)" class="st2 st3 st4">いえ</text>
		<text transform="matrix(1 0 0 1 1100.66 210.96)" class="st2 st3 st4">ぼうる</text>
		<text transform="matrix(1 0 0 1 986.83 210.68)" class="st2 st3 st4">なべ</text>
		<text transform="matrix(1 0 0 1 867.33 210.07)" class="st2 st3 st4">ぽっと</text>
		<text transform="matrix(1 0 0 1 170.29 210.68)" class="st2 st3 st4">がっこう</text>
		<text transform="matrix(1.04 0 0 1 299.0801 210.6799)" class="st2 st3 st4">どあ</text>
		<text transform="matrix(1 0 0 1 405.83 210.68)" class="st2 st3 st4">ぽすと</text>
		<text transform="matrix(1 0 0 1 517.2 210.68)" class="st2 st3 st4">ひこうき</text>
		<text transform="matrix(1 0 0 1 639.78 210.4)" class="st2 st3 st4">ふね</text>
		<text transform="matrix(1 0 0 1 751.3 210.68)" class="st2 st3 st4">くるま</text>
	</g>
</g>
<g id="アイコン">
	<g id="_5段目">
		<g id="とり">
			<path class="st8" d="M1103.2,672.9c10.1,6.4,8.4,18.7,8.4,18.7c3.7-1.3,7.8-0.8,11.1,1.3c5.4,3.6,6.6,13.8,11.1,18.5
				s8.3,7.3,8.6,8.2s-2.9,1.6-2.9,1.6s2.9,5.3,7.7,6s9.5,0.9,9.5,1.8s-12.8-0.6-12.8-0.6s2.5,4.2,0.1,4.9s-21.5-1.4-21.5-1.4v2.5
				c0,0,7.5,0.5,7.5,1.4s-7.1-0.3-11.1,0s-4.5-0.3-4.5-0.8s5.1-0.8,5.1-0.8v-2.4c0,0-8.3-0.3-10.6-1.7l-2.5,4.7c0,0,6.3,0.7,6.3,1.3
				s-3.1-0.1-6.3,0s-7,0.4-7-0.3s5.5-1.3,5.5-1.3l2.9-5.1c0,0-21.8,0.8-27.9-9.1s9.8-23.6,9.8-23.6c-2.6-4.2-3.9-9.2-3.6-14.1
				C1086.6,674.7,1099.6,671.2,1103.2,672.9z"/>
			<ellipse class="st8" cx="1098.4" cy="686.6" rx="15.2" ry="15"/>
			<path class="st9" d="M1083.2,686.6c0,0-12,5-11.2,5.8s12.6,0.5,12.6,0.5L1083.2,686.6z"/>
		</g>
		<g id="きのこ">
			<path class="st9" d="M989.3,710.1c2.6-1,5.4-1.7,8.2-1.9c3.1,0,6.1,0.3,9.1,1c0,0-2.4,11.3-1.5,15s3.6,7.1,3.3,10.4
				s-3.7,10-8.6,10s-5.5-17-6.5-20.4S989.3,710.1,989.3,710.1z"/>
			<g>
				<defs>
					<path id="SVGID_1_" d="M995.3,663.4c0,0,15.8-0.5,22,14.1c0.5,1.1,1.3,2.1,2.3,2.8c1.8,1.4,4,2.9,5.1,3.6c1.1,0.7,8.1,5,10,7.3
						s4.3,4.4,2.3,9.4s-7.9,6.9-12.3,8.4s-9.9,0.6-14.4-0.6s-7.9-2.4-11.4-2.2c-5.9,0.4-11.8,1.2-17.6,2.4c-2.6-0.2-5.1,0-7.7,0.5
						c-4.5,0.8-6.1,0.9-9.5,0.2c-3.2-0.7-3.8-4.5-3.8-4.8s1.3-7,7.2-16s5.4-12,8.2-15.5S982.3,663.2,995.3,663.4z"/>
				</defs>
				<clipPath id="SVGID_2_">
					<use xlink:href="#SVGID_1_"  style="overflow:visible;"/>
				</clipPath>
				<g class="st10">
					<path class="st8" d="M997.7,663.6c16.7,2,16.9,12.3,21.9,16.7s19.7,10.4,18,18.3s-13.5,11.5-19.9,11.2s-12.6-4.1-20-3.5
						s-12,2.5-18.6,2.5s-15,3.6-18.3-2.2s9.3-20.5,11.2-25.7S979.1,661.4,997.7,663.6z"/>
					<ellipse class="st9" cx="994.5" cy="690.3" rx="8.1" ry="5.9"/>
					<ellipse class="st9" cx="1011.2" cy="674" rx="7" ry="4.9"/>
					<ellipse class="st9" cx="974" cy="707.9" rx="7.2" ry="5.7"/>
					<ellipse class="st9" cx="981.5" cy="672.1" rx="4.9" ry="6.8"/>
					<ellipse class="st9" cx="1024.6" cy="705.4" rx="8.2" ry="9.2"/>
					<path class="st11" d="M976.6,672.1c1.6-2.7,4-4.9,6.8-6.3c5.1-2.7-4.8-5.4-4.8-5.4l-5.8,9.3L976.6,672.1z"/>
					<path class="st11" d="M1011.2,669.1c0,0,4.8,4.7,6,8.5l5.7-9.1L1011.2,669.1z"/>
					<path class="st11" d="M1016.4,709.7c0,0,1.8,0.7,8.2-0.7c6.5-1.5,8.2-3.5,8.2-3.5s6.7,6.9-4.3,9.7S1016.4,709.7,1016.4,709.7z"
						/>
					<path class="st11" d="M981.3,708.6c0,0-5.4-0.2-7.7,0.5c-2.1,0.4-4.3,0.7-6.4,0.7c0,0,0.7,8.8,7.9,8.8S981.3,708.6,981.3,708.6
						z"/>
				</g>
			</g>
		</g>
		<g id="ちょう">
			
				<ellipse transform="matrix(0.8492 -0.5281 0.5281 0.8492 -235.9398 563.2242)" class="st8" cx="868" cy="694.7" rx="14.8" ry="21.3"/>
			
				<ellipse transform="matrix(0.3528 -0.9357 0.9357 0.3528 -106.003 1273.1158)" class="st8" cx="867.3" cy="713.2" rx="27.2" ry="16.5"/>
			
				<ellipse transform="matrix(0.5924 -0.8056 0.8056 0.5924 -192.0157 1012.5012)" class="st8" cx="904.7" cy="696" rx="21.5" ry="15.3"/>
			
				<ellipse transform="matrix(0.9193 -0.3935 0.3935 0.9193 -208.0234 413.8735)" class="st8" cx="905.4" cy="714.3" rx="17.1" ry="27.2"/>
			<path class="st8" d="M907.9,667.5l-1.2-2c0,0-9.8,4.3-13.4,8.8c-2.3,2.9-4,6.1-5.1,9.6l1.6,1c0,0,2.9-6.9,5.9-9.7
				S907.9,667.5,907.9,667.5z"/>
			<path class="st8" d="M863.8,667.1l1.3-2c0,0,10.2,4.5,14,9.1c2.3,2.9,4.1,6.2,5.2,9.7l-1.7,0.9c0,0-2.8-7-5.9-9.9
				S863.8,667.1,863.8,667.1z"/>
			
				<ellipse transform="matrix(0.805 -0.5933 0.5933 0.805 -245.6125 652.7186)" class="st9" cx="870.1" cy="700" rx="9.3" ry="13.1"/>
			
				<ellipse transform="matrix(0.3939 -0.9191 0.9191 0.3939 -126.4963 1230.2441)" class="st9" cx="869.6" cy="711" rx="16.5" ry="10.4"/>
			
				<ellipse transform="matrix(0.5924 -0.8056 0.8056 0.5924 -195.8632 1011.4516)" class="st9" cx="901.7" cy="699.3" rx="12.9" ry="9.2"/>
			
				<ellipse transform="matrix(0.9193 -0.3935 0.3935 0.9193 -206.6991 412.2589)" class="st9" cx="902.2" cy="710.3" rx="10.3" ry="16.3"/>
		</g>
		<g id="もみじ">
			<path class="st8" d="M769,658.5c0,0,34.5,63.1-0.1,62.7S769,658.5,769,658.5z"/>
			<path class="st8" d="M789.8,668.4c0,0,5.7,63.1-22.6,49.9S789.8,668.4,789.8,668.4z"/>
			<path class="st8" d="M747.5,668.7c0,0,50.7,38.1,21.9,50.2S747.5,668.7,747.5,668.7z"/>
			<path class="st8" d="M731.8,690.8c0,0,53.1,4.5,38,26S731.8,690.8,731.8,690.8z"/>
			<path class="st8" d="M804.8,689.8c0,0-21.3,49.5-37.1,28.2S804.8,689.8,804.8,689.8z"/>
			<ellipse class="st8" cx="769.8" cy="709.6" rx="20.5" ry="15.3"/>
			<rect x="767" y="714.5" class="st8" width="5.5" height="20.6"/>
			<path class="st9" d="M769.2,679.4c0,0,19.7,36,0,35.7S769.2,679.4,769.2,679.4z"/>
			<path class="st9" d="M781,685.1c0,0,3.3,36-12.9,28.5S781,685.1,781,685.1z"/>
			<path class="st9" d="M756.9,685.2c0,0,28.9,21.7,12.5,28.7S756.9,685.2,756.9,685.2z"/>
			<path class="st9" d="M748,697.8c0,0,30.3,2.6,21.7,14.8S748,697.8,748,697.8z"/>
			<path class="st9" d="M789.6,697.3c0,0-12.1,28.2-21.1,16.1S789.6,697.3,789.6,697.3z"/>
			<ellipse class="st9" cx="769.6" cy="708.5" rx="11.7" ry="8.7"/>
			<rect x="768" y="711.4" class="st9" width="3.2" height="11.8"/>
			<rect x="764.8" y="717.2" class="st8" width="10.5" height="6.4"/>
		</g>
		<g id="どんぐり">
			<path class="st8" d="M657.1,668.8l19.8,9.5c8.5,4.1,12,14.2,7.9,22.7l0,0l0,0l-50.5-24.3l0,0l0,0
				C638.4,668.2,648.5,664.7,657.1,668.8L657.1,668.8z"/>
			<path class="st8" d="M632.4,680.8l50.5,24.3l0,0l-8.7,18c-6.7,13.8-23.3,19.7-37.1,13l0,0c-14-6.8-19.9-23.6-13.2-37.6
				L632.4,680.8L632.4,680.8L632.4,680.8z"/>
			<path class="st8" d="M667.7,666.6l4.1,2c1.5,0.7,2.1,2.5,1.4,4l-2.5,5.1c-0.2,0.5-0.8,0.7-1.3,0.5l-7.7-3.7
				c-0.5-0.2-0.7-0.8-0.5-1.3l2.5-5.1C664.4,666.5,666.2,665.9,667.7,666.6L667.7,666.6z"/>
			<polygon class="st8" points="633.1,733.3 642,737.6 636.5,737.6 			"/>
			<path class="st12" d="M669.1,719.2c2.6,1,0.8,4.6,0.8,4.6s-1.5,4.8-7.8,8.2s-9.5,3.6-9.5,3.6c-1.3,0.3-2.6-0.5-3.1-1.7
				c-1-2.2,1.1-4,1.1-4c3.3-0.2,6.4-1.1,9.3-2.6c2.8-1.8,5-4.2,6.4-7.2C666.9,719.1,668.1,718.8,669.1,719.2z"/>
		</g>
		<g id="ちゅーりっぷ">
			<rect x="535.3" y="685.7" class="st12" width="6.2" height="49.1"/>
			<path class="st8" d="M539.5,741.4c-13.9,9.7-28.7-25.9-28.7-25.9S551.4,733.1,539.5,741.4z"/>
			<path class="st8" d="M538.3,741.6c15.3,10,27.7-26.6,27.7-26.6S525.3,733.1,538.3,741.6z"/>
			<path class="st8" d="M526.9,670.2c0,0,1.7,4.5-1.9,14.3s1.1,14.1,1.1,14.1c1.3,1.4,2.9,2.6,4.7,3.3c1.1,0.5,2.3,0.7,3.5,0.6
				c-1.8-2.3-2.8-5.1-2.8-7.9c0-4.7,0.4-8.4,1.7-11.7c1-2.5,2.3-5,3.8-7.3c-1.4-1.5-3-2.9-4.8-4C530.5,671,528.7,670.5,526.9,670.2z
				"/>
			<path class="st8" d="M534.2,670.8c1.2-1.4,2.7-2.7,4.2-3.7c1.5,1,2.9,2.3,4.1,3.7c0,0-4,2.6-4.1,3.2
				C537.1,672.8,535.7,671.8,534.2,670.8z"/>
			<path class="st8" d="M549.7,670.5c-0.3,4.1,0.2,8.3,1.7,12.1c2.4,6.2,2.6,12.3-0.9,16.1s-6.7,4.6-9.9,4.6s-8.5-2.6-6.4-14.6
				S541.5,672.5,549.7,670.5z"/>
		</g>
		<g id="じょうろ">
			<path class="st8" d="M423.6,673.8c14.1,0,22.6-1.7,22.6-1.7v65.1c0,0-5.8,0.7-22.6,0.7s-22.6-1.1-22.6-1.1v-64.7
				C408.5,673.4,416,673.9,423.6,673.8z"/>
			<path class="st8" d="M401,674.1l-5.3,62.7c0,0,16,3.8,28.3,3.8s27.8-3.8,27.8-3.8l-5.7-62.7c0,0-15.9,3.4-22.6,3.4
				S401,674.1,401,674.1z"/>
			<polygon class="st8" points="399.4,720.2 385.7,678.2 391.1,678.2 401,700 			"/>
			<path class="st8" d="M457.8,679.2c-5.4-3-11.3,4.8-11.3,4.8l2.9,33.6C457.4,709,463.2,682.2,457.8,679.2z M449.8,708.3l-1.8-21.2
				c0,0,3.8-4.9,7.2-3S454.9,702.9,449.8,708.3L449.8,708.3z"/>
			<path class="st8" d="M423.6,668.3c-12.5,0-22.6,1.7-22.6,3.9s10.1,3.9,22.6,3.9s22.6-1.7,22.6-3.9S436.1,668.3,423.6,668.3z
				 M423.8,673.6c-9.9,0-18-0.8-18-1.8s8-1.8,18-1.8s18,0.8,18,1.8S433.7,673.6,423.8,673.6z"/>
		</g>
		<g id="き">
			<ellipse class="st8" cx="309.2" cy="677.6" rx="14.3" ry="14.3"/>
			<ellipse class="st8" cx="293.9" cy="690.3" rx="14.3" ry="14.3"/>
			<ellipse class="st8" cx="324.2" cy="690.3" rx="14.3" ry="14.3"/>
			<ellipse class="st8" cx="290.2" cy="706.3" rx="14.3" ry="14.3"/>
			<ellipse class="st8" cx="327.4" cy="706.3" rx="14.3" ry="14.3"/>
			<polygon class="st8" points="290.2,720.6 327.4,720.6 309.2,677.6 			"/>
			<rect x="296.9" y="722.6" class="st9" width="23.8" height="19"/>
		</g>
		<g id="くも">
			<ellipse class="st9" cx="204.7" cy="701.5" rx="15.4" ry="14.7"/>
			<ellipse class="st9" cx="183.7" cy="713.7" rx="18.6" ry="16.6"/>
			<ellipse class="st9" cx="220.1" cy="715.3" rx="17.7" ry="15"/>
			<path class="st9" d="M165.1,712.6c0,0-1.5,17.7,18.6,17.7h36.4c10.2,0,16.9-5.7,17-17.7H165.1z"/>
			<path class="st8" d="M162,711.9c0,0-6.1-3.2-7.3-7.6s-2.7-10.3,3.6-16.5s16.2-5.7,19.6-4.5c0,0,2.7-7.2,9.3-8.5
				s15.3,1.9,16.5,10.2c0,0-4-0.6-8.5,2.7s-5.1,4.9-6.6,7.9c0,0-7.4-4-17,2.9S162,711.9,162,711.9z"/>
		</g>
		<g id="かんぱい">
			<path class="st9" d="M85,680.8l17.3-4.5l0,0l9.8,37.4c1.2,4.8-1.6,9.7-6.4,10.9l0,0c-4.8,1.2-9.6-1.6-10.9-6.4L85,680.8L85,680.8
				z"/>
			
				<ellipse transform="matrix(0.9676 -0.2524 0.2524 0.9676 -168.2416 45.6009)" class="st9" cx="93.6" cy="678.6" rx="8.9" ry="4.5"/>
			
				<ellipse transform="matrix(0.9676 -0.2524 0.2524 0.9676 -168.0437 45.5222)" class="st11" cx="93.4" cy="677.7" rx="7.5" ry="2.1"/>
			
				<rect x="104.9" y="722.2" transform="matrix(0.9676 -0.2524 0.2524 0.9676 -180.7899 50.656)" class="st9" width="4.3" height="15.5"/>
			
				<ellipse transform="matrix(0.9676 -0.2524 0.2524 0.9676 -182.8204 51.4732)" class="st9" cx="109.2" cy="738.3" rx="9.1" ry="1.3"/>
			<path class="st9" d="M62.1,725.8l-0.4-0.1c-4.9-0.9-8.1-5.7-7.1-10.5l7.3-37.9l0,0l18.1,3.5l0,0l-7.3,37.9
				C71.7,723.6,67,726.8,62.1,725.8L62.1,725.8z"/>
			<ellipse transform="matrix(0.1905 -0.9817 0.9817 0.1905 -609.1134 619.4128)" class="st9" cx="71" cy="679" rx="4.5" ry="9.2"/>
			
				<ellipse transform="matrix(0.1905 -0.9817 0.9817 0.1905 -608.1773 618.8976)" class="st11" cx="71.2" cy="678.2" rx="2.1" ry="7.8"/>
			
				<rect x="53.1" y="729" transform="matrix(0.1905 -0.9817 0.9817 0.1905 -668.6346 651.6918)" class="st9" width="15.5" height="4.5"/>
			
				<ellipse transform="matrix(0.1905 -0.9817 0.9817 0.1905 -678.1537 656.9311)" class="st9" cx="59.2" cy="739.7" rx="1.3" ry="9.4"/>
			
				<ellipse transform="matrix(1.850903e-02 -0.9998 0.9998 1.850903e-02 -652.8004 766.3031)" class="st8" cx="63.9" cy="715.7" rx="7.7" ry="7.6"/>
			
				<rect x="59.5" y="703.5" transform="matrix(0.1905 -0.9817 0.9817 0.1905 -645.5272 639.2828)" class="st8" width="10.8" height="15.2"/>
			<path class="st8" d="M58.4,704.3c0,0,2.1-2.1,6.4-1.3s3.6,0.7,5.4-0.6s5-6.6,5-6.6l-1.9,11.4L58.4,704.3z"/>
			<circle class="st8" cx="103.3" cy="715.9" r="7.7"/>
			
				<rect x="94.5" y="706" transform="matrix(0.9665 -0.2566 0.2566 0.9665 -179.1389 50.0185)" class="st8" width="15.2" height="10.8"/>
			<path class="st8" d="M93.4,708.1l-2.4-8.6c0,0,4.8,4.4,7.5,3.8s2.5-2.3,4.4-2.8s4.5,1,5.2,3.7L93.4,708.1z"/>
		</g>
	</g>
	<g id="_4段目">
		<g id="じゅーす">
			<ellipse class="st9" cx="1114.3" cy="536.8" rx="18.4" ry="3.3"/>
			<polygon class="st9" points="1095.8,536.8 1132.8,536.8 1130.9,597.1 1097.6,597.1 			"/>
			<ellipse class="st9" cx="1114.3" cy="597.1" rx="16.7" ry="1.8"/>
			<polygon class="st8" points="1098.3,566.5 1130.2,566.5 1128.7,595.8 1099.9,595.8 			"/>
			<ellipse class="st8" cx="1114.3" cy="595.8" rx="14.4" ry="0.9"/>
			<rect x="1120.7" y="522.1" class="st8" width="4.1" height="53.5"/>
		</g>
		<g id="おすし">
			<ellipse class="st9" cx="1000.3" cy="574.2" rx="22.9" ry="14.4"/>
			<ellipse class="st9" cx="997.6" cy="557.1" rx="22.7" ry="14.4"/>
			<path class="st8" d="M974.5,581.4c0,0,12.2-11,23.8-12.8s30.6,4.1,30.6,4.1l3.4-11.5c0,0-22.1-10.6-35.8-8.2s-31.8,20-31.8,20
				L974.5,581.4z"/>
			<path class="st8" d="M965.9,568.2c0,0,16.4-18.5,30.8-19.2s31.8,6.3,31.8,6.3l4.8-9.9c0,0-18.5-8.7-39-6.7s-35.6,23.6-35.6,23.6
				L965.9,568.2z"/>
		</g>
		<g id="ぴざ">
			<path class="st9" d="M903.7,552.5l-63,25h74.8c0,0,2.2-5.4-1.1-13S903.7,552.5,903.7,552.5z"/>
			<circle class="st8" cx="903.6" cy="566.6" r="1"/>
			<circle class="st8" cx="906.5" cy="559" r="1.9"/>
			<circle class="st8" cx="880.6" cy="566.6" r="1"/>
			<circle class="st8" cx="884" cy="574.1" r="1"/>
			<rect x="868.1" y="569.8" class="st8" width="1.5" height="1.5"/>
			<rect x="870.1" y="574.6" class="st8" width="1.5" height="1.5"/>
			<rect x="893" y="561.8" class="st8" width="1.5" height="1.5"/>
			<rect x="899.1" y="573.4" class="st8" width="1.5" height="1.5"/>
			<circle class="st8" cx="912.3" cy="573.2" r="1.9"/>
			<circle class="st8" cx="855.8" cy="576.1" r="1"/>
			<rect x="840.7" y="580.2" class="st9" width="81.9" height="5.9"/>
			<path class="st8" d="M917.7,580.2c0,0,2.7-11.5,0-16.9s-11.8-12.1-11.8-12.1l4.4-2.3c0,0,8.8,7.4,12.2,12.9
				c5.7,9.4,0,24.3,0,24.3L917.7,580.2z"/>
		</g>
		<g id="きゃんでぃ">
			<circle class="st8" cx="769.5" cy="564.5" r="18.5"/>
			<polygon class="st8" points="753.7,559.1 730.1,558.3 734.2,583.6 756.3,573.2 			"/>
			<polygon class="st8" points="781.3,553.4 802.6,545.2 806.8,570.5 783.5,567.6 			"/>
			<polygon class="st9" points="733.5,558.4 741.6,580.2 746,578.1 739.1,558.6 			"/>
			<polygon class="st9" points="743.7,558.8 750.5,576 753.8,574.4 748.3,559 			"/>
			<path class="st9" d="M752.6,557l8.4,24c0.9,0.5,1.7,0.8,2.7,1.1c1.3,0.4,2.1,0.5,2.1,0.5l-10-30.4c0,0-0.9,1.2-1.9,2.5
				C753.3,555.4,752.9,556.2,752.6,557z"/>
			<path class="st9" d="M762.6,547.4c-0.8,0.4-1.7,0.8-2.5,1.2c-0.8,0.5-1.6,1.1-1.6,1.1l11,33.3c1,0,2,0,3-0.2c1.7-0.3,2-0.4,2-0.4
				"/>
			<path class="st9" d="M767.2,546.2l11.5,34.3c0.9-0.5,1.8-1.1,2.6-1.8c1.3-1.2,1.9-1.9,1.9-1.9L773,546.4c-1-0.2-2-0.3-3-0.3"/>
			<path class="st9" d="M777.7,548l8.5,24.2c0,0,2.9-5.2,0.5-12.5S783.4,551.2,777.7,548z"/>
			<polygon class="st9" points="787.7,551 792.4,568.7 796.3,569.2 792,549.3 			"/>
			<polygon class="st9" points="796.3,547.6 801.4,569.9 806.8,570.5 801.5,545.6 			"/>
			<polygon class="st9" points="731.4,566.2 734.2,583.6 737.7,582 			"/>
		</g>
		<g id="ぷりん">
			<ellipse class="st8" cx="653.8" cy="580.2" rx="42.3" ry="8.2"/>
			<ellipse class="st11" cx="655" cy="579.5" rx="35.6" ry="6.6"/>
			<ellipse class="st8" cx="655" cy="579.5" rx="34.5" ry="6.1"/>
			<path class="st9" d="M676.4,544.5c0,3.2-10.2,5.8-22.7,5.8s-22.7-2.6-22.7-5.8l-5.4,35h58.9L676.4,544.5z"/>
			<ellipse class="st8" cx="653.7" cy="542.5" rx="22.7" ry="5.8"/>
			<ellipse class="st9" cx="655" cy="579.5" rx="29.4" ry="3.8"/>
		</g>
		<g id="どーなつ">
			<path class="st12" d="M539,530.3c-19.5,0-35.3,15.8-35.3,35.3c0,19.5,15.8,35.3,35.3,35.3c19.5,0,35.3-15.8,35.3-35.3
				S558.5,530.3,539,530.3C539,530.3,539,530.3,539,530.3z M539,582.3c-9.2,0-16.7-7.5-16.7-16.7S529.8,549,539,549
				s16.7,7.5,16.7,16.7v0C555.7,574.8,548.2,582.3,539,582.3z"/>
			<path class="st13" d="M539,530.3c21.4,0,35.3,18.7,35.3,32.9l-1.8,8.5c0,1.2-1,2.2-2.2,2.3c-0.1,0-0.2,0-0.3,0
				c-1.1,0.2-2.1-0.6-2.3-1.7c0-0.2,0-0.3,0-0.5l-0.5-7.8c0,0-0.5-2.8-2.1-2.8s-1.8,2.6-1.8,2.6l0.1,5.9c0,0,0.1,2.4-1.5,2.4
				s-1.8-2.4-1.8-2.4l-0.2-4.2c0,0-0.3-1.4-1.4-1.4s-1.2,1.4-1.2,1.4s0.6,6.1-0.6,6.1s-1-6.1-1-6.1S554.4,549,539,549
				c-11.4,0-16.7,9.7-16.7,16.7V578c0,0,0,2.4-1.9,2.4s-2.2-2.1-2.2-2.1l-1-15.9c0,0,0.1-2.9-1.5-2.9S514,562,514,562l-0.5,11
				c0,0,0.1,2.5-1.5,2.5s-1.9-2.1-1.9-2.1l-0.6-7.8c0,0,0-2.3-1.5-2.3s-1.5,2.3-1.5,2.3l-0.8,7.3c0,0,0.1,2-0.8,2
				c-0.9-4.1-1.3-8.2-1.3-12.4C503.8,555.6,512.3,530.3,539,530.3z"/>
			<rect x="538.1" y="531.7" class="st12" width="1.8" height="1.8"/>
			<rect x="542.9" y="533.5" class="st12" width="1.8" height="1.8"/>
			<rect x="533.7" y="533.5" class="st12" width="1.8" height="1.8"/>
			<rect x="549.4" y="534.4" class="st12" width="1.8" height="1.8"/>
			<rect x="548.2" y="540.4" class="st12" width="1.8" height="1.8"/>
			<rect x="531.1" y="538.3" class="st12" width="1.8" height="1.8"/>
			<rect x="527.4" y="534.4" class="st12" width="1.8" height="1.8"/>
			<rect x="521.9" y="537.1" class="st12" width="1.8" height="1.8"/>
			<rect x="525.9" y="540.8" class="st12" width="1.8" height="1.8"/>
			<rect x="538.8" y="537.6" class="st12" width="1.8" height="1.8"/>
		</g>
		<g id="けーき2">
			<rect x="392.5" y="549.4" class="st11" width="62.2" height="28.9"/>
			<ellipse class="st9" cx="423.6" cy="582.3" rx="31.1" ry="6.3"/>
			<ellipse class="st9" cx="423.6" cy="549.4" rx="31.1" ry="6.3"/>
			<path class="st9" d="M423.1,562c14.2,0,26.5,1.5,31.6,3.7v-14c0,3.5-13.9,6.3-31.1,6.3s-31.1-2.8-31.1-6.3v13.6
				C398.1,563.4,409.7,562,423.1,562z"/>
			<path class="st9" d="M423.1,574.1c-13.4,0-24.9-1.3-30.6-3.3v11.5h62.2v-11.9C449.5,572.5,437.3,574.1,423.1,574.1z"/>
			<ellipse class="st9" cx="423.6" cy="565.6" rx="31.1" ry="6"/>
			<path class="st8" d="M424.5,534.3c2.7,0,8.2,7,8.2,12.7s-8.2,5.9-8.2,5.9s-9-0.7-9-5.8S421.1,534.3,424.5,534.3z"/>
			<path class="st8" d="M404.6,536.8c2,0,6,5.1,6,9.3s-6,4.3-6,4.3s-6.5-0.5-6.5-4.2S402.1,536.8,404.6,536.8z"/>
			<path class="st8" d="M444.2,536.9c2,0,6,5.1,6,9.3s-6,4.3-6,4.3s-6.5-0.5-6.5-4.2S441.7,536.9,444.2,536.9z"/>
		</g>
		<g id="けーき1">
			<g>
				<defs>
					<path id="SVGID_3_" d="M279,556.2l49-25.5c0,0,7.7,3.8,9.6,10.7c1.1,4.1,1.3,8.5,0.5,12.7V594H279V556.2z"/>
				</defs>
				<clipPath id="SVGID_4_">
					<use xlink:href="#SVGID_3_"  style="overflow:visible;"/>
				</clipPath>
				<g class="st14">
					<rect x="325.8" y="531.8" class="st8" width="12.3" height="62.2"/>
					<rect x="279" y="556.2" class="st9" width="55.6" height="37.8"/>
					<path class="st11" d="M334,526.9l-48.5,25.5h58.1c0,0,2.2-7.7,0-14.8S334,526.9,334,526.9z"/>
					<path class="st8" d="M328,530.7l-49,25.5h58.6c0,0,2.2-7.7,0-14.8S328,530.7,328,530.7z"/>
					<rect x="279" y="566.8" class="st8" width="55.6" height="3.4"/>
					<rect x="279" y="581.9" class="st8" width="55.6" height="3.4"/>
					<rect x="279" y="574.7" class="st11" width="55.6" height="2.6"/>
				</g>
			</g>
		</g>
		<g id="にんじん">
			<path class="st8" d="M210.2,565.7c-19,22.5-39.5,36.5-45.7,31.3s4.2-27.7,23.3-50.2S229.3,543.2,210.2,565.7z"/>
			<path class="st8" d="M215.1,538c2.6,2.3,4.2,5.4,4.6,8.9l3.6-4.3l-7.1-5.9l-6.9-5.8l-3.6,4.3C209.1,534.7,212.6,535.7,215.1,538z
				"/>
			<path class="st8" d="M220,532.3c1.8,1.5,7-2.4,7-2.4s-4.2,4.8-2.9,5.9s7.1-2.4,7.1-2.4l-7.8,9.3l-14-11.8l7.8-9.3
				c0,0-2.3,6-1.1,7s5.9-3,5.9-3S218.2,530.8,220,532.3z"/>
			<path class="st9" d="M203.1,571.4c0,0-9.7-9.7-9.5-9.9s11,8.3,11,8.3L203.1,571.4z"/>
			<path class="st9" d="M199,575.9c0,0-9-10.3-8.8-10.6s10.4,9.1,10.4,9.1L199,575.9z"/>
			<path class="st9" d="M193.2,581.5c0,0-10.8-15.8-10.5-16.2s12.7,14,12.7,14L193.2,581.5z"/>
		</g>
		<g id="さかな">
			<path class="st8" d="M41.6,560c0,4.8,16.8,23.2,36.4,23.2s36.6-16.1,36.6-16.1l9.8,11.4v-30.3l-9.8,8.3c0,0-15.4-15-34.4-15
				S41.6,560,41.6,560z"/>
			<circle class="st9" cx="56.4" cy="558.2" r="1.6"/>
			<polygon class="st9" points="75.4,556.4 84,550.6 81.4,574.9 74.5,564.9 			"/>
		</g>
	</g>
	<g id="_3段目">
		<g id="ぶろっこりー">
			<path class="st9" d="M1084.6,424.3c0,0,11.7,8.1,13.5,13.1s2.2,15.7,2.2,15.7h24.1c0,0-2.9-9.3,0-16.9s12.6-12.8,12.6-12.8
				L1084.6,424.3z M1105,443.7c0,0-0.5-3.1-0.9-4.6c-0.5-1.3-1.2-2.5-2-3.6l2-2.6l2,1.5L1105,443.7z M1109.4,441.6l-1.8-9.1
				c0.5,0.4,1.2,0.6,1.8,0.7c0.8,0,1.9-1.2,1.9-1.2L1109.4,441.6z M1113.8,442.1l-0.6-8.9l2.1-0.8L1113.8,442.1z M1117.2,444.6
				l2.8-12.8c0.6,0.7,1.3,1.2,2.1,1.6L1117.2,444.6z"/>
			<ellipse class="st8" cx="1091" cy="413.9" rx="18.4" ry="14.1"/>
			<ellipse class="st8" cx="1107.1" cy="398.9" rx="17.4" ry="15"/>
			<ellipse class="st8" cx="1108.2" cy="421.4" rx="17.4" ry="15"/>
			<ellipse class="st8" cx="1135.2" cy="413.7" rx="19.5" ry="13.9"/>
			<ellipse class="st8" cx="1127.7" cy="399.5" rx="12" ry="8"/>
			<ellipse class="st8" cx="1091" cy="401" rx="7.7" ry="6.4"/>
			<ellipse class="st8" cx="1095.1" cy="426.1" rx="15.4" ry="13.1"/>
			<circle class="st8" cx="1125.8" cy="430.3" r="9"/>
			<ellipse transform="matrix(0.866 -0.5 0.5 0.866 -58.6981 626.1577)" class="st8" cx="1139.1" cy="422.6" rx="12.7" ry="13.6"/>
			<path class="st9" d="M1100.3,453.1l-1.6,3.7c4.1,0.8,8.3,1.2,12.6,1.2c5.1-0.3,10.2-0.9,15.2-1.7l-2.1-3.2L1100.3,453.1z"/>
		</g>
		<g id="れもん">
			<path class="st9" d="M1030.5,390.3c3.3,3.3,0.6,11.6,0.6,11.6s3.8,25.6-12.8,41.1s-41.5,13.4-41.5,13.4s-6.3,2-9.5-1.5
				s-0.7-8.6-0.7-8.6s1.9-29.2,16.2-41.3s38.8-12.6,38.8-12.6S1027.9,387.7,1030.5,390.3z"/>
			<circle class="st8" cx="1024.6" cy="397.5" r="0.9"/>
			<circle class="st8" cx="1025.5" cy="406.8" r="0.9"/>
			<circle class="st8" cx="1014.4" cy="398.2" r="0.9"/>
			<circle class="st8" cx="1014.4" cy="407.7" r="0.9"/>
			<circle class="st8" cx="1005.9" cy="398.3" r="0.9"/>
			<circle class="st8" cx="1025.5" cy="416.3" r="0.9"/>
			<circle class="st8" cx="1005.9" cy="406.8" r="0.9"/>
			<circle class="st8" cx="1015.3" cy="416.3" r="0.9"/>
			<path class="st8" d="M1022.6,388.7c0,0-2-6.3-6.1-7.5s-12,1.2-12,1.2s5.1,6.4,8.7,7.9S1022.6,388.7,1022.6,388.7z"/>
		</g>
		<g id="かぼちゃ">
			<path class="st8" d="M898.6,401.8c0,0,6.8-3.2,10.9,0s8.4,10.1,6.5,19.5s-3.8,28-8.5,28.7s-12.2-1-12.2-1L898.6,401.8z"/>
			<path class="st8" d="M873,401.8c0,0-7-3.2-11.2,0c-5.8,4.7-8.4,12.2-6.7,19.5c1.9,9.3,3.9,28,8.7,28.7s12.5-1,12.5-1L873,401.8z"
				/>
			<path class="st8" d="M918.7,410.7c0,0,6.8-1,6.1,9.5s-4.8,27.2-9.4,28.8s-3.3,0.7-3.3,0.7c1-2.1,1.9-4.3,2.5-6.6
				c1.2-4.9,2.2-9.8,2.8-14.8c0.6-4.3,1.7-9.6,1.9-12.2C919.5,414.2,919.2,412.4,918.7,410.7z"/>
			<path class="st8" d="M852.7,409.9c0,0-6.3-0.8-5.4,9.9s5.1,27.9,9.5,29.4s3,0.7,3,0.7c-1-2.2-1.8-4.4-2.5-6.7
				c-1.3-5-2.3-10.1-3-15.2c-0.7-4.5-1.8-9.9-2.1-12.5C852,413.6,852.2,411.7,852.7,409.9z"/>
			<path class="st8" d="M896,401.6l-3,46.6c0,0-5.6-1-7.4-1s-7.2,1-7.2,1l-2.8-46.6c0,0,2.2-2.7,4.3-2.7s4,1.4,5.7,1.4
				s4.1-1.4,6.1-1.4S896,401.6,896,401.6z"/>
			<path class="st8" d="M891.8,396.7c0,0-3.9,1.6-6.1,1.6c-2-0.2-3.9-0.7-5.6-1.6l-1.2-7.5c0,0,4.7-1.6,7-1.6s6.9,1.8,6.9,1.8
				L891.8,396.7z"/>
		</g>
		<g id="なし">
			
				<ellipse transform="matrix(0.1764 -0.9843 0.9843 0.1764 235.7254 1099.0559)" class="st9" cx="774.6" cy="408.7" rx="17" ry="19.2"/>
			
				<ellipse transform="matrix(0.1099 -0.9939 0.9939 0.1099 248.8985 1148.0303)" class="st9" cx="765.4" cy="435" rx="24.4" ry="25.1"/>
			<path class="st9" d="M757.5,400.2c-4,10-9.4,19.4-16.3,27.8l10.7,4.5l7.9-19.4l4.5-11.5L757.5,400.2z"/>
			<path class="st9" d="M793.4,412.4c0,0-4.5,14.3-2.9,25.1l-11.5-2.3l8.3-26.5L793.4,412.4z"/>
			<path class="st8" d="M798.1,387.5c0,0-4-2.5-7.9-1.4s-6.5,5.5-6.5,5.5c2.7,0.7,5.5,0.7,8.2,0.2
				C794.3,391,796.5,389.5,798.1,387.5z"/>
			<path class="st8" d="M782.6,391.3l-2.6-0.7c0,0,1.9-1.6,1.1-5.7c-0.5-2.6-1.8-4.9-3.6-6.8l2.2-1.3c1.7,2.2,3,4.8,3.8,7.5
				C783.9,386.6,783.6,389,782.6,391.3z"/>
		</g>
		<g id="りんご">
			<path class="st8" d="M653.6,407.3c6.7,0,8-6.4,15.2-6.4s16.6,7.4,16.6,25.5s-16.6,30.1-31.7,30.1s-33.1-9.9-33.1-27.8
				s7.3-27.8,15.6-27.8S646,407.3,653.6,407.3z"/>
			<path class="st9" d="M648.1,423c0,0-10.5,8.2-5.4,11.1S648.1,423,648.1,423z"/>
			<path class="st9" d="M658,423.1c0,0,9.6,7.5,5,10.6S658,423.1,658,423.1z"/>
			<path class="st8" d="M652.8,406.3h2.6c0,0-1.3-2.4,0.5-6.7c1.1-2.6,2.9-4.8,5.2-6.4l-1.7-2.1c-2.3,2-4.1,4.4-5.5,7.1
				C652.9,400.7,652.5,403.5,652.8,406.3z"/>
			<path class="st8" d="M642,391.6c0,0,4.9,0.5,7.4,4.3s1.9,9.7,1.9,9.7c-2.7-1.3-5.1-3.2-6.9-5.6C642.8,397.5,642,394.6,642,391.6z
				"/>
		</g>
		<g id="とまと">
			<path class="st8" d="M556,407.1l-0.5-0.3c-1.3-0.8-2.8-1.3-4.4-1.4c-1.6,0.1-3.2,0.7-4.5,1.6c-2.4-2-5.5-3.2-8.6-3.3
				c-2.9,0-5.8,1.2-7.8,3.3c0,0-5.3-2.5-9.3,0c-8.3,5.1-13.8,13.8-13.8,23.6c0,15.7,14.1,28.4,31.4,28.4s31.4-12.7,31.4-28.4
				C569.8,420.8,564.3,412.2,556,407.1z"/>
			<path class="st8" d="M537.2,400.5c6.6,0,8.8,3,8.8,3c1.4-0.7,2.8-1,4.3-1c0.9,0,1.9,0.2,2.8,0.5v-5.7H522v6.8
				c1.3-0.8,2.9-1.1,4.4-1.1c1.4,0.2,2.7,0.5,4,1.1C530.4,404.1,534.1,400.5,537.2,400.5z"/>
			<path class="st8" d="M522,399.1c-0.9-2.5-4.5-6.4-4.5-6.4l11.7,3.2l8.3-9.1l7.6,8.8l10.1-2.9c-1.1,2-1.8,4.1-2.2,6.4L522,399.1z"
				/>
		</g>
		<g id="ぱん2">
			<ellipse class="st8" cx="437.9" cy="403.5" rx="16" ry="20.3"/>
			<ellipse class="st8" cx="408.6" cy="403.5" rx="16" ry="20.3"/>
			<path class="st8" d="M423.2,387.1c3.6,0,10.6-3.9,14.7-3.9v10.9h-29.3v-10.9C413.4,383.2,419.3,387.1,423.2,387.1z"/>
			<ellipse class="st9" cx="437.9" cy="406" rx="16" ry="15.3"/>
			<ellipse class="st9" cx="408.6" cy="406" rx="16" ry="15.3"/>
			<path class="st9" d="M423.2,393.6c3.6,0,10.6-3,14.7-3v8.2h-29.3v-8.2C413.5,390.6,419.3,393.6,423.2,393.6z"/>
			<path class="st9" d="M400.6,397.9h45.3c4.4,0,8,3.6,8,8v42.5c0,4.4-3.6,8-8,8h-45.3c-4.4,0-8-3.6-8-8v-42.5
				C392.6,401.5,396.2,397.9,400.6,397.9z"/>
		</g>
		<g id="ぱん1">
			<g>
				<defs>
					<path id="SVGID_5_" d="M293.7,408.2c0,0,5,11,9.9,15.9c-3-6.6-7.4-17.6-7.4-17.6c1.3-0.8,2.7-1.5,4.1-2.1c0,0,2.9,7.4,3.8,9.4
						s3.6,7.8,4.7,8.9c-1-2.8-3-9.3-3.4-10.7s-2.3-8.6-2.3-8.6c1.3-0.4,2.7-0.7,4.1-1c0,0,5.3,16.2,8.2,19.6
						c-1.7-5.8-4.9-18.1-5-19.9c1.6,0,3.3,0.1,4.9,0.3c0,0,4,14.8,6.4,18.1c0,0-2.9-14.3-3.3-17.3c1,0.4,2.1,0.8,3,1.4
						c4.7-2.9,10.2-4.2,15.7-3.7c8.9,0.9,14.8,4.5,16,12.2s-1.8,22.1-37.6,32.4c-34.4,7.5-48-4.8-49.5-11.5
						c-2.3-9.7,4.8-16.7,7.9-18.8c4.2-2.9,9-4.6,14-5.1l3-0.2L293.7,408.2z"/>
				</defs>
				<clipPath id="SVGID_6_">
					<use xlink:href="#SVGID_5_"  style="overflow:visible;"/>
				</clipPath>
				<g class="st15">
					
						<ellipse transform="matrix(0.9769 -0.2137 0.2137 0.9769 -83.9107 76.0981)" class="st8" cx="310" cy="426.1" rx="43.4" ry="20.1"/>
					
						<ellipse transform="matrix(0.9543 -0.2989 0.2989 0.9543 -110.7546 110.8656)" class="st8" cx="307.1" cy="417.5" rx="21" ry="14.7"/>
					
						<ellipse transform="matrix(0.9769 -0.2137 0.2137 0.9769 -81.5366 80.8046)" class="st8" cx="333" cy="417.5" rx="20.6" ry="16.5"/>
					
						<ellipse transform="matrix(0.903 -0.4297 0.4297 0.903 -156.003 164.1386)" class="st8" cx="285.4" cy="427.5" rx="20.6" ry="16.5"/>
					<path class="st11" d="M292.5,405.9l2.7-1.7c0,0,4.9,13.4,8.3,19.9C298.7,418.5,292.5,405.9,292.5,405.9z"/>
					<path class="st11" d="M299.9,403.3l2.9-1.4c0,0,3.4,13.9,6,20.7C304.5,416.5,299.9,403.3,299.9,403.3z"/>
					<path class="st11" d="M307.2,402.4l3-1.3c0,0,2.9,14,5.3,20.9C311.5,415.8,307.2,402.4,307.2,402.4z"/>
					<path class="st11" d="M314.8,400.5l3-1.1c0,0,2,14.1,3.9,21.2C318.1,414.1,314.8,400.5,314.8,400.5z"/>
				</g>
			</g>
		</g>
		<g id="おにぎり">
			<path class="st9" d="M194.7,380.5c15,0,36.3,45,36.3,61.6s-13.9,13.6-36.3,12.9s-39.2,2.4-39.2-11
				C155.5,430.1,178.7,380.3,194.7,380.5z"/>
			<polyline class="st11" points="177.2,454.9 177.2,419.8 212,419.8 212,455.7 			"/>
			<path class="st8" d="M175.6,418.1H212v37.5c0,0-8.4-0.7-18.1-0.7s-18.3-0.1-18.3-0.1L175.6,418.1z"/>
		</g>
		<g id="けちゃっぷ">
			
				<rect x="95.6" y="384.1" transform="matrix(0.528 -0.8492 0.8492 0.528 -278.886 268.0546)" class="st9" width="12.1" height="1.7"/>
			
				<rect x="103" y="388.6" transform="matrix(0.528 -0.8492 0.8492 0.528 -279.2977 276.4861)" class="st9" width="12.1" height="1.7"/>
			
				<rect x="99.3" y="386.3" transform="matrix(0.528 -0.8492 0.8492 0.528 -279.0963 272.2337)" class="st9" width="12.1" height="1.7"/>
			
				<rect x="97.5" y="385.2" transform="matrix(0.528 -0.8492 0.8492 0.528 -278.9845 270.1461)" class="st9" width="12.1" height="1.7"/>
			
				<rect x="101.2" y="387.5" transform="matrix(0.528 -0.8492 0.8492 0.528 -279.1973 274.4025)" class="st9" width="12.1" height="1.7"/>
			<ellipse transform="matrix(0.528 -0.8492 0.8492 0.528 -332.8565 270.685)" class="st8" cx="77.1" cy="434.8" rx="29" ry="25"/>
			<path class="st8" d="M96.4,390.9l9.5,5.9c0,0-1.6,37.7-4.5,44.4s-46-20.2-40.8-25.4S96.4,390.9,96.4,390.9z"/>
		</g>
	</g>
	<g id="_2段目">
		<g id="まよねーず">
			
				<rect x="1127.5" y="240.5" transform="matrix(0.528 -0.8492 0.8492 0.528 330.0772 1076.6456)" class="st8" width="12.1" height="1.7"/>
			
				<rect x="1134.9" y="245.1" transform="matrix(0.528 -0.8492 0.8492 0.528 329.6702 1085.0856)" class="st8" width="12.1" height="1.7"/>
			
				<rect x="1131.2" y="242.8" transform="matrix(0.528 -0.8492 0.8492 0.528 329.8808 1080.8434)" class="st8" width="12.1" height="1.7"/>
			
				<rect x="1129.4" y="241.7" transform="matrix(0.528 -0.8492 0.8492 0.528 329.9829 1078.7552)" class="st8" width="12.1" height="1.7"/>
			
				<rect x="1133.1" y="244" transform="matrix(0.528 -0.8492 0.8492 0.528 329.7701 1083.0117)" class="st8" width="12.1" height="1.7"/>
			
				<ellipse transform="matrix(0.528 -0.8492 0.8492 0.528 276.0491 1079.2416)" class="st9" cx="1108.9" cy="291.3" rx="29" ry="25"/>
			<path class="st9" d="M1128.3,247.4l9.5,5.9c0,0-1.5,37.7-4.5,44.4s-46-20.2-40.8-25.4S1128.3,247.4,1128.3,247.4z"/>
		</g>
		<g id="しお">
			<g id="容器">
				<path class="st8" d="M981.8,258h33.2c1.1,0,2,0.9,2,2v7.7c0,1.1-0.9,2-2,2h-33.2c-1.1,0-2-0.9-2-2V260
					C979.8,258.9,980.7,258,981.8,258z"/>
				<path class="st8" d="M979,298.4h39.6c1.1,0,2,0.9,2,2V315c0,1.1-0.9,2-2,2H979c-1.1,0-2-0.9-2-2v-14.5
					C977,299.3,977.9,298.4,979,298.4z"/>
				<polygon class="st8" points="979.8,263.9 977,300.8 1020.6,300.8 1017,263.9 				"/>
				<polygon class="st8" points="980.4,257.1 980.4,249.7 1016.5,249.7 1016.5,257.1 				"/>
				<ellipse class="st11" cx="998.5" cy="250.2" rx="18.1" ry="2.6"/>
				<ellipse class="st8" cx="998.5" cy="249.7" rx="18.1" ry="2.6"/>
				<ellipse class="st11" cx="997.9" cy="258" rx="18.6" ry="1.6"/>
				<ellipse class="st8" cx="998.5" cy="257.1" rx="18.1" ry="1.6"/>
			</g>
			<g id="中身">
				<path class="st9" d="M1018.8,316.3h-39.5c0,0-0.6,0.2-1.4-0.8v-14.8h41.8c0,0,0.2,13.8,0,14.5
					C1019.5,315.7,1019.2,316.1,1018.8,316.3z"/>
				<polygon class="st9" points="977.8,301.3 978.5,293.8 1018.8,293.8 1019.7,301.3 				"/>
				<ellipse class="st9" cx="997.9" cy="292.6" rx="11.1" ry="2.8"/>
				<ellipse class="st9" cx="1009.9" cy="293.8" rx="8.9" ry="2.2"/>
				<ellipse class="st9" cx="987.4" cy="293.8" rx="9" ry="2.2"/>
			</g>
			<g id="穴">
				<circle class="st11" cx="998.6" cy="249.7" r="0.7"/>
				<circle class="st11" cx="1013.1" cy="249.7" r="0.7"/>
				<circle class="st11" cx="983.4" cy="249.5" r="0.7"/>
				<circle class="st11" cx="1007.5" cy="250.9" r="0.7"/>
				<circle class="st11" cx="990.5" cy="250.9" r="0.7"/>
				<circle class="st11" cx="994" cy="248.1" r="0.7"/>
				<circle class="st11" cx="1003.1" cy="248.1" r="0.7"/>
			</g>
		</g>
		<g id="わいん">
			<path class="st9" d="M883.1,252.9h3.8c8.3,0,15,6.7,15,15l0,0v55.7c0,1.1-0.9,2-2,2h-29.8c-1.1,0-2-0.9-2-2v-55.7
				C868.1,259.6,874.8,252.9,883.1,252.9L883.1,252.9z"/>
			<rect x="880.2" y="248.2" class="st9" width="10.7" height="17.1"/>
			<rect x="880.2" y="243.6" class="st9" width="10.7" height="2.1"/>
			<path class="st8" d="M872.2,284.2h26.5l0,0v36.9c0,1.1-0.9,2-2,2h-22.5c-1.1,0-2-0.9-2-2V284.2L872.2,284.2z"/>
			<ellipse class="st8" cx="876.6" cy="282.7" rx="4.4" ry="3.4"/>
			<ellipse class="st8" cx="893.9" cy="282.7" rx="4.7" ry="3.4"/>
			<ellipse class="st8" cx="884.7" cy="282.7" rx="4.5" ry="3.4"/>
			<polygon class="st8" points="872.2,286.2 872.2,282.7 898.6,282.7 898.7,286.2 			"/>
			<path class="st8" d="M879.1,279.9c0.4,0.4,0.9,0.6,1.4,0.7c0.7,0,1.9-1.3,4.2-1.3s3.8,1.5,4.5,1.5s2.3-1.5,4.7-1.5v4.3l-14.9-0.4
				V279.9z"/>
			<rect x="880.2" y="234.8" class="st8" width="10.7" height="6.3"/>
			<rect x="874.5" y="266.1" class="st11" width="21.2" height="26.5"/>
			<text transform="matrix(1 0 0 1 879.07 274.8)" class="st8 st16 st17">wine</text>
		</g>
		<g id="ごはん">
			<ellipse class="st12" cx="768.8" cy="276.9" rx="23.3" ry="23.7"/>
			<ellipse class="st8" cx="768.8" cy="287.5" rx="32.9" ry="20.8"/>
			<rect x="753.3" y="304.2" class="st8" width="31.2" height="11.5"/>
			<ellipse transform="matrix(0.832 -0.5548 0.5548 0.832 -25.4745 460.9677)" class="st12" cx="748.3" cy="272.5" rx="9" ry="8"/>
			<ellipse transform="matrix(0.832 -0.5548 0.5548 0.832 -19.1638 464.3094)" class="st12" cx="756.9" cy="263.8" rx="9" ry="8"/>
			<ellipse class="st12" cx="768.5" cy="259.1" rx="8.9" ry="8"/>
			<ellipse class="st12" cx="792.1" cy="279.5" rx="8.9" ry="8"/>
			<ellipse transform="matrix(0.5101 -0.8601 0.8601 0.5101 152.9708 813.9321)" class="st12" cx="791" cy="272.7" rx="8" ry="9"/>
			<ellipse transform="matrix(0.4729 -0.8811 0.8811 0.4729 180.4851 824.1274)" class="st12" cx="779" cy="261.2" rx="8" ry="9"/>
			<ellipse class="st12" cx="768.8" cy="280.9" rx="32.9" ry="10.7"/>
			<ellipse class="st12" cx="765.3" cy="275.4" rx="20.2" ry="14.2"/>
		</g>
		<g id="どんぶり">
			<path class="st8" d="M618,278.4h71.7l0,0v1.6c0,16.6-13.4,30-30,30l0,0H648c-16.6,0-30-13.4-30-30l0,0V278.4L618,278.4z"/>
			<rect x="637.5" y="307.4" class="st8" width="32.7" height="11.1"/>
			<path class="st8" d="M648.8,253.3c0,0,7.5,1.6,7.5,5.3c0,3.7-7.3,4-7.5,7.4s5.3,5.5,5.3,5.5l2.2-0.8c0,0-5.1-2.5-5.1-4.6
				s7.8-3.9,7.8-7.3c0-4.9-9.4-6.5-9.4-6.5L648.8,253.3z"/>
			<path class="st8" d="M660,253.3c0,0,7.5,1.6,7.5,5.3c0,3.7-7.3,4-7.5,7.4s5.3,5.5,5.3,5.5l2.2-0.8c0,0-5.1-2.5-5.1-4.6
				s7.8-3.9,7.8-7.3c0-4.9-9.4-6.5-9.4-6.5L660,253.3z"/>
			<path class="st8" d="M637.5,253.3c0,0,7.5,1.6,7.5,5.3c0,3.7-7.3,4-7.5,7.4s5.3,5.5,5.3,5.5l2.2-0.8c0,0-5.1-2.5-5.1-4.6
				s7.8-3.9,7.8-7.3c0-4.9-9.4-6.5-9.4-6.5L637.5,253.3z"/>
		</g>
		<path id="ふぉーく" class="st8" d="M569.1,246.9c6.4,1-35.1,41.6-35.1,41.6s4.3,6.7-4.9,15.3s-15.8,11.5-16.4,10.9
			s4.2-4.6,6.2-6.5s5.2-5.5,4.9-5.9s-13.4,11.1-14.4,10s3.7-3.4,6.7-6.5s5.8-6.4,5.3-7s-5,4.9-7.7,6.7s-5.6,4.6-6.2,4
			s11.4-11.3,12.8-13.5s6.2-8.9,10.6-9.5C530.9,286.3,559.5,245.4,569.1,246.9z"/>
		<path id="すぷーん" class="st8" d="M454.8,246.7c4.9,4.2-35.2,41.8-35.2,41.8s4.3,6.7-4.9,15.4s-15.8,9-20,5.7
			s1.3-15.9,6.6-21.2s13.4-4.2,13.4-4.2S447.9,240.9,454.8,246.7z"/>
		<g id="おはし">
			<path class="st9" d="M347,305.5c0,0-16.3-14.6-19.2-25.5s-1.5-16.8-3.9-18.7s-10.2-9-14.1-8.8s-12.9,1.5-15.8,3.6
				s-7.3,8.5-10,10.7s-9.6,6.1-9.3,9.6s9,2.2,10.8,1c3.5-2.2,6.9-4.5,10.2-7.1c2.6-2.3,6.8-8.9,8.9-8.8s10.4,6.4,10.9,8.3
				s-6.5,19.3-6.2,25.4c0.2,2.4,0.7,4.8,1.4,7.1c1.7,6.4,4.4,13.5,4.4,13.5l1,3.1L347,305.5z"/>
			<path class="st9" d="M295.3,272.4c0,0,0.9-7.2,2.5-9.2s9.2-4.5,9.2-4.5l12.8,8l-13.2,16.7L295.3,272.4z"/>
			<path class="st8" d="M317.4,244.6l-46,56.8c0,0-1.2,1.9-0.6,2.4s2.2-0.7,2.2-0.7l46.8-56.9c0.1-0.6-0.2-1.3-0.7-1.7
				C318.6,244.3,318,244.3,317.4,244.6z"/>
			<path class="st8" d="M322.7,250.5l-49.1,54.2c0,0-1.3,1.8-0.7,2.4s2.2-0.6,2.2-0.6l49.9-54.2c0.1-0.6-0.1-1.3-0.6-1.7
				C323.9,250.3,323.3,250.3,322.7,250.5z"/>
			<path class="st9" d="M308.5,294.6c0,0-6.1,0.7-8.9-1.9s-3.4-8.9-5.2-12.1s-9.6-14.4-6.3-17.2s9,5.8,11.4,8s13.6-2.1,13.6-2.1
				l6.1,5.9C319.1,275.2,321.3,288.4,308.5,294.6z"/>
		</g>
		<g id="しょっき">
			<ellipse class="st9" cx="196.2" cy="277.7" rx="30.4" ry="31.2"/>
			<path class="st8" d="M231.5,309.9c-3.7,2.2,0.3-37,0.3-37s-5.1-1.8-4-10.2s3.2-12.7,3.8-12.7s-0.2,4.2-0.4,6.1
				c-0.2,1.9-0.3,5.1,0,5.2s2.1-11.6,3.2-11.4s-0.5,3.4-0.7,6.3c-0.2,2.9-0.3,5.9,0.2,6s0.5-4.7,1.1-6.8s1-4.8,1.5-4.8
				s-1.1,10.8-0.8,12.6s0.6,7.4-1.4,9.5C234.4,272.8,237.1,306.6,231.5,309.9z"/>
			<path class="st8" d="M156.3,311c-4.5,0.2-1.7-38-1.7-38s-5.4-1.4-4.7-10.2s3.9-12,7.6-12.3s6.8,8.8,6.6,14s-4.9,8.4-4.9,8.4
				S162.6,310.8,156.3,311z"/>
			<ellipse class="st8" cx="196.2" cy="277.7" rx="23.4" ry="24.1"/>
			<ellipse class="st9" cx="196.2" cy="277.7" rx="21.9" ry="22.5"/>
		</g>
		<g id="こっぷ">
			<path class="st8" d="M86.7,286.5"/>
			<path class="st8" d="M81.9,251.7c19.1,0,29.8,1.1,29.8,1.1s1.1,49.1-2.6,53.1s-27.1,4.1-27.1,4.1L81.9,251.7z"/>
			<path class="st8" d="M82.6,251.7c-18.4,0-28.7,1.1-28.7,1.1s-1.1,49.2,2.5,53.1s26.1,4.1,26.1,4.1V251.7z"/>
			<path class="st8" d="M53.8,263.7c0,0-8.1-6.8-12.8,0s6,37.2,14,37.4L53.8,263.7z"/>
			<path class="st11" d="M52.9,268.6c0,0-5.3-4.4-8.3,0s3.9,24.2,9.2,24.4L52.9,268.6z"/>
			<path class="st9" d="M81.9,314.8c13.6,0,26.8-4.7,26.8-4.7s1.1,1.6-0.9,4.7s-22.4,5-25.8,5V314.8z"/>
			<path class="st9" d="M81.9,314.8c-12.2,0-24-4.7-24-4.7s-1,1.6,0.8,4.7s20,5,23.2,5V314.8z"/>
		</g>
	</g>
	<g id="_1段目">
		<g id="ぼうる">
			<path class="st8" d="M1151.1,131.4c0,21.9-16.3,39.8-36.3,39.8s-36.3-17.8-36.3-39.8"/>
			<path class="st9" d="M1121.5,130.9h12.6c1.5-3.1,1.9-6.6,1.1-10l13.3-25.9c0,0,1.2-3.4,0-4.4s-15.8,28.5-15.8,28.5
				s-5,1.1-7.9,4.8C1123.1,125.9,1121.9,128.4,1121.5,130.9z"/>
		</g>
		<g id="なべ">
			<circle class="st8" cx="999.3" cy="106" r="5.3"/>
			<path class="st8" d="M1000.5,113.6c0,0,28.8-0.1,28.8,8.3h-60.2C969.2,113.5,1000.5,113.6,1000.5,113.6z"/>
			<path class="st8" d="M969.2,125h60.2v47.9c0,0,0.1,7-30.6,7s-29.6-6-29.6-6V125z"/>
			<path class="st8" d="M966.2,130.4v17c0,0-0.8-2.3-5.1-9.8s-3.6-10.6-1.3-12.6S966.2,130.4,966.2,130.4z"/>
			<path class="st8" d="M1031.3,131v17c0,0,0.9-2.3,5.2-9.8s3.7-10.6,1.3-12.6S1031.3,131,1031.3,131z"/>
		</g>
		<g id="ぽっと">
			<ellipse class="st8" cx="886" cy="147.7" rx="32.3" ry="32.7"/>
			<path class="st8" d="M886,150.4h-32.2c0,0-2.7,30,32.2,30s32.2-30,32.2-30H886z"/>
			<path class="st8" d="M914.5,133.7c0,0,1.4-6,6.4-6s6.7,7.7,6.7,16.6s-13.1,20.9-13.1,20.9L914.5,133.7z"/>
			<path class="st11" d="M916.5,137.4c0,0,0.6-3.3,3.3-3.4s3.9,4.1,4.1,8.9s-6.7,11.8-6.7,11.8L916.5,137.4z"/>
			<path class="st8" d="M853.9,144.2c0,0-6.1-6.4-7.5-10.3l-6,5.2c0,0,3.4,7.7,6.7,11.3s7.3,8.5,7.3,8.5L853.9,144.2z"/>
			<ellipse class="st9" cx="885.7" cy="123.3" rx="20.7" ry="8.4"/>
			<ellipse class="st8" cx="886" cy="116.1" rx="3.8" ry="5.1"/>
			<ellipse transform="matrix(0.7976 -0.6032 0.6032 0.7976 88.503 536.3135)" class="st8" cx="843.4" cy="136.3" rx="4" ry="1.6"/>
		</g>
		<g id="くるま">
			<path class="st8" d="M742.6,131.9H795c7.7,0,14,6.3,14,14v16.3c0,2.8-2.2,5-5,5h-70.4c-2.8,0-5-2.2-5-5v-16.3
				C728.6,138.2,734.9,131.9,742.6,131.9z"/>
			<path class="st8" d="M752.5,110.2h32.6c7.7,0,14,6.3,14,14v13c0,2.8-2.2,5-5,5h-50.6c-2.8,0-5-2.2-5-5v-13
				C738.5,116.5,744.8,110.2,752.5,110.2z"/>
			<circle class="st11" cx="743.2" cy="166.1" r="9.7"/>
			<circle class="st8" cx="743.2" cy="166.1" r="7.7"/>
			<circle class="st11" cx="792.9" cy="166.1" r="9.7"/>
			<circle class="st8" cx="792.9" cy="166.1" r="7.7"/>
			<path class="st9" d="M752.9,113.8h0.1c5,0,9,4,9,9v11.8l0,0h-18.1l0,0v-11.8C743.9,117.8,747.9,113.8,752.9,113.8z"/>
			<circle class="st9" cx="743.2" cy="166.1" r="4.5"/>
			<circle class="st9" cx="792.9" cy="166.1" r="4.2"/>
			<g id="ふね">
				<rect x="615.2" y="150.1" class="st8" width="75.6" height="3.4"/>
				<rect x="621.6" y="167.4" class="st8" width="62.8" height="3.7"/>
				<polygon class="st9" points="621.6,170.8 613.9,149.9 692,149.9 684.3,170.8 				"/>
				<polygon class="st8" points="655.3,147 655.3,102.3 678,125 				"/>
				<polygon class="st8" points="651.8,112.4 651.8,148.7 631.5,130.3 				"/>
				<ellipse class="st11" cx="625.6" cy="172.6" rx="13.7" ry="5.7"/>
				<ellipse class="st11" cx="641.6" cy="172.6" rx="7.4" ry="5.7"/>
				<ellipse class="st11" cx="655" cy="171.9" rx="10.6" ry="5.7"/>
				<ellipse class="st11" cx="668.7" cy="173.1" rx="6.4" ry="5.7"/>
				<ellipse class="st11" cx="684.3" cy="173.1" rx="13.7" ry="5.7"/>
				<rect x="612.2" y="172" class="st9" width="81.6" height="5"/>
				<ellipse class="st9" cx="625.9" cy="175.7" rx="13.7" ry="5.7"/>
				<ellipse class="st9" cx="641.9" cy="175.7" rx="7.4" ry="5.7"/>
				<ellipse class="st9" cx="655.3" cy="174.9" rx="10.6" ry="5.7"/>
				<ellipse class="st9" cx="668.9" cy="176.1" rx="6.4" ry="5.7"/>
				<ellipse class="st9" cx="684.6" cy="176.1" rx="13.7" ry="5.7"/>
				<ellipse class="st11" cx="625.9" cy="178.5" rx="13.7" ry="5.7"/>
				<ellipse class="st11" cx="642" cy="178.5" rx="7.4" ry="5.7"/>
				<ellipse class="st11" cx="655.3" cy="177.8" rx="10.6" ry="5.7"/>
				<ellipse class="st11" cx="669" cy="178.9" rx="6.4" ry="5.7"/>
				<ellipse class="st11" cx="684.7" cy="178.9" rx="13.7" ry="5.7"/>
				
					<rect x="610.6" y="162.4" transform="matrix(0.9412 -0.3378 0.3378 0.9412 -21.874 218.1417)" class="st11" width="10.7" height="19.1"/>
				
					<rect x="682.1" y="163.1" transform="matrix(0.351 -0.9364 0.9364 0.351 289.3661 759.8134)" class="st11" width="21.5" height="16"/>
			</g>
		</g>
		<g id="ひこうき">
			<ellipse class="st9" cx="525" cy="125" rx="10.6" ry="9.1"/>
			<ellipse class="st9" cx="510.6" cy="132.6" rx="12.8" ry="10.3"/>
			<ellipse class="st9" cx="535.6" cy="133.6" rx="12.2" ry="9.3"/>
			<path class="st9" d="M497.8,131.9c0,0-1,11,12.8,11h25c7,0,11.6-3.6,11.7-11H497.8z"/>
			<path class="st8" d="M553.9,140.6l-7-2.4l-21.4-7.2c0,0-9.3-1.1-10.6,2.4s4.8,7,4.8,7l22.5,7.2c0,0-2.2,5.6-1.4,10.1
				c0.7,3.2,1.7,6.2,3,9.2c0,0,0.7,1.4,1.6,1.6s2.5-8.3,3.7-10.7s4.3-7.7,4.3-7.7l12,2.2l-0.6,7.8c0,0,0,2.8,1.3,3s2.6-2.6,2.6-2.6
				l10.2-28.5c0,0,1.5-3.3,0.2-3.6s-12,15.3-12,15.3L553.9,140.6z"/>
			<path class="st8" d="M567.3,126.4c1.9,0.8-10.6,15.9-10.6,15.9l-9.7-3.6C547.1,138.7,562.4,124.2,567.3,126.4z"/>
			<polygon class="st9" points="526.6,139.1 524.3,138.3 525.2,136.2 527.5,136.9 			"/>
			<polygon class="st9" points="530.3,140.3 528,139.5 528.8,137.4 531.1,138.2 			"/>
			<polygon class="st9" points="534.1,141.6 531.8,140.8 532.6,138.7 534.9,139.5 			"/>
			<polygon class="st9" points="537.8,142.8 535.5,142 536.4,139.9 538.7,140.7 			"/>
			<polygon class="st9" points="541.9,144.2 539.6,143.4 540.5,141.3 542.8,142.1 			"/>
			<path class="st9" d="M517,133.4c0,0,1.2,2,2.2,2.5c0.8,0.3,1.7,0.4,2.5,0.2l3.8-4.6c-1.7-0.3-3.4-0.3-5.1,0
				C518.4,132,517,132.1,517,133.4z"/>
		</g>
		<g id="どあ">
			<path class="st8" d="M284,95.6h50c1.1,0,2,0.9,2,2V177c0,1.1-0.9,2-2,2h-50c-1.1,0-2-0.9-2-2V97.6C282,96.5,282.9,95.6,284,95.6z
				"/>
			<rect x="286.3" y="102.2" class="st11" width="45.5" height="70.3"/>
			<rect x="288.3" y="104.5" class="st8" width="41.4" height="65.6"/>
			<circle class="st9" cx="295" cy="138.6" r="2.5"/>
		</g>
		<g id="ぽすと">
			<path class="st8" d="M400.4,100.8h47.9c2.8,0,5,2.2,5,5v50.5c0,2.8-2.2,5-5,5h-48.9c-2.8,0-5-2.2-5-5v-49.5
				C394.4,103.5,397.1,100.8,400.4,100.8z"/>
			<rect x="412.6" y="156.8" class="st8" width="23.5" height="15.2"/>
			<rect x="400.9" y="172" class="st8" width="46.1" height="7.1"/>
			<rect x="427.8" y="113.4" class="st9" width="18.6" height="4.6"/>
			<rect x="419.2" y="123.9" class="st9" width="9.9" height="1.7"/>
			<rect x="417.5" y="126.8" class="st9" width="13.5" height="1.7"/>
			<rect x="423.2" y="128.2" class="st9" width="2.1" height="9.1"/>
			<rect x="401.3" y="113.4" class="st9" width="18.6" height="4.6"/>
		</g>
		<g id="がっこう">
			<path class="st8" d="M159.2,124.1h69.3c2.8,0,5,2.2,5,5v39.3c0,2.8-2.2,5-5,5h-69.3c-2.8,0-5-2.2-5-5v-39.3
				C154.2,126.3,156.4,124.1,159.2,124.1z"/>
			<path class="st8" d="M168.4,131.4h50.8c0,0-17.3-29.3-25.4-29.3S168.4,131.4,168.4,131.4z"/>
			<circle class="st8" cx="193.8" cy="122.4" r="8.5"/>
			<circle class="st9" cx="193.7" cy="122.4" r="7.3"/>
			<path class="st8" d="M193.3,122.4v-6c0,0,0-0.6,0.5-0.6s0.4,0.6,0.4,0.6v6L193.3,122.4z"/>
			<path class="st8" d="M193.8,122.1h4.9c0,0,0.4,0,0.4,0.4s-0.4,0.4-0.4,0.4h-4.9L193.8,122.1z"/>
			<circle class="st8" cx="193.8" cy="122.4" r="0.5"/>
			<rect x="160.8" y="141.6" class="st9" width="7.8" height="14.2"/>
			<rect x="219.6" y="141.6" class="st9" width="7.8" height="14.2"/>
			<rect x="178.2" y="141.6" class="st9" width="7.8" height="14.2"/>
			<rect x="202" y="141.6" class="st9" width="7.8" height="14.2"/>
		</g>
		<g id="いえ">
			<rect x="46.3" y="127.8" class="st8" width="68.4" height="50.4"/>
			<rect x="67.5" y="138" class="st9" width="26.3" height="40.7"/>
			<polygon class="st8" points="46.4,125.3 80.8,101.8 114.9,125.3 			"/>
			<circle class="st8" cx="73.1" cy="156.8" r="2.1"/>
		</g>
	</g>
</g>
</svg>
