<?xml version="1.0" encoding="utf-8"?>
<!-- Generator: Adobe Illustrator 25.2.1, SVG Export Plug-In . SVG Version: 6.00 Build 0)  -->
<svg version="1.1" id="レイヤー_1" xmlns="http://www.w3.org/2000/svg" xmlns:xlink="http://www.w3.org/1999/xlink" x="0px"
	 y="0px" viewBox="0 0 1190.6 841.9" style="enable-background:new 0 0 1190.6 841.9;" xml:space="preserve">
<style type="text/css">
	.st0{opacity:0.51;fill:#FFFFFF;enable-background:new    ;}
	.st1{fill:none;stroke:#CCCCCC;stroke-miterlimit:10;}
	.st2{clip-path:url(#SVGID_2_);}
	.st3{clip-path:url(#SVGID_4_);}
	.st4{fill:none;stroke:#000000;stroke-width:1.26;stroke-miterlimit:10;}
	.st5{fill:#FFFFFF;}
	.st6{clip-path:url(#SVGID_6_);}
	.st7{clip-path:url(#SVGID_8_);}
	.st8{fill:none;stroke:#000000;stroke-width:0.71;stroke-miterlimit:10;}
	.st9{clip-path:url(#SVGID_10_);}
	.st10{fill:none;stroke:#000000;stroke-width:0.7;stroke-miterlimit:10;}
	.st11{clip-path:url(#SVGID_12_);}
	.st12{clip-path:url(#SVGID_14_);}
	.st13{clip-path:url(#SVGID_16_);}
	.st14{clip-path:url(#SVGID_18_);}
	.st15{clip-path:url(#SVGID_20_);}
	.st16{fill:none;stroke:#000000;stroke-width:0.74;stroke-miterlimit:10;}
	.st17{clip-path:url(#SVGID_22_);}
	.st18{clip-path:url(#SVGID_24_);}
	.st19{fill:none;stroke:#000000;stroke-width:0.75;stroke-miterlimit:10;}
	.st20{clip-path:url(#SVGID_26_);}
	.st21{clip-path:url(#SVGID_28_);}
	.st22{fill:none;stroke:#FFFFFF;stroke-width:0.75;stroke-miterlimit:10;}
	.st23{clip-path:url(#SVGID_30_);}
	.st24{clip-path:url(#SVGID_32_);}
	.st25{fill:none;stroke:#FFFFFF;stroke-width:0.74;stroke-miterlimit:10;}
	.st26{clip-path:url(#SVGID_34_);}
	.st27{clip-path:url(#SVGID_36_);}
	.st28{clip-path:url(#SVGID_38_);}
	.st29{clip-path:url(#SVGID_40_);}
	.st30{clip-path:url(#SVGID_42_);}
	.st31{clip-path:url(#SVGID_44_);}
	.st32{clip-path:url(#SVGID_46_);}
	.st33{clip-path:url(#SVGID_48_);}
	.st34{clip-path:url(#SVGID_50_);}
	.st35{clip-path:url(#SVGID_52_);}
	.st36{fill:none;stroke:#FFFFFF;stroke-width:0.73;stroke-miterlimit:10;}
	.st37{clip-path:url(#SVGID_54_);}
	.st38{clip-path:url(#SVGID_56_);}
	.st39{fill:none;stroke:#000000;stroke-width:0.73;stroke-miterlimit:10;}
	.st40{clip-path:url(#SVGID_58_);}
	.st41{clip-path:url(#SVGID_60_);}
	.st42{fill:none;stroke:#000000;stroke-width:0.41;stroke-miterlimit:10;}
	.st43{clip-path:url(#SVGID_62_);}
	.st44{fill:none;stroke:#000000;stroke-width:0.39;stroke-miterlimit:10;}
	.st45{clip-path:url(#SVGID_64_);}
	.st46{clip-path:url(#SVGID_66_);}
	.st47{fill:none;}
	.st48{fill:none;stroke:#FFFFFF;stroke-width:1.46;stroke-miterlimit:10;}
	.st49{clip-path:url(#SVGID_68_);}
	.st50{clip-path:url(#SVGID_70_);}
	.st51{fill:none;stroke:#000000;stroke-width:2.18;stroke-miterlimit:10;}
	.st52{fill:none;stroke:#FFFFFF;stroke-width:5.83;stroke-miterlimit:10;}
	.st53{clip-path:url(#SVGID_72_);}
	.st54{clip-path:url(#SVGID_74_);}
	.st55{clip-path:url(#SVGID_76_);}
	.st56{clip-path:url(#SVGID_78_);}
	.st57{fill:none;stroke:#000000;stroke-width:3.64;stroke-miterlimit:10;}
	.st58{clip-path:url(#SVGID_80_);}
	.st59{clip-path:url(#SVGID_82_);}
	.st60{clip-path:url(#SVGID_84_);}
	.st61{clip-path:url(#SVGID_86_);}
	.st62{font-family:'KozGoPro-Regular-83pv-RKSJ-H';}
	.st63{font-size:12px;}
	.st64{letter-spacing:-6;}
	.st65{letter-spacing:3;}
	.st66{clip-path:url(#SVGID_88_);}
	.st67{clip-path:url(#SVGID_90_);}
	.st68{fill:none;stroke:#000000;stroke-width:0.65;stroke-miterlimit:10;}
	.st69{clip-path:url(#SVGID_92_);}
	.st70{fill:none;stroke:#000000;stroke-width:1.88;stroke-miterlimit:10;}
	.st71{clip-path:url(#SVGID_94_);}
	.st72{fill:none;stroke:#000000;stroke-width:0.63;stroke-miterlimit:10;}
	.st73{fill:none;stroke:#FFFFFF;stroke-width:0.63;stroke-miterlimit:10;}
	.st74{clip-path:url(#SVGID_96_);}
	.st75{clip-path:url(#SVGID_98_);}
	.st76{fill:none;stroke:#000000;stroke-width:0.67;stroke-miterlimit:10;}
	.st77{fill:none;stroke:#FFFFFF;stroke-width:0.67;stroke-miterlimit:10;}
	.st78{clip-path:url(#SVGID_100_);}
	.st79{clip-path:url(#SVGID_102_);}
	.st80{clip-path:url(#SVGID_104_);}
	.st81{clip-path:url(#SVGID_106_);}
	.st82{clip-path:url(#SVGID_108_);}
	.st83{clip-path:url(#SVGID_110_);}
	.st84{clip-path:url(#SVGID_112_);}
	.st85{fill:none;stroke:#000000;stroke-width:1.32;stroke-miterlimit:10;}
	.st86{clip-path:url(#SVGID_114_);}
	.st87{fill:none;stroke:#FFFFFF;stroke-width:0.66;stroke-miterlimit:10;}
	.st88{clip-path:url(#SVGID_116_);}
	.st89{clip-path:url(#SVGID_118_);}
	.st90{fill:none;stroke:#000000;stroke-width:1.35;stroke-miterlimit:10;}
	.st91{fill:none;stroke:#FFFFFF;stroke-width:1.35;stroke-miterlimit:10;}
	.st92{clip-path:url(#SVGID_120_);}
	.st93{clip-path:url(#SVGID_122_);}
	.st94{clip-path:url(#SVGID_124_);}
	.st95{clip-path:url(#SVGID_126_);}
	.st96{clip-path:url(#SVGID_128_);}
	.st97{clip-path:url(#SVGID_130_);}
	.st98{font-family:'ShinMGo-regular-83pv-RKSJ-H';}
	.st99{font-size:28.79px;}
	.st100{clip-path:url(#SVGID_132_);}
	.st101{clip-path:url(#SVGID_134_);}
	.st102{font-size:29.89px;}
	.st103{clip-path:url(#SVGID_136_);}
	.st104{clip-path:url(#SVGID_138_);}
	.st105{clip-path:url(#SVGID_140_);}
	.st106{clip-path:url(#SVGID_142_);}
	.st107{clip-path:url(#SVGID_144_);}
	.st108{fill:none;stroke:#000000;stroke-width:0.76;stroke-miterlimit:10;}
	.st109{fill:none;stroke:#000000;stroke-width:2.29;stroke-miterlimit:10;}
	.st110{clip-path:url(#SVGID_146_);}
	.st111{clip-path:url(#SVGID_148_);}
	.st112{fill:none;stroke:#000000;stroke-width:0.82;stroke-miterlimit:10;}
	.st113{fill:none;stroke:#000000;stroke-width:2.46;stroke-miterlimit:10;}
	.st114{clip-path:url(#SVGID_150_);}
	.st115{fill:none;stroke:#FFFFFF;stroke-width:0.72;stroke-miterlimit:10;}
	.st116{clip-path:url(#SVGID_152_);}
	.st117{fill:none;stroke:#000000;stroke-width:0.86;stroke-miterlimit:10;}
	.st118{fill:none;stroke:#000000;stroke-width:2.58;stroke-miterlimit:10;}
	.st119{clip-path:url(#SVGID_154_);}
	.st120{fill:none;stroke:#FFFFFF;stroke-width:0.76;stroke-miterlimit:10;}
	.st121{clip-path:url(#SVGID_156_);}
	.st122{clip-path:url(#SVGID_158_);}
	.st123{fill:none;stroke:#FFFFFF;stroke-width:1.95;stroke-miterlimit:10;}
	.st124{clip-path:url(#SVGID_160_);}
	.st125{clip-path:url(#SVGID_162_);}
	.st126{fill:none;stroke:#000000;stroke-width:2.88;stroke-miterlimit:10;}
	.st127{clip-path:url(#SVGID_164_);}
	.st128{clip-path:url(#SVGID_166_);}
	.st129{fill:none;stroke:#000000;stroke-width:1.47;stroke-miterlimit:10;}
	.st130{fill:none;stroke:#FFFFFF;stroke-width:1.47;stroke-miterlimit:10;}
	.st131{clip-path:url(#SVGID_168_);}
	.st132{clip-path:url(#SVGID_170_);}
	.st133{fill:none;stroke:#000000;stroke-width:0.72;stroke-miterlimit:10;}
	.st134{clip-path:url(#SVGID_172_);}
	.st135{clip-path:url(#SVGID_174_);}
	.st136{clip-path:url(#SVGID_176_);}
	.st137{clip-path:url(#SVGID_178_);}
	.st138{clip-path:url(#SVGID_180_);}
	.st139{clip-path:url(#SVGID_182_);}
	.st140{fill:none;stroke:#000000;stroke-width:0.69;stroke-miterlimit:10;}
	.st141{fill:none;stroke:#000000;stroke-width:2.76;stroke-miterlimit:10;}
	.st142{clip-path:url(#SVGID_184_);}
	.st143{clip-path:url(#SVGID_186_);}
	.st144{clip-path:url(#SVGID_188_);}
	.st145{clip-path:url(#SVGID_190_);}
	.st146{clip-path:url(#SVGID_192_);}
	.st147{clip-path:url(#SVGID_194_);}
	.st148{clip-path:url(#SVGID_196_);}
	.st149{clip-path:url(#SVGID_198_);}
	.st150{fill:none;stroke:#FFFFFF;stroke-miterlimit:10;}
</style>
<g id="レイヤー_3">
	<rect class="st0" width="1190.6" height="841.9"/>
</g>
<rect x="28.8" y="87.3" class="st1" width="100" height="100"/>
<rect x="143.8" y="87.3" class="st1" width="100" height="100"/>
<rect x="258.8" y="87.3" class="st1" width="100" height="100"/>
<rect x="373.8" y="87.3" class="st1" width="100" height="100"/>
<rect x="488.8" y="87.3" class="st1" width="100" height="100"/>
<rect x="603.8" y="87.3" class="st1" width="100" height="100"/>
<rect x="718.8" y="87.3" class="st1" width="100" height="100"/>
<rect x="833.8" y="87.3" class="st1" width="100" height="100"/>
<rect x="948.8" y="87.3" class="st1" width="100" height="100"/>
<rect x="1063.8" y="87.3" class="st1" width="100" height="100"/>
<rect x="28.8" y="228.1" class="st1" width="100" height="100"/>
<rect x="143.8" y="228.1" class="st1" width="100" height="100"/>
<rect x="258.8" y="228.1" class="st1" width="100" height="100"/>
<rect x="373.8" y="228.1" class="st1" width="100" height="100"/>
<rect x="488.8" y="228.1" class="st1" width="100" height="100"/>
<rect x="603.8" y="228.1" class="st1" width="100" height="100"/>
<rect x="718.8" y="228.1" class="st1" width="100" height="100"/>
<rect x="833.8" y="228.1" class="st1" width="100" height="100"/>
<rect x="948.8" y="228.1" class="st1" width="100" height="100"/>
<rect x="1063.8" y="228.1" class="st1" width="100" height="100"/>
<rect x="28.8" y="368.8" class="st1" width="100" height="100"/>
<rect x="143.8" y="368.8" class="st1" width="100" height="100"/>
<rect x="258.8" y="368.8" class="st1" width="100" height="100"/>
<rect x="373.8" y="368.8" class="st1" width="100" height="100"/>
<rect x="488.8" y="368.8" class="st1" width="100" height="100"/>
<rect x="603.8" y="368.8" class="st1" width="100" height="100"/>
<rect x="718.8" y="368.8" class="st1" width="100" height="100"/>
<rect x="833.8" y="368.8" class="st1" width="100" height="100"/>
<rect x="948.8" y="368.8" class="st1" width="100" height="100"/>
<rect x="1063.8" y="368.8" class="st1" width="100" height="100"/>
<rect x="28.8" y="509.6" class="st1" width="100" height="100"/>
<rect x="143.8" y="509.6" class="st1" width="100" height="100"/>
<rect x="258.8" y="509.6" class="st1" width="100" height="100"/>
<rect x="373.8" y="509.6" class="st1" width="100" height="100"/>
<rect x="488.8" y="509.6" class="st1" width="100" height="100"/>
<rect x="603.8" y="509.6" class="st1" width="100" height="100"/>
<rect x="718.8" y="509.6" class="st1" width="100" height="100"/>
<rect x="833.8" y="509.6" class="st1" width="100" height="100"/>
<rect x="948.8" y="509.6" class="st1" width="100" height="100"/>
<rect x="1063.8" y="509.6" class="st1" width="100" height="100"/>
<rect x="28.8" y="650.4" class="st1" width="100" height="100"/>
<rect x="143.8" y="650.4" class="st1" width="100" height="100"/>
<rect x="258.8" y="650.4" class="st1" width="100" height="100"/>
<rect x="373.8" y="650.4" class="st1" width="100" height="100"/>
<rect x="488.8" y="650.4" class="st1" width="100" height="100"/>
<rect x="603.8" y="650.4" class="st1" width="100" height="100"/>
<rect x="718.8" y="650.4" class="st1" width="100" height="100"/>
<rect x="833.8" y="650.4" class="st1" width="100" height="100"/>
<rect x="948.8" y="650.4" class="st1" width="100" height="100"/>
<rect x="1063.8" y="650.4" class="st1" width="100" height="100"/>
<g>
	<defs>
		<rect id="SVGID_1_" x="35.3" y="89.1" width="94.8" height="94.8"/>
	</defs>
	<clipPath id="SVGID_2_">
		<use xlink:href="#SVGID_1_"  style="overflow:visible;"/>
	</clipPath>
	<g class="st2">
		<g>
			<defs>
				<rect id="SVGID_3_" x="35.3" y="89.1" width="94.8" height="94.8"/>
			</defs>
			<clipPath id="SVGID_4_">
				<use xlink:href="#SVGID_3_"  style="overflow:visible;"/>
			</clipPath>
			<g class="st3">
				<path d="M63.1,130.1H101c3.1,0,5.7,2.5,5.7,5.7v31.6c0,3.1-2.5,5.7-5.7,5.7H63.1c-3.1,0-5.7-2.5-5.7-5.7v-31.6
					C57.5,132.7,60,130.1,63.1,130.1z"/>
				<path d="M101.1,130.8c2.8,0,5,2.3,5,5.1v31.6c0,2.8-2.2,5-5,5.1H63.2c-2.8,0-5-2.3-5-5.1v-31.6c0-2.8,2.2-5,5-5.1H101.1
					 M101.1,129.5H63.2c-3.5,0-6.3,2.8-6.3,6.3v31.6c0,3.5,2.8,6.3,6.3,6.3h37.9c3.5,0,6.3-2.8,6.3-6.3v-31.6
					C107.4,132.3,104.5,129.5,101.1,129.5"/>
				<path d="M99.8,134.6h11c2.6,0,2.8-2.1,0.4-4.6l-24.1-25.9c-2.2-2.5-6-2.6-8.5-0.4c-0.1,0.1-0.2,0.2-0.3,0.3l-26,26.2
					c-2.5,2.5-2.2,4.5,0.6,4.5H99.8z"/>
				<path class="st4" d="M99.8,134.6h11c2.6,0,2.8-2.1,0.4-4.6l-24.1-25.9c-2.2-2.5-6-2.6-8.5-0.4c-0.1,0.1-0.2,0.2-0.3,0.3
					l-26,26.2c-2.5,2.5-2.2,4.5,0.6,4.5H99.8z"/>
				<path class="st5" d="M76.4,163.4c-3.9-7.3-2.6-15.9-0.9-16.3s4.7,2.1,5.6,14.6h2.2c0-1.3,2.6-15,5-14.6c1.4,0,3.6,5.2-0.5,16.4
					c2.8,1.7,7.3,11.5-5.7,11.3S73.4,166,76.4,163.4"/>
				<polyline points="95,112.6 95,94.2 101.7,94.2 101.7,119.7 				"/>
				<polyline class="st4" points="95,112.6 95,94.2 101.7,94.2 101.7,119.7 				"/>
			</g>
		</g>
	</g>
</g>
<g>
	<defs>
		<rect id="SVGID_5_" x="140.5" y="84" width="106.6" height="106.6"/>
	</defs>
	<clipPath id="SVGID_6_">
		<use xlink:href="#SVGID_5_"  style="overflow:visible;"/>
	</clipPath>
	<g class="st6">
		<rect x="153" y="104.3" width="83.9" height="69.7"/>
		<path d="M236.5,173.6h-83.1v-68.9h83.1V173.6z M237.2,103.9h-84.6v70.4h84.6L237.2,103.9z"/>
		<g>
			<defs>
				<rect id="SVGID_7_" x="140.5" y="84" width="106.6" height="106.6"/>
			</defs>
			<clipPath id="SVGID_8_">
				<use xlink:href="#SVGID_7_"  style="overflow:visible;"/>
			</clipPath>
			<g class="st7">
				<path class="st5" d="M156.1,167.8c-0.6,1-0.3,2.4,0.8,3c0.4,0.2,0.9,0.3,1.4,0.3h71.4c2,0,3.5-1.6,3.6-3.6v-29.4
					c0-2-1.1-2.4-2.6-1.1l-19.6,18.8c-1.3,1.2-3.3,1.2-4.6,0c-0.1-0.1-0.2-0.2-0.2-0.3l-27-33.6c-1.2-1.5-2.9-1.3-3.6,0.5
					L156.1,167.8z"/>
				<path class="st8" d="M156.1,167.8c-0.6,1-0.3,2.4,0.8,3c0.4,0.2,0.9,0.3,1.4,0.3h71.4c2,0,3.5-1.6,3.6-3.6v-29.4
					c0-2-1.1-2.4-2.6-1.1l-19.6,18.8c-1.3,1.2-3.3,1.2-4.6,0c-0.1-0.1-0.2-0.2-0.2-0.3l-27-33.6c-1.2-1.5-2.9-1.3-3.6,0.5
					L156.1,167.8z"/>
				<path class="st5" d="M226.5,118.8c0,2.4-1.9,4.3-4.3,4.3c-2.4,0-4.3-1.9-4.3-4.3c0-2.4,1.9-4.3,4.3-4.3c0,0,0,0,0,0
					C224.6,114.6,226.5,116.5,226.5,118.8C226.5,118.8,226.5,118.8,226.5,118.8"/>
				<path class="st5" d="M221.8,115.5c-0.4-5.3-1.6-6.4-2.4-6.2s-1.3,3.8,0.3,6.9c0.1-0.1,0.3-0.1,0.4-0.1l0.1-0.1
					c0.4-0.2,0.9-0.4,1.4-0.4C221.7,115.5,221.7,115.5,221.8,115.5"/>
				<path class="st5" d="M224.8,109.3c-1-0.2-2.1,5.5-2.1,6.2h0.1c0.2,0,0.4,0,0.5,0.1c0.5,0.1,0.9,0.3,1.3,0.6
					C226.3,111.5,225.4,109.3,224.8,109.3"/>
			</g>
		</g>
	</g>
</g>
<g>
	<defs>
		<rect id="SVGID_9_" x="256.1" y="87.3" width="105.5" height="105.5"/>
	</defs>
	<clipPath id="SVGID_10_">
		<use xlink:href="#SVGID_9_"  style="overflow:visible;"/>
	</clipPath>
	<g class="st9">
		<rect x="263.5" y="103.8" width="87.9" height="70.3"/>
		<rect x="263.5" y="103.8" class="st10" width="87.9" height="70.3"/>
		<rect x="271.9" y="111.6" width="83" height="68.9"/>
		<path class="st5" d="M354.5,180.1h-82.3v-68.2h82.3L354.5,180.1z M355.2,111.2h-83.7v69.6h83.7V111.2z"/>
		<g>
			<defs>
				<rect id="SVGID_11_" x="256.1" y="87.3" width="105.5" height="105.5"/>
			</defs>
			<clipPath id="SVGID_12_">
				<use xlink:href="#SVGID_11_"  style="overflow:visible;"/>
			</clipPath>
			<g class="st11">
				<path class="st5" d="M275,174.4c-0.6,1-0.3,2.3,0.7,2.9c0.4,0.2,0.9,0.3,1.4,0.3h70.7c1.9,0,3.5-1.6,3.5-3.5v-29.1
					c0-1.9-1.1-2.4-2.5-1.1l-19.4,18.6c-1.3,1.2-3.3,1.2-4.5,0c-0.1-0.1-0.2-0.2-0.2-0.3l-26.8-33.2c-1.2-1.5-2.8-1.3-3.6,0.5
					L275,174.4z"/>
				<path class="st10" d="M275,174.4c-0.6,1-0.3,2.3,0.7,2.9c0.4,0.2,0.9,0.3,1.4,0.3h70.7c1.9,0,3.5-1.6,3.5-3.5v-29.1
					c0-1.9-1.1-2.4-2.5-1.1l-19.4,18.6c-1.3,1.2-3.3,1.2-4.5,0c-0.1-0.1-0.2-0.2-0.2-0.3l-26.8-33.2c-1.2-1.5-2.8-1.3-3.6,0.5
					L275,174.4z"/>
				<path class="st5" d="M344.7,126c0,2.3-1.9,4.2-4.2,4.2s-4.2-1.9-4.2-4.2s1.9-4.2,4.2-4.2S344.7,123.7,344.7,126L344.7,126"/>
				<path class="st5" d="M340,122.7c-0.4-5.2-1.6-6.3-2.4-6.1s-1.2,3.8,0.3,6.8c0.1-0.1,0.3-0.1,0.4-0.1h0.1
					c0.4-0.2,0.9-0.4,1.4-0.4L340,122.7"/>
				<path class="st5" d="M343,116.5c-1-0.2-2.1,5.5-2.1,6.1h0.1c0.2,0,0.4,0,0.5,0.2c0.5,0.1,0.9,0.3,1.3,0.5
					C344.5,118.7,343.6,116.5,343,116.5"/>
			</g>
		</g>
	</g>
</g>
<g>
	<defs>
		<rect id="SVGID_13_" x="370.6" y="84.8" width="110.5" height="110.5"/>
	</defs>
	<clipPath id="SVGID_14_">
		<use xlink:href="#SVGID_13_"  style="overflow:visible;"/>
	</clipPath>
	<g class="st12">
		<g>
			<defs>
				<rect id="SVGID_15_" x="370.6" y="84.8" width="110.5" height="110.5"/>
			</defs>
			<clipPath id="SVGID_16_">
				<use xlink:href="#SVGID_15_"  style="overflow:visible;"/>
			</clipPath>
			<g class="st13">
				<path d="M389.7,100.6h72.9c1.8,0,3.3,1.5,3.3,3.3v71.5c0,1.8-1.5,3.3-3.3,3.3h-72.9c-1.8,0-3.3-1.5-3.3-3.3v-71.5
					C386.4,102.1,387.9,100.6,389.7,100.6z"/>
				<path d="M462.7,101c1.6,0,3,1.4,3,3v71.5c0,1.6-1.3,3-3,3h-72.9c-1.7,0-3-1.3-3-3V104c0-1.7,1.3-3,3-3H462.7 M462.7,100.3h-72.9
					c-2,0-3.7,1.6-3.7,3.6c0,0,0,0.1,0,0.1v71.5c0,2,1.7,3.7,3.7,3.7h72.9c2,0,3.7-1.6,3.7-3.7V104
					C466.3,102,464.7,100.3,462.7,100.3"/>
				<path class="st5" d="M417.9,136.8c-5.9-11.1-3.9-24.2-1.3-24.8s7.2,3.3,8.5,22.2h3.3c0-2,3.9-22.9,7.7-22.3
					c2.1,0.1,5.4,7.9-0.8,24.9c4.2,2.6,11.1,17.5-8.7,17.2S413.3,140.7,417.9,136.8"/>
				<path class="st5" d="M398.6,174.2c-0.4,0.7-0.1,1.2,0.7,1.2h55.4c0.8,0,1.1-0.5,0.6-1.2c0,0-13.2-16.8-29.5-16.8
					S398.6,174.2,398.6,174.2"/>
			</g>
		</g>
	</g>
</g>
<g>
	<defs>
		<rect id="SVGID_17_" x="484.7" y="84.6" width="111" height="111"/>
	</defs>
	<clipPath id="SVGID_18_">
		<use xlink:href="#SVGID_17_"  style="overflow:visible;"/>
	</clipPath>
	<g class="st14">
		<g>
			<defs>
				<rect id="SVGID_19_" x="484.7" y="84.6" width="111" height="111"/>
			</defs>
			<clipPath id="SVGID_20_">
				<use xlink:href="#SVGID_19_"  style="overflow:visible;"/>
			</clipPath>
			<g class="st15">
				<path d="M499.8,108.6c-1.2,0-2.2,1-2.2,2.2v58.4c0,1.2,1,2.2,2.2,2.2h78.4c1.2,0,2.2-1,2.2-2.2V121c0-1.2-1-2.2-2.2-2.2h-36.6
					c-1.4-0.1-2.7-0.7-3.7-1.7l-6.1-6.9c-1-1-2.3-1.6-3.7-1.7L499.8,108.6z"/>
				<path class="st16" d="M499.8,108.6c-1.2,0-2.2,1-2.2,2.2v58.4c0,1.2,1,2.2,2.2,2.2h78.4c1.2,0,2.2-1,2.2-2.2V121
					c0-1.2-1-2.2-2.2-2.2h-36.6c-1.4-0.1-2.7-0.7-3.7-1.7l-6.1-6.9c-1-1-2.3-1.6-3.7-1.7L499.8,108.6z"/>
				<path class="st5" d="M532.9,149.1c-3.8-7.1-2.5-15.6-0.8-16s4.6,2.1,5.5,14.3h2.1c0-1.3,2.5-14.7,4.9-14.3c1.4,0,3.5,5.1-0.5,16
					c2.7,1.7,7.2,11.3-5.6,11.1S530,151.6,532.9,149.1"/>
			</g>
		</g>
	</g>
</g>
<g>
	<defs>
		<rect id="SVGID_21_" x="599.1" y="80.1" width="112.8" height="112.8"/>
	</defs>
	<clipPath id="SVGID_22_">
		<use xlink:href="#SVGID_21_"  style="overflow:visible;"/>
	</clipPath>
	<g class="st17">
		<g>
			<defs>
				<rect id="SVGID_23_" x="599.1" y="80.1" width="112.8" height="112.8"/>
			</defs>
			<clipPath id="SVGID_24_">
				<use xlink:href="#SVGID_23_"  style="overflow:visible;"/>
			</clipPath>
			<g class="st18">
				<path d="M624.9,100.4c-1.2,0-2.2,1-2.3,2.2c0,0,0,0,0,0v73.5c0,1.2,1,2.3,2.3,2.3h65.3c1.2,0,2.3-1,2.3-2.3v-49.1
					c-0.1-1.4-0.6-2.8-1.6-3.8l-20.8-20.8c-1.1-1-2.4-1.5-3.8-1.6L624.9,100.4z"/>
				<path class="st19" d="M624.9,100.4c-1.2,0-2.2,1-2.3,2.2c0,0,0,0,0,0v73.5c0,1.2,1,2.3,2.3,2.3h65.3c1.2,0,2.3-1,2.3-2.3v-49.1
					c-0.1-1.4-0.6-2.8-1.6-3.8l-20.8-20.8c-1.1-1-2.4-1.5-3.8-1.6L624.9,100.4z"/>
				<path class="st5" d="M648.3,148.5c-5-9.5-3.4-20.7-1.1-21.3s6.2,2.8,7.3,19h2.8c0-1.7,3.4-19.6,6.6-19.1
					c1.8,0.1,4.6,6.8-0.7,21.3c3.6,2.2,9.5,15-7.4,14.8S644.4,151.8,648.3,148.5"/>
			</g>
		</g>
	</g>
</g>
<g>
	<defs>
		<rect id="SVGID_25_" x="714.9" y="81.4" width="111.9" height="111.9"/>
	</defs>
	<clipPath id="SVGID_26_">
		<use xlink:href="#SVGID_25_"  style="overflow:visible;"/>
	</clipPath>
	<g class="st20">
		<g>
			<defs>
				<rect id="SVGID_27_" x="714.9" y="81.4" width="111.9" height="111.9"/>
			</defs>
			<clipPath id="SVGID_28_">
				<use xlink:href="#SVGID_27_"  style="overflow:visible;"/>
			</clipPath>
			<g class="st21">
				<path d="M739.6,100.1c-1.2,0-2.2,1-2.2,2.2c0,0,0,0,0,0v73c0,1.2,1,2.2,2.2,2.2h64.8c1.2,0,2.2-1,2.2-2.2v-48.8
					c-0.1-1.4-0.6-2.8-1.6-3.8l-20.6-20.6c-0.6-0.7-1.5-1.3-2.4-1.6h-3L739.6,100.1z"/>
				<path class="st19" d="M739.6,100.1c-1.2,0-2.2,1-2.2,2.2c0,0,0,0,0,0v73c0,1.2,1,2.2,2.2,2.2h64.8c1.2,0,2.2-1,2.2-2.2v-48.8
					c-0.1-1.4-0.6-2.8-1.6-3.8l-20.6-20.6c-0.6-0.7-1.5-1.3-2.4-1.6h-3L739.6,100.1z"/>
				<path class="st22" d="M783.9,125.8c-1.2,0-2.2-1-2.2-2.2c0,0,0,0,0-0.1l0.5-22.9c0-1.2,0.8-1.5,1.6-0.6l23.5,24.2
					c0.8,0.9,0.5,1.6-0.7,1.6L783.9,125.8z"/>
				<path class="st5" d="M763.5,153.7c-5-9.4-3.3-20.6-1.1-21.1s6.1,2.8,7.2,18.9h2.8c0-1.7,3.3-19.4,6.5-18.9
					c1.8,0.1,4.6,6.7-0.7,21.2c3.6,2.2,9.5,14.9-7.4,14.7S759.6,157,763.5,153.7"/>
			</g>
		</g>
	</g>
</g>
<g>
	<defs>
		<rect id="SVGID_29_" x="828.3" y="81" width="111" height="111"/>
	</defs>
	<clipPath id="SVGID_30_">
		<use xlink:href="#SVGID_29_"  style="overflow:visible;"/>
	</clipPath>
	<g class="st23">
		<g>
			<defs>
				<rect id="SVGID_31_" x="828.3" y="81" width="111" height="111"/>
			</defs>
			<clipPath id="SVGID_32_">
				<use xlink:href="#SVGID_31_"  style="overflow:visible;"/>
			</clipPath>
			<g class="st24">
				<path d="M848.6,100.8c-1.2,0-2.2,1-2.2,2.2c0,0,0,0,0,0v72.4c0,1.2,1,2.2,2.2,2.2h64.3c1.2,0,2.2-1,2.2-2.2v-48.3
					c-0.1-1.4-0.6-2.7-1.6-3.8l-20.4-20.4c-0.6-0.7-1.5-1.3-2.4-1.6h-3L848.6,100.8z"/>
				<path class="st16" d="M848.6,100.8c-1.2,0-2.2,1-2.2,2.2c0,0,0,0,0,0v72.4c0,1.2,1,2.2,2.2,2.2h64.3c1.2,0,2.2-1,2.2-2.2v-48.3
					c-0.1-1.4-0.6-2.7-1.6-3.8l-20.4-20.4c-0.6-0.7-1.5-1.3-2.4-1.6h-3L848.6,100.8z"/>
				<path class="st25" d="M892.5,126.2c-1.2,0-2.2-1-2.2-2.2c0,0,0,0,0,0l0.5-22.7c0-1.2,0.7-1.5,1.6-0.6l23.3,24
					c0.8,0.9,0.5,1.6-0.7,1.6H892.5z"/>
				<path d="M858.9,104.5c-1.2,0-2.2,1-2.2,2.2c0,0,0,0,0,0v72.4c0,1.2,1,2.2,2.2,2.2h64.3c1.2,0,2.2-1,2.2-2.2v-48.3
					c-0.1-1.4-0.6-2.7-1.6-3.8l-20.4-20.4c-0.6-0.7-1.5-1.3-2.4-1.6h-3L858.9,104.5z"/>
				<path class="st25" d="M858.9,104.5c-1.2,0-2.2,1-2.2,2.2c0,0,0,0,0,0v72.4c0,1.2,1,2.2,2.2,2.2h64.3c1.2,0,2.2-1,2.2-2.2v-48.3
					c-0.1-1.4-0.6-2.7-1.6-3.8l-20.4-20.4c-0.6-0.7-1.5-1.3-2.4-1.6h-3L858.9,104.5z"/>
				<path class="st25" d="M902.9,129.9c-1.2,0-2.2-1-2.2-2.2c0,0,0,0,0,0l0.5-22.7c0-1.2,0.7-1.5,1.6-0.6l23.4,24
					c0.8,0.9,0.5,1.6-0.7,1.6L902.9,129.9z"/>
				<path class="st5" d="M882,147.4c-5-9.4-3.3-20.4-1.1-21s6.1,2.8,7.2,18.8h2.8c0-1.7,3.3-19.3,6.5-18.8c1.8,0.1,4.6,6.7-0.7,21
					c3.6,2.2,9.4,14.8-7.3,14.6S878.1,150.7,882,147.4"/>
			</g>
		</g>
	</g>
</g>
<g>
	<defs>
		<rect id="SVGID_33_" x="946.2" y="81.9" width="110.7" height="110.7"/>
	</defs>
	<clipPath id="SVGID_34_">
		<use xlink:href="#SVGID_33_"  style="overflow:visible;"/>
	</clipPath>
	<g class="st26">
		<g>
			<defs>
				<rect id="SVGID_35_" x="946.2" y="81.9" width="110.7" height="110.7"/>
			</defs>
			<clipPath id="SVGID_36_">
				<use xlink:href="#SVGID_35_"  style="overflow:visible;"/>
			</clipPath>
			<g class="st27">
				<path d="M970.6,100.5c-1.2,0-2.2,1-2.2,2.2c0,0,0,0,0,0v72.2c0,1.2,1,2.2,2.2,2.2h64.1c1.2,0,2.2-1,2.2-2.2v-48.2
					c-0.1-1.4-0.6-2.7-1.6-3.8l-20.3-20.4c-0.6-0.7-1.5-1.3-2.4-1.6h-3L970.6,100.5z"/>
				<path class="st16" d="M970.6,100.5c-1.2,0-2.2,1-2.2,2.2c0,0,0,0,0,0v72.2c0,1.2,1,2.2,2.2,2.2h64.1c1.2,0,2.2-1,2.2-2.2v-48.2
					c-0.1-1.4-0.6-2.7-1.6-3.8l-20.3-20.4c-0.6-0.7-1.5-1.3-2.4-1.6h-3L970.6,100.5z"/>
				<path class="st25" d="M1014.4,125.9c-1.2,0-2.2-1-2.2-2.2c0,0,0,0,0-0.1l0.5-22.7c0-1.2,0.7-1.5,1.6-0.6l23.3,23.9
					c0.8,0.9,0.6,1.6-0.7,1.6H1014.4z"/>
				<path class="st5" d="M994.2,153.5c-5-9.4-3.3-20.4-1.1-20.9s6,2.8,7.2,18.7h2.8c0-1.6,3.3-19.2,6.5-18.8c1.8,0.1,4.6,6.7-0.7,21
					c3.6,2.2,9.3,14.7-7.3,14.5S990.4,156.9,994.2,153.5"/>
			</g>
		</g>
		<rect x="960.5" y="117" width="22.1" height="2.9"/>
		<rect x="960.5" y="117" class="st25" width="22.1" height="2.9"/>
	</g>
</g>
<g>
	<defs>
		<rect id="SVGID_37_" x="1057.5" y="80.1" width="112.8" height="112.8"/>
	</defs>
	<clipPath id="SVGID_38_">
		<use xlink:href="#SVGID_37_"  style="overflow:visible;"/>
	</clipPath>
	<g class="st28">
		<g>
			<defs>
				<rect id="SVGID_39_" x="1060.5" y="80.1" width="109.7" height="112.8"/>
			</defs>
			<clipPath id="SVGID_40_">
				<use xlink:href="#SVGID_39_"  style="overflow:visible;"/>
			</clipPath>
			<g class="st29">
				<path d="M1085.3,99c-1.2,0-2.2,1-2.2,2.2c0,0,0,0,0,0v73.5c0,1.2,1,2.2,2.2,2.2h65.3c1.2,0,2.2-1,2.2-2.2v-49.1
					c-0.1-1.4-0.6-2.8-1.6-3.8l-20.8-20.8c-0.7-0.7-1.5-1.3-2.4-1.6h-3.1L1085.3,99z"/>
				<path class="st19" d="M1085.3,99c-1.2,0-2.2,1-2.2,2.2c0,0,0,0,0,0v73.5c0,1.2,1,2.2,2.2,2.2h65.3c1.2,0,2.2-1,2.2-2.2v-49.1
					c-0.1-1.4-0.6-2.8-1.6-3.8l-20.8-20.8c-0.7-0.7-1.5-1.3-2.4-1.6h-3.1L1085.3,99z"/>
				<path class="st22" d="M1130,124.8c-1.2,0-2.2-1-2.2-2.2c0,0,0,0,0,0l0.5-23.1c0-1.2,0.8-1.5,1.6-0.6l23.7,24.4
					c0.9,0.9,0.6,1.6-0.7,1.6H1130z"/>
				<path class="st5" d="M1109.4,153c-5-9.5-3.4-20.7-1.1-21.3s6.2,2.8,7.3,19h2.8c0-1.7,3.4-19.6,6.6-19.1
					c1.8,0.1,4.7,6.8-0.7,21.3c3.6,2.2,9.5,15-7.4,14.8S1105.5,156.3,1109.4,153"/>
			</g>
		</g>
		<polygon points="1097.7,116.6 1089.7,116.6 1089.7,108.7 1087.2,108.7 1087.2,116.6 1079.3,116.6 1079.3,119.1 1087.2,119.1 
			1087.2,127.1 1089.7,127.1 1089.7,119.1 1097.7,119.1 		"/>
		<polygon class="st22" points="1097.7,116.6 1089.7,116.6 1089.7,108.7 1087.2,108.7 1087.2,116.6 1079.3,116.6 1079.3,119.1 
			1087.2,119.1 1087.2,127.1 1089.7,127.1 1089.7,119.1 1097.7,119.1 		"/>
	</g>
</g>
<g>
	<defs>
		<rect id="SVGID_41_" x="26.7" y="223" width="110.1" height="110.1"/>
	</defs>
	<clipPath id="SVGID_42_">
		<use xlink:href="#SVGID_41_"  style="overflow:visible;"/>
	</clipPath>
	<g class="st30">
		<g>
			<defs>
				<rect id="SVGID_43_" x="26.7" y="223" width="110.1" height="110.1"/>
			</defs>
			<clipPath id="SVGID_44_">
				<use xlink:href="#SVGID_43_"  style="overflow:visible;"/>
			</clipPath>
			<g class="st31">
				<path d="M50.4,300.2l-0.4-0.3c-1.1-0.8-2.1-1.6-3-2.4c-6.5-5.8-10-13.1-10-20.6c0-17.8,19.8-32.4,44-32.4s44.1,14.5,44.1,32.4
					s-19.8,32.4-44,32.4c-6.6,0-13.2-1.1-19.4-3.4l-0.3-0.1L46.5,313L50.4,300.2z"/>
				<path d="M81,245.4c23.9,0,43.3,14.2,43.3,31.6s-19.4,31.6-43.3,31.6c-6.5,0-13-1.1-19.1-3.3l-0.6-0.2l-0.5,0.3l-13.1,6.2L51,301
					l0.3-1l-0.8-0.6c-1.1-0.8-2.1-1.6-2.9-2.3c-6.3-5.6-9.9-12.8-9.9-20C37.7,259.6,57.1,245.4,81,245.4 M81,244
					c-24.7,0-44.8,14.8-44.8,33.1c0,8,3.9,15.4,10.3,21.1c1,0.8,2,1.6,3,2.4l-4.3,13.9l16.1-7.7c6.3,2.2,12.9,3.3,19.6,3.3
					c24.7,0,44.8-14.8,44.8-33.1S105.7,243.9,81,244"/>
				<path class="st5" d="M71,282.1c-5.7-10.8-3.8-23.6-1.3-24.2s7,3.2,8.3,21.6h3.2c0-1.9,3.8-22.3,7.5-21.7
					c2.1,0.1,5.3,7.7-0.8,24.3c4.1,2.5,10.8,17-8.4,16.8S66.6,285.9,71,282.1"/>
			</g>
		</g>
	</g>
</g>
<g>
	<defs>
		<rect id="SVGID_45_" x="137.9" y="222.1" width="111.9" height="111.9"/>
	</defs>
	<clipPath id="SVGID_46_">
		<use xlink:href="#SVGID_45_"  style="overflow:visible;"/>
	</clipPath>
	<g class="st32">
		<g>
			<defs>
				<rect id="SVGID_47_" x="137.9" y="222.1" width="111.9" height="111.9"/>
			</defs>
			<clipPath id="SVGID_48_">
				<use xlink:href="#SVGID_47_"  style="overflow:visible;"/>
			</clipPath>
			<g class="st33">
				<path d="M163.2,244.1h65.6c4.3,0,7.8,3.5,7.8,7.8v47.7c0,4.3-3.5,7.8-7.8,7.8h-65.6c-4.3,0-7.8-3.5-7.8-7.8V252
					C155.4,247.6,158.9,244.1,163.2,244.1z"/>
				<path d="M228.9,244.5c4.1,0,7.5,3.4,7.5,7.5v47.7c0,4.1-3.3,7.5-7.5,7.5h-65.6c-4.1,0-7.5-3.3-7.5-7.5V252
					c0-4.1,3.3-7.5,7.5-7.5L228.9,244.5 M228.9,243.8h-65.6c-4.5,0-8.2,3.7-8.2,8.2v0v47.7c0,4.5,3.7,8.2,8.2,8.2h65.6
					c4.5,0,8.2-3.7,8.2-8.2V252C237.1,247.5,233.4,243.8,228.9,243.8L228.9,243.8"/>
				<polygon points="171.8,304.9 163.2,323.8 187.5,306 				"/>
				<polygon class="st19" points="171.8,304.9 163.2,323.8 187.5,306 				"/>
				<path class="st5" d="M189,281.3c-5-10.5-3.4-22.9-1.1-23.5s6.1,3.1,7.2,21h2.8c0-1.9,3.3-21.6,6.5-21.1
					c1.8,0.1,4.6,7.5-0.7,23.6c3.6,2.5,9.5,16.5-7.4,16.3S185.1,285,189,281.3"/>
			</g>
		</g>
	</g>
</g>
<g>
	<defs>
		<rect id="SVGID_49_" x="254.3" y="223.5" width="109.1" height="109.1"/>
	</defs>
	<clipPath id="SVGID_50_">
		<use xlink:href="#SVGID_49_"  style="overflow:visible;"/>
	</clipPath>
	<g class="st34">
		<g>
			<defs>
				<rect id="SVGID_51_" x="254.3" y="223.5" width="109.1" height="109.1"/>
			</defs>
			<clipPath id="SVGID_52_">
				<use xlink:href="#SVGID_51_"  style="overflow:visible;"/>
			</clipPath>
			<g class="st35">
				<path d="M279.6,300.1l-0.4-0.3c-1-0.7-2-1.5-2.9-2.3c-6.5-5.7-10-13-10-20.4c0-17.7,19.6-32,43.6-32s43.6,14.4,43.6,32
					s-19.6,32.1-43.6,32.1c-6.5,0-13-1.1-19.2-3.3l-0.3-0.1l-14.8,7L279.6,300.1z"/>
				<path d="M309.9,245.8c23.7,0,42.9,14.1,42.9,31.3s-19.3,31.3-42.9,31.3c-6.5,0-12.9-1.1-18.9-3.2l-0.6-0.2l-0.5,0.3l-13,6.2
					l3.3-10.6l0.3-1l-0.8-0.6c-1.1-0.8-2-1.6-2.9-2.3c-6.3-5.6-9.8-12.6-9.8-19.9C267,259.8,286.3,245.8,309.9,245.8 M309.9,244.3
					c-24.5,0-44.4,14.7-44.4,32.8c0,8,3.9,15.3,10.2,21c0.9,0.8,1.9,1.6,3,2.4l-4.3,13.8l16-7.6c6.2,2.2,12.8,3.3,19.5,3.3
					c24.5,0,44.4-14.7,44.4-32.8S334.5,244.3,309.9,244.3"/>
				<path class="st5" d="M300,282.1c-5.7-10.7-3.8-23.3-1.3-24s6.9,3.1,8.2,21.5h3.1c0-1.9,3.8-22.1,7.4-21.5
					c2.1,0.1,5.2,7.6-0.8,24c4.1,2.5,10.7,16.9-8.4,16.6S295.6,285.9,300,282.1"/>
				<rect x="306.6" y="217.2" transform="matrix(0.7565 -0.6539 0.6539 0.7565 -105.0087 268.0553)" width="1.9" height="115.6"/>
				
					<rect x="306.6" y="217.2" transform="matrix(0.7565 -0.6539 0.6539 0.7565 -105.0087 268.0553)" class="st36" width="1.9" height="115.6"/>
			</g>
		</g>
	</g>
</g>
<g>
	<defs>
		<rect id="SVGID_53_" x="368.8" y="223" width="110.1" height="110.1"/>
	</defs>
	<clipPath id="SVGID_54_">
		<use xlink:href="#SVGID_53_"  style="overflow:visible;"/>
	</clipPath>
	<g class="st37">
		<g>
			<defs>
				<rect id="SVGID_55_" x="368.8" y="223" width="110.1" height="110.1"/>
			</defs>
			<clipPath id="SVGID_56_">
				<use xlink:href="#SVGID_55_"  style="overflow:visible;"/>
			</clipPath>
			<g class="st38">
				<path d="M393.7,244.7h64.6c4.3,0,7.7,3.5,7.7,7.7v47c0,4.3-3.5,7.7-7.7,7.7h-64.6c-4.3,0-7.7-3.5-7.7-7.7v-47
					C386,248.1,389.5,244.7,393.7,244.7z"/>
				<path d="M458.3,245c4.1,0,7.3,3.3,7.3,7.3v47c0,4.1-3.3,7.3-7.3,7.3h-64.6c-4.1,0-7.3-3.3-7.4-7.3v-47c0-4.1,3.3-7.3,7.4-7.3
					H458.3 M458.3,244.3h-64.6c-4.5,0-8.1,3.6-8.1,8.1c0,0,0,0,0,0v47c0,4.5,3.6,8.1,8.1,8.1h64.6c4.5,0,8.1-3.6,8.1-8.1v-47
					C466.4,247.9,462.8,244.3,458.3,244.3C458.3,244.3,458.3,244.3,458.3,244.3"/>
				<polygon points="402.2,304.5 393.7,323.1 417.6,305.6 				"/>
				<polygon class="st39" points="402.2,304.5 393.7,323.1 417.6,305.6 				"/>
				<path class="st5" d="M419.1,281.2c-4.9-10.3-3.3-22.5-1.1-23.1s6,3,7.1,20.7h2.7c0-1.8,3.3-21.3,6.4-20.8
					c1.8,0.1,4.5,7.4-0.7,23.2c3.6,2.4,9.3,16.3-7.3,16.1S415.2,284.9,419.1,281.2"/>
				<rect x="424.5" y="218.9" transform="matrix(0.7071 -0.7071 0.7071 0.7071 -72.9337 382.8749)" width="2.3" height="121.2"/>
				<path class="st5" d="M383.7,236.3l85.2,85.2l-1.1,1.1l-85.2-85.2L383.7,236.3z M383.7,235.3l-2.2,2.2l86.2,86.2l2.2-2.2
					L383.7,235.3z"/>
			</g>
		</g>
	</g>
</g>
<g>
	<defs>
		<rect id="SVGID_57_" x="483.8" y="223" width="110.1" height="110.1"/>
	</defs>
	<clipPath id="SVGID_58_">
		<use xlink:href="#SVGID_57_"  style="overflow:visible;"/>
	</clipPath>
	<g class="st40">
		<g>
			<defs>
				<rect id="SVGID_59_" x="501.4" y="265.6" width="60.9" height="60.9"/>
			</defs>
			<clipPath id="SVGID_60_">
				<use xlink:href="#SVGID_59_"  style="overflow:visible;"/>
			</clipPath>
			<g class="st41">
				<path d="M515.2,277.6h35.7c2.4,0,4.3,1.9,4.3,4.3v26c0,2.4-1.9,4.3-4.3,4.3h-35.7c-2.4,0-4.3-1.9-4.3-4.3v-26
					C510.9,279.5,512.9,277.6,515.2,277.6z"/>
				<path d="M551,277.8c2.2,0,4.1,1.8,4.1,4.1v26c0,2.2-1.8,4.1-4.1,4.1h-35.8c-2.2,0-4.1-1.8-4.1-4.1v-26c0-2.2,1.8-4.1,4.1-4.1
					H551 M551,277.4h-35.8c-2.5,0-4.5,2-4.5,4.5l0,0v26c0,2.5,2,4.5,4.5,4.5l0,0H551c2.5,0,4.5-2,4.5-4.5v-26
					C555.5,279.4,553.5,277.4,551,277.4"/>
				<polygon points="519.9,310.7 515.2,321 528.4,311.3 				"/>
				<polygon class="st42" points="519.9,310.7 515.2,321 528.4,311.3 				"/>
				<path class="st5" d="M529.2,297.8c-2.7-5.7-1.8-12.5-0.6-12.8s3.3,1.7,3.9,11.5h1.5c0-1,1.8-11.8,3.5-11.5c1,0,2.5,4.1-0.4,12.8
					c2,1.4,5.2,9-4,8.9S527.1,299.8,529.2,297.8"/>
			</g>
		</g>
		<g>
			<defs>
				<rect id="SVGID_61_" x="523.4" y="231.8" width="60.9" height="57.3"/>
			</defs>
			<clipPath id="SVGID_62_">
				<use xlink:href="#SVGID_61_"  style="overflow:visible;"/>
			</clipPath>
			<g class="st43">
				<path d="M570.5,275.5c2.3,0.1,4.2-1.7,4.3-4v-24.4c-0.1-2.3-2-4.1-4.3-4h-35.7c-2.3-0.1-4.2,1.7-4.3,4v24.4c0.1,2.3,2,4.1,4.3,4
					L570.5,275.5z"/>
				<path d="M534.8,243.3c-2.2,0-4,1.7-4.1,3.8v24.4c0.1,2.2,1.9,3.9,4.1,3.8h35.7c2.2,0,4-1.7,4.1-3.8v-24.4
					c-0.1-2.2-1.9-3.9-4.1-3.8H534.8 M534.8,242.9h35.7c2.4-0.1,4.4,1.8,4.5,4.2v24.4c-0.1,2.4-2.1,4.3-4.5,4.2h-35.7
					c-2.4,0.1-4.4-1.8-4.5-4.2v-24.4C530.4,244.7,532.4,242.8,534.8,242.9"/>
				<polygon points="565.9,274.2 570.5,283.9 557.3,274.8 				"/>
				<polygon class="st44" points="565.9,274.2 570.5,283.9 557.3,274.8 				"/>
				<path class="st5" d="M556.5,262.1c2.7-5.4,1.8-11.7,0.6-12s-3.3,1.6-4,10.8h-1.5c0-1-1.8-11.1-3.6-10.8c-1,0-2.5,3.8,0.4,12.1
					c-2,1.3-5.2,8.5,4,8.4S558.6,264,556.5,262.1"/>
			</g>
		</g>
	</g>
</g>
<g>
	<defs>
		<rect id="SVGID_63_" x="598.9" y="225.9" width="109.8" height="109.8"/>
	</defs>
	<clipPath id="SVGID_64_">
		<use xlink:href="#SVGID_63_"  style="overflow:visible;"/>
	</clipPath>
	<g class="st45">
		<g>
			<defs>
				<rect id="SVGID_65_" x="598.9" y="225.9" width="109.8" height="109.8"/>
			</defs>
			<clipPath id="SVGID_66_">
				<use xlink:href="#SVGID_65_"  style="overflow:visible;"/>
			</clipPath>
			<g class="st46">
				<path d="M628.2,323.3c-0.8,0-1.4-0.5-1.4-1.3v-63c0-0.8,0.7-1.3,1.4-1.3h11.9l-0.4-1c-4.3-10.2-3.4-20.5-1.5-24.2
					c0.4-0.8,0.8-1.3,1.2-1.3c0.2,0,0.4-0.1,0.5-0.1c3.5,0,8.2,6.8,9.7,26l0.1,0.7h9.9l0.1-0.6c1.1-7.7,6-26.1,9.6-26.1h0.2
					c0.6,0.1,1.1,0.5,1.4,1.1c2.2,3.1,3.1,11.5-1.5,24.6l-0.3,1h10.5c0.8,0,1.4,0.5,1.4,1.3v63c0,0.8-0.7,1.3-1.4,1.3L628.2,323.3z"
					/>
				<path d="M669.2,231.8h0.2c0.1,0,0.5,0.2,1,1s1.6,3.1,1.5,7.8c-0.2,5.4-1.3,10.8-3.3,15.9l-0.7,2h11.5c0.4,0,0.7,0.2,0.7,0.6v63
					c0,0.3-0.4,0.6-0.7,0.6h-51.3c-0.3,0-0.7-0.2-0.7-0.6V259c0-0.3,0.4-0.6,0.7-0.6h13l-0.9-2c-2.2-5.3-3.3-11-3-16.7
					c0.3-5.3,1.7-7.7,2.2-7.9c0.1,0,0.3,0,0.4,0c1.5,0,3.2,1.7,4.6,4.6c2.2,4.5,3.7,11.4,4.4,20.7l0.1,1.4h11.2l0.2-1.2
					c0.9-5.1,2.1-10.2,3.6-15.2C667.2,232.1,669.2,231.8,669.2,231.8 M669.2,230.3c-4.7,0-9.5,21.2-10.3,26.7h-8.6
					c-1.7-21.1-6.9-26.7-10.4-26.7c-0.2,0-0.5,0-0.7,0.1c-3.1,0.7-5.5,14-0.2,26.6h-10.8c-1.1,0-2.1,0.9-2.2,2v63c0.1,1.1,1,2,2.2,2
					h51.3c1.1,0,2.1-0.9,2.2-2v-63c-0.1-1.1-1-2-2.2-2H670c6.3-18.1,2.2-26.6-0.5-26.7L669.2,230.3"/>
				<line class="st47" x1="639.2" y1="269.9" x2="668.6" y2="269.9"/>
				<line class="st48" x1="639.2" y1="269.9" x2="668.6" y2="269.9"/>
				<line class="st48" x1="639.2" y1="279.4" x2="668.5" y2="279.4"/>
				<line class="st48" x1="639.2" y1="288.9" x2="668.5" y2="288.9"/>
				<line class="st48" x1="639.2" y1="309.4" x2="660.4" y2="309.4"/>
				<path class="st5" d="M654.2,260c-1.2,0-2.2-1-2.2-2.2s1-2.2,2.2-2.2s2.2,1,2.2,2.2c0,0,0,0,0,0C656.4,259,655.4,260,654.2,260"
					/>
				<path d="M654.2,256c1,0,1.8,0.8,1.8,1.8c0,1-0.8,1.8-1.8,1.8s-1.8-0.8-1.8-1.8S653.2,256,654.2,256L654.2,256 M654.2,255.3
					c-1.4,0-2.6,1.1-2.6,2.6c0,1.4,1.1,2.6,2.6,2.6s2.6-1.1,2.6-2.6c0,0,0,0,0,0C656.8,256.4,655.6,255.3,654.2,255.3"/>
				<line class="st48" x1="639.2" y1="299.1" x2="668.5" y2="299.1"/>
			</g>
		</g>
	</g>
</g>
<g>
	<defs>
		<rect id="SVGID_67_" x="716.2" y="226.2" width="109.2" height="109.2"/>
	</defs>
	<clipPath id="SVGID_68_">
		<use xlink:href="#SVGID_67_"  style="overflow:visible;"/>
	</clipPath>
	<g class="st49">
		<g>
			<defs>
				<rect id="SVGID_69_" x="716.2" y="226.2" width="109.2" height="109.2"/>
			</defs>
			<clipPath id="SVGID_70_">
				<use xlink:href="#SVGID_69_"  style="overflow:visible;"/>
			</clipPath>
			<g class="st50">
				<path d="M764,262.9c-1.7-25.6-7.6-30.9-11-30.1s-5.9,18.4,1.6,33.4c0.6-0.4,1.2-0.6,1.9-0.6l0.4-0.2c2-1.1,4.2-1.8,6.5-2.2
					C763.6,263.1,763.8,263,764,262.9"/>
				<path class="st51" d="M764,262.9c-1.7-25.6-7.6-30.9-11-30.1s-5.9,18.4,1.6,33.4c0.6-0.4,1.2-0.6,1.9-0.6l0.4-0.2
					c2-1.1,4.2-1.8,6.5-2.2C763.6,263.1,763.8,263,764,262.9z"/>
				<path d="M783.6,232.8c-5.2-0.8-10.7,28-10.8,31.4h0.6c0.9,0,1.8,0.2,2.6,0.7c2.4,0.5,4.7,1.4,6.7,2.8
					C791.2,243.9,786.6,232.9,783.6,232.8"/>
				<path class="st51" d="M783.6,232.8c-5.2-0.8-10.7,28-10.8,31.4h0.6c0.9,0,1.8,0.2,2.6,0.7c2.4,0.5,4.7,1.4,6.7,2.8
					C791.2,243.9,786.6,232.9,783.6,232.8z"/>
				<path d="M739.9,262.3h57.6c0.8,0,1.4,0.6,1.4,1.4v59c0,0.8-0.6,1.4-1.4,1.4h-57.6c-0.8,0-1.4-0.6-1.4-1.4v-59
					C738.4,262.9,739.1,262.3,739.9,262.3z"/>
				<path d="M797.4,263.4c0.2,0,0.3,0.1,0.3,0.3v59c0,0.2-0.2,0.3-0.3,0.3h-57.6c-0.2,0-0.3-0.1-0.3-0.3l0,0v-59
					c0-0.2,0.1-0.3,0.3-0.3l0,0L797.4,263.4 M797.4,261.2h-57.6c-1.4,0-2.5,1.1-2.5,2.5l0,0v59c0,1.4,1.1,2.5,2.5,2.5l0,0h57.6
					c1.4,0,2.5-1.1,2.5-2.5l0,0v-59C800,262.3,798.8,261.2,797.4,261.2L797.4,261.2"/>
				<line class="st52" x1="754.1" y1="299.8" x2="754.1" y2="318"/>
				<line class="st52" x1="768.7" y1="277.2" x2="768.7" y2="318"/>
				<line class="st52" x1="783.2" y1="285.9" x2="783.2" y2="318"/>
				<path class="st5" d="M768.3,264.5c-1.2,0-2.2-1-2.2-2.2c0-1.2,1-2.2,2.2-2.2c1.2,0,2.2,1,2.2,2.2c0,0,0,0,0,0
					C770.5,263.5,769.5,264.5,768.3,264.5"/>
				<path d="M768.3,260.5c1,0,1.8,0.8,1.8,1.8s-0.8,1.8-1.8,1.8c-1,0-1.8-0.8-1.8-1.8C766.5,261.3,767.3,260.5,768.3,260.5
					C768.3,260.4,768.3,260.4,768.3,260.5 M768.3,259.7c-1.4,0-2.5,1.1-2.5,2.5c0,1.4,1.1,2.6,2.5,2.6s2.5-1.1,2.5-2.5v0
					C770.8,260.9,769.7,259.7,768.3,259.7"/>
			</g>
		</g>
	</g>
</g>
<g>
	<defs>
		<rect id="SVGID_71_" x="830.7" y="225.3" width="111" height="111"/>
	</defs>
	<clipPath id="SVGID_72_">
		<use xlink:href="#SVGID_71_"  style="overflow:visible;"/>
	</clipPath>
	<g class="st53">
		<g>
			<defs>
				<rect id="SVGID_73_" x="830.7" y="225.3" width="111" height="111"/>
			</defs>
			<clipPath id="SVGID_74_">
				<use xlink:href="#SVGID_73_"  style="overflow:visible;"/>
			</clipPath>
			<g class="st54">
				<path d="M884.7,297.4L855.5,325v-80.1c0-1.6,1.3-2.9,2.9-2.9h53.5c1.6,0,2.9,1.3,2.9,2.9V325c0,0.2,0,0.5-0.1,0.7L884.7,297.4z"
					/>
				<path d="M911.8,242.4c1.4,0,2.5,1.1,2.5,2.5v80l-29.1-27.5l-0.5-0.5l-0.5,0.5l-28.3,26.8v-79.3c0-1.4,1.1-2.5,2.5-2.5H911.8
					 M911.8,241.6h-53.5c-1.8,0-3.2,1.4-3.2,3.2V325c0,0.3,0,0.5,0.1,0.8l29.5-27.9l30,28.4c0.2-0.4,0.3-0.9,0.3-1.3v-80.1
					C915,243.1,913.6,241.6,911.8,241.6"/>
				<path class="st5" d="M878.8,274.7c-4.5-8.5-3-18.6-1-19.1s5.5,2.5,6.5,17.1h2.5c0-1.5,3-17.6,5.9-17.1c1.6,0.1,4.2,6.1-0.6,19.2
					c3.3,2,8.5,13.5-6.7,13.3S875.3,277.7,878.8,274.7"/>
			</g>
		</g>
	</g>
</g>
<g>
	<defs>
		<rect id="SVGID_75_" x="944.2" y="226.2" width="109.2" height="109.2"/>
	</defs>
	<clipPath id="SVGID_76_">
		<use xlink:href="#SVGID_75_"  style="overflow:visible;"/>
	</clipPath>
	<g class="st55">
		<g>
			<defs>
				<rect id="SVGID_77_" x="944.2" y="226.2" width="109.2" height="109.2"/>
			</defs>
			<clipPath id="SVGID_78_">
				<use xlink:href="#SVGID_77_"  style="overflow:visible;"/>
			</clipPath>
			<g class="st56">
				<path d="M965,271.1v26.7c5,3.8,28.8,18.3,30.2,18.3v-70.3C995.2,245.9,972.9,261.7,965,271.1"/>
				<path class="st39" d="M965,271.1v26.7c5,3.8,28.8,18.3,30.2,18.3v-70.3C995.2,245.9,972.9,261.7,965,271.1z"/>
				<path d="M960.6,298h5.1c0.4,0,0.7-0.3,0.7-0.7c0,0,0,0,0,0v-25.6c0-0.4-0.3-0.7-0.7-0.7c0,0,0,0,0,0h-5.1
					c-0.4,0-0.7,0.3-0.7,0.7c0,0,0,0,0,0v25.5C959.9,297.6,960.2,298,960.6,298C960.6,298,960.6,298,960.6,298"/>
				<path class="st39" d="M960.6,271h5.1c0.4,0,0.7,0.3,0.7,0.7v25.5c0,0.4-0.3,0.7-0.7,0.7h-5.1c-0.4,0-0.7-0.3-0.7-0.7v-25.5
					C959.9,271.3,960.2,271,960.6,271z"/>
				<path d="M985.8,259.2c-5-20.5-10.8-24-13.5-22.8s-2.4,15.8,6,26.8c0.4-0.4,0.9-0.7,1.5-0.8l0.3-0.3c1.6-1.2,3.3-2.1,5.2-2.7
					C985.4,259.5,985.6,259.3,985.8,259.2"/>
				<path d="M991.4,232c-4.2,0.1-4.6,23.2-4.2,25.8l0.4-0.1c0.7-0.1,1.4-0.1,2.1,0.2c1.9,0,3.8,0.5,5.6,1.2
					C998.8,239.6,993.8,231.7,991.4,232"/>
				<path class="st57" d="M1012.7,258.3c8.7,16.8,8,30.1,0,43.1"/>
				<path class="st57" d="M1025,247.3c8.7,24.2,8,43.6,0,62.3"/>
			</g>
		</g>
	</g>
</g>
<g>
	<defs>
		<rect id="SVGID_79_" x="1053.4" y="226.3" width="109" height="109"/>
	</defs>
	<clipPath id="SVGID_80_">
		<use xlink:href="#SVGID_79_"  style="overflow:visible;"/>
	</clipPath>
	<g class="st58">
		<g>
			<defs>
				<rect id="SVGID_81_" x="1053.4" y="226.3" width="109" height="109"/>
			</defs>
			<clipPath id="SVGID_82_">
				<use xlink:href="#SVGID_81_"  style="overflow:visible;"/>
			</clipPath>
			<g class="st59">
				<path d="M1104.3,234.3c-3,0-4,12.1-4.3,19.8l-2.8,2.1c-4.6-15.8-9.6-18.5-12.1-17.4s-2.5,13.4,4,23.9c-4,3.2-7.7,6.7-11.2,10.5
					h-4.5c-0.4,0-0.7,0.3-0.7,0.7c0,0,0,0,0,0v25.5c0,0.4,0.3,0.7,0.7,0.7h4.5c5.3,3.9,28.6,18.2,30,18.2v-56.8h0.1
					C1111.7,241.9,1106.7,234,1104.3,234.3"/>
				<path class="st39" d="M1104.3,234.3c-3,0-4,12.1-4.3,19.8l-2.8,2.1c-4.6-15.8-9.6-18.5-12.1-17.4s-2.5,13.4,4,23.9
					c-4,3.2-7.7,6.7-11.2,10.5h-4.5c-0.4,0-0.7,0.3-0.7,0.7c0,0,0,0,0,0v25.5c0,0.4,0.3,0.7,0.7,0.7h4.5c5.3,3.9,28.6,18.2,30,18.2
					v-56.8h0.1C1111.7,241.9,1106.7,234,1104.3,234.3z"/>
				<line class="st51" x1="1125.3" y1="295.7" x2="1149.4" y2="271.4"/>
				<line class="st51" x1="1149.1" y1="296" x2="1126.3" y2="270.5"/>
			</g>
		</g>
	</g>
</g>
<g>
	<defs>
		<rect id="SVGID_83_" x="24.2" y="368.8" width="109.2" height="109.2"/>
	</defs>
	<clipPath id="SVGID_84_">
		<use xlink:href="#SVGID_83_"  style="overflow:visible;"/>
	</clipPath>
	<g class="st60">
		<g>
			<defs>
				<rect id="SVGID_85_" x="24.2" y="368.8" width="109.2" height="109.2"/>
			</defs>
			<clipPath id="SVGID_86_">
				<use xlink:href="#SVGID_85_"  style="overflow:visible;"/>
			</clipPath>
			<g class="st61">
				<path d="M74.3,399.6c-1.5-21.1-6.6-25.5-9.5-24.7s-5.1,15.1,1.3,27.5c0.5-0.3,1.1-0.5,1.6-0.5c0.1-0.1,0.2-0.1,0.3-0.2
					c1.7-0.9,3.6-1.5,5.6-1.8C73.9,399.8,74.1,399.7,74.3,399.6"/>
				<path class="st39" d="M74.3,399.6c-1.5-21.1-6.6-25.5-9.5-24.7s-5.1,15.1,1.3,27.5c0.5-0.3,1.1-0.5,1.6-0.5
					c0.1-0.1,0.2-0.1,0.3-0.2c1.7-0.9,3.6-1.5,5.6-1.8C73.9,399.8,74.1,399.7,74.3,399.6z"/>
				<path d="M89.4,374.9c-4.1-0.6-8.4,22.1-8.5,24.7h0.4c0.7,0,1.4,0.2,2,0.6c1.9,0.4,3.7,1.1,5.3,2.2
					C95.4,383.6,91.8,374.9,89.4,374.9"/>
				<path class="st39" d="M89.4,374.9c-4.1-0.6-8.4,22.1-8.5,24.7h0.4c0.7,0,1.4,0.2,2,0.6c1.9,0.4,3.7,1.1,5.3,2.2
					C95.4,383.6,91.8,374.9,89.4,374.9z"/>
				<path d="M77,444.3c-13,0-23.5-10.6-23.5-23.5c0-13,10.6-23.5,23.5-23.5h0.1c13,0,23.5,10.6,23.4,23.6s-10.6,23.5-23.6,23.4H77z"
					/>
				<path d="M77.1,396.9v0.7h0.1c12.8,0,23.1,10.4,23.1,23.2c0,12.8-10.4,23.1-23.2,23.1H77c-12.8-0.3-22.9-10.9-22.6-23.7
					c0.3-12.4,10.3-22.4,22.7-22.6L77.1,396.9 M77.1,396.9c-13.2,0-23.9,10.6-23.9,23.8s10.6,23.9,23.8,23.9l0,0h0.1
					c13.2,0,23.9-10.6,23.9-23.8S90.4,397,77.2,396.9H77.1"/>
				<line class="st47" x1="46.1" y1="380.2" x2="55.9" y2="393.2"/>
				<line class="st39" x1="46.1" y1="380.2" x2="55.9" y2="393.2"/>
				<line class="st47" x1="67.2" y1="383.4" x2="70.7" y2="397"/>
				<line class="st39" x1="67.2" y1="383.4" x2="70.7" y2="397"/>
				<line class="st47" x1="89" y1="388.5" x2="84.5" y2="399.8"/>
				<line class="st39" x1="89" y1="388.5" x2="84.5" y2="399.8"/>
				<line class="st47" x1="111.6" y1="384.2" x2="101.1" y2="396.8"/>
				<line class="st39" x1="111.6" y1="384.2" x2="101.1" y2="396.8"/>
				<line class="st47" x1="123.7" y1="406" x2="107.9" y2="410"/>
				<line class="st39" x1="123.7" y1="406" x2="107.9" y2="410"/>
				<line class="st47" x1="122.4" y1="434.8" x2="107.8" y2="427.7"/>
				<line class="st39" x1="122.4" y1="434.8" x2="107.8" y2="427.7"/>
				<line class="st47" x1="109.6" y1="456.3" x2="98.7" y2="444.2"/>
				<line class="st39" x1="109.6" y1="456.3" x2="98.7" y2="444.2"/>
				<line class="st47" x1="84.4" y1="451.1" x2="88.9" y2="466.8"/>
				<line class="st39" x1="84.4" y1="451.1" x2="88.9" y2="466.8"/>
				<line class="st47" x1="68.3" y1="450.5" x2="62.8" y2="465.9"/>
				<line class="st39" x1="68.3" y1="450.5" x2="62.8" y2="465.9"/>
				<line class="st47" x1="54" y1="442.5" x2="43.6" y2="455"/>
				<line class="st39" x1="54" y1="442.5" x2="43.6" y2="455"/>
				<line class="st47" x1="47.2" y1="426.8" x2="31.5" y2="431.4"/>
				<line class="st39" x1="47.2" y1="426.8" x2="31.5" y2="431.4"/>
				<line class="st47" x1="49" y1="406.9" x2="34.1" y2="400.3"/>
				<line class="st39" x1="49" y1="406.9" x2="34.1" y2="400.3"/>
			</g>
		</g>
	</g>
</g>
<g id="アイコン名">
	<text transform="matrix(1 0 0 1 72.83 213.41)" class="st62 st63">家</text>
	<text transform="matrix(1 0 0 1 182.16 213.41)" class="st62 st63">写真</text>
	<text transform="matrix(1 0 0 1 276.5 213.41)" class="st62 st63">写真（複数</text>
	<text transform="matrix(1 0 0 1 336.5 213.41)" class="st62 st63 st64">）</text>
	<text transform="matrix(1 0 0 1 400.83 213.41)" class="st62 st63">アイコン</text>
	<text transform="matrix(1 0 0 1 516.16 213.41)" class="st62 st63">ファイル</text>
	<text transform="matrix(1 0 0 1 628.56 213.41)" class="st62 st63">S</text>
	<text transform="matrix(1 0 0 1 634.88 213.41)" class="st62 st63 st65">D</text>
	<text transform="matrix(1 0 0 1 646.43 213.41)" class="st62 st63">カード</text>
	<text transform="matrix(1 0 0 1 752.83 213.41)" class="st62 st63">データ</text>
	<text transform="matrix(1 0 0 1 847.16 213.41)" class="st62 st63">データ（複数</text>
	<text transform="matrix(1 0 0 1 919.16 213.41)" class="st62 st63 st64">）</text>
	<text transform="matrix(1 0 0 1 971.5 213.41)" class="st62 st63">データ削除</text>
	<text transform="matrix(1 0 0 1 1086.83 213.41)" class="st62 st63">データ追加</text>
	<text transform="matrix(1 0 0 1 48.83 351.9)" class="st62 st63">丸ふきだし</text>
	<text transform="matrix(1 0 0 1 158.16 351.9)" class="st62 st63">四角ふきだし</text>
	<text transform="matrix(1 0 0 1 255.5 351.9)" class="st62 st63">丸ふきだしミュート</text>
	<text transform="matrix(1 0 0 1 364.83 351.9)" class="st62 st63">四角ふきだしミュート</text>
	<text transform="matrix(1 0 0 1 516.16 351.9)" class="st62 st63">チャット</text>
	<text transform="matrix(1 0 0 1 643.5 351.9)" class="st62 st63">メモ</text>
	<text transform="matrix(1 0 0 1 752.83 351.9)" class="st62 st63">グラフ</text>
	<text transform="matrix(1 0 0 1 850.16 351.9)" class="st62 st63">ブックマーク</text>
	<text transform="matrix(1 0 0 1 971.5 351.9)" class="st62 st63">ボリューム</text>
	<text transform="matrix(1 0 0 1 1092.83 351.9)" class="st62 st63">ミュート</text>
	<text transform="matrix(1 0 0 1 66.83 492.39)" class="st62 st63">太陽</text>
	<text transform="matrix(1 0 0 1 188.16 492.39)" class="st62 st63">雲</text>
	<text transform="matrix(1 0 0 1 279.5 492.39)" class="st62 st63">雨時々晴れ</text>
	<text transform="matrix(1 0 0 1 388.83 492.39)" class="st62 st63">晴れ時々曇り</text>
	<text transform="matrix(1 0 0 1 534.16 492.39)" class="st62 st63">雨</text>
	<text transform="matrix(1 0 0 1 631.5 492.39)" class="st62 st63">優しい雨</text>
	<text transform="matrix(1 0 0 1 764.83 492.39)" class="st62 st63">雷</text>
	<text transform="matrix(1 0 0 1 850.16 492.39)" class="st62 st63">アップロード</text>
	<text transform="matrix(1 0 0 1 965.5 492.39)" class="st62 st63">ダウンロード</text>
	<text transform="matrix(1 0 0 1 1104.83 492.39)" class="st62 st63">ベル</text>
	<text transform="matrix(1 0 0 1 42.83 630.89)" class="st62 st63">ベルミュート</text>
	<text transform="matrix(1 0 0 1 140.16 630.89)" class="st62 st63">クエスチョンマーク</text>
	<text transform="matrix(1 0 0 1 255.5 630.89)" class="st62 st63">インフォメーション</text>
	<text transform="matrix(1 0 0 1 400.83 630.89)" class="st62 st63">にっこり</text>
	<text transform="matrix(1 0 0 1 510.16 630.89)" class="st62 st63">しょんぼり</text>
	<text transform="matrix(1 0 0 1 625.5 630.89)" class="st62 st63">買い物かご</text>
	<text transform="matrix(1 0 0 1 728.83 630.89)" class="st62 st63">買い物かご削除</text>
	<text transform="matrix(1 0 0 1 844.16 630.89)" class="st62 st63">買い物かご追加</text>
	<text transform="matrix(1 0 0 1 977.5 630.89)" class="st62 st63">チェック</text>
	<text transform="matrix(1 0 0 1 1098.83 630.89)" class="st62 st63">マイク</text>
	<text transform="matrix(1 0 0 1 66.83 773.38)" class="st62 st63">時計</text>
	<text transform="matrix(1 0 0 1 182.16 773.38)" class="st62 st63">ピン</text>
	<text transform="matrix(1 0 0 1 291.5 773.38)" class="st62 st63">ケーキ</text>
	<text transform="matrix(1 0 0 1 418.83 773.38)" class="st62 st63">鍵</text>
	<text transform="matrix(1 0 0 1 522.16 773.38)" class="st62 st63">ハート</text>
	<text transform="matrix(1 0 0 1 619.5 773.38)" class="st62 st63">ビデオカメラ</text>
	<text transform="matrix(1 0 0 1 758.83 773.38)" class="st62 st63">音符</text>
	<text transform="matrix(1 0 0 1 874.16 773.38)" class="st62 st63">電波</text>
	<text transform="matrix(1 0 0 1 983.5 773.38)" class="st62 st63">メール</text>
	<text transform="matrix(1 0 0 1 1074.83 773.38)" class="st62 st63">スマートフォン</text>
	<g>
		<defs>
			<rect id="SVGID_87_" x="144.9" y="374.5" width="98" height="98"/>
		</defs>
		<clipPath id="SVGID_88_">
			<use xlink:href="#SVGID_87_"  style="overflow:visible;"/>
		</clipPath>
		<g class="st66">
			<g>
				<defs>
					<rect id="SVGID_89_" x="144.9" y="374.5" width="98" height="98"/>
				</defs>
				<clipPath id="SVGID_90_">
					<use xlink:href="#SVGID_89_"  style="overflow:visible;"/>
				</clipPath>
				<g class="st67">
					<path d="M160.2,440.8h67.1c17.2-1.3,18.5-26.8-1.1-21.6c5.8-16.3-16.3-25.5-23.2-2.2c2.2-22.6-31.1-33.7-32.4,0.3
						C155,402.9,133.4,434.3,160.2,440.8"/>
					<path class="st68" d="M160.2,440.8h67.1c17.2-1.3,18.5-26.8-1.1-21.6c5.8-16.3-16.3-25.5-23.2-2.2c2.2-22.6-31.1-33.7-32.4,0.3
						C155,402.9,133.4,434.2,160.2,440.8z"/>
					<path d="M185,402.1c-1.3-18.9-5.9-22.8-8.5-22.2s-4.5,13.6,1.2,24.6c0.4-0.3,0.9-0.4,1.5-0.5c0.1-0.1,0.2-0.1,0.3-0.2
						c1.6-0.8,3.3-1.4,5-1.6C184.7,402.2,184.8,402.2,185,402.1"/>
					<path d="M195.9,379.9c-3.7-0.6-7.6,19.8-7.6,22.2h0.4c0.7,0,1.3,0.2,1.8,0.5c1.7,0.3,3.3,1,4.7,2
						C201.3,387.7,198.1,380,195.9,379.9"/>
				</g>
			</g>
		</g>
	</g>
	<g>
		<defs>
			<rect id="SVGID_91_" x="261.9" y="376.6" width="93.8" height="93.8"/>
		</defs>
		<clipPath id="SVGID_92_">
			<use xlink:href="#SVGID_91_"  style="overflow:visible;"/>
		</clipPath>
		<g class="st69">
			<line class="st47" x1="275.7" y1="466.6" x2="282.6" y2="443.5"/>
			<line class="st70" x1="275.7" y1="466.6" x2="282.6" y2="443.5"/>
			<line class="st47" x1="301.1" y1="466.3" x2="308" y2="443.2"/>
			<line class="st70" x1="301.1" y1="466.3" x2="308" y2="443.2"/>
			<line class="st47" x1="314.8" y1="466.3" x2="321.7" y2="443.2"/>
			<line class="st70" x1="314.8" y1="466.3" x2="321.7" y2="443.2"/>
			<line class="st47" x1="328" y1="466.3" x2="334.9" y2="443.2"/>
			<line class="st70" x1="328" y1="466.3" x2="334.9" y2="443.2"/>
			<line class="st47" x1="288.6" y1="466.3" x2="295.5" y2="443.2"/>
			<line class="st70" x1="288.6" y1="466.3" x2="295.5" y2="443.2"/>
			<g>
				<defs>
					<rect id="SVGID_93_" x="261.9" y="376.6" width="93.8" height="93.8"/>
				</defs>
				<clipPath id="SVGID_94_">
					<use xlink:href="#SVGID_93_"  style="overflow:visible;"/>
				</clipPath>
				<g class="st71">
					<path d="M332,395.3c-0.7-10.5-3.4-12.6-4.8-12.3s-2.6,7.5,0.7,13.6c0.3-0.1,0.5-0.2,0.8-0.3l0.2-0.1c0.9-0.5,1.9-0.8,2.9-0.9
						L332,395.3"/>
					<path class="st72" d="M332,395.3c-0.7-10.5-3.4-12.6-4.8-12.3s-2.6,7.5,0.7,13.6c0.3-0.1,0.5-0.2,0.8-0.3l0.2-0.1
						c0.9-0.5,1.9-0.8,2.9-0.9L332,395.3z"/>
					<path d="M339.7,383c-2.1-0.3-4.3,11-4.4,12.3h0.2c0.4,0,0.7,0.1,1,0.3c1,0.2,1.9,0.6,2.7,1.1C342.8,387.3,340.9,383,339.7,383"
						/>
					<path class="st72" d="M339.7,383c-2.1-0.3-4.3,11-4.4,12.3h0.2c0.4,0,0.7,0.1,1,0.3c1,0.2,1.9,0.6,2.7,1.1
						C342.8,387.3,340.9,383,339.7,383z"/>
					<path d="M333.3,417.3c-3.1,0-6.2-1.2-8.4-3.4c-4.4-4.3-4.6-11.3-0.4-15.8c4.6-4.9,12.3-5.1,17.2-0.5c0,0,0.1,0.1,0.1,0.1
						c2.2,2.1,3.5,5.1,3.5,8.2C345.1,412.3,339.8,417.4,333.3,417.3L333.3,417.3z"/>
					<path d="M333.4,394v0.6h0c3.1,0,6,1.2,8.2,3.3c2.1,2.1,3.4,4.9,3.3,7.9c-0.2,6.2-5.3,11.2-11.6,11.1h-0.1c-3.1,0-6-1.2-8.2-3.3
						c-4.3-4.1-4.5-11-0.4-15.4c2.2-2.4,5.4-3.8,8.6-3.8L333.4,394 M333.4,394c-3.5,0-6.8,1.4-9.1,4c-2,2.1-3.1,4.9-3.1,7.8
						c0.1,6.6,5.5,12,12.1,11.9c0,0,0,0,0.1,0h0.1c6.5,0.2,12-4.9,12.2-11.5c0.2-6.5-4.9-12-11.5-12.2
						C333.9,394,333.7,394,333.4,394L333.4,394z"/>
					<line class="st47" x1="317.5" y1="385.7" x2="322.5" y2="392.1"/>
					<line class="st72" x1="317.5" y1="385.7" x2="322.5" y2="392.1"/>
					<line class="st47" x1="328.3" y1="387.2" x2="330.1" y2="394"/>
					<line class="st72" x1="328.3" y1="387.2" x2="330.1" y2="394"/>
					<line class="st47" x1="339.5" y1="389.8" x2="337.2" y2="395.4"/>
					<line class="st72" x1="339.5" y1="389.8" x2="337.2" y2="395.4"/>
					<line class="st47" x1="351" y1="387.6" x2="345.7" y2="393.9"/>
					<line class="st72" x1="351" y1="387.6" x2="345.7" y2="393.9"/>
					<line class="st47" x1="357.3" y1="398.5" x2="349.2" y2="400.4"/>
					<line class="st72" x1="357.3" y1="398.5" x2="349.2" y2="400.4"/>
					<line class="st47" x1="356.6" y1="412.8" x2="349.1" y2="409.2"/>
					<line class="st72" x1="356.6" y1="412.8" x2="349.1" y2="409.2"/>
					<line class="st47" x1="350.1" y1="423.4" x2="344.5" y2="417.4"/>
					<line class="st72" x1="350.1" y1="423.4" x2="344.5" y2="417.4"/>
					<line class="st47" x1="337.2" y1="420.9" x2="339.5" y2="428.6"/>
					<line class="st72" x1="337.2" y1="420.9" x2="339.5" y2="428.6"/>
					<line class="st47" x1="328.9" y1="420.6" x2="326.1" y2="428.2"/>
					<line class="st72" x1="328.9" y1="420.6" x2="326.1" y2="428.2"/>
					<line class="st47" x1="321.6" y1="416.6" x2="316.3" y2="422.8"/>
					<line class="st72" x1="321.6" y1="416.6" x2="316.3" y2="422.8"/>
					<line class="st47" x1="318.1" y1="408.8" x2="310.1" y2="411"/>
					<line class="st72" x1="318.1" y1="408.8" x2="310.1" y2="411"/>
					<line class="st47" x1="319" y1="398.9" x2="311.4" y2="395.6"/>
					<line class="st72" x1="319" y1="398.9" x2="311.4" y2="395.6"/>
					<path d="M278.3,437.5h59.2c15.2-1.1,16.3-23.7-1-19c5.2-14.4-14.4-22.5-20.5-2c2-19.9-27.4-29.7-28.6,0.3
						C273.6,404.1,254.6,431.8,278.3,437.5"/>
					<path class="st73" d="M278.3,437.5h59.2c15.2-1.1,16.3-23.7-1-19c5.2-14.4-14.4-22.5-20.5-2c2-19.9-27.4-29.7-28.6,0.3
						C273.7,404.1,254.6,431.8,278.3,437.5z"/>
				</g>
			</g>
		</g>
	</g>
	<g>
		<defs>
			<rect id="SVGID_95_" x="373.3" y="361.6" width="101" height="101"/>
		</defs>
		<clipPath id="SVGID_96_">
			<use xlink:href="#SVGID_95_"  style="overflow:visible;"/>
		</clipPath>
		<g class="st74">
			<g>
				<defs>
					<rect id="SVGID_97_" x="373.3" y="361.6" width="101" height="101"/>
				</defs>
				<clipPath id="SVGID_98_">
					<use xlink:href="#SVGID_97_"  style="overflow:visible;"/>
				</clipPath>
				<g class="st75">
					<path d="M447.3,397.9c-0.6-8-2.6-9.6-3.7-9.4s-2,5.7,0.5,10.4c0.2-0.1,0.4-0.2,0.6-0.2l0.1-0.1c0.7-0.4,1.4-0.6,2.2-0.7
						L447.3,397.9"/>
					<path class="st76" d="M447.3,397.9c-0.6-8-2.6-9.6-3.7-9.4s-2,5.7,0.5,10.4c0.2-0.1,0.4-0.2,0.6-0.2l0.1-0.1
						c0.7-0.4,1.4-0.6,2.2-0.7L447.3,397.9z"/>
					<path d="M453.2,388.5c-1.6-0.2-3.3,8.4-3.3,9.4h0.2c0.3,0,0.6,0.1,0.8,0.2c0.7,0.1,1.4,0.4,2.1,0.8
						C455.6,391.8,454.2,388.5,453.2,388.5"/>
					<path class="st76" d="M453.2,388.5c-1.6-0.2-3.3,8.4-3.3,9.4h0.2c0.3,0,0.6,0.1,0.8,0.2c0.7,0.1,1.4,0.4,2.1,0.8
						C455.6,391.8,454.2,388.5,453.2,388.5z"/>
					<path d="M448.4,414.7c-2.4,0-4.7-0.9-6.4-2.6c-3.4-3.2-3.5-8.5-0.3-11.9c3.5-3.7,9.3-3.9,13-0.4c0,0,0.1,0.1,0.1,0.1
						c1.7,1.6,2.6,3.9,2.6,6.2C457.3,410.9,453.3,414.7,448.4,414.7L448.4,414.7z"/>
					<path d="M448.4,397.6L448.4,397.6c2.3,0,4.5,0.9,6.1,2.5c1.6,1.5,2.5,3.7,2.5,5.9c-0.1,4.7-4,8.4-8.7,8.3l0,0
						c-2.3,0-4.5-0.9-6.1-2.5c-3.2-3.1-3.3-8.2-0.3-11.5C443.6,398.6,445.9,397.6,448.4,397.6 M448.4,396.9c-2.6,0-5.2,1.1-7,3
						c-1.5,1.6-2.4,3.8-2.4,6c0,5.1,4.2,9.1,9.3,9.1c0,0,0,0,0,0l0,0c5,0.2,9.2-3.7,9.4-8.7c0.2-5-3.7-9.2-8.7-9.4
						C448.8,396.9,448.6,396.9,448.4,396.9L448.4,396.9"/>
					<line class="st47" x1="436.2" y1="390.6" x2="440.1" y2="395.5"/>
					<line class="st76" x1="436.2" y1="390.6" x2="440.1" y2="395.5"/>
					<line class="st47" x1="444.5" y1="391.8" x2="445.9" y2="396.9"/>
					<line class="st76" x1="444.5" y1="391.8" x2="445.9" y2="396.9"/>
					<line class="st47" x1="453.1" y1="393.7" x2="451.3" y2="398"/>
					<line class="st76" x1="453.1" y1="393.7" x2="451.3" y2="398"/>
					<line class="st47" x1="461.9" y1="392.1" x2="457.8" y2="396.8"/>
					<line class="st76" x1="461.9" y1="392.1" x2="457.8" y2="396.8"/>
					<line class="st47" x1="466.6" y1="400.3" x2="460.5" y2="401.9"/>
					<line class="st76" x1="466.6" y1="400.3" x2="460.5" y2="401.9"/>
					<line class="st47" x1="466.1" y1="411.3" x2="460.4" y2="408.6"/>
					<line class="st76" x1="466.1" y1="411.3" x2="460.4" y2="408.6"/>
					<line class="st47" x1="461.1" y1="419.4" x2="456.9" y2="414.8"/>
					<line class="st76" x1="461.1" y1="419.4" x2="456.9" y2="414.8"/>
					<line class="st47" x1="451.3" y1="417.5" x2="453" y2="423.4"/>
					<line class="st76" x1="451.3" y1="417.5" x2="453" y2="423.4"/>
					<line class="st47" x1="445" y1="417.2" x2="442.8" y2="423.1"/>
					<line class="st76" x1="445" y1="417.2" x2="442.8" y2="423.1"/>
					<line class="st47" x1="440" y1="406.8" x2="436" y2="411.5"/>
					<line class="st76" x1="440" y1="406.8" x2="436" y2="411.5"/>
					<line class="st47" x1="436.7" y1="408.2" x2="430.6" y2="410"/>
					<line class="st76" x1="436.7" y1="408.2" x2="430.6" y2="410"/>
					<line class="st47" x1="437.4" y1="400.7" x2="431.6" y2="398.2"/>
					<line class="st76" x1="437.4" y1="400.7" x2="431.6" y2="398.2"/>
					<path d="M392,436.1h59.7c15.3-1.2,16.5-23.8-1-19.2c5.2-14.5-14.5-22.7-20.6-2c2-20.1-27.6-30-28.8,0.3
						C387.3,402.4,368.1,430.3,392,436.1"/>
					<path class="st77" d="M392,436.1h59.7c15.3-1.2,16.5-23.8-1-19.2c5.2-14.5-14.5-22.7-20.6-2c2-20.1-27.6-30-28.8,0.3
						C387.3,402.4,368.1,430.3,392,436.1z"/>
				</g>
			</g>
		</g>
	</g>
	<g>
		<defs>
			<rect id="SVGID_99_" x="495.6" y="376.5" width="93.9" height="93.9"/>
		</defs>
		<clipPath id="SVGID_100_">
			<use xlink:href="#SVGID_99_"  style="overflow:visible;"/>
		</clipPath>
		<g class="st78">
			<line class="st47" x1="509.3" y1="466.7" x2="516.2" y2="443.5"/>
			<line class="st70" x1="509.3" y1="466.7" x2="516.2" y2="443.5"/>
			<line class="st47" x1="534.8" y1="466.4" x2="541.7" y2="443.2"/>
			<line class="st70" x1="534.8" y1="466.4" x2="541.7" y2="443.2"/>
			<line class="st47" x1="548.5" y1="466.4" x2="555.4" y2="443.2"/>
			<line class="st70" x1="548.5" y1="466.4" x2="555.4" y2="443.2"/>
			<line class="st47" x1="561.7" y1="466.4" x2="568.6" y2="443.2"/>
			<line class="st70" x1="561.7" y1="466.4" x2="568.6" y2="443.2"/>
			<line class="st47" x1="522.2" y1="466.4" x2="529.1" y2="443.2"/>
			<line class="st70" x1="522.2" y1="466.4" x2="529.1" y2="443.2"/>
			<line class="st47" x1="583.8" y1="423.4" x2="578.2" y2="417.4"/>
			<line class="st72" x1="583.8" y1="423.4" x2="578.2" y2="417.4"/>
			<line class="st47" x1="570.9" y1="420.9" x2="573.2" y2="428.6"/>
			<line class="st72" x1="570.9" y1="420.9" x2="573.2" y2="428.6"/>
			<line class="st47" x1="562.6" y1="420.6" x2="559.8" y2="428.2"/>
			<line class="st72" x1="562.6" y1="420.6" x2="559.8" y2="428.2"/>
			<line class="st47" x1="555.3" y1="416.6" x2="550" y2="422.8"/>
			<line class="st72" x1="555.3" y1="416.6" x2="550" y2="422.8"/>
			<g>
				<defs>
					<rect id="SVGID_101_" x="495.6" y="376.5" width="93.9" height="93.9"/>
				</defs>
				<clipPath id="SVGID_102_">
					<use xlink:href="#SVGID_101_"  style="overflow:visible;"/>
				</clipPath>
				<g class="st79">
					<path d="M513.8,436.3h59.3c15.2-1.2,16.4-23.7-1-19.1c5.2-14.5-14.5-22.5-20.5-2c2-20-27.5-29.8-28.6,0.3
						C509.2,402.8,490.1,430.5,513.8,436.3"/>
					<path class="st72" d="M513.8,436.3h59.3c15.2-1.2,16.4-23.7-1-19.1c5.2-14.5-14.5-22.5-20.5-2c2-20-27.5-29.8-28.6,0.3
						C509.2,402.8,490.1,430.5,513.8,436.3z"/>
					<path d="M536,402.3c-1.3-18.1-5.6-21.9-8.1-21.2s-4.4,13,1.2,23.6c0.4-0.3,0.9-0.4,1.4-0.4l0.3-0.2c1.5-0.8,3.1-1.3,4.8-1.5
						C535.7,402.5,535.8,402.4,536,402.3"/>
					<path d="M546.5,381c-3.5-0.5-7.2,19-7.3,21.3h0.4c0.6,0,1.2,0.1,1.8,0.5c1.6,0.3,3.2,1,4.5,1.9
						C551.7,388.5,548.6,381.1,546.5,381"/>
				</g>
			</g>
		</g>
	</g>
	<g>
		<defs>
			<rect id="SVGID_103_" x="603.8" y="375.8" width="97.8" height="97.8"/>
		</defs>
		<clipPath id="SVGID_104_">
			<use xlink:href="#SVGID_103_"  style="overflow:visible;"/>
		</clipPath>
		<g class="st80">
			<g>
				<defs>
					<rect id="SVGID_105_" x="603.8" y="375.8" width="97.8" height="97.8"/>
				</defs>
				<clipPath id="SVGID_106_">
					<use xlink:href="#SVGID_105_"  style="overflow:visible;"/>
				</clipPath>
				<g class="st81">
					<path d="M625.6,432.9h54.2c13.9-1,15-21.6-0.9-17.4c4.8-13.2-13.2-20.6-18.7-1.8c1.8-18.2-25.1-27.2-26.2,0.2
						C621.3,402.3,603.9,427.6,625.6,432.9"/>
					<path class="st68" d="M625.6,432.9h54.2c13.9-1,15-21.6-0.9-17.4c4.8-13.2-13.2-20.6-18.7-1.8c1.8-18.2-25.1-27.2-26.2,0.2
						C621.3,402.3,603.9,427.6,625.6,432.9z"/>
					<path d="M645.6,401.6c-1.1-15.3-4.8-18.5-6.9-17.9s-3.7,11,1,19.9c0.4-0.2,0.8-0.3,1.2-0.4c0.1-0.1,0.2-0.1,0.2-0.1
						c1.2-0.7,2.6-1.1,4-1.3C645.3,401.7,645.5,401.7,645.6,401.6"/>
					<path d="M654.5,383.7c-3-0.5-6.1,16-6.2,17.9h0.3c0.5,0,1,0.1,1.5,0.4c1.4,0.3,2.7,0.8,3.8,1.6
						C658.8,390,656.2,383.7,654.5,383.7"/>
					<path d="M639.3,450.5c-0.9,0.9-1.6,2-2,3.3c-0.7,2,0,2.6,1.3,2.6S641.3,455.7,639.3,450.5"/>
					<path class="st68" d="M639.3,450.5c-0.9,0.9-1.6,2-2,3.3c-0.7,2,0,2.6,1.3,2.6S641.3,455.7,639.3,450.5z"/>
					<path d="M663,435.5c-0.9,0.9-1.6,2-2,3.3c-0.7,2,0,2.6,1.3,2.6S664.9,440.7,663,435.5"/>
					<path class="st68" d="M663,435.5c-0.9,0.9-1.6,2-2,3.3c-0.7,2,0,2.6,1.3,2.6S665,440.7,663,435.5z"/>
					<path d="M683.9,444.6c-0.9,0.9-1.6,2-2,3.3c-0.7,2,0,2.6,1.3,2.6S685.8,449.9,683.9,444.6"/>
					<path class="st68" d="M683.9,444.6c-0.9,0.9-1.6,2-2,3.3c-0.7,2,0,2.6,1.3,2.6S685.8,449.9,683.9,444.6z"/>
					<path d="M666.9,450.5c-0.9,0.9-1.6,2-2,3.3c-0.7,2,0,2.6,1.3,2.6S668.8,455.7,666.9,450.5"/>
					<path class="st68" d="M666.9,450.5c-0.9,0.9-1.6,2-2,3.3c-0.7,2,0,2.6,1.3,2.6S668.9,455.7,666.9,450.5z"/>
					<path d="M674.1,435.5c-0.9,0.9-1.6,2-2,3.3c-0.7,2,0,2.6,1.3,2.6S676,440.7,674.1,435.5"/>
					<path class="st68" d="M674.1,435.5c-0.9,0.9-1.6,2-2,3.3c-0.7,2,0,2.6,1.3,2.6S676.1,440.7,674.1,435.5z"/>
					<path d="M650,442c-0.9,0.9-1.6,2-2,3.3c-0.7,2,0,2.6,1.3,2.6S651.9,447.2,650,442"/>
					<path class="st68" d="M650,442c-0.9,0.9-1.6,2-2,3.3c-0.7,2,0,2.6,1.3,2.6S651.9,447.2,650,442z"/>
					<path d="M654.4,456.4c-0.8,1-1.4,2.1-1.8,3.3c-0.6,2,0,2.6,1.2,2.6S656.2,461.6,654.4,456.4"/>
					<path class="st68" d="M654.4,456.4c-0.8,1-1.4,2.1-1.8,3.3c-0.6,2,0,2.6,1.2,2.6S656.2,461.6,654.4,456.4z"/>
					<path d="M621.3,446.6c-0.9,0.9-1.6,2-2,3.3c-0.7,2,0,2.6,1.3,2.6S623.2,451.8,621.3,446.6"/>
					<path class="st68" d="M621.3,446.6c-0.9,0.9-1.6,2-2,3.3c-0.7,2,0,2.6,1.3,2.6S623.2,451.8,621.3,446.6z"/>
					<path d="M679.3,457.7c-0.9,0.9-1.6,2-2,3.3c-0.7,2,0,2.6,1.3,2.6S681.2,462.9,679.3,457.7"/>
					<path class="st68" d="M679.3,457.7c-0.9,0.9-1.6,2-2,3.3c-0.7,2,0,2.6,1.3,2.6S681.3,462.9,679.3,457.7z"/>
					<path d="M626.5,457.7c-0.9,0.9-1.6,2-2,3.3c-0.7,2,0,2.6,1.3,2.6S628.4,462.9,626.5,457.7"/>
					<path class="st68" d="M626.5,457.7c-0.9,0.9-1.6,2-2,3.3c-0.7,2,0,2.6,1.3,2.6S628.5,462.9,626.5,457.7z"/>
					<path d="M632.4,436.1c-0.9,0.9-1.6,2-2,3.3c-0.7,2,0,2.6,1.3,2.6S634.3,441.4,632.4,436.1"/>
					<path class="st68" d="M632.4,436.1c-0.9,0.9-1.6,2-2,3.3c-0.7,2,0,2.6,1.3,2.6S634.3,441.4,632.4,436.1z"/>
				</g>
			</g>
		</g>
	</g>
	<g>
		<defs>
			<rect id="SVGID_107_" x="718.4" y="374.4" width="100.8" height="100.8"/>
		</defs>
		<clipPath id="SVGID_108_">
			<use xlink:href="#SVGID_107_"  style="overflow:visible;"/>
		</clipPath>
		<g class="st82">
			<g>
				<defs>
					<rect id="SVGID_109_" x="718.4" y="374.4" width="100.8" height="100.8"/>
				</defs>
				<clipPath id="SVGID_110_">
					<use xlink:href="#SVGID_109_"  style="overflow:visible;"/>
				</clipPath>
				<g class="st83">
					<path d="M740.4,430.5h55.9c14.3-1.1,15.4-22.3-0.9-18c4.9-13.6-13.6-21.2-19.3-1.9c1.9-18.8-25.9-28-27,0.2
						C736,398.8,718,425,740.4,430.5"/>
					<path class="st76" d="M740.4,430.5h55.9c14.3-1.1,15.4-22.3-0.9-18c4.9-13.6-13.6-21.2-19.3-1.9c1.9-18.8-25.9-28-27,0.2
						C736,398.9,718.1,425,740.4,430.5z"/>
					<path d="M761,398.3c-1.1-15.8-4.9-19-7.1-18.5s-3.8,11.3,1,20.5c0.4-0.2,0.8-0.4,1.2-0.4l0.3-0.2c1.3-0.7,2.7-1.1,4.2-1.3
						C760.7,398.4,760.8,398.3,761,398.3"/>
					<path d="M770.1,379.8c-3.1-0.5-6.3,16.5-6.4,18.5h0.3c0.5,0,1.1,0.1,1.5,0.4c1.4,0.3,2.7,0.8,3.9,1.6
						C774.6,386.3,771.9,379.8,770.1,379.8"/>
					<polygon points="766.5,435.9 754.4,454 763.8,458.7 756.4,469.8 775.2,454.7 764.8,448.5 					"/>
					<polygon class="st76" points="766.5,435.9 754.4,454 763.8,458.7 756.4,469.8 775.2,454.7 764.8,448.5 					"/>
				</g>
			</g>
		</g>
	</g>
	<g>
		<defs>
			<rect id="SVGID_111_" x="834.4" y="371.5" width="98.8" height="98.8"/>
		</defs>
		<clipPath id="SVGID_112_">
			<use xlink:href="#SVGID_111_"  style="overflow:visible;"/>
		</clipPath>
		<g class="st84">
			<polyline points="881.4,450 881.4,437.4 881.4,454.9 875.3,454.9 887.4,467.2 899.6,454.8 893.6,454.8 893.6,437.4 880.8,437.4 
							"/>
			<polyline class="st85" points="881.4,450 881.4,437.4 881.4,454.9 875.3,454.9 887.4,467.2 899.6,454.8 893.6,454.8 893.6,437.4 
				880.8,437.4 			"/>
			<g>
				<defs>
					<rect id="SVGID_113_" x="834.4" y="371.5" width="98.8" height="98.8"/>
				</defs>
				<clipPath id="SVGID_114_">
					<use xlink:href="#SVGID_113_"  style="overflow:visible;"/>
				</clipPath>
				<g class="st86">
					<path d="M899.8,416.3c2.5-7.2,2.5-12.7,1-16.5c4.7-14.5,1.8-21.3-0.2-21.4c-2.4-0.4-5,8.2-6.6,14.9c-1.8-0.5-3.6-0.7-5.4-0.4
						c-1.7-12.4-5.3-15.2-7.5-14.7s-4.1,9.8-1.2,19.4c-3.3,3.5-5.5,8.9-5,16.1c-2.6-12.5-11.2-11.2-15.1-7.7
						c-3.2,3-5.4,7.6-4.7,12.3c-16.5-5.3-21.1,13.8-8.6,17.1h66.1C940.7,434.1,919,395.3,899.8,416.3"/>
					<path class="st85" d="M899.8,416.3c2.5-7.2,2.5-12.7,1-16.5c4.7-14.5,1.8-21.3-0.2-21.4c-2.4-0.4-5,8.2-6.6,14.9
						c-1.8-0.5-3.6-0.7-5.4-0.4c-1.7-12.4-5.3-15.2-7.5-14.7s-4.1,9.8-1.2,19.4c-3.3,3.5-5.5,8.9-5,16.1
						c-2.6-12.5-11.2-11.2-15.1-7.7c-3.2,3-5.4,7.6-4.7,12.3c-16.5-5.3-21.1,13.8-8.6,17.1h66.1C940.7,434.1,919,395.3,899.8,416.3z
						"/>
					<polyline class="st87" points="914.1,454.5 914.1,446 928.6,446 928.6,454.5 					"/>
				</g>
			</g>
		</g>
	</g>
	<g>
		<defs>
			<rect id="SVGID_115_" x="948.3" y="370.4" width="101.1" height="101.1"/>
		</defs>
		<clipPath id="SVGID_116_">
			<use xlink:href="#SVGID_115_"  style="overflow:visible;"/>
		</clipPath>
		<g class="st88">
			<g>
				<defs>
					<rect id="SVGID_117_" x="948.3" y="370.4" width="101.1" height="101.1"/>
				</defs>
				<clipPath id="SVGID_118_">
					<use xlink:href="#SVGID_117_"  style="overflow:visible;"/>
				</clipPath>
				<g class="st89">
					<path d="M1017.8,417.1c2.6-7.4,2.6-13,1-16.9c4.8-14.8,1.8-21.8-0.2-21.9c-2.5-0.4-5.2,8.4-6.8,15.2c-1.8-0.5-3.7-0.7-5.5-0.4
						c-1.8-12.7-5.4-15.6-7.7-15s-4.2,10-1.3,19.8c-3.4,3.6-5.7,9.1-5.2,16.5c-2.7-12.8-11.5-11.5-15.4-7.9c-3.3,3-5.6,7.8-4.8,12.6
						c-16.9-5.4-21.6,14.1-8.8,17.5h67.6C1059.6,435.3,1037.3,395.6,1017.8,417.1"/>
					<path class="st90" d="M1017.8,417.1c2.6-7.4,2.6-13,1-16.9c4.8-14.8,1.8-21.8-0.2-21.9c-2.5-0.4-5.2,8.4-6.8,15.2
						c-1.8-0.5-3.7-0.7-5.5-0.4c-1.8-12.7-5.4-15.6-7.7-15s-4.2,10-1.3,19.8c-3.4,3.6-5.7,9.1-5.2,16.5
						c-2.7-12.8-11.5-11.5-15.4-7.9c-3.3,3-5.6,7.8-4.8,12.6c-16.9-5.4-21.6,14.1-8.8,17.5h67.6
						C1059.6,435.3,1037.4,395.5,1017.8,417.1z"/>
					<polyline points="1006.6,436.1 1006.4,449 1006.6,431.1 1012.9,431.1 1000.6,418.5 988,431 994.2,431.1 994,448.9 1007.1,449 
											"/>
					<polyline class="st91" points="1006.6,436.1 1006.4,449 1006.6,431.1 1012.9,431.1 1000.6,418.5 988,431 994.2,431.1 
						994,448.9 1007.1,449 					"/>
				</g>
			</g>
		</g>
	</g>
	<g>
		<defs>
			<rect id="SVGID_119_" x="1058.5" y="363.5" width="110.7" height="110.7"/>
		</defs>
		<clipPath id="SVGID_120_">
			<use xlink:href="#SVGID_119_"  style="overflow:visible;"/>
		</clipPath>
		<g class="st92">
			<g>
				<defs>
					<rect id="SVGID_121_" x="1058.5" y="363.5" width="110.7" height="110.7"/>
				</defs>
				<clipPath id="SVGID_122_">
					<use xlink:href="#SVGID_121_"  style="overflow:visible;"/>
				</clipPath>
				<g class="st93">
					<path d="M1113.1,384.3c0,0-3.7,1.2-3.7,7.3c-8.5,3.7-22,4.9-23.2,40.3c-1.2,8.5-18.3,17.1-8.5,17.1h35.4V384.3z"/>
					<path class="st16" d="M1113.1,384.3c0,0-3.7,1.2-3.7,7.3c-8.5,3.7-22,4.9-23.2,40.3c-1.2,8.5-18.3,17.1-8.5,17.1h35.4V384.3z"
						/>
					<path d="M1113.9,384.3c0,0,3.7,1.2,3.7,7.3c8.7,3.7,22.2,4.9,23.5,40.3c1.2,8.5,18.5,17.1,8.6,17.1h-35.8V384.3z"/>
					<path class="st16" d="M1113.9,384.3c0,0,3.7,1.2,3.7,7.3c8.7,3.7,22.2,4.9,23.5,40.3c1.2,8.5,18.5,17.1,8.6,17.1h-35.8V384.3z"
						/>
					<path d="M1103.4,452.7h19C1122.9,463.7,1103.4,463.7,1103.4,452.7"/>
					<path class="st16" d="M1103.4,452.7h19C1122.9,463.6,1103.4,463.6,1103.4,452.7z"/>
					<path d="M1113.3,385.4c-0.4-6.8-1.7-8.2-2.5-8s-1.3,4.9,0.4,8.9c0.1-0.1,0.3-0.2,0.4-0.2l0.1-0.1c0.4-0.3,1-0.5,1.5-0.6
						C1113.2,385.4,1113.3,385.4,1113.3,385.4"/>
					<path d="M1116.1,377.4c-1.1-0.2-2.3,7.1-2.3,8h0.1c0.2,0,0.4,0.1,0.6,0.2c0.5,0.1,1,0.4,1.4,0.7
						C1117.7,380.2,1116.8,377.4,1116.1,377.4"/>
				</g>
			</g>
		</g>
	</g>
	<g>
		<defs>
			<rect id="SVGID_123_" x="24.1" y="504.9" width="109.4" height="109.4"/>
		</defs>
		<clipPath id="SVGID_124_">
			<use xlink:href="#SVGID_123_"  style="overflow:visible;"/>
		</clipPath>
		<g class="st94">
			<g>
				<defs>
					<rect id="SVGID_125_" x="24.1" y="504.9" width="109.4" height="109.4"/>
				</defs>
				<clipPath id="SVGID_126_">
					<use xlink:href="#SVGID_125_"  style="overflow:visible;"/>
				</clipPath>
				<g class="st95">
					<path d="M78.2,525.2c0,0-3.6,1.2-3.6,7.2c-8.4,3.6-21.7,4.8-22.9,39.8c-1.2,8.4-18.1,16.9-8.4,16.9h35L78.2,525.2z"/>
					<path class="st39" d="M78.2,525.2c0,0-3.6,1.2-3.6,7.2c-8.4,3.6-21.7,4.8-22.9,39.8c-1.2,8.4-18.1,16.9-8.4,16.9h35L78.2,525.2
						z"/>
					<path d="M78.9,525.2c0,0,3.7,1.2,3.7,7.2c8.5,3.6,22,4.8,23.2,39.8c1.2,8.4,18.3,16.9,8.6,16.9H78.9V525.2z"/>
					<path class="st39" d="M78.9,525.2c0,0,3.7,1.2,3.7,7.2c8.5,3.6,22,4.8,23.2,39.8c1.2,8.4,18.3,16.9,8.6,16.9H78.9V525.2z"/>
					<path d="M68.5,592.7h18.8C87.8,603.6,68.5,603.6,68.5,592.7"/>
					<path class="st39" d="M68.5,592.7h18.8C87.8,603.6,68.5,603.6,68.5,592.7z"/>
					<path d="M78.4,526.2c-0.4-6.7-1.7-8.1-2.5-7.9s-1.3,4.8,0.4,8.8c0.1-0.1,0.3-0.2,0.4-0.2l0.1-0.1c0.4-0.3,0.9-0.5,1.5-0.6
						C78.3,526.3,78.3,526.2,78.4,526.2"/>
					<path d="M81.1,518.3c-1.1-0.2-2.2,7.1-2.3,7.9H79c0.2,0,0.4,0.1,0.5,0.2c0.5,0.1,1,0.4,1.4,0.7
						C82.7,521.1,81.8,518.3,81.1,518.3"/>
					<rect x="77.7" y="500.8" transform="matrix(0.7666 -0.6421 0.6421 0.7666 -341.2061 181.1327)" width="1.8" height="118.2"/>
					
						<rect x="77.7" y="500.8" transform="matrix(0.7666 -0.6421 0.6421 0.7666 -341.2061 181.1327)" class="st36" width="1.8" height="118.2"/>
				</g>
			</g>
		</g>
	</g>
	<g>
		<defs>
			<rect id="SVGID_127_" x="137.4" y="502.8" width="113.6" height="113.6"/>
		</defs>
		<clipPath id="SVGID_128_">
			<use xlink:href="#SVGID_127_"  style="overflow:visible;"/>
		</clipPath>
		<g class="st96">
			<g>
				<defs>
					<rect id="SVGID_129_" x="137.4" y="502.8" width="113.6" height="113.6"/>
				</defs>
				<clipPath id="SVGID_130_">
					<use xlink:href="#SVGID_129_"  style="overflow:visible;"/>
				</clipPath>
				<g class="st97">
					<path d="M176.5,569c-10.8-20.4-7.2-44.3-2.4-45.5s13.2,6,15.6,40.8h6c0-3.6,7.2-42,14-40.9c3.9,0.1,10,14.5-1.4,45.7
						c7.8,4.8,20.4,32.1-15.9,31.6S168.1,576.1,176.5,569"/>
				</g>
			</g>
			<text transform="matrix(1 0 0 1 178.26 594.62)" class="st5 st98 st99">？</text>
		</g>
	</g>
	<g>
		<defs>
			<rect id="SVGID_131_" x="255.8" y="504" width="113.4" height="113.4"/>
		</defs>
		<clipPath id="SVGID_132_">
			<use xlink:href="#SVGID_131_"  style="overflow:visible;"/>
		</clipPath>
		<g class="st100">
			<g>
				<defs>
					<rect id="SVGID_133_" x="255.8" y="504" width="113.4" height="113.4"/>
				</defs>
				<clipPath id="SVGID_134_">
					<use xlink:href="#SVGID_133_"  style="overflow:visible;"/>
				</clipPath>
				<g class="st101">
					<path d="M294.1,565.5c-10.8-20.3-7.2-44.3-2.4-45.5s13.2,6,15.5,40.7h6c0-3.6,7.2-41.9,14-40.8c3.9,0.1,9.9,14.5-1.5,45.6
						c7.8,4.8,20.3,32-15.9,31.6S285.7,572.6,294.1,565.5"/>
				</g>
			</g>
			<text transform="matrix(1 0 0 1 306.34 591.52)" class="st5 st98 st102">i</text>
		</g>
	</g>
	<g>
		<defs>
			<rect id="SVGID_135_" x="369.3" y="504.1" width="113.1" height="113.1"/>
		</defs>
		<clipPath id="SVGID_136_">
			<use xlink:href="#SVGID_135_"  style="overflow:visible;"/>
		</clipPath>
		<g class="st103">
			<g>
				<defs>
					<rect id="SVGID_137_" x="369.3" y="504.1" width="113.1" height="113.1"/>
				</defs>
				<clipPath id="SVGID_138_">
					<use xlink:href="#SVGID_137_"  style="overflow:visible;"/>
				</clipPath>
				<g class="st104">
					<path d="M406,568.2c-11.7-22.2-7.8-48.2-2.6-49.5s14.3,6.5,16.9,44.2h6.5c0-3.9,7.8-45.5,15.2-44.4c4.3,0.1,10.8,15.8-1.6,49.6
						c8.4,5.2,22.1,34.8-17.2,34.3S396.9,576,406,568.2"/>
					<path class="st5" d="M420.5,579.5c0,1.2-1,2.3-2.3,2.2c-1.2,0-2.3-1-2.2-2.3c0-1.2,1-2.2,2.3-2.2
						C419.5,577.3,420.5,578.3,420.5,579.5C420.5,579.5,420.5,579.5,420.5,579.5"/>
					<path class="st5" d="M429.9,581.7c-1.2,0-2.1-0.9-2.1-2.1c0-1.2,0.9-2.1,2.1-2.1c1.2,0,2.1,0.9,2.1,2.1l0,0
						C432,580.7,431,581.7,429.9,581.7"/>
					<path class="st22" d="M416.8,589.3c0,0,2.2,5.4,6.8,5.4s7.5-5.4,7.5-5.4"/>
				</g>
			</g>
		</g>
	</g>
	<g>
		<defs>
			<rect id="SVGID_139_" x="486.5" y="503.6" width="112.1" height="112.1"/>
		</defs>
		<clipPath id="SVGID_140_">
			<use xlink:href="#SVGID_139_"  style="overflow:visible;"/>
		</clipPath>
		<g class="st105">
			<g>
				<defs>
					<rect id="SVGID_141_" x="486.5" y="503.6" width="112.1" height="112.1"/>
				</defs>
				<clipPath id="SVGID_142_">
					<use xlink:href="#SVGID_141_"  style="overflow:visible;"/>
				</clipPath>
				<g class="st106">
					<path d="M523.7,568.4c-11.6-21.9-7.7-47.7-2.6-49s14.2,6.5,16.8,43.8h6.5c0-3.9,7.7-45.1,15.1-44c4.2,0.1,10.7,15.6-1.6,49.1
						c8.4,5.2,21.9,34.5-17.1,34S514.7,576.1,523.7,568.4"/>
					<path class="st5" d="M538.1,579.7c0,1.2-1,2.2-2.2,2.2s-2.2-1-2.2-2.2s1-2.2,2.2-2.2l0,0C537.1,577.4,538.1,578.4,538.1,579.7"
						/>
					<path class="st5" d="M547.4,581.8c-1.1,0-2.1-0.9-2.1-2.1c0-1.1,0.9-2.1,2.1-2.1c1.1,0,2.1,0.9,2.1,2.1
						S548.5,581.8,547.4,581.8C547.4,581.8,547.4,581.8,547.4,581.8"/>
					<path class="st22" d="M534.7,593.6c0,0,2.2-2.4,7.1-2.4c2.8,0,5.5,0.8,7.8,2.4"/>
				</g>
			</g>
		</g>
	</g>
	<g>
		<defs>
			<rect id="SVGID_143_" x="598.3" y="511.5" width="114.4" height="114.4"/>
		</defs>
		<clipPath id="SVGID_144_">
			<use xlink:href="#SVGID_143_"  style="overflow:visible;"/>
		</clipPath>
		<g class="st107">
			<polygon points="625.4,553 680.5,553 674.2,587.4 632.5,587.4 			"/>
			<polygon class="st108" points="625.4,553 680.5,553 674.2,587.4 632.5,587.4 			"/>
			<path d="M615.7,553.8L615.7,553.8z"/>
			<line class="st109" x1="615.7" y1="553.8" x2="628.7" y2="553.8"/>
			<g>
				<defs>
					<rect id="SVGID_145_" x="598.3" y="511.5" width="114.4" height="114.4"/>
				</defs>
				<clipPath id="SVGID_146_">
					<use xlink:href="#SVGID_145_"  style="overflow:visible;"/>
				</clipPath>
				<g class="st110">
					<path d="M643.7,591.6c0,1.5-1.2,2.7-2.7,2.7c-1.5,0-2.7-1.2-2.7-2.7c0-1.5,1.2-2.7,2.7-2.7c0,0,0,0,0,0
						C642.5,588.9,643.7,590.1,643.7,591.6"/>
					<circle class="st109" cx="641" cy="591.6" r="2.7"/>
					<path d="M670.4,591.6c0,1.5-1.2,2.7-2.7,2.7c-1.5,0-2.7-1.2-2.7-2.7c0-1.5,1.2-2.7,2.7-2.7c0,0,0,0,0,0
						C669.2,588.9,670.4,590.1,670.4,591.6"/>
					<circle class="st109" cx="667.7" cy="591.6" r="2.7"/>
					<path d="M652.5,554.3c-1-18.2-4.6-22-6.6-21.4s-3.5,13.1,0.9,23.7c0.3-0.3,0.7-0.4,1.1-0.4l0.2-0.2c1.2-0.8,2.5-1.3,3.9-1.5
						C652.2,554.4,652.4,554.3,652.5,554.3"/>
					<path d="M661,532.8c-2.9-0.6-5.8,19.1-5.9,21.4h0.3c0.5,0,1,0.2,1.4,0.5c1.3,0.3,2.6,1,3.7,1.9
						C665.2,540.4,662.6,532.9,661,532.8"/>
				</g>
			</g>
		</g>
	</g>
	<g>
		<defs>
			<rect id="SVGID_147_" x="718.8" y="508.4" width="108.7" height="108.7"/>
		</defs>
		<clipPath id="SVGID_148_">
			<use xlink:href="#SVGID_147_"  style="overflow:visible;"/>
		</clipPath>
		<g class="st111">
			<polygon points="741.4,552.3 800.7,552.3 793.8,589.2 749.1,589.2 			"/>
			<polygon class="st112" points="741.4,552.3 800.7,552.3 793.8,589.2 749.1,589.2 			"/>
			<path d="M731,553.2L731,553.2z"/>
			<line class="st113" x1="731" y1="553.2" x2="745" y2="553.2"/>
			<g>
				<defs>
					<rect id="SVGID_149_" x="718.8" y="508.4" width="108.7" height="108.7"/>
				</defs>
				<clipPath id="SVGID_150_">
					<use xlink:href="#SVGID_149_"  style="overflow:visible;"/>
				</clipPath>
				<g class="st114">
					<path d="M761.1,593.7c0,1.6-1.3,2.9-2.9,2.9s-2.9-1.3-2.9-2.9c0-1.6,1.3-2.9,2.9-2.9l0,0C759.8,590.9,761.1,592.1,761.1,593.7"
						/>
					<circle class="st113" cx="758.2" cy="593.7" r="2.9"/>
					<path d="M789.8,593.7c0,1.6-1.3,2.9-2.9,2.9s-2.9-1.3-2.9-2.9c0-1.6,1.3-2.9,2.9-2.9l0,0C788.5,590.9,789.8,592.1,789.8,593.7"
						/>
					<circle class="st113" cx="786.9" cy="593.7" r="2.9"/>
					<path d="M770.5,553.7c-1.1-19.6-4.9-23.6-7.1-23s-3.8,14,1,25.5c0.4-0.3,0.8-0.4,1.2-0.5c0.1-0.1,0.2-0.1,0.3-0.2
						c1.3-0.8,2.7-1.4,4.2-1.7C770.2,553.8,770.4,553.7,770.5,553.7"/>
					<path d="M779.6,530.6c-3.1-0.6-6.3,20.5-6.4,23h0.3c0.6,0,1.1,0.2,1.5,0.5c1.4,0.4,2.8,1,3.9,2
						C784.1,538.8,781.4,530.7,779.6,530.6"/>
				</g>
			</g>
			<rect x="779.4" y="562.4" width="25.4" height="4.3"/>
			<rect x="779.4" y="562.4" class="st115" width="25.4" height="4.3"/>
		</g>
	</g>
	<g>
		<defs>
			<rect id="SVGID_151_" x="825.1" y="505.8" width="113.9" height="113.9"/>
		</defs>
		<clipPath id="SVGID_152_">
			<use xlink:href="#SVGID_151_"  style="overflow:visible;"/>
		</clipPath>
		<g class="st116">
			<polygon points="853.3,551.1 915.4,551.1 908.2,589.7 861.3,589.7 			"/>
			<polygon class="st117" points="853.3,551.1 915.4,551.1 908.2,589.7 861.3,589.7 			"/>
			<path d="M842.4,551.9L842.4,551.9z"/>
			<line class="st118" x1="842.4" y1="552" x2="857" y2="552"/>
			<g>
				<defs>
					<rect id="SVGID_153_" x="825.1" y="505.8" width="113.9" height="113.9"/>
				</defs>
				<clipPath id="SVGID_154_">
					<use xlink:href="#SVGID_153_"  style="overflow:visible;"/>
				</clipPath>
				<g class="st119">
					<path d="M873.9,594.4c0,1.7-1.3,3-3,3s-3-1.3-3-3s1.3-3,3-3S873.9,592.8,873.9,594.4"/>
					<circle class="st118" cx="870.9" cy="594.4" r="3"/>
					<path d="M903.9,594.4c0,1.7-1.3,3-3,3s-3-1.3-3-3s1.3-3,3-3S903.9,592.8,903.9,594.4"/>
					<circle class="st118" cx="900.9" cy="594.4" r="3"/>
					<path d="M883.8,552.5c-1.1-20.5-5.1-24.8-7.4-24s-4,14.7,1.1,26.7c0.4-0.3,0.8-0.5,1.3-0.5l0.3-0.2c1.3-0.9,2.8-1.5,4.3-1.7
						C883.5,552.6,883.7,552.5,883.8,552.5"/>
					<path d="M893.3,528.3c-3.2-0.6-6.6,21.5-6.7,24.1h0.3c0.6,0,1.2,0.2,1.6,0.6c1.5,0.4,2.9,1.1,4.1,2.1
						C898,536.9,895.2,528.4,893.3,528.3"/>
				</g>
			</g>
			<polygon points="915.8,560.4 909.8,560.4 909.8,554.4 907.4,554.4 907.4,560.4 901.8,560.4 901.8,562.8 907.4,562.8 907.4,568.5 
				909.8,568.5 909.8,562.8 915.8,562.8 			"/>
			<polygon class="st120" points="915.8,560.4 909.8,560.4 909.8,554.4 907.4,554.4 907.4,560.4 901.8,560.4 901.8,562.8 
				907.4,562.8 907.4,568.5 909.8,568.5 909.8,562.8 915.8,562.8 			"/>
		</g>
	</g>
	<g>
		<defs>
			<rect id="SVGID_155_" x="954.7" y="515" width="97.6" height="97.6"/>
		</defs>
		<clipPath id="SVGID_156_">
			<use xlink:href="#SVGID_155_"  style="overflow:visible;"/>
		</clipPath>
		<g class="st121">
			<g>
				<defs>
					<rect id="SVGID_157_" x="954.7" y="515" width="97.6" height="97.6"/>
				</defs>
				<clipPath id="SVGID_158_">
					<use xlink:href="#SVGID_157_"  style="overflow:visible;"/>
				</clipPath>
				<g class="st122">
					<path d="M986.2,570.4c-12-22.7-8-49.4-2.7-50.8s14.7,6.7,17.4,45.4h6.7c0-4,8-46.8,15.7-45.6c4.4,0.1,11.1,16.2-1.6,50.9
						c8.7,5.3,22.7,35.8-17.7,35.2S976.8,578.4,986.2,570.4"/>
					<polyline points="992.5,590.5 1000.9,597 1016.5,579.4 					"/>
					<polyline class="st123" points="992.5,590.5 1000.9,597 1016.5,579.4 					"/>
				</g>
			</g>
		</g>
	</g>
	<g>
		<defs>
			<rect id="SVGID_159_" x="1062.9" y="509.8" width="107.9" height="107.9"/>
		</defs>
		<clipPath id="SVGID_160_">
			<use xlink:href="#SVGID_159_"  style="overflow:visible;"/>
		</clipPath>
		<g class="st124">
			<g>
				<defs>
					<rect id="SVGID_161_" x="1062.9" y="509.8" width="107.9" height="107.9"/>
				</defs>
				<clipPath id="SVGID_162_">
					<use xlink:href="#SVGID_161_"  style="overflow:visible;"/>
				</clipPath>
				<g class="st125">
					<path d="M1114.7,586.4c-7.4,0-13.3-6-13.3-13.3v-26.6c0-7.4,6-13.3,13.3-13.3c7.4,0,13.3,6,13.3,13.3c0,0,0,0,0,0v26.6
						C1128,580.5,1122,586.4,1114.7,586.4"/>
					<path d="M1114.7,534.3c6.8,0,12.2,5.5,12.2,12.2v26.6c0.2,6.8-5.1,12.4-11.9,12.6s-12.4-5.1-12.6-11.9c0-0.2,0-0.5,0-0.7v-26.6
						C1102.4,539.7,1107.9,534.3,1114.7,534.3 M1114.7,532.1L1114.7,532.1c-7.9,0-14.4,6.4-14.4,14.4l0,0v26.6
						c0,7.9,6.4,14.4,14.4,14.4s14.4-6.4,14.4-14.4v-26.6C1129.1,538.6,1122.6,532.1,1114.7,532.1L1114.7,532.1"/>
					<path class="st126" d="M1095.6,572.8c0,12.2,8.6,20.1,19.1,20.1s19.6-7.9,19.6-20.1"/>
					<polyline class="st126" points="1114.7,592.9 1114.9,602.4 1101.4,602.3 1127.6,602.4 					"/>
					<path d="M1113.6,538.9c-1.4-20.8-6.5-25.2-9.3-24.4s-5,15,1.3,27.1c0.5-0.3,1-0.5,1.6-0.5l0.3-0.2c1.7-0.9,3.6-1.5,5.5-1.8
						C1113.2,539,1113.4,538.9,1113.6,538.9"/>
					<path d="M1125.7,514.4c-4.1-0.6-8.3,21.8-8.4,24.4h0.4c0.7,0,1.4,0.2,2,0.6c1.9,0.4,3.6,1.1,5.2,2.1
						C1131.6,523,1128,514.5,1125.7,514.4"/>
				</g>
			</g>
		</g>
	</g>
	<g>
		<defs>
			<rect id="SVGID_163_" x="23.8" y="650.4" width="110" height="110"/>
		</defs>
		<clipPath id="SVGID_164_">
			<use xlink:href="#SVGID_163_"  style="overflow:visible;"/>
		</clipPath>
		<g class="st127">
			<g>
				<defs>
					<rect id="SVGID_165_" x="23.8" y="650.4" width="110" height="110"/>
				</defs>
				<clipPath id="SVGID_166_">
					<use xlink:href="#SVGID_165_"  style="overflow:visible;"/>
				</clipPath>
				<g class="st128">
					<path d="M61.8,709c-11.5-21.7-7.7-47.3-2.5-48.6s14.1,6.4,16.6,43.5h6.4c0-3.8,7.7-44.8,15-43.6c4.2,0.1,10.6,15.5-1.5,48.7
						c8.3,5.1,21.7,34.2-17,33.7S52.8,716.7,61.8,709"/>
					<path class="st129" d="M61.8,709c-11.5-21.7-7.7-47.3-2.5-48.6s14.1,6.4,16.6,43.5h6.4c0-3.8,7.7-44.8,15-43.6
						c4.2,0.1,10.6,15.5-1.5,48.7c8.3,5.1,21.7,34.2-17,33.7S52.9,716.7,61.8,709z"/>
					<path class="st130" d="M78.8,709.8v14.3c0,0.5,0.3,0.9,0.6,1.1l13.5,8.3"/>
					<path class="st129" d="M61.8,709c0,0,3.1-4.4,14.1-5.1c7-0.3,13.9,1.5,19.8,5.1"/>
				</g>
			</g>
		</g>
	</g>
	<g>
		<defs>
			<rect id="SVGID_167_" x="140.4" y="646.6" width="107.5" height="107.5"/>
		</defs>
		<clipPath id="SVGID_168_">
			<use xlink:href="#SVGID_167_"  style="overflow:visible;"/>
		</clipPath>
		<g class="st131">
			<g>
				<defs>
					<rect id="SVGID_169_" x="140.4" y="646.6" width="107.5" height="107.5"/>
				</defs>
				<clipPath id="SVGID_170_">
					<use xlink:href="#SVGID_169_"  style="overflow:visible;"/>
				</clipPath>
				<g class="st132">
					<path class="st133" d="M221.1,740.8c0,4.7-11.6,8.5-25.8,8.5s-25.8-3.8-25.8-8.5s11.6-8.5,25.8-8.5S221.1,736,221.1,740.8z"/>
					<path d="M204,679.9c5.8-17.2,2.4-25.2,0.1-25.2c-3.6-0.6-7.4,17.4-8.2,23c-0.7-0.1-1.3-0.1-2-0.1s-1.2,0-1.8,0.1
						c-1.6-19.5-6.4-23.6-9.2-22.9s-4.8,13.6,0.5,25.3c-11.3,5.8-15.7,19.6-9.9,30.9c0.4,0.8,0.9,1.6,1.4,2.3
						c0.8,1.1,1.6,2.2,2.6,3.2l18.4,27.4l15.7-28.7c8.1-9.7,6.8-24.2-3-32.3C207.2,681.7,205.6,680.7,204,679.9"/>
					<path class="st133" d="M204,679.9c5.8-17.2,2.4-25.2,0.1-25.2c-3.6-0.6-7.4,17.4-8.2,23c-0.7-0.1-1.3-0.1-2-0.1s-1.2,0-1.8,0.1
						c-1.6-19.5-6.4-23.6-9.2-22.9s-4.8,13.6,0.5,25.3c-11.3,5.8-15.7,19.6-9.9,30.9c0.4,0.8,0.9,1.6,1.4,2.3
						c0.8,1.1,1.6,2.2,2.6,3.2l18.4,27.4l15.7-28.7c8.1-9.7,6.8-24.2-3-32.3C207.2,681.7,205.6,680.7,204,679.9z"/>
					<path class="st5" d="M201.7,696.2c0,4.4-3.5,7.9-7.9,7.9s-7.9-3.5-7.9-7.9c0-4.4,3.5-7.9,7.9-7.9S201.7,691.9,201.7,696.2
						L201.7,696.2"/>
					<circle class="st133" cx="193.8" cy="696.2" r="7.9"/>
				</g>
			</g>
		</g>
	</g>
	<g>
		<defs>
			<rect id="SVGID_171_" x="370" y="649.6" width="111.5" height="111.5"/>
		</defs>
		<clipPath id="SVGID_172_">
			<use xlink:href="#SVGID_171_"  style="overflow:visible;"/>
		</clipPath>
		<g class="st134">
			<g>
				<defs>
					<rect id="SVGID_173_" x="370" y="649.6" width="111.5" height="111.5"/>
				</defs>
				<clipPath id="SVGID_174_">
					<use xlink:href="#SVGID_173_"  style="overflow:visible;"/>
				</clipPath>
				<g class="st135">
					<path d="M423.6,699.1c-11.3,0-20.5-9.1-20.5-20.4s9.1-20.5,20.4-20.5c11.3,0,20.5,9.1,20.5,20.4c0,0,0,0,0,0
						C444,689.9,434.8,699,423.6,699.1"/>
					<path d="M423.6,658.5c11.1,0,20.1,9,20.1,20.1c0,11.1-9,20.1-20.1,20.1c-11.1,0-20.1-9-20.1-20.1
						C403.5,667.5,412.5,658.5,423.6,658.5 M423.6,657.8c-11.5,0-20.8,9.3-20.8,20.8c0,11.5,9.3,20.8,20.8,20.8
						c11.5,0,20.8-9.3,20.8-20.8C444.4,667.1,435.1,657.8,423.6,657.8C423.6,657.8,423.6,657.8,423.6,657.8"/>
					<rect x="419.5" y="696.8" width="8.2" height="42.4"/>
					<path d="M427.3,738.8h-7.4v-41.6h7.4V738.8z M428,696.5h-8.9v43.1h8.9V696.5z"/>
					<rect x="409.1" y="716.9" width="14.1" height="4.5"/>
					<path d="M422.9,721h-13.4v-3.7h13.4V721z M423.6,716.5h-14.9v5.2h14.9V716.5z"/>
					<rect x="403.1" y="705.8" width="24.5" height="5.2"/>
					<path d="M427.3,710.6h-23.8v-4.5h23.8V710.6z M428,705.4h-25.3v6H428V705.4z"/>
					<path class="st5" d="M421.6,664.2c-1.3-2-0.8-4.3-0.3-4.4s1.5,0.6,1.8,3.9h0.7c0-0.3,0.8-4.1,1.6-4c0.5,0,1.2,1.4-0.2,4.4
						c0.9,0.5,2.4,3.1-1.9,3.1S420.7,664.8,421.6,664.2"/>
				</g>
			</g>
		</g>
	</g>
	<g>
		<defs>
			<rect id="SVGID_175_" x="482.3" y="648.8" width="113.1" height="113.1"/>
		</defs>
		<clipPath id="SVGID_176_">
			<use xlink:href="#SVGID_175_"  style="overflow:visible;"/>
		</clipPath>
		<g class="st136">
			<g>
				<defs>
					<rect id="SVGID_177_" x="482.3" y="648.8" width="113.1" height="113.1"/>
				</defs>
				<clipPath id="SVGID_178_">
					<use xlink:href="#SVGID_177_"  style="overflow:visible;"/>
				</clipPath>
				<g class="st137">
					<path d="M535.3,737.2c0,0-27-24-26.9-40.3s23.5-25.7,28.7-3.2l1.2,46.2L535.3,737.2z"/>
					<path class="st19" d="M535.3,737.2c0,0-27-24-26.9-40.3s23.5-25.7,28.7-3.2l1.2,46.2L535.3,737.2z"/>
					<path d="M541.9,737.2c0,0,26.6-25.4,25.4-41.7s-26.3-24.3-30.2-1.6l1.8,46.2L541.9,737.2z"/>
					<path class="st19" d="M541.9,737.2c0,0,26.6-25.4,25.4-41.7s-26.3-24.3-30.2-1.6l1.8,46.2L541.9,737.2z"/>
					<path d="M559.8,688.2c9.9-19.5,7.7-26.1,4.8-27s-12.6,10.8-13.4,25.1c0.6,0,1.2,0.1,1.7,0.4h0.4c2,0.1,4,0.6,5.9,1.4
						C559.4,688.1,559.6,688.1,559.8,688.2"/>
					<path d="M580.6,670.7c-3.3-2.8-19.2,15.1-20.7,17.4l0.4,0.2c0.7,0.4,1.2,0.9,1.5,1.6c1.5,1.3,2.7,2.9,3.5,4.7
						C581.3,681.7,582.7,672,580.6,670.7"/>
				</g>
			</g>
		</g>
	</g>
	<g>
		<defs>
			<rect id="SVGID_179_" x="602.2" y="653.7" width="103.3" height="103.3"/>
		</defs>
		<clipPath id="SVGID_180_">
			<use xlink:href="#SVGID_179_"  style="overflow:visible;"/>
		</clipPath>
		<g class="st138">
			<g>
				<defs>
					<rect id="SVGID_181_" x="602.2" y="653.7" width="103.3" height="103.3"/>
				</defs>
				<clipPath id="SVGID_182_">
					<use xlink:href="#SVGID_181_"  style="overflow:visible;"/>
				</clipPath>
				<g class="st139">
					<path d="M687.9,680.4l-11.8,5.7v-5c0-3.7-3-6.7-6.7-6.7h-38.2c-3.7,0-6.7,3-6.7,6.7v24.4c0,3.7,3,6.7,6.7,6.7h38.2
						c3.7,0,6.7-3,6.7-6.7V700l11.8,4.4V680.4z"/>
					<path class="st140" d="M687.9,680.4l-11.8,5.7v-5c0-3.7-3-6.7-6.7-6.7h-38.2c-3.7,0-6.7,3-6.7,6.7v24.4c0,3.7,3,6.7,6.7,6.7
						h38.2c3.7,0,6.7-3,6.7-6.7V700l11.8,4.4V680.4z"/>
					<path d="M649.9,677.5c-1.4-20-6.2-24.1-9-23.4s-4.8,14.3,1.3,26c0.5-0.3,1-0.5,1.5-0.5l0.3-0.2c1.6-0.9,3.4-1.4,5.3-1.7
						C649.5,677.6,649.7,677.6,649.9,677.5"/>
					<path d="M661.4,654c-3.9-0.6-8,20.9-8.1,23.4h0.4c0.7,0,1.4,0.2,1.9,0.5c1.8,0.3,3.5,1,5,2C667.1,662.2,663.7,654,661.4,654"/>
					<line class="st141" x1="643.9" y1="711.8" x2="635.2" y2="745.3"/>
					<line class="st141" x1="658.7" y1="712.3" x2="666.2" y2="745.3"/>
				</g>
			</g>
		</g>
	</g>
	<g>
		<defs>
			<rect id="SVGID_183_" x="711.8" y="648.3" width="114.1" height="114.1"/>
		</defs>
		<clipPath id="SVGID_184_">
			<use xlink:href="#SVGID_183_"  style="overflow:visible;"/>
		</clipPath>
		<g class="st142">
			<rect x="744.9" y="663.9" width="54.8" height="11.4"/>
			<path d="M799.3,675h-54v-10.7h54V675z M800,663.6h-55.5v12.2H800L800,663.6z"/>
			<rect x="744.9" y="674.6" width="3.8" height="47.9"/>
			<path d="M748.3,722.1h-3V675h3V722.1z M749,674.2h-4.6v48.7h4.6V674.2z"/>
			<rect x="795.8" y="673.8" width="3.8" height="47.9"/>
			<path d="M799.3,721.3h-3v-47.2h3V721.3z M800,673.4h-4.6v48.7h4.5L800,673.4z"/>
			<g>
				<defs>
					<rect id="SVGID_185_" x="711.8" y="648.3" width="114.1" height="114.1"/>
				</defs>
				<clipPath id="SVGID_186_">
					<use xlink:href="#SVGID_185_"  style="overflow:visible;"/>
				</clipPath>
				<g class="st143">
					<path d="M740.4,731.6c-5.8,0-10.6-3.6-10.6-8s4.7-8,10.6-8s10.6,3.6,10.6,8S746.2,731.6,740.4,731.6"/>
					<path d="M740.4,716c5.6,0,10.2,3.4,10.2,7.6s-4.6,7.6-10.2,7.6s-10.2-3.4-10.2-7.6S734.8,716,740.4,716 M740.4,715.2
						c-6,0-10.9,3.7-10.9,8.4s4.9,8.4,10.9,8.4s10.9-3.7,10.9-8.4S746.4,715.2,740.4,715.2"/>
					<path d="M791.3,731.9c-5.8,0-10.6-3.6-10.6-8s4.7-8,10.6-8s10.6,3.6,10.6,8S797.2,731.9,791.3,731.9"/>
					<path d="M791.3,716.3c5.6,0,10.2,3.4,10.2,7.6s-4.6,7.6-10.2,7.6s-10.2-3.4-10.2-7.6S785.7,716.3,791.3,716.3 M791.3,715.6
						c-6,0-10.9,3.8-10.9,8.4s4.9,8.4,10.9,8.4s11-3.8,11-8.4S797.4,715.6,791.3,715.6"/>
					<path d="M786.4,719.7c-5.5-11.9-9.4-13.3-11-12.3s0.4,9.9,6.8,15.6c0.2-0.3,0.5-0.5,0.8-0.7l0.2-0.2c0.8-0.9,1.8-1.7,2.8-2.3
						C786.2,719.9,786.3,719.8,786.4,719.7"/>
					<path d="M783.7,702.6c-2.4,0.9,2,14.5,2.8,16l0.2-0.1c0.4-0.2,0.8-0.3,1.3-0.3c1.1-0.4,2.3-0.5,3.5-0.4
						C789.5,705.5,785,701.9,783.7,702.6"/>
					<path d="M737.5,719.2c-1.9-13-5.3-15.5-7-14.9s-2.5,9.6,2.1,16.9c0.3-0.2,0.6-0.3,1-0.4l0.2-0.1c1-0.7,2.2-1.1,3.4-1.4
						L737.5,719.2"/>
					<path d="M739.7,702c-2.6,0.2-2.2,14.5-1.9,16.1l0.3-0.1c0.4-0.1,0.9-0.1,1.3,0.1c1.2,0,2.4,0.2,3.5,0.6
						C744.5,706.5,741.1,701.8,739.7,702"/>
				</g>
			</g>
		</g>
	</g>
	<g>
		<defs>
			<rect id="SVGID_187_" x="831" y="650.2" width="110.3" height="110.3"/>
		</defs>
		<clipPath id="SVGID_188_">
			<use xlink:href="#SVGID_187_"  style="overflow:visible;"/>
		</clipPath>
		<g class="st144">
			<g>
				<defs>
					<rect id="SVGID_189_" x="831" y="650.2" width="110.3" height="110.3"/>
				</defs>
				<clipPath id="SVGID_190_">
					<use xlink:href="#SVGID_189_"  style="overflow:visible;"/>
				</clipPath>
				<g class="st145">
					<path d="M879.2,702.3c-3.1-5.8-2-12.6-0.7-13s3.8,1.7,4.4,11.6h1.7c0-1,2-12,4-11.7c1.1,0,2.8,4.1-0.4,13
						c2.2,1.4,5.8,9.1-4.5,9S876.8,704.3,879.2,702.3"/>
					<path class="st16" d="M869.2,714.9c-5.1-9.6-5.1-21,0-29.3"/>
					<path class="st16" d="M862,723c-7.5-13.9-7.5-30.7,0-42.7"/>
					<path class="st16" d="M854.1,730.1c-10-18.6-10-41,0-57"/>
					<path class="st16" d="M898.4,715.2c5.1-9.6,5.1-21,0-29.3"/>
					<path class="st16" d="M905.6,723.3c7.5-13.9,7.5-30.7,0-42.7"/>
					<path class="st16" d="M913.5,730.3c10-18.6,10-41,0-57"/>
				</g>
			</g>
		</g>
	</g>
	<g>
		<defs>
			<rect id="SVGID_191_" x="946.1" y="650.2" width="105.5" height="105.5"/>
		</defs>
		<clipPath id="SVGID_192_">
			<use xlink:href="#SVGID_191_"  style="overflow:visible;"/>
		</clipPath>
		<g class="st146">
			<g>
				<defs>
					<rect id="SVGID_193_" x="946.1" y="650.2" width="105.5" height="105.5"/>
				</defs>
				<clipPath id="SVGID_194_">
					<use xlink:href="#SVGID_193_"  style="overflow:visible;"/>
				</clipPath>
				<g class="st147">
					<path d="M962.1,674.5h74.1c2.4,0,4.4,2,4.4,4.4v49.5c0,2.4-2,4.4-4.4,4.4h-74.1c-2.4,0-4.4-2-4.4-4.4v-49.5
						C957.7,676.5,959.7,674.5,962.1,674.5z"/>
					<path d="M1036.2,674.8c2.3,0,4.1,1.8,4.1,4.1v49.5c0,2.3-1.8,4.1-4.1,4.1h-74.1c-2.3,0-4.1-1.8-4.1-4.1c0,0,0,0,0,0v-49.5
						c0-2.3,1.8-4.1,4.1-4.1c0,0,0,0,0,0H1036.2 M1036.2,674.1h-74.1c-2.6,0-4.8,2.1-4.8,4.8v0v49.5c0,2.6,2.1,4.8,4.8,4.8h0h74.1
						c2.6,0,4.8-2.1,4.8-4.8c0,0,0,0,0,0v-49.5C1041,676.3,1038.9,674.1,1036.2,674.1C1036.2,674.1,1036.2,674.1,1036.2,674.1"/>
					<polygon class="st5" points="956.6,684.7 998.8,702.4 1041,684.7 1041,690.1 998.8,708.4 956.6,690.2 					"/>
					<path class="st5" d="M995.6,702.5c-2.1-3.9-1.4-8.5-0.5-8.8s2.5,1.2,3,7.9h1.2c0-0.7,1.4-8.1,2.7-7.9c0.8,0,1.9,2.8-0.3,8.8
						c1.5,0.9,3.9,6.2-3.1,6.1S994,703.9,995.6,702.5"/>
				</g>
			</g>
		</g>
	</g>
	<g>
		<defs>
			<rect id="SVGID_195_" x="1059.4" y="648.5" width="108.9" height="108.9"/>
		</defs>
		<clipPath id="SVGID_196_">
			<use xlink:href="#SVGID_195_"  style="overflow:visible;"/>
		</clipPath>
		<g class="st148">
			<g>
				<defs>
					<rect id="SVGID_197_" x="1059.4" y="648.5" width="108.9" height="108.9"/>
				</defs>
				<clipPath id="SVGID_198_">
					<use xlink:href="#SVGID_197_"  style="overflow:visible;"/>
				</clipPath>
				<g class="st149">
					<path d="M1089.3,661.2h49.7c2.7,0,4.9,2.2,4.9,4.9V742c0,2.7-2.2,4.9-4.9,4.9h-49.7c-2.7,0-4.9-2.2-4.9-4.9v-75.9
						C1084.4,663.4,1086.6,661.2,1089.3,661.2z"/>
					<path d="M1139.1,661.6c2.5,0,4.6,2,4.6,4.5c0,0,0,0,0,0V742c0,2.5-2,4.5-4.6,4.5h-49.7c-2.5,0-4.5-2-4.6-4.5v-75.9
						c0-2.5,2-4.6,4.6-4.5H1139.1 M1139.1,660.9h-49.7c-2.9,0-5.3,2.3-5.3,5.3c0,0,0,0,0,0V742c0,2.9,2.4,5.3,5.3,5.3c0,0,0,0,0,0
						h49.7c2.9,0,5.3-2.3,5.3-5.3c0,0,0,0,0,0v-75.9C1144.3,663.2,1142,660.9,1139.1,660.9C1139.1,660.8,1139.1,660.8,1139.1,660.9"
						/>
					<path class="st5" d="M1093,663.9h43.2c2.7,0,4.9,2.2,4.9,4.9v55.8c0,2.7-2.2,4.9-4.9,4.9H1093c-2.7,0-4.9-2.2-4.9-4.9v-55.8
						C1088.1,666.1,1090.2,663.9,1093,663.9z"/>
					<path d="M1136.2,664.2c2.5,0,4.6,2,4.6,4.5c0,0,0,0,0,0v55.8c0,2.5-2,4.5-4.6,4.5l0,0H1093c-2.5,0-4.6-2-4.6-4.5c0,0,0,0,0,0
						v-55.8c0-2.5,2-4.5,4.6-4.5l0,0L1136.2,664.2 M1136.2,663.5H1093c-2.9,0-5.3,2.3-5.3,5.3c0,0,0,0,0,0v55.8
						c0,2.9,2.4,5.3,5.3,5.3c0,0,0,0,0,0h43.2c2.9,0,5.3-2.4,5.3-5.3v-55.8C1141.5,665.9,1139.1,663.5,1136.2,663.5"/>
					<path class="st5" d="M1111.6,739.3c-1.7-3.2-1.1-6.9-0.4-7.1s2,0.9,2.4,6.3h0.9c0-0.6,1.1-6.5,2.2-6.3c0.6,0,1.5,2.2-0.2,7.1
						c1.2,0.8,3.2,5-2.5,4.9S1110.3,740.4,1111.6,739.3"/>
				</g>
			</g>
		</g>
	</g>
	<path d="M268.3,679.4h82.3c3.1,0,5.7,2.5,5.7,5.7v38c0,3.1-2.5,5.7-5.7,5.7h-82.3c-3.1,0-5.7-2.5-5.7-5.7v-38
		C262.6,681.9,265.2,679.4,268.3,679.4z"/>
	<path d="M350.6,679.9c2.9,0,5.2,2.3,5.2,5.2v38c0,2.9-2.3,5.2-5.2,5.2h-82.3c-2.9,0-5.2-2.3-5.2-5.2v-38c0-2.9,2.3-5.2,5.2-5.2
		H350.6 M350.6,678.9h-82.3c-3.4,0-6.2,2.8-6.2,6.2l0,0v38c0,3.4,2.8,6.2,6.2,6.2h82.3c3.4,0,6.2-2.8,6.2-6.2v-38
		C356.8,681.6,354.1,678.9,350.6,678.9L350.6,678.9z"/>
	<path class="st5" d="M277.7,713.7c-2-3.8-1.4-8.3-0.5-8.5s2.5,1.1,2.9,7.6h1.1c0-0.7,1.4-7.8,2.6-7.7c0.7,0,1.9,2.7-0.3,8.5
		c1.5,0.9,3.8,6-3,5.9S276.1,715,277.7,713.7z"/>
	<path class="st150" d="M262.1,690.8c5.2,3.8,11.2,8.1,15.6,8.1s11.4-9.6,15.7-9.6s13.9,9.6,18.2,9.6s12.3-9.6,16.1-9.6
		s9.4,9.6,13.1,9.6s13.3-9.6,15.9-9.6"/>
	<path class="st5" d="M308,713.7c-2-3.8-1.4-8.3-0.5-8.5s2.5,1.1,2.9,7.6h1.1c0-0.7,1.3-7.8,2.6-7.7c0.7,0,1.9,2.7-0.3,8.5
		c1.5,0.9,3.8,6-3,5.9S306.4,715,308,713.7z"/>
	<path class="st5" d="M337.5,713.7c-2-3.8-1.3-8.3-0.4-8.5s2.5,1.1,2.9,7.6h1.1c0-0.7,1.4-7.8,2.6-7.7c0.7,0,1.9,2.7-0.3,8.5
		c1.5,0.9,3.8,6-3,5.9S335.9,715,337.5,713.7z"/>
	<path d="M306.3,678.9c-5.9-7.8,4.5-11.6,3.2-17.9c4.8,11,5.9,17.9,1.4,17.9"/>
</g>
</svg>
