<svg xmlns="http://www.w3.org/2000/svg" viewBox="0 0 1190.55 841.89"><defs><style>.cls-1,.cls-10{fill:#fff;}.cls-1{opacity:0.7;}.cls-2,.cls-8{fill:none;}.cls-2{stroke:#dbdcdc;}.cls-11,.cls-12,.cls-2{stroke-miterlimit:10;}.cls-3{font-size:12px;fill:#231815;font-family:SeuratProN-DB, SeuratProN DB-83pv-RKSJ-H;}.cls-4{letter-spacing:0.25em;}.cls-5{fill:#ead5a9;}.cls-12,.cls-6{fill:#772a2a;}.cls-11,.cls-7{fill:#ead8a9;}.cls-9{fill:#771818;}.cls-11,.cls-12{stroke:#772a2a;}</style></defs><g id="レイヤー_5" data-name="レイヤー 5"><rect class="cls-1" width="1190.55" height="841.89"/></g><g id="テンプレート"><rect class="cls-2" x="28.83" y="87.3" width="100" height="100"/><rect class="cls-2" x="143.83" y="87.3" width="100" height="100"/><rect class="cls-2" x="258.83" y="87.3" width="100" height="100"/><rect class="cls-2" x="373.83" y="87.3" width="100" height="100"/><rect class="cls-2" x="488.83" y="87.3" width="100" height="100"/><rect class="cls-2" x="603.83" y="87.3" width="100" height="100"/><rect class="cls-2" x="718.83" y="87.3" width="100" height="100"/><rect class="cls-2" x="833.83" y="87.3" width="100" height="100"/><rect class="cls-2" x="948.83" y="87.3" width="100" height="100"/><rect class="cls-2" x="1063.83" y="87.3" width="100" height="100"/><rect class="cls-2" x="28.83" y="228.07" width="100" height="100"/><rect class="cls-2" x="143.83" y="228.07" width="100" height="100"/><rect class="cls-2" x="258.83" y="228.07" width="100" height="100"/><rect class="cls-2" x="373.83" y="228.07" width="100" height="100"/><rect class="cls-2" x="488.83" y="228.07" width="100" height="100"/><rect class="cls-2" x="603.83" y="228.07" width="100" height="100"/><rect class="cls-2" x="718.83" y="228.07" width="100" height="100"/><rect class="cls-2" x="833.83" y="228.07" width="100" height="100"/><rect class="cls-2" x="948.83" y="228.07" width="100" height="100"/><rect class="cls-2" x="1063.83" y="228.07" width="100" height="100"/><rect class="cls-2" x="28.83" y="368.84" width="100" height="100"/><rect class="cls-2" x="143.83" y="368.84" width="100" height="100"/><rect class="cls-2" x="258.83" y="368.84" width="100" height="100"/><rect class="cls-2" x="373.83" y="368.84" width="100" height="100"/><rect class="cls-2" x="488.83" y="368.84" width="100" height="100"/><rect class="cls-2" x="603.83" y="368.84" width="100" height="100"/><rect class="cls-2" x="718.83" y="368.84" width="100" height="100"/><rect class="cls-2" x="833.83" y="368.84" width="100" height="100"/><rect class="cls-2" x="948.83" y="368.84" width="100" height="100"/><rect class="cls-2" x="1063.83" y="368.84" width="100" height="100"/><rect class="cls-2" x="28.83" y="509.61" width="100" height="100"/><rect class="cls-2" x="143.83" y="509.61" width="100" height="100"/><rect class="cls-2" x="258.83" y="509.61" width="100" height="100"/><rect class="cls-2" x="373.83" y="509.61" width="100" height="100"/><rect class="cls-2" x="488.83" y="509.61" width="100" height="100"/><rect class="cls-2" x="603.83" y="509.61" width="100" height="100"/><rect class="cls-2" x="718.83" y="509.61" width="100" height="100"/><rect class="cls-2" x="833.83" y="509.61" width="100" height="100"/><rect class="cls-2" x="948.83" y="509.61" width="100" height="100"/><rect class="cls-2" x="1063.83" y="509.61" width="100" height="100"/><rect class="cls-2" x="28.83" y="650.38" width="100" height="100"/><rect class="cls-2" x="143.83" y="650.38" width="100" height="100"/><rect class="cls-2" x="258.83" y="650.38" width="100" height="100"/><rect class="cls-2" x="373.83" y="650.38" width="100" height="100"/><rect class="cls-2" x="488.83" y="650.38" width="100" height="100"/><rect class="cls-2" x="603.83" y="650.38" width="100" height="100"/><rect class="cls-2" x="718.83" y="650.38" width="100" height="100"/><rect class="cls-2" x="833.83" y="650.38" width="100" height="100"/><rect class="cls-2" x="948.83" y="650.38" width="100" height="100"/><rect class="cls-2" x="1063.83" y="650.38" width="100" height="100"/></g><g id="アイコン名"><g id="アイコン名5"><text class="cls-3" transform="translate(287.33 773.98)">ひので</text><text class="cls-3" transform="translate(590.52 773.62)">くりすますのくつした</text><text class="cls-3" transform="translate(735.25 773.64)">ゆきだるま</text><text class="cls-3" transform="translate(178.29 773.98)">ほね</text><text class="cls-3" transform="translate(1087.35 773.56)">ろうそく</text><text class="cls-3" transform="translate(858.48 773.56)">とらんぷ</text><text class="cls-3" transform="translate(403.13 773.98)">うきわ</text><text class="cls-3" transform="translate(516.6 773.56)">ふうせん</text><text class="cls-3" transform="translate(47.17 773.64)">たいおんけい</text><text class="cls-3" transform="translate(971.34 773.56)">やきゅう</text></g><g id="アイコン名4"><text class="cls-3" transform="translate(66.83 633)">ふで</text><text class="cls-3" transform="translate(865.83 633)">でんわ</text><text class="cls-3" transform="translate(753.25 633)">ちず</text><text class="cls-3" transform="translate(280.18 633)">がびょう</text><text class="cls-3" transform="translate(512.88 633)">おん<tspan class="cls-4" x="24" y="0">ぷ</tspan><tspan x="39" y="0">1</tspan></text><text class="cls-3" transform="translate(627.71 633)">おん<tspan class="cls-4" x="24" y="0">ぷ</tspan><tspan x="39" y="0">2</tspan></text><text class="cls-3" transform="translate(166.29 633)">えんぴつ</text><text class="cls-3" transform="translate(971.34 633)">おくすり</text><text class="cls-3" transform="translate(1105.35 633)">は</text><text class="cls-3" transform="translate(402.02 633)">はさみ</text></g><g id="アイコン名3"><text class="cls-3" transform="translate(493.19 493.99)">おやつのじかん</text><text class="cls-3" transform="translate(60.95 493.26)">ぴーす</text><text class="cls-3" transform="translate(977.34 492.64)">てがみ</text><text class="cls-3" transform="translate(1099.35 493.62)">ほん</text><text class="cls-3" transform="translate(172.29 493.62)">てとて</text><text class="cls-3" transform="translate(870.48 493.62)">かぎ</text><text class="cls-3" transform="translate(390.69 493.62)">でんきゅう</text><text class="cls-3" transform="translate(632.52 493.26)">まいく</text><text class="cls-3" transform="translate(288.37 493.5)">かめら</text><text class="cls-3" transform="translate(732.97 492.64)"><tspan xml:space="preserve"> すなどけい</tspan></text></g><g id="アイコン名2"><text class="cls-3" transform="translate(1098.59 353.87)">ぱー</text><text class="cls-3" transform="translate(54.53 352.78)">ねくたい</text><text class="cls-3" transform="translate(753.67 353.12)">かさ</text><text class="cls-3" transform="translate(172.29 352.78)">かばん</text><text class="cls-3" transform="translate(632.52 351.8)">ゆびわ</text><text class="cls-3" transform="translate(870.49 353.12)">ひげ</text><text class="cls-3" transform="translate(508.47 351.96)">くりーむ</text><text class="cls-3" transform="translate(402.69 353.12)">りっぷ</text><text class="cls-3" transform="translate(263.49 352.78)">がまぐちさいふ</text><text class="cls-3" transform="translate(977.34 352.78)">めがね</text></g><g id="アイコン名1"><text class="cls-3" transform="translate(632.52 208.19)">みとん</text><text class="cls-3" transform="translate(516.6 209.63)">まふらー</text><text class="cls-3" transform="translate(286.18 209.54)">りぼん</text><text class="cls-3" transform="translate(741.67 210.3)">くつした</text><text class="cls-3" transform="translate(852.49 210.48)">すにーかー</text><text class="cls-3" transform="translate(978.74 210.65)">ぶーつ</text><text class="cls-3" transform="translate(1097.66 210.3)">ひーる</text><text class="cls-3" transform="translate(55.15 208.85)">おうかん</text><text class="cls-3" transform="translate(150.79 209.63)">　はっとぼう</text><text class="cls-3" transform="translate(389.3 209.72)"><tspan xml:space="preserve"> わんぴーす</tspan></text></g></g><g id="アイコン"><g id="_5段目" data-name="5段目"><g id="ろうそく"><rect class="cls-5" x="1103.56" y="691.77" width="23.22" height="50.66" rx="6"/><path class="cls-5" d="M1104.17,721.79c-6.41,0,0-19.45,0-19.45S1110.58,721.79,1104.17,721.79Z"/><path class="cls-5" d="M1126.77,738.91c-6.41,0,0-19.46,0-19.46S1133.18,738.91,1126.77,738.91Z"/><path class="cls-5" d="M1126.32,708.07c-3.78,0,0-11.47,0-11.47S1130.1,708.07,1126.32,708.07Z"/><path class="cls-5" d="M1103.56,737.82c-3.21,0,0-9.73,0-9.73S1106.76,737.82,1103.56,737.82Z"/><path class="cls-6" d="M1115.83,689.19c-27.64,0,0-29.37,0-29.37S1141.84,689.19,1115.83,689.19Z"/><path class="cls-5" d="M1115.64,687.8c-12.52,0,0-13.29,0-13.29S1127.41,687.8,1115.64,687.8Z"/></g><g id="やきゅう"><circle class="cls-7" cx="992.74" cy="678.74" r="6.63"/><ellipse class="cls-6" cx="989.45" cy="678.89" rx="1.92" ry="5.37"/><ellipse class="cls-6" cx="995.97" cy="678.74" rx="1.92" ry="5.37"/><ellipse class="cls-7" cx="996.43" cy="678.74" rx="1.45" ry="5.37"/><ellipse class="cls-7" cx="988.98" cy="678.89" rx="1.45" ry="5.37"/><path class="cls-7" d="M988.35,712l29.82-44s5.57-8.2,10.49-4.67-1.39,11.51-1.39,11.51L994.9,716.64Z"/><rect class="cls-7" x="979.7" y="721.91" width="8.49" height="6.58" transform="translate(606.25 -437.31) rotate(35.61)"/><path class="cls-7" d="M980.5,722.72l-3.73,5.21s-3.77.84-5,2.61,4.28,5.75,4.28,5.75,5.54,4,6.81,2.2.61-5.27.61-5.27l2.06-2.88,1.91-2.67Z"/><rect class="cls-7" x="985.4" y="715.04" width="8.49" height="4.4" transform="translate(602.68 -442.11) rotate(35.61)"/><rect class="cls-7" x="983.64" y="717.5" width="8.49" height="4.4" transform="translate(603.79 -440.62) rotate(35.61)"/><rect class="cls-6" x="984.54" y="716.24" width="8.49" height="4.4" transform="translate(603.22 -441.39) rotate(35.61)"/></g><g id="とらんぷ"><path class="cls-5" d="M922.19,678.77l-22-5.41v56.28a4,4,0,0,1-4,4H873.06l33.58,8.27a4,4,0,0,0,4.84-2.93l13.64-55.37A4,4,0,0,0,922.19,678.77Z"/><polygon class="cls-6" points="900.24 712.68 908.76 707.77 900.58 693.59 900.24 693.79 900.24 712.68"/><rect class="cls-5" x="853.9" y="666.17" width="43.35" height="65.03" rx="4"/><circle class="cls-6" cx="880.79" cy="695.63" r="5.5"/><polyline class="cls-6" points="884.98 699.21 875.91 708.42 866.7 699.35"/><circle class="cls-6" cx="870.83" cy="695.64" r="5.54"/><ellipse class="cls-6" cx="876.52" cy="698.59" rx="2.15" ry="1.64" transform="translate(-236.24 833) rotate(-45.44)"/><circle class="cls-6" cx="863.55" cy="672.46" r="2.27"/><polyline class="cls-6" points="865.28 673.93 861.54 677.73 857.74 673.99"/><circle class="cls-6" cx="859.45" cy="672.47" r="2.29"/><ellipse class="cls-6" cx="861.79" cy="673.68" rx="0.89" ry="0.68" transform="translate(-222.89 815.07) rotate(-45.44)"/></g><g id="ゆきだるま"><circle class="cls-7" cx="768.57" cy="690.08" r="16.79"/><circle class="cls-7" cx="768.57" cy="719.32" r="23.11"/><polygon class="cls-6" points="768.21 675.54 780.32 681.5 784.27 668.9 775.45 665.06 768.21 675.54"/><circle class="cls-6" cx="764.37" cy="686.38" r="0.87"/><circle class="cls-6" cx="674.26" cy="660.95" r="0.13"/><circle class="cls-6" cx="772.63" cy="687.1" r="0.85"/><polygon class="cls-6" points="768.57 689.05 762.47 690.38 768.57 692.2 768.57 689.05"/><rect class="cls-6" x="764.38" y="707.6" width="1.92" height="1.92"/><rect class="cls-6" x="764.38" y="711.93" width="1.92" height="1.92"/><rect class="cls-6" x="764.38" y="716.26" width="1.92" height="1.92"/></g><g id="くりすますのくつした"><path class="cls-6" d="M641.67,676.62h34.65a4,4,0,0,1,4,4v38.65a0,0,0,0,1,0,0H637.67a0,0,0,0,1,0,0V680.62A4,4,0,0,1,641.67,676.62Z"/><ellipse class="cls-6" cx="637.35" cy="719.26" rx="21.64" ry="18.93"/><path class="cls-6" d="M637.67,693.06h42.65a0,0,0,0,1,0,0v32.13a13,13,0,0,1-13,13H637.67a0,0,0,0,1,0,0V693.06A0,0,0,0,1,637.67,693.06Z"/><rect class="cls-7" x="637.67" y="663.58" width="42.65" height="10.75" rx="3"/></g><g id="ふうせん"><path class="cls-7" d="M508,743.37h0l2.4,3s8.34-13.62,12.47-16.89,11.55,1.21,17.59-3.57,6-24.72,6-24.72l-3-.81s-.93,20.18-4.79,23.24-14.75.48-18.13,3.16S508,743.37,508,743.37Z"/><ellipse class="cls-6" cx="547.63" cy="684.27" rx="21.54" ry="20.27" transform="translate(-259.09 1026.79) rotate(-74.33)"/></g><g id="うきわ"><path class="cls-8" d="M430.24,692.73a13,13,0,0,0-17.88,10.79c0,.41-.06.82-.06,1.23A13,13,0,0,0,438,707.59l.09-.42a12.81,12.81,0,0,0,.23-2.42A13,13,0,0,0,430.24,692.73Z"/><path class="cls-7" d="M438.3,704.75a12.81,12.81,0,0,1-.23,2.42l26.15,10.44a40.72,40.72,0,0,0,.64-23.58l-26.63,9a12.82,12.82,0,0,0-4.48-8.29l22.35-17a40.75,40.75,0,0,0-21.17-12.71l-4.69,27.66A13,13,0,0,1,438.3,704.75Z"/><path class="cls-7" d="M420.76,692.58,416.45,665a40.79,40.79,0,0,0-22.12,13.48l22.34,16.59A13,13,0,0,1,420.76,692.58Z"/><path class="cls-7" d="M417.24,714.94l-22.37,16.69a35.41,35.41,0,0,1-5.13-7.54,35.9,35.9,0,0,1-3.43-8.85l26.14-8.61a12.89,12.89,0,0,1-.15-1.88c0-.41,0-.82.06-1.23l-26.43-8.63a40.79,40.79,0,0,0,29.64,49.42l4.68-27.58A13,13,0,0,1,417.24,714.94Z"/><path class="cls-7" d="M436.43,711.68a13.6,13.6,0,0,0,1.55-4.09,13,13,0,0,1-8.23,9.36L434,744.46a35.33,35.33,0,0,1-9.06,1c-.9,0-1.75,0-2.54-.07,1,.07,2,.12,3.07.12a40.67,40.67,0,0,0,29.08-12.19l-21.33-18.06A13.69,13.69,0,0,0,436.43,711.68Z"/><path class="cls-9" d="M425.3,691.75a12.88,12.88,0,0,1,4.94,1l4.69-27.66h0a40.82,40.82,0,0,0-18.48-.08h0l4.31,27.6A12.88,12.88,0,0,1,425.3,691.75Z"/><path class="cls-9" d="M434,744.46,429.75,717a12.9,12.9,0,0,1-9.5-.22l-4.68,27.58v.07a32.84,32.84,0,0,0,6.88,1c.79,0,1.64.07,2.54.07A35.33,35.33,0,0,0,434,744.46Z"/><path class="cls-9" d="M436.78,698.5a13.55,13.55,0,0,1,1.45,4.57l26.63-9,.05,0a40.75,40.75,0,0,0-8.71-16.3l-.1.07-22.35,17A13.59,13.59,0,0,1,436.78,698.5Z"/><path class="cls-9" d="M412.45,706.63l-26.14,8.61a35.9,35.9,0,0,0,3.43,8.85,35.41,35.41,0,0,0,5.13,7.54l22.37-16.69A13,13,0,0,1,412.45,706.63Z"/><path class="cls-9" d="M438.07,707.17l-.09.42a12.82,12.82,0,0,1-4.72,7.69l21.33,18.06.17.15a40.83,40.83,0,0,0,9.49-15.87h0Z"/><path class="cls-9" d="M416.67,695.05l-22.34-16.59-.09-.06a40.88,40.88,0,0,0-8.45,16.44l.14,0,26.43,8.63A13,13,0,0,1,416.67,695.05Z"/></g><g id="ひので"><path class="cls-6" d="M292.17,674.79H327a4,4,0,0,1,4,4v10.29a0,0,0,0,1,0,0H288.17a0,0,0,0,1,0,0V678.79A4,4,0,0,1,292.17,674.79Z"/><path class="cls-6" d="M275.38,737.86s11.2-32.77,11.75-42.83,3.55-11.41,3.55-11.41h38.37s2.07.86,3.55,11.41,13.32,42.83,13.32,42.83Z"/><ellipse class="cls-7" cx="309.61" cy="689.11" rx="5.33" ry="6.03"/><ellipse class="cls-7" cx="301.84" cy="689.11" rx="5.33" ry="6.03"/><ellipse class="cls-7" cx="292.97" cy="688.93" rx="5.33" ry="6.03"/><ellipse class="cls-7" cx="326.24" cy="688.93" rx="5.33" ry="6.03"/><ellipse class="cls-7" cx="317.77" cy="688.93" rx="5.33" ry="6.03"/><path class="cls-7" d="M291.65,673.66h35.92a4,4,0,0,1,4,4V688.3a0,0,0,0,1,0,0H287.65a0,0,0,0,1,0,0V677.66A4,4,0,0,1,291.65,673.66Z"/><circle class="cls-6" cx="327.49" cy="670.17" r="13.45"/></g><g id="ほね"><rect class="cls-6" x="164.41" y="699.83" width="51.2" height="18.01"/><ellipse class="cls-6" cx="167.11" cy="699.83" rx="9.89" ry="11.49" transform="translate(-445.91 323.14) rotate(-45)"/><ellipse class="cls-6" cx="167.11" cy="715.72" rx="11.49" ry="9.89" transform="translate(-358.33 201.82) rotate(-32.49)"/><ellipse class="cls-6" cx="219.04" cy="699.48" rx="12.5" ry="10.06" transform="translate(-243.43 130.82) rotate(-21.73)"/><ellipse class="cls-6" cx="219.04" cy="714.94" rx="9.85" ry="12.76" transform="translate(-528.5 732.16) rotate(-74.29)"/></g><g id="たいおんけい"><rect class="cls-5" x="76.71" y="668.91" width="15.49" height="58.27" rx="4" transform="translate(646.93 276.12) rotate(60.02)"/><ellipse class="cls-6" cx="52.2" cy="716.73" rx="4.76" ry="3.72" transform="translate(-351.12 121.96) rotate(-29.98)"/><rect class="cls-5" x="53.97" y="708.65" width="7.44" height="9.82" transform="translate(646.98 307.07) rotate(60.02)"/><rect class="cls-6" x="83.96" y="682.95" width="8.03" height="26.14" rx="2" transform="translate(646.94 272.05) rotate(60.02)"/><rect class="cls-6" x="97.64" y="685.49" width="15.49" height="0.97" transform="translate(646.95 251.95) rotate(60.02)"/></g></g><g id="_4段目" data-name="4段目"><g id="は"><path class="cls-7" d="M1137.76,528.7c-9.31,0-12.56,3.89-22.67,3.89s-5.89-3.89-22.67-3.89c-9.45,0-9.82,5.4-9.82,10.27s9.82,39.16,9.82,42.74-6,16.21,0,16.06,18.49-9.62,23-9.62,14.91,9.62,22.3,9.62,0-12,0-15.28,8.85-37.48,8.85-43.52S1144.13,528.7,1137.76,528.7Z"/><rect class="cls-6" x="1102.02" y="537.11" width="25.16" height="1.46" transform="translate(90.01 -156.29) rotate(8.36)"/><rect class="cls-6" x="1102.02" y="537.11" width="25.16" height="1.46" transform="matrix(0.99, -0.16, 0.16, 0.99, -72.84, 189.13)"/></g><g id="おくすり"><rect class="cls-6" x="983.14" y="523.64" width="34.19" height="14.63" rx="2"/><rect class="cls-6" x="983.14" y="540.12" width="34.19" height="4.35"/><rect class="cls-7" x="975.74" y="596.16" width="50.35" height="6.66" rx="3"/><polygon class="cls-7" points="1017.34 547.06 983.14 547.06 975.74 555.92 975.74 598.97 1026.1 598.97 1026.1 555.92 1017.34 547.06"/><rect class="cls-6" x="983.14" y="555.06" width="34.19" height="41.1"/><rect class="cls-7" x="996.81" y="564.75" width="6.85" height="21.73"/><rect class="cls-7" x="996.81" y="563.89" width="6.85" height="21.73" transform="translate(1575 -425.49) rotate(90)"/></g><g id="でんわ"><path class="cls-6" d="M897.51,553.13l-2.67-3a2.83,2.83,0,0,1-.45-2.21c.3-1.25.74-1.47.74-1.47l10.82-9a3.75,3.75,0,0,1,1.47-.37,6.46,6.46,0,0,1,1.9.49l3,3.69Z"/><path class="cls-6" d="M898.74,554.89l15-11.89a7.62,7.62,0,0,1,1.8,4.37c0,2.33-.62,11.63-19.54,29S864.11,590.25,862.32,590s-3.59-2.46-3.59-2.46l14.76-12s6.35-.81,15.66-8.08S898.74,554.89,898.74,554.89Z"/><path class="cls-6" d="M855.65,578.38l9.62-8.06a4.49,4.49,0,0,1,2.32-.78,1.91,1.91,0,0,1,1.71.93l2.79,3.49-15,11.61s-3.19-3.31-3-5.17A2,2,0,0,1,855.65,578.38Z"/></g><g id="ちず"><polygon class="cls-7" points="749.73 542.7 726.33 582.7 785.16 582.7 806.29 542.7 749.73 542.7"/><path class="cls-6" d="M739.42,560.32s6.75-2.15,9.88,0,.17,6.48,1.56,8.57,7.11-.7,11.62,4a12.73,12.73,0,0,1,3.83,9.82h-40Z"/><path class="cls-6" d="M775.85,542.69s-12.31,3.81-9.54,8.32,8.15,2.09,11.44,3.65.87,4.16,6.77,5.9S798.23,558,798.23,558l8.06-15.26Z"/><ellipse class="cls-10" cx="789.44" cy="546.57" rx="8.23" ry="2.83"/><path class="cls-6" d="M789.44,547.93s-8.68-13.66,0-13.66S789.44,547.93,789.44,547.93Z"/><circle class="cls-10" cx="789.44" cy="538.47" r="2.23"/></g><g id="おんぷ1"><rect class="cls-6" x="513.89" y="535.11" width="50.52" height="13.74"/><rect class="cls-6" x="513.89" y="537.92" width="8.56" height="36.32"/><rect class="cls-6" x="555.86" y="537.92" width="8.56" height="36.32"/><ellipse class="cls-6" cx="512.75" cy="579.36" rx="11.08" ry="9.56" transform="translate(-220.99 333.99) rotate(-30)"/><ellipse class="cls-6" cx="554.43" cy="579.36" rx="11.08" ry="9.56" transform="translate(-215.4 354.83) rotate(-30)"/></g><g id="おんぷ2"><rect class="cls-6" x="648.71" y="533.75" width="9.76" height="41.44"/><ellipse class="cls-6" cx="645.24" cy="581" rx="14.51" ry="12.03" transform="translate(-204.05 400.46) rotate(-30)"/><rect class="cls-6" x="648.71" y="529.37" width="4.05" height="10.59" rx="1.99"/><path class="cls-6" d="M651,529.37s6.66,1.63,16.89,8.29,11.92,10.68,11.92,10.68l-31.14-8.64Z"/></g><g id="がびょう"><path class="cls-7" d="M301.28,567.15l6.27,6.19s-18.76,14.21-19.5,13.48S301.28,567.15,301.28,567.15Z"/><rect class="cls-6" x="309.81" y="543.65" width="27.32" height="14.63" rx="2" transform="translate(480.23 -68.41) rotate(44.62)"/><rect class="cls-6" x="290.56" y="557.67" width="37.04" height="15.77" rx="4" transform="translate(486.33 -54.09) rotate(44.62)"/><rect class="cls-6" x="304.69" y="551.35" width="21.25" height="15.77" rx="5" transform="translate(483.69 -60.29) rotate(44.62)"/></g><g id="はさみ"><path class="cls-6" d="M436.94,526.64c-6.41-1.23-10.91,4.63-12.25,11.88s1.19,16.64,1.19,16.64-9.26,44.88-7,45.31,6.34-8.08,8.48-14.39,6.25-29.64,6.25-29.64c6,1.15,12.77-8.22,13.83-14S444.65,528.12,436.94,526.64Zm5.15,16.24c-.91,5-4.46,8.46-7.91,7.8s-5.51-5.23-4.59-10.2,4.46-8.47,7.91-7.8S443,537.91,442.09,542.88Z"/><path class="cls-6" d="M423.57,556.58s1.18-9.64-1.15-16.63-7.57-12.15-13.69-10c-7.37,2.55-9.94,11.64-8.1,17.16s9.8,13.85,15.53,11.87c0,0,7.3,22.5,10.28,28.45s8.18,13.79,10.33,13S423.57,556.58,423.57,556.58Zm-8.78-3.26c-3.3,1.14-7.27-1.82-8.86-6.61s-.22-9.6,3.08-10.74,7.27,1.82,8.87,6.61S418.09,552.18,414.79,553.32Z"/><circle class="cls-5" cx="425.51" cy="567.4" r="2.12"/></g><g id="えんぴつ"><polygon class="cls-7" points="182.1 586 179.55 588.76 163.63 596.83 170.63 580.06 172.8 577.72 182.1 586"/><path class="cls-6" d="M179.84,588.44,170.69,580l1.14-1.24L215.94,531a3.51,3.51,0,0,1,4.95-.2l4,3.69a3.52,3.52,0,0,1,.2,5Z"/><polygon class="cls-6" points="163.63 596.83 165.42 592.53 167.79 594.72 163.63 596.83"/></g><g id="ふで"><rect class="cls-6" x="63.71" y="567.51" width="4.26" height="12.39" transform="translate(-369.62 194.43) rotate(-42.4)"/><ellipse class="cls-7" cx="57.66" cy="581.54" rx="7.91" ry="8.65" transform="translate(-377.04 190.97) rotate(-42.4)"/><path class="cls-7" d="M44.89,593.09s3-28.91,16.07-14.45S44.89,593.09,44.89,593.09Z"/><path class="cls-6" d="M87.81,522.7h4a4,4,0,0,1,4,4v54.19a0,0,0,0,1,0,0h-12a0,0,0,0,1,0,0V526.7A4,4,0,0,1,87.81,522.7Z" transform="translate(436.75 113.39) rotate(47.6)"/><path class="cls-6" d="M44.58,593.37s1.51-7.66,2.57-10.77a4.52,4.52,0,0,0,.78,2.46c.75.81,3.09.63,4,1.61s.56,2.77,1.2,3.48,3.42,1.58,3.42,1.58-4.8,1-6.4,1.14S44.58,593.37,44.58,593.37Z"/></g></g><g id="_3段目" data-name="3段目"><g id="とけい"><circle class="cls-6" cx="540.6" cy="418.84" r="35.05"/><circle class="cls-7" cx="540.37" cy="418.84" r="30.35"/><path class="cls-6" d="M538.64,418.84v-25s.2-2.24,2.05-2.24,1.87,2.29,1.87,2.29v25Z"/><path class="cls-6" d="M540.6,417.43h20.09s1.8.17,1.8,1.73-1.84,1.59-1.84,1.59h-20Z"/><circle class="cls-6" cx="540.6" cy="418.84" r="1.9"/></g><g id="ぴーす"><ellipse class="cls-7" cx="77.53" cy="429.72" rx="22.22" ry="18.75" transform="translate(-19.14 3.9) rotate(-2.56)"/><path class="cls-7" d="M56.11,435s3,8.25,6.1,10.62,7.76,5.6,9,7.93,2.63,9,2.63,9h27.89s-4.15-13-4.41-16.64,2-8.11,2.26-11.89.38-10.42.38-10.42Z"/><ellipse class="cls-6" cx="73.83" cy="429.6" rx="9.08" ry="18.44" transform="translate(-352.72 339.8) rotate(-68.36)"/><ellipse class="cls-6" cx="82.37" cy="427.34" rx="18.44" ry="7.96" transform="translate(-328.9 285) rotate(-60)"/><ellipse class="cls-6" cx="88.51" cy="432.44" rx="18.44" ry="7.96" transform="matrix(0.5, -0.87, 0.87, 0.5, -330.25, 292.88)"/><ellipse class="cls-7" cx="67.94" cy="407.56" rx="6.22" ry="23.93" transform="translate(-156.19 60.45) rotate(-23.39)"/><ellipse class="cls-7" cx="80.74" cy="404.67" rx="23.93" ry="5.94" transform="translate(-331.78 414.51) rotate(-80.08)"/><ellipse class="cls-7" cx="71.83" cy="425.62" rx="10.11" ry="18.44" transform="translate(-342.82 305.72) rotate(-64.29)"/><ellipse class="cls-7" cx="82.37" cy="424.69" rx="18.44" ry="7.96" transform="translate(-326.61 283.68) rotate(-60)"/><ellipse class="cls-7" cx="89.48" cy="431.45" rx="18.44" ry="8.83" transform="translate(-338.08 324.93) rotate(-64.29)"/><path class="cls-6" d="M71.48,426s.53-2.86,3-2.38A9.33,9.33,0,0,1,78.82,426s1.65,1.41,1.33,3a2.66,2.66,0,0,1-2.67,2.2c-1.18.08-5-.55-5.5-1.57A3.76,3.76,0,0,1,71.48,426Z"/><path class="cls-6" d="M87.89,437.39a2.15,2.15,0,0,1,1,2.85,8,8,0,0,1-2.6,3s-1.34,1-2.37.49a2.13,2.13,0,0,1-.94-2.54c.2-1,1.46-3.84,2.29-4.08A2.4,2.4,0,0,1,87.89,437.39Z"/><path class="cls-6" d="M79.29,432s2.15,1,1.22,2.91a7.62,7.62,0,0,1-2.82,2.92s-1.47,1-2.64.42a2.18,2.18,0,0,1-1.15-2.6c.19-.95,1.51-3.82,2.44-4A3,3,0,0,1,79.29,432Z"/></g><g id="ほん"><polygon class="cls-11" points="1097.04 389.38 1140.41 389.38 1142.06 399.3 1090.35 399.3 1097.04 389.38"/><rect class="cls-6" x="1095.23" y="398.75" width="48.1" height="61.65"/><rect class="cls-6" x="1140.83" y="389.45" width="1.25" height="11.76" transform="translate(-48.74 188.85) rotate(-9.26)"/><rect class="cls-6" x="1093.22" y="398.1" width="50.11" height="20.44"/><path class="cls-6" d="M1096.39,460.4a12,12,0,0,1-4.09-.65,11.43,11.43,0,0,1-3.42-2.28V395.28c0-3.71,7.51-7.28,7.51-7.28h46.94v2.86h-42.61s-6.71,3.42-7.14,7.84h2.81Z"/><rect class="cls-12" x="1094.23" y="396.14" width="47.19" height="0.14"/><rect class="cls-12" x="1093.66" y="393.28" width="47.19" height="0.14"/></g><g id="てとて"><polygon class="cls-6" points="206.2 403.14 195.4 413.99 184.55 403.19 206.2 403.14"/><circle class="cls-6" cx="189.95" cy="398.86" r="6.88"/><circle class="cls-6" cx="200.78" cy="398.84" r="6.88"/><path class="cls-7" d="M227,398.71l-25.43,22s-8.55,1-13.57,5.38-6.88,8.64-5.15,11.74,8.38,6.13,15.75,3.79,10.5-11.89,10.5-11.89l30.36-16.64a18.17,18.17,0,0,0-2.91-9.28C233.59,399.16,227,398.71,227,398.71Z"/><path class="cls-7" d="M193.14,421.75s-2.81,1.57-4.33,2.66-5.24,4.26-6.18,6.43a19.56,19.56,0,0,0-1.17,5.27s-5.26-.52-8.59-3.81-2-8.25-2-8.25L146.65,413.3s2.82-8.47,6.78-11.34,10.13-2.49,10.13-2.49l13.07,16.32S184.56,413.84,193.14,421.75Z"/></g><g id="でんきゅう"><rect class="cls-6" x="409.75" y="433.82" width="31.57" height="15.65"/><rect class="cls-6" x="411.92" y="451.23" width="27.55" height="3.89"/><rect class="cls-6" x="411.92" y="455.86" width="27.55" height="2.53"/><rect class="cls-6" x="416.84" y="459.14" width="18.32" height="3.86"/><ellipse class="cls-6" cx="426" cy="402.39" rx="23.09" ry="22.5"/><polygon class="cls-6" points="402.91 403.38 409.75 432.07 441.32 432.07 449.1 403.38 402.91 403.38"/><ellipse class="cls-7" cx="426" cy="421.7" rx="4.47" ry="5.98"/><polygon class="cls-7" points="421.53 422.35 422.86 429.97 428.97 429.97 430.48 422.35 421.53 422.35"/></g><g id="まいく"><path class="cls-6" d="M656.21,419.35c4.43,3.68,10.73,2.62,10.73,2.62l-3.09,3.73a11,11,0,0,1-11.14-2.13,16.71,16.71,0,0,1-6.14-10.12l3.3-4S651.79,415.68,656.21,419.35Z"/><path class="cls-6" d="M645.17,417.32a17.47,17.47,0,0,0,5.37,8.65c4.2,3.49,10.65,2.13,10.65,2.13l-28.25,33.17s-7.76,3.63-11.75.32-2.85-10.35-2.85-10.35Z"/><circle class="cls-6" cx="672.11" cy="399.77" r="20.86"/></g><g id="かめら"><rect class="cls-7" x="278.66" y="400.37" width="8.47" height="8.47" rx="2"/><rect class="cls-6" x="273.36" y="404.6" width="73.77" height="52.09" rx="5"/><rect class="cls-6" x="290.22" y="393.79" width="40.06" height="28.29" rx="5"/><circle class="cls-7" cx="310.25" cy="430.65" r="19.34"/><circle class="cls-10" cx="310.25" cy="430.65" r="13.45"/><circle class="cls-6" cx="310.25" cy="430.65" r="11.21"/></g><g id="すなどけい"><rect class="cls-6" x="740.29" y="382.02" width="50.77" height="5.34"/><rect class="cls-6" x="740.29" y="453.92" width="50.77" height="5.34"/><path class="cls-7" d="M740.29,389.79h50.77a0,0,0,0,1,0,0v6.88a20,20,0,0,1-20,20H760.29a20,20,0,0,1-20-20v-6.88A0,0,0,0,1,740.29,389.79Z"/><path class="cls-7" d="M760.29,423.8h10.77a20,20,0,0,1,20,20v7.31a0,0,0,0,1,0,0H740.29a0,0,0,0,1,0,0V443.8A20,20,0,0,1,760.29,423.8Z"/><path class="cls-7" d="M758.27,416.67"/><path class="cls-7" d="M747.38,409.17s4.94,7.66,4.94,12.16-4.94,9.67-4.94,9.67H784s-5-5.18-5-9.67,5-12.16,5-12.16Z"/><path class="cls-6" d="M788.08,451.11H743.51s9.62-11.34,22.16-11.34S788.08,451.11,788.08,451.11Z"/><path class="cls-6" d="M758.46,406.45"/></g><g id="てがみ"><polygon class="cls-6" points="1035.83 402.46 999.57 436.45 963.15 402.53 963.15 449.16 1035.91 449.16 1035.91 402.46 1035.83 402.46"/><polygon class="cls-6" points="963.08 399.24 1035.83 399.24 999.57 433.24 963.08 399.24"/></g><g id="かぎ"><path class="cls-6" d="M874.94,421.85l9.86,5.4-16.54,30.2s-7,3.29-7.67,2.92-2.19-8.32-2.19-8.32Z"/><polygon class="cls-6" points="861.7 446.51 857.53 448.02 858.5 452.34 861.7 446.51"/><polygon class="cls-6" points="864.58 440.9 860.35 442.38 861.38 446.73 864.58 440.9"/><polygon class="cls-6" points="867.8 435.37 863.63 436.88 864.6 441.2 867.8 435.37"/><polygon class="cls-6" points="870.77 429.95 866.6 431.46 867.57 435.78 870.77 429.95"/><path class="cls-6" d="M898.88,389.86a21.66,21.66,0,1,0,8.59,29.41A21.67,21.67,0,0,0,898.88,389.86Zm-.59,10.74a4.65,4.65,0,1,1-1.84-6.31A4.64,4.64,0,0,1,898.29,400.6Z"/></g></g><g id="_2段目" data-name="2段目"><g id="ぱー"><ellipse class="cls-7" cx="1112.76" cy="291.6" rx="18.56" ry="23.78" transform="translate(-33.32 390.46) rotate(-19.61)"/><path class="cls-7" d="M1091,294.29c-6-7-13-11.56-13.63-12.19s-3.36-3-2.52-5.5,18.65,7.46,18.65,7.46l-13.62-21.24s-6.49-9.85-3.77-11.73,8,6.91,8,6.91l12.58,16-8.62-26.71s-2.94-9.43,1-10.48,6.71,6.71,6.71,6.71l9.43,24.31s1,1.47,1.89.84,0-2.18,0-2.18l-3.94-24.19s-1.7-4.72,1.46-5.58,4,3.88,4,3.88l6.81,24.31s1.82,6.48,4.13,5.67,2.79-16.25,2.79-16.25.25-3.77,2.68-3.77,3.52,4,3.52,4l2.55,23.57s3.77,16.05,3.16,19.45,11.57,15.83,11.57,15.83l9.61,9.85h-32.41s-11.09-12.93-16.21-13.59S1094.32,298.19,1091,294.29Z"/><path class="cls-6" d="M1127.09,257.71l-1.42-.81s-.86-5.19,0-5.49,1.59,2.21,1.77,3.15.3,3.57.3,3.57Z"/><path class="cls-6" d="M1078.65,281.69s-3.12-1.52-3.2-3.79c0-.55.25-.81.65-.85a9.79,9.79,0,0,1,3.53,1.73C1080.57,279.6,1079.31,281.78,1078.65,281.69Z"/><path class="cls-6" d="M1089.31,238.19c1.27-.39,3.19,2.08,3.85,3.41s.59,3-.74,3.78-3.11-.52-3.48-1.56S1087.38,238.78,1089.31,238.19Z"/><path class="cls-6" d="M1076.62,252.11c.74-.44,3.81,2.65,3.81,2.65s.44,1.22-.47,1.75a2.24,2.24,0,0,1-2,0S1075.05,253,1076.62,252.11Z"/><path class="cls-6" d="M1105.13,237.4c.87-.07,2.15,4.23,2.15,4.23s-.19,1.34-1.26,1.42a2.21,2.21,0,0,1-1.77-.92S1103.28,237.54,1105.13,237.4Z"/></g><g id="ひげ"><path class="cls-6" d="M880.55,277.43s-.16-11,10.18-11,9.34,5.1,11.34,8.1,16,12.77,22,5.55c-14,12.79-20.68,13.46-26.68,13.46S882.37,287.35,880.55,277.43Z"/><path class="cls-6" d="M884,277.43s.17-11-11-11-10.12,5.1-12.29,8.1-17.34,12.77-23.85,5.55c15.18,12.79,22.41,13.46,28.91,13.46S882,287.35,884,277.43Z"/></g><g id="めがね"><path class="cls-6" d="M990.22,264.63H970.44a5,5,0,0,0-5,5v12.72a8,8,0,0,0,8,8h13.78a8,8,0,0,0,8-8V269.63A5,5,0,0,0,990.22,264.63Zm1,14.22a8,8,0,0,1-8,8h-5.7a8,8,0,0,1-8-8v-5.73a5,5,0,0,1,5-5h11.7a5,5,0,0,1,5,5Z"/><path class="cls-6" d="M1027.22,264.63h-19.78a5,5,0,0,0-5,5v12.72a8,8,0,0,0,8,8h13.78a8,8,0,0,0,8-8V269.63A5,5,0,0,0,1027.22,264.63Zm1,14.22a8,8,0,0,1-8,8h-5.7a8,8,0,0,1-8-8v-5.73a5,5,0,0,1,5-5h11.7a5,5,0,0,1,5,5Z"/><rect class="cls-6" x="993.08" y="273.54" width="11.36" height="6.43"/></g><g id="かさ"><path class="cls-6" d="M797.45,236.22c5.71,4.93,1.75,9.86,1.75,9.86l-9.76,11.27-3.77-3.26,9.61-11.1s1.39-1.71-.67-3.49-5.4,2.62-5.4,2.62l-3.78-3.35S791.4,231,797.45,236.22Z"/><rect class="cls-6" x="780.8" y="258.06" width="6.69" height="3.44" transform="translate(74.52 682.62) rotate(-49.12)"/><circle class="cls-6" cx="781.96" cy="262.31" r="1.71"/><path class="cls-6" d="M734.09,317.19l45.55-52c-4-3.68-1.11-8.69-1.11-8.69a7.24,7.24,0,0,1-6.95-.48c-3.8-2.23-8.83-9.16-8.83-9.16S747.81,293,734,312.08a6.08,6.08,0,0,0-.9,3.41A5.76,5.76,0,0,0,734.09,317.19Z"/><path class="cls-6" d="M732.82,316.06c-.52.66-1.42,2.1-.4,3l1.33-1.52A6.79,6.79,0,0,1,732.82,316.06Z"/><path class="cls-6" d="M789,271.2a7,7,0,0,1-1.24-6.66s-4.52,3.59-8.52.29l-45.15,52.34a1,1,0,0,0,.1.11,4,4,0,0,0,1.4.65l0,0a6,6,0,0,0,3.39-1.43c16.85-16.38,59.83-38.15,59.83-38.15S791.57,274.53,789,271.2Z"/><path class="cls-6" d="M733.83,317.66l-.1-.11-1.34,1.56c1,.8,2.2-.17,2.81-.78A4.27,4.27,0,0,1,733.83,317.66Z"/></g><g id="ゆびわ"><rect class="cls-6" x="642.12" y="241.76" width="21.75" height="20.16"/><path class="cls-6" d="M642.12,241.76l-7.31,8.9L643.14,264a23.61,23.61,0,0,1,10.31-2V241.76Z"/><path class="cls-6" d="M665.06,241.76l7.79,8.9L664,264a26.55,26.55,0,0,0-11-2V241.76Z"/><path class="cls-7" d="M653.83,264.62a27,27,0,1,0,27,27A27,27,0,0,0,653.83,264.62Zm0,48.58a21.61,21.61,0,1,1,21.61-21.61A21.61,21.61,0,0,1,653.83,313.2Z"/></g><g id="くりーむ"><rect class="cls-6" x="528.85" y="301.19" width="26.21" height="15.41" rx="3" transform="translate(111.37 -142.46) rotate(16.67)"/><polygon class="cls-6" points="532.47 294.89 557.58 302.41 577.36 251.21 544.07 241.24 532.47 294.89"/><path class="cls-5" d="M556.4,247.2l-7.77-2.33a2.83,2.83,0,0,0-2.19-.07c-1.07.48-1.07,2.23-1.07,2.23l-2.47,13.09Z"/><ellipse class="cls-5" cx="509.38" cy="294.91" rx="8.53" ry="11.41"/><circle class="cls-5" cx="513.26" cy="299.84" r="9.06"/></g><g id="りっぷ"><rect class="cls-6" x="415.31" y="287.18" width="21.05" height="33.03" rx="2"/><rect class="cls-5" x="415.31" y="279.91" width="21.05" height="5.9" rx="1"/><path class="cls-6" d="M433.71,278.54H417.62a.86.86,0,0,1-.86-.86v-7.44a.85.85,0,0,1,.86-.85h16.09a.85.85,0,0,1,.85.85v7.44A.86.86,0,0,1,433.71,278.54Z"/><path class="cls-6" d="M416.76,261.51v11.64h17.8V246.43s.43-2.54-1.63-3.57-4.64,1.88-4.64,1.88l-9.87,9.87a10.53,10.53,0,0,0-1.66,3.28"/><path class="cls-5" d="M419.73,256.48s.72,5.77.72,9a60.37,60.37,0,0,1-.72,7.7,70.33,70.33,0,0,1-.91-7.7C418.82,263.15,419.73,256.48,419.73,256.48Z"/></g><g id="がまぐちさいふ"><ellipse class="cls-6" cx="308.69" cy="279.18" rx="26.86" ry="23.44"/><ellipse class="cls-6" cx="308.83" cy="290.5" rx="34.1" ry="25.54"/><path class="cls-5" d="M308.69,252.62c9.79,0,18.35,4.76,23,11.83a23.17,23.17,0,0,0-43.72-2.88A27.78,27.78,0,0,1,308.69,252.62Z"/><circle class="cls-5" cx="313.01" cy="244.87" r="3.12"/><circle class="cls-5" cx="306.81" cy="244.87" r="3.12"/></g><g id="かばん"><rect class="cls-6" x="155.12" y="261.69" width="80.38" height="55.99" rx="4"/><path class="cls-6" d="M208.61,245.74H181.82a2,2,0,0,0-2,2v13.7a2,2,0,0,0,2,2h4.88a2,2,0,0,1-2-2v-9.19a2,2,0,0,1,2-2h17.41a2,2,0,0,1,2,2v9.19a2,2,0,0,1-2,2h4.5a2,2,0,0,0,2-2v-13.7A2,2,0,0,0,208.61,245.74Z"/><path class="cls-7" d="M168.7,261.69h53.41a0,0,0,0,1,0,0v27.68a3,3,0,0,1-3,3H171.7a3,3,0,0,1-3-3V261.69A0,0,0,0,1,168.7,261.69Z"/><rect class="cls-6" x="186.58" y="281.42" width="18.55" height="3.09" rx="1.54"/><rect class="cls-6" x="191.39" y="281.77" width="8.85" height="3.09" rx="1.54" transform="translate(-87.5 479.13) rotate(-90)"/></g><g id="ねくたい"><rect class="cls-6" x="71.82" y="249.09" width="14.02" height="11.21" rx="2"/><rect class="cls-6" x="71.82" y="264" width="14.02" height="39.04"/><polygon class="cls-6" points="71.82 264 67.87 303.04 78.83 316.36 89.79 303.04 85.84 264 71.82 264"/></g></g><g id="_1段目" data-name="1段目"><g id="ひーる"><path class="cls-7" d="M1101.33,104.78c8.8-1,10.82,26.24,13.44,30.17s16.4,10.17,15.42,13.45-4.92,4.59-9.84,4.92a15.33,15.33,0,0,1-8.53-2s-8.52-4.26-10.49-8.53-4.92-26.89-5.91-29.19A6.82,6.82,0,0,1,1101.33,104.78Z"/><path class="cls-6" d="M1095.09,106.08a8.35,8.35,0,0,0-2,5.35c0,3.21,3.82,30.72,6,33.47s10.24,9.17,14.82,10.39,12.22.91,15.13-.77a13.45,13.45,0,0,0,4.43-4.27s17,3.51,13.14,13.44-20,9.93-20,9.93h-17.38a21.5,21.5,0,0,1-8.56-8.35c-3.34-5.91-4.51-11.82-7.52-17.21s-1.73-3.09-1.73-3.09l.77,27.23h-5.39V141.89s-1.29-26.46,0-32.11,8.4-7.7,8.4-7.7a12.32,12.32,0,0,1,5-.61,6.44,6.44,0,0,1,4.78,2.47s-4.18-1.42-6.5-.15A13.71,13.71,0,0,0,1095.09,106.08Z"/></g><g id="ぶーつ"><path id="ぶーつ-2" data-name="ぶーつ" class="cls-7" d="M978.53,113.18a29.06,29.06,0,0,1,9.83-5.63A45.54,45.54,0,0,1,999.44,106s-2,38.45,1,44.6,16.12,11.28,16.12,11.28,8.57,1.28,9.07,5.38-6.55,7.18-6.55,7.18h-17c-7.7,0-6.81-1.28-6.81-1.28v-4.36l-13.74-3.33s3.78-9.23,3.28-15.13S978.53,113.18,978.53,113.18Z"/><polygon class="cls-6" points="993.37 170.51 993.27 176.71 977.33 173.35 979.93 167.01 993.37 170.51"/></g><g id="すにーかー"><path class="cls-6" d="M846.14,150.86s-1.23-14.89,0-18.57,3.11-6.68,6-6.68c1.72,0,2.75,9,4.63,10s6.86,3.34,7.89,1.76,0-8.62,0-8.62a1.68,1.68,0,0,1,.45-2.27c1.26-1.23,2.06-.88,2.06-.88l13.29-.4s1.87-.4,2.5.41,3,7.08,5.24,8.85S846.14,150.86,846.14,150.86Z"/><path class="cls-6" d="M923.89,150.86s3.76-5.12-2.54-9.31-20-5.84-24-6-7-.11-9.15-1.05-42.08,16.39-42.08,16.39Z"/><polygon class="cls-7" points="884.41 128.25 876.6 130.83 877.57 132.1 885.07 129.52 884.41 128.25"/><polygon class="cls-7" points="885.85 130.55 878.06 133.19 879.05 134.46 886.52 131.81 885.85 130.55"/><polygon class="cls-7" points="887.63 133.16 879.84 135.8 880.83 137.06 888.31 134.42 887.63 133.16"/><path class="cls-7" d="M846.2,153.51h77.75a0,0,0,0,1,0,0v.82a4,4,0,0,1-4,4H850.2a4,4,0,0,1-4-4v-.82A0,0,0,0,1,846.2,153.51Z"/></g><g id="くつした"><rect class="cls-10" x="778.44" y="112.29" width="24.81" height="44.46" rx="3" transform="translate(153.3 -352.38) rotate(27.72)"/><rect class="cls-10" x="756.16" y="138.24" width="25.82" height="36.45" rx="3" transform="translate(528.52 -590.59) rotate(60.65)"/><circle class="cls-10" cx="754.51" cy="164.65" r="12.88"/><path class="cls-10" d="M781.17,164.52s-6.43-9.68,1.45-16.18c9-8.09,15.14.14,15.14.14s-3.33,8.88-6,10.28S781.17,164.52,781.17,164.52Z"/><rect class="cls-6" x="778.44" y="112.29" width="24.81" height="44.46" rx="3" transform="translate(153.3 -352.38) rotate(27.72)"/><rect class="cls-6" x="756.16" y="138.24" width="25.82" height="36.45" rx="3" transform="translate(528.52 -590.59) rotate(60.65)"/><circle class="cls-6" cx="754.51" cy="164.65" r="12.88"/><rect class="cls-7" x="786.81" y="117.47" width="24.81" height="2.25" transform="translate(146.85 -358.1) rotate(27.72)"/><path class="cls-10" d="M781.17,164.52s-6.43-9.68,1.45-16.18c9-8.09,15.14.14,15.14.14s-3.33,8.88-6,10.28S781.17,164.52,781.17,164.52Z"/><path class="cls-7" d="M781.21,164.79s-7.31-9.36.72-16.14c9.16-8.41,16.06-.47,16.06-.47s-3.08,8.95-5.87,10.45S781.21,164.79,781.21,164.79Z"/><rect class="cls-7" x="784.87" y="121.16" width="24.81" height="2.25" transform="translate(148.35 -356.77) rotate(27.72)"/><rect class="cls-10" x="765.36" y="100.21" width="24.81" height="44.46" rx="3" transform="translate(146.18 -347.68) rotate(27.72)"/><rect class="cls-10" x="743.09" y="126.15" width="25.82" height="36.45" rx="3" transform="translate(511.32 -585.35) rotate(60.65)"/><circle class="cls-10" cx="741.43" cy="152.57" r="12.88"/><path class="cls-10" d="M768.1,152.44s-6.43-9.69,1.44-16.19c9-8.09,15.14.15,15.14.15s-3.33,8.88-6,10.27S768.1,152.44,768.1,152.44Z"/><rect class="cls-6" x="765.36" y="100.21" width="24.81" height="44.46" rx="3" transform="translate(146.18 -347.68) rotate(27.72)"/><rect class="cls-6" x="743.09" y="126.15" width="25.82" height="36.45" rx="3" transform="translate(511.32 -585.35) rotate(60.65)"/><circle class="cls-6" cx="741.43" cy="152.57" r="12.88"/><rect class="cls-7" x="773.73" y="105.38" width="24.81" height="2.25" transform="translate(139.73 -353.4) rotate(27.72)"/><path class="cls-10" d="M768.1,152.44s-6.43-9.69,1.44-16.19c9-8.09,15.14.15,15.14.15s-3.33,8.88-6,10.27S768.1,152.44,768.1,152.44Z"/><path class="cls-7" d="M768.13,152.71s-7.31-9.36.72-16.14c9.16-8.41,16.06-.48,16.06-.48s-3.08,9-5.86,10.45S768.13,152.71,768.13,152.71Z"/><rect class="cls-7" x="771.79" y="109.08" width="24.81" height="2.25" transform="translate(141.23 -352.07) rotate(27.72)"/></g><g id="みとん"><rect class="cls-6" x="625.23" y="126.23" width="18.88" height="19.03" transform="translate(-11.94 191.62) rotate(-17.01)"/><ellipse class="cls-6" cx="660.81" cy="123.44" rx="23.28" ry="22.52" transform="translate(315.48 700.2) rotate(-69.67)"/><rect class="cls-6" x="632.46" y="122.12" width="45.04" height="34.11" transform="translate(89.15 -218.89) rotate(20.33)"/><ellipse class="cls-6" cx="631.61" cy="125.74" rx="9.44" ry="14.09" transform="translate(-9.15 190.29) rotate(-17.01)"/><rect class="cls-6" x="624.89" y="148.01" width="3.45" height="15.7" transform="translate(93.18 -207.99) rotate(20.33)"/><rect class="cls-6" x="629.23" y="149.55" width="3.45" height="15.7" transform="translate(93.99 -209.41) rotate(20.33)"/><rect class="cls-6" x="633.49" y="151.19" width="3.45" height="15.7" transform="translate(94.83 -210.78) rotate(20.33)"/><rect class="cls-6" x="637.94" y="152.73" width="3.45" height="15.7" transform="translate(95.64 -212.23) rotate(20.33)"/><rect class="cls-6" x="642.25" y="154.33" width="3.45" height="15.7" transform="translate(96.46 -213.63) rotate(20.33)"/><rect class="cls-6" x="646.49" y="155.97" width="3.45" height="15.7" transform="translate(97.29 -215) rotate(20.33)"/><rect class="cls-6" x="650.83" y="157.51" width="3.45" height="15.7" transform="translate(98.1 -216.41) rotate(20.33)"/><rect class="cls-6" x="654.94" y="159.14" width="3.45" height="15.7" transform="translate(98.92 -217.74) rotate(20.33)"/><rect class="cls-6" x="659.08" y="160.68" width="3.45" height="15.7" transform="translate(99.71 -219.08) rotate(20.33)"/><rect class="cls-6" x="663.43" y="162.29" width="3.45" height="15.7" transform="translate(100.54 -220.49) rotate(20.33)"/></g><g id="まふらー"><path class="cls-6" d="M564,130.13a201.24,201.24,0,0,1-50.79-.47c-3,0-5.41-3.58-5.36-7.94l.07-8.44c0-4.36,2.51-7.86,5.51-7.83a101.07,101.07,0,0,0,50.8.47c3,0,5.4,3.58,5.36,7.93l-.08,8.45C569.42,126.65,567,130.16,564,130.13Z"/><path class="cls-6" d="M552.06,132.33c8.61-.33,11.66-1.08,13.91-1.65.86-.4,3.22,0,3.4,1.42s7,35.89,7.09,36.54-.22,1.21-.75,1.32-14.54,1.73-16.05,1.77a2.48,2.48,0,0,1-2.6-1.7c-.1-.72-7.15-35.27-6.87-36.07S550.72,132.38,552.06,132.33Z"/><rect class="cls-6" x="558.51" y="172.21" width="2.38" height="9.13" transform="translate(-14.6 55.55) rotate(-5.61)"/><rect class="cls-6" x="561.69" y="171.87" width="2.38" height="9.13" transform="translate(-14.55 55.85) rotate(-5.61)"/><rect class="cls-6" x="564.95" y="171.49" width="2.38" height="9.13" transform="translate(-14.5 56.17) rotate(-5.61)"/><rect class="cls-6" x="568.1" y="171.12" width="2.38" height="9.13" transform="translate(-14.44 56.48) rotate(-5.61)"/><rect class="cls-6" x="571.33" y="170.8" width="2.38" height="9.13" transform="translate(-14.4 56.79) rotate(-5.61)"/><rect class="cls-6" x="574.39" y="170.5" width="2.38" height="9.13" transform="translate(-14.35 57.09) rotate(-5.61)"/></g><g id="わんぴーす"><rect class="cls-6" x="409.1" y="143.44" width="33.47" height="6.86"/><polygon class="cls-6" points="409.1 140.91 400.92 181.61 450.74 181.61 442.56 140.91 409.1 140.91"/><polygon class="cls-6" points="409.1 143.44 406.69 120.42 444.98 120.42 442.56 143.44 409.1 143.44"/><ellipse class="cls-6" cx="416.26" cy="120.51" rx="9.57" ry="7.13"/><ellipse class="cls-6" cx="435.4" cy="120.51" rx="9.57" ry="7.13"/><rect class="cls-6" x="414.34" y="101.57" width="3.84" height="13.73"/><rect class="cls-6" x="433.48" y="101.57" width="3.84" height="13.73"/><polygon class="cls-6" points="409.1 140.91 390.69 181.61 460.97 181.61 442.56 140.91 409.1 140.91"/><path class="cls-6" d="M416.26,113.38s6.75,3.26,9.57,3.26,9.57-3.26,9.57-3.26v8.77H416.26Z"/><rect class="cls-5" x="423.85" y="118.86" width="3.1" height="8.42" rx="1"/><path class="cls-5" d="M427.8,118.86v8.43s4,1.68,5.93,1.68,3.19-14.31,0-13.41A17.83,17.83,0,0,0,427.8,118.86Z"/><path class="cls-5" d="M423.15,118.86v8.43s-4.21,1.68-6.28,1.68-3.38-14.31,0-13.41A19.13,19.13,0,0,1,423.15,118.86Z"/><path class="cls-5" d="M423.59,128s-1.09.34-3,.89a16.11,16.11,0,0,1-3.21.6s-4.6,3.51-4.51,4.39,9.69,1.85,10.41,1.34S423.59,128,423.59,128Z"/><path class="cls-5" d="M427.31,128s1.06.34,3,.89a15.47,15.47,0,0,0,3.14.6s4.52,3.51,4.43,4.39-9.51,1.85-10.22,1.34S427.31,128,427.31,128Z"/></g><g id="りぼん"><rect class="cls-6" x="305.36" y="122.23" width="9.78" height="26.61" rx="1"/><path class="cls-6" d="M317.84,122.23v26.61s12.57,5.32,18.74,5.32,10.05-45.22,0-42.37S317.84,122.23,317.84,122.23Z"/><path class="cls-6" d="M303.15,122.23v26.61s-13.32,5.32-19.85,5.32-10.66-45.22,0-42.37S303.15,122.23,303.15,122.23Z"/><path class="cls-6" d="M304.53,151.12s-3.43,1.08-9.55,2.8a50.16,50.16,0,0,1-10.11,1.91s-14.53,11.1-14.25,13.88,30.6,5.84,32.87,4.23S304.53,151.12,304.53,151.12Z"/><path class="cls-6" d="M316.27,151.12s3.38,1.08,9.39,2.8a48.59,48.59,0,0,0,9.94,1.91s14.27,11.1,14,13.88-30.07,5.84-32.3,4.23S316.27,151.12,316.27,151.12Z"/></g><g id="はっとぼう"><path class="cls-6" d="M167.38,143s6.1-26.63,14.7-25.3,10.75,4,15.76,4.88,7.53-5.87,16.13-4.93S220.42,143,220.42,143Z"/><rect class="cls-5" x="167.38" y="141.59" width="53.27" height="10.39"/><path class="cls-6" d="M167.38,152h53.28s13.73,5.38,13.73,8.24S211.1,162,196.59,162s-37.09,3.62-40,.2S167.38,152,167.38,152Z"/></g><g id="おうかん"><circle class="cls-6" cx="41.79" cy="110.63" r="3.13"/><circle class="cls-6" cx="78.53" cy="110.63" r="3.13"/><circle class="cls-6" cx="115.87" cy="110.63" r="3.13"/><polyline class="cls-6" points="41.05 117.04 59.79 128.73 78.53 117.04 97.9 128.73 117.26 117.04 117.26 140.63 41.05 140.63"/><rect class="cls-6" x="41.05" y="140.63" width="76.22" height="23.76"/></g></g></g></svg>