<svg xmlns="http://www.w3.org/2000/svg" viewBox="0 0 1190.55 841.89"><defs><style>.cls-1,.cls-10,.cls-12,.cls-13,.cls-14,.cls-15,.cls-19,.cls-5,.cls-6,.cls-9{fill:none;}.cls-1{stroke:#ccc;}.cls-1,.cls-10,.cls-11,.cls-12,.cls-13,.cls-14,.cls-15,.cls-16,.cls-17,.cls-18,.cls-19,.cls-20,.cls-21,.cls-22,.cls-23,.cls-24,.cls-5,.cls-6,.cls-7,.cls-8,.cls-9{stroke-miterlimit:10;}.cls-18,.cls-2,.cls-21,.cls-22,.cls-23,.cls-8{fill:#fff;}.cls-2{opacity:0.51;}.cls-3,.cls-4{font-size:12px;}.cls-3{font-family:KozGoPro-Regular-83pv-RKSJ-H, Kozuka Gothic Pro;}.cls-4{font-family:KozGoPr6N-Regular-83pv-RKSJ-H, Kozuka Gothic Pr6N;}.cls-10,.cls-11,.cls-12,.cls-16,.cls-17,.cls-18,.cls-20,.cls-21,.cls-5,.cls-6,.cls-7,.cls-8,.cls-9{stroke:#000;}.cls-13,.cls-14,.cls-16,.cls-21,.cls-22,.cls-23,.cls-24,.cls-5,.cls-6,.cls-7,.cls-8{stroke-width:2.3px;}.cls-10,.cls-12,.cls-14,.cls-15,.cls-16,.cls-17,.cls-18,.cls-19,.cls-20,.cls-21,.cls-23,.cls-24,.cls-6,.cls-9{stroke-linecap:round;}.cls-15,.cls-20,.cls-9{stroke-width:3px;}.cls-10,.cls-11,.cls-17,.cls-18,.cls-19{stroke-width:2px;}.cls-12{stroke-width:4px;}.cls-13,.cls-14,.cls-15,.cls-19,.cls-22,.cls-23,.cls-24{stroke:#fff;}</style></defs><g id="テンプレート"><rect class="cls-1" x="28.83" y="87.3" width="100" height="100"/><rect class="cls-1" x="143.83" y="87.3" width="100" height="100"/><rect class="cls-1" x="258.83" y="87.3" width="100" height="100"/><rect class="cls-1" x="373.83" y="87.3" width="100" height="100"/><rect class="cls-1" x="488.83" y="87.3" width="100" height="100"/><rect class="cls-1" x="603.83" y="87.3" width="100" height="100"/><rect class="cls-1" x="718.83" y="87.3" width="100" height="100"/><rect class="cls-1" x="833.83" y="87.3" width="100" height="100"/><rect class="cls-1" x="948.83" y="87.3" width="100" height="100"/><rect class="cls-1" x="1063.83" y="87.3" width="100" height="100"/><rect class="cls-1" x="28.83" y="228.07" width="100" height="100"/><rect class="cls-1" x="143.83" y="228.07" width="100" height="100"/><rect class="cls-1" x="258.83" y="228.07" width="100" height="100"/><rect class="cls-1" x="373.83" y="228.07" width="100" height="100"/><rect class="cls-1" x="488.83" y="228.07" width="100" height="100"/><rect class="cls-1" x="603.83" y="228.07" width="100" height="100"/><rect class="cls-1" x="718.83" y="228.07" width="100" height="100"/><rect class="cls-1" x="833.83" y="228.07" width="100" height="100"/><rect class="cls-1" x="948.83" y="228.07" width="100" height="100"/><rect class="cls-1" x="1063.83" y="228.07" width="100" height="100"/><rect class="cls-1" x="28.83" y="368.84" width="100" height="100"/><rect class="cls-1" x="143.83" y="368.84" width="100" height="100"/><rect class="cls-1" x="258.83" y="368.84" width="100" height="100"/><rect class="cls-1" x="373.83" y="368.84" width="100" height="100"/><rect class="cls-1" x="488.83" y="368.84" width="100" height="100"/><rect class="cls-1" x="603.83" y="368.84" width="100" height="100"/><rect class="cls-1" x="718.83" y="368.84" width="100" height="100"/><rect class="cls-1" x="833.83" y="368.84" width="100" height="100"/><rect class="cls-1" x="948.83" y="368.84" width="100" height="100"/><rect class="cls-1" x="1063.83" y="368.84" width="100" height="100"/><rect class="cls-1" x="28.83" y="509.61" width="100" height="100"/><rect class="cls-1" x="143.83" y="509.61" width="100" height="100"/><rect class="cls-1" x="258.83" y="509.61" width="100" height="100"/><rect class="cls-1" x="373.83" y="509.61" width="100" height="100"/><rect class="cls-1" x="488.83" y="509.61" width="100" height="100"/><rect class="cls-1" x="603.83" y="509.61" width="100" height="100"/><rect class="cls-1" x="718.83" y="509.61" width="100" height="100"/><rect class="cls-1" x="833.83" y="509.61" width="100" height="100"/><rect class="cls-1" x="948.83" y="509.61" width="100" height="100"/><rect class="cls-1" x="1063.83" y="509.61" width="100" height="100"/><rect class="cls-1" x="28.83" y="650.38" width="100" height="100"/><rect class="cls-1" x="143.83" y="650.38" width="100" height="100"/><rect class="cls-1" x="258.83" y="650.38" width="100" height="100"/><rect class="cls-1" x="373.83" y="650.38" width="100" height="100"/><rect class="cls-1" x="488.83" y="650.38" width="100" height="100"/><rect class="cls-1" x="603.83" y="650.38" width="100" height="100"/><rect class="cls-1" x="718.83" y="650.38" width="100" height="100"/><rect class="cls-1" x="833.83" y="650.38" width="100" height="100"/><rect class="cls-1" x="948.83" y="650.38" width="100" height="100"/><rect class="cls-1" x="1063.83" y="650.38" width="100" height="100"/><rect class="cls-2" width="1190.55" height="841.89"/></g><g id="アイコン名"><text class="cls-3" transform="translate(30.83 213.41)">バスケットボール</text><text class="cls-3" transform="translate(158.16 213.41)">ソフトボール</text><text class="cls-4" transform="translate(279.5 213.41)">たっきゅう</text><text class="cls-3" transform="translate(400.83 213.41)">やきゅう</text><text class="cls-3" transform="translate(504.16 213.41)">フットボール</text><text class="cls-3" transform="translate(619.5 213.41)">ティーバッグ</text><text class="cls-3" transform="translate(728.83 213.41)">コーヒーポット</text><text class="cls-3" transform="translate(844.16 213.41)">アイスコーヒー</text><text class="cls-3" transform="translate(959.5 213.41)">ミルクシェーク</text><text class="cls-3" transform="translate(1086.83 213.41)">スムージー</text><text class="cls-3" transform="translate(60.83 351.9)">りんご</text><text class="cls-3" transform="translate(176.16 351.9)">バナナ</text><text class="cls-3" transform="translate(291.5 351.9)">桜んぼ</text><text class="cls-3" transform="translate(406.83 351.9)">キウイ</text><text class="cls-3" transform="translate(522.16 351.9)">いちご</text><text class="cls-3" transform="translate(637.5 351.9)">キノコ</text><text class="cls-3" transform="translate(740.83 351.9)">ブロッコリ</text><text class="cls-3" transform="translate(850.16 351.9)">アスパラガス</text><text class="cls-3" transform="translate(977.5 351.9)">キャベツ</text><text class="cls-3" transform="translate(1092.83 351.9)">かぼちゃ</text><text class="cls-3" transform="translate(48.83 492.39)">ニットぼう</text><text class="cls-3" transform="translate(170.16 492.39)">まふらー</text><text class="cls-3" transform="translate(285.5 492.39)">メープル</text><text class="cls-3" transform="translate(412.83 492.39)">くり</text><text class="cls-3" transform="translate(528.16 492.39)">まき</text><text class="cls-3" transform="translate(637.5 492.39)">ほうき</text><text class="cls-3" transform="translate(752.83 492.39)">レーキ</text><text class="cls-3" transform="translate(862.16 492.39)">シャベル</text><text class="cls-3" transform="translate(965.5 492.39)">チェーンソー</text><text class="cls-3" transform="translate(1092.83 492.39)">ハンマー</text><text class="cls-3" transform="translate(60.83 630.89)">ブーツ</text><text class="cls-3" transform="translate(170.16 630.89)">セーター</text><text class="cls-3" transform="translate(291.5 630.89)">シャツ</text><text class="cls-3" transform="translate(400.83 630.89)">キャップ</text><text class="cls-3" transform="translate(516.16 630.89)">くつした</text><text class="cls-3" transform="translate(631.5 630.89)">ばんそく</text><text class="cls-3" transform="translate(734.83 630.89)">ちゅうしゃき</text><text class="cls-4" transform="translate(856.16 630.89)">おんどけい</text><text class="cls-3" transform="translate(977.5 630.89)">ほうたい</text><text class="cls-3" transform="translate(1098.83 630.89)">くつり</text><text class="cls-3" transform="translate(36.83 773.38)">フライドポテト</text><text class="cls-3" transform="translate(182.16 773.38)">ピザ</text><text class="cls-3" transform="translate(267.5 773.38)">アイスクリーム</text><text class="cls-3" transform="translate(400.83 773.38)">おにぎり</text><text class="cls-3" transform="translate(528.16 773.38)">タコ</text><text class="cls-3" transform="translate(652.02 773.38)">K</text><text class="cls-3" transform="translate(766.9 773.38)">A</text><text class="cls-3" transform="translate(883 773.38)">S</text><text class="cls-3" transform="translate(997.23 773.38)">D</text><text class="cls-3" transform="translate(1113.66 773.38)">T</text></g><g id="アイコン"><line class="cls-5" x1="78.06" y1="154.95" x2="78.06" y2="178.27"/><line class="cls-5" x1="78.06" y1="95.94" x2="78.06" y2="147.8"/><path class="cls-5" d="M59.3,100.63s9.23,14.29,3.56,31.22c-5.28,15.76-13.59,20.86-19.9,25.07"/><path class="cls-5" d="M97.14,100.63s-9.23,14.29-3.56,31.22c5.28,15.76,13.59,20.86,19.9,25.07"/><circle class="cls-5" cx="78.62" cy="136.97" r="40.73" transform="translate(-46.43 40.51) rotate(-22.5)"/><line class="cls-5" x1="41.17" y1="120.38" x2="115.52" y2="120.38"/><line class="cls-6" x1="66.11" y1="147.23" x2="66.11" y2="149.18"/><line class="cls-6" x1="90.54" y1="147.23" x2="90.54" y2="149.18"/><path class="cls-6" d="M82.15,151.28a3.89,3.89,0,0,1-7.78,0c0-2.87,1.64-3,3.79-3S82.11,148,82.15,151.28Z"/><circle class="cls-5" cx="193.75" cy="136.78" r="41.5" transform="translate(-37.6 84.56) rotate(-22.5)"/><path class="cls-7" d="M184.1,96.76l8.11,7.92a14.62,14.62,0,0,0,5.54,3.39l.25.09a18.33,18.33,0,0,0,2.09.55,28.8,28.8,0,1,1-34.26,33.84c-.08-.4-.17-.8-.28-1.2l-.07-.22a17.08,17.08,0,0,0-4.49-7.5l-6.89-6.85S157.46,115,164,108.45C173.92,98.45,184.1,96.76,184.1,96.76Z"/><path class="cls-8" d="M178.51,98.63l9.34,9.25a17.19,17.19,0,0,0,3.54,2.7l1.86,1.08a13,13,0,0,0,4.44,1.56,23.71,23.71,0,1,1-27.37,26.86,13.76,13.76,0,0,0-1.61-4.84h0a25.21,25.21,0,0,0-4.58-5.89l-8.31-7.93a32.65,32.65,0,0,1,8.38-13.55C172.07,100,178.51,98.63,178.51,98.63Z"/><path class="cls-9" d="M181.41,142.17s-1.47-1.78,0-3.26a2.18,2.18,0,0,1,3.19,0"/><path class="cls-9" d="M196,127.6s-1.46-1.79,0-3.26a2.17,2.17,0,0,1,3.19,0"/><path class="cls-10" d="M193.91,136.76a2.94,2.94,0,0,1-4.11-.33,3,3,0,0,1-.27-4.14,3.17,3.17,0,0,1,4.38,4.47Z"/><path class="cls-8" d="M344.74,143.9a31.59,31.59,0,0,0,4.16-15.1,31.93,31.93,0,1,0-63.85-.58c0,2,.42,5.85.75,8.61a8,8,0,0,1-1.52,5.71l-.79,1.05a6.55,6.55,0,0,0,.72,8.63l9.3,8.9a6.52,6.52,0,0,0,8.13.73l2.32-1.54a7.48,7.48,0,0,1,5.82-1,31.91,31.91,0,0,0,8.9.77,31.14,31.14,0,0,0,9.34-1.94"/><path class="cls-11" d="M318.63,160.16a31.94,31.94,0,0,1-8.9-.78,7.45,7.45,0,0,0-5.82,1l-2.32,1.53a6.54,6.54,0,0,1-8.13-.72l-9.3-8.91a6.53,6.53,0,0,1-.72-8.62l.79-1.06a8,8,0,0,0,1.52-5.71c-.33-2.75-.21-8-.21-10Z"/><line class="cls-12" x1="317.21" y1="110.48" x2="318.4" y2="109.28"/><line class="cls-12" x1="334.64" y1="127.88" x2="335.84" y2="126.68"/><path class="cls-10" d="M327.2,123.51a4,4,0,0,1-5.28-5.89c1.63-1.46,3.24-.69,4.7.93S329,121.91,327.2,123.51Z"/><circle class="cls-7" cx="337.94" cy="152.54" r="10.86" transform="translate(-32.68 141.96) rotate(-22.66)"/><path class="cls-8" d="M294,161.75l-10.82,12.49a8.83,8.83,0,0,1-13.19.17h0a8.83,8.83,0,0,1,.85-12.73l12.4-10.38Z"/><circle class="cls-7" cx="423.31" cy="137.6" r="40.68"/><path class="cls-13" d="M391.78,110.07c1.06.9,10.39,13.27,10.39,26.15,0,15.09-9.54,28.51-10.22,29.09"/><path class="cls-13" d="M455.09,110.27a38.45,38.45,0,0,0-10.83,26.5c0,16.06,9.47,28.06,10.22,28.77"/><line class="cls-14" x1="395.28" y1="118.04" x2="398.03" y2="116.41"/><line class="cls-14" x1="398.1" y1="124.13" x2="401.15" y2="123.13"/><line class="cls-14" x1="399.97" y1="130.83" x2="403.13" y2="130.34"/><line class="cls-14" x1="400.56" y1="137.64" x2="403.76" y2="137.64"/><line class="cls-14" x1="400" y1="144.45" x2="403.18" y2="144.84"/><line class="cls-14" x1="398.17" y1="150.94" x2="401.12" y2="152.2"/><line class="cls-14" x1="395.36" y1="157.19" x2="398.14" y2="158.79"/><line class="cls-14" x1="451.02" y1="118.04" x2="448.26" y2="116.41"/><line class="cls-14" x1="448.19" y1="124.13" x2="445.15" y2="123.13"/><line class="cls-14" x1="446.33" y1="130.83" x2="443.16" y2="130.34"/><line class="cls-14" x1="445.74" y1="137.64" x2="442.53" y2="137.64"/><line class="cls-14" x1="446.29" y1="144.45" x2="443.11" y2="144.84"/><line class="cls-14" x1="448.12" y1="150.94" x2="445.17" y2="152.2"/><line class="cls-14" x1="450.93" y1="157.19" x2="448.15" y2="158.79"/><line class="cls-15" x1="412.69" y1="134.39" x2="412.69" y2="136.12"/><line class="cls-15" x1="433.62" y1="134.33" x2="433.62" y2="136.06"/><line class="cls-14" x1="411.68" y1="139.83" x2="413.5" y2="139.83"/><line class="cls-14" x1="432.75" y1="139.76" x2="434.57" y2="139.76"/><path class="cls-14" d="M420.77,136l4.92,0a.42.42,0,0,1,.43.41c0,1.19-.21,4.55-2.93,4.58s-2.91-3.43-2.85-4.62A.42.42,0,0,1,420.77,136Z"/><path class="cls-5" d="M572.92,104.11c12,12.33,6.55,42.56-8.51,57.23-16.16,15.74-46.57,19.84-57.16,9s-9.62-39,8.51-57.23S563.83,94.76,572.92,104.11Z"/><path class="cls-7" d="M529.14,176.33c-9.11.57-17.35-1.26-21.88-5.92-4.69-4.82-7-13.32-6.61-22.69Z"/><path class="cls-7" d="M579.22,126.66c.48-8.9-1.29-17.32-6.28-22.44-4.08-4.2-12.36-6.5-21.88-6.12Z"/><line class="cls-9" x1="516.49" y1="127.69" x2="517.62" y2="128.82"/><line class="cls-9" x1="530.53" y1="113.59" x2="531.65" y2="114.72"/><path class="cls-10" d="M522.41,126s2.14.93,3.13-.07.33-2.13.1-2.9a.26.26,0,0,1,.33-.33c.77.23,2.3.63,3-.07,1.22-1.22,0-3,0-3"/><path class="cls-6" d="M559,125.23l1.52-1.52a5,5,0,0,0,0-7h0a4.94,4.94,0,0,0-7,0l-1.64,1.64"/><line class="cls-6" x1="546.85" y1="137.33" x2="552.05" y2="132.13"/><line class="cls-6" x1="535.36" y1="148.81" x2="540.15" y2="144.03"/><path class="cls-6" d="M521.36,148.87l-1.61,1.61a4.93,4.93,0,0,0,0,7h0a4.94,4.94,0,0,0,7,0l1.54-1.55"/><line class="cls-6" x1="533.04" y1="137.19" x2="528.22" y2="142.01"/><line class="cls-6" x1="545.16" y1="125.07" x2="540.2" y2="130.03"/><rect class="cls-16" x="519.86" y="144.21" width="16.91" height="9.49" rx="4.13" transform="translate(260.06 -329.94) rotate(45)"/><rect class="cls-16" x="531.44" y="132.33" width="16.91" height="9.49" rx="4.13" transform="translate(255.06 -341.62) rotate(45)"/><rect class="cls-16" x="543.55" y="120.46" width="16.91" height="9.49" rx="4.13" transform="translate(250.22 -353.66) rotate(45)"/><path class="cls-5" d="M649.5,177l-22-22a8.26,8.26,0,0,1,0-11.69l12.56-12.56a15.67,15.67,0,0,1,7.26-4.12l11.39-2.87a9.79,9.79,0,0,1,9.37,2.61l10.08,10.16a9.82,9.82,0,0,1,2.58,9.16l-2.61,11.07a15.72,15.72,0,0,1-4.18,7.5L661.19,177A8.26,8.26,0,0,1,649.5,177Z"/><rect class="cls-5" x="639.59" y="98.44" width="18.47" height="18.48" rx="5.62"/><path class="cls-7" d="M672.71,158.52l-14,14a4.7,4.7,0,0,1-6.65,0l-20-20a4.7,4.7,0,0,1,0-6.64l14-14,1.82,1a6.9,6.9,0,0,1,2.64,2.64l1.36,2.44a2.76,2.76,0,0,0,1,1l1.57,1a6.87,6.87,0,0,1,2.27,2.31l1.41,2.37a2.8,2.8,0,0,0,1.26,1.12l2.56,1.12a6.83,6.83,0,0,1,3.44,3.36l1.5,3.18a6.18,6.18,0,0,0,2,2.43Z"/><polyline class="cls-5" points="657.17 101.44 663.37 101.44 663.37 113.61 657.17 113.61"/><circle class="cls-5" cx="667.33" cy="137.23" r="2.86"/><path class="cls-5" d="M663.74,106.88s13.38-1.1,16.84,4.82c2.77,4.73.5,9.87-.44,11.37-2,3.13-10.79,12.39-10.79,12.39"/><line class="cls-6" x1="651.84" y1="103.82" x2="651.84" y2="110.96"/><line class="cls-6" x1="645.73" y1="105.27" x2="645.73" y2="109.99"/><line class="cls-15" x1="645.94" y1="144.19" x2="644.09" y2="146.07"/><line class="cls-15" x1="660.21" y1="158.78" x2="658.35" y2="160.66"/><path class="cls-14" d="M649.49,150.9s-.18,2.11.86,3.15a4.84,4.84,0,0,0,3.38,1"/><path class="cls-5" d="M793.49,174.71H764.61a16.39,16.39,0,0,1-16.39-16.39h0a23.6,23.6,0,0,1,1.62-8.59l5.25-13.37h47.66l5.45,13.39a22.67,22.67,0,0,1,1.67,8.57h0A16.38,16.38,0,0,1,793.49,174.71Z"/><path class="cls-5" d="M803,136.16l-47.84-.08a2.83,2.83,0,0,1-2.22-4.57l6.52-8.33a8.93,8.93,0,0,1,7-3.43h25.27a9,9,0,0,1,7.09,3.5l6.4,8.36A2.83,2.83,0,0,1,803,136.16Z"/><path class="cls-7" d="M791.67,119.63l-25.16.11L765.35,115a3.1,3.1,0,0,1,2.12-3.71l23-6.94a3.81,3.81,0,0,1,4.7,4.86Z"/><path class="cls-7" d="M808.2,150.44s1.7,4.95,1.7,7.88h0a16.39,16.39,0,0,1-16.39,16.39H764.64a16.39,16.39,0,0,1-16.39-16.39h0a23.6,23.6,0,0,1,1.62-8.59l1.71-3.59a69,69,0,0,1,8.61-.6,49.44,49.44,0,0,1,15.95,2.91c3.06,1.3,12.46,5.2,18.3,5.33C799.23,153.88,803.39,154.21,808.2,150.44Z"/><line class="cls-15" x1="766.5" y1="159.54" x2="766.5" y2="163.31"/><line class="cls-15" x1="791.55" y1="159.55" x2="791.55" y2="163.31"/><path class="cls-14" d="M773.88,164.31a6.84,6.84,0,0,0,5.17,2.46,6.64,6.64,0,0,0,5.26-2.51"/><path class="cls-6" d="M782,150.65s8.16-5.58,13.87-6.12A26,26,0,0,1,806.65,146"/><path class="cls-6" d="M734.54,150.8h0a5.17,5.17,0,0,0,5.42-4.1l.34-4.09a43.74,43.74,0,0,1,2.89-12.4h0a4.69,4.69,0,0,1,7.27-2l2.95,2.32,7.9-9.85-5.55-3.49a15.29,15.29,0,0,0-20.83,4.41h0a28.54,28.54,0,0,0-4.81,14.6l-.41,9.17A5.18,5.18,0,0,0,734.54,150.8Z"/><path class="cls-5" d="M885.81,172.18,862,172.11A17.37,17.37,0,0,1,844.8,157l-.25-1.87a52.54,52.54,0,0,1,.14-14.87L847,125.36a37.84,37.84,0,0,0,.36-8.1l-.36-5.73a3.51,3.51,0,0,1,3.5-3.73l46.88.06a3.49,3.49,0,0,1,3.48,3.78l-.27,3.39a38.46,38.46,0,0,0,.28,8.51l2.49,17a52.34,52.34,0,0,1-.39,17.48h0A17.39,17.39,0,0,1,885.81,172.18Z"/><path class="cls-7" d="M901.58,128.08l-.79-9.17C915.23,119.49,924,128.2,924,140s-9.81,21.37-21.91,21.37c0,0,1.13-5,1.62-9.22,0,0,11.29-2.72,11.29-12.08S903.78,128,901.58,128.08Z"/><path class="cls-7" d="M902.7,136.23c2,6.62,1.33,15.86.22,21.63h0a17.22,17.22,0,0,1-3.53,7.61l-50.83.05a17.4,17.4,0,0,1-3.77-8.7l-.25-1.88a52.54,52.54,0,0,1,.14-14.87l.75-4.95s5.43-4.34,15.66-4.28c12.26.08,17,2.81,20.37,4.35,4.17,1.9,9.26,3.75,12.25,3.88A12.87,12.87,0,0,0,902.7,136.23Z"/><path class="cls-5" d="M854.89,131a3.94,3.94,0,0,1,0-5.59l3.68-3.68a4,4,0,0,1,5.58,0l3.68,3.68a3.94,3.94,0,0,1,0,5.59"/><path class="cls-5" d="M877,134.13v-4.77a4.41,4.41,0,0,1,4.41-4.41h5.09a4.41,4.41,0,0,1,4.4,4.41v4.77c0,2.43-.78,3.63-3.21,3.63"/><path class="cls-6" d="M892,138.92l-.58-8.36a2.53,2.53,0,0,1,2.26-2.78l2.45-.26a5.06,5.06,0,0,1,5.54,4.5l.24,4.58"/><line class="cls-15" x1="884.33" y1="148.57" x2="884.33" y2="151.2"/><path class="cls-14" d="M861.55,150.55s.3-2.28,2.23-2.28,2.33,2.18,2.33,2.18"/><path class="cls-14" d="M869.8,153.56s.32,2.51,2.29,2.56c1.42,0,2.08-1.52,2.37-2.65a.23.23,0,0,1,.45,0c.32,1.09,1,2.56,2.65,2.6s2.34-2.54,2.34-2.54"/><path class="cls-5" d="M1016.11,127.09a1.12,1.12,0,0,1,1.12,1.22,117,117,0,0,1-2.78,16.9,54.76,54.76,0,0,1-4,9.38,9.16,9.16,0,0,1-8.14,5l-10.41,0a9.16,9.16,0,0,1-8.36-5.3,54,54,0,0,1-3.88-10,158.12,158.12,0,0,1-2.43-15.92,1.11,1.11,0,0,1,1.11-1.24"/><path class="cls-7" d="M1005.59,167h-16.9a4.56,4.56,0,0,1-4.56-4.55h0a2.69,2.69,0,0,1,2.69-2.7h20.63a2.7,2.7,0,0,1,2.7,2.7h0A4.56,4.56,0,0,1,1005.59,167Z"/><path class="cls-5" d="M1008.42,177.92H985.67a3,3,0,0,1-3-2.93h0a8.64,8.64,0,0,1,1-4.14l2-3.81,22.77,0,1.91,3.43a8.6,8.6,0,0,1,1.1,4v.42A3,3,0,0,1,1008.42,177.92Z"/><path class="cls-7" d="M1014.75,127a9,9,0,0,0,9.1-9h0a9.08,9.08,0,0,0-9.86-9l-3.7.32a8.65,8.65,0,0,1-4.26-.71l-2.64-1.16a15.69,15.69,0,0,0-12.75,0l-2.7,1.19a6.3,6.3,0,0,1-3.29.5l-2.8-.34a10.08,10.08,0,0,0-11.3,10h0a8.42,8.42,0,0,0,8.44,8.4h0l7-2.23a9.76,9.76,0,0,1,5-.21l8.31,1.72a1.8,1.8,0,0,1,1.42,1.72l0,3.31a4.55,4.55,0,0,0,4.52,4.49h0a4.55,4.55,0,0,0,4.58-4.46l.06-2.79a1.78,1.78,0,0,1,1.76-1.75Z"/><path class="cls-5" d="M980.32,108.16c0-3.08,1.65-6.19,5.53-6.19a5.58,5.58,0,0,1,5.58,5.59"/><path class="cls-5" d="M1005.14,107.8l8.71-8.71a2,2,0,0,1,2.81,0l1.93,1.93a2,2,0,0,1,0,2.81l-5.35,5.35"/><path class="cls-6" d="M986.35,141.32a22.27,22.27,0,0,0,2.4,7.78"/><path class="cls-6" d="M1008,141.36a22.27,22.27,0,0,1-2.4,7.78"/><line class="cls-6" x1="997.17" y1="140.19" x2="997.17" y2="149.64"/><line class="cls-14" x1="987.13" y1="115.06" x2="987.13" y2="117.21"/><line class="cls-14" x1="1007.13" y1="115.04" x2="1007.13" y2="117.19"/><path class="cls-14" d="M994.49,117.14a4.09,4.09,0,0,0,2.69,1.27,3.66,3.66,0,0,0,2.58-1.27"/><path class="cls-6" d="M975.6,100.86s4.81.76,5.82,2.21"/><path class="cls-5" d="M1123.09,177.33h-20.18a8.35,8.35,0,0,1-8.24-7.05l-6.39-40.77a3,3,0,0,1,2.93-3.43h43.38a3,3,0,0,1,2.93,3.41l-6.18,40.75A8.34,8.34,0,0,1,1123.09,177.33Z"/><path class="cls-7" d="M1132.31,163.94l4.63-30.51a30.39,30.39,0,0,0-6.61.19c-2.5.4-12.75,4.07-17.56,4.07s-11.22-2.14-15.56-3.81a12.34,12.34,0,0,0-8.29-.07l4.75,30.25a4.48,4.48,0,0,0,4.45,3.79l29.76-.1A4.49,4.49,0,0,0,1132.31,163.94Z"/><path class="cls-5" d="M1100.39,105.89c14.86-9.7,16.27-9.38,16.27-9.38a12.46,12.46,0,0,0,3.92,7"/><path class="cls-5" d="M1133.26,115.5c1.58,2.1,2.55,3.7,2.8,5.1.7,4.07-.86,5.55-.86,5.55l-45.14.08s-2.06-6.65,3.09-13.81"/><line class="cls-14" x1="1102.57" y1="149.97" x2="1102.57" y2="152.11"/><line class="cls-14" x1="1123.28" y1="150.03" x2="1123.28" y2="152.18"/><path class="cls-14" d="M1116.88,152.62c0,2.5-1.43,4.73-3.94,4.73s-3.83-2.15-3.83-4.66c0-1.34,1.26-2.19,3.77-2.19S1116.88,151.42,1116.88,152.62Z"/><path class="cls-16" d="M1132.34,116.8c-4.83,3.62-12.6,4.09-14.31,1.47-2.21-3.38-1-9.38,2.65-14.18,3.2-4.2,9.1-5.12,13.55-.67C1137.3,106.48,1137.21,113.16,1132.34,116.8Z"/><circle class="cls-16" cx="1099.08" cy="111.94" r="6.04" transform="translate(-5.61 98.95) rotate(-5.14)"/><path class="cls-6" d="M1089.2,103.26s5.38,1.65,6.52,3.37"/><line class="cls-14" x1="1126.89" y1="105.28" x2="1124.86" y2="107.3"/><line class="cls-14" x1="1131.67" y1="109.83" x2="1129.48" y2="112.01"/><line class="cls-14" x1="1123.99" y1="112.68" x2="1122.34" y2="114.33"/><path class="cls-6" d="M114.88,284.34c.12,11.32-7.88,27.78-21.42,32.73-3.78,1.38-9.08.51-13.34.51-5.26,0-10.28,1.16-14.77-.9-12.15-5.59-20.59-20.55-20.59-31.87,0-14.16,8.4-23.91,20.38-26.79,8.9-2.14,11,.36,14.64.36,3.25,0,6.31-2.17,13.2-.65C106,260.61,114.73,270.42,114.88,284.34Z"/><path class="cls-6" d="M79.78,258.38s-.37-4.59,5.84-9.17"/><path class="cls-16" d="M94.63,239.58c1.71,1.7,1.34,7.61-2.56,11.68s-10.43,4.19-11.57,3c-1.36-1.36-1.42-7.7,2.57-11.68C86.42,239.27,92.44,237.38,94.63,239.58Z"/><path class="cls-14" d="M82.37,252.58a8.86,8.86,0,0,1,3.27-3.39"/><line class="cls-9" x1="70.04" y1="273.31" x2="70.04" y2="275.16"/><line class="cls-9" x1="89.93" y1="273.44" x2="89.93" y2="275.29"/><path class="cls-6" d="M77.35,275.38a3.84,3.84,0,0,0,2.55,1.15,3.75,3.75,0,0,0,2.51-1.15"/><path class="cls-5" d="M157.36,311.53c-3.27-11.13,3.35-14,16.23-20,15.22-7.08,25.37-23.68,29.52-32.4,1.9-4,1.07-6,7-10,4.17-2.84-1.34-12.15,6.53-12.52,7.61-.36,5,8.73,5.56,11.18.67,2.68,2.13,3.8,3.73,5.9,2.26,3,7.79,26.62-9.48,48C197.19,325.55,161,324,157.36,311.53Z"/><line class="cls-9" x1="202.86" y1="275.38" x2="201.75" y2="277.11"/><line class="cls-9" x1="218.21" y1="284.21" x2="217.1" y2="285.94"/><path class="cls-6" d="M207.05,280a4.31,4.31,0,0,0,1.6,2.56c1.13.72,3.22.2,3.22.2"/><line class="cls-10" x1="212.21" y1="244.2" x2="215.62" y2="244.44"/><line class="cls-10" x1="220.81" y1="244.16" x2="221.85" y2="243.86"/><path class="cls-17" d="M289.75,273.28s0-17,12.45-27a42.64,42.64,0,0,1,8.81-5.7,13.09,13.09,0,0,1,5.62-1.17l13.84.21a12.74,12.74,0,0,1,4.87,1,21.78,21.78,0,0,1,7.59,5.2c3.87,4.41,6.37,14,3.4,16.75s-12.27,2.26-17.73-3.59c-4.18-4.47-5.41-10.26-5.77-13.15a2,2,0,0,0-2-1.79l-3.07,0a.3.3,0,0,0-.31.32,50.11,50.11,0,0,0,3.67,16,61.15,61.15,0,0,0,8.43,13.13"/><path class="cls-18" d="M294.43,273.55s.27-11,5.58-17.9a47.34,47.34,0,0,1,9-8.67,2.45,2.45,0,0,1,3.88,1.51,85.27,85.27,0,0,0,3.41,12.43c1,2.68,6.71,12.54,6.71,12.54"/><path class="cls-19" d="M319.77,245l5.46-.73a4.32,4.32,0,0,1,2.81,1.22l6.95,6.83"/><circle class="cls-6" cx="326.18" cy="295.05" r="21.71" transform="translate(-36.47 543.91) rotate(-76.59)"/><path class="cls-6" d="M309.11,308.93a21.71,21.71,0,1,1-.18-27.83"/><line class="cls-9" x1="280.75" y1="289.4" x2="280.75" y2="290.95"/><line class="cls-9" x1="316.9" y1="289.48" x2="316.9" y2="291.03"/><line class="cls-9" x1="336.18" y1="289.4" x2="336.18" y2="290.95"/><line class="cls-9" x1="300.28" y1="289.36" x2="300.28" y2="290.91"/><path class="cls-10" d="M288,291.16a3.6,3.6,0,0,0,2.47,1.22,3.52,3.52,0,0,0,2.44-1.19"/><path class="cls-10" d="M323.78,291.07a3.6,3.6,0,0,0,2.47,1.22,3.52,3.52,0,0,0,2.44-1.19"/><circle class="cls-6" cx="438.45" cy="293.23" r="25.64" transform="translate(78.27 678.58) rotate(-80.71)"/><circle cx="438.22" cy="293.03" r="20.84"/><line class="cls-14" x1="438.69" y1="282.84" x2="438.69" y2="286.21"/><line class="cls-14" x1="438.69" y1="300.27" x2="438.69" y2="303.64"/><line class="cls-14" x1="433.51" y1="284.1" x2="435.06" y2="287.21"/><line class="cls-14" x1="442.22" y1="299.3" x2="443.77" y2="302.41"/><line class="cls-14" x1="429.65" y1="288" x2="432.51" y2="289.75"/><line class="cls-14" x1="444.78" y1="296.65" x2="447.65" y2="298.4"/><line class="cls-14" x1="428.32" y1="293.16" x2="431.66" y2="293.18"/><line class="cls-14" x1="445.65" y1="293.16" x2="449" y2="293.18"/><line class="cls-14" x1="429.79" y1="298.38" x2="432.57" y2="296.7"/><line class="cls-14" x1="444.77" y1="289.67" x2="447.55" y2="287.99"/><line class="cls-14" x1="433.46" y1="302.17" x2="435.15" y2="299.28"/><line class="cls-14" x1="442.17" y1="287.13" x2="443.86" y2="284.24"/><path class="cls-6" d="M412.43,293.31c-7.22,1-14.42-.86-19.35-5.8-13.6-13.63-9.79-25.65.58-37.12s25.14-16.24,37-4.4c6.44,6.44,8.89,13.92,8,21.28"/><line class="cls-9" x1="413.54" y1="250.26" x2="411.93" y2="251.87"/><line class="cls-9" x1="427.84" y1="264.66" x2="426.22" y2="266.28"/><line class="cls-6" x1="407.8" y1="238.63" x2="408.85" y2="241.78"/><line class="cls-6" x1="419.72" y1="237.77" x2="418.93" y2="240.93"/><line class="cls-6" x1="397.54" y1="244.25" x2="399.56" y2="246.81"/><line class="cls-6" x1="389.54" y1="252.54" x2="391.88" y2="254.42"/><line class="cls-6" x1="383.88" y1="262.63" x2="386.74" y2="263.71"/><line class="cls-6" x1="383.17" y1="274.6" x2="386.07" y2="273.92"/><line class="cls-6" x1="388.66" y1="285" x2="390.93" y2="283"/><line class="cls-6" x1="397.5" y1="292.46" x2="398.96" y2="289.75"/><line class="cls-6" x1="407.77" y1="295.02" x2="407.71" y2="291.95"/><line class="cls-6" x1="428.02" y1="245.83" x2="429.95" y2="243.4"/><line class="cls-6" x1="434.76" y1="253.96" x2="437.56" y2="252.29"/><line class="cls-6" x1="437.14" y1="263.85" x2="440.23" y2="263.97"/><path class="cls-6" d="M417.22,257.15a4.38,4.38,0,0,0,1.1,2.82,3.77,3.77,0,0,0,2.72,1"/><path class="cls-5" d="M555.14,258a29.79,29.79,0,0,1,11.29,23.5c0,9-5.09,14.74-10.93,23.16-4.86,7-8.28,13.65-17.1,13.65s-12.56-7-17.51-14.31c-5.26-7.74-10.47-12.3-10.47-21.42,0-10.09,3.87-18.53,10.18-23.92"/><path class="cls-7" d="M534.74,248.42v-9.64a3.74,3.74,0,0,1,3.74-3.75h0a3.75,3.75,0,0,1,3.75,3.75l0,9.74a1.64,1.64,0,0,0,1.14,1.57c3.12,1,11.31,3.8,12.38,5.46s-.2,3.24-1,4.07-3.71,3.51-9.28-.21a.39.39,0,0,0-.61.24c-.33,1.87-1.71,7.41-6.54,7.28s-6.09-5.48-6.39-7.32a.4.4,0,0,0-.6-.26c-1.26.84-4.61,2.79-7,1.93-3-1.09-4.62-2.87-3.42-5.29,1-2,9-5.09,12.49-6A1.65,1.65,0,0,0,534.74,248.42Z"/><line class="cls-9" x1="527.87" y1="288.27" x2="527.87" y2="290.05"/><line class="cls-9" x1="548.84" y1="288.33" x2="548.84" y2="290.11"/><path class="cls-6" d="M535.69,290.16a4.51,4.51,0,0,0,2.8,1.37,4,4,0,0,0,2.67-1.4"/><path class="cls-10" d="M522.39,270.79c0,1.82-1.12,3.29-2.51,3.29s-2.52-1.47-2.52-3.29,1.13-3.3,2.52-3.3S522.39,269,522.39,270.79Z"/><path class="cls-10" d="M534.87,272.46c0,1.82-1.13,3.29-2.52,3.29s-2.51-1.47-2.51-3.29,1.13-3.3,2.51-3.3S534.87,270.64,534.87,272.46Z"/><path class="cls-10" d="M520.5,284.52c0,1.82-1.12,3.29-2.51,3.29s-2.52-1.47-2.52-3.29,1.13-3.3,2.52-3.3S520.5,282.7,520.5,284.52Z"/><path class="cls-10" d="M540.76,282.62c0,1.82-1.12,3.3-2.51,3.3s-2.52-1.48-2.52-3.3,1.13-3.29,2.52-3.29S540.76,280.8,540.76,282.62Z"/><path class="cls-10" d="M547.07,272.39c0,1.82-1.13,3.29-2.52,3.29s-2.51-1.47-2.51-3.29,1.12-3.29,2.51-3.29S547.07,270.57,547.07,272.39Z"/><path class="cls-10" d="M559.2,270.76c0,1.82-1.13,3.3-2.52,3.3s-2.51-1.48-2.51-3.3,1.12-3.29,2.51-3.29S559.2,268.94,559.2,270.76Z"/><path class="cls-10" d="M561.43,284.45c0,1.82-1.12,3.3-2.51,3.3s-2.52-1.48-2.52-3.3,1.13-3.29,2.52-3.29S561.43,282.63,561.43,284.45Z"/><path class="cls-10" d="M553.23,299.43c0,1.82-1.12,3.29-2.51,3.29s-2.52-1.47-2.52-3.29,1.13-3.3,2.52-3.3S553.23,297.61,553.23,299.43Z"/><path class="cls-10" d="M541,301.12c0,1.82-1.13,3.3-2.52,3.3s-2.51-1.48-2.51-3.3,1.12-3.29,2.51-3.29S541,299.3,541,301.12Z"/><path class="cls-10" d="M528.64,299.43c0,1.82-1.13,3.29-2.52,3.29s-2.51-1.47-2.51-3.29,1.12-3.3,2.51-3.3S528.64,297.61,528.64,299.43Z"/><path class="cls-10" d="M534.73,309.52c0,1.82-1.12,3.3-2.51,3.3s-2.52-1.48-2.52-3.3,1.13-3.29,2.52-3.29S534.73,307.7,534.73,309.52Z"/><path class="cls-10" d="M547.13,309.46c0,1.82-1.12,3.29-2.51,3.29s-2.52-1.47-2.52-3.29,1.13-3.3,2.52-3.3S547.13,307.64,547.13,309.46Z"/><path class="cls-20" d="M688.64,269.68c-1-15.24-18-25.84-35-25.84s-35.31,10.44-35,25.64a9,9,0,0,0,2.11,5.27c3.17,3.9,6.65,6.21,13.05,6.05l40.23.13a16.12,16.12,0,0,0,12.43-5.58C687.87,273.68,688.82,272.23,688.64,269.68Z"/><path class="cls-9" d="M672.6,281s.06,3.47.24,5.16a17.29,17.29,0,0,0,.5,2.58l1.22,4.48a15.85,15.85,0,0,1-8.82,18.86,16.55,16.55,0,0,1-6.36,1.26H648.1A15.64,15.64,0,0,1,633,293.09l1.29-4.56a13.93,13.93,0,0,0,.5-3.74c0-1.54.11-3.64.11-3.64"/><line class="cls-9" x1="644.96" y1="294.25" x2="644.92" y2="296.12"/><line class="cls-9" x1="662.53" y1="294.29" x2="662.49" y2="296.17"/><path class="cls-6" d="M651.5,296.58a3,3,0,0,0,2.28,1.05,2.88,2.88,0,0,0,2.24-1"/><path class="cls-6" d="M758.64,240.83c7.31-3.37,19.57-.26,23.2,7.64a.87.87,0,0,0,1.08.48,11.84,11.84,0,0,1,11.22,1.86A10.63,10.63,0,0,1,797,263.34a.86.86,0,0,0,.39,1.17,16.94,16.94,0,0,1,9.54,16.37A17.41,17.41,0,0,1,793,297.68c-2.94.59-10.79-.25-13.81-2.9a.86.86,0,0,0-1.19,0,13.86,13.86,0,0,1-11,4.27c-6.37-.55-10.83-6.06-11.88-9.73a.86.86,0,0,0-1.4-.39,13.4,13.4,0,0,1-10.59,3.3c-7.2-1-16.3-9.09-11.5-20.47,3.72-8.82,12.67-8,16.56-7.35a.86.86,0,0,0,1-1.13C747.7,259.2,745,247.16,758.64,240.83Z"/><path class="cls-7" d="M784.67,297.64a1,1,0,0,1,.42,1.53c-.29.34-.61.74-.89,1.14a15.62,15.62,0,0,0-2.61,7c-.29,2.27-.84,5-1.84,6-1.39,1.35-9.32,2.82-11.4,2.89s-9.85-1.9-11.22-3.4-.46-4.17-1.3-7.69c-.68-2.82-6.62-9.1-8.93-11.46a.76.76,0,0,1,.32-1.26,25.44,25.44,0,0,0,6.13-2.61,1.27,1.27,0,0,1,1.86.52c.77,1.64,2.14,4.12,3.78,5.13,2.56,1.57,7,4.39,10.89,3.61a23.13,23.13,0,0,0,7.52-3.17,2.18,2.18,0,0,1,2.22-.15C780.8,296.27,783.16,297.12,784.67,297.64Z"/><line class="cls-9" x1="759.05" y1="277.21" x2="759.05" y2="279.02"/><line class="cls-9" x1="778.35" y1="277.17" x2="778.35" y2="278.98"/><path class="cls-6" d="M766,279.08a3.41,3.41,0,0,0,2.66,1.13,2.78,2.78,0,0,0,2.47-1.22"/><path class="cls-16" d="M894.05,294.27a.85.85,0,0,0-.75.83l-.2,14.65a9.84,9.84,0,0,1-9.83,9.83h0a9.84,9.84,0,0,1-9.83-9.83V295a.84.84,0,0,0-.73-.84c-2.79-.35-12.77-2.17-14.79-10.08-1.58-6.2-.95-10.53-.37-12.7a2.84,2.84,0,0,1,2.05-2c2.79-.71,8.8-1.75,12.81,0,5.51,2.45,9.28,8.41,10.24,10.06a.26.26,0,0,0,.46,0c.9-1.79,4.58-8.37,10.65-10.23a21.88,21.88,0,0,1,12.36.18,2.83,2.83,0,0,1,1.88,1.85c1,2.94,2.64,10-1.06,15.56C903,292.74,896.26,294,894.05,294.27Z"/><line class="cls-15" x1="872.64" y1="282.19" x2="872.64" y2="284.38"/><line class="cls-15" x1="893.24" y1="281.64" x2="893.24" y2="284.38"/><path class="cls-14" d="M880.41,285a3.52,3.52,0,0,0,5.48,0"/><path class="cls-6" d="M871.53,268.79c0-6.13,5.71-14.91,11.41-14.91s11.58,7.94,11.58,14.91"/><path class="cls-6" d="M860.84,268.8c-1.93-4.84-2.26-10.79.47-13.08,3.05-2.55,9.45-1.11,14.12,2.37"/><path class="cls-6" d="M882.72,252.63c-1.74-4.91-3.34-11-8.39-11.09-4-.06-7.82,5.41-9,11.11"/><path class="cls-6" d="M901.21,253.47c-1.74-4.91-4.28-11.92-9.32-12-4-.06-7.33,5.62-8.54,11.32"/><path class="cls-6" d="M905.39,268.7c1.9-4.78,2.2-10.69-.53-13-3-2.55-9.39-1.14-14,2.29"/><path class="cls-6" d="M877.26,242.35c0-2.06,3.89-5.87,5.85-5.87,2.66,0,6.21,4.61,5.78,5.72"/><path class="cls-5" d="M1015.23,251.71c-9.12-6.58-19.23-3-19.23-3s2.4,6.46,6.78,10.14a112.32,112.32,0,0,0,10.77,7.82s-.58-5.87.05-8.18,2-6.53,2-6.53"/><path class="cls-6" d="M1019.77,310.87c9.85-5.66,15.91-17.65,15.91-29a34.37,34.37,0,0,0-9.23-23.44,6.26,6.26,0,0,1-1.68-4.51h0a6,6,0,0,1,1.1-3.25c.93-1.3,1.94-3.45.25-5.22-2.63-2.74-8.1-2.06-12.1,11.29-2.87,9.57,2.85,18.74,4.56,20.68s6,5.71,5.94,12c-.11,7.1-4.55,10.05-5.1,11.45-1.43,3.63,2,7,1.45,8.69"/><path class="cls-16" d="M1023.91,307.2c-4.94-.58-11.58-4.55-11.57-11.5,0-5.74-2.22-9-5-12.24-4.1-4.8-10-4.8-12.31-4.92-1.23-.07-9.87-1.16-9.69-9.62.23-11.55-9.85-16.24-11.55-16.86s-8.38-2.61-10.39,1.85c-1.5,3.35,2.41,5,4.46,5.56a3,3,0,0,1,1.8,1.4l.05.09a3,3,0,0,1,0,2.9,39.69,39.69,0,0,0-4.63,18c0,19.2,15.79,34.76,35.28,34.76a35.47,35.47,0,0,0,19.1-5.53"/><path class="cls-6" d="M1013.65,266.83c-7.19-3.11-17.67-13.25-19.43-20.15-.8-3.15-3.32-6.27-6.07-5.31-3.89,1.37-2,5.16-2.66,8.54-.75,3.7-6.36,5.26-6.36,5.26"/><line class="cls-15" x1="982.31" y1="286.75" x2="982.31" y2="288.39"/><line class="cls-15" x1="1001.04" y1="286.91" x2="1001.04" y2="288.45"/><path class="cls-19" d="M989.14,288.53a4.5,4.5,0,0,0,2.57,1.14,3.86,3.86,0,0,0,2.35-1.08"/><path class="cls-7" d="M1153.61,286.58c.21,19.5-17.89,31.58-40,31.41-19.85-.16-39.29-9.79-39.37-31.26-.08-19.49,19.5-32,38.93-32C1133,254.78,1153.39,266.37,1153.61,286.58Z"/><path class="cls-8" d="M1139.18,286.91c0,17.5-5.84,33.32-25,33.38-20.43.06-25.74-16.51-25.74-34s8.08-33.61,25.52-33.61S1139.18,269.41,1139.18,286.91Z"/><path class="cls-7" d="M1128.89,239.89c0-2-1.81-3.06-3.51-3.11s-7.69.95-11.55,4.62a17.1,17.1,0,0,0-5.32,10.74s4.47-.15,6,0,5.37.45,5.37.45-1.15-1.2-.7-3.91a6,6,0,0,1,5.37-5.22C1127.45,243.18,1128.84,242.55,1128.89,239.89Z"/><line class="cls-9" x1="1103.88" y1="277.6" x2="1103.88" y2="279.28"/><line class="cls-9" x1="1123.75" y1="277.65" x2="1123.75" y2="279.33"/><path class="cls-6" d="M1111.25,279.51a4.31,4.31,0,0,0,2.51,1.23,3.8,3.8,0,0,0,2.59-1.28"/><rect class="cls-5" x="40.64" y="441.04" width="78.38" height="18.5" rx="4.88"/><rect class="cls-7" x="72.01" y="446.55" width="15.76" height="7.73" rx="3.61"/><path class="cls-5" d="M92,400.36a33.63,33.63,0,0,1,21.32,31.3v9.16H46.11v-9.16c0-14.49,10.31-27.22,23.16-32"/><path class="cls-7" d="M68.56,384.5v.37a6.46,6.46,0,0,1-1.27,4.07l-.69.92a1.69,1.69,0,0,0-.19,1.68l1.2,2.75a6.62,6.62,0,0,1,.47,1.63l.43,2.85A1.67,1.67,0,0,0,69.4,400l2.44,1.29a6.29,6.29,0,0,1,1.93,1.55l1.09,1.29a1.7,1.7,0,0,0,1.5.58l2.43-.3a6.57,6.57,0,0,1,2.38.14L83,405a1.68,1.68,0,0,0,1.72-.57l.76-.92a6.51,6.51,0,0,1,2.92-2l2-.69a1.69,1.69,0,0,0,1.14-1.69l-.05-.94a6.51,6.51,0,0,1,1-3.86l.61-.94a1.72,1.72,0,0,0,.09-1.67l-1.09-2.18a6.54,6.54,0,0,1-.68-2.71l0-1.52a1.64,1.64,0,0,0-.8-1.38l-2.44-1.51a7.11,7.11,0,0,1-1.18-.93l-2-2a1.73,1.73,0,0,0-1.38-.49l-2.2.24a6.27,6.27,0,0,1-2.36-.18l-1.83-.48a1.69,1.69,0,0,0-1.54.35l-1.93,1.66a6.52,6.52,0,0,1-1.51,1l-2.82,1.3A1.71,1.71,0,0,0,68.56,384.5Z"/><path class="cls-5" d="M53.68,410.37l8.16,3a10.7,10.7,0,0,0,6.31.29l7.65-2a13.07,13.07,0,0,1,7.23.18l6.11,1.92a10.7,10.7,0,0,0,6.55-.05l10-3.32"/><path class="cls-5" d="M46.11,431.66,51,429.4a8,8,0,0,1,5.86-.33l5.64,1.86a13.19,13.19,0,0,0,8.08.07l6-1.89a8,8,0,0,1,4.51-.08l7.12,2a13.23,13.23,0,0,0,7,0l7-1.92a8,8,0,0,1,3.34-.2L113,430"/><line class="cls-6" x1="66.54" y1="419.33" x2="66.54" y2="421.88"/><line class="cls-6" x1="93.31" y1="419.35" x2="93.31" y2="421.89"/><path class="cls-6" d="M76.36,421.8a5.6,5.6,0,0,0,3.47,1.55,5.07,5.07,0,0,0,3.52-1.55"/><path class="cls-5" d="M200.11,397l-11.91.05-16.16-19a.08.08,0,0,1,.06-.14l43.81-.09a.1.1,0,0,1,.07.16Z"/><path class="cls-5" d="M175.83,424.9l-16.36-19.35A13.29,13.29,0,0,1,161,386.82l10.35-8.74a.47.47,0,0,1,.67.05L193.88,404"/><path class="cls-5" d="M211.61,424.91l6.92,8.19a.89.89,0,0,1-.11,1.25l-19.5,16.49a.88.88,0,0,1-1.25-.11l-4.17-4.92"/><path class="cls-5" d="M170.2,434.64l19.06,16a1,1,0,0,0,1.44-.13l38.36-45.84a12.57,12.57,0,0,0-1.58-17.7l-10.75-9a.3.3,0,0,0-.43,0L170.07,433.2A1,1,0,0,0,170.2,434.64Z"/><line class="cls-9" x1="184.75" y1="383.08" x2="184.75" y2="384.8"/><line class="cls-9" x1="203.83" y1="383" x2="203.83" y2="384.72"/><path class="cls-6" d="M191.92,384.66a4.35,4.35,0,0,0,2.17,1,4.31,4.31,0,0,0,2.56-1"/><path class="cls-7" d="M165.72,435.72h4.69a0,0,0,0,1,0,0V449.3a2.06,2.06,0,0,1-2.06,2.06h-.57a2.06,2.06,0,0,1-2.06-2.06V435.72A0,0,0,0,1,165.72,435.72Z" transform="translate(324.17 -4.34) rotate(39.97)"/><path class="cls-7" d="M172.42,441.14h4.69a0,0,0,0,1,0,0v13.58a2.06,2.06,0,0,1-2.06,2.06h-.57a2.06,2.06,0,0,1-2.06-2.06V441.14a0,0,0,0,1,0,0Z" transform="translate(329.22 -7.39) rotate(39.97)"/><path class="cls-7" d="M179.23,446.84h4.69a0,0,0,0,1,0,0v13.58a2.06,2.06,0,0,1-2.06,2.06h-.57a2.06,2.06,0,0,1-2.06-2.06V446.84a0,0,0,0,1,0,0Z" transform="translate(334.46 -10.43) rotate(39.97)"/><path class="cls-7" d="M204.39,446.62h4.69a0,0,0,0,1,0,0V460.2a2.06,2.06,0,0,1-2.06,2.06h-.57a2.06,2.06,0,0,1-2.06-2.06V446.62A0,0,0,0,1,204.39,446.62Z" transform="translate(-240.68 232.92) rotate(-39.2)"/><path class="cls-7" d="M211.24,441h4.69a0,0,0,0,1,0,0v13.58a2.06,2.06,0,0,1-2.06,2.06h-.57a2.06,2.06,0,0,1-2.06-2.06V441a0,0,0,0,1,0,0Z" transform="translate(-240.7 247.16) rotate(-40.62)"/><path class="cls-7" d="M217.89,435.56h4.69a0,0,0,0,1,0,0v13.58a2.06,2.06,0,0,1-2.06,2.06h-.57a2.06,2.06,0,0,1-2.06-2.06V435.56A0,0,0,0,1,217.89,435.56Z" transform="translate(-236.68 252.81) rotate(-40.95)"/><path class="cls-5" d="M290.83,432.22s-24.95-2.45-21.36-21c3.13-16.15,19.7-11.25,19.7-11.25s-3.67-15.11,9.58-18.86C313.86,376.8,318.44,393,318.44,393S322.7,380.27,333,379.1c14.49-1.64,18.16,13,16,19.54-2.43,7.56-13,11.27-13,11.27s16.76,7,11.06,20.33c-5.4,12.61-18.62,9-18.62,9s4.45,16.08-10.86,19.94S296.66,441,295.72,436.83"/><path class="cls-7" d="M301.13,433.08a1.08,1.08,0,0,0-1.23.22l-20,20.06a3.31,3.31,0,0,1-4.69,0h0a3.32,3.32,0,0,1,0-4.7l20-20a1.07,1.07,0,0,0,.22-1.23l-6.24-13.57a3.3,3.3,0,0,1,1.73-4.43h0a3.3,3.3,0,0,1,4.22,1.57l5.75,11.54a.24.24,0,0,0,.38.06l6.47-6.47a1.35,1.35,0,0,0,.27-1.52l-3.79-8a3.3,3.3,0,0,1,1.49-4.36h0a3.3,3.3,0,0,1,4.45,1.5l3.13,6.39a.24.24,0,0,0,.39.06l4.68-4.68a3.32,3.32,0,0,1,4.7,0h0a3.31,3.31,0,0,1,0,4.69l-4.67,4.68a.24.24,0,0,0,.07.39l6.37,2.92a3.25,3.25,0,0,1,1.63,4.24h0a3.26,3.26,0,0,1-4.39,1.65l-7.85-3.77a1.33,1.33,0,0,0-1.52.26l-6.82,6.82a.24.24,0,0,0,.06.38l11.45,5.44a3.35,3.35,0,0,1,1.53,4.58h0a3.35,3.35,0,0,1-4.38,1.48Z"/><line class="cls-9" x1="329.09" y1="388.4" x2="329.96" y2="387.53"/><line class="cls-9" x1="340.04" y1="399.3" x2="340.91" y2="398.42"/><path class="cls-6" d="M333,392.58a2.88,2.88,0,0,0,.62,2.07,3.31,3.31,0,0,0,2.17.69"/><path class="cls-7" d="M455,447.46c-7.44,7.44-18.22,10.91-30.13,10.91-12.6,0-24.62-4.67-30.68-11.07-6.4-6.77-10.14-16.35-6.91-19,3.71-3.06,7.61,3.18,15.05,5.08,5.65,1.44,9.24.11,14.65-2.14a22.62,22.62,0,0,1,17.59.67,18.7,18.7,0,0,0,17.24-.56c5.75-3.15,8.57-5.18,10.71-2.25S461,441.42,455,447.46Z"/><path class="cls-5" d="M387.47,429.06a37.13,37.13,0,0,1-.56-6.95c.16-14.55,9.7-22.95,17.37-28a101.2,101.2,0,0,0,16.41-13,5.82,5.82,0,0,1,8.16-.16,138.65,138.65,0,0,0,16.56,13.68c12.67,8.6,16.87,16.08,16.87,27.49a53.46,53.46,0,0,1-.36,6"/><line class="cls-14" x1="409.15" y1="441.8" x2="409.15" y2="444.44"/><line class="cls-14" x1="439.85" y1="441.8" x2="439.85" y2="444.44"/><path class="cls-14" d="M418.64,445.52s0,3,2.62,3c1.64,0,2.76-1.08,3.54-2.88,0,0,.06-.05.07,0,.22.76,1.05,2.82,3.1,2.79s2.76-2.76,2.76-2.76"/><rect class="cls-7" x="501.15" y="431.23" width="77.91" height="17.34" rx="5.26" transform="translate(-118.64 213.45) rotate(-20.19)"/><path class="cls-5" d="M538.66,449.54l27.71,10a6.16,6.16,0,0,0,7.88-3.71l1.7-4.72a6.16,6.16,0,0,0-3.7-7.89l-7.73-2.78"/><path class="cls-5" d="M538.62,431.09,510.55,421a6.16,6.16,0,0,0-7.88,3.71L501,429.4a6.17,6.17,0,0,0,3.71,7.89l8.79,3.17"/><path class="cls-5" d="M528.21,426.77s1.49-6.18,2.36-8.63c.59-1.69,3.34-5.36,5.63-8.24a4.08,4.08,0,0,1,6.44,0c2.29,3,5.06,6.7,5.52,8.05.68,2,2.75,8.43,2.75,8.43"/><path class="cls-5" d="M512.87,421.53s-5.36-14,4.18-25.66a1.22,1.22,0,0,1,2,.2c1.32,2.54,3.91,7.21,5.16,7.05,1.61-.2,1.66-7.58,5.3-14.51,2.92-5.56,8-9.23,10.79-10.92a1.38,1.38,0,0,1,2.09,1,36.65,36.65,0,0,0,2.29,9.72,72.25,72.25,0,0,0,6.12,10.69s1.18-2.94,1.83-4.6a27.72,27.72,0,0,0,.91-3.53,1.54,1.54,0,0,1,2.56-.83c4.71,4.31,15.38,16.14,10,30.9"/><line class="cls-9" x1="523.96" y1="415.42" x2="523.96" y2="418.2"/><line class="cls-9" x1="554.89" y1="415.36" x2="554.89" y2="418.15"/><path class="cls-6" d="M536.22,418.52a4.9,4.9,0,0,0,3.21,1.5,7.21,7.21,0,0,0,3.1-1.44"/><path class="cls-5" d="M637.68,459.79l-24.5-24.5a5.54,5.54,0,0,1,.22-8,110.67,110.67,0,0,1,12.19-9.55c11-7.33,25.42-8.92,25.42-8.92l13,13.11s-1.43,14.26-9.28,26.15a109.25,109.25,0,0,1-9,11.51A5.51,5.51,0,0,1,637.68,459.79Z"/><rect class="cls-5" x="656.35" y="398.77" width="9.29" height="26.41" rx="4.28" transform="translate(-97.71 588.06) rotate(-45)"/><line class="cls-6" x1="625.12" y1="429.33" x2="616.61" y2="437.83"/><line class="cls-6" x1="631.54" y1="435.41" x2="623.09" y2="443.87"/><line class="cls-6" x1="637.4" y1="441.59" x2="628.94" y2="450.05"/><line class="cls-6" x1="643.5" y1="447.64" x2="635.04" y2="456.1"/><line class="cls-9" x1="643.43" y1="415.61" x2="641.64" y2="417.37"/><line class="cls-9" x1="657.38" y1="429.61" x2="655.59" y2="431.37"/><path class="cls-6" d="M646.64,422.58a4.89,4.89,0,0,0,1,2.77,3.42,3.42,0,0,0,2.72.87"/><path class="cls-16" d="M679.39,371.07h.85a5,5,0,0,1,5,5v39a0,0,0,0,1,0,0H674.42a0,0,0,0,1,0,0V376A5,5,0,0,1,679.39,371.07Z" transform="translate(477.03 -365.58) rotate(45)"/><polygon class="cls-16" points="657.84 442.19 653.91 448.76 624.1 419.3 630.63 414.95 657.84 442.19"/><path class="cls-16" d="M747.4,399.34h68.25a4.12,4.12,0,0,1,4.12,4.12V405a4.12,4.12,0,0,1-4.12,4.12H747.4a0,0,0,0,1,0,0v-9.78A0,0,0,0,1,747.4,399.34Z" transform="translate(-56.33 672.47) rotate(-45)"/><rect class="cls-21" x="758.33" y="417.33" width="9.77" height="14.53" transform="translate(523.77 -415.31) rotate(45)"/><line class="cls-15" x1="777.7" y1="408.44" x2="779.13" y2="409.79"/><line class="cls-15" x1="794.02" y1="392.18" x2="795.45" y2="393.53"/><path class="cls-14" d="M784.65,402.3a4.12,4.12,0,0,0,2.49-1,3.18,3.18,0,0,0,.9-2.41"/><rect class="cls-6" x="750.57" y="404.16" width="8.48" height="57.58" rx="3.57" transform="translate(-85.06 660.54) rotate(-45)"/><path d="M732.31,418.95h1a2.67,2.67,0,0,1,2.67,2.67v6.67a0,0,0,0,1,0,0h-6.34a0,0,0,0,1,0,0v-6.67A2.67,2.67,0,0,1,732.31,418.95Z" transform="translate(951.44 1241.33) rotate(-135)"/><path d="M740.18,426.89h1a2.67,2.67,0,0,1,2.67,2.67v6.67a0,0,0,0,1,0,0h-6.34a0,0,0,0,1,0,0v-6.67A2.67,2.67,0,0,1,740.18,426.89Z" transform="translate(959.27 1260.46) rotate(-135)"/><path d="M748,434.66h1a2.67,2.67,0,0,1,2.67,2.67V444a0,0,0,0,1,0,0h-6.34a0,0,0,0,1,0,0v-6.67A2.67,2.67,0,0,1,748,434.66Z" transform="translate(967.04 1279.22) rotate(-135)"/><path d="M755.79,442.55h1a2.67,2.67,0,0,1,2.67,2.67v6.67a0,0,0,0,1,0,0h-6.34a0,0,0,0,1,0,0v-6.67A2.67,2.67,0,0,1,755.79,442.55Z" transform="translate(974.83 1298.23) rotate(-135)"/><path d="M763.48,450.21h1a2.67,2.67,0,0,1,2.67,2.67v6.67a0,0,0,0,1,0,0h-6.34a0,0,0,0,1,0,0v-6.67A2.67,2.67,0,0,1,763.48,450.21Z" transform="translate(982.55 1316.74) rotate(-135)"/><path class="cls-7" d="M875.77,433.12l6,5.91a6.5,6.5,0,0,1-.64,9.78c-4.39,3.36-10.33,7.52-14.34,8.8-2.69.85-7.28,2.36-11.83,2.49-8.73.24-12.87-5.11-12.56-12.61a38.07,38.07,0,0,1,2.79-11.86c1.31-3.33,5.22-9.17,8.41-13.69a6.63,6.63,0,0,1,10.07-.87l5.12,5.08"/><rect class="cls-7" x="902.55" y="374.62" width="18.31" height="32.8" rx="8.73" transform="translate(-9.47 759.18) rotate(-45)"/><rect class="cls-22" x="908.5" y="383.11" width="6.33" height="15.73" rx="3.02" transform="translate(-9.44 759.16) rotate(-45)"/><path class="cls-8" d="M862.83,439.89s4.19,2.91,13.48-6.37l32.41-32.41L901.58,394l-32.66,32.67C859.67,435.89,862.83,439.89,862.83,439.89Z"/><line class="cls-15" x1="851.96" y1="438.27" x2="850.54" y2="439.68"/><line class="cls-15" x1="864.49" y1="450.69" x2="863.07" y2="452.11"/><path class="cls-14" d="M855.31,444.14a3.43,3.43,0,0,0,.85,2.48,3.32,3.32,0,0,0,2.51.81"/><line class="cls-6" x1="892.31" y1="403.65" x2="898.8" y2="410"/><line class="cls-6" x1="872.15" y1="423.7" x2="879.13" y2="430.66"/><path class="cls-5" d="M972.67,408.1,973.8,407a8.49,8.49,0,0,1,12,0L1012,433.19l-20.38,20.38-26.23-26.22a8.5,8.5,0,0,1,0-12l1.29-1.29"/><rect class="cls-7" x="961.4" y="396.64" width="8.57" height="22.05" rx="3.82" transform="translate(-5.39 802.32) rotate(-45)"/><path class="cls-7" d="M992.95,395.29h33a9,9,0,0,1,9,9v2.21a9,9,0,0,1-9,9h-33a0,0,0,0,1,0,0V395.29a0,0,0,0,1,0,0Z" transform="translate(10.33 835.69) rotate(-45)"/><path class="cls-8" d="M1011.43,389.55h.93a3.78,3.78,0,0,1,3.78,3.78v32.09a0,0,0,0,1,0,0h-8.49a0,0,0,0,1,0,0V393.32a3.78,3.78,0,0,1,3.78-3.78Z" transform="translate(584.51 -596.17) rotate(45)"/><path class="cls-7" d="M967.22,429.26l-3.15,12.46a11.81,11.81,0,0,0,3.39,11.54l4.51,4.23a11.61,11.61,0,0,0,16.22-.37l3.48-3.55Z"/><path class="cls-8" d="M973.36,435.61l-1.81,7a5.25,5.25,0,0,0,1.47,5.13l4.77,4.5a3.27,3.27,0,0,0,4.65-.15l3.55-3.82Z"/><line class="cls-6" x1="979.04" y1="417.43" x2="976.96" y2="419.5"/><line class="cls-6" x1="995.71" y1="434.22" x2="993.63" y2="436.29"/><path class="cls-6" d="M983.4,425.45a3.86,3.86,0,0,0,1.09,3.25,3.81,3.81,0,0,0,3.1,1"/><path class="cls-6" d="M986.52,407.49l.67-3.21a4.16,4.16,0,0,1,2.76-3.1l1.82-.6a3.59,3.59,0,0,0,2.26-2.22l.74-2.12a4.15,4.15,0,0,1,2.72-2.6l2.06-.63a3.59,3.59,0,0,0,2.35-2.25l.76-2.16a4.16,4.16,0,0,1,2.55-2.55l2.47-.86a3.61,3.61,0,0,0,1.93-1.59l1.1-1.9a4.17,4.17,0,0,1,3.58-2.07h1.82a3.61,3.61,0,0,0,1.87-.52l1.49-.91a4.14,4.14,0,0,1,4.6.17l1.07.78a3.55,3.55,0,0,0,2.23.68l1.89-.06a4.14,4.14,0,0,1,3.69,2l1.08,1.79a3.57,3.57,0,0,0,1.28,1.25l2.15,1.25a4.16,4.16,0,0,1,2,4.17l-.16,1.14a3.57,3.57,0,0,0,.6,2.54l.7,1a4.16,4.16,0,0,1-.06,4.81l-.78,1.07a3.64,3.64,0,0,0-.69,2.28l.07,1.57a4.16,4.16,0,0,1-2,3.74l-1.48.88a3.59,3.59,0,0,0-1.69,2.44l-.27,1.42a4.16,4.16,0,0,1-2.66,3.16l-2.27.82a3.6,3.6,0,0,0-2.19,2.28l-.65,2a4.12,4.12,0,0,1-2.62,2.65l-2.16.74a3.6,3.6,0,0,0-2.32,2.49l-.4,1.5a4.14,4.14,0,0,1-2.79,2.9l-3.93,1.22Z"/><path class="cls-7" d="M1096.25,391.16h12a0,0,0,0,1,0,0v74.39a3,3,0,0,1-3,3h-6.09a3,3,0,0,1-3-3V391.16a0,0,0,0,1,0,0Z" transform="translate(626.79 -653.52) rotate(45)"/><path class="cls-5" d="M1154.49,422.27l-.16.17a3.41,3.41,0,0,1-4.82,0l-39.64-39.65a3.4,3.4,0,0,1,0-4.81h0a4.8,4.8,0,0,1,6.61-.18l2.93,2.63a7.74,7.74,0,0,0,6.75,1.83l3.32-.69a7.31,7.31,0,0,1,6.69,2l12.79,13a7.3,7.3,0,0,1,1.89,6.83l-.62,2.6a7.75,7.75,0,0,0,2.13,7.36l2.09,2A4.81,4.81,0,0,1,1154.49,422.27Z"/><path class="cls-7" d="M1141.5,381.11h4.35a2.59,2.59,0,0,1,2.59,2.59V391a2.59,2.59,0,0,1-2.59,2.59h-4.35a0,0,0,0,1,0,0V381.11A0,0,0,0,1,1141.5,381.11Z" transform="translate(61.46 923.06) rotate(-45)"/><line class="cls-9" x1="1128.77" y1="386.92" x2="1126.92" y2="388.79"/><line class="cls-9" x1="1145.31" y1="403.69" x2="1143.46" y2="405.56"/><path class="cls-6" d="M1133.12,394.59a5.17,5.17,0,0,0,1.18,3.49,3.75,3.75,0,0,0,3.24,1"/><rect class="cls-7" x="43.19" y="518.5" width="44.1" height="19.74" rx="3.7"/><line class="cls-6" x1="83.01" y1="559.27" x2="82.93" y2="563.77"/><line class="cls-6" x1="83.18" y1="547.88" x2="83.09" y2="554.31"/><path class="cls-6" d="M84.26,568.42a6.29,6.29,0,0,0,4.39,2.38c4.9.43,11.49,1.15,13.85,2.05a23.81,23.81,0,0,1,9.7,6.94c3.26,4.27,3.35,10.71,3.35,10.71H42.69a120.71,120.71,0,0,1,.87-13.2c.83-5.93,2.53-13.71,2.88-17.84.33-3.82.52-21.12.52-21.12H83.34l-.08,4.88"/><line class="cls-15" x1="53.56" y1="526.58" x2="53.56" y2="528.62"/><line class="cls-15" x1="77.06" y1="526.73" x2="77.06" y2="528.78"/><path class="cls-14" d="M62.26,528.57A4.49,4.49,0,0,0,65.21,530,4.18,4.18,0,0,0,68,528.68"/><path class="cls-6" d="M78.19,548.28a3.54,3.54,0,1,1-2.57-6,3.56,3.56,0,0,1,2,.61"/><path class="cls-6" d="M78,559.29a3.54,3.54,0,1,1-2.58-6,3.51,3.51,0,0,1,2,.6"/><path class="cls-6" d="M79.55,570.38a3.48,3.48,0,0,1-2.44,1.37,3.54,3.54,0,1,1-.74-7,3.59,3.59,0,0,1,2,.39"/><rect class="cls-6" x="76.33" y="543.72" width="8.78" height="4.03" rx="1.88"/><rect class="cls-6" x="76.32" y="554.87" width="8.78" height="4.03" rx="1.88"/><rect class="cls-6" x="77.11" y="564.56" width="8.78" height="4.03" rx="1.88" transform="translate(-165.04 49.98) rotate(-17.33)"/><path class="cls-16" d="M114.54,598.66l-.8.5a4.27,4.27,0,0,1-3.11.49l-2-.43a6.33,6.33,0,0,0-2.6,0l-2,.4a4.33,4.33,0,0,1-2,0l-1.44-.36a6.32,6.32,0,0,0-2.87,0l-1.94.42a4.4,4.4,0,0,1-2,0l-1.36-.34a6.27,6.27,0,0,0-2.76-.07l-2,.42a4.58,4.58,0,0,1-1.77,0l-1.67-.34a6.16,6.16,0,0,0-2.42,0l-2.36.45a4.32,4.32,0,0,1-1.79,0l-1.61-.36a6.26,6.26,0,0,0-2.69,0l-1.82.39a4.34,4.34,0,0,1-1.83,0l-1.84-.39a6.24,6.24,0,0,0-2.72,0l-1.74.41a4.53,4.53,0,0,1-2,0l-1.57-.39a6.29,6.29,0,0,0-2.83,0l-1.7.38a4.28,4.28,0,0,1-1.85,0l-1.94-.4a6.4,6.4,0,0,0-2.65,0l-1.06.24a4.32,4.32,0,0,1-2.82-.31l-.9-.44a2.31,2.31,0,0,1-1.42-2V592.5l72.88.2V597A2,2,0,0,1,114.54,598.66Z"/><path class="cls-6" d="M43.61,576.81s5.73.32,9.16,4.67a15.73,15.73,0,0,1,3.07,8.65"/><path class="cls-6" d="M103.49,573.78a24.65,24.65,0,0,0-6.35,7.79c-2,3.78-1.37,8.79-1.37,8.79"/><line class="cls-6" x1="44.98" y1="571.01" x2="46.95" y2="571.59"/><line class="cls-6" x1="50.51" y1="572.89" x2="52.82" y2="574.19"/><line class="cls-6" x1="55.76" y1="576.26" x2="57.59" y2="578.47"/><line class="cls-6" x1="59.8" y1="581.55" x2="60.86" y2="583.95"/><line class="cls-6" x1="61.82" y1="587.56" x2="61.82" y2="589.54"/><line class="cls-6" x1="89.61" y1="587.62" x2="89.47" y2="589.61"/><line class="cls-6" x1="91.09" y1="581.28" x2="90.2" y2="583.93"/><line class="cls-6" x1="94.04" y1="575.52" x2="92.56" y2="578.03"/><line class="cls-6" x1="96.21" y1="573.11" x2="97.36" y2="571.98"/><path class="cls-5" d="M216,554.4v40.52a5.32,5.32,0,0,1-5.31,5.32H177.82a5.32,5.32,0,0,1-5.32-5.32V554.57a.14.14,0,0,0-.27,0L162.52,597a3.82,3.82,0,0,1-4.62,2.86l-3.27-.78a3.84,3.84,0,0,1-2.86-4.48l9.77-48.39a20.13,20.13,0,0,1,19.73-16.15h25.84a20.14,20.14,0,0,1,19.72,16.09l9.89,48.27a3.83,3.83,0,0,1-2.73,4.45l-3,.83a3.82,3.82,0,0,1-4.74-2.81l-9.94-42.51A.14.14,0,0,0,216,554.4Z"/><path class="cls-7" d="M152.18,590.35h10.54a0,0,0,0,1,0,0v6a3.15,3.15,0,0,1-3.15,3.15h-4.24a3.15,3.15,0,0,1-3.15-3.15v-6a0,0,0,0,1,0,0Z" transform="translate(120.56 -19.37) rotate(11.39)"/><path class="cls-7" d="M229.07,590.22h4.24a3.15,3.15,0,0,1,3.15,3.15v6a0,0,0,0,1,0,0H225.92a0,0,0,0,1,0,0v-6A3.15,3.15,0,0,1,229.07,590.22Z" transform="translate(575.27 1132.24) rotate(168.61)"/><path class="cls-7" d="M187.24,519.77h13.63a4.78,4.78,0,0,1,4.78,4.78V530a0,0,0,0,1,0,0H182.46a0,0,0,0,1,0,0v-5.43A4.78,4.78,0,0,1,187.24,519.77Z"/><path class="cls-7" d="M172.69,591.37h43a0,0,0,0,1,0,0v3.45a5.34,5.34,0,0,1-5.34,5.34H178a5.34,5.34,0,0,1-5.34-5.34v-3.45A0,0,0,0,1,172.69,591.37Z"/><path class="cls-6" d="M191.35,545.7a4.14,4.14,0,0,0,2.88,1.27,4.07,4.07,0,0,0,2.88-1.34"/><line class="cls-9" x1="182.56" y1="543.58" x2="182.59" y2="545.99"/><line class="cls-9" x1="205.86" y1="543.6" x2="205.89" y2="546.01"/><polyline class="cls-5" points="172.81 561.7 178.72 557.93 186.58 562.58 194.06 557.8 201.73 562.64 209.28 557.74 216.13 561.83"/><polyline class="cls-5" points="172.96 569.27 178.87 565.5 186.72 570.15 194.21 565.38 201.88 570.22 209.42 565.31 216.27 569.4"/><polyline class="cls-5" points="172.96 576.99 178.87 573.22 186.72 577.87 194.21 573.09 201.88 577.93 209.42 573.03 216.27 577.12"/><polyline class="cls-5" points="172.96 584.42 178.87 580.65 186.72 585.3 194.21 580.53 201.88 585.37 209.42 580.46 216.27 584.55"/><path class="cls-5" d="M332.32,548.76l-1.52,46.33a4.22,4.22,0,0,1-4.2,4.07l-35,.16a4.22,4.22,0,0,1-4.24-4.09l-1.23-46.63"/><path class="cls-7" d="M295.75,520.61a1.23,1.23,0,0,1,1.41.62c1.12,2.15,4.57,7.47,11.47,7.55a13.06,13.06,0,0,0,12.21-7.62,1.22,1.22,0,0,1,1.41-.66l10.55,2.72a14,14,0,0,1,10,9.8l10.37,37.46a3.88,3.88,0,0,1-2.14,4.57l-2.8,1.27a3.88,3.88,0,0,1-5.18-2l-9.53-22.73a27,27,0,0,0-2.75-5L320.5,531.88a.33.33,0,0,0-.47-.06,17.65,17.65,0,0,1-11,3.58,18.61,18.61,0,0,1-10.95-3.49.31.31,0,0,0-.45.07l-10.55,15.5a27.35,27.35,0,0,0-2.66,4.94l-8.91,21.79a3.87,3.87,0,0,1-5,2.14l-3-1.17a3.89,3.89,0,0,1-2.32-4.64l10.3-37.31a14,14,0,0,1,9.8-9.77Z"/><line class="cls-9" x1="298.03" y1="545.8" x2="298.03" y2="548.67"/><line class="cls-9" x1="320.28" y1="545.54" x2="320.28" y2="548.41"/><path class="cls-6" d="M306.47,547.87a3.28,3.28,0,0,0,2.83,1.28,3.36,3.36,0,0,0,2.65-1.37"/><path class="cls-6" d="M450.12,575.22a35.32,35.32,0,0,0,.33-4.89c0-18.69-6.77-33-34.31-33.84-10.23-.3-19.74,4-23.91,6.13a9.43,9.43,0,0,0-3.61,3.37c-3.29,5.32-6.15,12.58-6.79,24.34-.13,2.44-.42,5.2-.59,7.74a4.3,4.3,0,0,0,4.3,4.57l62.6-.06"/><path class="cls-6" d="M402.65,557.07s2.11-9.69,8.77-14.17c4.9-3.3,13.92-5.48,13.92-5.48"/><path class="cls-6" d="M401.57,561.33s-2,17.22-.72,20.76"/><path class="cls-16" d="M415.26,575.47h45.89a6,6,0,0,1,6,6v1a0,0,0,0,1,0,0h-58a0,0,0,0,1,0,0v-1A6,6,0,0,1,415.26,575.47Z"/><line class="cls-9" x1="413.54" y1="557.82" x2="413.54" y2="560.68"/><line class="cls-9" x1="441.37" y1="557.9" x2="441.37" y2="560.76"/><path class="cls-6" d="M424.08,560.72a4.89,4.89,0,0,0,6.89,0"/><path class="cls-5" d="M575.26,570.77V525.15a5.19,5.19,0,0,0-5.18-5.19H546.45a5.19,5.19,0,0,0-5.18,5.19v32.28a8.71,8.71,0,0,1-4,7.35l-4.83,3.07a15.93,15.93,0,0,0-5.55,20.86l1.13,2.14a15.93,15.93,0,0,0,23,5.79l16.4-11.08A17.83,17.83,0,0,0,575.26,570.77Z"/><path class="cls-5" d="M545.87,520H522.24a5.19,5.19,0,0,0-5.19,5.19v32.28a8.71,8.71,0,0,1-4,7.35l-4.83,3.07a15.92,15.92,0,0,0-5.54,20.86l1.12,2.14a15.93,15.93,0,0,0,23,5.79l3.28-2.21"/><line class="cls-5" x1="511.91" y1="566.08" x2="528.01" y2="596.14"/><line class="cls-5" x1="535.99" y1="566.08" x2="551.96" y2="595.88"/><rect class="cls-7" x="517.12" y="529.49" width="58.13" height="8.78"/><line class="cls-9" x1="547.78" y1="543" x2="547.78" y2="545.95"/><line class="cls-9" x1="568.47" y1="543.1" x2="568.47" y2="546.05"/><path class="cls-6" d="M555.62,545.53a3.63,3.63,0,0,0,2.52,1.13,4,4,0,0,0,2.52-1.17"/><path class="cls-17" d="M573.3,567.8A10.46,10.46,0,0,0,563,578.42c0,3.13.8,5.63,3,7.56,0,0,3.28-2.8,3.67-3.08s3.69-5,3.69-5a39.42,39.42,0,0,0,1.59-5.73c0-1.11.19-4.47.19-4.47Z"/><rect class="cls-7" x="604.93" y="538.91" width="98.46" height="42.41" rx="19.58" transform="translate(-204.46 626.61) rotate(-45)"/><rect class="cls-8" x="637.37" y="547.37" width="33.87" height="25.26" rx="4.78" transform="translate(-204.34 626.68) rotate(-45)"/><circle class="cls-22" cx="629.38" cy="573.1" r="2.87"/><circle class="cls-22" cx="627.28" cy="586.94" r="2.87"/><circle class="cls-22" cx="641.28" cy="585.05" r="2.87"/><circle class="cls-22" cx="667.23" cy="535.12" r="2.87"/><circle class="cls-23" cx="681.25" cy="533.17" r="2.87"/><circle class="cls-22" cx="679.18" cy="547.01" r="2.87"/><path class="cls-6" d="M652.42,562.38a4.47,4.47,0,0,0,2.88-1.08,5.24,5.24,0,0,0,.9-2.83"/><line class="cls-9" x1="645.93" y1="566.14" x2="647.28" y2="567.47"/><line class="cls-9" x1="660.05" y1="552.12" x2="661.41" y2="553.45"/><rect class="cls-7" x="752.98" y="540.43" width="52.85" height="17.79" rx="7.94" transform="translate(616.71 -390.23) rotate(45)"/><rect class="cls-7" x="795" y="515.3" width="8.92" height="27.87" rx="3.98" transform="translate(-140.06 720.32) rotate(-45)"/><rect class="cls-5" x="784.75" y="530.21" width="12.54" height="14.9" transform="translate(611.87 -401.86) rotate(45)"/><path class="cls-5" d="M748.42,551.66h30.3a0,0,0,0,1,0,0V587a0,0,0,0,1,0,0h-30.3a8.13,8.13,0,0,1-8.13-8.13V559.8A8.13,8.13,0,0,1,748.42,551.66Z" transform="translate(-180.13 703.81) rotate(-45)"/><path class="cls-7" d="M768.34,585.52l-3.41,3.41a9.12,9.12,0,0,1-12.88,0l-12.11-12.11a9.11,9.11,0,0,1,0-12.89l5.49-5.51a8.12,8.12,0,0,1,2.1,3c.84,1.81,1.14,4.78,3,7a13.39,13.39,0,0,0,6.26,3.92c2.12.72,3.58,1.08,5,2.55a14.38,14.38,0,0,1,3,5C765.34,581.29,765.94,584.43,768.34,585.52Z"/><path class="cls-5" d="M729.88,586.4h19.4a0,0,0,0,1,0,0v10a0,0,0,0,1,0,0h-19.4a4.47,4.47,0,0,1-4.47-4.47v-1.08A4.47,4.47,0,0,1,729.88,586.4Z" transform="translate(-202.23 694.6) rotate(-45)"/><path class="cls-9" d="M758.22,552.55s1.85-1.29,3.17,0,.05,3.3.05,3.3"/><path class="cls-9" d="M772.85,567.18s1.85-1.28,3.17,0,.05,3.3.05,3.3"/><path class="cls-6" d="M763.7,565.09c1.09,1.09,3,.74,4.11-.38A2.68,2.68,0,1,0,764,561,3,3,0,0,0,763.7,565.09Z"/><path class="cls-5" d="M879.27,583.45c4.78-3.72,42.19-42.06,42.19-42.06l-19.12-19.12s-39.77,39.38-41.45,41.63c-1.06,1.42-3,4.39-2.88,7.83s.13,7.31-3.83,11c-2.49,2.31-7.57,7.38-11,10.81a5,5,0,0,0-.09,7h0a5,5,0,0,0,7.15.08c4-4,9.93-9.9,10.75-10.77a10.82,10.82,0,0,1,8-4C872.43,585.73,876.41,585.68,879.27,583.45Z"/><path class="cls-7" d="M921.54,541.37c12.77-11.47-7.55-32.2-19.11-19.11Z"/><path class="cls-5" d="M861,563.88c-1.05,1.42-3,4.39-2.87,7.83s.13,7.32-3.83,11c-2.5,2.32-7.57,7.38-11,10.82a5,5,0,0,0-.09,7h0a5,5,0,0,0,7.15.07c4-4,9.93-9.89,10.75-10.76a10.86,10.86,0,0,1,8-4c3.38,0,7.36-.1,10.22-2.32"/><rect class="cls-7" x="862.58" y="556.2" width="37.52" height="12.39" rx="5.69" transform="translate(-139.53 787.92) rotate(-45)"/><circle class="cls-5" cx="902.9" cy="540.96" r="4.23"/><path class="cls-14" d="M879.59,564.29a4.51,4.51,0,0,0,2.81-1.06,4.92,4.92,0,0,0,.93-2.71"/><line class="cls-15" x1="873.27" y1="568.82" x2="874.65" y2="570.17"/><line class="cls-15" x1="887.88" y1="554.16" x2="889.27" y2="555.51"/><path class="cls-5" d="M984.81,537.83c0,11.12-4.63,20-10.11,20-7.1,0-10.08-14-10.08-19.8,0-9.67,3.87-20.47,10.08-20.47S984.81,526.71,984.81,537.83Z"/><path class="cls-7" d="M978.06,537.83c0,7.13-1.51,12.8-3.31,12.8-2.32,0-3.3-9-3.3-12.69,0-6.2,1.27-13.13,3.3-13.13S978.06,530.7,978.06,537.83Z"/><path class="cls-5" d="M975.57,517.55h48.76c14.57,0,14,41,0,40.23H975.57"/><path class="cls-9" d="M996.33,533.05a5.15,5.15,0,0,0,2.58.85,4,4,0,0,0,2.41-1"/><path class="cls-9" d="M1018.33,533.17a5.11,5.11,0,0,0,2.58.86,4,4,0,0,0,2.41-1"/><path class="cls-9" d="M1022.6,533.06"/><path class="cls-6" d="M1007.06,534.56a4.29,4.29,0,0,0,2.86,1.26,3.34,3.34,0,0,0,2.66-1.31"/><path class="cls-9" d="M1022.2,601.31H979.69a3.59,3.59,0,0,1-3.55-4.25,42.91,42.91,0,0,0,.89-7.91c0-5.45-4.86-13-5-20-.12-8,2.52-10.9,2.52-10.9l50.34-.16s-2.06,3.09-2,11c.1,7.2,4.89,13.14,4.79,21.8a33,33,0,0,1-1,6.76A4.75,4.75,0,0,1,1022.2,601.31Z"/><path class="cls-9" d="M984.46,558.3s-2,6.54-2.05,9.68c-.07,4.18-.07,6.31,2.15,10.75a25.54,25.54,0,0,1,2.66,10.88c0,2.94-1.19,10.24-2.07,11.41"/><path class="cls-9" d="M994.86,558.49s-2,6.54-2.05,9.68c-.07,4.18-.07,6.3,2.15,10.75a25.5,25.5,0,0,1,2.66,10.88c0,2.94-1.19,10.23-2.07,11.41"/><path class="cls-9" d="M1004.79,558.24s-2,6.54-2,9.68c-.06,4.18-.06,6.3,2.15,10.75a25.53,25.53,0,0,1,2.67,10.88c0,2.93-1.2,10.23-2.08,11.41"/><path class="cls-9" d="M1014.89,558.36s-2,6.54-2,9.68c-.06,4.18-.06,6.3,2.15,10.75a25.53,25.53,0,0,1,2.67,10.88c0,2.94-1.2,10.23-2.08,11.41"/><rect class="cls-6" x="1072.72" y="534.74" width="84.09" height="50.82" rx="12.91" transform="translate(-69.58 952.32) rotate(-45)"/><line class="cls-9" x1="1117.33" y1="542.63" x2="1115.57" y2="544.4"/><line class="cls-9" x1="1132.27" y1="557.62" x2="1130.51" y2="559.39"/><path class="cls-6" d="M1121.32,549.74a5.13,5.13,0,0,0,1,3,3.93,3.93,0,0,0,3,1"/><circle class="cls-24" cx="1125.87" cy="534.65" r="7.53" transform="translate(-92.92 273.91) rotate(-13.33)"/><circle class="cls-24" cx="1140.28" cy="549" r="7.53" transform="translate(-95.84 277.62) rotate(-13.33)"/><circle class="cls-24" cx="1122.16" cy="567.19" r="7.53" transform="translate(-100.52 273.93) rotate(-13.33)"/><circle class="cls-24" cx="1107.73" cy="552.72" r="7.53" transform="translate(-66.38 945.17) rotate(-45)"/><circle class="cls-24" cx="1089.62" cy="570.93" r="7.53" transform="translate(-84.57 937.7) rotate(-45)"/><path class="cls-24" d="M1096.55,585.26a7.54,7.54,0,1,0,7.53-7.53A7.53,7.53,0,0,0,1096.55,585.26Z"/><path class="cls-6" d="M104.59,739.67c-.46,2.41-3.82,3.86-6.82,2.92-5.75-1.8-14.41-5.1-19.12-5.1s-12.52,3.22-18,5c-3,1-6.49-.42-7-2.88l-5.91-37.91s7.28.13,10.32.13c4.51,0,6.34,10,21.61,10,12.71,0,15.46-9.74,20.16-9.93,3.8-.16,10.14-.07,10.14-.07Z"/><path class="cls-16" d="M118,697.64l0-.12a4.81,4.81,0,0,0-4.41-5.89c-5.25-.29-13-.42-18,.79-6.78,1.66-7.69,9.2-16.78,9.29-8,.07-9.67-7.07-17-9.39-3.39-1.08-10.92-.86-16.88-.65a5.23,5.23,0,0,0-5,6.08h0a4.68,4.68,0,0,0,4.53,3.93c3.85.06,9.68.15,13.39.15,4.13,0,7.46,10.13,21.54,10.13,12.71,0,16.29-10.1,20.58-10.1,3.1,0,8.47-.2,12.89-.2A5.15,5.15,0,0,0,118,697.64Z"/><line class="cls-12" x1="67.8" y1="718.87" x2="67.8" y2="721.22"/><path class="cls-9" d="M76,721.56a5.59,5.59,0,0,0,3,1.32A6.06,6.06,0,0,0,82,721.52"/><path class="cls-6" d="M88.23,721.49a2.3,2.3,0,0,1,2.35-2.29,2,2,0,0,1,2.29,2.32"/><path class="cls-6" d="M50.05,691.33l-4.91-18.48a4.9,4.9,0,0,1,3.48-6h0a4.9,4.9,0,0,1,6.08,3.81l4,20.79"/><path class="cls-6" d="M58.78,691.34l-4.72-25.76a5,5,0,0,1,4.31-5.6h0a5,5,0,0,1,5.81,4.44l-.26,3.6"/><path class="cls-6" d="M65.89,693.75l-2-25a4.91,4.91,0,0,1,4.43-5.33h0a4.91,4.91,0,0,1,5.33,4.8l.13,31.35"/><path class="cls-6" d="M73.82,700.39V663.47A5.18,5.18,0,0,1,79,658.28h0a5.19,5.19,0,0,1,5.19,5.19v36.92"/><path class="cls-6" d="M84.22,668.63a5,5,0,0,1,4.84-5.3h0a5.19,5.19,0,0,1,5.19,5.18l-2.07,25"/><path class="cls-6" d="M99.48,691.12,103.05,671a5.11,5.11,0,0,1,6.38-4h0a5.11,5.11,0,0,1,3.59,6.29l-4.88,17.79"/><path class="cls-6" d="M103.11,671l.75-5.09a5.12,5.12,0,0,0-4.12-6h0a5,5,0,0,0-5.86,5.61l.14,1.57"/><path class="cls-5" d="M193.23,672.29a76.44,76.44,0,0,1,30,6.76L211,710.77l-11.2,28.58a6.75,6.75,0,0,1-12.58,0l-11-28.41-12.37-32A72.35,72.35,0,0,1,193.23,672.29Z"/><path class="cls-5" d="M235.31,677a6.64,6.64,0,0,1-8.83,3.28c-6.91-3.19-19.14-7.72-32.86-7.75a77.07,77.07,0,0,0-32.87,7.63,6.79,6.79,0,0,1-8.26-1.89h0a6.62,6.62,0,0,1,2.15-10,85.19,85.19,0,0,1,38.74-9.36,92.93,92.93,0,0,1,38.49,8.81,7,7,0,0,1,3.44,9.3Z"/><circle class="cls-7" cx="186.69" cy="690.42" r="8.58" transform="translate(-524.6 615.58) rotate(-68.86)"/><path class="cls-7" d="M210.1,712.11A8.58,8.58,0,1,1,214.46,701"/><path class="cls-7" d="M180.54,722.07a8.59,8.59,0,1,1,5.37,12.66"/><path class="cls-6" d="M181.93,705.33s.4,2.81,2.17,3,3.45-.88,4.73-.48,2.48,2.8,2.48,2.8"/><path class="cls-6" d="M201.27,688.14s1.88,2.13,3.48,1.36,2.4-2.63,3.69-3,3.62,1,3.62,1"/><line class="cls-9" x1="182.94" y1="663.99" x2="182.94" y2="666.22"/><line class="cls-9" x1="204.18" y1="663.91" x2="204.18" y2="666.13"/><path class="cls-6" d="M190.72,666a4.52,4.52,0,0,0,2.73,1.37,4.81,4.81,0,0,0,2.81-1.37"/><path class="cls-5" d="M336.9,693.81a18.72,18.72,0,0,0,2-8,17,17,0,0,0-34,0,20,20,0,0,0,1.83,7.79Z"/><path class="cls-7" d="M306.54,678.28A15.93,15.93,0,0,0,294.6,673a15.72,15.72,0,0,0-15.85,15.58,15.18,15.18,0,0,0,.87,5.1l26.6,0"/><path class="cls-5" d="M290.33,673.24l-9.14-9.14a4,4,0,0,1,0-5.58h0a3.94,3.94,0,0,1,5.57,0l19.15,19"/><path class="cls-5" d="M295.27,666.93a14.22,14.22,0,0,1,27.51,2.17"/><path class="cls-5" d="M313.51,725.92c12.72-.88,26.14-13,27.57-27h0a5.06,5.06,0,0,0-5.06-5.07H281.65a5.07,5.07,0,0,0-5.07,5.07h0c.1,11.91,15.84,26.77,27.65,27a.74.74,0,0,1,.75.75l-.06,5.3a3.57,3.57,0,0,1-3.55,3.53H301a4,4,0,0,0-3.94,3.9h0a4,4,0,0,0,3.93,4l15.65.09a3.94,3.94,0,0,0,4-3.95v-.06a4,4,0,0,0-3.87-4h-.29a3.56,3.56,0,0,1-3.49-3.5l-.1-5.4A.75.75,0,0,1,313.51,725.92Z"/><line class="cls-9" x1="295.86" y1="702.39" x2="295.86" y2="704.44"/><line class="cls-9" x1="321.77" y1="702.37" x2="321.77" y2="704.41"/><path class="cls-6" d="M312.83,706.2c0,2.5-1.51,4.55-4,4.55s-4.09-2.09-4.09-4.6,1.46-2.71,4-2.71S312.83,703.7,312.83,706.2Z"/><path class="cls-7" d="M406.9,704.13h33.24a6.21,6.21,0,0,1,6.21,6.21v25.45a3.62,3.62,0,0,1-3.62,3.62H404.31a3.62,3.62,0,0,1-3.62-3.62V710.34A6.21,6.21,0,0,1,406.9,704.13Z"/><path class="cls-5" d="M401,736.1h-5.73a14.74,14.74,0,0,1-12.41-22.67L411,669.22a15.19,15.19,0,0,1,25.63,0l28,44.29a14.74,14.74,0,0,1-12.49,22.62H446"/><path class="cls-9" d="M410.39,689.49a2.12,2.12,0,0,0,3.62-.07"/><path class="cls-9" d="M433.24,689.34a2.83,2.83,0,0,0,1.81,1,2.65,2.65,0,0,0,1.81-1.05"/><path class="cls-6" d="M420.79,691.09a3.94,3.94,0,0,0,2.77,1.24,4.14,4.14,0,0,0,2.84-1.27"/><path class="cls-14" d="M411.35,714.85l.44.25a8.17,8.17,0,0,0,7,.57l2.33-.9a6,6,0,0,1,4.41.05l1.63.67a8.23,8.23,0,0,0,6,.1l2.49-.92"/><path class="cls-14" d="M411.88,727.77l.43.25a8.17,8.17,0,0,0,7.05.57l2.34-.89a6,6,0,0,1,4.4,0l1.63.67a8.18,8.18,0,0,0,6,.1l2.49-.92"/><path class="cls-5" d="M570.47,730.32H502.36a7.87,7.87,0,0,1-7.87-7.88v-.06A36.36,36.36,0,0,1,530.85,686h.1c19.56,0,35.55,14.39,36.44,36.22a8.84,8.84,0,0,0,.85,3.51Z"/><path class="cls-5" d="M502,700.29l1.24-4.13a8.13,8.13,0,0,0,.33-2.55l-.05-1.8a7,7,0,0,1,1.9-5l1.77-1.88a8.16,8.16,0,0,0,1.09-1.46l1.43-2.44a7,7,0,0,1,4.43-3.27l1.35-.32a8.16,8.16,0,0,0,2.7-1.19L520,675a7,7,0,0,1,5.06-1.13l2.63.43a8.36,8.36,0,0,0,1.41.1l3,0a7,7,0,0,1,3.92,1.12l2.7,1.76a8.13,8.13,0,0,0,1.88.9l2.49.82a7,7,0,0,1,3.27,2.26l2.46,3"/><path class="cls-7" d="M569.84,729c6-1.54,8.13-11.12,6.91-15.34-1.75-6.08-5.85-7.6-8.17-9.92-3.52-3.52.94-12.6-13-18.11-9.58-3.77-14.3,1.9-14.3,1.9s11.61,2.78,18.84,13a37.09,37.09,0,0,1,7.09,18.88c.31,2.71.15,4.38.8,5.74Z"/><path class="cls-5" d="M560.47,688.2s14.78,5.36,20,19.29,3,18.09-.09,21.21c-2.64,2.65-13.33,1.62-15,1.62"/><path class="cls-9" d="M516.48,704.47a2.57,2.57,0,0,0,1.94.9,2.86,2.86,0,0,0,2.05-1"/><path class="cls-9" d="M540,704.42a2.57,2.57,0,0,0,1.94.9,2.83,2.83,0,0,0,2-1"/><path class="cls-6" d="M532.59,708a2.61,2.61,0,0,1-2.47,2.83c-1.51,0-2.4-1.34-2.4-2.86a2.65,2.65,0,0,1,2.5-2.85C531.74,705.11,532.59,706.47,532.59,708Z"/><path class="cls-6" d="M648.23,709.39l0,23.59a11.43,11.43,0,0,1-11.42,11.42h0A11.43,11.43,0,0,1,625.35,733V667.81a11.43,11.43,0,0,1,11.43-11.43h0a11.43,11.43,0,0,1,11.42,11.43v12.07"/><path class="cls-6" d="M648.39,678.3l10.47-10.65a11.36,11.36,0,0,1,16.58.4h0a10.93,10.93,0,0,1-.25,14.85l-10.7,11.19,19.7,32.85a11.19,11.19,0,0,1-3.4,15.07h0a11.19,11.19,0,0,1-15.74-3.49l-16.66-27.3"/><line class="cls-9" x1="637.84" y1="696.44" x2="637.84" y2="698.51"/><line class="cls-9" x1="656.43" y1="696.49" x2="656.43" y2="698.56"/><path class="cls-6" d="M644.22,698.51a4.77,4.77,0,0,0,3,1.36,4.17,4.17,0,0,0,2.89-1.36"/><path class="cls-6" d="M756.66,733.69l-2.58,4.88a11.05,11.05,0,0,1-14.72,4.71h0A11,11,0,0,1,734,729.54l24.51-65.81a11.06,11.06,0,0,1,10.37-7.21h0a11.07,11.07,0,0,1,10.33,7.09l25.25,65.6a11.3,11.3,0,0,1-5.8,14.32h0a11.29,11.29,0,0,1-14.81-5.14l-2.46-4.82"/><line class="cls-6" x1="754.86" y1="733.48" x2="783.01" y2="733.48"/><line class="cls-6" x1="763.71" y1="711.19" x2="774.26" y2="711.19"/><path class="cls-6" d="M764.91,711l4-11.06a.09.09,0,0,1,.16,0l3.82,10.62"/><line class="cls-9" x1="757.85" y1="689.51" x2="757.85" y2="691.44"/><line class="cls-9" x1="780.07" y1="689.51" x2="780.07" y2="691.44"/><path class="cls-6" d="M766.12,691.44a3.65,3.65,0,0,0,2.84,1.41,5.46,5.46,0,0,0,3-1.37"/><path class="cls-5" d="M860.37,726.43c1.77,7.93,13.2,16.92,24.7,16.92,15,0,27.2-11.94,27.2-26.67a26.77,26.77,0,0,0-20.18-25.77s-6.32-2.18-8-2.47c-3.07-.54-6.16-4.05-3-7.56,2.7-3,7.14-2.25,9.06,1.81,1.67,3.53,10.66,7.33,17.17.55,5.53-5.77.54-13.77.54-13.77a27.53,27.53,0,0,0-23-12.37c-14.11-.13-26.81,11.94-26.81,26.67,0,12.72,6.45,21.63,20.85,26,3.4,1.26,7.25,2.07,9.34,3.19,2.65,1.42,2.05,5.32.31,7-2.26,2.27-6.23,2.16-8.62-2.17-1.59-2.88-8.37-7.14-15.17-2.54A11.57,11.57,0,0,0,860.37,726.43Z"/><line class="cls-9" x1="875.78" y1="699.58" x2="875.78" y2="701.76"/><path class="cls-6" d="M882.42,701.62a4,4,0,0,0,3,1.36,4.13,4.13,0,0,0,3-1.36"/><path class="cls-6" d="M893.14,701.62a2.33,2.33,0,0,1,2.29-2.4c2.4-.11,2.44,2.47,2.44,2.47"/><path class="cls-6" d="M976.39,658.75h19.22a39.15,39.15,0,0,1,39.15,39.15V703a39.15,39.15,0,0,1-39.15,39.15H976.39a10,10,0,0,1-10-10V668.78A10,10,0,0,1,976.39,658.75Z"/><path class="cls-6" d="M987.12,681.58V719.2A1.81,1.81,0,0,0,989,721c6-.07,24.92-1.75,24.92-19.87,0-19.58-18.9-21.31-24.93-21.37A1.8,1.8,0,0,0,987.12,681.58Z"/><line class="cls-9" x1="983.53" y1="668.72" x2="983.53" y2="670.76"/><line class="cls-9" x1="1004.12" y1="668.86" x2="1004.12" y2="670.9"/><path class="cls-6" d="M991,671a3.23,3.23,0,0,0,2.72,1.44,3.63,3.63,0,0,0,2.87-1.5"/><path class="cls-6" d="M1104.83,680.6H1090a11.21,11.21,0,0,1-11.21-11.21h0A11.21,11.21,0,0,1,1090,658.18h48.9a11.21,11.21,0,0,1,11.21,11.21h0a11.21,11.21,0,0,1-11.21,11.21h-15.09"/><path class="cls-6" d="M1125.39,680.84v53a11,11,0,0,1-11,11h0a11,11,0,0,1-11-11v-53"/><line class="cls-9" x1="1103.34" y1="667.23" x2="1103.34" y2="669.2"/><line class="cls-9" x1="1125.09" y1="667.35" x2="1125.09" y2="669.32"/><path class="cls-6" d="M1111.33,669a3.48,3.48,0,0,0,2.92,1.55,3.55,3.55,0,0,0,2.92-1.36"/></g></svg>