<?xml version="1.0" encoding="utf-8"?>
<!-- Generator: Adobe Illustrator 25.2.1, SVG Export Plug-In . SVG Version: 6.00 Build 0)  -->
<svg version="1.1" id="レイヤー_1" xmlns="http://www.w3.org/2000/svg" xmlns:xlink="http://www.w3.org/1999/xlink" x="0px"
	 y="0px" viewBox="0 0 1190.6 850.4" style="enable-background:new 0 0 1190.6 850.4;" xml:space="preserve">
<style type="text/css">
	.st0{opacity:0.51;fill:#FFFFFF;enable-background:new    ;}
	.st1{fill:none;stroke:#CCCCCC;stroke-miterlimit:10;}
	.st2{font-family:'KozGoPro-Regular-83pv-RKSJ-H';}
	.st3{font-size:12px;}
	.st4{fill:#FFFFFF;stroke:#000000;stroke-miterlimit:10;}
	.st5{stroke:#000000;stroke-miterlimit:10;}
	.st6{fill:none;stroke:#000000;stroke-miterlimit:10;}
	.st7{fill:none;}
	.st8{fill:none;stroke:#FFFFFF;stroke-width:4;stroke-linecap:round;stroke-miterlimit:10;}
	.st9{fill:none;stroke:#FFFFFF;stroke-width:3;stroke-linecap:round;stroke-miterlimit:10;}
	.st10{fill:none;stroke:#000000;stroke-width:2.5;stroke-miterlimit:10;}
	.st11{fill:none;stroke:#000000;stroke-width:2.5;stroke-linecap:round;stroke-miterlimit:10;}
	.st12{fill:none;stroke:#000000;stroke-width:2;stroke-linecap:round;stroke-miterlimit:10;}
	.st13{stroke:#000000;stroke-width:2;stroke-linecap:round;stroke-miterlimit:10;}
	.st14{fill:none;stroke:#000000;stroke-width:4;stroke-linecap:round;stroke-miterlimit:10;}
	.st15{fill:none;stroke:#000000;stroke-width:3;stroke-linecap:round;stroke-miterlimit:10;}
	.st16{fill:none;stroke:#000000;stroke-width:2.3;stroke-linecap:round;stroke-miterlimit:10;}
	.st17{stroke:#000000;stroke-width:2.3;stroke-miterlimit:10;}
	.st18{fill:#FFFFFF;stroke:#000000;stroke-width:2.3;stroke-miterlimit:10;}
	.st19{stroke:#000000;stroke-width:2.3;stroke-linecap:round;stroke-miterlimit:10;}
	.st20{stroke:#000000;stroke-width:2.5;stroke-miterlimit:10;}
	.st21{fill:none;stroke:#000000;stroke-width:3.5;stroke-linecap:round;stroke-miterlimit:10;}
	.st22{fill:none;stroke:#000000;stroke-width:2.3;stroke-miterlimit:10;}
	.st23{fill:none;stroke:#FFFFFF;stroke-width:3.5;stroke-linecap:round;stroke-miterlimit:10;}
	.st24{fill:#FFFFFF;stroke:#FFFFFF;stroke-width:4;stroke-miterlimit:10;}
	.st25{fill:none;stroke:#FFFFFF;stroke-width:2.3;stroke-linecap:round;stroke-miterlimit:10;}
	.st26{fill:none;stroke:#FFFFFF;stroke-width:2.3;stroke-miterlimit:10;}
	.st27{fill:#FFFFFF;stroke:#000000;stroke-width:2.3;stroke-linecap:round;stroke-miterlimit:10;}
	.st28{fill:none;stroke:#FFFFFF;stroke-width:2;stroke-linecap:round;stroke-miterlimit:10;}
	.st29{fill:#FFFFFF;stroke:#FFFFFF;stroke-width:2.3;stroke-miterlimit:10;}
	.st30{stroke:#000000;stroke-width:2.2;stroke-linecap:round;stroke-miterlimit:10;}
	.st31{fill:none;stroke:#000000;stroke-width:2.2;stroke-linecap:round;stroke-miterlimit:10;}
	.st32{opacity:0.17;}
	.st33{fill:none;stroke:#000000;stroke-width:5;stroke-linecap:round;stroke-miterlimit:10;}
	.st34{fill:none;stroke:#FFFFFF;stroke-width:2.5;stroke-linecap:round;stroke-miterlimit:10;}
	.st35{fill:#FFFFFF;stroke:#FFFFFF;stroke-width:2.3;stroke-linecap:round;stroke-miterlimit:10;}
</style>
<g id="レイヤー_4">
	<rect class="st0" width="1190.6" height="850.4"/>
</g>
<rect x="28.8" y="87.3" class="st1" width="100" height="100"/>
<rect x="143.8" y="87.3" class="st1" width="100" height="100"/>
<rect x="258.8" y="87.3" class="st1" width="100" height="100"/>
<rect x="373.8" y="87.3" class="st1" width="100" height="100"/>
<rect x="488.8" y="87.3" class="st1" width="100" height="100"/>
<rect x="603.8" y="87.3" class="st1" width="100" height="100"/>
<rect x="718.8" y="87.3" class="st1" width="100" height="100"/>
<rect x="833.8" y="87.3" class="st1" width="100" height="100"/>
<rect x="948.8" y="87.3" class="st1" width="100" height="100"/>
<rect x="1063.8" y="87.3" class="st1" width="100" height="100"/>
<rect x="28.8" y="228.1" class="st1" width="100" height="100"/>
<rect x="143.8" y="228.1" class="st1" width="100" height="100"/>
<rect x="258.8" y="228.1" class="st1" width="100" height="100"/>
<rect x="373.8" y="228.1" class="st1" width="100" height="100"/>
<rect x="488.8" y="228.1" class="st1" width="100" height="100"/>
<rect x="603.8" y="228.1" class="st1" width="100" height="100"/>
<rect x="718.8" y="228.1" class="st1" width="100" height="100"/>
<rect x="833.8" y="228.1" class="st1" width="100" height="100"/>
<rect x="948.8" y="228.1" class="st1" width="100" height="100"/>
<rect x="1063.8" y="228.1" class="st1" width="100" height="100"/>
<rect x="28.8" y="368.8" class="st1" width="100" height="100"/>
<rect x="143.8" y="368.8" class="st1" width="100" height="100"/>
<rect x="258.8" y="368.8" class="st1" width="100" height="100"/>
<rect x="373.8" y="368.8" class="st1" width="100" height="100"/>
<rect x="488.8" y="368.8" class="st1" width="100" height="100"/>
<rect x="603.8" y="368.8" class="st1" width="100" height="100"/>
<rect x="718.8" y="368.8" class="st1" width="100" height="100"/>
<rect x="833.8" y="368.8" class="st1" width="100" height="100"/>
<rect x="948.8" y="368.8" class="st1" width="100" height="100"/>
<rect x="1063.8" y="368.8" class="st1" width="100" height="100"/>
<rect x="28.8" y="509.6" class="st1" width="100" height="100"/>
<rect x="143.8" y="509.6" class="st1" width="100" height="100"/>
<rect x="258.8" y="509.6" class="st1" width="100" height="100"/>
<rect x="373.8" y="509.6" class="st1" width="100" height="100"/>
<rect x="488.8" y="509.6" class="st1" width="100" height="100"/>
<rect x="603.8" y="509.6" class="st1" width="100" height="100"/>
<rect x="718.8" y="509.6" class="st1" width="100" height="100"/>
<rect x="833.8" y="509.6" class="st1" width="100" height="100"/>
<rect x="948.8" y="509.6" class="st1" width="100" height="100"/>
<rect x="1063.8" y="509.6" class="st1" width="100" height="100"/>
<rect x="28.8" y="650.4" class="st1" width="100" height="100"/>
<rect x="143.8" y="650.4" class="st1" width="100" height="100"/>
<rect x="258.8" y="650.4" class="st1" width="100" height="100"/>
<rect x="373.8" y="650.4" class="st1" width="100" height="100"/>
<rect x="488.8" y="650.4" class="st1" width="100" height="100"/>
<rect x="603.8" y="650.4" class="st1" width="100" height="100"/>
<rect x="718.8" y="650.4" class="st1" width="100" height="100"/>
<rect x="833.8" y="650.4" class="st1" width="100" height="100"/>
<rect x="948.8" y="650.4" class="st1" width="100" height="100"/>
<rect x="1063.8" y="650.4" class="st1" width="100" height="100"/>
<g id="アイコン名">
	<text transform="matrix(1 0 0 1 60.83 213.41)" class="st2 st3">カメラ</text>
	<text transform="matrix(1 0 0 1 176.16 213.41)" class="st2 st3">メール</text>
	<text transform="matrix(1 0 0 1 279.5 213.41)" class="st2 st3">カレンダー</text>
	<text transform="matrix(1 0 0 1 406.83 213.41)" class="st2 st3">とけい</text>
	<text transform="matrix(1 0 0 1 516.16 213.41)" class="st2 st3">おんがく</text>
	<text transform="matrix(1 0 0 1 631.5 213.41)" class="st2 st3">えんぴつ</text>
	<text transform="matrix(1 0 0 1 746.83 213.41)" class="st2 st3">じょうぎ</text>
	<text transform="matrix(1 0 0 1 862.16 213.41)" class="st2 st3">でんたく</text>
	<text transform="matrix(1 0 0 1 977.5 213.41)" class="st2 st3">けしゴム</text>
	<text transform="matrix(1 0 0 1 1104.83 213.41)" class="st2 st3">のり</text>
	<text transform="matrix(1 0 0 1 60.83 351.9)" class="st2 st3">ドラム</text>
	<text transform="matrix(1 0 0 1 176.16 351.9)" class="st2 st3">ピアノ</text>
	<text transform="matrix(1 0 0 1 273.5 351.9)" class="st2 st3">エレキギター</text>
	<text transform="matrix(1 0 0 1 400.83 351.9)" class="st2 st3">ウクレレ</text>
	<text transform="matrix(1 0 0 1 510.16 351.9)" class="st2 st3">ハーモニカ</text>
	<text transform="matrix(1 0 0 1 637.5 351.9)" class="st2 st3">カート</text>
	<text transform="matrix(1 0 0 1 758.83 351.9)" class="st2 st3">ちず</text>
	<text transform="matrix(1 0 0 1 856.16 351.9)" class="st2 st3">ほうじしん</text>
	<text transform="matrix(1 0 0 1 989.82 351.9)" class="st2 st3">WIFI</text>
	<text transform="matrix(1 0 0 1 1098.83 351.9)" class="st2 st3">えいが</text>
	<text transform="matrix(1 0 0 1 60.83 492.39)" class="st2 st3">いいね</text>
	<text transform="matrix(1 0 0 1 182.16 492.39)" class="st2 st3">タグ</text>
	<text transform="matrix(1 0 0 1 279.5 492.39)" class="st2 st3">おきにいり</text>
	<text transform="matrix(1 0 0 1 406.83 492.39)" class="st2 st3">つうち</text>
	<text transform="matrix(1 0 0 1 504.16 492.39)" class="st2 st3">ブックマーク</text>
	<text transform="matrix(1 0 0 1 625.5 492.39)" class="st2 st3">メッセージ</text>
	<text transform="matrix(1 0 0 1 758.83 492.39)" class="st2 st3">ピン</text>
	<text transform="matrix(1 0 0 1 850.16 492.39)" class="st2 st3">アップロード</text>
	<text transform="matrix(1 0 0 1 965.5 492.39)" class="st2 st3">ダウンロード</text>
	<text transform="matrix(1 0 0 1 1080.83 492.39)" class="st2 st3">ハッシュタグ</text>
	<text transform="matrix(1 0 0 1 54.83 630.89)" class="st2 st3">パソコン</text>
	<text transform="matrix(1 0 0 1 158.16 630.89)" class="st2 st3">リフレッシュ</text>
	<text transform="matrix(1 0 0 1 261.5 630.89)" class="st2 st3">でんげんスイッチ</text>
	<text transform="matrix(1 0 0 1 400.83 630.89)" class="st2 st3">せってい</text>
	<text transform="matrix(1 0 0 1 516.16 630.89)" class="st2 st3">ファイル</text>
	<text transform="matrix(1 0 0 1 625.5 630.89)" class="st2 st3">ヘッドホン</text>
	<text transform="matrix(1 0 0 1 734.83 630.89)" class="st2 st3">バックパック</text>
	<text transform="matrix(1 0 0 1 868.16 630.89)" class="st2 st3">ゲーム</text>
	<text transform="matrix(1 0 0 1 959.5 630.89)" class="st2 st3">ブリーフケース</text>
	<text transform="matrix(1 0 0 1 1098.83 630.89)" class="st2 st3">ゴミ箱</text>
	<text transform="matrix(1 0 0 1 54.83 773.38)" class="st2 st3">めんぼう</text>
	<text transform="matrix(1 0 0 1 170.16 773.38)" class="st2 st3">エプロン</text>
	<text transform="matrix(1 0 0 1 273.5 773.38)" class="st2 st3">ピザカッター</text>
	<text transform="matrix(1 0 0 1 382.83 773.38)" class="st2 st3">たいじゅうけい</text>
	<text transform="matrix(1 0 0 1 492.16 773.38)" class="st2 st3">キッチングローブ</text>
	<text transform="matrix(1 0 0 1 631.5 773.38)" class="st2 st3">ドーナツ</text>
	<text transform="matrix(1 0 0 1 734.83 773.38)" class="st2 st3">カップケーキ</text>
	<text transform="matrix(1 0 0 1 868.16 773.38)" class="st2 st3">ケーキ</text>
	<text transform="matrix(1 0 0 1 977.5 773.38)" class="st2 st3">マカロン</text>
	<text transform="matrix(1 0 0 1 1104.83 773.38)" class="st2 st3">パン</text>
</g>
<g id="アイコン">
	<path class="st4" d="M57.6,165.7h-12c-4.4,0-8-3.6-8-8V118c0-4.4,3.6-8,8-8h67.4c4.4,0,8,3.6,8,8v39.8c0,4.4-3.6,8-8,8H99.8"/>
	<path class="st5" d="M111.7,165.9H46.8c-5.1,0-9.3-2.7-9.3-9.2l0.1-7.2h83.4v7.7C121,163.9,116.2,165.9,111.7,165.9z"/>
	<path d="M70.6,100.1h17.3c3.1,0,5.6,2.5,5.6,5.6v4.3l0,0H65l0,0v-4.3C65,102.5,67.5,100.1,70.6,100.1
		C70.6,100.1,70.6,100.1,70.6,100.1z"/>
	<ellipse class="st4" cx="79.2" cy="149.7" rx="26.7" ry="26.6"/>
	<ellipse cx="79.2" cy="149.6" rx="20.3" ry="20.4"/>
	<path d="M111.6,121.7c0,1.9-1.5,3.4-3.4,3.4s-3.4-1.5-3.4-3.4s1.5-3.4,3.4-3.4l0,0C110.1,118.3,111.6,119.9,111.6,121.7z"/>
	<path class="st6" d="M107,110v-4.4c0-1.7-1.4-3.1-3.1-3.1l0,0h-0.3c-1.7,0-3.1,1.4-3.1,3.1l0,0v4.4"/>
	<path class="st6" d="M58.1,110v-4.4c0-1.7-1.4-3.1-3.1-3.1c0,0,0,0,0,0h-0.3c-1.7,0-3.1,1.4-3.1,3.1v4.4"/>
	<path d="M37.5,129.2h10.1c5,0,9.1-4.1,9.1-9.1c0,0,0,0,0,0v-10.2l-10.9-0.1c-4.4,0-8.1,3.4-8.3,7.8C37.4,123,37.5,129.1,37.5,129.2
		z"/>
	<line class="st7" x1="38" y1="149.6" x2="52.4" y2="149.6"/>
	<line class="st7" x1="72.3" y1="105.2" x2="86.1" y2="105.1"/>
	<line class="st8" x1="68.7" y1="145.5" x2="68.7" y2="147.6"/>
	<line class="st8" x1="89.6" y1="145.6" x2="89.6" y2="147.7"/>
	<path class="st9" d="M76.5,147.4c0.6,0.8,1.6,1.3,2.6,1.3c1.1,0,2.1-0.4,2.9-1.2"/>
	<path class="st10" d="M225.8,131c3.1,0,6.5,2.5,6.5,5.6v33c0,3.1-2.5,5.6-5.6,5.6h0h-67c-3.1,0-5.6-2.5-5.6-5.6v0v-33
		c0-3.1,3.3-5.5,6.4-5.5"/>
	<path class="st10" d="M232.3,169.4c0,3.2-2.6,5.8-5.8,5.8c0,0,0,0,0,0h-66.6c-3.2,0-5.8-2.6-5.8-5.8c0,0,0,0,0,0"/>
	<path class="st10" d="M154,167.6l36.4-20.8c1.9-1,4.1-1,6,0l36,20.6"/>
	<path class="st10" d="M169.7,137.7V99.9c0-1.6,1.3-2.9,2.9-2.9h41.3c1.6,0,2.9,1.3,2.9,2.9v38"/>
	<line class="st11" x1="160.1" y1="131.2" x2="186.3" y2="148.4"/>
	<line class="st11" x1="199.9" y1="148.8" x2="226.4" y2="131.5"/>
	<line class="st11" x1="161.2" y1="130.9" x2="169.7" y2="125.2"/>
	<line class="st11" x1="217.4" y1="125.2" x2="225.4" y2="130.9"/>
	<line class="st11" x1="183.6" y1="157.1" x2="183.6" y2="158.9"/>
	<line class="st11" x1="203.2" y1="157.1" x2="203.2" y2="159"/>
	<path class="st12" d="M188.9,160c0,0-0.1,2.5,2.2,2.5c1.5,0,1.9-1,2.3-2.2c0.1-0.3,0.3-0.3,0.4,0c0.4,1.3,1.1,2.2,2.2,2.2
		c1.8,0,2.1-2.4,2.1-2.4"/>
	<path class="st12" d="M181.4,123l0.1,8c0,1.4,1.2,2.6,2.6,2.6h18.6c1.4,0,2.6-1.2,2.6-2.6v-8.1"/>
	<path class="st12" d="M193.2,114.5h10.3c2.4,0,4.4,1.9,4.4,4.3c0,0,0,0,0,0v4.1c0,0.4-0.3,0.8-0.8,0.8c-0.1,0-0.3,0-0.4-0.1l-3.2-2
		c-1.8-1.1-3.9-1.1-5.7-0.1l-1.5,0.8c-1.6,0.9-3.5,1-5.2,0.2l-2.4-1.1c-1.7-0.8-3.7-0.7-5.4,0.3l-3.1,1.9c-0.4,0.2-0.8,0.1-1.1-0.3
		c-0.1-0.1-0.1-0.3-0.1-0.4v-4c0-2.4,1.9-4.3,4.3-4.3C187.5,114.5,193.2,114.5,193.2,114.5z"/>
	<path class="st13" d="M199.4,106.2c-0.2-0.2-0.5-0.3-0.7-0.1c-0.1,0-0.1,0.1-0.1,0.1c-1.4,2-5.2,8.2,0.4,8.2
		S200.7,108.1,199.4,106.2z"/>
	<path class="st13" d="M188.3,106c-0.2-0.2-0.5-0.3-0.7-0.1c-0.1,0-0.1,0.1-0.1,0.1c-1.3,2-5.2,8.2,0.4,8.2S189.6,107.9,188.3,106z"
		/>
	<path class="st10" d="M341.8,124.4v46.5c0,3.5-2.8,6.3-6.3,6.3h-52.9c-3.5,0-6.3-2.8-6.3-6.3v-46.4"/>
	<path class="st10" d="M284.6,103.2h49.8c6.7,0,12.1,5.4,12.1,12.1v3.8c0,3-2.5,5.5-5.5,5.5l0,0H278c-3,0-5.5-2.5-5.5-5.5
		c0,0,0,0,0,0v-3.8C272.5,108.5,277.9,103.1,284.6,103.2C284.6,103.1,284.6,103.1,284.6,103.2z"/>
	<path class="st12" d="M296.8,154.1l0.1,8c0,1.4,1.1,2.6,2.6,2.6c0,0,0,0,0,0H318c1.4,0,2.6-1.2,2.6-2.6c0,0,0,0,0,0v-8.1"/>
	<path class="st12" d="M308.5,145.7h10.3c2.4,0,4.3,1.9,4.4,4.3c0,0,0,0,0,0v4c0,0.4-0.3,0.8-0.8,0.8c-0.1,0-0.3,0-0.4-0.1l-3.2-2
		c-1.8-1.1-3.9-1.1-5.7-0.1l-1.5,0.8c-1.6,0.9-3.5,1-5.2,0.2l-2.4-1.1c-1.7-0.8-3.7-0.7-5.4,0.3l-3.1,1.9c-0.4,0.2-0.8,0.1-1.1-0.3
		c-0.1-0.1-0.1-0.3-0.1-0.4v-4c0-2.4,1.9-4.3,4.3-4.3c0,0,0,0,0,0C302.8,145.6,308.5,145.6,308.5,145.7z"/>
	<path class="st13" d="M314.7,137.3c-0.2-0.2-0.5-0.3-0.7-0.1c-0.1,0-0.1,0.1-0.1,0.1c-1.4,2-5.2,8.2,0.4,8.2S316,139.3,314.7,137.3
		z"/>
	<path class="st13" d="M303.6,137.1c-0.2-0.2-0.5-0.3-0.7-0.1c-0.1,0-0.1,0.1-0.1,0.1c-1.3,2-5.2,8.2,0.4,8.2S305,139.1,303.6,137.1
		z"/>
	<path class="st13" d="M341.5,163h-7c-3.9,0-7.1,3.2-7.1,7.1l0.1,7.1h7.9c3.4,0,6.2-2.8,6.2-6.2c0,0,0,0,0-0.1
		C341.4,167.2,341.4,163,341.5,163z"/>
	<line class="st14" x1="298.6" y1="111.2" x2="298.6" y2="113.6"/>
	<line class="st14" x1="319.1" y1="111.4" x2="319.1" y2="113.8"/>
	<path class="st15" d="M306.1,113.3c0.7,0.8,1.8,1.3,2.9,1.3c1-0.1,1.9-0.6,2.6-1.3"/>
	<path class="st16" d="M334.8,109.2c0,1.6-1.3,2.9-2.9,2.9h-0.1c-1.6,0-2.9-1.3-2.9-2.9V98.5c0-1.6,1.3-2.9,2.9-2.9h0.1
		c1.6,0,2.9,1.3,2.9,2.9l0,4.4"/>
	<path class="st16" d="M288.9,109.3c0,1.6-1.3,2.9-2.9,2.9h-0.1c-1.6,0-2.9-1.3-2.9-2.9V98.7c0-1.6,1.3-2.9,2.9-2.9h0.2
		c1.6,0,2.9,1.3,2.9,2.9v4.4"/>
	<ellipse class="st17" cx="423.6" cy="137.6" rx="38.6" ry="38.4"/>
	<ellipse class="st18" cx="423.7" cy="137.7" rx="31.7" ry="31.6"/>
	<line class="st16" x1="410.6" y1="115.4" x2="412.8" y2="118.9"/>
	<line class="st16" x1="401.4" y1="124.8" x2="404.9" y2="126.9"/>
	<line class="st16" x1="397.9" y1="137.8" x2="401.9" y2="137.8"/>
	<line class="st16" x1="401.4" y1="150.6" x2="404.8" y2="148.6"/>
	<line class="st16" x1="436.6" y1="115.4" x2="434.4" y2="118.9"/>
	<line class="st16" x1="445.9" y1="124.8" x2="442.3" y2="126.9"/>
	<line class="st16" x1="449.3" y1="137.8" x2="445.3" y2="137.8"/>
	<line class="st16" x1="445.8" y1="150.6" x2="442.4" y2="148.6"/>
	<line class="st16" x1="409.1" y1="137.7" x2="418.6" y2="137.7"/>
	<path class="st16" d="M428.5,137.7c0,2.7-2.2,4.9-4.9,4.9s-4.9-2.2-4.9-4.9c0-2.7,2.2-4.9,4.9-4.9l0,0
		C426.3,132.8,428.5,135,428.5,137.7C428.5,137.7,428.5,137.7,428.5,137.7z"/>
	<path class="st19" d="M421.3,133.1v-18.6c0-1.2,1-2.2,2.2-2.2h0.1c1.2,0,2.3,1,2.3,2.2v18.6"/>
	<path class="st16" d="M428.4,135.4l9-0.1c1.3,0,2.4,1.1,2.4,2.4l0,0l0,0c0,1.3-1.1,2.4-2.4,2.4c0,0,0,0,0,0l-9,0.1"/>
	<line class="st14" x1="414" y1="154.5" x2="414" y2="156.3"/>
	<line class="st14" x1="433.3" y1="154.5" x2="433.3" y2="156.3"/>
	<path class="st15" d="M421.1,156.3c0.7,0.7,1.5,1.1,2.5,1.2c1,0,1.9-0.4,2.5-1.2"/>
	
		<ellipse transform="matrix(1.221725e-03 -1 1 1.221725e-03 374.8693 686.849)" class="st10" cx="531.3" cy="155.8" rx="21" ry="21.1"/>
	<path class="st20" d="M552.3,155.8l0.3-36.1c2.3-0.1,10.8-1.9,13.8-5.3c5.8-6.4,6.2-13.2,2.7-15.2c-2.5-1.4-11,0.8-16.2,2
		c-9.7,2.2-13,9.1-13,13s-0.4,21.9-0.4,21.9s2.3,0.2,7.3,5.5C550.6,145.6,552.9,151.6,552.3,155.8z"/>
	<ellipse class="st20" cx="518.9" cy="122.7" rx="9" ry="9"/>
	<path class="st10" d="M522.4,114.3c0,0,0.2-7.7,0.2-9.4s1.4-4.6,5.5-5.6c2.3-0.5,5.8-1.5,6.9-0.8c1.5,0.8,1.3,3.8-1.2,6.5
		c-1.3,1.4-4.9,2.2-5.9,2.2l-0.1,15.4"/>
	<path class="st14" d="M519.6,153.2c0-1.1,0.9-2.1,2-2.1c0,0,0,0,0.1,0c1.2,0,2.1,0.9,2.2,2.1c0,0.1,0,0.1,0,0.2"/>
	<path class="st14" d="M539,153.1c0-1.1,0.9-2.1,2-2.1c0,0,0,0,0.1,0c1.2,0,2.1,0.9,2.2,2.1c0,0.1,0,0.1,0,0.2"/>
	<path class="st15" d="M534.1,154.9c-0.2,1.4-1.5,2.5-2.9,2.3c-1.4-0.2-2.5-1.5-2.3-2.9c0.1-1.3,1.3-2.4,2.6-2.4
		C533,152,534.2,153.4,534.1,154.9z"/>
	<path class="st10" d="M692.4,112.8l-14.8-14.4c-1.6-1.6-4.3-1.6-5.9,0l-51.2,51.9l3.7,1.8c1.5,0.5,2.7,1.6,3.3,3.1l1.2,3.2
		c0.5,1.4,1.7,2.5,3.1,3l3.1,1.1c1.5,0.5,2.6,1.7,3.1,3.2l2,4.7l52.4-51.7C694,117,694,114.4,692.4,112.8z"/>
	<path class="st5" d="M687.4,131.8L687.4,131.8c-1.2,1.2-3.2,1.3-4.4,0.1l-24.7-23.5c-1.2-1.2-1.3-3.2-0.1-4.4l0,0
		c1.2-1.2,3.2-1.3,4.4-0.1l24.7,23.5C688.6,128.6,688.6,130.5,687.4,131.8C687.4,131.8,687.4,131.8,687.4,131.8z"/>
	<path class="st14" d="M639.7,144.3c0,0-1.3-1.7,0-3c0.8-0.8,2.1-0.8,3-0.1"/>
	<path class="st14" d="M653.5,130.6c0,0-1.3-1.7,0-3c0.8-0.8,2.1-0.8,3-0.1"/>
	<path class="st15" d="M652.1,137c0-1.5-1.2-2.7-2.7-2.7s-2.7,1.2-2.7,2.7s1.2,2.7,2.7,2.7l0,0C650.9,139.7,652.1,138.5,652.1,137z"
		/>
	<path class="st10" d="M619,152.1l-4.7,24.1l24.1-4.4c0.6-0.1,1.1-0.7,0.9-1.3c0-0.1,0-0.1,0-0.2l-1.4-4.4c-0.3-1-1-1.8-1.9-2.2
		l-4.9-2.6c-0.8-0.4-1.4-1-1.7-1.8l-2.1-4.7c-0.5-1-1.3-1.8-2.4-2.1l-4.5-1.2c-0.6-0.2-1.3,0.2-1.4,0.8C619,152,619,152.1,619,152.1
		z"/>
	<polygon class="st20" points="617.1,162.1 628.6,173.4 614.3,176.1 	"/>
	<path class="st10" d="M728.8,156.6l58.5-58.5c2.5-2.5,6.6-2.5,9.1,0l11.8,11.8c2.5,2.5,2.5,6.6,0,9.1l-58.5,58.5
		c-2.5,2.5-6.6,2.5-9.1,0l-11.8-11.8C726.3,163.1,726.3,159.1,728.8,156.6z"/>
	<path class="st10" d="M799.9,102.3l8.4,8.4c2.1,2.1,2.1,5.5,0,7.6c0,0,0,0,0,0l-59.3,59.3c-2.1,2.1-5.5,2.1-7.6,0l0,0l-8.4-8.4l0,0
		L799.9,102.3L799.9,102.3z"/>
	<line class="st11" x1="729.6" y1="156" x2="734.8" y2="161.2"/>
	<line class="st11" x1="734.6" y1="151.4" x2="737.4" y2="154.2"/>
	<line class="st11" x1="739.3" y1="146.6" x2="742" y2="149.4"/>
	<line class="st11" x1="744" y1="141.9" x2="746.8" y2="144.7"/>
	<line class="st11" x1="753.6" y1="132.4" x2="756.4" y2="135.2"/>
	<line class="st11" x1="758.3" y1="127.6" x2="761.1" y2="130.3"/>
	<line class="st11" x1="763" y1="122.9" x2="765.8" y2="125.7"/>
	<line class="st11" x1="767.9" y1="118.2" x2="770.6" y2="121"/>
	<line class="st11" x1="777.3" y1="108.7" x2="780.1" y2="111.5"/>
	<line class="st11" x1="782" y1="103.9" x2="784.8" y2="106.6"/>
	<line class="st11" x1="786.9" y1="99.2" x2="789.7" y2="102"/>
	<line class="st11" x1="749.3" y1="137.7" x2="753.1" y2="141.2"/>
	<line class="st11" x1="773" y1="113.9" x2="776.8" y2="117.5"/>
	<line class="st14" x1="763" y1="147.2" x2="764.3" y2="148.6"/>
	<line class="st14" x1="777.8" y1="132.4" x2="779.2" y2="133.8"/>
	<path class="st15" d="M769.7,143.1c1.1,0,2.1-0.4,3-1.1c0.6-0.8,1-1.9,1-2.9"/>
	<path class="st10" d="M862.4,95.8h38.9c4.8,0,8.7,3.9,8.7,8.7v64.6c0,4.8-3.9,8.7-8.7,8.7h-38.9c-4.8,0-8.7-3.9-8.7-8.7v-64.6
		C853.7,99.7,857.6,95.8,862.4,95.8z"/>
	<path d="M864.8,101.3h33.5c3.1,0,5.5,2.5,5.5,5.5v9.1c0,3.1-2.5,5.5-5.5,5.5h-33.5c-3.1,0-5.5-2.5-5.5-5.5v-9.1
		C859.3,103.8,861.8,101.3,864.8,101.3z"/>
	<path class="st10" d="M862.5,127.3h25.8c1.7,0,3,1.4,3,3.1v0.3c0,1.7-1.4,3.1-3,3.1h-25.8c-1.7,0-3-1.4-3-3.1v-0.3
		C859.5,128.7,860.9,127.3,862.5,127.3z"/>
	
		<ellipse transform="matrix(4.518853e-02 -0.999 0.999 4.518853e-02 729.1778 1024.2368)" class="st10" cx="900.4" cy="130.7" rx="3.3" ry="3.3"/>
	<path class="st10" d="M903.8,143.9c0,1.8-1.4,3.3-3.2,3.3c-1.8,0-3.3-1.4-3.3-3.2c0-1.8,1.4-3.3,3.2-3.3c0,0,0,0,0,0
		C902.3,140.6,903.7,142.1,903.8,143.9z"/>
	<circle class="st10" cx="887.9" cy="143.7" r="3.3"/>
	<path class="st10" d="M878.6,143.7c0,1.8-1.5,3.3-3.3,3.3c-1.8,0-3.3-1.5-3.3-3.3s1.5-3.3,3.3-3.3c0,0,0,0,0,0
		C877.2,140.5,878.6,141.9,878.6,143.7C878.6,143.7,878.6,143.7,878.6,143.7z"/>
	<path class="st10" d="M866,143.8c0,1.8-1.5,3.3-3.3,3.3c-1.8,0-3.3-1.5-3.3-3.3s1.5-3.3,3.3-3.3C864.5,140.6,866,142,866,143.8
		C866,143.8,866,143.8,866,143.8z"/>
	<path class="st10" d="M865.8,156.4c0,1.8-1.4,3.3-3.2,3.3c-1.8,0-3.3-1.4-3.3-3.2c0-1.8,1.4-3.3,3.2-3.3c0,0,0,0,0,0
		C864.4,153.2,865.8,154.7,865.8,156.4z"/>
	<path class="st10" d="M878.6,156.3c0,1.8-1.5,3.2-3.3,3.2c-1.8,0-3.2-1.5-3.2-3.3c0-1.8,1.5-3.2,3.3-3.2
		C877.1,153,878.6,154.5,878.6,156.3C878.6,156.3,878.6,156.3,878.6,156.3z"/>
	<path class="st10" d="M891,156.2c0,1.8-1.5,3.3-3.3,3.3c-1.8,0-3.3-1.5-3.3-3.3s1.5-3.3,3.3-3.3C889.5,153,891,154.4,891,156.2
		C891,156.2,891,156.2,891,156.2z"/>
	<path class="st10" d="M891,168.9c0,1.8-1.4,3.3-3.2,3.3c-1.8,0-3.3-1.4-3.3-3.2c0-1.8,1.4-3.3,3.2-3.3c0,0,0,0,0,0
		C889.5,165.7,891,167.1,891,168.9z"/>
	<path class="st10" d="M878.5,168.9c0,1.8-1.5,3.3-3.3,3.3c-1.8,0-3.3-1.5-3.3-3.3s1.5-3.3,3.3-3.3c0,0,0,0,0,0
		C877.1,165.6,878.5,167,878.5,168.9C878.5,168.8,878.5,168.8,878.5,168.9z"/>
	<path class="st10" d="M865.9,168.7c0,1.8-1.5,3.3-3.3,3.3c-1.8,0-3.3-1.5-3.3-3.3s1.5-3.3,3.3-3.3c0,0,0,0,0,0
		C864.5,165.5,865.9,166.9,865.9,168.7C865.9,168.7,865.9,168.7,865.9,168.7z"/>
	<path class="st10" d="M900.1,152.9h0.8c1.6,0,2.9,1.3,2.9,2.9v13.3c0,1.6-1.3,2.9-2.9,2.9h-0.8c-1.6,0-2.9-1.3-2.9-2.9v-13.3
		C897.2,154.2,898.5,152.9,900.1,152.9z"/>
	<path class="st9" d="M879,109.1c0.8,0.7,1.8,1.2,2.8,1.2c1-0.1,1.9-0.5,2.6-1.2"/>
	<line class="st8" x1="871.3" y1="107.1" x2="871.3" y2="109.1"/>
	<line class="st8" x1="891.9" y1="107.2" x2="892" y2="109.2"/>
	<path class="st10" d="M978.7,97.8h37.9c4.9,0,9,4,9,8.9v62.8c0,4.9-4,8.9-9,8.9h-37.9c-4.9,0-9-4-9-8.9v-62.8
		C969.8,101.8,973.8,97.8,978.7,97.8z"/>
	<path class="st10" d="M978.7,97.7h31.2c4.9,0,9,4,9,8.9v62.8c0,4.9-4,8.9-9,8.9h-31.2c-4.9,0-9-4-9-8.9v-62.8
		C969.7,101.7,973.7,97.7,978.7,97.7z"/>
	<path class="st10" d="M969.6,137.9h56.1l0,0v31.5c0,5-4,9-9,9h-38.1c-5,0-9-4-9-9L969.6,137.9L969.6,137.9z"/>
	<path class="st21" d="M982.8,114.6c0,0,0.1-2.3,2.2-2.3s2.3,2.3,2.3,2.3"/>
	<line class="st14" x1="1005.5" y1="112.8" x2="1005.5" y2="114.8"/>
	<path class="st11" d="M1000.4,120.5c-0.2,2.5-2.2,4.4-4.7,4.3c-2.4,0.1-4.5-1.8-4.7-4.3c0-2.4-0.8-4.4,4.7-4.4
		C1001.5,116.2,1000.4,118.1,1000.4,120.5z"/>
	<path class="st5" d="M1100.8,119.3h27.3c2.3,0,4.2,1.9,4.2,4.2v47.8c0,2.3-1.9,4.2-4.2,4.2h-27.3c-2.3,0-4.2-1.9-4.2-4.2v-47.8
		C1096.5,121.2,1098.4,119.3,1100.8,119.3z"/>
	<path class="st18" d="M1097.2,160.4h34.4l0,0v10.9c0,2.4-2,4.4-4.4,4.4l0,0h-25.6c-2.4,0-4.4-2-4.4-4.4v0V160.4L1097.2,160.4z"/>
	<path class="st22" d="M1104.6,105.8h19.5c1.5,0,2.7,1.2,2.7,2.7v10.7l0,0h-24.9l0,0v-10.7C1101.9,107.1,1103.1,105.8,1104.6,105.8z
		"/>
	<path class="st17" d="M1109.9,96.2h9.2c2.8,0,5.1,2.3,5.1,5.1l0,0v4.4l0,0h-19.4l0,0v-4.4C1104.8,98.5,1107,96.2,1109.9,96.2
		L1109.9,96.2z"/>
	<path class="st23" d="M1102.9,135.8c0.6,0.6,1.4,0.9,2.3,1c0.9,0,1.7-0.4,2.3-1"/>
	<path class="st23" d="M1121.2,135.8c0.6,0.6,1.4,0.9,2.3,1c0.9,0,1.7-0.4,2.3-1"/>
	<path class="st24" d="M1116.2,138.9c0,1-0.8,1.8-1.8,1.8c-1,0-1.8-0.8-1.8-1.8c0-1,0.8-1.8,1.8-1.8c0,0,0,0,0,0
		C1115.4,137.1,1116.2,137.9,1116.2,138.9C1116.2,138.9,1116.2,138.9,1116.2,138.9z"/>
	<path class="st22" d="M1097.2,160.4h11.1l0,0v15.1l0,0h-7c-2.3,0-4.1-1.8-4.1-4.1L1097.2,160.4L1097.2,160.4z"/>
	<line class="st16" x1="1120.4" y1="160.8" x2="1120.4" y2="166.1"/>
	<line class="st16" x1="1120.4" y1="171.6" x2="1120.4" y2="175.5"/>
	<rect x="42.8" y="274.3" width="71.2" height="38.2"/>
	<path class="st22" d="M115.7,318.8H41.1c-1.7,0-3.2-1.4-3.2-3.2l0,0l0,0c0-1.7,1.4-3.1,3.2-3.1h74.6c1.7,0,3.2,1.4,3.2,3.1l0,0
		C118.8,317.4,117.4,318.8,115.7,318.8C115.7,318.8,115.7,318.8,115.7,318.8z"/>
	<line class="st25" x1="42.6" y1="293.4" x2="55.2" y2="286.5"/>
	<line class="st25" x1="114.2" y1="293.4" x2="101.2" y2="286.5"/>
	<line class="st26" x1="79.5" y1="300.8" x2="55" y2="286.2"/>
	<line class="st26" x1="77.6" y1="300.7" x2="102.1" y2="286.1"/>
	<path class="st26" d="M76.4,304.7h3.8c1,0,1.9,0.8,1.9,1.9l0,0v6l0,0h-7.6l0,0v-6C74.5,305.5,75.4,304.7,76.4,304.7
		C76.4,304.7,76.4,304.7,76.4,304.7z"/>
	<path class="st26" d="M97.4,274h7.6l0,0v5.9c0,1-0.8,1.9-1.9,1.9c0,0,0,0,0,0h-3.8c-1,0-1.9-0.8-1.9-1.9l0,0L97.4,274L97.4,274z"/>
	<path class="st26" d="M51.7,274h7.6l0,0v5.9c0,1-0.8,1.9-1.9,1.9c0,0,0,0,0,0h-3.8c-1,0-1.9-0.8-1.9-1.9l0,0V274L51.7,274z"/>
	<line class="st26" x1="78.4" y1="299.2" x2="78.4" y2="304.7"/>
	<line class="st26" x1="55.5" y1="287.4" x2="55.5" y2="281.8"/>
	<line class="st26" x1="101.3" y1="281.5" x2="101.3" y2="286.9"/>
	<line class="st8" x1="68.2" y1="279.4" x2="68.2" y2="281.5"/>
	<line class="st8" x1="88.6" y1="279.4" x2="88.6" y2="281.5"/>
	<path class="st9" d="M75.7,281.3c0.8,0.7,1.7,1.2,2.8,1.3c1-0.1,1.9-0.6,2.5-1.3"/>
	<path class="st27" d="M63.1,256.7c-0.4,0.1-0.8,0.4-1,0.8c-0.7,1.1-1.8,1.8-3.1,1.9c-2.3,0-4.1-1.8-4.1-4.1c0,0,0,0,0,0
		c0-2.1,1.7-3.9,3.8-3.9c0.4,0,0.9,0.1,1.3,0.2c0.4,0.1,0.8,0.1,1.2,0l37-13.4c1.3-0.5,2.8,0.2,3.3,1.4l0,0c0.6,1.3-0.1,2.9-1.4,3.5
		c0,0-0.1,0-0.1,0L63.1,256.7z"/>
	<path class="st27" d="M93.6,256.7c0.4,0.1,0.8,0.4,1,0.8c0.7,1.1,1.8,1.8,3.1,1.9c2.3,0,4.1-1.8,4.1-4.1c0-2.1-1.7-3.9-3.8-3.9
		c-0.4,0-0.8,0.1-1.2,0.2c-0.4,0.1-0.8,0.1-1.2,0l-37-13.3c-1.3-0.5-2.8,0.2-3.3,1.4l0,0c-0.6,1.3,0.1,2.9,1.4,3.5c0,0,0.1,0,0.1,0
		L93.6,256.7z"/>
	<path class="st22" d="M113.9,274.1H43c-2.7,0-4.9-2.2-4.9-4.9l0,0c0-2.7,2.2-4.9,4.9-4.9h70.9c2.7,0,4.9,2.2,4.9,4.9l0,0
		C118.8,271.9,116.6,274.1,113.9,274.1C113.9,274.1,113.9,274.1,113.9,274.1z"/>
	<path class="st22" d="M167.9,270c0.8-0.1,1.3-0.8,1.3-1.5c-0.1-13,11.4-23.6,24.2-23.6c13.1-0.1,23.9,10.4,24.2,23.5
		c0,0.7,0.6,1.4,1.3,1.5c3.8,0.6,14.3,3,14.3,12c0,4.5-0.2,8.8-0.2,10.1c0,0.2-0.2,0.4-0.4,0.4h-78.4c-0.2,0-0.4-0.2-0.4-0.4
		c0,0,0,0,0,0c0-1.4,0-6.3,0-10.5C153.8,273.1,164.1,270.7,167.9,270z"/>
	<line class="st16" x1="189.5" y1="254.2" x2="197.4" y2="254.2"/>
	<line class="st14" x1="183.5" y1="266.1" x2="183.5" y2="268"/>
	<line class="st14" x1="203.4" y1="266.1" x2="203.4" y2="268"/>
	<path class="st15" d="M190.8,267.9c0.7,0.7,1.6,1.2,2.6,1.3c1,0,2-0.5,2.6-1.3"/>
	<line class="st16" x1="193.4" y1="283.9" x2="193.4" y2="287.8"/>
	<path class="st16" d="M184.4,279.1h18.2c2,0,3.6,1.6,3.6,3.6v9.5l0,0h-25.4l0,0v-9.5C180.8,280.8,182.4,279.2,184.4,279.1z"/>
	<path class="st16" d="M157.7,292.4h71.6l0,0v16.1c0,2.4-2,4.4-4.4,4.4l0,0h-62.8c-2.4,0-4.4-2-4.4-4.4l0,0V292.4L157.7,292.4z"/>
	<path class="st19" d="M165.6,292.4h7.9l0,0v12.7c0,1.2-1,2.2-2.2,2.2c0,0,0,0,0,0h-3.6c-1.2,0-2.2-1-2.2-2.2l0,0L165.6,292.4
		L165.6,292.4z"/>
	<path class="st19" d="M181.6,292.4h7.9l0,0v12.7c0,1.2-1,2.2-2.2,2.2c0,0,0,0,0,0h-3.6c-1.2,0-2.2-1-2.2-2.2l0,0L181.6,292.4
		L181.6,292.4z"/>
	<path class="st19" d="M197.5,292.4h7.9l0,0v12.7c0,1.2-1,2.2-2.2,2.2c0,0,0,0,0,0h-3.6c-1.2,0-2.2-1-2.2-2.2l0,0V292.4L197.5,292.4
		z"/>
	<path class="st19" d="M213.4,292.4h7.9l0,0v12.7c0,1.2-1,2.2-2.2,2.2c0,0,0,0,0,0h-3.6c-1.2,0-2.2-1-2.2-2.2l0,0L213.4,292.4
		L213.4,292.4z"/>
	<line class="st16" x1="169.6" y1="312.7" x2="169.6" y2="307.6"/>
	<line class="st16" x1="185.5" y1="312.7" x2="185.5" y2="307.5"/>
	<line class="st16" x1="201.3" y1="312.5" x2="201.3" y2="307.3"/>
	<line class="st16" x1="217.4" y1="312.5" x2="217.4" y2="307.3"/>
	<path class="st22" d="M331.1,251.9l5.6,5.6l0,0l-25.5,25.5c-0.9,0.9-2.5,0.9-3.4,0l-2.1-2.1c-0.9-0.9-0.9-2.5,0-3.4L331.1,251.9
		L331.1,251.9z"/>
	<path class="st22" d="M347.5,248.8l-4.3-9.2c-0.4-0.8-1.3-1.1-2-0.7c-0.2,0.1-0.3,0.2-0.4,0.3l-9.4,9.4c-0.9,0.9-1,2.5,0,3.4
		c0,0,0,0,0,0l5.5,5.5c1,0.9,2.5,0.9,3.4,0l7-6.9C347.6,250,347.7,249.4,347.5,248.8z"/>
	<line class="st16" x1="333.1" y1="241.1" x2="335.5" y2="243.5"/>
	<line class="st16" x1="329.5" y1="244.6" x2="331.9" y2="247"/>
	<line class="st16" x1="341.5" y1="256.6" x2="343.9" y2="259"/>
	<line class="st16" x1="345" y1="253" x2="347.4" y2="255.4"/>
	<line class="st12" x1="292.4" y1="288.1" x2="300.5" y2="296.2"/>
	<line class="st12" x1="288.4" y1="292" x2="296.4" y2="300.1"/>
	<line class="st12" x1="278.4" y1="293.4" x2="295.3" y2="310.3"/>
	<line class="st14" x1="295.8" y1="278.7" x2="294.5" y2="280"/>
	<line class="st14" x1="309.9" y1="292.8" x2="308.6" y2="294.1"/>
	<path class="st15" d="M299.7,285.2c0,0.9,0.3,1.8,0.8,2.6c0.8,0.7,1.8,1.1,2.8,1.1"/>
	<path class="st12" d="M279.2,284.2c0,1.3,1,2.3,2.3,2.3c1.3,0,2.3-1,2.3-2.3c0-1.3-1-2.3-2.3-2.3
		C280.2,281.9,279.2,283,279.2,284.2C279.2,284.2,279.2,284.2,279.2,284.2z"/>
	<path class="st12" d="M302,307.1c0,1.3,1,2.3,2.3,2.3c1.3,0,2.3-1,2.3-2.3s-1-2.3-2.3-2.3c0,0,0,0,0,0
		C303,304.8,302,305.8,302,307.1z"/>
	<path class="st16" d="M315.4,278.7c1.8,1.4,3.8,2.4,6,2.9c4.5,1.4,7.6,0.4,8.6,2.6c1.2,2.5-3.9,7.8-9.9,9.7c0,0,1.6,11.9-6.3,19.3
		s-24.2,6.9-35.1-3.9s-11-26.8-2.3-35.5c6.2-6.2,15.9-5.3,18.2-5.4c0,0,4.8-11.8,9.6-9.8c2.6,1,0.8,3.9,3.3,10
		c0.6,1.6,1.4,3.1,2.3,4.5l-4,4c-1.1,1.1-1.1,2.8,0,3.9l1.9,2c0.9,0.9,2.4,1,3.3,0.1L315.4,278.7z"/>
	<path class="st17" d="M391.3,312c7.6,7.6,20.7,10.1,31-0.8c6.5-6.9,3.3-13.9,10-20.2c6-5.7,7.5-13.8,1.1-20.3
		c-9-9.1-17.3-3.4-21.6,1c-6.8,6.9-12.3,1.6-21.6,11.7C381.9,292.2,384.2,304.8,391.3,312z"/>
	<path class="st18" d="M420.1,277.7c-0.2,0.2-0.2,0.5,0,0.7c0,0,0.1,0.1,0.1,0.1c1,0.5,2,1.1,2.8,1.8c0.8,0.8,1.4,1.8,2,2.8
		c0.1,0.2,0.4,0.3,0.7,0.2c0,0,0.1-0.1,0.1-0.1l27-26.8l-5.7-5.7L420.1,277.7z"/>
	<circle class="st26" cx="417.5" cy="285.8" r="8"/>
	<path d="M452.5,256l-5.3-5.4c-1-1-1-2.6,0-3.5c0,0,0,0,0,0l5.7-5.7c2.5-2.5,6.4-2.5,8.9,0c0,0,0,0,0,0l0,0c2.5,2.5,2.5,6.4,0,8.9
		l-5.7,5.7C455.1,257,453.5,257,452.5,256z"/>
	<line class="st8" x1="398.6" y1="288.1" x2="397.3" y2="289.5"/>
	<line class="st8" x1="415.3" y1="304.8" x2="413.9" y2="306.1"/>
	<path class="st9" d="M407.1,301.5c-1.3,1.6-3.7,1.8-5.3,0.4c-1.6-1.3-1.8-3.6-0.5-5.2c1.3-1.6,3-1.6,4.7,0.1
		C407.5,298.3,408.6,300,407.1,301.5z"/>
	<line class="st28" x1="394.1" y1="302.7" x2="400.7" y2="309.3"/>
	<line class="st16" x1="450.2" y1="239.7" x2="452.3" y2="241.9"/>
	<line class="st16" x1="446.9" y1="243.1" x2="449" y2="245.3"/>
	<line class="st16" x1="461.5" y1="251" x2="463.6" y2="253.1"/>
	<line class="st16" x1="458.1" y1="254.3" x2="460.2" y2="256.5"/>
	<line class="st25" x1="455.7" y1="245.3" x2="458.1" y2="247.7"/>
	<line class="st25" x1="452.4" y1="248.6" x2="454.8" y2="251"/>
	<path class="st22" d="M572.2,266.9l4.5-4.5c1.4-1.4,1.4-3.6,0-5c0,0,0,0,0,0l-18.7-18.6c-1.4-1.4-3.6-1.4-5,0c0,0,0,0,0,0
		l-11.6,11.6"/>
	<path class="st22" d="M510.3,281.6l-12,12c-1.4,1.4-1.4,3.6,0,5c0,0,0,0,0,0l18.6,18.6c1.4,1.4,3.6,1.4,5,0c0,0,0,0,0,0l3.9-3.9"/>
	<path class="st5" d="M546.9,261.5l-25.8,25.8c-1.7,1.7-4.5,1.7-6.3,0l-6.5-6.5c-1.7-1.7-1.7-4.5,0-6.3l25.8-25.8
		c1.7-1.7,4.5-1.7,6.3,0l6.5,6.5C548.6,256.9,548.6,259.8,546.9,261.5z"/>
	<path class="st18" d="M574.5,273.3l-41.9,41.9c-1.1,1.1-2.9,1.1-4,0l-7.2-7.2c-1.1-1.1-1.1-2.9,0-4l41.9-41.9c1.1-1.1,2.9-1.1,4,0
		l7.2,7.2C575.6,270.3,575.6,272.2,574.5,273.3z"/>
	<line class="st16" x1="529.1" y1="304.1" x2="532.7" y2="307.7"/>
	<line class="st16" x1="534.7" y1="298" x2="538.2" y2="301.6"/>
	<line class="st16" x1="540.3" y1="292.4" x2="543.9" y2="296"/>
	<line class="st16" x1="545.9" y1="286.8" x2="549.5" y2="290.4"/>
	<line class="st16" x1="551.7" y1="281" x2="555.3" y2="284.6"/>
	<line class="st16" x1="557.5" y1="275.4" x2="561.1" y2="279"/>
	<line class="st16" x1="563" y1="269.6" x2="566.6" y2="273.2"/>
	<line class="st8" x1="517.3" y1="272.4" x2="519" y2="274"/>
	<line class="st8" x1="531.7" y1="258.1" x2="533.4" y2="259.7"/>
	<path class="st9" d="M524.1,268.6c1-0.1,2-0.5,2.8-1.1c0.6-0.8,1-1.7,1-2.8"/>
	<path class="st27" d="M514.1,299c0,1.3-1.1,2.4-2.4,2.4c-1.3,0-2.4-1.1-2.4-2.4c0-1.3,1.1-2.4,2.4-2.4l0,0
		C513.1,296.6,514.1,297.7,514.1,299z"/>
	<path class="st27" d="M561.1,252.1c0,1.3-1.1,2.4-2.4,2.4s-2.4-1.1-2.4-2.4s1.1-2.4,2.4-2.4l0,0C560,249.7,561.1,250.8,561.1,252.1
		z"/>
	<path class="st19" d="M500.7,301.1l13.5,13.5l0,0l-1.6,1.6c-1.3,1.3-3.3,1.3-4.6,0c0,0,0,0,0,0l-9-9c-1.2-1.3-1.2-3.3,0-4.6
		L500.7,301.1L500.7,301.1z"/>
	<path class="st19" d="M566.8,239.6l8.9,8.9c1.3,1.3,1.3,3.3,0,4.6l0,0l-1.6,1.6l0,0l-13.5-13.5l0,0l1.6-1.6
		C563.5,238.4,565.5,238.4,566.8,239.6z"/>
	<path class="st19" d="M642,309.6c-0.3,3-2.9,5.3-6,5c-2.7-0.2-4.8-2.4-5-5c0-3,2.5-4.3,5.5-4.3S642,306.5,642,309.6z"/>
	<path class="st19" d="M670.6,309.7c-0.3,3-2.9,5.3-6,5c-2.7-0.2-4.8-2.4-5-5c0-3,2.5-4.4,5.6-4.4S670.6,306.6,670.6,309.7z"/>
	<path class="st22" d="M673.8,291.3h-40.3c-3,0-5.6-2.3-5.9-5.3l-2-22.5c-0.2-2.7,1.8-5.1,4.5-5.3c0.2,0,0.3,0,0.5,0H686
		c2.6,0,4.7,2,4.7,4.6c0,0.5-0.1,1.1-0.3,1.6L683,285C681.6,288.8,677.9,291.3,673.8,291.3z"/>
	<path class="st17" d="M674.1,291.4l-39.5,0.1c-4.1,0-7.4-3.3-7.4-7.4c0,0,0,0,0,0v-3.5l57.2,0.1l-1.7,4.3
		C681.5,288.8,678.1,291.4,674.1,291.4z"/>
	<line class="st14" x1="646.9" y1="268.3" x2="646.9" y2="269.9"/>
	<path class="st15" d="M654.4,270.1c0.7,0.7,1.7,1.1,2.7,1.2c1-0.1,1.9-0.5,2.6-1.2"/>
	<path class="st15" d="M665.3,270c0,0,0.2-2.2,2.2-2.2s2,2.2,2,2.2"/>
	<path class="st16" d="M631,305.3h45.1c1.8,0,3.3-1.5,3.3-3.3v0c0-1.9-1.5-3.4-3.3-3.4c0,0,0,0,0,0l-44.2-0.1
		c-0.3,0-0.6-0.3-0.6-0.6c0-0.1,0-0.2,0-0.2l1.6-5c0.2-0.6-0.1-1.2-0.7-1.4c-1.8-0.5-3.3-1.9-4-3.6c0-0.1-0.1-0.2-0.2-0.1
		c-0.1,0-0.1,0.1-0.1,0.1c-0.6,1.5-2.3,6-3,7.9C622.9,300.8,627.6,305.3,631,305.3z"/>
	<path class="st16" d="M626.5,243.7l-8.4-0.1c-1.9,0-3.4,1.5-3.4,3.4c0,0,0,0,0,0l0,0c0,1.9,1.5,3.4,3.4,3.4h9.8l0.3,7.7
		c0,0.1,0.1,0.2,0.2,0.2l6.3-0.2v-2.2c-0.1-0.6-0.2-5.5-0.2-6.2c-0.1-1.2,0.2-3.8-1.7-5.2C631.7,243.6,627.3,243.7,626.5,243.7z"/>
	<line class="st16" x1="624.2" y1="244" x2="624.2" y2="249"/>
	<path class="st19" d="M624.2,250.4h-6.3c-1.9,0-3.4-1.5-3.4-3.3c0,0,0,0,0,0l0,0c0-1.9,1.5-3.4,3.3-3.4c0,0,0,0,0,0h6.3V250.4z"/>
	<path class="st22" d="M754.2,265.1h47.4c2.2,0,4,1.8,4,4V307c0,2.5-2,4.5-4.5,4.5c0,0,0,0,0,0h-57.8c-5.9,0-10.7-4.8-10.7-10.7l0,0
		l0.1-36.4"/>
	<path class="st22" d="M742.8,247.6c10.1,0,10.9,10.6,10.9,10.6l-0.1,42.5c0,0.1-0.1,0.1-0.1,0.1c-0.1,0-0.1,0-0.1-0.1
		c-0.6-3.2-1-10.3-10.6-10.3c-7.9,0-9.4,6.4-10.1,9.3c0,0.1-0.1,0.1-0.2,0.1c0,0-0.1,0-0.1-0.1c0-7.3,0-39.5,0.1-43.1
		C733.2,251.4,737.6,247.5,742.8,247.6z"/>
	<ellipse class="st22" cx="779.9" cy="282.8" rx="8.9" ry="4.3"/>
	<path class="st17" d="M779.9,238.4c8.6,0.1,12.5,6.9,13.2,8.1s3.5,6.6-1.2,14.9c-3.2,5.7-8.5,14.7-10.8,18.8
		c-0.4,0.7-1.3,0.9-1.9,0.5c-0.2-0.1-0.4-0.3-0.5-0.5c-2.7-4.6-9.1-15.4-10.3-17.5c-1.5-2.6-5.6-9.4-1.5-16.5
		C769.7,241.3,774.2,238.3,779.9,238.4z"/>
	<circle class="st29" cx="779.9" cy="253" r="5.5"/>
	<line class="st14" x1="770.6" y1="294.8" x2="770.6" y2="296.3"/>
	<line class="st14" x1="789" y1="294.8" x2="789" y2="296.3"/>
	<path class="st15" d="M777.4,296.4c0.7,0.5,1.4,0.9,2.3,1c0.9,0,1.7-0.4,2.4-0.9"/>
	<ellipse class="st18" cx="883.1" cy="280.8" rx="35.8" ry="36.1"/>
	<circle class="st18" cx="882.9" cy="280.9" r="29.3"/>
	<line class="st16" x1="883" y1="257.6" x2="883" y2="252.4"/>
	<line class="st16" x1="883" y1="309.5" x2="883" y2="304.2"/>
	<line class="st14" x1="873.4" y1="260.9" x2="873.4" y2="262.9"/>
	<line class="st14" x1="892.8" y1="260.9" x2="892.8" y2="262.9"/>
	<line class="st16" x1="853.7" y1="280.9" x2="859.7" y2="280.9"/>
	<line class="st16" x1="906.4" y1="280.9" x2="911.7" y2="280.9"/>
	<path class="st15" d="M880.6,262.8c1.4,1.4,3.6,1.5,5.1,0.1c0,0,0,0,0,0"/>
	<path class="st16" d="M878.1,277.5c0.3-0.9,1-1.5,1.8-1.8l10.2-3.4c0.7-0.2,1.3,0.2,1.5,0.8c0.1,0.2,0.1,0.5,0,0.7l-3.4,10.6
		c-0.3,0.9-1,1.6-1.9,1.9l-9.4,2.7c-0.9,0.2-1.8-0.3-2-1.1c-0.1-0.3-0.1-0.6,0-0.9L878.1,277.5z"/>
	<line class="st16" x1="887.3" y1="285.2" x2="879.1" y2="276.9"/>
	<path class="st30" d="M886.9,244.9l-3.8-0.1l-3.6,0.1c-0.5,0-0.9-0.4-0.9-0.8c0,0,0,0,0,0v-1.7c0-1.6,1.3-2.9,2.9-2.9h3.2
		c1.6,0,2.9,1.3,2.9,2.9l0,2C887.6,244.7,887.3,244.9,886.9,244.9C886.9,244.9,886.9,244.9,886.9,244.9z"/>
	<path class="st31" d="M968.2,293.2h61.6c3.2,0,5.8,2.6,5.8,5.8v8.4c0,3.2-2.6,5.8-5.8,5.8h-61.6c-3.2,0-5.8-2.6-5.8-5.8V299
		C962.4,295.8,965,293.2,968.2,293.2z"/>
	<path class="st31" d="M987.4,301c0,0,0.3-2,2.1-2c1.2,0,2.2,0.9,2.2,2.1"/>
	<path class="st31" d="M1006.5,301c0,0,0.3-2,2.1-2c1.2,0,2.2,0.9,2.2,2.1"/>
	<path class="st31" d="M1003.4,302.3c-0.1,2.4-2,4.3-4.4,4.6c-2.3-0.1-4.1-2-4.2-4.3c-0.1-2.9,0.4-3.8,4.1-3.8
		C1003.2,298.8,1003.4,300.1,1003.4,302.3z"/>
	<path class="st30" d="M1029.3,303c0,2-1.6,3.6-3.6,3.6c-2,0-3.6-1.6-3.6-3.6c0-2,1.6-3.6,3.6-3.6c0,0,0,0,0,0
		C1027.6,299.4,1029.3,301,1029.3,303z"/>
	<path class="st30" d="M1002.9,278.9c0,2-1.6,3.7-3.7,3.7s-3.7-1.6-3.7-3.7c0-2,1.6-3.7,3.7-3.7c0,0,0,0,0,0
		C1001.2,275.2,1002.9,276.9,1002.9,278.9z"/>
	<path class="st31" d="M1004.5,292.6c-0.1-2.3,1.6-4.2,3.9-4.3c2.3-0.1,4.2,1.6,4.3,3.9c0,0.1,0,0.3,0,0.4"/>
	<path class="st31" d="M985.4,292.8c0.1-2.3,2-4,4.3-3.9c2.1,0.1,3.8,1.8,3.9,3.9"/>
	<path class="st31" d="M969.3,274L969.3,274c0.9-0.8,2.2-0.8,3.1,0l15,15l-3.1,3.1l-15-15C968.4,276.2,968.4,274.8,969.3,274z"/>
	<path class="st31" d="M1029,274L1029,274c-0.9-0.9-2.3-0.9-3.1,0l-15,15l3.1,3.1l15-15C1029.8,276.2,1029.8,274.9,1029,274z"/>
	<path class="st30" d="M1023,252.8c-1,1.2-2.8,1.4-4.1,0.4c-3.4-2.7-10.7-7.4-20.3-7.4c-7.1,0.1-13.9,2.6-19.4,7.2
		c-1.2,1-3.1,0.9-4.1-0.4c0,0-0.1-0.1-0.1-0.1l0,0c-0.9-1.2-0.7-2.9,0.4-3.9c6.4-5.5,14.6-8.6,23-8.5c13.1,0,20.9,5.6,24.3,8.7
		C1023.8,249.8,1023.9,251.5,1023,252.8L1023,252.8z"/>
	<path class="st30" d="M998.8,251.8c9.7,0,15,4.7,16,5.7c1.5,1.5,0,6.1-3.9,4.1c-3.1-1.6-5.1-3.9-11.6-3.9c-7,0-11.3,3.6-12.5,4.3
		c-2.3,1.3-6-2.8-3-5C988.1,253.7,993.4,251.9,998.8,251.8z"/>
	<path class="st30" d="M999.3,263.6c2.4,0,6.6,1.1,7.3,2.6c0.8,1.5,0.2,3.3-1.3,4.1c-0.4,0.2-0.8,0.3-1.2,0.3
		c-1.8,0-2.5-1.2-5.2-1.2c-2.9,0-3.9,1.9-6,0.9c-1.4-0.6-2.1-2.2-1.6-3.6c0.1-0.3,0.3-0.6,0.5-0.8
		C993.7,264.1,996.2,263.6,999.3,263.6z"/>
	<g id="iaauId.tif" class="st32">
		
			<image style="overflow:visible;enable-background:new    ;" width="512" height="504" id="Layer_0" xlink:href="23677A8B9BE68844.png"  transform="matrix(0.15 0 0 0.15 1071.78 239.07)">
		</image>
	</g>
	<path class="st17" d="M1078.7,284.4h68.8l0,0v18.1c0,6.1-4.9,11-11,11h-46.8c-6.1,0-11-4.9-11-11L1078.7,284.4L1078.7,284.4z"/>
	<path class="st22" d="M1083.3,273.6l0.6-0.9c0.3-0.5,0.8-0.7,1.3-0.7h62.3v12.3h-68.8l-0.1-6.7c0-0.7,0.5-1.4,1.2-1.6l0.8-0.2
		C1081.7,275.3,1082.6,274.5,1083.3,273.6z"/>
	<path class="st22" d="M1081.5,256.8l60.5-16.6l3.2,11.8l-60.2,16.5c-0.4,0.1-0.8-0.1-1.1-0.4l-0.9-1.4c-0.9-1.1-2.2-1.9-3.6-2
		l-1.8-0.1c-0.4,0-0.6-0.3-0.7-0.6C1076.5,260.9,1078.4,257.8,1081.5,256.8z"/>
	<path class="st17" d="M1084.3,270.4c0,3.1-2.5,5.7-5.7,5.7c-3.1,0-5.7-2.5-5.7-5.7s2.5-5.7,5.7-5.7S1084.3,267.3,1084.3,270.4
		L1084.3,270.4z"/>
	<line class="st22" x1="1090.8" y1="272.1" x2="1079.5" y2="283.5"/>
	<line class="st22" x1="1105" y1="272" x2="1093.2" y2="283.9"/>
	<line class="st22" x1="1119.1" y1="272" x2="1107.3" y2="284"/>
	<line class="st22" x1="1133" y1="272.1" x2="1121.2" y2="284"/>
	<line class="st22" x1="1146.8" y1="272.6" x2="1135" y2="284.5"/>
	<line class="st22" x1="1086.8" y1="255.5" x2="1081.2" y2="265.7"/>
	<line class="st22" x1="1100.2" y1="252.2" x2="1092.4" y2="266.3"/>
	<line class="st22" x1="1114.3" y1="247.6" x2="1105.6" y2="263"/>
	<line class="st22" x1="1128" y1="244.3" x2="1119.4" y2="259"/>
	<line class="st22" x1="1141.9" y1="240.3" x2="1133.3" y2="255.5"/>
	<path class="st23" d="M1098.3,295c0-1.4,1.1-2.6,2.5-2.6c0,0,0.1,0,0.1,0c1.5-0.1,2.7,1.1,2.8,2.5c0,0.1,0,0.1,0,0.2"/>
	<path class="st23" d="M1122.5,295c0-1.4,1.1-2.6,2.5-2.6c0,0,0.1,0,0.1,0c1.5-0.1,2.7,1.1,2.8,2.5c0,0.1,0,0.1,0,0.2"/>
	<path class="st9" d="M1110.2,298.2c1.2,1.6,3.4,1.9,5,0.7c0.3-0.2,0.5-0.4,0.7-0.7"/>
	<path class="st22" d="M565.6,458.3l-27.4-14.9c-0.9-0.5-2-0.5-2.9,0l-27.6,15.2c-1.5,0.8-3.4,0.3-4.2-1.2c-0.3-0.5-0.4-1-0.4-1.5
		v-71.6c0-3,2.4-5.4,5.4-5.4c0,0,0,0,0,0h56.2c3,0,5.4,2.4,5.4,5.4l0,0v71.3c0,1.7-1.4,3.1-3.1,3.1
		C566.6,458.7,566.1,458.6,565.6,458.3z"/>
	<path class="st22" d="M515.1,454.5"/>
	<path class="st22" d="M515.3,378.9"/>
	<path class="st22" d="M558.8,454.8"/>
	<path class="st22" d="M558.5,378.9"/>
	<line class="st14" x1="521.9" y1="410.4" x2="521.9" y2="413.1"/>
	<line class="st14" x1="551.8" y1="410.4" x2="551.8" y2="413.2"/>
	<path class="st14" d="M533,413.1c1,1.2,2.5,1.9,4,2c1.5-0.1,2.9-0.8,3.8-1.9"/>
	<path class="st17" d="M515.1,454.7l-6.8,3.8c-1.7,0.9-3.7,0.2-4.6-1.5c-0.1-0.1-0.1-0.3-0.2-0.4c-0.1-0.3-0.1-2.8-0.1-3.2
		l-0.2-68.1c0-3.5,2.9-6.4,6.4-6.4h5.4L515.1,454.7z"/>
	<path class="st17" d="M558.8,454.7l6.8,3.8c1.7,0.8,3.7,0.2,4.6-1.5c0.1-0.1,0.1-0.3,0.2-0.5c0.1-0.3,0.1-2.8,0.1-3.1l0.2-68
		c0-3.5-2.9-6.4-6.4-6.4h-5.4L558.8,454.7z"/>
	<path class="st22" d="M458,449.1h-65.7c-3.5,0-6.4-2.9-6.4-6.4l0,0l0,0c0-3.5,2.9-6.4,6.4-6.4H458c3.5,0,6.4,2.9,6.4,6.4l0,0
		C464.4,446.2,461.5,449.1,458,449.1L458,449.1z"/>
	<path class="st17" d="M435.9,448c0,5.6-4.7,9.9-10.6,9.9s-10.7-4.2-10.7-9.9"/>
	<circle class="st17" cx="404.4" cy="393.8" r="9.3"/>
	<path class="st22" d="M402.2,402.6c0,0-1,5.6-1.6,14.9c-0.6,6.2-2.1,12.2-4.5,17.9c-0.1,0.3,0,0.6,0.3,0.7c0.1,0,0.1,0,0.2,0
		l56.7,0.1c0.6,0,1.1-0.3,0.9-0.9c-2.7-6-4.3-12.3-4.8-18.9c-0.5-4.7,0-12.9-4-21.5s-10.8-13.1-19-13.1c-5.1,0-11.8,1.1-15.7,4.8"/>
	<line class="st25" x1="401.4" y1="392.9" x2="405.3" y2="389.8"/>
	<line class="st25" x1="405.3" y1="398.1" x2="405.3" y2="389.8"/>
	<line class="st14" x1="412.5" y1="420.2" x2="412.5" y2="422.1"/>
	<line class="st14" x1="437.9" y1="420.2" x2="437.9" y2="422.1"/>
	<path class="st16" d="M421.7,422.1c1,0.9,2.3,1.4,3.6,1.4c1.3,0,2.6-0.5,3.6-1.3"/>
	<path class="st22" d="M217.7,388.1l-20-3.6c-2.9-0.5-5.9,0.4-7.9,2.5l-31.3,31.3c-3.6,3.6-3.6,9.4,0,13c0,0,0,0,0,0l23.9,23.9
		c3.6,3.6,9.4,3.6,13,0l31-31.5c2-2,2.9-4.9,2.3-7.8l-3.3-20.7"/>
	<path class="st17" d="M230.2,383.1L230.2,383.1c-2-2-5.3-2-7.4,0l-13,13c-2,2-2,5.3,0,7.4c0,0,0,0,0,0l0,0c2,2,5.3,2,7.4,0
		c0,0,0,0,0,0l13-13C232.2,388.4,232.2,385.1,230.2,383.1C230.2,383.1,230.2,383.1,230.2,383.1z"/>
	<path class="st22" d="M216.6,404.3c0,4.2-3.4,7.6-7.6,7.6c-4.2,0-7.6-3.4-7.6-7.6c0-4.2,3.4-7.6,7.6-7.6"/>
	<line class="st14" x1="179.3" y1="417.6" x2="181.3" y2="415.6"/>
	<line class="st14" x1="195.8" y1="433.7" x2="197.8" y2="431.7"/>
	<path class="st15" d="M185.8,423.2c0,1.1,0.4,2.2,1.1,3c0.8,0.8,1.9,1.2,3.1,1.1"/>
	<path class="st22" d="M52.5,408.8h5.3c1.6,0,2.9,1.3,2.9,2.9v39.9c0,1.6-1.3,2.9-2.9,2.9h-5.3c-1.6,0-2.9-1.3-2.9-2.9v-39.9
		C49.6,410.1,50.9,408.8,52.5,408.8z"/>
	<path class="st16" d="M116.5,419.8"/>
	<path class="st16" d="M60.7,412.7c2.8-0.8,6.3-2.7,10.8-7.2c5.7-5.7,7.6-8,7.6-13.6c0-6,5.1-7.7,8.1-7.7c5.9,0,11.9,4.6,3.8,24.3
		h8.6c0,0,13.2,0.1,16.4,0.1c3.2-0.1,5.9,2.4,6,5.6c0,0,0,0.1,0,0.1l0,0c0,3.2-2.6,5.8-5.8,5.8l-11.9-0.1"/>
	<path class="st16" d="M49.4,450.2h-2.1c-1.8,0-3.6,0-5.1,0.1c-2.7,0.1-4.9-2-5-4.7c0-0.1,0-0.1,0-0.2v-27.7c0-2.6,2.1-4.7,4.7-4.7
		c0,0,0.1,0,0.1,0l7.3,0.1"/>
	<path class="st16" d="M97.4,454.5c-14.9,0-25.1-0.2-28.7-0.2c-3,0-5-3-8.1-3"/>
	<path class="st16" d="M114,420c2.9,0,5.2,2.8,5.2,5.7v0.4c0,2.9-2.3,5.2-5.2,5.2h-11.8"/>
	<path class="st16" d="M111.5,431.4c2.8,0,5.2,2.8,5.2,5.8v0.4c0,2.9-2.3,5.2-5.2,5.3H99.8"/>
	<path class="st16" d="M109.1,442.9c2.8,0,5.1,2.9,5.1,5.9v0.4c0.1,2.9-2.3,5.3-5.2,5.4H97.3"/>
	<line class="st16" x1="49.6" y1="423.8" x2="60.1" y2="423.8"/>
	<line class="st16" x1="50" y1="439.7" x2="60.5" y2="439.7"/>
	<line class="st21" x1="72" y1="426.3" x2="72" y2="428.3"/>
	<line class="st21" x1="92.3" y1="426.5" x2="92.3" y2="428.2"/>
	<path class="st21" d="M79.5,428.3c0.7,0.7,1.7,1.2,2.7,1.2c1.1-0.1,2-0.5,2.8-1.3"/>
	<path class="st17" d="M1091.5,408.5v18.8c0,0.2-0.1,0.3-0.3,0.3h-7c-3.4,0-6.1,2.7-6.1,6.1l0,0c0.1,3.3,2.7,5.9,6,6h7.1
		c0.2,0,0.3,0.1,0.3,0.3v8.8c0,3.3,2.7,6,6,6h0.2c3.3,0,6-2.7,6-6v-8.6c0-0.3,0.2-0.5,0.5-0.5h21.4c0.2,0,0.4,0.2,0.4,0.4
		c0,0,0,0,0,0v8.6c0,3.3,2.7,6,6,6h0.2c3.3,0,6-2.7,6-6v-9.1h7.3c3.3-0.1,5.9-2.7,6-6v-0.2c0-3.3-2.7-6-6-6h-7.4v-19
		c0-0.1,0.1-0.2,0.2-0.2l0,0h7.3c3.3-0.1,5.8-2.7,5.9-6v-0.2c0-3.3-2.6-6-5.9-6c0,0,0,0,0,0h-7.3c-0.1,0-0.2-0.1-0.2-0.2v0v-8.9
		c0-3.3-2.7-6-6-6h-0.2c-3.3,0-6,2.7-6,6l-0.1,8.8l0,0l-22,0.1l0,0v-8.9c0-3.3-2.7-6-6-6h-0.2c-3.3,0-6,2.7-6,6v9h-7.4
		c-3.3,0-6,2.7-6,6l0,0c0.1,3.4,2.8,6.1,6.1,6.1L1091.5,408.5z"/>
	<path class="st18" d="M1104.3,408.5h21.2c0.3,0,0.6,0.3,0.6,0.6v18c0,0.3-0.3,0.6-0.6,0.6h-21.2c-0.3,0-0.6-0.3-0.6-0.6v-18
		C1103.7,408.7,1103.9,408.5,1104.3,408.5z"/>
	<line class="st8" x1="1099.8" y1="400.2" x2="1099.8" y2="403"/>
	<line class="st8" x1="1129.8" y1="400.2" x2="1129.8" y2="403"/>
	<path class="st9" d="M1112.2,403.1c0.6,0.7,1.5,1.1,2.4,1.1c1,0.1,1.9-0.3,2.5-1.1"/>
	<path class="st22" d="M980.5,434l-9.2-0.1c-4.2,0-11.5-5.8-11.5-14.4c0-10.6,9.9-13.8,12.2-14.3c0.3-0.1,0.4-0.3,0.4-0.6
		c-0.1-1.6,0.1-6.4,3.8-9.1c2.2-1.6,5-2.2,7.6-1.6c0.1,0,0.3-0.1,0.3-0.2c0,0,0,0,0,0c0.4-1.8,3.4-13.2,15.4-13.2
		c10.6,0,14,9.4,14.8,12.5c0.1,0.6,0.7,1,1.3,1c1.8,0,5.7,0.3,8,2.7c2.3,2.4,2.5,6.5,2.4,8c0,0.3,0.2,0.6,0.5,0.6
		c2.2,0.4,10.4,2.5,12.2,10.9c1.8,8.1-2.1,18.1-19.1,18.1h-1.4"/>
	<path class="st17" d="M989.9,430.2v-14.5c0-2.2,1.8-4,4-4h11.1c2.2,0,4,1.8,4,4v14.4c0,0.3,0.2,0.5,0.5,0.5h6.2
		c1.7,0,3.1,1.4,3.1,3.1c0,0.7-0.2,1.3-0.6,1.8l-16,22.6c-1.1,1.6-3.4,2-5,0.8c-0.3-0.2-0.6-0.5-0.8-0.8l-16-22.6
		c-1-1.4-0.7-3.4,0.7-4.4c0.6-0.4,1.2-0.6,1.9-0.6l6.4,0C989.6,430.7,989.8,430.5,989.9,430.2z"/>
	<path class="st15" d="M987.4,400.5c0.5,0.5,1.2,0.9,2,0.9c0.8,0,1.5-0.4,2-1"/>
	<path class="st15" d="M1007.4,400.4c0.5,0.5,1.2,0.9,2,0.9c0.8,0,1.5-0.4,2-1"/>
	<path class="st16" d="M1003.8,401.5c1.6,1.9-1.8,4-4.4,4c-3,0-5.2-2.2-4.5-3.8c0.9-1.8,3.6-0.5,4.7-0.5S1002.6,400.2,1003.8,401.5z
		"/>
	<path class="st22" d="M888.4,442.7h16.3c4.9,0,18.4-4.9,18.4-17.8c0-15.3-11.8-18.8-11.8-18.8c-1.6-12-12.6-20.5-24.7-18.9
		c-7.7,1-14.3,6.1-17.4,13.2c0,0-14.6-5.4-15.5,10.1c0,0-10.4,5-9.5,16.5s11.9,15.8,15.6,15.8h10.3"/>
	<line class="st14" x1="879.8" y1="397.4" x2="879.8" y2="399.2"/>
	<line class="st14" x1="899.2" y1="397.5" x2="899.2" y2="399.2"/>
	<path class="st15" d="M887.2,399.1c0.5,0.7,1.4,1.1,2.3,1.1c0.9,0.1,1.9-0.3,2.4-1.1"/>
	<path class="st19" d="M888.7,430.4v21.9c0,2.2-1.8,4-4,4h-10.9c-2.2,0-4-1.8-4-4v-22c0-0.2-0.2-0.4-0.4-0.4l-3.8-0.1
		c-1.4,0-2.4-1.2-2.4-2.5c0-0.6,0.2-1.1,0.6-1.5l13.4-15.5c1-1.1,2.7-1.2,3.8-0.3c0.1,0.1,0.2,0.2,0.3,0.3l13.6,15.6
		c0.9,1,0.9,2.5,0,3.5c-0.5,0.5-1.2,0.7-1.8,0.7h-3.9C888.9,430,888.7,430.1,888.7,430.4z"/>
	<path class="st17" d="M806.2,408.2L806.2,408.2c-2.5,2.5-6.5,2.5-9,0c0,0,0,0,0,0l-17-17c-2.5-2.5-2.5-6.5,0-9c0,0,0,0,0,0l0,0
		c0.9-0.9,2.3-0.9,3.1,0c0,0,0,0,0,0l22.8,22.8C807,405.9,807,407.3,806.2,408.2C806.2,408.2,806.2,408.2,806.2,408.2z"/>
	<path class="st22" d="M750.7,414.9c0,0,2.9-6.6,12.3-15.3c4.8-4.5,15.5-9.9,15.5-9.9"/>
	<path class="st22" d="M798.6,409.9c0,0-6.4,12.5-12.7,18.4c-3.9,3.5-8,6.7-12.3,9.6"/>
	<path class="st17" d="M771.2,447.1L771.2,447.1c-0.9,0.9-2.3,0.9-3.1,0c0,0,0,0,0,0l-26.8-26.8c-0.9-0.9-0.9-2.3,0-3.1l0,0
		c3.2-3.2,8.4-3.2,11.6,0c0,0,0,0,0,0l18.3,18.3C774.4,438.7,774.4,443.9,771.2,447.1C771.2,447.1,771.2,447.1,771.2,447.1z"/>
	<path class="st22" d="M742.9,453.3l15.7-15.7l-7.8-7.8l-15.7,15.7c-1,1-1.7,2.3-2,3.7l-0.9,4.1c-0.3,1.3,0.5,2.5,1.8,2.8
		c0.3,0.1,0.7,0.1,1,0l4.5-1C740.8,454.9,742,454.3,742.9,453.3z"/>
	<path class="st15" d="M772,412.5c0,1,0.3,1.9,0.9,2.7c0.8,0.6,1.8,0.9,2.8,0.9"/>
	<line class="st33" x1="768" y1="406.4" x2="767" y2="407.5"/>
	<line class="st33" x1="782" y1="420.4" x2="780.9" y2="421.4"/>
	<path class="st22" d="M658.5,447l-35.5-0.2c-3.4,0-6.2-2.8-6.2-6.1c0,0,0,0,0,0v-48.1c0-3.4,2.8-6.1,6.2-6.1l0,0h59.9
		c3.4,0,6.2,2.8,6.2,6.1c0,0,0,0,0,0v41"/>
	<path class="st22" d="M647,419l-30.1-26.2c0-3.4,2.8-6.1,6.2-6.1h59.8c3.4,0,6.1,2.7,6.2,6.1c0,0,0,0,0,0L659,419
		C655.6,422,650.4,422,647,419z"/>
	<line class="st22" x1="643.3" y1="416.2" x2="617" y2="440.8"/>
	<line class="st22" x1="662.7" y1="415.9" x2="678.7" y2="431.3"/>
	<line class="st14" x1="639.7" y1="397.4" x2="639.7" y2="399.9"/>
	<line class="st14" x1="666.3" y1="397.5" x2="666.3" y2="399.9"/>
	<path class="st15" d="M649.8,399.8c0.8,0.9,1.8,1.4,3,1.5c1.2,0,2.4-0.5,3.3-1.4"/>
	<path class="st19" d="M677,445.6c0.8-0.1,1.6,0.5,1.7,1.3c0,0.1,0,0.2,0,0.3l-0.1,2.5c0,1,0.8,1.8,1.8,1.8c0.5,0,0.9-0.2,1.2-0.5
		l11.3-10.1c0.9-0.8,1-2.3,0.2-3.2c-0.1-0.1-0.1-0.1-0.2-0.2l-11.2-10c-0.7-0.7-1.9-0.6-2.5,0.1c-0.3,0.3-0.5,0.7-0.5,1.2l-0.2,4.5
		c0,0-10.5,2-17.2,9.4c-3.7,4-6.6,9.5-6.7,15.6c0,1.2,0.9,2.1,2,2.2c0.8,0,1.6-0.4,2-1.2C662.9,450.2,666.8,447.6,677,445.6z"/>
	<path class="st15" d="M641.6,530.9c0-1.2,0.9-2.1,2.1-2.1c1.2,0,2.1,0.9,2.1,2.1"/>
	<path class="st15" d="M660.9,531c-0.1-1.1,0.7-2.1,1.8-2.2c0.1,0,0.2,0,0.3,0c1.1-0.1,2,0.8,2.1,1.9c0,0.1,0,0.2,0,0.2"/>
	<path class="st17" d="M631.2,561.9h3.6c1.9,0,3.5,1.6,3.5,3.5v30.1c0,1.9-1.6,3.5-3.5,3.5h-3.6c-1.9,0-3.5-1.6-3.5-3.5v-30.1
		C627.8,563.5,629.3,561.9,631.2,561.9z"/>
	<path class="st22" d="M627.7,596.7h-4.7c-4.1,0-7.3-3.3-7.3-7.3v-17.7c0-4.1,3.3-7.3,7.3-7.3h4.7"/>
	<path class="st17" d="M675.5,598.8H672c-1.9,0-3.5-1.6-3.5-3.5v-30.1c0-1.9,1.6-3.5,3.5-3.5h3.6c1.9,0,3.5,1.6,3.5,3.5v30.1
		C679,597.3,677.4,598.8,675.5,598.8z"/>
	<path class="st22" d="M679,596.5h4.7c4,0,7.3-3.3,7.3-7.3v-17.7c0-4.1-3.3-7.3-7.3-7.3H679"/>
	<path class="st22" d="M681.1,539.9c1.5-1.3,1.7-3.5,0.4-5c-7-8.3-17.3-13.2-28.2-13.3c-10.8,0-20.9,4.8-27.9,13
		c-1.4,1.7-1.2,4.2,0.5,5.6c0,0,0,0,0.1,0.1l8.8,7.3c1.6,1.4,4.1,1.2,5.5-0.3c3.3-3.8,8.1-5.9,13.2-5.9c5.1,0.1,9.8,2.3,13.3,6
		c1.5,1.5,3.9,1.6,5.5,0.2L681.1,539.9z"/>
	<path class="st16" d="M657,532.3c0.1,2-1.4,3.7-3.5,3.8c-2,0.1-3.7-1.4-3.8-3.5c0-0.1,0-0.3,0-0.4c0-2.5,1.6-2.8,3.6-2.8
		S657,529.7,657,532.3z"/>
	<path class="st16" d="M626.5,541c0,0-4.2,5.7-5,11.7c-0.6,3.9-0.7,7.8-0.3,11.8"/>
	<path class="st16" d="M634.2,547.4c0,0-4.3,4.6-3.3,13.9"/>
	<path class="st16" d="M672.7,547.5c2.7,4.1,3.9,9.1,3.2,13.9"/>
	<path class="st16" d="M680.4,540.8c0,0,4,7.5,4.9,12.2c0.5,3.7,0.7,7.4,0.7,11.1"/>
	<path class="st22" d="M522.9,593.6h-13.6c-1.9,0-3.5-1.6-3.5-3.5v-32.8c0-1.9,1.6-3.5,3.5-3.5l21.8-0.1c1.5,0,2.6-1.2,2.7-2.6
		l0-3.1c0-1.9,1.6-3.4,3.5-3.4l30.5,0.1c1.9,0,3.5,1.6,3.5,3.5v41.9c0,1.9-1.6,3.5-3.5,3.5h-14"/>
	<path class="st17" d="M526.6,578.6h24.3c1.9,0,3.4,1.5,3.4,3.4v10.3c0,1.9-1.5,3.4-3.4,3.4h-24.3c-1.9,0-3.4-1.5-3.4-3.4v-10.3
		C523.2,580.2,524.7,578.6,526.6,578.6z"/>
	<path class="st22" d="M512.5,553.4V527c0-2,1.6-3.6,3.6-3.6h45.1c2,0,3.6,1.6,3.6,3.6v17.4"/>
	<line class="st16" x1="519.5" y1="531.6" x2="555.7" y2="531.7"/>
	<line class="st16" x1="519.5" y1="538.1" x2="555.7" y2="538.2"/>
	<path class="st16" d="M543,564.8c0,2.5-2,4.4-4.5,4.5c-2.5,0-4.5-2-4.5-4.5c0,0,0,0,0,0c0-3.3,2-3.3,4.4-3.3S543.1,561.6,543,564.8
		z"/>
	<path class="st11" d="M526.8,561.9c0,0,0.4-2.1,2.1-2.1s2,2,2,2"/>
	<line class="st15" x1="548.2" y1="560.4" x2="548.2" y2="562"/>
	<polyline class="st22" points="441,562.3 445.8,564.7 446,571.3 440,574.2 437.5,580.7 440.1,586.5 435.3,591.8 429,589.4 
		422.7,591.8 420,597.9 412.6,597.9 410.1,591.6 404.5,589.3 397.9,591.5 392.7,586.1 395.1,580.5 392.8,574.2 386.5,571.6 
		386.4,564.5 393,561.8 395.2,555.1 392.8,549.6 397.8,544.4 404.2,547.1 410,544.8 412.9,538.5 420,538.4 423,545.2 	"/>
	<polygon class="st17" points="422.8,544.8 422.5,539.8 426.6,538.4 428.3,534.2 426.6,529.8 430,526.7 434,528.5 437.8,526.8 
		440.1,522.3 444.2,522.5 446.1,526.6 449.9,528.1 454.5,526.6 458,530.2 455.9,534.1 457.8,538.2 461.9,540.2 462.1,545.2 
		458,546.4 456.2,550.3 457.4,554.2 454.3,557.6 450.4,556.1 446.1,558 444.5,562.3 439.7,562.4 438.6,557.7 434.2,556.2 
		429.9,558.1 426.6,554.8 428.2,550.3 426.6,546.7 	"/>
	<circle class="st22" cx="416.5" cy="568.2" r="10.3"/>
	<circle class="st29" cx="442.2" cy="542.4" r="6.7"/>
	<line class="st15" x1="407.1" y1="583" x2="407.1" y2="584.7"/>
	<line class="st15" x1="425.9" y1="582.8" x2="425.9" y2="584.6"/>
	<path class="st16" d="M414,584.6c0.6,0.8,1.5,1.2,2.4,1.2c1,0,1.9-0.4,2.5-1.1"/>
	<path class="st22" d="M339.3,560c0,25.7-14.5,37.5-30.5,37.5c-20.8,0-31.9-14.9-31.9-37.3c0-25.4,12.4-38,31.9-38
		C315.1,522.1,339.3,525.1,339.3,560z"/>
	<path class="st17" d="M325.8,552.7c2.8,3.7,4.3,8.2,4.3,12.9c0,12.2-9.8,22-22,22s-22-9.8-22-22c0-4.5,1.4-9,4.1-12.6
		c3-4,5.7-3.2,7.1-1.8c1.9,1.9,2.1,3.7-0.9,7.7c-4.8,6.4-1.1,20.5,11.6,20.6c12.3,0,17.2-14.7,11-21.6c-2.5-2.8-2-5-0.1-6.9
		C320.4,549.7,323.5,549.5,325.8,552.7z"/>
	<path class="st17" d="M308.1,570.5L308.1,570.5c-2.2,0-4-1.8-4-4v-18.9c0-2.2,1.8-4.1,4-4.1c0,0,0,0,0,0l0,0c2.2,0,4,1.8,4,4
		c0,0,0,0,0,0v18.9C312.1,568.7,310.3,570.5,308.1,570.5z"/>
	<line class="st15" x1="298.6" y1="532.6" x2="298.6" y2="534.5"/>
	<line class="st15" x1="317.5" y1="532.6" x2="317.5" y2="534.4"/>
	<path class="st15" d="M305.6,534.5c0.6,0.7,1.5,1,2.4,1.1c1-0.1,1.9-0.5,2.5-1.1"/>
	<path d="M193.1,597c-20.6,0.1-37.4-16.6-37.4-37.3c0-0.1,0-0.3,0-0.4c0.3-21.1,17.7-38,38.8-37.7c6.3,0.1,12.4,1.7,17.9,4.7
		c0.7,0.4,1.5,0.2,2-0.3l2.9-3.5c1.2-1.5,3.5-1.7,5-0.5c0.6,0.5,1,1.1,1.2,1.8l7.5,26c0.6,1.9-0.6,3.9-2.5,4.5
		c-0.4,0.1-0.7,0.1-1.1,0.1l-27.5-0.7c-1.9-0.1-3.4-1.6-3.3-3.5c0-0.7,0.3-1.4,0.7-2l2.4-3.2c0.6-0.7,0.4-1.8-0.3-2.3
		c-0.2-0.1-0.3-0.2-0.5-0.3c-1.8-0.5-3.6-0.8-5.5-0.8c-9.7,0.1-17.5,8-17.4,17.7c-0.1,9.5,7.5,17.4,17.1,17.5c0.1,0,0.1,0,0.2,0
		c8.1,0,9.2-2.9,13.4-4.5c4.7-1.6,9.8,0.5,12,4.9c1.4,3.1,1.6,9.6-3.2,12.7C209.5,593.8,202.8,597,193.1,597z"/>
	<line class="st9" x1="182.8" y1="530.1" x2="182.8" y2="532"/>
	<path class="st9" d="M190.1,531.9c0.6,0.8,1.6,1.2,2.5,1.3c1.1-0.1,2-0.5,2.8-1.2"/>
	<path class="st9" d="M201,531.8c0,0,0.1-2,2-2c1.1,0,2,0.8,2.1,1.9c0,0,0,0,0,0.1"/>
	<path class="st22" d="M53.8,533h50.2c4.8,0,8.7,3.9,8.7,8.7v30.5l0,0H45.1l0,0v-30.5C45.1,536.8,49,533,53.8,533z"/>
	<path class="st22" d="M111.8,582.4H45.8c-4.1,0-7.4-3.3-7.4-7.4l0,0c0-1.6,1.3-2.8,2.8-2.8h75.2c1.6,0,2.8,1.3,2.8,2.8l0,0
		C119.2,579.1,115.9,582.4,111.8,582.4z"/>
	<path class="st22" d="M88.8,572.2L88.8,572.2c0,2.9-2.4,5.3-5.3,5.3c0,0,0,0,0,0h-9.4c-2.9,0-5.3-2.4-5.3-5.3c0,0,0,0,0,0l0,0"/>
	<path d="M54.7,538.8h48.1c2.1,0,3.9,1.7,3.9,3.9V563c0,1.9-1.6,3.5-3.5,3.5c0,0,0,0,0,0H54.3c-1.9,0-3.5-1.6-3.5-3.5l0,0v-20.4
		C50.8,540.5,52.5,538.8,54.7,538.8C54.7,538.8,54.7,538.8,54.7,538.8z"/>
	<path class="st23" d="M66.6,549.3c-0.1-1.1,0.6-2.1,1.7-2.2c0.1,0,0.3,0,0.4,0c1.1-0.1,2.1,0.8,2.2,2c0,0.1,0,0.2,0,0.3"/>
	<path class="st23" d="M86.6,549.4c-0.1-1.1,0.6-2.1,1.7-2.2c0.1,0,0.3,0,0.4,0c1.1-0.1,2.1,0.8,2.2,2c0,0.1,0,0.2,0,0.3"/>
	<path class="st9" d="M76.4,551.9c0.6,0.7,1.4,1.1,2.3,1.1c0.9,0,1.8-0.4,2.5-1"/>
	<path class="st22" d="M1141.5,544.2l-5.7,46.2c-0.4,3.3-3.2,5.7-6.5,5.8h-30.7c-3.3,0-6.1-2.5-6.5-5.8l-5.4-46.2"/>
	<path class="st22" d="M1141.7,544.1l-54.8,0.1c-1.7,0-3-1.4-3-3c0-0.3,0.1-0.7,0.2-1l1-2.7c1.1-3.2,4.1-5.3,7.5-5.3h42.6
		c4,0,7.5,2.8,8.3,6.7l0.5,2.4c0.3,1.2-0.5,2.4-1.7,2.7C1142.1,544.1,1141.9,544.1,1141.7,544.1z"/>
	<path class="st17" d="M1087.6,551.7h-6.1c-1,0-1.7,0.8-1.7,1.7c0,0.2,0,0.4,0.1,0.6l1,2.8c0.2,0.6,0.8,1,1.4,1h6.1"/>
	<path class="st17" d="M1140.4,551.7h6.1c1,0,1.7,0.8,1.7,1.7c0,0.2,0,0.4-0.1,0.6l-1,2.8c-0.2,0.6-0.8,1-1.4,1h-6.1"/>
	<path class="st22" d="M1107.2,531.7l1-2.9c0.4-1.1,1.3-1.8,2.5-1.8h6.8c1.1,0,2.1,0.7,2.5,1.8l1.1,3.2"/>
	<path class="st22" d="M1100.6,532.2l1.9-5.7c1.1-3.3,4.2-5.5,7.6-5.5h7.8c3.4,0,6.5,2.2,7.6,5.5l1.7,5.3"/>
	<path class="st5" d="M1100.6,586.2L1100.6,586.2c-1.9,0-3.5-1.6-3.5-3.5v-27.5c0-1.9,1.6-3.5,3.5-3.5l0,0c1.9,0,3.5,1.6,3.5,3.5
		v27.5C1104.1,584.6,1102.5,586.2,1100.6,586.2z"/>
	<path class="st5" d="M1114,586.2L1114,586.2c-1.9,0-3.5-1.6-3.5-3.5v-27.5c0-1.9,1.6-3.5,3.5-3.5l0,0c1.9,0,3.5,1.5,3.5,3.5
		c0,0,0,0,0,0v27.5C1117.5,584.6,1115.9,586.2,1114,586.2z"/>
	<path class="st5" d="M1127.3,586.1L1127.3,586.1c-1.9,0-3.5-1.6-3.5-3.5v-27.5c0-1.9,1.6-3.5,3.5-3.5l0,0c1.9,0,3.5,1.6,3.5,3.5
		v27.5C1130.8,584.6,1129.3,586.1,1127.3,586.1z"/>
	<line class="st14" x1="1103.4" y1="536.7" x2="1103.4" y2="538.7"/>
	<line class="st14" x1="1124.7" y1="536.6" x2="1124.7" y2="538.6"/>
	<path class="st15" d="M1111.5,538.4c0.6,0.8,1.5,1.2,2.5,1.3c1,0,2-0.5,2.8-1.3"/>
	<path class="st22" d="M967.8,547.4h62.9c2.9,0,5.3,2.4,5.3,5.3v16.1c0,5.4-4.4,9.8-9.8,9.8h-53.9c-5.4,0-9.8-4.4-9.8-9.8v0v-16.1
		C962.5,549.7,964.9,547.4,967.8,547.4C967.8,547.4,967.8,547.4,967.8,547.4z"/>
	<path class="st22" d="M1034.3,574.4v13c0,5.6-4.6,10.2-10.2,10.2h-49.5c-5.6,0-10.2-4.6-10.2-10.2l0,0v-12.7"/>
	<path class="st22" d="M1027.2,578.3v8.7c0,2.4-2,4.4-4.4,4.4h-47.1c-2.4,0-4.4-2-4.4-4.4l0,0v-8.9"/>
	<path class="st17" d="M981.8,570.3h2.7c1.7,0,3,1.4,3,3v6.1c0,1.7-1.4,3-3,3h-2.7c-1.7,0-3-1.4-3-3v-6.1
		C978.8,571.7,980.1,570.3,981.8,570.3z"/>
	<path class="st17" d="M1014.1,570.3h2.7c1.7,0,3,1.4,3,3v6.1c0,1.7-1.4,3-3,3h-2.7c-1.7,0-3-1.4-3-3v-6.1
		C1011.1,571.6,1012.5,570.3,1014.1,570.3z"/>
	<path class="st22" d="M1030,546.7c0.1-14.1-9.2-22.4-19.9-24l-3.6-0.9"/>
	<path class="st22" d="M968.5,546.7c0-13.4,7.9-22,19.5-23.9l4-1"/>
	<path class="st22" d="M977.1,547.2v-2.5c0.2-6.7,5.1-12.3,11.7-13.4l3.2,0.5"/>
	<path class="st22" d="M1021.4,547.5v-2.8c0-6.5-4.9-11.8-11.3-13.5l-3.6,0.5"/>
	<path class="st17" d="M992,521.8h14.6c1.5,0,2.7,1.2,2.7,2.7v4.6c0,1.5-1.2,2.7-2.7,2.7H992c-1.5,0-2.7-1.2-2.7-2.7v-4.6
		C989.3,523,990.5,521.8,992,521.8z"/>
	<line class="st14" x1="986" y1="554.7" x2="986" y2="557.3"/>
	<line class="st14" x1="1012.6" y1="554.7" x2="1012.6" y2="557.2"/>
	<path class="st15" d="M995.8,557.2c1.7,1.9,4.6,2.1,6.5,0.5c0.2-0.1,0.3-0.3,0.5-0.5"/>
	<path class="st22" d="M867.8,539h32.4c14.5,0,26.2,11.7,26.2,26.2l0,0c0,14.5-11.7,26.2-26.2,26.2h-32.4
		c-14.5,0-26.2-11.7-26.2-26.2l0,0C841.6,550.7,853.4,539,867.8,539z"/>
	<path class="st17" d="M860.1,539.7v-2.2c0-3,2.5-5.5,5.5-5.5c0,0,0,0,0,0h8.4c3,0,5.5,2.5,5.5,5.5v1.7"/>
	<path class="st17" d="M888.8,539.9v-2.2c0-3,2.5-5.5,5.5-5.5c0,0,0,0,0,0h8.4c3,0,5.5,2.5,5.5,5.5v2.5"/>
	<path class="st17" d="M906.8,572.8c0,2.8-2.2,5-5,5s-5-2.2-5-5s2.2-5,5-5S906.8,570,906.8,572.8z"/>
	<path class="st22" d="M918.1,563c0,2.8-2.2,5-5,5s-5-2.2-5-5s2.2-5,5-5S918.1,560.2,918.1,563z"/>
	<path class="st22" d="M858.9,571.6v3.1c0,1.7,1.3,3,3,3h0.2c1.7,0,3-1.3,3-3v-3.1c0-0.3,0.2-0.5,0.5-0.5h3.2c1.7,0,3-1.3,3-3v-0.2
		c0-1.7-1.3-3-3-3h-3.1c-0.3,0-0.5-0.2-0.5-0.5l-0.1-3.2c0-1.7-1.3-3-3-3H862c-1.7,0-3,1.3-3,3v3.2c0,0.3-0.3,0.6-0.6,0.5h-3.1
		c-1.7,0-3,1.3-3,3v0.1c0,1.7,1.3,3,3,3h3.1C858.7,571,859,571.3,858.9,571.6C858.9,571.6,858.9,571.6,858.9,571.6z"/>
	<path class="st15" d="M880.7,555c1.5,1.9,4.3,2.3,6.2,0.8c0.3-0.2,0.6-0.5,0.8-0.8"/>
	<line class="st14" x1="870.6" y1="552.5" x2="870.6" y2="555"/>
	<line class="st14" x1="897.8" y1="552.5" x2="897.9" y2="555"/>
	<line class="st16" x1="876.6" y1="580" x2="881" y2="580"/>
	<line class="st16" x1="886.7" y1="580" x2="891.6" y2="580"/>
	<path class="st22" d="M791.3,542c-5.3-7.7-14.2-12.3-23.5-12.3c-8.7-0.1-15.8,3.7-21.6,9.8c-4.8,5.1-6.7,13.4-6.7,17.3v38.6
		c0,2.5,2.1,4.6,4.6,4.6h47.3c2.6,0,4.6-2.1,4.7-4.6c0.1-10.8,0.2-37,0.1-39.5C795.7,551,794,546.2,791.3,542z"/>
	<path class="st17" d="M762.2,542.5h11.3c1.5,0,2.7,1.2,2.7,2.7v3.7c0,1.5-1.2,2.7-2.7,2.7h-11.3c-1.5,0-2.7-1.2-2.7-2.7v-3.7
		C759.5,543.7,760.7,542.5,762.2,542.5z"/>
	<path class="st17" d="M744.1,599.5c0-5.6-0.1-8.1-0.1-12.8c0-13.2,10.7-23.9,23.9-23.9s23.9,10.7,23.9,23.9c0,5,0,8.4,0,13.1"/>
	<path class="st18" d="M783.3,595.3c1.7,0,3.1-1.4,3.1-3.1c0,0,0,0,0,0c0-2.1,0-4,0-6.5c0-10-8.4-18-18.7-18s-18.7,8.1-18.7,18
		c0,2.5,0,4.1,0.1,6.4c0,1.7,1.4,3.1,3.1,3.1L783.3,595.3z"/>
	<line class="st14" x1="756.8" y1="582.1" x2="756.8" y2="583.9"/>
	<line class="st14" x1="778.8" y1="582.2" x2="778.8" y2="584"/>
	<path class="st15" d="M765.2,583.9c0.7,0.7,1.7,1.2,2.8,1.2c1,0,1.9-0.4,2.6-1.1"/>
	<path class="st19" d="M739.3,595.3h-0.2c-3,0-5.4-2.4-5.4-5.4v-17.1c0-3,2.4-5.4,5.4-5.4h0.2"/>
	<path class="st19" d="M796.4,595.5h0.2c3,0,5.4-2.4,5.4-5.4V573c0-3-2.4-5.4-5.4-5.4h-0.2"/>
	<path class="st16" d="M756,531.5c0-8.7,5.9-12.9,11.8-12.9c6.9,0,11.8,5,11.8,12.8"/>
	<path class="st16" d="M761.1,529.8c0-3.9,3.5-6.2,6.9-6.2c2.8,0,6.8,2.6,6.8,6.5"/>
	<path class="st22" d="M566.4,705.1l-26.9,26.7c-7.4-3.6-14.2-8.4-20.1-14.1c-10.1-9.6-13.2-19.6-13.2-19.6l26.5-26.7
		c9.3-9.3,24.4-9.3,33.7,0c0,0,0,0,0,0l0,0C575.7,680.7,575.7,695.8,566.4,705.1z"/>
	<path class="st17" d="M562,709.2h4.2c3.5,0,6.3,2.8,6.3,6.3l0,0l0,0c0,3.5-2.8,6.3-6.3,6.3l0,0h-16.6"/>
	<path class="st17" d="M539.2,732.1l-5,5c-3.1,3.1-8.2,3.1-11.3,0c0,0,0,0,0,0l0,0c-3.1-3.1-3.1-8.2,0-11.3c0,0,0,0,0,0l2.9-2.9"/>
	<path class="st25" d="M530.6,724.1c0,0-4.5,4.9-5,6.2c-0.7,1.4-0.2,3.1,1.2,3.9c1.6,0.8,3.5,0.5,4.6-0.8"/>
	<path class="st16" d="M513,698.3c0,0,5.8,11,13.3,17.2c11.1,9.1,17.8,11.5,17.8,11.5"/>
	<path class="st15" d="M533.5,688c0,0,1.7-1.4,2.9,0.2c0.7,0.8,0.6,2-0.2,2.8"/>
	<path class="st16" d="M541,693.7l2.6,1.9c0.3,0.2,0.4,0.6,0.2,0.9c-0.1,0.1-0.2,0.2-0.3,0.2l-2.1,0.2c-0.5,0-0.8,0.4-0.8,0.9v2.2
		c-0.1,0.4-0.5,0.6-0.8,0.5c-0.2,0-0.3-0.1-0.4-0.3l-2.2-3.1"/>
	<line class="st15" x1="549.4" y1="701.9" x2="548.1" y2="703.1"/>
	<path class="st22" d="M447.9,739.3l-45.2,0.5c-5.3,0.1-9.7-4.2-9.7-9.5c0-0.7,0.1-1.3,0.2-2l5.8-30c0.9-4.8,5.2-8.3,10.1-8.3
		l32.7,0.1c4.9,0,9.1,3.6,10,8.4l5.5,29.4c1,5.2-2.5,10.2-7.7,11.2C448.9,739.2,448.4,739.3,447.9,739.3z"/>
	<line class="st16" x1="393.4" y1="732.3" x2="451.7" y2="732.3"/>
	<path class="st16" d="M444.1,711.2l-37.7,0.2c-1.3,0-2.4-1.1-2.4-2.4c0-0.2,0-0.3,0-0.5l1.9-9.9c0.2-1.1,1.2-1.9,2.2-1.8l34.2,0.1
		c1.1,0,2,0.8,2.2,1.8l1.8,9.6c0.2,1.3-0.6,2.5-1.9,2.8C444.5,711.2,444.3,711.2,444.1,711.2z"/>
	<path class="st19" d="M431.2,704.1h0.1c1.3,0,2.4,1.1,2.4,2.4l0,0v4.8l0,0h-4.9l0,0v-4.8C428.9,705.1,429.9,704.1,431.2,704.1z"/>
	<line class="st16" x1="421.1" y1="683.5" x2="420" y2="689.2"/>
	<line class="st16" x1="429.6" y1="683.1" x2="430.7" y2="690"/>
	<path class="st19" d="M460.7,669.3c0,7.8-6.5,13.8-14.5,13.8h-41.9c-7.8,0.1-14.3-6.1-14.4-14c0,0,0-0.1,0-0.1
		c0,0,13.4,2.2,36.8,2.2C441.6,671.2,460.7,669.3,460.7,669.3z"/>
	<path class="st16" d="M464.2,664.8c0.3,1.9-1,3.7-2.9,4c0,0-0.1,0-0.1,0c-11.8,1.4-23.7,2.2-35.7,2.2c-13.1,0-28.9-1.6-35.9-2.2
		c-1.9-0.2-3.3-1.8-3.1-3.7l0,0c0.1-1.9,1.8-3.4,3.7-3.2c0,0,0.1,0,0.1,0c7.1,0.7,23.1,2.1,35.5,2.1c11.6-0.1,23.1-0.8,34.6-2.1
		C462.2,661.7,463.9,662.9,464.2,664.8L464.2,664.8z"/>
	<path class="st11" d="M413.8,718.8c0-1.2,0.9-2.2,2.1-2.2c0,0,0.1,0,0.1,0c2,0,2.1,2.2,2.1,2.2"/>
	<line class="st15" x1="435.6" y1="717" x2="435.6" y2="719"/>
	<path class="st12" d="M430,722.1c-0.1,2.6-2.3,4.6-4.9,4.5c-2.4-0.1-4.4-2.1-4.5-4.5c0-2.6,0.8-3.7,4.7-3.7
		C429.2,718.4,430,719.5,430,722.1z"/>
	<path class="st22" d="M342.2,661.6l6,6c2.6,2.7,2.6,7-0.1,9.6c-0.1,0.1-0.2,0.2-0.4,0.3c-4.7,4-11.4,9.8-16,14.3
		c-5.2,5.2-10,10.7-14.4,16.5c-3.7,4.8-10.7,5.8-15.5,2c-0.3-0.2-0.6-0.5-0.9-0.7l-0.4-0.3c-4.4-4.2-4.6-11.2-0.5-15.6
		c0.3-0.3,0.6-0.6,1-0.9c5.9-4.9,12.9-10.8,15.4-13.3c6.3-6.3,11.9-12.9,15.6-17.4c2.4-2.9,6.7-3.3,9.5-0.9
		C341.9,661.3,342,661.4,342.2,661.6z"/>
	<path class="st22" d="M342.8,670.6c0,2-1.6,3.7-3.6,3.7c-2,0-3.7-1.6-3.7-3.6s1.6-3.7,3.6-3.7c0,0,0,0,0.1,0
		C341.1,667,342.7,668.6,342.8,670.6z"/>
	<path class="st22" d="M298.3,713.9c1.3,3.1-0.3,6.7-3.4,8s-6.7-0.3-8-3.4s0.3-6.7,3.4-8c1.3-0.5,2.7-0.6,4.1-0.2"/>
	<path class="st17" d="M301.8,710l-5.4,5.4c-0.9,0.9-2.4,0.9-3.3,0c0,0,0,0,0,0l0,0c-0.9-0.9-0.9-2.4,0-3.3l5.2-5.2"/>
	<path class="st22" d="M298.4,695.7l-0.9,0.1c-0.7,0-1.5-0.2-2.1-0.5l-3.1-2c-1.3-0.8-3-0.6-4,0.5l-2.6,2.8c-0.5,0.6-1.3,1-2,1.1
		l-4.2,0.6c-1.2,0.2-2.3,1.1-2.6,2.3l-1.5,5.4c-0.2,0.6-0.5,1.2-1,1.6l-3.1,2.9c-1,0.9-1.3,2.4-0.7,3.7l1.7,3.5
		c0.3,0.6,0.4,1.2,0.3,1.8l-0.5,4.7c-0.1,1.2,0.4,2.4,1.4,3l3.4,2.2c0.5,0.3,0.9,0.8,1.2,1.4l2.3,4.6c0.6,1.2,1.9,1.9,3.3,1.7
		l4.1-0.6c0.7-0.1,1.4,0,2.1,0.3l4.1,2.1c1.2,0.6,2.6,0.4,3.6-0.5l3.1-2.9c0.5-0.5,1.2-0.8,1.9-0.9l4.3-0.5c1.4-0.2,2.5-1.2,2.7-2.6
		l0.7-4c0.1-0.7,0.5-1.4,1-1.9l3.2-3c1-0.9,1.3-2.3,0.7-3.6l-1.4-3.2c-0.2-0.5-0.3-1-0.3-1.6l0.1-2.4"/>
	<path class="st16" d="M315.2,693.2c0,0,1.8,1.4,3.2,0.2c0.9-0.9,0.4-2.3-0.2-3.3c-0.1-0.1,0-0.2,0.1-0.3c0.1,0,0.2,0,0.2,0
		c0.9,0.5,2.4,1,3.4,0s-0.1-3.2-0.1-3.2"/>
	<line class="st15" x1="309.1" y1="694.8" x2="310.6" y2="696.3"/>
	<line class="st15" x1="323.3" y1="680.6" x2="324.8" y2="682.1"/>
	<path class="st16" d="M217.7,709.6c0.9,2.7,1.4,5.6,1.5,8.5c-0.1,5.9-1.7,11.6-4.7,16.7c-1.8,3-5,4.9-8.6,4.9l-27.5,0.2
		c-3.6,0-6.9-1.9-8.7-4.9c-3-5.1-4.6-10.9-4.8-16.8c0-2.7,0.5-5.4,1.3-7.9"/>
	<path class="st16" d="M169.1,702.5c2.7-7.7,5.4-16.3,6-27.5c0.1-2.9,0.3-6.9,0.5-9.7c0.1-1.9,1.7-3.4,3.6-3.3h0.1
		c2,0,3.6,1.6,3.6,3.6l-0.2,14c0,5.3,4.3,9.5,9.5,9.5l0,0c5.3,0,9.6-4.2,9.6-9.5c0-0.1,0-0.1,0-0.2v-13.7c0-2,1.5-3.6,3.5-3.6
		c0,0,0,0,0.1,0l0,0c1.9,0,3.5,1.5,3.6,3.4c0.1,2.8,0.2,6.6,0.3,8.4c1.1,14.4,3.1,19.9,6.3,28.9"/>
	<path class="st19" d="M180.5,711.3H204l0,0v9.6c0,4-3.3,7.3-7.3,7.3c0,0,0,0,0,0h-9c-4,0-7.3-3.3-7.3-7.3l0,0L180.5,711.3
		L180.5,711.3z"/>
	<line class="st25" x1="179.2" y1="716.1" x2="198.8" y2="715.9"/>
	<path class="st16" d="M157.3,689.1c0,0,6.7-0.9,6.7,3.9s-4.4,4.3-5.9,4.3c-3,0-4.7,2.3-4.6,5.2c0.2,5.3,6.8,4.2,11,4.2"/>
	<circle class="st16" cx="168.7" cy="706.7" r="3.5"/>
	<path class="st16" d="M227.2,689.1c0,0-6.6-0.9-6.6,3.9s4.4,4.3,5.9,4.3c3,0,4.7,2.3,4.6,5.2c-0.2,5.3-6.8,4.2-11,4.2"/>
	<path class="st16" d="M212.3,706.7c0,2,1.6,3.5,3.5,3.5c2,0,3.6-1.6,3.6-3.5c0-2-1.6-3.5-3.5-3.5c0,0,0,0,0,0
		C213.9,703.1,212.3,704.7,212.3,706.7z"/>
	<path class="st16" d="M187.6,697.3c0,0,0.3,2.3,2.1,2.4c1.3,0,1.9-1.4,2.2-2.4c0-0.1,0.1-0.2,0.3-0.2c0.1,0,0.1,0.1,0.2,0.2
		c0.3,1,1,2.4,2.4,2.4s2.2-2.3,2.2-2.3"/>
	<line class="st15" x1="181.8" y1="694" x2="181.8" y2="696"/>
	<path class="st11" d="M200.7,696c0,0,0.3-2.2,2.3-2.2s1.9,2.1,1.9,2.1"/>
	<path class="st22" d="M103.2,686.2c2.6,2.6,2.8,6.8,0.4,9.6c-4.3,5-10.6,12.2-12.9,14.5c-1.9,1.9-10.4,9.5-15.9,14.3
		c-2.8,2.5-6.9,2.3-9.6-0.2L54.5,714c-2.6-2.6-2.9-6.7-0.5-9.5c4.3-5.2,10.8-12.9,14-16.2s10.1-9.2,14.9-13.2
		c2.8-2.4,6.9-2.2,9.5,0.4L103.2,686.2z"/>
	<path class="st17" d="M64.6,724.7c-3,3-7.8,3-10.8,0c-3-3-3-7.8,0-10.8l0,0"/>
	<path class="st17" d="M103.7,685.6c3-3,3-7.8,0-10.8s-7.8-3-10.8,0"/>
	<path class="st22" d="M51.6,720.3l-8.4,7.9c-1.9,1.8-2,4.9-0.2,6.8c0,0,0.1,0.1,0.1,0.1l0.4,0.4c1.9,1.9,4.9,1.9,6.8,0
		c0.1-0.1,0.1-0.1,0.2-0.2l7.4-8.1"/>
	<path class="st22" d="M99.5,672.7l7.8-8.5c1.8-1.9,4.8-2,6.8-0.2c0,0,0.1,0.1,0.1,0.1l0.4,0.4c1.9,1.9,1.9,4.9,0.1,6.8
		c0,0-0.1,0.1-0.1,0.1l-8,7.5"/>
	<path class="st15" d="M68.8,705.9c0,0-1.3-1.8,0-3s3,0.2,3,0.2"/>
	<path class="st15" d="M82.1,692.8c0,0-1.3-1.8,0-3s3,0.1,3,0.1"/>
	<path class="st16" d="M80.3,701.6c1.4-1.5,1.4-3.8,0-5.2c-1.4-1.5-2.7-0.9-4.2,0.5s-2.4,2.9-1,4.4
		C76.5,702.7,78.7,702.9,80.3,701.6z"/>
	<path class="st22" d="M1143.6,694.2c-0.1-1.8,1.2-3.4,3.1-3.6c2.2-0.3,4.8-1.3,4.7-4.7v-6.1c-0.1-7.6-5.9-14-13.5-14.7
		c-8-0.8-17.6-1.5-23-1.5s-15.7,1-24,2c-7.5,0.9-13.1,7.2-13.1,14.8v5.8c0.1,3.2,2.5,4.1,4.6,4.3c1.9,0.2,3.3,1.9,3.2,3.8l-1.3,27.4
		c-0.4,8.1,6,15,14.1,15.4c0.2,0,0.4,0,0.6,0h31.3c8.1,0,14.7-6.6,14.7-14.8c0-0.2,0-0.5,0-0.7L1143.6,694.2z"/>
	<path class="st17" d="M1114.9,670.1c7.9,0.1,15.8,0.9,23.6,2.2c3.4,0.5,5.9,3.3,6,6.8l0.2,3.2c0.1,1.3-0.7,2.6-2,3
		c-2.3,0.8-5.8,3.3-5.4,10.6c0.4,8.6,0.6,15.3,0.6,17.9c0,0.6-0.4,1.1-1,1.1c-1.6,0.2-4.4,1-4.4,4.7c-0.1,2,1.4,3.8,3.4,4.1
		c0.8,0.2,1.3,1,1.1,1.9c0,0,0,0,0,0c-0.5,1.9-2,4.9-6,4.9H1097c-2.6,0-5.6-4.2-5.4-10.1c0-0.9,0.5-1.7,1.2-2.3c1-0.7,1.7-1.8,1.8-3
		c0-1.5-1.3-2.6-2.4-3.2c-0.7-0.4-1.1-1.2-1.1-2c0.3-3.9,1.1-14.4,1.2-16.2s-1.8-7.4-5.9-8.6c-1-0.3-1.7-1.1-1.7-2.2l-0.1-3.8
		c0.1-3.4,2.6-6.2,6-6.8C1097.7,671.4,1108.9,670.1,1114.9,670.1z"/>
	<path class="st29" d="M1112.2,699.4c0,3-2.5,5.5-5.5,5.5s-5.5-2.5-5.5-5.5s2.5-5.5,5.5-5.5S1112.2,696.4,1112.2,699.4L1112.2,699.4
		z"/>
	<circle class="st29" cx="1127" cy="707.2" r="3.3"/>
	<path class="st29" d="M1115.5,719.4c0,1.2-1,2.2-2.2,2.2c-1.2,0-2.2-1-2.2-2.2s1-2.2,2.2-2.2l0,0
		C1114.5,717.2,1115.5,718.1,1115.5,719.4z"/>
	<path class="st25" d="M1112,679.9c0.6,0.9,1.6,1.4,2.7,1.3c0.9,0,1.8-0.4,2.3-1.2"/>
	<path class="st34" d="M1122.6,679.9c0,0,0-2.2,2.1-2.2s2,2.2,2,2.2"/>
	<line class="st9" x1="1104.8" y1="678.3" x2="1104.9" y2="680"/>
	<path class="st17" d="M914.1,707l-3.2-0.9c-1-0.3-2.1-0.2-3.1,0.2l-2.2,0.9c-0.8,0.3-1.7,0.3-2.5,0l-2.5-0.9c-1-0.4-2-0.4-3-0.1
		l-3.1,0.9c-0.7,0.2-1.3,0.2-2,0l-2.5-0.7c-0.9-0.3-1.9-0.3-2.8,0l-2.6,0.8c-0.8,0.3-1.6,0.3-2.3,0l-2.2-0.8c-1-0.4-2.2-0.4-3.2,0
		l-2.6,0.9c-0.7,0.2-1.5,0.2-2.3,0l-2.5-0.8c-0.9-0.3-1.8-0.3-2.7-0.1l-3.4,0.9c-0.7,0.2-1.5,0.1-2.2-0.1l-1.7-0.7
		c-1-0.4-2.1-0.5-3.2-0.1l-3,0.9c-0.5,0.1-1,0.2-1.5,0.1c-3.3-0.4-5.8-3.3-5.8-6.6l0,0c0-3.3,2.4-6.1,5.7-6.6c0.5-0.1,1.1,0,1.6,0.1
		l3.6,1c0.8,0.2,1.6,0.2,2.3,0l2.1-0.6c1.1-0.3,2.2-0.3,3.2,0l2.5,0.7c0.8,0.3,1.7,0.3,2.5,0l2-0.7c1-0.3,2.1-0.4,3.2-0.1l2.8,0.7
		c0.7,0.2,1.5,0.2,2.2,0l2.2-0.7c0.9-0.3,1.9-0.3,2.9-0.1l2.9,0.7c0.7,0.2,1.3,0.2,2,0l2.5-0.6c0.9-0.2,1.8-0.2,2.7,0l2.8,0.7
		c0.7,0.2,1.5,0.2,2.2-0.1l2.4-0.7c1.1-0.3,2.2-0.3,3.2,0l2.5,0.7c0.8,0.2,1.6,0.2,2.3,0l3.6-1c0.3-0.1,0.5-0.1,0.8-0.1
		c3.5,0.2,6.3,3.1,6.3,6.7l0,0c0,3.3-2.5,6.2-5.8,6.6C915,707.3,914.6,707.2,914.1,707z"/>
	<path class="st22" d="M919.3,705.1v23.6c0,2.6-2.1,4.7-4.7,4.7c0,0,0,0,0,0h-61.5c-2.6,0-4.7-2.1-4.7-4.7v-23.6"/>
	<path class="st22" d="M913.4,694v-3c0-4.8-3.9-8.7-8.7-8.7c0,0,0,0,0,0H902"/>
	<path class="st22" d="M854.2,694.5v-3.6c0-4.8,3.9-8.7,8.7-8.7h2.7"/>
	<path class="st17" d="M872.3,682.1c0,1.9-1.5,3.4-3.4,3.4s-3.4-1.5-3.4-3.4s1.5-3.4,3.4-3.4c0,0,0,0,0,0
		C870.8,678.7,872.3,680.3,872.3,682.1z"/>
	<circle class="st17" cx="896.3" cy="681" r="5.7"/>
	<path class="st22" d="M871.9,679.6c1-1.5,2.4-2.6,4-3.4"/>
	<path class="st22" d="M892.8,685.6c-2.4,2.9-17.3,3.8-20.7-1.6"/>
	<path class="st16" d="M884.9,681.1c0,0-10.1,0.5-10.1-6.5c-0.2-3.1,1.6-5.9,4.3-7.2c0,0,1.5,4.1,4,4.4c3.8,0.5,10,0.3,9.6,4.6"/>
	<path class="st17" d="M888.6,672.9c0.7-3.1,3.3-5.4,6.5-5.8c1.1-0.2,2.2,0.5,2.5,1.5c0.6,1.9,1.1,5.1-1,7.1"/>
	<line class="st16" x1="853.5" y1="726.7" x2="918.9" y2="726.7"/>
	<line class="st16" x1="891.6" y1="712.5" x2="891.6" y2="714.2"/>
	<path class="st16" d="M873.7,714.3c-0.1-1.1,0.7-2.1,1.8-2.2c0.1,0,0.2,0,0.3,0c1.1-0.1,2.1,0.7,2.2,1.8c0,0.1,0,0.2,0,0.3"/>
	<path class="st16" d="M879.6,718c0,0,0.3,2.3,2.1,2.4c1.3,0,1.9-1.4,2.2-2.4c0-0.1,0.1-0.2,0.3-0.2c0.1,0,0.1,0.1,0.2,0.2
		c0.3,1,1,2.4,2.5,2.4s2.2-2.3,2.2-2.3"/>
	<path class="st17" d="M731.1,699.4c1.9-4.8,6.4-5.5,9-5.3c5.7,0.4,4.6,3.2,8.4,3.9c2.6,0.5,3.7-0.7,6.7-0.4
		c2.1,0.2,3.3,2.6,6.2,2.9s4.1-1.9,7-1.9c2.7,0,4.3,2,6.6,2c1.9,0,3.6-2.5,6.3-2.9c3.3-0.5,3.8,0.8,6.7,0.3
		c3.2-0.5,4.7-4.9,10.9-3.7c4.2,0.8,7.3,4.4,7.5,8.7c0.1,5.2-4,9.3-7.4,9.4s-4.3-0.5-6.3-0.5c-3.1,0.1-4.6,3.9-9,4.1s-6-3.2-8.4-3.2
		c-3.3,0-3.1,2-7,2.1c-3.5,0.1-3.9-1.9-6.8-1.8s-4.9,3.5-9.5,2.9c-4.1-0.5-4.5-3.9-7.9-4.2c-4-0.3-4.9,0.9-8.3-0.1
		C731.8,710.7,728.7,705.5,731.1,699.4z"/>
	<path class="st22" d="M760.7,673.1c0,0-5.3,6-7.8,6.6s-9.4,0.4-12.7,4.6c-2.2,2.7-3.2,6.2-2.9,9.7"/>
	<path class="st22" d="M777.5,674.5c0,0,3.1,5.2,7.1,5.5c2.2,0.1,8.4,0.4,11.4,3.9c2.5,2.8,4.3,8.1,3.3,10.3"/>
	<path class="st15" d="M756.8,685.7c0,0,0.2-2,2.1-2.1s2.2,2.1,2.2,2.1"/>
	<path class="st15" d="M775.7,685.7c0-1.1,1-2,2.2-2c1.7,0,2,2,2,2"/>
	<path class="st15" d="M766.1,688.2c0.6,0.6,1.4,1,2.2,0.9c0.8,0,1.6-0.4,2.1-1"/>
	<path class="st16" d="M734.5,711.1l3,18c0.7,4.6,4.7,8,9.4,8h43.5c4.7,0,8.7-3.5,9.4-8.1l2.5-17.3"/>
	<path class="st16" d="M747.1,718.9c0,0,0.9,13.6,5.6,17.8"/>
	<path class="st16" d="M759.7,713.9c0,0,1.2,19,4.2,23.1"/>
	<path class="st16" d="M774.7,731.6c0,0,2.8-15.3,2.1-18.1"/>
	<path class="st16" d="M790,713.7c0,0-0.3,17.6-5.7,23"/>
	<path class="st19" d="M769.8,669.8c0.4,1.5-0.1,3.1-1.4,4c-0.5,0.4-1.5,0.4-2.2,0.6c-0.9,0.3-1.3,0.9-2.1,0.8
		c-1.4-0.1-2.7-1-3.3-2.3c-0.4-1.4,0.1-2.9,1.1-3.8c0.6-0.5,1.7-0.3,2.5-0.6s1.4-1,2.2-0.9C768.1,667.6,769.4,668.5,769.8,669.8z"/>
	<path class="st19" d="M770,669.4c0.6-0.3,1.2-0.5,1.9-0.5c0.8,0,1.4,0.8,2.2,1.2s1.7,0.2,2.2,0.7c1.1,0.9,1.5,2.4,1,3.7
		c-0.7,1.4-2.1,2.3-3.6,2.2c-0.7,0-1.3-0.7-2-0.9c-0.9-0.3-1.5-0.2-2.1-0.8c-0.3-0.3-0.5-0.6-0.7-1"/>
	<path class="st16" d="M764,663.3c0,0-0.2,4.5,0.5,4.7"/>
	<path class="st16" d="M783.1,663.8c0,0-7.8,0.3-8.6,5.8"/>
	<path class="st16" d="M689.8,707.8c-2.9,17.9-18.4,31.1-36.5,31c-14,0-26.8-8.1-32.7-20.9"/>
	<path class="st17" d="M692.7,701c-0.6-21.1-17.9-37.9-39.1-37.9c-21.6,0-38,17-39.1,37.9c-0.8,15.5,1.2,16.8,5.6,16.4
		s4.3-5,3.6-12.8c-0.6-6.9,2.5-8.4,4.9-8.3c3.6,0.1,4.7,2.6,4.9,6.1s2.4,4.4,4.2,4.4s5,0.3,5.6-7c0.3-4.4,5-8.4,10.2-8.4
		c6,0.1,10.7,5,10.7,11c0,7.9-0.9,12.8,5.1,12.7c6.2-0.1,3.9-8.4,4.3-13.5c0.3-3.8,1.8-5.3,4.9-5.3s4.8,2.8,4.8,7.7
		c0,4.2,3.6,4.3,5.1,4.3S692.9,706.7,692.7,701z"/>
	<circle class="st22" cx="653.7" cy="702.1" r="10.7"/>
	<path class="st16" d="M649,723c0,0,0.3,2.3,2.1,2.4c1.3,0,1.9-1.4,2.2-2.5c0-0.1,0.1-0.2,0.3-0.2c0.1,0,0.1,0.1,0.2,0.2
		c0.3,1,1,2.4,2.5,2.4s2.2-2.3,2.2-2.3"/>
	<line class="st15" x1="663.4" y1="719.9" x2="663.4" y2="721.9"/>
	<line class="st15" x1="643.9" y1="720" x2="643.9" y2="722"/>
	<path class="st35" d="M632.2,688c0,1.3-1,2.3-2.3,2.3c-1.3,0-2.3-1-2.3-2.3c0-1.3,1-2.3,2.3-2.3c0,0,0,0,0,0
		C631.2,685.7,632.2,686.7,632.2,688z"/>
	<path class="st35" d="M672.4,688c0,1.3-1,2.3-2.3,2.3c-1.3,0-2.3-1-2.3-2.3c0-1.3,1-2.3,2.3-2.3C671.4,685.7,672.4,686.7,672.4,688
		z"/>
	<path class="st35" d="M660.7,673.8c0,2-1.6,3.6-3.6,3.6c-2,0-3.6-1.6-3.6-3.6c0-2,1.6-3.6,3.6-3.6l0,0
		C659.1,670.2,660.7,671.8,660.7,673.8z"/>
	<line class="st9" x1="648.7" y1="685.3" x2="650.8" y2="686.4"/>
	<line class="st9" x1="672.6" y1="677.3" x2="673.7" y2="676.1"/>
	<path class="st35" d="M637,673.2l-1.6,3.8c-0.1,0.3,0,0.7,0.2,0.9l2.8,2.3c0.3,0.3,0.8,0.2,1.1-0.1c0,0,0.1-0.1,0.1-0.1l1.9-3.4
		c0.2-0.3,0.1-0.8-0.2-1l-3.1-2.7c-0.3-0.3-0.8-0.2-1.1,0.1C637.1,673.1,637,673.2,637,673.2z"/>
	<path class="st27" d="M686.2,675.8l-3.9,1.2c-0.3,0.1-0.5,0.4-0.5,0.7l0.1,3.6c0,0.4,0.4,0.8,0.8,0.8c0,0,0.1,0,0.1,0l3.8-0.8
		c0.4-0.1,0.6-0.4,0.6-0.8v-4.1c0-0.4-0.4-0.8-0.8-0.8C686.4,675.7,686.3,675.7,686.2,675.8z"/>
	<path class="st22" d="M969.8,705.2c-1.6,0-2.9-1.3-2.9-2.9v-3c0-1.6,1.3-2.9,2.9-2.9"/>
	<path class="st22" d="M1028.6,696.3c1.6,0,2.9,1.3,2.9,2.9v3c0,1.6-1.3,2.9-2.9,2.9"/>
	<path class="st17" d="M1030.4,696.3h-62c-2.8,0-5-2.2-5-5l0,0c0-3.1,1.7-5.9,4.5-7.3l3.4-1.7c1.4-1,3.3-1.1,4.9-0.4l2.7,1.3
		c1.3,0.6,2.7,0.7,4.1,0.2l2-0.7c1.1-0.4,2.3-0.3,3.4,0.1l3,1.1c1.1,0.4,2.3,0.5,3.4,0.2l3.1-0.9c1-0.3,2-0.2,3,0.1l2.5,0.8
		c1.2,0.4,2.6,0.4,3.8-0.1l2.6-1c1-0.4,2.1-0.5,3.1-0.2l2.6,0.7c1.1,0.3,2.2,0.2,3.3-0.1l3.9-1.4c1.3-0.5,2.8-0.4,4.1,0.3l4,2.2
		c2.7,1.4,4.3,4.2,4.3,7.2l0,0C1035.1,694.2,1033,696.3,1030.4,696.3C1030.4,696.3,1030.4,696.3,1030.4,696.3z"/>
	<path class="st17" d="M1030.4,705.1h-62c-2.8,0-5,2.2-5,5l0,0c0,3.1,1.7,5.9,4.5,7.3l3.4,1.7c1.4,1,3.3,1.1,4.9,0.4l2.7-1.3
		c1.3-0.6,2.7-0.7,4.1-0.2l2,0.7c1.1,0.4,2.3,0.4,3.4-0.1l3-1.1c1.1-0.4,2.3-0.5,3.4-0.2l3.1,0.9c1,0.3,2,0.3,3-0.1l2.5-0.8
		c1.2-0.4,2.6-0.4,3.8,0.1l2.6,1c1,0.4,2.1,0.5,3.1,0.2l2.6-0.7c1.1-0.3,2.2-0.2,3.3,0.1l3.9,1.4c1.4,0.5,2.8,0.4,4.1-0.3l4-2.2
		c2.7-1.4,4.3-4.2,4.3-7.2l0,0C1035.1,707.2,1033,705.1,1030.4,705.1C1030.4,705.1,1030.4,705.1,1030.4,705.1z"/>
	<path class="st22" d="M968.6,683.5v-0.2c0-9.7,7.8-17.5,17.5-17.5h0h26.2c9.7,0,17.5,7.8,17.5,17.5l0,0"/>
	<path class="st22" d="M968.6,717.2v0.2c0,9.7,7.8,17.5,17.5,17.5c0,0,0,0,0,0h26.2c9.7,0,17.5-7.8,17.5-17.5c0,0,0,0,0,0l0,0"/>
	<line class="st15" x1="990.1" y1="672.7" x2="990.1" y2="674.2"/>
	<line class="st15" x1="1008" y1="672.7" x2="1008" y2="674.3"/>
	<path class="st16" d="M996.9,674.3c0.6,0.6,1.4,1,2.3,1.1c0.8,0,1.6-0.4,2.2-1"/>
	<circle class="st17" cx="332.1" cy="401.3" r="21.2"/>
	<path class="st22" d="M340.8,421.1c-1.2,18.1-24,35.5-32.9,37c-7.2,0-47-30.1-27.1-49.4c11.4-10.8,23.1-0.7,26.3,2.5
		c0.5,0.5,1.2,0.5,1.7,0c0,0,0,0,0,0c0.7-0.8,2-2.1,3.5-3.5"/>
	<path class="st15" d="M295.9,428.3c0.1-1.2,1.1-2.2,2.3-2.2c2,0,2,2.2,2,2.2"/>
	<path class="st15" d="M315.4,428.3c0,0,0.2-2.3,2.3-2.2c1.1,0,2,0.9,2,2c0,0.1,0,0.1,0,0.2"/>
	<path class="st12" d="M311.5,429.5c0,2.2-1.4,4-3.5,4c-2,0-3.7-1.6-3.8-3.7c0-0.1,0-0.1,0-0.2c0-2.8,1.7-2.7,3.9-2.7
		S311.5,427.3,311.5,429.5z"/>
	<path class="st29" d="M325.5,390.6L325.5,390.6c0-1.7,1.4-3.1,3.2-3.1h4.7c1.7,0,3.2,1.4,3.2,3.2l0,0v21.4c0,1.7-1.4,3.1-3.1,3.1
		c0,0,0,0,0,0l0,0c-1.7,0-3.1-1.4-3.1-3.1v-18.2h-1.6C326.8,393.9,325.4,392.4,325.5,390.6z"/>
</g>
</svg>
