<?xml version="1.0" encoding="utf-8"?>
<!-- Generator: Adobe Illustrator 25.2.1, SVG Export Plug-In . SVG Version: 6.00 Build 0)  -->
<svg version="1.1" id="レイヤー_1" xmlns="http://www.w3.org/2000/svg" xmlns:xlink="http://www.w3.org/1999/xlink" x="0px"
	 y="0px" viewBox="0 0 1190.6 841.9" style="enable-background:new 0 0 1190.6 841.9;" xml:space="preserve">
<style type="text/css">
	.st0{opacity:0.51;fill:#FFFFFF;enable-background:new    ;}
	.st1{fill:none;stroke:#DBDCDC;stroke-miterlimit:10;}
	.st2{fill:#231815;}
	.st3{font-family:'KozGoPro-Regular-83pv-RKSJ-H';}
	.st4{font-size:12px;}
	.st5{letter-spacing:3;}
	.st6{fill:#B17DB5;stroke:#B17DB5;stroke-width:3;stroke-miterlimit:10;}
	.st7{fill:#69CAE0;stroke:#69CAE0;stroke-width:3;stroke-miterlimit:10;}
	.st8{fill:#FFFFFF;}
	.st9{fill:#BF80CE;}
	.st10{fill:#B17DB5;stroke:#FFFFFF;stroke-width:3;stroke-linejoin:round;}
	.st11{fill:#FFFFFF;stroke:#FFFFFF;stroke-width:3;stroke-linecap:round;stroke-linejoin:round;}
	.st12{fill:#B17DB5;stroke:#FFFFFF;stroke-width:3;stroke-miterlimit:10;}
	.st13{fill:#FFFFFF;stroke:#FFFFFF;stroke-width:3;stroke-linejoin:round;}
	.st14{fill:none;stroke:#FFFFFF;stroke-miterlimit:10;}
	.st15{fill:#FFFFFF;stroke:#FFFFFF;stroke-width:3;stroke-miterlimit:10;}
	.st16{fill:none;stroke:#FFFFFF;stroke-width:2;stroke-linecap:round;stroke-miterlimit:10;}
	.st17{fill:none;stroke:#FFFFFF;stroke-width:5;stroke-linejoin:round;}
	.st18{fill:none;stroke:#FFFFFF;stroke-width:5;stroke-miterlimit:10;}
	.st19{fill:#FFFFFF;stroke:#FFFFFF;stroke-linejoin:round;}
	.st20{fill:none;stroke:#FFFFFF;stroke-width:5;stroke-linecap:round;stroke-linejoin:round;}
	.st21{fill:#FFFFFF;stroke:#FFFFFF;stroke-width:5;stroke-linecap:round;stroke-linejoin:round;}
	.st22{fill:#82A882;stroke:#82A882;stroke-width:3;stroke-miterlimit:10;}
	.st23{fill:#E2D369;stroke:#E2D369;stroke-width:3;stroke-miterlimit:10;}
	.st24{fill:#C96F6F;stroke:#C96F6F;stroke-width:3;stroke-miterlimit:10;}
	.st25{fill:#F0B173;stroke:#F0B173;stroke-width:3;stroke-miterlimit:10;}
	.st26{fill:#6370A5;stroke:#6370A5;stroke-width:3;stroke-miterlimit:10;}
	.st27{fill:#6AB1B7;stroke:#6AB1B7;stroke-width:3;stroke-miterlimit:10;}
	.st28{fill:#FFFFFF;stroke:#FFFFFF;stroke-width:4;stroke-linejoin:round;}
	.st29{fill:none;stroke:#FFFFFF;stroke-width:4;stroke-linejoin:round;}
	.st30{fill:none;stroke:#FFFFFF;stroke-width:3;stroke-linecap:round;stroke-linejoin:round;}
	.st31{fill:none;stroke:#FFFFFF;stroke-width:7;stroke-miterlimit:10;}
	.st32{fill:#FFFFFF;stroke:#FFFFFF;stroke-width:4;stroke-linecap:round;stroke-linejoin:round;}
	.st33{fill:#6370A5;stroke:#6370A5;stroke-width:3;stroke-linejoin:round;}
	.st34{fill:#6370A5;}
	.st35{fill:#FFFFFF;stroke:#6370A5;stroke-linecap:round;stroke-linejoin:round;}
	.st36{fill:#6370A5;stroke:#FFFFFF;stroke-width:3;stroke-linejoin:round;}
	.st37{fill:none;stroke:#FFFFFF;stroke-width:4;stroke-linecap:round;stroke-linejoin:round;}
	.st38{fill:none;stroke:#FFFFFF;stroke-width:4;stroke-linecap:round;stroke-miterlimit:10;}
	.st39{fill:none;stroke:#FFFFFF;stroke-width:3;stroke-linejoin:round;}
	.st40{fill:none;stroke:#FFFFFF;stroke-width:2;stroke-linejoin:round;}
	.st41{fill:#FFFFFF;stroke:#FFFFFF;stroke-linecap:round;stroke-miterlimit:10;}
	.st42{fill:none;stroke:#C96F6F;stroke-miterlimit:10;stroke-dasharray:2;}
	.st43{fill:none;stroke:#FFFFFF;stroke-width:7;stroke-linecap:round;stroke-miterlimit:10;}
	.st44{fill:none;stroke:#FFFFFF;stroke-width:4;stroke-miterlimit:10;}
	.st45{fill:none;stroke:#FFFFFF;stroke-width:5;stroke-linecap:round;stroke-miterlimit:10;}
	.st46{fill:#FFFFFF;stroke:#FFFFFF;stroke-miterlimit:10;}
	.st47{fill:#FFFFFF;stroke:#FFFFFF;stroke-width:4;stroke-miterlimit:10;}
	.st48{fill:#FDFDFF;stroke:#FFFFFF;stroke-width:7;stroke-linecap:round;stroke-linejoin:round;}
	.st49{fill:#FDFDFF;stroke:#FFFFFF;stroke-width:5;stroke-linecap:round;stroke-linejoin:round;}
	.st50{fill:#FFFFFF;stroke:#FFFFFF;stroke-width:4;stroke-linecap:round;stroke-miterlimit:10;}
	.st51{fill:#FFFFFF;stroke:#E2D369;stroke-width:2;stroke-miterlimit:10;}
	.st52{fill:none;stroke:#FFFFFF;stroke-linecap:round;stroke-miterlimit:10;}
	.st53{fill:#FFFFFF;stroke:#FFFFFF;stroke-width:2;stroke-linecap:round;stroke-linejoin:round;}
	.st54{fill:#6AB1B7;stroke:#6AB1B7;stroke-width:3;stroke-linecap:round;stroke-linejoin:round;}
	.st55{fill:#6AB1B7;}
</style>
<g id="レイヤー_19">
	<rect class="st0" width="1190.6" height="841.9"/>
</g>
<rect x="28.8" y="87.3" class="st1" width="100" height="100"/>
<rect x="143.8" y="87.3" class="st1" width="100" height="100"/>
<rect x="258.8" y="87.3" class="st1" width="100" height="100"/>
<rect x="373.8" y="87.3" class="st1" width="100" height="100"/>
<rect x="488.8" y="87.3" class="st1" width="100" height="100"/>
<rect x="603.8" y="87.3" class="st1" width="100" height="100"/>
<rect x="718.8" y="87.3" class="st1" width="100" height="100"/>
<rect x="833.8" y="87.3" class="st1" width="100" height="100"/>
<rect x="948.8" y="87.3" class="st1" width="100" height="100"/>
<rect x="1063.8" y="87.3" class="st1" width="100" height="100"/>
<rect x="27.8" y="220.8" class="st1" width="100" height="100"/>
<rect x="142.8" y="220.8" class="st1" width="100" height="100"/>
<rect x="257.8" y="220.8" class="st1" width="100" height="100"/>
<rect x="372.8" y="220.8" class="st1" width="100" height="100"/>
<rect x="487.8" y="220.8" class="st1" width="100" height="100"/>
<rect x="602.8" y="220.8" class="st1" width="100" height="100"/>
<rect x="717.8" y="220.8" class="st1" width="100" height="100"/>
<rect x="832.8" y="220.8" class="st1" width="100" height="100"/>
<rect x="947.8" y="220.8" class="st1" width="100" height="100"/>
<rect x="1062.8" y="220.8" class="st1" width="100" height="100"/>
<rect x="28.8" y="368.8" class="st1" width="100" height="100"/>
<rect x="143.8" y="368.8" class="st1" width="100" height="100"/>
<rect x="258.8" y="368.8" class="st1" width="100" height="100"/>
<rect x="373.8" y="368.8" class="st1" width="100" height="100"/>
<rect x="488.8" y="368.8" class="st1" width="100" height="100"/>
<rect x="603.8" y="368.8" class="st1" width="100" height="100"/>
<rect x="718.8" y="368.8" class="st1" width="100" height="100"/>
<rect x="833.8" y="368.8" class="st1" width="100" height="100"/>
<rect x="948.8" y="368.8" class="st1" width="100" height="100"/>
<rect x="1063.8" y="368.8" class="st1" width="100" height="100"/>
<rect x="28.8" y="509.6" class="st1" width="100" height="100"/>
<rect x="143.8" y="509.6" class="st1" width="100" height="100"/>
<rect x="258.8" y="509.6" class="st1" width="100" height="100"/>
<rect x="373.8" y="509.6" class="st1" width="100" height="100"/>
<rect x="488.8" y="509.6" class="st1" width="100" height="100"/>
<rect x="603.8" y="509.6" class="st1" width="100" height="100"/>
<rect x="718.8" y="509.6" class="st1" width="100" height="100"/>
<rect x="833.8" y="509.6" class="st1" width="100" height="100"/>
<rect x="948.8" y="509.6" class="st1" width="100" height="100"/>
<rect x="1063.8" y="509.6" class="st1" width="100" height="100"/>
<rect x="28.8" y="650.4" class="st1" width="100" height="100"/>
<rect x="143.8" y="650.4" class="st1" width="100" height="100"/>
<rect x="258.8" y="650.4" class="st1" width="100" height="100"/>
<rect x="373.8" y="650.4" class="st1" width="100" height="100"/>
<rect x="488.8" y="650.4" class="st1" width="100" height="100"/>
<rect x="603.8" y="650.4" class="st1" width="100" height="100"/>
<rect x="718.8" y="650.4" class="st1" width="100" height="100"/>
<rect x="833.8" y="650.4" class="st1" width="100" height="100"/>
<rect x="948.8" y="650.4" class="st1" width="100" height="100"/>
<rect x="1063.8" y="650.4" class="st1" width="100" height="100"/>
<g id="アイコン名のコピー">
	<text transform="matrix(1 0 0 1 60.83 213.41)" class="st2 st3 st4">メール</text>
	<text transform="matrix(1 0 0 1 146.73 213.41)" class="st2 st3 st4">開封済みメー</text>
	<text transform="matrix(1 0 0 1 218.73 213.41)" class="st2 st3 st4 st5">ル</text>
	<text transform="matrix(1 0 0 1 233.73 213.41)" class="st2 st3 st4">A</text>
	<text transform="matrix(1 0 0 1 262.52 213.41)" class="st2 st3 st4">開封済みメー</text>
	<text transform="matrix(1 0 0 1 334.52 213.41)" class="st2 st3 st4 st5">ル</text>
	<text transform="matrix(1 0 0 1 349.52 213.41)" class="st2 st3 st4">B</text>
	<text transform="matrix(1 0 0 1 412.83 213.41)" class="st2 st3 st4">通話</text>
	<text transform="matrix(1 0 0 1 516.16 213.41)" class="st2 st3 st4">通話拒否</text>
	<text transform="matrix(1 0 0 1 619.5 213.41)" class="st2 st3 st4">ミュージック</text>
	<text transform="matrix(1 0 0 1 758.83 213.41)" class="st2 st3 st4">再生</text>
	<text transform="matrix(1 0 0 1 862.16 213.41)" class="st2 st3 st4">一時停止</text>
	<text transform="matrix(1 0 0 1 977.5 213.41)" class="st2 st3 st4">録画停止</text>
	<text transform="matrix(1 0 0 1 1080.83 213.41)" class="st2 st3 st4">最後に飛ばす</text>
	<text transform="matrix(1 0 0 1 66.83 351.9)" class="st2 st3 st4">録画</text>
	<text transform="matrix(1 0 0 1 164.16 351.9)" class="st2 st3 st4">スピーカー</text>
	<text transform="matrix(1 0 0 1 255.5 351.9)" class="st2 st3 st4">スピーカーミュート</text>
	<text transform="matrix(1 0 0 1 412.83 351.9)" class="st2 st3 st4">電卓</text>
	<text transform="matrix(1 0 0 1 516.16 351.9)" class="st2 st3 st4">位置情報</text>
	<text transform="matrix(1 0 0 1 643.5 351.9)" class="st2 st3 st4">電源</text>
	<text transform="matrix(1 0 0 1 746.83 351.9)" class="st2 st3 st4">吹き出し</text>
	<text transform="matrix(1 0 0 1 850.16 351.9)" class="st2 st3 st4">再度読み込み</text>
	<text transform="matrix(1 0 0 1 989.5 351.9)" class="st2 st3 st4">充電</text>
	<text transform="matrix(1 0 0 1 1104.83 351.9)" class="st2 st3 st4">設定</text>
	<text transform="matrix(1 0 0 1 42.83 492.39)" class="st2 st3 st4">ホームボタン</text>
	<text transform="matrix(1 0 0 1 176.16 492.39)" class="st2 st3 st4">カート</text>
	<text transform="matrix(1 0 0 1 285.5 492.39)" class="st2 st3 st4">クーポン</text>
	<text transform="matrix(1 0 0 1 412.83 492.39)" class="st2 st3 st4">会計</text>
	<text transform="matrix(1 0 0 1 510.16 492.39)" class="st2 st3 st4">トリミング</text>
	<text transform="matrix(1 0 0 1 643.5 492.39)" class="st2 st3 st4">拡大</text>
	<text transform="matrix(1 0 0 1 758.83 492.39)" class="st2 st3 st4">縮小</text>
	<text transform="matrix(1 0 0 1 862.16 492.39)" class="st2 st3 st4">消しゴム</text>
	<text transform="matrix(1 0 0 1 989.5 492.39)" class="st2 st3 st4">選択</text>
	<text transform="matrix(1 0 0 1 1086.83 492.39)" class="st2 st3 st4">お気に入り</text>
	<text transform="matrix(1 0 0 1 66.83 630.89)" class="st2 st3 st4">共有</text>
	<text transform="matrix(1 0 0 1 183.8 630.89)" class="st2 st3 st4">Wifi</text>
	<text transform="matrix(1 0 0 1 297.5 630.89)" class="st2 st3 st4">電波</text>
	<text transform="matrix(1 0 0 1 400.83 630.89)" class="st2 st3 st4">チェック</text>
	<text transform="matrix(1 0 0 1 504.16 630.89)" class="st2 st3 st4">ヘッドフォン</text>
	<text transform="matrix(1 0 0 1 637.5 630.89)" class="st2 st3 st4">マイク</text>
	<text transform="matrix(1 0 0 1 758.83 630.89)" class="st2 st3 st4">メモ</text>
	<text transform="matrix(1 0 0 1 856.16 630.89)" class="st2 st3 st4">カレンダー</text>
	<text transform="matrix(1 0 0 1 977.5 630.89)" class="st2 st3 st4">ファイル</text>
	<text transform="matrix(1 0 0 1 1080.83 630.89)" class="st2 st3 st4">ブックマーク</text>
	<text transform="matrix(1 0 0 1 54.83 773.38)" class="st2 st3 st4">書き出し</text>
	<text transform="matrix(1 0 0 1 170.16 773.38)" class="st2 st3 st4">読み込み</text>
	<text transform="matrix(1 0 0 1 291.5 773.38)" class="st2 st3 st4">閉じる</text>
	<text transform="matrix(1 0 0 1 412.83 773.38)" class="st2 st3 st4">移動</text>
	<text transform="matrix(1 0 0 1 528.16 773.38)" class="st2 st3 st4">晴れ</text>
	<text transform="matrix(1 0 0 1 643.5 773.38)" class="st2 st3 st4">曇り</text>
	<text transform="matrix(1 0 0 1 764.83 773.38)" class="st2 st3 st4">雨</text>
	<text transform="matrix(1 0 0 1 880.16 773.38)" class="st2 st3 st4">雷</text>
	<text transform="matrix(1 0 0 1 983.5 773.38)" class="st2 st3 st4">ロック</text>
	<text transform="matrix(1 0 0 1 1086.83 773.38)" class="st2 st3 st4">ロック解除</text>
</g>
<g id="レイヤー_3のコピー">
	<path class="st6" d="M63,152.5c14.1-13.2,28.1-26.5,42-40c-15.4-14.7-39.2-15.2-53.9-0.9c-14.4,14.1-14.6,37.3-1,53L63,152.5z"/>
	<path class="st7" d="M107,114.7c-7.2,7-14.5,14-21.7,20.9c-11,10.4-22,20.8-33.1,31.2c15.5,14.1,38.9,14.5,53.3,0.3
		C119.6,153.2,120,130.4,107,114.7z"/>
	<rect x="54.1" y="125" class="st8" width="49.4" height="31.9"/>
	<polygon class="st9" points="101.1,125 79.1,142.4 55.1,123.8 53.2,126.2 79.1,146.3 103.6,126.9 103.6,125.1 103.5,125 	"/>
</g>
<g id="レイヤー_4のコピー">
	<path class="st6" d="M178.6,152.5c14.1-13.2,28.1-26.5,42-40c-15.4-14.7-39.2-15.2-53.9-0.9c-14.4,14.1-14.6,37.3-1,53L178.6,152.5
		z"/>
	<path class="st7" d="M222.5,114.7c-7.2,7-14.4,14-21.7,20.9c-11,10.4-22.1,20.8-33.1,31.2c15.5,14.1,38.9,14.5,53.3,0.3
		C235.1,153.2,235.6,130.4,222.5,114.7z"/>
	<polygon class="st10" points="218.9,133.8 194.6,117.4 169.9,133.8 194.2,146.1 	"/>
	<path class="st11" d="M169.9,133.8v24.1h48.9v-24.1c0,0-22.2,8.9-24.2,8.9S169.9,133.8,169.9,133.8z"/>
</g>
<g id="レイヤー_5のコピー">
	<path class="st6" d="M294.9,150.5c14.1-13.2,28.1-26.5,42-40c-15.4-14.7-39.2-15.2-53.9-0.9c-14.4,14.1-14.6,37.3-1,53L294.9,150.5
		z"/>
	<path class="st7" d="M338.8,112.6c-7.2,7-14.4,14-21.7,20.9c-11,10.4-22,20.8-33.1,31.2c15.5,14.1,38.9,14.5,53.3,0.3
		C351.5,151.2,351.9,128.4,338.8,112.6z"/>
	<polyline class="st10" points="335.6,134.2 310.7,117.4 285.3,134.2 	"/>
	<rect x="293.5" y="121.7" class="st12" width="33.8" height="24.1"/>
	<path class="st13" d="M286,133.8v24.1h48.9v-24.1c0,0-23.7,9.2-25.7,9.2S286,133.8,286,133.8z"/>
	<line class="st14" x1="298.8" y1="125.8" x2="321.5" y2="125.8"/>
	<line class="st14" x1="298.8" y1="130.1" x2="316" y2="130.1"/>
	<line class="st14" x1="311" y1="134.2" x2="298.8" y2="134.2"/>
</g>
<g id="レイヤー_6のコピー">
	<path class="st6" d="M409.3,150.5c14.1-13.2,28.1-26.5,42-40c-15.4-14.7-39.2-15.2-53.9-0.9c-14.4,14.1-14.6,37.3-1,53
		C400.7,158.6,405,154.5,409.3,150.5z"/>
	<path class="st7" d="M453.2,112.6c-7.2,7-14.5,14-21.7,20.9c-11,10.4-22,20.8-33.1,31.2c15.5,14.1,38.9,14.5,53.3,0.3
		C465.8,151.2,466.2,128.4,453.2,112.6z"/>
	<path class="st15" d="M439.8,154.8c-1.5-0.9-4.8-3.7-6.1-4.7s-2.3-1.9-3.5-1.1s-2,2.4-3.7,2.3s-2.5-0.4-5.6-2.9
		c-1.2-0.9-2.3-1.9-3.4-3.1l-0.1-0.1l0,0c-0.2-0.3-0.4-0.5-0.5-0.6l-1-1.3c-2.4-3.2-2.7-3.9-2.8-5.6s1.5-2.4,2.4-3.6s-0.1-2-1-3.4
		s-3.6-4.7-4.5-6.2s-1.9-2.2-2.6-1.4s-1.7,1.6-1.7,1.6s-1.1,1.2-1.8,2s-1.2,1.9-0.8,4.2s1.1,6.2,5.7,12.9c0,0,3.2,4.1,4.5,5.5
		c2,2.3,4.3,4.3,6.8,6.1c6.8,4.7,10.6,5.5,13,6s3.5,0.1,4.3-0.7s2.1-1.8,2.1-1.8s0.9-0.9,1.6-1.6S441.3,155.8,439.8,154.8z"/>
	<line class="st16" x1="419.2" y1="110.2" x2="414.9" y2="119.8"/>
	<line class="st16" x1="428.1" y1="117.1" x2="419.5" y2="123"/>
	<line class="st16" x1="431.1" y1="128.4" x2="420.8" y2="128.4"/>
</g>
<g id="レイヤー_7のコピー">
	<path class="st6" d="M524.3,150.5c14.1-13.2,28.1-26.5,42-40c-15.4-14.7-39.2-15.2-53.9-0.9c-14.4,14.1-14.6,37.3-1,53L524.3,150.5
		z"/>
	<path class="st7" d="M568.2,112.6c-7.2,7-14.5,14-21.7,20.9c-11,10.4-22,20.8-33.1,31.2c15.5,14.1,38.9,14.5,53.3,0.3
		C580.8,151.2,581.2,128.4,568.2,112.6z"/>
	<path class="st15" d="M554.9,153.9c-1.5-0.9-4.8-3.7-6.1-4.7s-2.3-1.9-3.5-1.1s-2,2.4-3.7,2.2s-2.5-0.4-5.6-2.9
		c-1.2-0.9-2.3-1.9-3.3-3.1l-0.1-0.1l0,0c-0.2-0.3-0.4-0.5-0.5-0.6s-0.5-0.7-1-1.3c-2.4-3.2-2.7-3.9-2.8-5.6s1.5-2.4,2.4-3.6
		s-0.1-2-1-3.4s-3.6-4.7-4.5-6.2s-1.9-2.2-2.6-1.4s-1.7,1.6-1.7,1.6s-1.1,1.2-1.8,2s-1.2,1.9-0.8,4.2c0.4,2.4,1.1,6.1,5.7,12.9
		c0,0,3.2,4.1,4.5,5.5c2,2.3,4.3,4.3,6.8,6.1c6.8,4.7,10.6,5.5,13,6s3.5,0,4.3-0.7s2.1-1.8,2.1-1.8s0.8-0.9,1.6-1.6
		S556.4,154.9,554.9,153.9z"/>
</g>
<g id="レイヤー_8のコピー">
	<path class="st6" d="M639.3,150.5c14.1-13.2,28.1-26.5,42-40c-15.4-14.7-39.2-15.2-53.9-0.9c-14.4,14.1-14.6,37.3-1,53L639.3,150.5
		z"/>
	<path class="st7" d="M683.2,112.6c-7.2,7-14.4,14-21.7,20.9c-11,10.4-22,20.8-33.1,31.2c15.5,14.1,38.9,14.5,53.3,0.3
		C695.8,151.2,696.2,128.4,683.2,112.6z"/>
	<ellipse class="st8" cx="670" cy="151.8" rx="7.8" ry="6.7"/>
	<ellipse class="st8" cx="637.7" cy="154.8" rx="7.8" ry="6.7"/>
	<polyline class="st17" points="642.7,154.8 642.7,116.8 675.1,116.8 675.1,151.5 	"/>
	<line class="st18" x1="643.5" y1="129.9" x2="674.1" y2="129.9"/>
</g>
<g id="レイヤー_9のコピー">
	<path class="st6" d="M753.6,150.5c14.1-13.2,28.1-26.5,42-40c-15.4-14.7-39.2-15.2-53.9-0.9c-14.4,14.1-14.6,37.3-1,53L753.6,150.5
		z"/>
	<path class="st7" d="M797.5,112.6c-7.2,7-14.4,14-21.7,20.9c-11,10.4-22,20.8-33.1,31.2c15.5,14.1,38.9,14.5,53.3,0.3
		C810.2,151.2,810.6,128.4,797.5,112.6z"/>
	<polygon class="st19" points="756.7,122.4 756.7,155.9 788.9,139.2 	"/>
</g>
<g id="レイヤー_10のコピー">
	<path class="st6" d="M868.6,150.5c14.1-13.2,28.1-26.5,42-40c-15.4-14.7-39.2-15.2-53.9-0.9c-14.4,14.1-14.6,37.3-1,53L868.6,150.5
		z"/>
	<path class="st7" d="M912.5,112.6c-7.2,7-14.5,14-21.7,20.9c-11,10.4-22,20.8-33.1,31.2c15.5,14.1,38.9,14.5,53.3,0.3
		C925.2,151.2,925.6,128.4,912.5,112.6z"/>
	<line class="st20" x1="874.3" y1="125.3" x2="874.3" y2="153"/>
	<line class="st20" x1="892" y1="125.3" x2="892" y2="153"/>
</g>
<g id="レイヤー_11のコピー">
	<path class="st6" d="M983.3,150.5c14.1-13.2,28.1-26.5,42-40c-15.4-14.7-39.3-15.2-53.9-0.9c-14.4,14.1-14.6,37.3-1,53L983.3,150.5
		z"/>
	<path class="st7" d="M1027.2,112.6c-7.2,7-14.4,14-21.7,20.9c-11,10.4-22,20.8-33.1,31.2c15.5,14.1,38.9,14.5,53.3,0.3
		C1039.8,151.2,1040.2,128.4,1027.2,112.6z"/>
	<rect x="986.3" y="127.2" class="st21" width="25.1" height="23.8"/>
</g>
<g id="レイヤー_12のコピー">
	<path class="st6" d="M1098.6,154.7c14.1-13.2,28.1-26.5,42-40c-15.4-14.7-39.2-15.2-53.9-0.9c-14.4,14.1-14.6,37.3-1,53
		L1098.6,154.7z"/>
	<path class="st7" d="M1142.5,116.9c-7.2,7-14.5,14-21.7,20.9c-11,10.4-22,20.8-33.1,31.2c15.5,14.1,38.9,14.5,53.3,0.3
		C1155.2,155.4,1155.6,132.6,1142.5,116.9z"/>
	<polygon class="st19" points="1092.3,129.4 1092.3,153.6 1118.3,141.5 	"/>
	<line class="st20" x1="1125.8" y1="129" x2="1125.8" y2="154.1"/>
	<line class="st20" x1="1135.4" y1="129" x2="1135.4" y2="154.1"/>
</g>
<g id="レイヤー_14のコピー">
	<path class="st22" d="M60.8,285.9c14.1-13.2,28.1-26.5,42-40c-15.4-14.7-39.3-15.2-53.9-0.9c-14.4,14.1-14.6,37.3-1,53
		C52.2,294,56.5,290,60.8,285.9z"/>
	<path class="st23" d="M104.7,248c-7.2,7-14.4,14-21.7,20.9c-11,10.4-22,20.8-33.1,31.2c15.5,14.1,38.9,14.5,53.3,0.3
		C117.3,286.6,117.7,263.8,104.7,248z"/>
	<path class="st24" d="M63,432.8c14.1-13.2,28.1-26.5,42-40c-15.4-14.7-39.2-15.2-53.9-0.9c-14.4,14.1-14.6,37.3-1,53L63,432.8z"/>
	<path class="st25" d="M107,395c-7.2,7-14.5,14-21.7,20.9c-11,10.4-22.1,20.8-33.1,31.1c15.5,14.1,38.9,14.5,53.3,0.3
		C119.6,433.5,120,410.7,107,395z"/>
	<path class="st26" d="M63,571.5c14.1-13.2,28.1-26.5,42-40c-15.4-14.7-39.2-15.2-53.9-0.9c-14.4,14.1-14.6,37.3-1,53L63,571.5z"/>
	<path class="st25" d="M107,533.6c-7.2,7-14.5,14-21.7,20.9c-11,10.4-22.1,20.8-33.1,31.2c15.5,14.1,38.9,14.5,53.3,0.3
		C119.6,572.2,120,549.4,107,533.6z"/>
	<path class="st27" d="M60.8,712.8c14.1-13.2,28.1-26.5,42-40c-15.4-14.7-39.3-15.2-53.9-0.9c-14.4,14.1-14.6,37.3-1,53L60.8,712.8z
		"/>
	<path class="st23" d="M104.7,674.9c-7.2,7-14.4,14-21.7,20.9c-11,10.4-22,20.8-33.1,31.2c15.5,14.1,38.9,14.5,53.3,0.3
		C117.3,713.5,117.7,690.7,104.7,674.9z"/>
	<rect x="50" y="260.8" class="st19" width="41.9" height="25.9"/>
	<polygon class="st19" points="89.2,269.8 105.2,264 105.2,281.7 89.2,276.9 	"/>
	<ellipse class="st28" cx="91.3" cy="542.8" rx="7.9" ry="7.7"/>
	<ellipse class="st28" cx="61.1" cy="561" rx="4.2" ry="4.1"/>
	<ellipse class="st28" cx="87.1" cy="577.3" rx="4.2" ry="4.1"/>
	<polyline class="st29" points="91.3,542.8 61.1,561 87.1,577.3 	"/>
</g>
<g id="レイヤー_13のコピー">
	<path class="st22" d="M176.9,285.9c14.1-13.2,28.1-26.5,42-40c-15.5-14.7-39.3-15.2-53.9-0.9c-14.4,14.1-14.6,37.3-1,53
		C168.3,294,172.6,290,176.9,285.9z"/>
	<path class="st23" d="M220.8,248c-7.2,7-14.4,14-21.7,20.9c-11,10.5-22,20.9-33.1,31.2c15.5,14.1,38.9,14.5,53.3,0.3
		C233.4,286.6,233.8,263.8,220.8,248z"/>
	<path class="st24" d="M179.1,432.8c14.1-13.2,28.1-26.5,42-40c-15.4-14.7-39.2-15.2-53.9-0.9c-14.4,14.1-14.6,37.3-1,53
		L179.1,432.8z"/>
	<path class="st25" d="M223.1,395c-7.2,7-14.4,14-21.7,20.9c-11,10.4-22,20.8-33.1,31.1c15.5,14.1,38.9,14.5,53.3,0.3
		C235.7,433.5,236.1,410.7,223.1,395z"/>
	<path class="st26" d="M179.1,571.5c14.1-13.2,28.1-26.6,42-40c-15.4-14.7-39.2-15.2-53.9-0.9c-14.4,14.1-14.6,37.3-1,53
		L179.1,571.5z"/>
	<path class="st25" d="M223.1,533.6c-7.2,7-14.4,14-21.7,20.9c-11,10.4-22,20.8-33.1,31.2c15.5,14.1,38.9,14.5,53.3,0.3
		C235.7,572.2,236.1,549.4,223.1,533.6z"/>
	<path class="st27" d="M176.9,712.8c14.1-13.2,28.1-26.5,42-40c-15.4-14.7-39.2-15.2-53.9-0.9c-14.4,14.1-14.6,37.3-1,53
		L176.9,712.8z"/>
	<path class="st23" d="M220.8,674.9c-7.2,7-14.4,14-21.7,20.9c-11,10.4-22,20.8-33.1,31.2c15.5,14.1,38.9,14.5,53.3,0.3
		C233.4,713.5,233.8,690.7,220.8,674.9z"/>
	<polygon class="st19" points="172.4,268.8 205.2,254.6 205.2,289.1 172.4,277.4 	"/>
	<polygon class="st19" points="172.4,268.8 162.1,265 162.1,281.4 172.4,277.4 	"/>
	<line class="st16" x1="218.1" y1="261.3" x2="210.7" y2="266.5"/>
	<line class="st16" x1="221" y1="272.1" x2="212.4" y2="272.3"/>
	<line class="st16" x1="217.9" y1="283.3" x2="210.8" y2="278"/>
	<polyline class="st30" points="166.9,405.2 175.5,405.2 176.6,410.1 179.1,420.8 182,433.2 212.2,433.2 214.9,420 217,410 
		176.6,410.1 	"/>
	<line class="st30" x1="213.7" y1="421.4" x2="180.2" y2="421.4"/>
	<line class="st30" x1="190.9" y1="410.3" x2="190.9" y2="432.3"/>
	<line class="st30" x1="203.2" y1="410.5" x2="203.2" y2="433.1"/>
	<circle class="st11" cx="187" cy="439.8" r="2.5"/>
	<circle class="st11" cx="207.5" cy="439.8" r="2.5"/>
</g>
<g id="レイヤー_15のコピー">
	<path class="st22" d="M293.4,285.9c14.1-13.2,28.1-26.5,42-40c-15.4-14.7-39.2-15.2-53.9-0.9c-14.4,14.1-14.6,37.3-1,53
		C284.9,294,289.1,290,293.4,285.9z"/>
	<path class="st23" d="M337.4,248c-7.2,7-14.5,14-21.7,20.9c-11,10.4-22,20.8-33.1,31.2c15.5,14.1,38.9,14.5,53.3,0.3
		C350,286.6,350.4,263.8,337.4,248z"/>
	<path class="st24" d="M295.7,432.8c14.1-13.2,28.1-26.5,42-40c-15.4-14.7-39.2-15.2-53.9-0.9c-14.4,14.1-14.6,37.3-1,53
		L295.7,432.8z"/>
	<path class="st25" d="M339.6,395c-7.2,7-14.4,14-21.7,20.9c-11,10.4-22,20.8-33.1,31.1c15.5,14.1,38.9,14.5,53.3,0.3
		C352.3,433.5,352.7,410.7,339.6,395z"/>
	<path class="st26" d="M295.7,571.5c14.1-13.2,28.1-26.5,42-40c-15.4-14.7-39.2-15.2-53.9-0.9c-14.4,14.1-14.6,37.3-1,53
		L295.7,571.5z"/>
	<path class="st25" d="M339.6,533.6c-7.2,7-14.4,14-21.7,20.9c-11,10.4-22,20.8-33.1,31.2c15.5,14.1,38.9,14.5,53.3,0.3
		C352.3,572.2,352.7,549.4,339.6,533.6z"/>
	<path class="st27" d="M293.4,712.8c14.1-13.2,28.1-26.5,42-40c-15.4-14.7-39.2-15.2-53.9-0.9c-14.4,14.1-14.6,37.3-1,53
		L293.4,712.8z"/>
	<path class="st23" d="M337.4,674.9c-7.2,7-14.5,14-21.7,20.9c-11,10.4-22,20.8-33.1,31.2c15.5,14.1,38.9,14.5,53.3,0.3
		C350,713.5,350.4,690.7,337.4,674.9z"/>
	<line class="st31" x1="297.2" y1="537" x2="297.2" y2="580.2"/>
	<line class="st31" x1="307.9" y1="545.2" x2="307.9" y2="580.2"/>
	<line class="st31" x1="319.5" y1="554.1" x2="319.5" y2="580.2"/>
	<line class="st31" x1="330.4" y1="565.4" x2="330.4" y2="580.2"/>
</g>
<g id="レイヤー_16のコピー">
	<path class="st22" d="M408.5,285.9c14.1-13.2,28.1-26.5,42-40c-15.4-14.7-39.2-15.2-53.9-0.9c-14.4,14.1-14.6,37.3-1,53
		C399.9,294,404.2,290,408.5,285.9z"/>
	<path class="st23" d="M452.4,248c-7.2,7-14.4,14-21.7,20.9c-11,10.4-22,20.8-33.1,31.2c15.5,14.1,38.9,14.5,53.3,0.3
		C465,286.6,465.4,263.8,452.4,248z"/>
	<path class="st22" d="M521.3,286.3c14.1-13.2,28.1-26.5,42-40c-15.4-14.7-39.2-15.2-53.9-0.9c-14.4,14.1-14.6,37.3-1,53
		L521.3,286.3z"/>
	<path class="st23" d="M565.2,248.5c-7.2,7-14.4,14-21.7,20.9c-11,10.4-22,20.8-33.1,31.2c15.5,14.1,38.9,14.5,53.3,0.3
		C577.9,287,578.3,264.2,565.2,248.5z"/>
	<path class="st22" d="M638.6,285.3c14.1-13.2,28.1-26.5,42-40c-15.4-14.7-39.2-15.2-53.9-0.9c-14.4,14.1-14.6,37.3-1,53
		L638.6,285.3z"/>
	<path class="st23" d="M682.5,247.5c-7.2,7-14.5,14-21.7,20.9c-11,10.4-22,20.8-33.1,31.2c15.5,14.1,38.9,14.5,53.3,0.3
		C695.2,286,695.6,263.2,682.5,247.5z"/>
	<path class="st22" d="M751.3,286.3c14.1-13.2,28.1-26.5,42-40c-15.4-14.7-39.2-15.2-53.9-0.9c-14.4,14.1-14.6,37.3-1,53
		L751.3,286.3z"/>
	<path class="st23" d="M795.2,248.5c-7.2,7-14.4,14-21.7,20.9c-11,10.4-22,20.8-33.1,31.2c15.5,14.1,38.9,14.5,53.3,0.3
		C807.9,287,808.3,264.2,795.2,248.5z"/>
	<path class="st22" d="M868.7,286.3c14.1-13.2,28.1-26.5,42-40c-15.4-14.7-39.2-15.2-53.9-0.9c-14.4,14.1-14.6,37.3-1,53
		L868.7,286.3z"/>
	<path class="st23" d="M912.6,248.5c-7.2,7-14.5,14-21.7,20.9c-11,10.4-22,20.8-33.1,31.2c15.5,14.1,38.9,14.5,53.3,0.3
		C925.2,287,925.6,264.2,912.6,248.5z"/>
	<path class="st22" d="M981.3,286.3c14.1-13.2,28.1-26.5,42-40c-15.4-14.7-39.2-15.2-53.9-0.9c-14.4,14.1-14.6,37.3-1,53
		L981.3,286.3z"/>
	<path class="st23" d="M1025.2,248.5c-7.2,7-14.4,14-21.7,20.9c-11,10.4-22,20.8-33.1,31.2c15.5,14.1,38.9,14.5,53.3,0.3
		C1037.9,287,1038.3,264.2,1025.2,248.5z"/>
	<path class="st22" d="M1099.3,286.3c14.1-13.2,28.1-26.5,42-40c-15.4-14.7-39.2-15.2-53.9-0.9c-14.4,14.1-14.6,37.3-1,53
		L1099.3,286.3z"/>
	<path class="st23" d="M1143.2,248.5c-7.2,7-14.4,14-21.7,20.9c-11,10.4-22,20.8-33.1,31.2c15.5,14.1,38.9,14.5,53.3,0.3
		C1155.9,287,1156.3,264.2,1143.2,248.5z"/>
	<path class="st24" d="M410.8,432.8c14.1-13.2,28.1-26.5,42-40c-15.4-14.7-39.2-15.2-53.9-0.9c-14.4,14.1-14.6,37.3-1,53
		L410.8,432.8z"/>
	<path class="st25" d="M454.6,395c-7.2,7-14.4,14-21.7,20.9c-11,10.4-22,20.8-33.1,31.1c15.5,14.1,38.9,14.5,53.3,0.3
		C467.3,433.5,467.7,410.7,454.6,395z"/>
	<path class="st24" d="M510.8,394.5c-14.4,14.1-14.6,37.3-1,53l12.9-12.2c14.1-13.2,28.1-26.5,42-40
		C549.2,380.7,525.4,380.2,510.8,394.5z M518.3,421.6c0,0.4-0.4,0.7-0.9,0.7c-0.4,0-0.7-0.3-0.7-0.7v-16.4c0-0.4,0.4-0.7,0.9-0.7
		c0.4,0,0.7,0.3,0.7,0.7V421.6z M525.9,419.3c0,0.4-0.4,0.7-0.9,0.7c-0.4,0-0.7-0.3-0.7-0.7v-14.5c0-0.4,0.4-0.7,0.9-0.7
		c0.4,0,0.7,0.3,0.7,0.7V419.3z"/>
	<path class="st25" d="M566.6,397.6c-7.2,7-14.5,14-21.7,20.9c-11,10.4-22,20.8-33.1,31.2c15.5,14.1,38.9,14.5,53.3,0.3
		C579.2,436.1,579.7,413.3,566.6,397.6z M551.4,446.9c0,0.4-0.4,0.7-0.9,0.7c-0.4,0-0.7-0.3-0.7-0.7v-13.9c0-0.4,0.4-0.7,0.9-0.7
		c0.4,0,0.7,0.3,0.7,0.7V446.9z M558.9,444.6c0,0.4-0.4,0.7-0.9,0.7c-0.4,0-0.7-0.3-0.7-0.7V433c0-0.4,0.4-0.7,0.9-0.7
		c0.4,0,0.7,0.3,0.7,0.7V444.6z"/>
	<path class="st24" d="M638.6,433.2c14.1-13.2,28.1-26.5,42-40c-15.4-14.7-39.2-15.2-53.9-0.9c-14.4,14.1-14.6,37.3-1,53
		L638.6,433.2z"/>
	<path class="st25" d="M682.5,395.4c-7.2,7-14.5,14-21.7,20.9c-11,10.5-22,20.9-33.1,31.2c15.5,14.1,38.9,14.5,53.3,0.4
		C695.2,434,695.6,411.2,682.5,395.4z"/>
	<path class="st24" d="M753.6,433.2c14.1-13.2,28.1-26.5,42-40c-15.4-14.7-39.2-15.2-53.9-0.9c-14.4,14.1-14.6,37.3-1,53
		L753.6,433.2z"/>
	<path class="st25" d="M797.5,395.4c-7.2,7-14.5,14-21.7,20.9c-11,10.5-22,20.9-33.1,31.2c15.5,14.1,38.9,14.5,53.3,0.4
		C810.2,434,810.6,411.2,797.5,395.4z"/>
	<path class="st24" d="M870.9,433.2c14.1-13.2,28.1-26.5,42-40c-15.4-14.7-39.3-15.2-53.9-0.9c-14.4,14.1-14.6,37.3-1,53
		L870.9,433.2z"/>
	<path class="st25" d="M914.2,396.8c-6.9,6.8-13.9,13.5-20.9,20.2c-10.6,10.1-21.2,20.1-31.8,30.1c14.9,13.7,37.4,14,51.2,0.3
		C926.4,434,926.8,412,914.2,396.8z"/>
	<path class="st25" d="M887.8,458.9c-10.1,0-19.9-3.9-27.3-10.8l-1.2-1l7.2-6.9c8.4-8,17.2-16.2,25.7-24.4
		c6.9-6.6,13.9-13.4,20.9-20.2l1.1-1.1l1,1.2c13,15.8,12.3,38.9-1.6,52.6C906.9,455.2,897.5,459,887.8,458.9z M863.7,447.1
		c14.4,12.2,35.2,12,48-0.7c12.5-12.3,13.4-32.9,2.3-47.5c-6.6,6.4-13.2,12.8-19.8,19.1c-8.5,8.2-17.2,16.4-25.7,24.4L863.7,447.1z"
		/>
	<path class="st24" d="M983.6,433.2c14.1-13.2,28.1-26.5,42-40c-15.4-14.7-39.2-15.2-53.9-0.9c-14.4,14.1-14.6,37.3-1,53
		L983.6,433.2z"/>
	<path class="st25" d="M1027.5,395.4c-7.2,7-14.5,14-21.7,20.9c-11,10.5-22,20.9-33.1,31.2c15.5,14.1,38.9,14.5,53.3,0.4
		C1040.2,434,1040.6,411.2,1027.5,395.4z"/>
	<path class="st24" d="M1101.6,433.2c14.1-13.2,28.1-26.5,42-40c-15.4-14.7-39.2-15.2-53.9-0.9c-14.4,14.1-14.6,37.3-1,53
		L1101.6,433.2z"/>
	<path class="st25" d="M1145.5,395.4c-7.2,7-14.5,14-21.7,20.9c-11,10.5-22,20.9-33.1,31.2c15.5,14.1,38.9,14.5,53.3,0.4
		C1158.2,434,1158.6,411.2,1145.5,395.4z"/>
	<path class="st26" d="M410.8,571.5c14.1-13.2,28.1-26.5,42-40c-15.4-14.7-39.2-15.2-53.9-0.9c-14.4,14.1-14.6,37.3-1,53
		L410.8,571.5z"/>
	<path class="st25" d="M454.6,533.6c-7.2,7-14.4,14-21.7,20.9c-11,10.4-22,20.8-33.1,31.2c15.5,14.1,38.9,14.5,53.3,0.3
		C467.3,572.2,467.7,549.4,454.6,533.6z"/>
	<path class="st26" d="M522.7,574.1c14.1-13.2,28.1-26.5,42-40c-15.4-14.7-39.2-15.2-53.9-0.9c-14.4,14.1-14.6,37.3-1,53
		L522.7,574.1z"/>
	<path class="st25" d="M566.6,536.2c-7.2,7-14.5,14-21.7,20.9c-11,10.4-22,20.8-33.1,31.2c15.5,14.1,38.9,14.5,53.3,0.3
		C579.2,574.8,579.7,552,566.6,536.2z"/>
	<path class="st26" d="M638.6,571.9c14.1-13.2,28.1-26.5,42-40c-15.4-14.7-39.2-15.2-53.9-0.9c-14.4,14.1-14.6,37.3-1,53
		L638.6,571.9z"/>
	<path class="st25" d="M682.5,534.1c-7.2,7-14.5,14-21.7,20.9c-11,10.4-22,20.8-33.1,31.2c15.5,14.1,38.9,14.5,53.3,0.3
		C695.2,572.6,695.6,549.8,682.5,534.1z"/>
	<path class="st26" d="M753.6,571.9c14.1-13.2,28.1-26.5,42-40c-15.4-14.7-39.2-15.2-53.9-0.9c-14.4,14.1-14.6,37.3-1,53
		L753.6,571.9z"/>
	<path class="st25" d="M797.5,534.1c-7.2,7-14.4,14-21.7,20.9c-11,10.4-22,20.8-33.1,31.2c15.5,14.1,38.9,14.5,53.3,0.3
		C810.2,572.6,810.6,549.8,797.5,534.1z"/>
	<path class="st26" d="M870.9,571.9c14.1-13.2,28.1-26.5,42-40c-15.4-14.7-39.3-15.2-53.9-0.9c-14.4,14.1-14.6,37.3-1,53
		L870.9,571.9z"/>
	<path class="st25" d="M914.8,534.1c-7.2,7-14.5,14-21.7,20.9c-11,10.4-22,20.8-33.1,31.2c15.5,14.1,38.9,14.5,53.3,0.3
		C927.5,572.6,927.9,549.8,914.8,534.1z"/>
	<path class="st26" d="M983.6,571.9c14.1-13.2,28.1-26.5,42-40c-15.4-14.7-39.2-15.2-53.9-0.9c-14.4,14.1-14.6,37.3-1,53
		L983.6,571.9z"/>
	<path class="st25" d="M1027.5,534.1c-7.2,7-14.5,14-21.7,20.9c-11,10.4-22,20.8-33.1,31.2c15.5,14.1,38.9,14.5,53.3,0.3
		C1040.2,572.6,1040.6,549.8,1027.5,534.1z"/>
	<path class="st26" d="M1101.6,571.9c14.1-13.2,28.1-26.5,42-40c-15.4-14.7-39.2-15.2-53.9-0.9c-14.4,14.1-14.6,37.3-1,53
		L1101.6,571.9z"/>
	<path class="st25" d="M1145.5,534.1c-7.2,7-14.5,14-21.7,20.9c-11,10.4-22,20.8-33.1,31.2c15.5,14.1,38.9,14.5,53.3,0.3
		C1158.2,572.6,1158.6,549.8,1145.5,534.1z"/>
	<path class="st27" d="M408.5,712.8c14.1-13.2,28.1-26.5,42-40c-15.4-14.7-39.2-15.2-53.9-0.9c-14.4,14.1-14.6,37.3-1,53
		L408.5,712.8z"/>
	<path class="st23" d="M452.4,674.9c-7.2,7-14.4,14-21.7,20.9c-11,10.4-22,20.8-33.1,31.2c15.5,14.1,38.9,14.5,53.3,0.3
		C465,713.5,465.4,690.7,452.4,674.9z"/>
	<path class="st27" d="M520.4,715.4c14.1-13.2,28.1-26.5,42-40c-15.4-14.7-39.3-15.2-53.9-0.9c-14.4,14.1-14.6,37.3-1,53
		L520.4,715.4z"/>
	<path class="st23" d="M564.3,677.5c-7.2,7-14.4,14-21.7,20.9c-11,10.4-22,20.8-33.1,31.2c15.5,14.1,38.9,14.5,53.3,0.3
		C577,716.1,577.4,693.3,564.3,677.5z"/>
	<path class="st27" d="M636.3,713.2c14.1-13.2,28.1-26.5,42-40c-15.4-14.7-39.2-15.2-53.9-0.9c-14.4,14.1-14.6,37.3-1,53
		L636.3,713.2z"/>
	<path class="st23" d="M680.2,675.3c-7.2,7-14.4,14-21.7,20.9c-11,10.4-22,20.8-33.1,31.2c15.5,14.1,38.9,14.5,53.3,0.3
		C692.9,713.9,693.3,691.1,680.2,675.3z"/>
	<path class="st27" d="M751.3,713.2c14.1-13.2,28.1-26.5,42-40c-15.4-14.7-39.2-15.2-53.9-0.9c-14.4,14.1-14.6,37.3-1,53
		L751.3,713.2z"/>
	<path class="st23" d="M795.2,675.3c-7.2,7-14.4,14-21.7,20.9c-11,10.4-22,20.8-33.1,31.2c15.5,14.1,38.9,14.5,53.3,0.3
		C807.9,713.9,808.3,691.1,795.2,675.3z"/>
	<path class="st27" d="M868.7,713.2c14.1-13.2,28.1-26.5,42-40c-15.4-14.7-39.2-15.2-53.9-0.9c-14.4,14.1-14.6,37.3-1,53
		L868.7,713.2z"/>
	<path class="st23" d="M912.6,675.3c-7.2,7-14.5,14-21.7,20.9c-11,10.4-22,20.8-33.1,31.2c15.5,14.1,38.9,14.5,53.3,0.3
		C925.2,713.9,925.6,691.1,912.6,675.3z"/>
	<path class="st27" d="M981.3,713.2c14.1-13.2,28.1-26.5,42-40c-15.4-14.7-39.2-15.2-53.9-0.9c-14.4,14.1-14.6,37.3-1,53
		L981.3,713.2z"/>
	<path class="st23" d="M1025.2,675.3c-7.2,7-14.4,14-21.7,20.9c-11,10.4-22,20.8-33.1,31.2c15.5,14.1,38.9,14.5,53.3,0.3
		C1037.9,713.9,1038.3,691.1,1025.2,675.3z"/>
	<path class="st27" d="M1099.3,713.2c14.1-13.2,28.1-26.5,42-40c-15.4-14.7-39.2-15.2-53.9-0.9c-14.4,14.1-14.6,37.3-1,53
		L1099.3,713.2z"/>
	<path class="st23" d="M1143.2,675.3c-7.2,7-14.4,14-21.7,20.9c-11,10.4-22,20.8-33.1,31.2c15.5,14.1,38.9,14.5,53.3,0.3
		C1155.9,713.9,1156.3,691.1,1143.2,675.3z"/>
	<circle class="st8" cx="537.6" cy="266.5" r="16.3"/>
	<polygon class="st8" points="531.6,279 537.5,301.3 543.6,279 	"/>
	<rect x="864.3" y="546" class="st32" width="46.3" height="32"/>
	<rect x="868.9" y="548.6" class="st33" width="5.3" height="5.3"/>
	<rect x="879.5" y="548.6" class="st33" width="5.3" height="5.3"/>
	<rect x="890.5" y="548.6" class="st33" width="5.3" height="5.3"/>
	<rect x="901.1" y="548.6" class="st33" width="5.3" height="5.3"/>
	<rect x="868.6" y="559.4" class="st33" width="5.3" height="5.3"/>
	<rect x="879.2" y="559.4" class="st33" width="5.3" height="5.3"/>
	<path class="st34" d="M896.1,559.1v5.9h-5.9v-5.9L896.1,559.1 M896.1,558.1h-5.9c-0.6,0-1,0.4-1,1v5.9c0,0.6,0.4,1,1,1h5.9
		c0.6,0,1-0.4,1-1v-5.9C897.1,558.6,896.6,558.1,896.1,558.1z"/>
	<rect x="900.8" y="559.4" class="st33" width="5.3" height="5.3"/>
	<rect x="868.9" y="570.2" class="st33" width="5.3" height="5.3"/>
	<rect x="879.5" y="570.2" class="st33" width="5.3" height="5.3"/>
	<rect x="890.5" y="570.2" class="st33" width="5.3" height="5.3"/>
	<rect x="901.1" y="570.2" class="st33" width="5.3" height="5.3"/>
	<rect x="874.7" y="536.2" class="st35" width="3.8" height="9.8"/>
	<rect x="897" y="536.2" class="st35" width="3.8" height="9.8"/>
	<path class="st36" d="M978.5,542.8h17.8c2,0,1.1,5.3,3.2,5.4c2.7,0.1,21.9,0.2,21.9,0.2v8.7h-42.9V542.8z"/>
	<rect x="979" y="554" class="st32" width="42" height="23.3"/>
	<polygon class="st32" points="1103.1,584.1 1116.4,568 1116.4,537.6 1105.8,537.6 1103.1,537.6 	"/>
	<polygon class="st32" points="1118.9,537.6 1118.9,568 1132.3,584.1 1132.3,537.6 	"/>
	<line class="st37" x1="1128.1" y1="537.6" x2="1106.2" y2="537.6"/>
	<polygon class="st33" points="1117.7,543.2 1120.5,549 1126.9,550 1122.3,554.5 1123.4,560.8 1117.7,557.8 1112,560.8 
		1113.1,554.5 1108.4,550 1114.8,549 	"/>
	<polygon class="st32" points="95.2,694.6 58.6,694.8 76.9,678.3 	"/>
	<rect x="66.3" y="692.5" class="st32" width="21.6" height="14.1"/>
	<polyline class="st37" points="52,695.7 52,716.2 101.9,716.2 101.9,695.7 	"/>
	<polygon class="st32" points="211.3,706.3 174.7,706.1 193,722.6 	"/>
	<rect x="182.4" y="694.2" class="st32" width="21.6" height="14.1"/>
	<polyline class="st37" points="168,705.2 168,684.7 217.9,684.7 217.9,705.2 	"/>
	<rect x="290.3" y="682" class="st37" width="38.5" height="38.5"/>
	<polyline class="st38" points="416.4,685.7 424.4,676.4 433.3,685.3 	"/>
	<polyline class="st38" points="432.7,716.8 424.7,726.1 415.8,717.2 	"/>
	<polyline class="st38" points="409.3,709.4 400,701.4 408.9,692.5 	"/>
	<polyline class="st38" points="440.4,693.1 449.7,701.1 440.8,710 	"/>
	<line class="st38" x1="404.2" y1="701.2" x2="445.6" y2="701.2"/>
</g>
<g id="レイヤー_17のコピー">
	<polygon class="st19" points="290,270.1 322.9,255.9 322.9,290.4 290,278.7 	"/>
	<polygon class="st19" points="290,270.1 279.8,266.3 279.8,282.7 290,278.7 	"/>
	<line class="st16" x1="532.1" y1="113.9" x2="542.7" y2="124.3"/>
	<line class="st16" x1="542.5" y1="113.8" x2="532.3" y2="124.4"/>
	<line class="st16" x1="329.6" y1="267.9" x2="340.2" y2="278.4"/>
	<line class="st16" x1="340" y1="267.8" x2="329.8" y2="278.5"/>
	<circle class="st22" cx="537.9" cy="266.8" r="8.5"/>
	<circle class="st17" cx="1115.8" cy="275" r="17.5"/>
	<rect x="1112.2" y="252.2" class="st28" width="7.2" height="4.7"/>
	<rect x="1112.2" y="293.6" class="st28" width="7.2" height="4.7"/>
	
		<rect x="1094.2" y="259.9" transform="matrix(0.6144 -0.789 0.789 0.6144 216.3552 967.2508)" class="st28" width="7.2" height="4.7"/>
	
		<rect x="1095" y="282.4" transform="matrix(0.8367 -0.5477 0.5477 0.8367 22.5683 647.7202)" class="st28" width="4.7" height="7.2"/>
	
		<rect x="1131.2" y="258.2" transform="matrix(0.8105 -0.5858 0.5858 0.8105 61.4897 713.6509)" class="st28" width="4.7" height="7.2"/>
	
		<rect x="1129.4" y="283.3" transform="matrix(0.5771 -0.8166 0.8166 0.5771 245.8661 1046.005)" class="st28" width="7.2" height="4.7"/>
	<circle class="st28" cx="1116.1" cy="275" r="9.7"/>
	<polygon class="st28" points="78.8,395 57.1,415.5 100.6,415.5 	"/>
	<rect x="63.7" y="415.5" class="st28" width="30.8" height="24.8"/>
	<rect x="72.6" y="422.3" class="st24" width="13.4" height="10.9"/>
	<line class="st38" x1="298" y1="690.2" x2="321" y2="712.2"/>
	<line class="st38" x1="320.7" y1="690" x2="298.3" y2="712.4"/>
	<rect x="403.6" y="249" class="st37" width="41.5" height="48"/>
	<line class="st39" x1="402.6" y1="261.5" x2="444.8" y2="261.5"/>
	<rect x="421.8" y="275.9" class="st13" width="4.8" height="5"/>
	<rect x="421.9" y="266" class="st13" width="4.8" height="5"/>
	<rect x="433.6" y="266" class="st13" width="4.8" height="5"/>
	<rect x="410.5" y="275.8" class="st13" width="4.8" height="5"/>
	<rect x="410" y="265.7" class="st40" width="6" height="6.2"/>
	<rect x="410.5" y="286.2" class="st13" width="4.8" height="5"/>
	<rect x="421.9" y="286.2" class="st13" width="4.8" height="5"/>
	<rect x="433.4" y="275.9" class="st13" width="5.3" height="15.3"/>
</g>
<path class="st8" d="M661.3,252.5v5.2c9.7,3.2,15,13.7,11.8,23.4c-3.2,9.7-13.7,15-23.4,11.8s-15-13.7-11.8-23.4
	c1.8-5.4,6-9.7,11.4-11.6c0-1.8,0-3.5,0-5.3c-12.5,3.4-19.9,16.3-16.5,28.8c3.4,12.5,16.3,19.9,28.8,16.5
	c12.5-3.4,19.9-16.3,16.5-28.8C675.9,260.9,669.5,254.6,661.3,252.5z"/>
<line class="st38" x1="655.5" y1="246.5" x2="655.5" y2="266.5"/>
<path class="st41" d="M765.6,252.5c-14.3,0-25.9,9.3-25.9,20.7s11.6,20.7,25.9,20.7s25.9-9.3,25.9-20.7S780,252.5,765.6,252.5z
	 M749.6,278.1c-5.5,0-5.5-8.5,0-8.5S755,278.1,749.6,278.1L749.6,278.1z M765.5,277.8c-5.5,0-5.5-8.5,0-8.5S771,277.8,765.5,277.8
	L765.5,277.8z M781,277.8c-5.5,0-5.5-8.5,0-8.5S786.4,277.8,781,277.8L781,277.8z"/>
<path class="st41" d="M771.9,289c0,0,2.5,4.5,6.3,6.4c2.7,1.2,5.5,1.9,8.5,2.1c-1.8-1.5-3.4-3.2-4.7-5c-1.8-2.2-3.1-4.7-3.9-7.4
	L771.9,289z"/>
<path class="st8" d="M885.2,247.5c-13.9,0-25.1,11.3-25.1,25.2c0,8.8,4.6,16.9,12.1,21.5c0.8-1.1,1.6-2.1,2.4-3.2
	c-10.1-5.8-13.6-18.8-7.8-28.9c5.8-10.1,18.8-13.6,28.9-7.8c10.1,5.8,13.6,18.8,7.8,28.9c-1.4,2.4-3.2,4.4-5.3,6.1
	c0.6,1.2,1.2,2.4,1.9,3.6c11.2-8.2,13.6-24,5.4-35.1C900.8,251.3,893.2,247.5,885.2,247.5L885.2,247.5z"/>
<polyline class="st38" points="898.5,281.6 897.1,292.9 908.5,292.3 "/>
<rect x="981.9" y="253.8" class="st37" width="31.8" height="42.8"/>
<rect x="992.5" y="247.7" class="st28" width="12.4" height="6.2"/>
<rect x="987.2" y="284.1" class="st28" width="21.2" height="6.6"/>
<rect x="987.2" y="271.9" class="st28" width="21.2" height="6.6"/>
<rect x="987.2" y="259.6" class="st28" width="21.2" height="6.6"/>
<path class="st8" d="M333.8,419.2v-10.6h-44.7v9.8c2.3,2.1,2.5,5.6,0.4,7.9c-0.1,0.1-0.3,0.3-0.4,0.4v8.4h44.7v-7.9
	C331.6,425,331.6,421.4,333.8,419.2z"/>
<path class="st8" d="M335.8,418.1v-9.6c0-1.1-0.9-2-2-2h-44.7c-1.1,0-2,0.9-2,2v8.9c5.1,1.1,5.1,9.1,0,10.2v7.5c0,1.1,0.9,2,2,2
	h44.7c1.1,0,2-0.9,2-2v-6.9C330.9,427,330.9,419.4,335.8,418.1z M331.8,433.1h-40.7v-22.6h40.7V433.1z"/>
<line class="st42" x1="326.5" y1="409.1" x2="326.5" y2="436.4"/>
<polyline class="st37" points="414.2,399 426.4,419.4 438.7,399 "/>
<polyline class="st43" points="402.5,556.4 421.7,576.5 450.2,544.5 "/>
<line class="st37" x1="410" y1="420.1" x2="443.7" y2="420.1"/>
<line class="st37" x1="414.1" y1="429.8" x2="439" y2="429.8"/>
<line class="st37" x1="426.4" y1="419.4" x2="426.7" y2="444.7"/>
<path class="st8" d="M549.9,434.1h-25.6v-31.6c0-1.7-1.3-3-3-3s-3,1.3-3,3v2.5c0,0.1,0,0.1,0,0.2v16.4c0,0.1,0,0.1,0,0.2v15.2
	c0,1.7,1.3,3,3,3h28.6V434.1z"/>
<path class="st8" d="M561.7,434.1h-2.8v6h2.8c1.7,0,3-1.3,3-3S563.4,434.1,561.7,434.1L561.7,434.1z"/>
<rect x="551.4" y="434.1" class="st8" width="5.9" height="6"/>
<polygon class="st8" points="518.3,406.1 518.3,412.1 524.3,412.1 524.3,406.1 "/>
<path class="st8" d="M516.8,406.1H514c-1.7,0-3,1.3-3,3s1.3,3,3,3h2.8L516.8,406.1z"/>
<path class="st8" d="M557.3,433c0-0.1,0-0.2,0-0.3v-23.5c0-1.7-1.3-3-3-3h-28.5v6h25.5v20.7c0,0.1,0.1,0.2,0.1,0.3v11.3
	c0.3,1.4,1.5,2.4,2.9,2.4l0,0c1.5,0,2.8-1.1,3-2.6L557.3,433z"/>
<circle class="st44" cx="651.7" cy="417.7" r="18.2"/>
<line class="st43" x1="669.9" y1="443" x2="662.8" y2="434.1"/>
<line class="st45" x1="641.1" y1="417.7" x2="662.8" y2="417.7"/>
<line class="st20" x1="651.9" y1="407.4" x2="651.9" y2="428"/>
<circle class="st44" cx="767" cy="417.4" r="18.2"/>
<line class="st43" x1="785.2" y1="442.7" x2="778.1" y2="433.8"/>
<line class="st45" x1="756.4" y1="417.4" x2="778.1" y2="417.4"/>
<rect x="873.9" y="401.9" transform="matrix(0.7667 -0.642 0.642 0.7667 -59.44 668.7715)" class="st32" width="33.2" height="28.6"/>
<rect x="869.1" y="418.2" transform="matrix(0.7667 -0.642 0.642 0.7667 -72.3588 661.2875)" class="st37" width="9.3" height="24.1"/>
<polygon class="st37" points="984,400.3 994.4,443.6 1003.1,425.2 1023.6,421.1 "/>
<polygon class="st46" points="984,400.3 1003.1,425.2 1023.6,421.1 "/>
<polygon class="st46" points="1133.3,443.1 1117.2,435 1101.3,443.6 1104.1,425.7 1090.9,413.3 1108.8,410.4 1116.5,394 
	1124.8,410.2 1142.8,412.5 1130,425.3 "/>
<path class="st47" d="M195.6,580.9l-5-4.8c1.6-0.7,3.3-1,5-1c1.9-0.1,3.7,0.3,5.5,1L195.6,580.9z"/>
<path class="st8" d="M195.8,540c-10.6,0-20.7,4.4-27.9,12.1c1.4,1.7,2.8,3.3,4.1,5c0.4-0.2,0.7-0.5,0.9-0.8c6-6.3,14.2-9.8,22.9-9.9
	V540z"/>
<path class="st8" d="M195.8,551.5c-8,0-15.6,3.1-21.4,8.7c1.1,1.4,2.2,2.8,3.4,4.2l0.8,1c4.5-4.7,10.7-7.3,17.2-7.3V551.5z"/>
<path class="st8" d="M195.8,562.2h-0.2c-5.5,0-10.8,2.1-14.8,5.8c1.4,1.7,2.8,3.4,4.2,5.1c2.8-2.9,6.6-4.4,10.6-4.4h0.2V562.2z"/>
<path class="st8" d="M195.8,540c10.6,0.2,20.6,4.8,27.7,12.6c-1.4,1.6-2.9,3.3-4.2,5c-0.4-0.2-0.7-0.5-0.9-0.8
	c-5.8-6.4-14-10.1-22.7-10.3L195.8,540z"/>
<path class="st8" d="M195.6,551.5c8,0.2,15.6,3.4,21.2,9c-1.1,1.4-2.3,2.8-3.4,4.2l-0.8,1c-4.4-4.7-10.6-7.5-17.1-7.6L195.6,551.5z"
	/>
<path class="st8" d="M195.4,562.2h0.2c5.5,0.1,10.8,2.3,14.7,6.1l-4.3,5c-2.7-2.9-6.5-4.6-10.5-4.6h-0.2L195.4,562.2z"/>
<rect x="518" y="558.2" class="st48" width="5.9" height="19"/>
<rect x="514" y="563" class="st48" width="2.7" height="9.3"/>
<rect x="554.7" y="558.2" class="st48" width="5.9" height="19"/>
<rect x="562" y="563" class="st48" width="2.7" height="9.3"/>
<path class="st20" d="M521,557.2c0,0,0-17.3,18.5-17.3c18.3,0,18.3,17.3,18.3,17.3"/>
<rect x="648.1" y="536.2" class="st49" width="13.5" height="27"/>
<path class="st8" d="M668.2,552.6v16.8h-26.7v-16.8h-5v19.2c0,1.4,1.1,2.5,2.5,2.5h31.7c1.4,0,2.5-1.1,2.5-2.5v-19.2H668.2z"/>
<line class="st44" x1="655.5" y1="571.5" x2="655.5" y2="584.6"/>
<line class="st37" x1="644.7" y1="584.6" x2="666.9" y2="584.6"/>
<rect x="650.2" y="549" class="st34" width="9.6" height="12.4"/>
<path class="st34" d="M648.7,549v12.4c0,0.8,0.7,1.5,1.5,1.5h9.6c0.8,0,1.5-0.7,1.5-1.5V549H648.7z M658.3,559.9h-6.6V550h6.6V559.9
	z"/>
<path class="st8" d="M784.7,580.3h-32v-38h34.7v35.3l3.8-3.8c0.1-0.1,0.1-0.2,0.2-0.2v-33.3c0-1.1-0.9-2-2-2h-38.7c-1.1,0-2,0.9-2,2
	v42c0,1.1,0.9,2,2,2h30C782,583,783.3,581.6,784.7,580.3z"/>
<line class="st37" x1="757.8" y1="549" x2="782" y2="549"/>
<line class="st37" x1="757.9" y1="557" x2="782.1" y2="557"/>
<line class="st37" x1="757.9" y1="565.5" x2="774" y2="565.5"/>
<line class="st37" x1="757.9" y1="572.9" x2="766.9" y2="572.9"/>
<polygon class="st28" points="780.2,581.9 779.7,571.7 789.2,572.9 "/>
<line class="st38" x1="424.6" y1="680.5" x2="424.6" y2="722"/>
<circle class="st50" cx="536.3" cy="702.6" r="12.4"/>
<line class="st38" x1="536.3" y1="676.4" x2="536.3" y2="684.3"/>
<line class="st38" x1="536.3" y1="720.8" x2="536.3" y2="728.8"/>
<path class="st50" d="M536.3,724.9"/>
<line class="st38" x1="517.7" y1="684.1" x2="523.4" y2="689.7"/>
<line class="st38" x1="549.3" y1="715.4" x2="555" y2="721"/>
<line class="st38" x1="554.8" y1="684" x2="549.2" y2="689.6"/>
<line class="st38" x1="523.5" y1="715.5" x2="517.8" y2="721.2"/>
<line class="st38" x1="562.5" y1="702.6" x2="554.6" y2="702.6"/>
<line class="st38" x1="518.1" y1="702.6" x2="510.1" y2="702.6"/>
<path class="st50" d="M667.1,709.9c1.9-2.9,3-6.3,3-9.8c0-10.1-8.5-18.3-19-18.3s-19,8.2-19,18.3c0,3.5,1.1,6.9,3,9.8H667.1z"/>
<path class="st51" d="M684.5,713.1c0.3-1.3,0.4-2.7,0.4-4c0-8.5-5.6-15.5-12.4-15.5s-12.4,6.9-12.4,15.5c0,1.3,0.1,2.7,0.4,4H684.5z
	"/>
<path class="st50" d="M641.2,709.9c0-0.2,0-0.3,0-0.5c-0.3-5-4.7-8.8-9.7-8.5c-4.6,0.3-8.2,3.9-8.5,8.5c0,0.2,0,0.3,0,0.5H641.2z"/>
<path class="st50" d="M768.5,682.1c-0.5,0.5-0.8,1.3-0.8,2c0,2.4,3.3,4.4,7.3,4.4s7.3-2,7.2-4.4c0-0.7-0.3-1.5-0.8-2L768.5,682.1z"
	/>
<path class="st50" d="M751.4,682.1c-0.9,0.9-1.5,2.2-1.5,3.5c0,3.9,5.2,7.1,11.5,7s11.5-3.2,11.5-7.1c0-1.3-0.6-2.6-1.5-3.5
	L751.4,682.1z"/>
<path class="st50" d="M740.4,682.2c0.3,1.1,3,2,6.2,2s6-0.9,6.2-2H740.4z"/>
<path class="st50" d="M883.9,683.7c-0.5,0.5-0.8,1.3-0.8,2c0,2.4,3.3,4.4,7.3,4.4s7.2-2,7.2-4.4c0-0.7-0.3-1.5-0.8-2L883.9,683.7z"
	/>
<path class="st50" d="M866.9,683.8c-0.9,0.9-1.5,2.2-1.5,3.5c0,3.9,5.2,7.1,11.5,7s11.5-3.2,11.5-7.1c0-1.3-0.6-2.6-1.5-3.5
	L866.9,683.8z"/>
<path class="st50" d="M855.9,683.9c0.3,1.1,3,2,6.2,2s6-0.9,6.2-2H855.9z"/>
<line class="st52" x1="751.8" y1="707.6" x2="753.4" y2="712.5"/>
<line class="st52" x1="762" y1="712.8" x2="763.6" y2="717.7"/>
<line class="st52" x1="771.8" y1="720.1" x2="773.4" y2="724.9"/>
<line class="st52" x1="786.2" y1="715.3" x2="787.8" y2="720.1"/>
<line class="st52" x1="756.9" y1="697.5" x2="758.5" y2="702.3"/>
<line class="st52" x1="756.9" y1="723.7" x2="758.5" y2="728.5"/>
<line class="st52" x1="741.1" y1="702.3" x2="742.7" y2="707.2"/>
<line class="st52" x1="766" y1="702.8" x2="767.7" y2="707.7"/>
<line class="st52" x1="776.3" y1="708.1" x2="777.9" y2="712.9"/>
<line class="st52" x1="790" y1="703.5" x2="791.6" y2="708.4"/>
<line class="st52" x1="780.5" y1="698.1" x2="782.1" y2="702.9"/>
<polygon class="st53" points="900.1,695.3 893.2,707.4 902,707.4 896.7,718.2 907.6,704.7 897.9,704.6 "/>
<polygon class="st53" points="880.8,706.3 873.8,718.3 882.7,718.3 877.4,729.1 888.3,715.6 878.6,715.5 "/>
<rect x="978.1" y="695.3" class="st32" width="39.6" height="25.5"/>
<path class="st37" d="M984.3,697.9c0,0-3.3-22.5,13.6-22.5c17.3,0,13.8,22.5,13.8,22.5"/>
<circle class="st54" cx="997.9" cy="705.7" r="3.3"/>
<rect x="997.2" y="708.5" class="st54" width="1.1" height="6.2"/>
<rect x="1095.5" y="695.1" class="st8" width="39.6" height="25.5"/>
<path class="st8" d="M1135.1,722.6h-39.6c-1.1,0-2-0.9-2-2v-25.5c0-1.1,0.9-2,2-2h39.6c1.1,0,2,0.9,2,2v25.5
	C1137.1,721.7,1136.2,722.6,1135.1,722.6z M1097.5,718.6h35.6v-21.5h-35.6V718.6z"/>
<path class="st8" d="M1127.1,688.5h4c-0.4-3.8-1.8-7.5-4.2-10.5c-2.8-3.2-6.7-4.9-11.6-4.9c-4.7,0-8.5,1.6-11.2,4.7
	c-6.1,7.1-4.4,19.5-4.3,20.1c0.2,1.1,1.2,1.9,2.3,1.7c1.1-0.2,1.9-1.2,1.7-2.3c0-0.1-1.6-11.2,3.4-16.9c2-2.3,4.6-3.3,8.2-3.3
	c3.7,0,6.5,1.1,8.5,3.5C1125.6,682.9,1126.7,685.6,1127.1,688.5z"/>
<circle class="st55" cx="1115.3" cy="705.5" r="3.3"/>
<path class="st55" d="M1115.3,710.3c-2.7,0-4.8-2.2-4.8-4.8s2.2-4.8,4.8-4.8c2.7,0,4.8,2.2,4.8,4.8v0
	C1120.1,708.1,1118,710.3,1115.3,710.3z M1115.3,703.7c-1,0-1.8,0.8-1.8,1.8c0,1,0.8,1.8,1.8,1.8c1,0,1.8-0.8,1.8-1.8c0,0,0,0,0,0
	C1117.1,704.5,1116.3,703.7,1115.3,703.7z"/>
<rect x="1114.7" y="708.3" class="st55" width="1.1" height="6.2"/>
<path class="st55" d="M1114.7,706.8h1.1c0.8,0,1.5,0.7,1.5,1.5v6.2c0,0.8-0.7,1.5-1.5,1.5h-1.1c-0.8,0-1.5-0.7-1.5-1.5v-6.2
	C1113.2,707.5,1113.9,706.8,1114.7,706.8z"/>
</svg>
