<svg xmlns="http://www.w3.org/2000/svg" xmlns:xlink="http://www.w3.org/1999/xlink" viewBox="0 0 1190.55 841.89"><defs><style>.cls-1,.cls-14,.cls-15,.cls-16,.cls-17,.cls-2,.cls-20,.cls-27,.cls-28,.cls-31,.cls-33,.cls-35,.cls-37,.cls-41,.cls-44,.cls-49,.cls-57,.cls-61,.cls-64,.cls-66,.cls-69,.cls-72,.cls-75{fill:none;}.cls-2{stroke:#ccc;}.cls-10,.cls-11,.cls-12,.cls-16,.cls-2,.cls-27,.cls-28,.cls-33,.cls-35,.cls-41,.cls-42,.cls-45,.cls-46,.cls-5,.cls-55,.cls-56,.cls-59,.cls-6,.cls-60,.cls-61,.cls-62,.cls-64,.cls-65,.cls-66,.cls-67,.cls-68,.cls-69,.cls-7,.cls-70,.cls-75,.cls-8,.cls-9{stroke-miterlimit:10;}.cls-13,.cls-18,.cls-19,.cls-25,.cls-26,.cls-3,.cls-32,.cls-34,.cls-38,.cls-40,.cls-43,.cls-46,.cls-51,.cls-53,.cls-55,.cls-58,.cls-59,.cls-60,.cls-73,.cls-74{fill:#fff;}.cls-3{opacity:0.51;}.cls-4{font-size:12px;font-family:KozGoPro-Regular-83pv-RKSJ-H, Kozuka Gothic Pro;}.cls-5{fill:#659e96;stroke:#659e96;}.cls-10,.cls-11,.cls-12,.cls-15,.cls-20,.cls-21,.cls-23,.cls-24,.cls-25,.cls-33,.cls-35,.cls-40,.cls-41,.cls-5,.cls-59,.cls-6,.cls-65,.cls-7,.cls-72,.cls-8,.cls-9{stroke-width:3px;}.cls-36,.cls-42,.cls-6{fill:#d1c550;}.cls-17,.cls-35,.cls-36,.cls-42,.cls-43,.cls-6{stroke:#d1c550;}.cls-68,.cls-7{fill:#52508a;stroke:#52508a;}.cls-45,.cls-48,.cls-52,.cls-65,.cls-67,.cls-70,.cls-8{fill:#f29c5a;}.cls-45,.cls-48,.cls-49,.cls-55,.cls-64,.cls-67,.cls-70,.cls-72,.cls-8{stroke:#f29c5a;}.cls-47,.cls-50,.cls-54,.cls-62,.cls-63,.cls-9{fill:#ba4c57;}.cls-47,.cls-50,.cls-56,.cls-62,.cls-63,.cls-9{stroke:#ba4c57;}.cls-10,.cls-39{fill:#729466;}.cls-10,.cls-16,.cls-46{stroke:#729466;}.cls-11,.cls-24,.cls-30{fill:#a562ad;}.cls-11,.cls-24,.cls-28{stroke:#a562ad;}.cls-12,.cls-29{fill:#6dbfbc;}.cls-12{stroke:#6dbfbc;}.cls-14,.cls-15,.cls-18,.cls-20,.cls-21,.cls-23,.cls-25,.cls-26,.cls-27,.cls-31,.cls-32,.cls-33,.cls-34,.cls-37,.cls-38,.cls-40,.cls-41,.cls-44,.cls-53,.cls-57,.cls-58,.cls-59,.cls-60,.cls-61,.cls-65,.cls-66,.cls-69,.cls-73,.cls-75{stroke:#fff;}.cls-14,.cls-15,.cls-16,.cls-17,.cls-18,.cls-21,.cls-23,.cls-26,.cls-27,.cls-28,.cls-31,.cls-32,.cls-34,.cls-36,.cls-37,.cls-38,.cls-40,.cls-41,.cls-43,.cls-44,.cls-47,.cls-48,.cls-49,.cls-50,.cls-53,.cls-61,.cls-64,.cls-66,.cls-67,.cls-68,.cls-70,.cls-72{stroke-linecap:round;}.cls-14,.cls-15,.cls-17,.cls-18,.cls-19,.cls-20,.cls-21,.cls-23,.cls-24,.cls-25,.cls-26,.cls-31,.cls-32,.cls-34,.cls-36,.cls-37,.cls-38,.cls-40,.cls-43,.cls-44,.cls-47,.cls-48,.cls-49,.cls-50,.cls-53,.cls-57,.cls-58,.cls-63,.cls-72,.cls-73{stroke-linejoin:round;}.cls-14,.cls-18,.cls-73,.cls-75{stroke-width:4px;}.cls-16,.cls-17,.cls-26{stroke-width:5px;}.cls-19{stroke:#fffcfd;}.cls-21,.cls-22{fill:#9c5ca2;}.cls-23{fill:#69b2b2;}.cls-27,.cls-31,.cls-34,.cls-42,.cls-45,.cls-50,.cls-57,.cls-58,.cls-62,.cls-63,.cls-64,.cls-70{stroke-width:2px;}.cls-28{stroke-width:2.5px;}.cls-32{stroke-width:1.5px;}.cls-44,.cls-53{stroke-width:0.75px;}.cls-51{font-size:53.47px;font-family:EuphemiaUCAS-Bold, Euphemia UCAS;font-weight:700;}.cls-56{fill:#fffcfd;}.cls-61{stroke-width:6px;}.cls-71{clip-path:url(#clip-path);}.cls-74{font-size:48px;font-family:MOGSuujiIt-K50, MO GSuujiIt;}</style><clipPath id="clip-path"><circle class="cls-1" cx="884.39" cy="700.54" r="26.46"/></clipPath></defs><g id="テンプレート"><rect class="cls-2" x="28.83" y="87.3" width="100" height="100"/><rect class="cls-2" x="143.83" y="87.3" width="100" height="100"/><rect class="cls-2" x="258.83" y="87.3" width="100" height="100"/><rect class="cls-2" x="373.83" y="87.3" width="100" height="100"/><rect class="cls-2" x="488.83" y="87.3" width="100" height="100"/><rect class="cls-2" x="603.83" y="87.3" width="100" height="100"/><rect class="cls-2" x="718.83" y="87.3" width="100" height="100"/><rect class="cls-2" x="833.83" y="87.3" width="100" height="100"/><rect class="cls-2" x="948.83" y="87.3" width="100" height="100"/><rect class="cls-2" x="1063.83" y="87.3" width="100" height="100"/><rect class="cls-2" x="28.83" y="228.07" width="100" height="100"/><rect class="cls-2" x="143.83" y="228.07" width="100" height="100"/><rect class="cls-2" x="258.83" y="228.07" width="100" height="100"/><rect class="cls-2" x="373.83" y="228.07" width="100" height="100"/><rect class="cls-2" x="488.83" y="228.07" width="100" height="100"/><rect class="cls-2" x="603.83" y="228.07" width="100" height="100"/><rect class="cls-2" x="718.83" y="228.07" width="100" height="100"/><rect class="cls-2" x="833.83" y="228.07" width="100" height="100"/><rect class="cls-2" x="948.83" y="228.07" width="100" height="100"/><rect class="cls-2" x="1063.83" y="228.07" width="100" height="100"/><rect class="cls-2" x="28.83" y="368.84" width="100" height="100"/><rect class="cls-2" x="143.83" y="368.84" width="100" height="100"/><rect class="cls-2" x="258.83" y="368.84" width="100" height="100"/><rect class="cls-2" x="373.83" y="368.84" width="100" height="100"/><rect class="cls-2" x="488.83" y="368.84" width="100" height="100"/><rect class="cls-2" x="603.83" y="368.84" width="100" height="100"/><rect class="cls-2" x="718.83" y="368.84" width="100" height="100"/><rect class="cls-2" x="833.83" y="368.84" width="100" height="100"/><rect class="cls-2" x="948.83" y="368.84" width="100" height="100"/><rect class="cls-2" x="1063.83" y="368.84" width="100" height="100"/><rect class="cls-2" x="28.83" y="509.61" width="100" height="100"/><rect class="cls-2" x="143.83" y="509.61" width="100" height="100"/><rect class="cls-2" x="258.83" y="509.61" width="100" height="100"/><rect class="cls-2" x="373.83" y="509.61" width="100" height="100"/><rect class="cls-2" x="488.83" y="509.61" width="100" height="100"/><rect class="cls-2" x="603.83" y="509.61" width="100" height="100"/><rect class="cls-2" x="718.83" y="509.61" width="100" height="100"/><rect class="cls-2" x="833.83" y="509.61" width="100" height="100"/><rect class="cls-2" x="948.83" y="509.61" width="100" height="100"/><rect class="cls-2" x="1063.83" y="509.61" width="100" height="100"/><rect class="cls-2" x="28.83" y="650.38" width="100" height="100"/><rect class="cls-2" x="143.83" y="650.38" width="100" height="100"/><rect class="cls-2" x="258.83" y="650.38" width="100" height="100"/><rect class="cls-2" x="373.83" y="650.38" width="100" height="100"/><rect class="cls-2" x="488.83" y="650.38" width="100" height="100"/><rect class="cls-2" x="603.83" y="650.38" width="100" height="100"/><rect class="cls-2" x="718.83" y="650.38" width="100" height="100"/><rect class="cls-2" x="833.83" y="650.38" width="100" height="100"/><rect class="cls-2" x="948.83" y="650.38" width="100" height="100"/><rect class="cls-2" x="1063.83" y="650.38" width="100" height="100"/><rect class="cls-3" width="1190.55" height="841.89"/></g><g id="アイコン名"><text class="cls-4" transform="translate(72.83 213.41)">車</text><text class="cls-4" transform="translate(176.16 213.41)">自転車</text><text class="cls-4" transform="translate(285.5 213.41)">目覚まし</text><text class="cls-4" transform="translate(406.83 213.41)">ベッド</text><text class="cls-4" transform="translate(522.16 213.41)">お風呂</text><text class="cls-4" transform="translate(643.5 213.41)">食事</text><text class="cls-4" transform="translate(764.83 213.41)">靴</text><text class="cls-4" transform="translate(874.16 213.41)">洋服</text><text class="cls-4" transform="translate(977.5 213.41)">ゲーム機</text><text class="cls-4" transform="translate(1092.83 213.41)">ケータイ</text><text class="cls-4" transform="translate(71.69 351.9)">PC</text><text class="cls-4" transform="translate(176.16 351.9)">コップ</text><text class="cls-4" transform="translate(297.5 351.9)">お鍋</text><text class="cls-4" transform="translate(406.83 351.9)">テレビ</text><text class="cls-4" transform="translate(522.16 351.9)">メガネ</text><text class="cls-4" transform="translate(649.5 351.9)">上</text><text class="cls-4" transform="translate(764.83 351.9)">下</text><text class="cls-4" transform="translate(880.16 351.9)">右</text><text class="cls-4" transform="translate(995.5 351.9)">左</text><text class="cls-4" transform="translate(1110.83 351.9)">犬</text><text class="cls-4" transform="translate(72.83 492.39)">猫</text><text class="cls-4" transform="translate(176.16 492.39)">うさぎ</text><text class="cls-4" transform="translate(297.5 492.39)">くま</text><text class="cls-4" transform="translate(412.83 492.39)">ぶた</text><text class="cls-4" transform="translate(516 492.39)">YouTube</text><text class="cls-4" transform="translate(636.48 492.39)">Twitter</text><text class="cls-4" transform="translate(748.52 492.39)">Amazon</text><text class="cls-4" transform="translate(861.35 492.39)">facebook</text><text class="cls-4" transform="translate(989.5 492.39)">ご飯</text><text class="cls-4" transform="translate(1098.83 492.39)">ケーキ</text><text class="cls-4" transform="translate(60.83 630.89)">りんご</text><text class="cls-4" transform="translate(176.16 630.89)">アイス</text><text class="cls-4" transform="translate(297.5 630.89)">パン</text><text class="cls-4" transform="translate(412.83 630.89)">ピザ</text><text class="cls-4" transform="translate(516.16 630.89)">ドリンク</text><text class="cls-4" transform="translate(637.5 630.89)">ゴミ箱</text><text class="cls-4" transform="translate(758.83 630.89)">写真</text><text class="cls-4" transform="translate(874.16 630.89)">通知</text><text class="cls-4" transform="translate(983.5 630.89)">ハート</text><text class="cls-4" transform="translate(1090.19 630.89)">Bluetooth</text><text class="cls-4" transform="translate(57.78 773.38)">AirDrop</text><text class="cls-4" transform="translate(176.16 773.38)">コピー</text><text class="cls-4" transform="translate(273.5 773.38)">グッドボタン</text><text class="cls-4" transform="translate(388.83 773.38)">バットボタン</text><text class="cls-4" transform="translate(516.16 773.38)">シールド</text><text class="cls-4" transform="translate(619.5 773.38)">スケジュール</text><text class="cls-4" transform="translate(758.83 773.38)">電球</text><text class="cls-4" transform="translate(862.16 773.38)">ユーザー</text><text class="cls-4" transform="translate(977.5 773.38)">リプライ</text><text class="cls-4" transform="translate(1074.83 773.38)">おやすみモード</text></g><g id="レイヤー_3" data-name="レイヤー 3"><path class="cls-5" d="M64.6,714.42c14.07-13.24,28.11-26.52,42-40-15.43-14.69-39.25-15.19-53.87-.88-14.36,14.06-14.61,37.3-1,53Z"/><path class="cls-6" d="M108.51,676.58q-10.82,10.5-21.73,20.89c-11,10.44-22,20.8-33.08,31.19C69.18,742.8,92.57,743.12,107,729,121.15,715.14,121.57,692.33,108.51,676.58Z"/><path class="cls-5" d="M176.88,712.23c14.07-13.24,28.11-26.53,42-40-15.44-14.69-39.25-15.2-53.87-.88-14.36,14.06-14.62,37.29-1,53Z"/><path class="cls-6" d="M220.78,674.38q-10.8,10.51-21.73,20.9Q182.57,710.93,166,726.47c15.48,14.13,38.88,14.46,53.3.34C233.42,713,233.84,690.14,220.78,674.38Z"/><path class="cls-5" d="M293.44,712.23q21.12-19.86,42-40c-15.43-14.69-39.25-15.2-53.87-.88-14.36,14.06-14.61,37.29-1,53Z"/><path class="cls-6" d="M337.35,674.38q-10.82,10.51-21.73,20.9-16.49,15.65-33.08,31.19c15.48,14.13,38.87,14.46,53.29.34C350,713,350.41,690.14,337.35,674.38Z"/><path class="cls-5" d="M408.47,712.23q21.12-19.86,42-40c-15.43-14.69-39.25-15.2-53.87-.88-14.36,14.06-14.61,37.29-1,53Z"/><path class="cls-6" d="M452.38,674.38q-10.81,10.51-21.73,20.9-16.48,15.65-33.08,31.19c15.48,14.13,38.87,14.46,53.29.34C465,713,465.44,690.14,452.38,674.38Z"/><path class="cls-5" d="M520.4,714.85c14.08-13.24,28.12-26.53,42-40-15.44-14.69-39.26-15.2-53.87-.88-14.37,14.06-14.62,37.29-1,53Z"/><path class="cls-6" d="M564.31,677q-10.8,10.51-21.73,20.89-16.49,15.66-33.08,31.2c15.48,14.13,38.88,14.45,53.29.34C577,715.57,577.37,692.76,564.31,677Z"/><path class="cls-5" d="M636.33,712.68c14.07-13.24,28.11-26.52,42-40C662.85,658,639,657.49,624.42,671.8c-14.36,14.06-14.62,37.29-1,53Z"/><path class="cls-6" d="M680.23,674.84q-10.8,10.5-21.73,20.89c-11,10.44-22,20.8-33.08,31.19,15.48,14.14,38.88,14.46,53.3.34C692.87,713.4,693.29,690.59,680.23,674.84Z"/><path class="cls-5" d="M751.33,712.68c14.07-13.24,28.11-26.52,42-40C777.85,658,754,657.49,739.42,671.8c-14.36,14.06-14.62,37.29-1,53Z"/><path class="cls-6" d="M795.23,674.84q-10.8,10.5-21.73,20.89c-11,10.44-22,20.8-33.08,31.19,15.48,14.14,38.88,14.46,53.3.34C807.87,713.4,808.29,690.59,795.23,674.84Z"/><path class="cls-5" d="M868.66,712.68c14.07-13.24,28.11-26.52,42-40-15.43-14.69-39.25-15.19-53.87-.88-14.36,14.06-14.61,37.29-1,53Z"/><path class="cls-6" d="M912.57,674.84q-10.82,10.5-21.74,20.89c-11,10.44-22,20.8-33.08,31.19,15.49,14.14,38.88,14.46,53.3.34C925.21,713.4,925.63,690.59,912.57,674.84Z"/><path class="cls-5" d="M981.33,712.68c14.07-13.24,28.11-26.52,42-40-15.44-14.69-39.25-15.19-53.87-.88-14.36,14.06-14.62,37.29-1,53Z"/><path class="cls-6" d="M1025.23,674.84q-10.8,10.5-21.73,20.89c-11,10.44-22,20.8-33.08,31.19,15.48,14.14,38.88,14.46,53.3.34C1037.87,713.4,1038.29,690.59,1025.23,674.84Z"/><path class="cls-5" d="M1099.33,712.68c14.07-13.24,28.11-26.52,42-40-15.44-14.69-39.25-15.19-53.87-.88-14.36,14.06-14.62,37.29-1,53Z"/><path class="cls-6" d="M1143.23,674.84q-10.8,10.5-21.73,20.89c-11,10.44-22,20.8-33.08,31.19,15.48,14.14,38.88,14.46,53.3.34C1155.87,713.4,1156.29,690.59,1143.23,674.84Z"/><path class="cls-7" d="M64.6,573.65c14.07-13.24,28.11-26.52,42-40-15.43-14.69-39.25-15.19-53.87-.88-14.36,14.06-14.61,37.3-1,53Z"/><path class="cls-8" d="M108.51,535.81Q97.7,546.31,86.78,556.7,70.3,572.36,53.7,587.89c15.48,14.14,38.87,14.46,53.29.34C121.15,574.37,121.57,551.56,108.51,535.81Z"/><path class="cls-7" d="M176.88,571.46c14.07-13.24,28.11-26.53,42-40-15.44-14.69-39.25-15.19-53.87-.88-14.36,14.06-14.62,37.29-1,53Z"/><path class="cls-8" d="M220.78,533.61q-10.8,10.51-21.73,20.9Q182.57,570.16,166,585.7c15.48,14.14,38.88,14.46,53.3.34C233.42,572.18,233.84,549.37,220.78,533.61Z"/><path class="cls-7" d="M293.44,571.46q21.12-19.86,42-40c-15.43-14.69-39.25-15.19-53.87-.88-14.36,14.06-14.61,37.29-1,53Z"/><path class="cls-8" d="M337.35,533.61q-10.82,10.51-21.73,20.9-16.49,15.65-33.08,31.19c15.48,14.14,38.87,14.46,53.29.34C350,572.18,350.41,549.37,337.35,533.61Z"/><path class="cls-7" d="M408.47,571.46q21.12-19.86,42-40c-15.43-14.69-39.25-15.19-53.87-.88-14.36,14.06-14.61,37.29-1,53Z"/><path class="cls-8" d="M452.38,533.61q-10.81,10.51-21.73,20.9-16.48,15.65-33.08,31.19c15.48,14.14,38.87,14.46,53.29.34C465,572.18,465.44,549.37,452.38,533.61Z"/><path class="cls-7" d="M524.4,573.08c14.08-13.24,28.12-26.53,42-40-15.44-14.69-39.26-15.19-53.87-.88-14.37,14.06-14.62,37.29-1,53Z"/><path class="cls-8" d="M568.31,535.23q-10.8,10.51-21.73,20.9-16.49,15.64-33.08,31.19c15.48,14.13,38.88,14.46,53.29.34C581,573.8,581.37,551,568.31,535.23Z"/><path class="cls-7" d="M636.33,571.91c14.07-13.24,28.11-26.52,42-40-15.44-14.69-39.25-15.19-53.87-.88-14.36,14.06-14.62,37.3-1,53Q629.86,578,636.33,571.91Z"/><path class="cls-8" d="M680.23,534.07q-10.8,10.5-21.73,20.89Q642,570.62,625.42,586.15c15.48,14.14,38.88,14.46,53.3.34C692.87,572.63,693.29,549.82,680.23,534.07Z"/><path class="cls-7" d="M751.33,571.91c14.07-13.24,28.11-26.52,42-40-15.44-14.69-39.25-15.19-53.87-.88-14.36,14.06-14.62,37.3-1,53Q744.86,578,751.33,571.91Z"/><path class="cls-8" d="M795.23,534.07q-10.8,10.5-21.73,20.89Q757,570.62,740.42,586.15c15.48,14.14,38.88,14.46,53.3.34C807.87,572.63,808.29,549.82,795.23,534.07Z"/><path class="cls-7" d="M868.66,571.91c14.07-13.24,28.11-26.52,42-40-15.43-14.69-39.25-15.19-53.87-.88-14.36,14.06-14.61,37.3-1,53Z"/><path class="cls-8" d="M912.57,534.07q-10.82,10.5-21.74,20.89-16.47,15.66-33.08,31.19c15.49,14.14,38.88,14.46,53.3.34C925.21,572.63,925.63,549.82,912.57,534.07Z"/><path class="cls-7" d="M981.33,571.91c14.07-13.24,28.11-26.52,42-40-15.44-14.69-39.25-15.19-53.87-.88-14.36,14.06-14.62,37.3-1,53Q974.86,578,981.33,571.91Z"/><path class="cls-8" d="M1025.23,534.07q-10.8,10.5-21.73,20.89Q987,570.62,970.42,586.15c15.48,14.14,38.88,14.46,53.3.34C1037.87,572.63,1038.29,549.82,1025.23,534.07Z"/><path class="cls-7" d="M1099.33,571.91c14.07-13.24,28.11-26.52,42-40-15.44-14.69-39.25-15.19-53.87-.88-14.36,14.06-14.62,37.3-1,53Q1092.86,578,1099.33,571.91Z"/><path class="cls-8" d="M1143.23,534.07q-10.8,10.5-21.73,20.89-16.49,15.66-33.08,31.19c15.48,14.14,38.88,14.46,53.3.34C1155.87,572.63,1156.29,549.82,1143.23,534.07Z"/><path class="cls-9" d="M64.6,435c14.07-13.24,28.11-26.53,42-40-15.43-14.69-39.25-15.2-53.87-.88-14.36,14.06-14.61,37.29-1,53Z"/><path class="cls-8" d="M108.51,397.14Q97.7,407.66,86.78,418,70.3,433.69,53.7,449.22c15.48,14.14,38.87,14.46,53.29.35C121.15,435.7,121.57,412.9,108.51,397.14Z"/><path class="cls-9" d="M176.88,432.8c14.07-13.25,28.11-26.53,42-40-15.44-14.69-39.25-15.19-53.87-.88-14.36,14.06-14.62,37.3-1,53Z"/><path class="cls-8" d="M220.78,395q-10.8,10.5-21.73,20.89Q182.57,431.5,166,447c15.48,14.14,38.88,14.46,53.3.34C233.42,433.51,233.84,410.71,220.78,395Z"/><path class="cls-9" d="M293.44,432.8c14.08-13.25,28.11-26.53,42-40-15.43-14.69-39.25-15.19-53.87-.88-14.36,14.06-14.61,37.3-1,53Z"/><path class="cls-8" d="M337.35,395q-10.82,10.5-21.73,20.89Q299.14,431.5,282.54,447c15.48,14.14,38.87,14.46,53.29.34C350,433.51,350.41,410.71,337.35,395Z"/><path class="cls-9" d="M408.47,432.8c14.08-13.25,28.11-26.53,42-40-15.43-14.69-39.25-15.19-53.87-.88-14.36,14.06-14.61,37.3-1,53Z"/><path class="cls-8" d="M452.38,395q-10.81,10.5-21.73,20.89Q414.17,431.5,397.57,447c15.48,14.14,38.87,14.46,53.29.34C465,433.51,465.44,410.71,452.38,395Z"/><path class="cls-9" d="M524.4,434.41c14.08-13.24,28.12-26.52,42-40-15.44-14.69-39.26-15.19-53.87-.88-14.37,14.06-14.62,37.3-1,53Z"/><path class="cls-8" d="M568.31,396.57q-10.8,10.5-21.73,20.89-16.49,15.66-33.08,31.19c15.48,14.14,38.88,14.46,53.29.34C581,435.13,581.37,412.32,568.31,396.57Z"/><path class="cls-9" d="M636.33,433.25c14.07-13.25,28.11-26.53,42-40-15.44-14.69-39.25-15.2-53.87-.88-14.36,14.06-14.62,37.29-1,53Z"/><path class="cls-8" d="M680.23,395.4q-10.8,10.52-21.73,20.89Q642,432,625.42,447.48c15.48,14.14,38.88,14.46,53.3.35C692.87,434,693.29,411.16,680.23,395.4Z"/><path class="cls-9" d="M751.33,433.25c14.07-13.25,28.11-26.53,42-40-15.44-14.69-39.25-15.2-53.87-.88-14.36,14.06-14.62,37.29-1,53Z"/><path class="cls-8" d="M795.23,395.4q-10.8,10.52-21.73,20.89Q757,432,740.42,447.48c15.48,14.14,38.88,14.46,53.3.35C807.87,434,808.29,411.16,795.23,395.4Z"/><path class="cls-9" d="M868.66,433.25c14.07-13.25,28.11-26.53,42-40-15.43-14.69-39.25-15.2-53.87-.88-14.36,14.06-14.61,37.29-1,53Z"/><path class="cls-8" d="M912.57,395.4q-10.82,10.52-21.74,20.89Q874.36,432,857.75,447.48c15.49,14.14,38.88,14.46,53.3.35C925.21,434,925.63,411.16,912.57,395.4Z"/><path class="cls-9" d="M983.6,434.1c14.07-13.24,28.11-26.52,42-40-15.43-14.69-39.25-15.19-53.87-.88-14.36,14.06-14.61,37.3-1,53Z"/><path class="cls-8" d="M1027.51,396.26q-10.82,10.5-21.73,20.89-16.49,15.66-33.08,31.19c15.48,14.14,38.87,14.46,53.29.34C1040.15,434.82,1040.57,412,1027.51,396.26Z"/><path class="cls-9" d="M1099.33,433.25c14.07-13.25,28.11-26.53,42-40-15.44-14.69-39.25-15.2-53.87-.88-14.36,14.06-14.62,37.29-1,53Z"/><path class="cls-8" d="M1143.23,395.4q-10.8,10.52-21.73,20.89Q1105,432,1088.42,447.48c15.48,14.14,38.88,14.46,53.3.35C1155.87,434,1156.29,411.16,1143.23,395.4Z"/><path class="cls-10" d="M64.6,294c14.07-13.24,28.11-26.52,42-40-15.43-14.69-39.25-15.19-53.87-.88-14.36,14.06-14.61,37.29-1,53Z"/><path class="cls-6" d="M108.51,256.14Q97.7,266.64,86.78,277c-11,10.44-22,20.8-33.08,31.19,15.48,14.14,38.87,14.46,53.29.34C121.15,294.7,121.57,271.89,108.51,256.14Z"/><path class="cls-10" d="M176.88,291.79c14.07-13.24,28.11-26.53,42-40-15.44-14.69-39.25-15.2-53.87-.88-14.36,14.06-14.62,37.29-1,53Z"/><path class="cls-6" d="M220.78,253.94q-10.8,10.51-21.73,20.89Q182.57,290.49,166,306c15.48,14.13,38.88,14.46,53.3.34C233.42,292.51,233.84,269.7,220.78,253.94Z"/><path class="cls-10" d="M293.44,291.79q21.12-19.86,42-40c-15.43-14.69-39.25-15.2-53.87-.88-14.36,14.06-14.61,37.29-1,53Z"/><path class="cls-6" d="M337.35,253.94q-10.82,10.51-21.73,20.89-16.49,15.66-33.08,31.2c15.48,14.13,38.87,14.46,53.29.34C350,292.51,350.41,269.7,337.35,253.94Z"/><path class="cls-10" d="M408.47,291.79q21.12-19.86,42-40c-15.43-14.69-39.25-15.2-53.87-.88-14.36,14.06-14.61,37.29-1,53Z"/><path class="cls-6" d="M452.38,253.94q-10.81,10.51-21.73,20.89-16.48,15.66-33.08,31.2c15.48,14.13,38.87,14.46,53.29.34C465,292.51,465.44,269.7,452.38,253.94Z"/><path class="cls-10" d="M524.4,292.41c14.08-13.24,28.12-26.53,42-40-15.44-14.69-39.26-15.2-53.87-.88-14.37,14.06-14.62,37.29-1,53Z"/><path class="cls-6" d="M568.31,254.56q-10.8,10.51-21.73,20.89-16.49,15.66-33.08,31.19c15.48,14.14,38.88,14.46,53.29.35C581,293.12,581.37,270.32,568.31,254.56Z"/><path class="cls-10" d="M636.33,292.24c14.07-13.24,28.11-26.53,42-40-15.44-14.69-39.25-15.19-53.87-.88-14.36,14.06-14.62,37.29-1,53Z"/><path class="cls-6" d="M680.23,254.39q-10.8,10.51-21.73,20.9Q642,290.94,625.42,306.48c15.48,14.14,38.88,14.46,53.3.34C692.87,293,693.29,270.15,680.23,254.39Z"/><path class="cls-10" d="M751.33,292.24c14.07-13.24,28.11-26.53,42-40-15.44-14.69-39.25-15.19-53.87-.88-14.36,14.06-14.62,37.29-1,53Z"/><path class="cls-6" d="M795.23,254.39q-10.8,10.51-21.73,20.9Q757,290.94,740.42,306.48c15.48,14.14,38.88,14.46,53.3.34C807.87,293,808.29,270.15,795.23,254.39Z"/><path class="cls-10" d="M868.66,292.24c14.07-13.24,28.11-26.53,42-40-15.43-14.69-39.25-15.19-53.87-.88-14.36,14.06-14.61,37.29-1,53Z"/><path class="cls-6" d="M912.57,254.39q-10.82,10.51-21.74,20.9-16.47,15.65-33.08,31.19c15.49,14.14,38.88,14.46,53.3.34C925.21,293,925.63,270.15,912.57,254.39Z"/><path class="cls-10" d="M981.33,292.24c14.07-13.24,28.11-26.53,42-40-15.44-14.69-39.25-15.19-53.87-.88-14.36,14.06-14.62,37.29-1,53Z"/><path class="cls-6" d="M1025.23,254.39q-10.8,10.51-21.73,20.9Q987,290.94,970.42,306.48c15.48,14.14,38.88,14.46,53.3.34C1037.87,293,1038.29,270.15,1025.23,254.39Z"/><path class="cls-10" d="M1099.33,292.24c14.07-13.24,28.11-26.53,42-40-15.44-14.69-39.25-15.19-53.87-.88-14.36,14.06-14.62,37.29-1,53Z"/><path class="cls-6" d="M1143.23,254.39q-10.8,10.51-21.73,20.9-16.49,15.65-33.08,31.19c15.48,14.14,38.88,14.46,53.3.34C1155.87,293,1156.29,270.15,1143.23,254.39Z"/><path class="cls-11" d="M64.6,151.56c14.07-13.24,28.11-26.53,42-40-15.43-14.69-39.25-15.19-53.87-.88-14.36,14.06-14.61,37.29-1,53Z"/><path class="cls-12" d="M108.51,113.71q-10.82,10.52-21.73,20.9Q70.3,150.26,53.7,165.8c15.48,14.13,38.87,14.46,53.29.34C121.15,152.28,121.57,129.47,108.51,113.71Z"/><path class="cls-11" d="M176.88,149.37c14.07-13.24,28.11-26.53,42-40-15.44-14.69-39.25-15.2-53.87-.88-14.36,14.06-14.62,37.29-1,53Z"/><path class="cls-12" d="M220.78,111.52Q210,122,199.05,132.41,182.57,148.07,166,163.6c15.48,14.14,38.88,14.46,53.3.35C233.42,150.08,233.84,127.28,220.78,111.52Z"/><path class="cls-11" d="M293.44,149.37q21.12-19.86,42-40c-15.43-14.69-39.25-15.2-53.87-.88-14.36,14.06-14.61,37.29-1,53Z"/><path class="cls-12" d="M337.35,111.52Q326.53,122,315.62,132.41q-16.49,15.66-33.08,31.19c15.48,14.14,38.87,14.46,53.29.35C350,150.08,350.41,127.28,337.35,111.52Z"/><path class="cls-11" d="M408.47,149.37q21.12-19.86,42-40c-15.43-14.69-39.25-15.2-53.87-.88-14.36,14.06-14.61,37.29-1,53Z"/><path class="cls-12" d="M452.38,111.52Q441.57,122,430.65,132.41q-16.48,15.66-33.08,31.19c15.48,14.14,38.87,14.46,53.29.35C465,150.08,465.44,127.28,452.38,111.52Z"/><path class="cls-11" d="M524.4,150c14.08-13.25,28.12-26.53,42-40-15.44-14.69-39.26-15.2-53.87-.88-14.37,14.06-14.62,37.29-1,53Z"/><path class="cls-12" d="M568.31,112.14q-10.8,10.52-21.73,20.89-16.49,15.66-33.08,31.19c15.48,14.14,38.88,14.46,53.29.35C581,150.7,581.37,127.9,568.31,112.14Z"/><path class="cls-11" d="M636.33,149.82c14.07-13.24,28.11-26.53,42-40-15.44-14.69-39.25-15.2-53.87-.88-14.36,14.06-14.62,37.29-1,53Z"/><path class="cls-12" d="M680.23,112q-10.8,10.52-21.73,20.89-16.49,15.66-33.08,31.2c15.48,14.13,38.88,14.46,53.3.34C692.87,150.54,693.29,127.73,680.23,112Z"/><path class="cls-11" d="M751.33,149.82c14.07-13.24,28.11-26.53,42-40-15.44-14.69-39.25-15.2-53.87-.88-14.36,14.06-14.62,37.29-1,53Z"/><path class="cls-12" d="M795.23,112q-10.8,10.52-21.73,20.89-16.49,15.66-33.08,31.2c15.48,14.13,38.88,14.46,53.3.34C807.87,150.54,808.29,127.73,795.23,112Z"/><path class="cls-11" d="M868.66,149.82c14.07-13.24,28.11-26.53,42-40-15.43-14.69-39.25-15.2-53.87-.88-14.36,14.06-14.61,37.29-1,53Z"/><path class="cls-12" d="M912.57,112q-10.82,10.52-21.74,20.89-16.47,15.66-33.08,31.2c15.49,14.13,38.88,14.46,53.3.34C925.21,150.54,925.63,127.73,912.57,112Z"/><path class="cls-11" d="M981.33,149.82c14.07-13.24,28.11-26.53,42-40-15.44-14.69-39.25-15.2-53.87-.88-14.36,14.06-14.62,37.29-1,53Z"/><path class="cls-12" d="M1025.23,112q-10.8,10.52-21.73,20.89-16.49,15.66-33.08,31.2c15.48,14.13,38.88,14.46,53.3.34C1037.87,150.54,1038.29,127.73,1025.23,112Z"/><path class="cls-13" d="M294.79,123.91a32.72,32.72,0,0,1,4.77-4,6.73,6.73,0,1,0-7.42,7.23A18.66,18.66,0,0,1,294.79,123.91Z"/><path class="cls-13" d="M293.67,125.1a5.43,5.43,0,0,1-.82.08,4.74,4.74,0,1,1,4.73-4.73,4.57,4.57,0,0,1-.12,1,33.79,33.79,0,0,1,3.7-2.65,2,2,0,0,1,.26-.11A8.73,8.73,0,1,0,291.22,129,12.37,12.37,0,0,1,293.67,125.1Z"/><path class="cls-13" d="M328.5,126.6a6.73,6.73,0,1,0-9.28-7.6A22.09,22.09,0,0,1,328.5,126.6Z"/><path class="cls-13" d="M325.79,111.71a8.75,8.75,0,0,0-8.48,6.7,14.82,14.82,0,0,1,3.81,1.47,4.72,4.72,0,1,1,6.06,5.07,31.46,31.46,0,0,1,2.49,3.31,8.73,8.73,0,0,0-3.88-16.55Z"/><path class="cls-11" d="M1099.33,149.82c14.07-13.24,28.11-26.53,42-40-15.44-14.69-39.25-15.2-53.87-.88-14.36,14.06-14.62,37.29-1,53Z"/><path class="cls-12" d="M1143.23,112q-10.8,10.52-21.73,20.89-16.49,15.66-33.08,31.2c15.48,14.13,38.88,14.46,53.3.34C1155.87,150.54,1156.29,127.73,1143.23,112Z"/><line class="cls-13" x1="323.2" y1="154.06" x2="326.66" y2="158.34"/><path class="cls-13" d="M328.6,156.77l-3.46-4.28a2.54,2.54,0,0,0-1.12-.78,15.17,15.17,0,0,1-1,1.36,15.74,15.74,0,0,1-2.07,2,2.66,2.66,0,0,0,.33.56l3.47,4.28a2.47,2.47,0,0,0,1.94.92,2.49,2.49,0,0,0,1.94-4.07Z"/><path class="cls-13" d="M294.8,155.25l-3.09,3.7"/><path class="cls-13" d="M296.06,155.17a12.52,12.52,0,0,1-2.53-2.29l-3.74,4.46a2.52,2.52,0,0,0,.32,3.53,2.46,2.46,0,0,0,1.6.58,2.52,2.52,0,0,0,1.92-.9l3.8-4.54A12.53,12.53,0,0,1,296.06,155.17Z"/><circle class="cls-14" cx="309.5" cy="137.3" r="21.64" transform="translate(-29.08 135.29) rotate(-23.58)"/><polyline class="cls-15" points="309.5 124.06 309.5 137.31 320.46 137.31"/></g><g id="レイヤー_5" data-name="レイヤー 5"><path class="cls-13" d="M554.6,289.12c.86,5.46-1.91,10.25-5.91,11.6s-8.63-.7-11.13-5.19c-3.13-5.6-1.89-13.2,3.78-15.68C547.3,277.24,553.5,282.18,554.6,289.12Z"/><path class="cls-13" d="M525.23,283.24c.86,5.46-1.9,10.25-5.91,11.6s-8.62-.7-11.13-5.18c-3.13-5.61-1.89-13.21,3.78-15.69C517.93,271.36,524.13,276.3,525.23,283.24Z"/><line class="cls-16" x1="505.93" y1="278.56" x2="516.79" y2="297.11"/><line class="cls-17" x1="536.48" y1="287.04" x2="545.67" y2="301.87"/><polygon class="cls-18" points="652.55 258.22 663.16 268.16 673.77 278.11 652.55 278.11 631.34 278.11 641.94 268.16 652.55 258.22"/><rect class="cls-18" x="642.76" y="273.88" width="19.58" height="25.72"/><polygon class="cls-18" points="767.72 301.75 757.12 291.81 746.51 281.86 767.72 281.86 788.94 281.86 778.33 291.81 767.72 301.75"/><rect class="cls-18" x="757.93" y="260.37" width="19.58" height="25.72" transform="translate(1535.45 546.46) rotate(180)"/><polygon class="cls-18" points="907.22 280.06 897.28 290.67 887.33 301.28 887.33 280.06 887.33 258.85 897.28 269.45 907.22 280.06"/><rect class="cls-18" x="868.91" y="267.2" width="19.58" height="25.72" transform="translate(1158.77 -598.64) rotate(90)"/><polygon class="cls-18" points="974.14 280.06 984.09 269.45 994.03 258.85 994.03 280.06 994.03 301.28 984.09 290.67 974.14 280.06"/><rect class="cls-18" x="992.87" y="267.2" width="19.58" height="25.72" transform="translate(722.6 1282.73) rotate(-90)"/><path class="cls-18" d="M1138,280.74c3.14,11.32-5.22,20-22.36,20s-25.42-9.12-22.27-20.45c2.5-9,10.95-17.51,22.27-17.51S1135.52,271.72,1138,280.74Z"/><path class="cls-19" d="M976.64,427.68c.05.2.09.39.14.59,3.4,12.65,13.12,20.4,22.53,20.4s19.14-7.75,22.54-20.4c0-.2.09-.39.14-.59Z"/><rect class="cls-19" x="993.3" y="447.08" width="12.03" height="4.16"/></g><g id="レイヤー_4" data-name="レイヤー 4"><rect class="cls-20" x="743" y="536.73" width="49.31" height="44.96"/><polygon class="cls-21" points="101.48 137.06 59.16 137.06 65.33 119.03 96.22 119.03 101.48 137.06"/><rect class="cls-18" x="57.42" y="134.43" width="45.8" height="16.32"/><rect class="cls-18" x="94.9" y="148.71" width="5.1" height="9.53"/><rect class="cls-18" x="61.08" y="148.71" width="4.76" height="9.53"/><path class="cls-22" d="M100.34,140.22a3.76,3.76,0,1,1-3.76-3.73A3.75,3.75,0,0,1,100.34,140.22Z"/><ellipse class="cls-22" cx="64.49" cy="140.22" rx="3.76" ry="3.73"/><circle class="cls-15" cx="175.79" cy="144.25" r="9.82" transform="translate(-42.21 208.95) rotate(-55.9)"/><circle class="cls-23" cx="210.23" cy="144.25" r="9.82" transform="translate(21.54 315.72) rotate(-76.72)"/><path class="cls-15" d="M175.79,144.25s2.09-9.31,3.54-16.2c.49-2.32.91-4.37,1.15-5.69,1-5.27,3.49-8.65,11.67-8.65"/><polyline class="cls-15" points="210.24 144.25 205.88 128.05 179.34 128.05"/><path class="cls-13" d="M424.15,124.81c11.08,0,17.73,4.2,21.56,8.18V115.35a1.9,1.9,0,0,0-1.9-1.9H405.7a1.9,1.9,0,0,0-1.9,1.9v16.39C407.75,128.18,414.13,124.81,424.15,124.81Z"/><rect class="cls-24" x="416.03" y="122.7" width="17.45" height="6.26"/><path class="cls-13" d="M401,140.71a1.33,1.33,0,0,1-1.21-2c2.21-3.82,8.73-11.89,24.36-11.89,15.43,0,22.05,8.05,24.32,11.88a1.32,1.32,0,0,1-1.2,2Z"/><rect class="cls-25" x="399.81" y="143.87" width="48.7" height="5.35"/><rect class="cls-25" x="399.81" y="148.23" width="4.78" height="7.43"/><rect class="cls-25" x="443.72" y="148.23" width="4.78" height="7.43"/><polygon class="cls-25" points="557.87 153.94 526.94 153.94 521.57 153.94 515.48 133.86 564.85 133.86 557.87 153.94"/><line class="cls-26" x1="524.52" y1="158.9" x2="526.94" y2="153.94"/><line class="cls-26" x1="553.03" y1="153.94" x2="555.77" y2="159.05"/><path class="cls-15" d="M560.76,134.56v-12c0-5-2.22-8-7-8-4.2,0-6,4.64-6,4.64"/><path class="cls-13" d="M549.09,123.18a2.72,2.72,0,0,0,.66-1.23,2.69,2.69,0,1,0-5.21.06A13.76,13.76,0,0,1,549.09,123.18Z"/><path class="cls-13" d="M546,122.2a1.43,1.43,0,0,1-.24-1.18,1.46,1.46,0,1,1,2.85.66,1.48,1.48,0,0,1-.79,1,13.57,13.57,0,0,1,2.43,1.09,3.77,3.77,0,0,0,.74-1.53,3.91,3.91,0,0,0-7.62-1.75,4,4,0,0,0,0,1.5A14.09,14.09,0,0,1,546,122.2Z"/><path class="cls-27" d="M521.4,113.58s2.62.49,2.62,3.86-5.24,4.6-5.24,8.13a3.84,3.84,0,0,0,3.05,3.81"/><path class="cls-1" d="M424.28,126.49c-20.72,0-25.6,14.58-25.6,14.58h51.2S444.76,126.49,424.28,126.49Z"/><path class="cls-27" d="M528.67,113.58s2.62.49,2.62,3.86-5.24,4.6-5.24,8.13a3.84,3.84,0,0,0,3.05,3.81"/><path class="cls-27" d="M182.83,252.84s2.63.5,2.63,3.87-5.24,4.6-5.24,8.13a3.83,3.83,0,0,0,3,3.81"/><path class="cls-27" d="M197.57,252.84s2.62.5,2.62,3.87-5.24,4.6-5.24,8.13a3.83,3.83,0,0,0,3,3.81"/><path class="cls-27" d="M190.1,252.84s2.63.5,2.63,3.87-5.24,4.6-5.24,8.13a3.83,3.83,0,0,0,3,3.81"/><path class="cls-14" d="M633.2,117.81v11.43c0,4.4,2.15,6.59,5.92,6.59s5.91-1.89,5.91-5.75V117.81"/><line class="cls-14" x1="639.12" y1="127.2" x2="639.12" y2="117.81"/><path class="cls-13" d="M633.2,125.08H645s1.75,10.84-5.91,10.75-5.92-10.75-5.92-10.75"/><line class="cls-28" x1="636.15" y1="112.13" x2="636.15" y2="127.2"/><line class="cls-28" x1="642.08" y1="112.13" x2="642.08" y2="127.2"/><path class="cls-13" d="M641.93,148.13c.94,8.09.76,14.35-2.53,14.35s-3.25-5.48-2.53-14.35c.63-7.9,1.13-14.35,2.53-14.35S641,140.25,641.93,148.13Z"/><path class="cls-13" d="M668.14,148.13c1,8.09.76,14.35-2.53,14.35s-3.25-5.48-2.53-14.35c.64-7.9,1.13-14.35,2.53-14.35S667.23,140.25,668.14,148.13Z"/><path class="cls-13" d="M673,126.36c.64,6.17,0,11.23-7.27,11.23s-8.15-5.09-7.26-11.23c1-7.21,3.25-11.23,7.26-11.23S672.23,119.15,673,126.36Z"/><path class="cls-13" d="M795.49,141.25c-.14-2-2.17-6.89-2.64-9.1s.45-5.62-.6-6.32-6.9.94-11.87-.47c-3.25-.92-5.82-5.23-7.22-5.58s-6.83-.1-9.15,1.41a6.39,6.39,0,0,0-.66.5,12.89,12.89,0,0,1,1.92,1.37,32.66,32.66,0,0,1,3.93,4.21.89.89,0,0,1,0,1.25.88.88,0,0,1-1.25,0,36.9,36.9,0,0,0-3.64-4A10.15,10.15,0,0,0,762,123c-1.47,1.55-3,3.49-3.53,4a4.81,4.81,0,0,1-.83.63,32.78,32.78,0,0,1,3.17,4.08.9.9,0,0,1-.31,1.21.91.91,0,0,1-1.22-.31,30.29,30.29,0,0,0-3.26-4.14,42.31,42.31,0,0,1-5.84,2.06c.19.19.38.36.56.55a10.85,10.85,0,0,1,2,2.89.91.91,0,0,1-.31,1.21.89.89,0,0,1-1.21-.31,8,8,0,0,0-.77-1.37l-.24-.34-.08-.1a1.08,1.08,0,0,0-.08-.11c-.17-.21-.35-.41-.52-.61-.37-.41-.76-.79-1.16-1.16l-.15-.14c-.67.16-1.32.3-1.94.42-2.7.48-7.4,1.58-8.85,6.13a19.62,19.62,0,0,0-1,7.42,17.44,17.44,0,0,0,.18,2.19h58.86A37.06,37.06,0,0,0,795.49,141.25Z"/><path class="cls-13" d="M736.82,148.5c.24,1.17.54,2.08.84,2.11h57.25a13.85,13.85,0,0,0,.42-2.11Z"/><path class="cls-13" d="M909.82,120.9l-16.34-1.39a10.38,10.38,0,0,1-.4,1.31c0,.12-.09.23-.14.35l-.12.29c-.06.11-.11.22-.17.34l-.14.27-.19.33-.17.27-.2.3-.2.27c-.07.09-.14.19-.22.28l-.24.27-.22.24-.36.34-.14.13c-.18.16-.36.3-.55.44l-.16.11c-.15.1-.29.2-.45.29l-.2.12c-.15.08-.29.16-.45.23l-.23.11-.47.19a2.34,2.34,0,0,1-.24.09l-.51.16-.24.07a5.78,5.78,0,0,1-.57.12l-.23,0-.67.08-.17,0a8.7,8.7,0,0,1-.89,0h0c-.3,0-.6,0-.88,0l-.28,0-.56-.07-.32-.06-.48-.11-.32-.08-.43-.14-.32-.11-.39-.16-.3-.14-.36-.19-.29-.16-.33-.22-.27-.18-.32-.26a6,6,0,0,1-.46-.4l-.25-.24-.26-.28c-.07-.08-.14-.15-.2-.23a3.65,3.65,0,0,1-.24-.31l-.18-.23-.22-.33-.15-.25-.2-.34-.14-.26-.17-.35c0-.09-.08-.19-.11-.28a2.75,2.75,0,0,1-.15-.36,9.9,9.9,0,0,1-.4-1.31l-16.28,1.39v11.15l10,1.07v25.46h30v-25.4l10.59-1.13Z"/><ellipse class="cls-13" cx="1013.99" cy="139.04" rx="10.78" ry="16.53" transform="translate(-3.86 246.23) rotate(-13.82)"/><ellipse class="cls-13" cx="979.72" cy="139.04" rx="16.53" ry="10.78" transform="translate(575.54 1042.27) rotate(-73.97)"/><rect class="cls-13" x="981.68" y="126.86" width="32.31" height="20.35"/><ellipse class="cls-29" cx="1013.91" cy="134.64" rx="1.91" ry="1.83"/><ellipse class="cls-29" cx="1013.91" cy="143.25" rx="1.91" ry="1.83"/><ellipse class="cls-29" cx="1009.03" cy="138.88" rx="1.91" ry="1.83"/><ellipse class="cls-29" cx="1018.72" cy="138.88" rx="1.91" ry="1.83"/><rect class="cls-30" x="974.84" y="136.84" width="11.05" height="3.39"/><rect class="cls-30" x="974.84" y="136.84" width="11.05" height="3.39" transform="translate(1118.89 -841.83) rotate(90)"/><rect class="cls-31" x="1099.42" y="114.07" width="30.31" height="47.91"/><rect class="cls-32" x="1099.42" y="155.72" width="30.31" height="6.25"/><circle class="cls-29" cx="1114.57" cy="159.19" r="2.55"/><path class="cls-33" d="M998.89,129.61s-7.56-7.58-5.21-11.17c2.59-4,10.3,1.51,12.4-3.32,1.77-4.08-8.35-7.84-8.35-7.84"/><rect class="cls-14" x="62.98" y="257.95" width="34.42" height="25.69"/><polygon class="cls-34" points="105.5 301.95 54.96 301.95 61.98 283.63 98.61 283.63 105.5 301.95"/><path class="cls-35" d="M64.15,287.56"/><polygon class="cls-36" points="99.97 298.27 60.04 298.27 64.15 286.57 96.58 286.57 99.97 298.27"/><line class="cls-37" x1="62.2" y1="289.28" x2="98.18" y2="289.28"/><line class="cls-37" x1="60.04" y1="294.04" x2="99.97" y2="294.04"/><line class="cls-37" x1="80.23" y1="285.55" x2="80.23" y2="301.16"/><line class="cls-37" x1="86.12" y1="285.37" x2="87.48" y2="299.54"/><line class="cls-37" x1="91.4" y1="285.26" x2="94.9" y2="299.95"/><line class="cls-37" x1="74.43" y1="284.95" x2="73.07" y2="299.12"/><line class="cls-37" x1="68.85" y1="284.54" x2="65.35" y2="299.23"/><path class="cls-38" d="M207.73,281.39c0,12,.05,20.56-18.38,20.56-16.26,0-18.39-8.6-18.39-20.56s8.24-9.26,18.39-9.26S207.73,269.43,207.73,281.39Z"/><path class="cls-14" d="M205.3,277.81s12.07-1.68,12.07,7.43c0,9.64-12.07,7.72-12.07,7.72"/><ellipse class="cls-39" cx="189.28" cy="274.11" rx="13.9" ry="1.9"/><rect class="cls-18" x="290.41" y="275.34" width="36.98" height="24.46"/><path class="cls-18" d="M327.38,269.09h0c0-3.25-8.28-5.89-18.49-5.89s-18.49,2.64-18.49,5.89h37Z"/><circle class="cls-18" cx="308.9" cy="257.42" r="1.08"/><polyline class="cls-14" points="332.92 280.97 332.92 275.1 337.85 271.57"/><polyline class="cls-14" points="284.74 281.6 284.74 275.73 279.82 272.2"/><rect class="cls-15" x="401.63" y="258.93" width="46.35" height="27.95"/><rect class="cls-40" x="418.65" y="286.88" width="12.42" height="5.66"/><rect class="cls-40" x="398.5" y="294.44" width="52.67" height="4.16"/><path class="cls-13" d="M444.9,259.29l-.72.09a2,2,0,0,1-.73-.06L414.91,286l.28.3c3.22,0,6.43.06,9.65,0l22.59-21.12v-4.71l-1.11-1.18Z"/><path class="cls-33" d="M554.6,289.12c.86,5.46-1.91,10.25-5.91,11.6s-8.63-.7-11.13-5.19c-3.13-5.6-1.89-13.2,3.78-15.68C547.3,277.24,553.5,282.18,554.6,289.12Z"/><path class="cls-33" d="M525.23,283.24c.86,5.46-1.9,10.25-5.91,11.6s-8.62-.7-11.13-5.18c-3.13-5.61-1.89-13.21,3.78-15.69C517.93,271.36,524.13,276.3,525.23,283.24Z"/><path class="cls-41" d="M554.68,287.84s10.48-13.14,11.48-14.23c3.26-3.58,5.38-3.46,6.39-2.83"/><path class="cls-41" d="M512,274s9.72-9.85,10.87-10.86c3.75-3.3,6.27-3,7.48-2.36"/><path class="cls-41" d="M524.77,286.54a5,5,0,0,1,4.33-1.85c4,.28,6.13,2.65,6.78,4.51"/><circle class="cls-42" cx="1126.29" cy="290.09" r="1.4"/><circle class="cls-42" cx="1105.13" cy="289.6" r="1.4"/><path class="cls-43" d="M1141.8,284.77c-.55,1.51-2.41.75-3.34-1.37l-3.92-8.91-3.91-8.9c-.2-.45-2.48,1-2.54.61-.22-1.5,2.61-4.48,3.78-4l6.25,2.56,6.25,2.57a4.48,4.48,0,0,1,2.1,4.76l-2.33,6.34Z"/><ellipse class="cls-42" cx="1115.46" cy="297.62" rx="8.33" ry="5.13"/><polygon class="cls-38" points="1117.11 295.21 1115.46 295.21 1113.8 295.21 1114.63 296.16 1115.46 297.11 1116.29 296.16 1117.11 295.21"/><path class="cls-44" d="M1115.46,296.87a4.93,4.93,0,0,0,.25,2.17,1.72,1.72,0,0,0,1.43.85,2.67,2.67,0,0,0,1.69-.34"/><path class="cls-44" d="M1115.41,296.87a4.93,4.93,0,0,1-.25,2.17,1.72,1.72,0,0,1-1.43.85,2.67,2.67,0,0,1-1.69-.34"/><path class="cls-18" d="M102.66,425.08c3.09,11.12-5.13,19.68-22,19.68s-25-9-21.88-20.09c2.46-8.86,10.76-17.2,21.88-17.2S100.2,416.22,102.66,425.08Z"/><circle class="cls-45" cx="90.61" cy="434.02" r="1.37"/><circle class="cls-45" cx="69.82" cy="433.54" r="1.37"/><polygon class="cls-18" points="101.88 420.64 96.42 415.01 90.96 409.38 97.88 408.13 104.8 406.88 103.34 413.76 101.88 420.64"/><path class="cls-46" d="M1088.84,284.77c.56,1.51,2.41.75,3.35-1.37l3.91-8.91,3.92-8.9c.2-.45,2.48,1,2.54.61.22-1.5-2.62-4.48-3.78-4l-6.25,2.56-6.25,2.57a4.46,4.46,0,0,0-2.1,4.76l2.33,6.34Z"/><polygon class="cls-18" points="59.42 420.64 64.88 415.01 70.34 409.38 63.42 408.13 56.5 406.88 57.96 413.76 59.42 420.64"/><path class="cls-18" d="M80.74,405.28"/><polygon class="cls-47" points="60.64 417.32 63.78 414.08 66.93 410.84 62.95 410.12 58.96 409.4 59.8 413.36 60.64 417.32"/><polygon class="cls-48" points="100.16 417.32 97.02 414.08 93.88 410.84 97.86 410.12 101.84 409.4 101 413.36 100.16 417.32"/><polygon class="cls-48" points="81.86 437.44 80.23 437.44 78.6 437.44 79.42 438.37 80.23 439.31 81.05 438.37 81.86 437.44"/><path class="cls-49" d="M80.24,439.07a4.74,4.74,0,0,0,.24,2.14,1.71,1.71,0,0,0,1.4.83"/><path class="cls-49" d="M80.19,439.07a4.8,4.8,0,0,1-.25,2.14,1.7,1.7,0,0,1-1.4.83"/><line class="cls-49" x1="96.12" y1="437.8" x2="100.27" y2="436.87"/><line class="cls-49" x1="96.07" y1="439.48" x2="100.32" y2="439.88"/><line class="cls-49" x1="65.5" y1="437.8" x2="61.35" y2="436.87"/><line class="cls-49" x1="65.55" y1="439.48" x2="61.3" y2="439.88"/><line class="cls-50" x1="80.74" y1="405.28" x2="80.74" y2="414.14"/><line class="cls-50" x1="73.65" y1="405.28" x2="73.65" y2="412.28"/><line class="cls-50" x1="87.79" y1="405.28" x2="87.79" y2="412.28"/><path class="cls-18" d="M211.33,430.86C214,440,207,447,192.71,447s-21.17-7.37-18.55-16.52a19.59,19.59,0,0,1,18.55-14.14C202.13,416.38,209.24,423.57,211.33,430.86Z"/><circle class="cls-45" cx="200.66" cy="438.01" r="1.1"/><circle class="cls-45" cx="184.02" cy="437.63" r="1.1"/><polygon class="cls-48" points="193.66 440.75 192.36 440.75 191.05 440.75 191.71 441.49 192.36 442.24 193.01 441.49 193.66 440.75"/><path class="cls-49" d="M192.36,442.05a3.87,3.87,0,0,0,.2,1.71,1.35,1.35,0,0,0,1.12.67"/><path class="cls-49" d="M192.32,442.05a3.87,3.87,0,0,1-.2,1.71,1.35,1.35,0,0,1-1.12.67"/><path class="cls-18" d="M331.48,423.89c3.09,11.12-5.13,19.67-22,19.67s-25-9-21.88-20.08c2.46-8.87,10.76-17.2,21.88-17.2S329,415,331.48,423.89Z"/><line class="cls-49" x1="205.07" y1="441.03" x2="208.39" y2="440.29"/><line class="cls-49" x1="205.03" y1="442.38" x2="208.43" y2="442.7"/><line class="cls-49" x1="180.56" y1="441.03" x2="177.24" y2="440.29"/><line class="cls-49" x1="180.6" y1="442.38" x2="177.2" y2="442.7"/><path class="cls-13" d="M652.28,414.49s6.37-.43,10.27-2.64,6.2-3.31,10-7.55c0,0,4.93,5.69-2.8,13,0,0,1.48.76,4.35-.68a9.24,9.24,0,0,1-7.58,9.34,11.3,11.3,0,0,0,3.82.93s-1.27,5.35-8.57,6.54c0,0,3,5,13.58,4.33a24.43,24.43,0,0,1-16.13,4.33c-9.34-.93-18.59-3.37-24.28-15.37a30.52,30.52,0,0,1-3-14.77s-4.16-3.65-4.92-4.5a19.85,19.85,0,0,0,5.35.85s-3.13-3.25-4-5.1a20.07,20.07,0,0,0,5.94,1.87s4.14-4.79,9.68-3a11.51,11.51,0,0,1,6.52,5A15,15,0,0,1,652.28,414.49Z"/><path class="cls-13" d="M738.76,433.66c4.82,1.71,9.44,3.2,14,4.37A62.55,62.55,0,0,0,766.47,440,50,50,0,0,0,780,438.31a81.59,81.59,0,0,0,13.66-5l.06,0a.2.2,0,0,1,.26.1.17.17,0,0,1,0,.22,41.42,41.42,0,0,1-12.81,7.7A39.62,39.62,0,0,1,766.4,444,45.17,45.17,0,0,1,751.71,441,52.7,52.7,0,0,1,738.52,434a.18.18,0,0,1,0-.27.21.21,0,0,1,.22-.07Z"/><path class="cls-13" d="M788.46,430.32a29.72,29.72,0,0,1,4.64-.76c1.55-.15,3.1-.22,4.65-.24a1,1,0,0,1,1,1,1.13,1.13,0,0,1,0,.32v0c-.27.78-.55,1.56-.85,2.33s-.62,1.54-1,2.3-.7,1.51-1.09,2.25a24,24,0,0,1-1.29,2.18,23,23,0,0,1,.34-2.51c.16-.82.33-1.64.54-2.44s.44-1.61.66-2.41.51-1.58.79-2.36l.94,1.33q-2.32,0-4.65-.24A29.72,29.72,0,0,1,788.46,430.32Z"/><text class="cls-51" transform="translate(750.68 430.32)">a</text><rect class="cls-13" x="862.24" y="399.06" width="45.08" height="45.08" rx="1.56"/><path class="cls-52" d="M894.64,422v22.16h-6.18V422h-3.37v-5.44h3.37v-2.82c0-4.92,3.37-7,6.93-7h3.55v5.85h-2a2.08,2.08,0,0,0-2.29,2.31v1.69h4.3V422Z"/><text/><text/><path class="cls-19" d="M1019.75,424.8a2.51,2.51,0,0,0,.27-1.16,3,3,0,0,0-2.65-2.83s0-.08,0-.12a3,3,0,0,0-3.16-2.88,3,3,0,0,0-3.16-2.88,3.71,3.71,0,0,0-.67.07s0,0,0-.07a3,3,0,0,0-3.16-2.87,3.26,3.26,0,0,1-3.78-1.33,3.33,3.33,0,0,0-1.62.42,3.27,3.27,0,0,0-2.53-1.16h0a3.26,3.26,0,0,0-2.52,1.16,3.39,3.39,0,0,0-1.62-.42,3.21,3.21,0,0,0-2.76,1.5,3.12,3.12,0,0,0-1-.17,3,3,0,0,0-3.16,2.87.15.15,0,0,0,0,.07,3.71,3.71,0,0,0-.67-.07,3,3,0,0,0-3.16,2.88,3,3,0,0,0-3.16,2.88s0,.08,0,.12a3,3,0,0,0-2.65,2.83,2.64,2.64,0,0,0,.27,1.16Z"/><path class="cls-27" d="M992.15,390.65s2.55.48,2.55,3.78-5.09,4.51-5.09,8a3.75,3.75,0,0,0,3,3.74"/><path class="cls-27" d="M1006.47,390.65s2.55.48,2.55,3.78-5.1,4.51-5.1,8a3.75,3.75,0,0,0,3,3.74"/><path class="cls-27" d="M999.22,390.65s2.55.48,2.55,3.78-5.1,4.51-5.1,8a3.75,3.75,0,0,0,3,3.74"/><rect class="cls-20" x="1095.14" y="414.4" width="40.66" height="30.98"/><path class="cls-13" d="M1135.26,409.79h-39.59a4.28,4.28,0,0,0-4.27,4.27v14.05a4.49,4.49,0,0,0,.08.83,8.87,8.87,0,0,0,1,0,6,6,0,0,0,5.67-4,6.39,6.39,0,0,0,11.84-.5,6.46,6.46,0,0,0,11.08,1.89,6.14,6.14,0,0,0,1-1.53h0a6.47,6.47,0,0,0,11.13.44,2.31,2.31,0,0,1,.14-.19,6,6,0,0,0,5.77,3.65h.29a4.78,4.78,0,0,0,.07-.65V414.06A4.28,4.28,0,0,0,1135.26,409.79Z"/><line class="cls-15" x1="1103.03" y1="399.81" x2="1103.03" y2="415.7"/><path class="cls-53" d="M1104.65,395.49c0,1.33-.73,1.78-1.62,1.78a1.58,1.58,0,0,1-1.62-1.78c0-1,1.71-3.32,1.71-3.32S1104.65,394.5,1104.65,395.49Z"/><line class="cls-15" x1="1115.47" y1="399.51" x2="1115.47" y2="415.41"/><path class="cls-53" d="M1117.09,395.19c0,1.33-.73,1.79-1.62,1.79a1.57,1.57,0,0,1-1.62-1.79c0-1,1.71-3.31,1.71-3.31S1117.09,394.21,1117.09,395.19Z"/><line class="cls-15" x1="1127.82" y1="399.51" x2="1127.82" y2="415.41"/><path class="cls-53" d="M1129.44,395.19c0,1.33-.73,1.79-1.62,1.79a1.58,1.58,0,0,1-1.62-1.79c0-1,1.71-3.31,1.71-3.31S1129.44,394.21,1129.44,395.19Z"/><circle class="cls-45" cx="318.93" cy="432.39" r="1.37"/><circle class="cls-45" cx="298.14" cy="431.91" r="1.37"/><ellipse class="cls-18" cx="325.87" cy="409.11" rx="6.69" ry="6.37"/><ellipse class="cls-18" cx="291.64" cy="409.11" rx="6.69" ry="6.37"/><ellipse class="cls-54" cx="291.6" cy="409.09" rx="2.59" ry="2.74" transform="translate(-125.87 688.55) rotate(-88.32)"/><path class="cls-54" d="M291.48,413.17a3.6,3.6,0,0,0,.66-.05,30.57,30.57,0,0,1,3.67-3.7,1.49,1.49,0,0,0,0-.21,4.23,4.23,0,1,0-4.35,4Zm.15-5.17a1.09,1.09,0,1,1-.06,2.17,1.1,1.1,0,1,1,.06-2.17Z"/><ellipse class="cls-52" cx="326.49" cy="408.86" rx="2.74" ry="2.59" transform="translate(-11.86 9.76) rotate(-1.68)"/><path class="cls-52" d="M330.73,408.74a4.24,4.24,0,0,0-8.47.25c0,.07,0,.14,0,.2A31.4,31.4,0,0,1,326,412.9a3.67,3.67,0,0,0,.66.05A4.18,4.18,0,0,0,330.73,408.74Zm-3,.09a1.25,1.25,0,1,1-1.27-1.05A1.16,1.16,0,0,1,327.73,408.83Z"/><ellipse class="cls-45" cx="308.9" cy="439.66" rx="8.33" ry="5.13"/><polygon class="cls-38" points="310.56 437.25 308.9 437.25 307.24 437.25 308.07 438.2 308.9 439.15 309.73 438.2 310.56 437.25"/><path class="cls-44" d="M308.9,438.91a4.84,4.84,0,0,0,.26,2.17,1.69,1.69,0,0,0,1.42.85,2.66,2.66,0,0,0,1.69-.34"/><path class="cls-44" d="M308.85,438.91a4.78,4.78,0,0,1-.25,2.17,1.69,1.69,0,0,1-1.42.85,2.66,2.66,0,0,1-1.69-.34"/><path class="cls-18" d="M447.08,421.51c3.15,11.32-5.22,20-22.35,20s-25.42-9.13-22.28-20.45c2.51-9,11-17.51,22.28-17.51S444.58,412.48,447.08,421.51Z"/><path class="cls-55" d="M447.82,418c-.41,1-1.65.53-2.24-.8l-2.46-5.59-2.46-5.6c-.12-.28-1.7.71-1.73.45-.12-.95,1.87-2.92,2.66-2.64l4.18,1.5,4.18,1.5a2.6,2.6,0,0,1,1.32,3l-1.72,4.09Z"/><path class="cls-56" d="M401.47,417.28c.37.91,1.53.49,2.08-.76l2.32-5.26,2.31-5.26c.12-.27,1.59.65,1.62.41.11-.9-1.74-2.73-2.47-2.47l-3.9,1.43-3.9,1.42a2.48,2.48,0,0,0-1.23,2.82l1.58,3.83Z"/><circle class="cls-45" cx="434.65" cy="431.32" r="0.78"/><circle class="cls-45" cx="413.85" cy="430.83" r="0.8"/><path class="cls-45" d="M429.68,437c.42,2.08-2,2.71-5.2,2.71s-5.81-1.07-5.2-3.06a5.62,5.62,0,0,1,5.2-3.56A5.48,5.48,0,0,1,429.68,437Z"/><line class="cls-34" x1="422.29" y1="435.98" x2="422.29" y2="437.67"/><line class="cls-34" x1="426.51" y1="435.98" x2="426.51" y2="437.67"/><rect class="cls-57" x="748.92" y="542.75" width="37.36" height="24.48"/><path class="cls-58" d="M764.35,566s7.62-17.31,11.11-17.31,10.84,17,10.84,17Z"/><path class="cls-13" d="M766.83,566.71c-2.46-5-6.1-11.49-8.24-11.49s-5.81,6.46-8.35,11.49Z"/><path class="cls-13" d="M749.71,566.71h1.63c3.11-6.08,6.08-10.49,7.25-10.49s4.1,4.42,7.14,10.49H768c-2.75-5.68-6.63-12.49-9.39-12.49-2.56,0-6.13,5.85-8.9,11.28a1.11,1.11,0,0,1,0,.19Z"/><ellipse class="cls-58" cx="756.4" cy="548.85" rx="1.71" ry="1.75"/><line class="cls-15" x1="749.22" y1="573.95" x2="762.22" y2="573.95"/><circle class="cls-15" cx="767.18" cy="573.93" r="0.17"/><path class="cls-59" d="M879.26,579.46a5.28,5.28,0,0,0,10.47,0Z"/><ellipse class="cls-59" cx="884.72" cy="533.72" rx="1.48" ry="1.43"/><path class="cls-13" d="M902.71,564.55a17.05,17.05,0,0,1-1.56-6.2l0-.74c-.35-6.14-1.26-22.42-15.49-22.55H884c-14.29.13-15.16,16.27-15.48,22.37l-.05.92h0a17.26,17.26,0,0,1-1.56,6.2Z"/><path class="cls-13" d="M905.64,568.69a10.29,10.29,0,0,1-1.5-1.69H865.43a10.78,10.78,0,0,1-1.5,1.69c-2.17,1.93-2,5.14-1.95,5.5l.1,1.39,22.7-.09,22.7.09.11-1.39C907.62,573.83,907.8,570.62,905.64,568.69Z"/><path class="cls-13" d="M1020.2,542.7c-5.77-5.37-14.66-4.67-20.11,1.06l-1.85,1.94a.08.08,0,0,1-.11,0l-2.25-2.36a13.92,13.92,0,0,0-21,.68c-5.12,6.05-4.45,15.39,1,21.11l21.4,22.48a1.19,1.19,0,0,0,1.73,0l21.79-22.89A15.64,15.64,0,0,0,1020.2,542.7Zm-10.56,22.65-11,11.7a.58.58,0,0,1-.87,0L987,565.56a8.32,8.32,0,0,1-.51-10.79,7,7,0,0,1,10.56-.35l1.13,1.21h0l.94-1a7.1,7.1,0,0,1,10.12-.55A8.09,8.09,0,0,1,1009.64,565.35Z"/><path class="cls-60" d="M322,689.89a2.1,2.1,0,0,0-.19-.85c-.82-1.78-4.14-9-6.15-13.44-2.22-4.84-7.87-4.8-7.46,1.45.43,6.55.9,11.71.9,11.71l-23.61-.27c-1.43,0-1.46.93-1.23,2.78l6.09,27.23c.26.9,1.76,1,2.7,1l27.15.48a2.15,2.15,0,0,0,2.17-2.17Z"/><rect class="cls-25" x="326.78" y="690.3" width="3.06" height="28.31"/><path class="cls-60" d="M436.63,709.34a2.11,2.11,0,0,1-.19.86c-.82,1.78-4.14,9-6.15,13.44-2.22,4.84-7.87,4.79-7.46-1.46.43-6.54.9-11.7.9-11.7l-23.61.26c-1.43,0-1.46-.92-1.22-2.77L405,680.73c.26-.89,1.77-.94,2.7-1l27.15-.47a2.14,2.14,0,0,1,2.17,2.16Z"/><rect class="cls-25" x="441.37" y="680.62" width="3.06" height="28.31"/><path class="cls-13" d="M666.14,719.53h-32v-38h34.7v35.3l3.81-3.78.19-.24V679.54a2,2,0,0,0-2-2h-38.7a2,2,0,0,0-2,2v42a2,2,0,0,0,2,2h31.33C664.79,722.2,664.8,720.86,666.14,719.53Z"/><line class="cls-14" x1="639.29" y1="688.2" x2="663.53" y2="688.2"/><line class="cls-14" x1="639.36" y1="696.26" x2="663.6" y2="696.26"/><line class="cls-14" x1="639.36" y1="704.21" x2="655.46" y2="704.21"/><line class="cls-14" x1="639.36" y1="712.11" x2="648.42" y2="712.11"/><polyline class="cls-61" points="655.24 710.29 664.7 720.4 679.85 704.55"/></g><g id="レイヤー_6" data-name="レイヤー 6"><path class="cls-18" d="M180.6,420.49a106.71,106.71,0,0,1-5.72-12.75c-1.58-4.88-4-11.93-.47-13.15,4.17-1.42,5.42,6.61,6.62,12,1.49,6.74,2.65,12.57,2.65,12.57Z"/><path class="cls-18" d="M204.65,420.49a106.71,106.71,0,0,0,5.72-12.75c1.58-4.88,4-11.93.47-13.15-4.17-1.42-5.42,6.61-6.62,12-1.49,6.74-2.65,12.57-2.65,12.57Z"/><path class="cls-62" d="M180.54,416.5s-1.36-2.82-2.47-5.82c-.84-2.29-2.06-6-1-6.42s2.1,2.64,2.76,5.36c.55,2.23,1.34,6.53,1.34,6.53Z"/><path class="cls-45" d="M204.27,416.5s1.36-2.82,2.47-5.82c.84-2.29,2.06-6,1-6.42s-2.1,2.64-2.76,5.36c-.55,2.23-1.34,6.53-1.34,6.53Z"/><rect class="cls-18" x="514.25" y="407.63" width="51.83" height="30.57" rx="7.54"/><polygon class="cls-63" points="549.02 422.72 542.04 426.75 535.06 430.77 535.06 422.72 535.06 414.66 542.04 418.69 549.02 422.72"/><path class="cls-18" d="M99.14,572.79C96,580.61,87.78,585.26,80,585.26s-15.92-4.65-19.1-12.47c-5.25-13.08,2.54-26.66,19.1-26.66S104.64,559.56,99.14,572.79Z"/><path class="cls-64" d="M74.13,550.29a9.1,9.1,0,0,0,6.43,2.47c4.12,0,6-2.09,6-2.09"/><line class="cls-64" x1="80.99" y1="537.28" x2="80.56" y2="552.76"/><path class="cls-38" d="M97.4,537.28a11.62,11.62,0,0,1-6.21,3.58,11.68,11.68,0,0,1-7-1.44,11.67,11.67,0,0,1,6.22-3.58A11.66,11.66,0,0,1,97.4,537.28Z"/><path class="cls-65" d="M175.39,555a.84.84,0,0,1,.86-1.16h33.34a.84.84,0,0,1,.85,1.16L202,572.54l-8.18,17a1,1,0,0,1-1.72,0l-8.19-17Z"/><path class="cls-13" d="M193,528.19c-10.25,0-18.59,8-18.59,17.92a19.93,19.93,0,0,0,.52,4.79,15,15,0,0,1,3-.33,16.42,16.42,0,0,1-.51-4.46c0-8.23,7-14.92,15.59-14.92s15.6,6.69,15.6,14.92a15.06,15.06,0,0,1-.66,4.42,22,22,0,0,1,2.21.23,5.2,5.2,0,0,1,.77.22,17.42,17.42,0,0,0,.68-4.87C211.55,536.23,203.21,528.19,193,528.19Z"/><path class="cls-33" d="M176.45,549.14s-4.06.15-4.06,3.19c0,2.52,3.33,3,5.85,3H207.6c2.51,0,5.85-.53,5.85-3,0-3-4.06-3.19-4.06-3.19"/><ellipse class="cls-13" cx="192.92" cy="543.39" rx="17.39" ry="14.57"/><line class="cls-66" x1="183.39" y1="565.52" x2="191.67" y2="561.07"/><line class="cls-66" x1="185.74" y1="569.79" x2="193.68" y2="565.53"/><line class="cls-66" x1="183.93" y1="561.55" x2="190.94" y2="574.59"/><line class="cls-66" x1="187.23" y1="559.77" x2="192.52" y2="569.62"/><line class="cls-67" x1="184.38" y1="532.48" x2="185.73" y2="533.43"/><line class="cls-68" x1="192.24" y1="530.01" x2="193.59" y2="530.95"/><line class="cls-67" x1="190.97" y1="535.28" x2="189.63" y2="536.23"/><line class="cls-68" x1="196.47" y1="536.73" x2="197.82" y2="537.67"/><line class="cls-67" x1="200.63" y1="532.96" x2="199.28" y2="533.91"/><path class="cls-13" d="M318.92,553.63c0-2.73-1.87-5.33-5.14-7.11-3.51-1.92-8.62-2.93-14.75-2.93-8.24,0-13.34,2.29-16.12,5a15.82,15.82,0,0,1,6.27-1.86,3.34,3.34,0,0,1,2.44.71,30.79,30.79,0,0,1,7.41-.82c7.12,0,11.17,1.39,13.32,2.57s3.57,2.87,3.57,4.47a5.52,5.52,0,0,1-3.21,4.82l-.92.39v1c0,.15,0,14.87-.1,17.86a2.3,2.3,0,0,1-1.61,2,4.12,4.12,0,0,1-2.61,3.24c1,0,1.66,0,1.86,0a5.54,5.54,0,0,0,5.36-5.06c.13-2.67.11-13.84.11-17.12A8.31,8.31,0,0,0,318.92,553.63Z"/><path class="cls-41" d="M283.57,560.84a7,7,0,0,1-3.61-5.91c0-3.06,4.37-8.78,17.27-8.78s18.4,4.49,18.4,8.54a7.1,7.1,0,0,1-4.13,6.21s0,14.87-.11,17.93a4.06,4.06,0,0,1-4,3.64c-1,.08-18.53-.12-20.82,0-1.93.07-2.75-2.25-2.82-3.83S283.57,560.84,283.57,560.84Z"/><line class="cls-68" x1="180.32" y1="536.73" x2="181.66" y2="537.67"/><line class="cls-68" x1="204.34" y1="536.25" x2="205.69" y2="537.2"/><ellipse class="cls-13" cx="178.85" cy="552.26" rx="6.46" ry="2.75"/><ellipse class="cls-13" cx="202.57" cy="552.26" rx="6.46" ry="2.75"/><ellipse class="cls-13" cx="206.42" cy="552.26" rx="6.46" ry="2.75"/><path class="cls-13" d="M339,543.7c0-1.64-.67-4.75-5.13-7.18-3.48-1.9-8.53-2.91-14.62-2.91-6.81,0-11.45,1.55-14.4,3.6l-9.9,5.17a1.56,1.56,0,0,0-.48.4,12,12,0,0,0-3.57,3.36,5.06,5.06,0,0,1,1.21-.16h1.39a4.46,4.46,0,0,1,1.36.21c2.28-1.93,6.53-3.71,13.58-3.71s11.17,1.39,13.32,2.56,3.57,2.87,3.57,4.48a5.52,5.52,0,0,1-3.21,4.82l-.92.39v1c0,.15.05,14.86-.1,17.85a2.58,2.58,0,0,1-2.57,2.22c-.33,0-2.48,0-5.1,0a4.65,4.65,0,0,1-.3,3h3.75c1.05,0,1.66,0,1.86,0a6.27,6.27,0,0,0,3.5-1.38l8.28-4.56.21-.05h0l.05,0a15.26,15.26,0,0,0,2-1c.15-.12.29-.25.43-.38h0a5.06,5.06,0,0,0,1.51-3.41c.13-2.65.12-13.66.11-17A8.37,8.37,0,0,0,339,543.7Z"/><path class="cls-41" d="M283.57,560.84a7,7,0,0,1-3.61-5.91c0-3.06,4.37-8.78,17.27-8.78s18.4,4.49,18.4,8.54a7.1,7.1,0,0,1-4.13,6.21s0,14.87-.11,17.93a4.06,4.06,0,0,1-4,3.64c-1,.08-18.53-.12-20.82,0-1.93.07-2.75-2.25-2.82-3.83S283.57,560.84,283.57,560.84Z"/><path class="cls-13" d="M421.2,535.63A23.46,23.46,0,0,0,405.88,542a.76.76,0,0,0,0,1.09l14.82,14.82a.77.77,0,0,0,1.3-.54v-21A.77.77,0,0,0,421.2,535.63Z"/><path class="cls-13" d="M439.16,541.9a23.43,23.43,0,0,0-15.32-6.34.76.76,0,0,0-.78.76v20.95a.76.76,0,0,0,1.3.54l3.91-3.91c-2.87-.2-2.81-4.74.19-4.74a2.23,2.23,0,0,1,2.29,2.26l8.42-8.42A.76.76,0,0,0,439.16,541.9Zm-13.05,3c-3.71,0-3.71-5.76,0-5.76S429.81,544.9,426.11,544.9Z"/><path class="cls-13" d="M420.08,558.53,409.4,547.85c1.21,1.66.48,4.69-2.21,4.69-3.71,0-3.7-5.76,0-5.76a2.79,2.79,0,0,1,1.63.48l-3.55-3.54a.76.76,0,0,0-1.09,0,23.44,23.44,0,0,0-6.35,15.32.77.77,0,0,0,.77.78h14.28c-1.64-1.07-1.23-4.26,1.24-4.26s2.89,3.19,1.25,4.26h4.18A.76.76,0,0,0,420.08,558.53Zm-17.7-.64a1.19,1.19,0,0,1,0-2.37A1.19,1.19,0,0,1,402.38,557.89Z"/><path class="cls-13" d="M453,556.45a23.46,23.46,0,0,0-6.35-15.32.76.76,0,0,0-1.09,0l-14.82,14.81a.76.76,0,0,0,.54,1.3h20.95A.77.77,0,0,0,453,556.45Z"/><path class="cls-13" d="M421,562.48l-3.59,3.59a2.32,2.32,0,0,1,.46,0c3,0,3,4.61,0,4.61a2.24,2.24,0,0,1-2.16-2.87l-9.52,9.53a.75.75,0,0,0,0,1.09,23.49,23.49,0,0,0,15.33,6.35.77.77,0,0,0,.78-.77V563A.76.76,0,0,0,421,562.48Zm-1.83,17.77c-3.85,0-3.84-6,0-6S423,580.25,419.18,580.25Z"/><path class="cls-13" d="M446.6,560.34H432.37c2,.49,1.83,3.84-.51,3.84s-2.5-3.35-.51-3.84h-5.7a.76.76,0,0,0-.54,1.29l14.81,14.82a.78.78,0,0,0,1.1,0,23.51,23.51,0,0,0,6.35-15.32A.77.77,0,0,0,446.6,560.34Zm-8.39,12.42c-3.59,0-3.58-5.56,0-5.56S441.79,572.76,438.21,572.76Zm4.34-8.53a1.19,1.19,0,0,1,0-2.37A1.19,1.19,0,0,1,442.55,564.23Z"/><path class="cls-13" d="M397.9,561.46a23.49,23.49,0,0,0,6.35,15.32.76.76,0,0,0,1.1,0L420.16,562a.76.76,0,0,0-.54-1.3H398.67A.77.77,0,0,0,397.9,561.46Z"/><path class="cls-13" d="M424.07,584.64a23.46,23.46,0,0,0,15.32-6.35.76.76,0,0,0,0-1.09l-14.81-14.81a.76.76,0,0,0-1.3.53v21A.77.77,0,0,0,424.07,584.64Z"/><path class="cls-69" d="M422.66,560.2"/><path class="cls-27" d="M404.81,540a25.12,25.12,0,0,1,15.89-6.66"/><path class="cls-27" d="M395.62,558.53a25.11,25.11,0,0,1,2.06-8.78,24.78,24.78,0,0,1,4.65-7.08"/><path class="cls-27" d="M402.45,577.91a25,25,0,0,1-4.9-7.58,24.66,24.66,0,0,1-1.87-8.26"/><path class="cls-27" d="M421.14,586.87a25.07,25.07,0,0,1-8.8-2,24.67,24.67,0,0,1-7.13-4.58"/><path class="cls-27" d="M440.16,540.08a25.17,25.17,0,0,0-15.89-6.66"/><path class="cls-27" d="M455.06,556a25,25,0,0,0-2.07-8.78,24.69,24.69,0,0,0-4.65-7.09"/><path class="cls-27" d="M442.73,577.56a25.15,25.15,0,0,0,4.9-7.58,24.71,24.71,0,0,0,1.87-8.26"/><path class="cls-27" d="M424.54,586.66a25.14,25.14,0,0,0,15.93-6.56"/><polygon class="cls-15" points="551.43 590.09 528.33 590.09 524.46 552.43 555.29 552.43 551.43 590.09"/><rect class="cls-15" x="521.93" y="546.57" width="35.77" height="5.13"/><polygon class="cls-13" points="553.41 573.23 526.35 573.23 525.46 562.11 554.3 562.11 553.41 573.23"/><path class="cls-15" d="M553.41,530.78a20.45,20.45,0,0,0-3.79-.86,2.81,2.81,0,0,0-2.68,2.15c-.27,1.34-2.79,14.16-2.79,14.16"/><polygon class="cls-40" points="668.61 584.92 635.54 584.92 632.75 548.7 671.41 548.7 668.61 584.92"/><path class="cls-13" d="M671.35,544c-.09-4.21-8.75-7.62-19.43-7.62s-19.33,3.41-19.42,7.62Z"/><path class="cls-13" d="M634.1,544c.1-3,7.39-6.25,17.82-6.25S669.64,541,669.75,544h3.19c-.07-5-9.28-9-21-9s-20.94,3.94-21,9Z"/><rect class="cls-13" x="1095.44" y="529.5" width="39.05" height="60.51" rx="15.5"/><rect class="cls-40" x="646.26" y="532.45" width="10.9" height="6.65"/><line class="cls-70" x1="640.5" y1="557.72" x2="642.56" y2="579.74"/><line class="cls-70" x1="663.2" y1="557.72" x2="661.13" y2="579.74"/><line class="cls-70" x1="652.09" y1="557.66" x2="652.09" y2="579.74"/><circle class="cls-40" cx="884.39" cy="700.54" r="26.46"/><g class="cls-71"><circle class="cls-5" cx="884.34" cy="720.07" r="16.31"/></g><polyline class="cls-72" points="1104.75 550.08 1124.95 570.28 1113.74 581.5 1113.83 559.61"/><polyline class="cls-72" points="1104.75 569.15 1124.95 548.94 1113.74 537.72 1113.83 559.61"/><ellipse class="cls-5" cx="884.73" cy="689.94" rx="8.64" ry="8.51"/><path class="cls-13" d="M54.21,702.88a25.67,25.67,0,1,1,41.37,20.29L97,724.6a27.67,27.67,0,1,0-34.11.11l1.43-1.43A25.66,25.66,0,0,1,54.21,702.88Z"/><path class="cls-13" d="M59.3,702.88A20.66,20.66,0,1,1,92,719.62l1.44,1.44a22.65,22.65,0,1,0-26.94,0L68,719.65A20.59,20.59,0,0,1,59.3,702.88Z"/><path class="cls-13" d="M64.88,702.88A15.38,15.38,0,1,1,88.32,716l1.44,1.43a17.36,17.36,0,1,0-19.33-.2l1.43-1.44A15.36,15.36,0,0,1,64.88,702.88Z"/><path class="cls-13" d="M70.58,702.88A9.6,9.6,0,1,1,84,711.66l1.51,1.5a11.61,11.61,0,1,0-11-.14l1.48-1.47A9.61,9.61,0,0,1,70.58,702.88Z"/><circle class="cls-34" cx="80.48" cy="702.78" r="4.17"/><path class="cls-13" d="M536.7,728.42s-11.53-2.77-18.64-12.26c-4.95-6.61-4.63-28.36-4.63-28.36a63.83,63.83,0,0,0,11.61-3c6.6-2.76,11.31-4.83,11.31-4.83s4.39,2,11,4.62a65,65,0,0,0,11.68,2.8s0,22.14-4,28.44C549.09,725.18,536.7,728.42,536.7,728.42Z"/><path class="cls-5" d="M553.4,691a40.16,40.16,0,0,1-7.47-1.89c-4.35-1.82-7.27-3.23-7.3-3.24l-.44-.21v37.22l.5-.1,1.18-.33a21.5,21.5,0,0,0,11.8-9.16c2.8-4.67,2.88-19.23,2.88-20.87v-1.24Z"/><path class="cls-13" d="M180.65,683.71h32v38H178V686.4l-3.8,3.78-.2.24V723.7a2,2,0,0,0,2,2h38.71a2,2,0,0,0,2-2v-42a2,2,0,0,0-2-2h-30Z"/><line class="cls-14" x1="207.5" y1="715.04" x2="183.26" y2="715.04"/><line class="cls-14" x1="207.43" y1="706.98" x2="183.19" y2="706.98"/><line class="cls-14" x1="207.43" y1="698.53" x2="188.51" y2="698.53"/><line class="cls-14" x1="207.43" y1="691.13" x2="196.32" y2="691.13"/><polygon class="cls-73" points="185.09 682.1 185.6 692.32 176.13 691.14 185.09 682.1"/><path class="cls-13" d="M172.66,678.2h34.71v3.68c1.33,0,2.67-.08,4-.1V676.2a2,2,0,0,0-2-2H170.66a2,2,0,0,0-2,2v42a2,2,0,0,0,2,2h3.61a6.23,6.23,0,0,1,.48-1c0-1,0-2,0-3h-2.11Z"/><path class="cls-15" d="M781.4,693.74c0-9.57-8.54-14.28-14.42-14.28h-.48c-5.89,0-14.42,4.71-14.42,14.28,0,7.51,4.27,10.89,6,14.13s1,10.6,1,10.6h15.2s-.74-7.36,1-10.6S781.4,701.25,781.4,693.74Z"/><line class="cls-31" x1="758.9" y1="722.22" x2="774.44" y2="722.22"/><line class="cls-31" x1="760.65" y1="725.66" x2="772.58" y2="725.66"/><path class="cls-13" d="M762.75,728.18a.73.73,0,0,0-.6,1.09,5,5,0,0,0,8.76,0,.73.73,0,0,0-.6-1.09Z"/><line class="cls-31" x1="766.51" y1="669.06" x2="766.51" y2="673.89"/><line class="cls-31" x1="781.9" y1="673.79" x2="779.37" y2="677.92"/><line class="cls-31" x1="790.27" y1="684.63" x2="785.83" y2="686.55"/><line class="cls-31" x1="751.05" y1="673.97" x2="753.72" y2="678"/><line class="cls-31" x1="743.01" y1="685.73" x2="747.45" y2="687.64"/><path class="cls-31" d="M770.69,684.37a8.83,8.83,0,0,1,6.16,9.2"/><circle class="cls-31" cx="776.26" cy="696.56" r="0.17"/><text class="cls-74" transform="translate(980.72 710.68)">a</text><ellipse class="cls-75" cx="996.88" cy="700.29" rx="26.35" ry="26.32"/><path class="cls-34" d="M1118.57,714.42c-11.4-1.19-19.2-8.67-18.44-22.63a28.7,28.7,0,0,1,5.45-16.07A25.33,25.33,0,1,0,1134.8,713C1128.33,715.25,1121.17,714.7,1118.57,714.42Z"/><polygon class="cls-37" points="1122.97 676.51 1125.18 680.99 1130.12 681.71 1126.55 685.19 1127.39 690.11 1122.97 687.79 1118.56 690.11 1119.4 685.19 1115.83 681.71 1120.77 680.99 1122.97 676.51"/><polygon class="cls-37" points="1136.46 688.86 1138 691.99 1141.45 692.49 1138.95 694.92 1139.54 698.36 1136.46 696.73 1133.37 698.36 1133.96 694.92 1131.47 692.49 1134.92 691.99 1136.46 688.86"/></g></svg>