<svg xmlns="http://www.w3.org/2000/svg" xmlns:xlink="http://www.w3.org/1999/xlink" viewBox="0 0 1187.86 841.89"><defs><style>.cls-1,.cls-10,.cls-17,.cls-20,.cls-22,.cls-24,.cls-29,.cls-3,.cls-30,.cls-32,.cls-34,.cls-40,.cls-43,.cls-44,.cls-46,.cls-48,.cls-49,.cls-51,.cls-52,.cls-61,.cls-63,.cls-66,.cls-69,.cls-71,.cls-73,.cls-75,.cls-76,.cls-79,.cls-8,.cls-81,.cls-84{fill:none;}.cls-2,.cls-7{fill:#fff;}.cls-2{opacity:0.51;}.cls-3{stroke:#ccc;}.cls-10,.cls-17,.cls-20,.cls-22,.cls-24,.cls-29,.cls-3,.cls-30,.cls-32,.cls-34,.cls-40,.cls-43,.cls-44,.cls-46,.cls-48,.cls-49,.cls-51,.cls-52,.cls-61,.cls-63,.cls-66,.cls-69,.cls-71,.cls-73,.cls-75,.cls-76,.cls-79,.cls-8,.cls-81,.cls-84{stroke-miterlimit:10;}.cls-4{font-size:12px;font-family:KozGoPro-Regular-83pv-RKSJ-H, Kozuka Gothic Pro;}.cls-5{letter-spacing:0.25em;}.cls-6{clip-path:url(#clip-path);}.cls-10,.cls-17,.cls-20,.cls-22,.cls-24,.cls-29,.cls-32,.cls-34,.cls-40,.cls-43,.cls-44,.cls-46,.cls-48,.cls-49,.cls-51,.cls-52,.cls-61,.cls-63,.cls-66,.cls-69,.cls-71,.cls-73,.cls-75,.cls-79,.cls-8,.cls-84{stroke:#000;}.cls-8{stroke-width:0.76px;}.cls-9{clip-path:url(#clip-path-3);}.cls-10{stroke-width:0.76px;}.cls-11{clip-path:url(#clip-path-5);}.cls-12{clip-path:url(#clip-path-7);}.cls-13{clip-path:url(#clip-path-9);}.cls-14{clip-path:url(#clip-path-11);}.cls-15{clip-path:url(#clip-path-13);}.cls-16{clip-path:url(#clip-path-15);}.cls-17{stroke-width:3.24px;}.cls-18{clip-path:url(#clip-path-17);}.cls-19{clip-path:url(#clip-path-19);}.cls-20{stroke-width:2.83px;}.cls-21{clip-path:url(#clip-path-21);}.cls-22{stroke-width:0.78px;}.cls-23{clip-path:url(#clip-path-23);}.cls-24{stroke-width:0.75px;}.cls-25{clip-path:url(#clip-path-25);}.cls-26{clip-path:url(#clip-path-27);}.cls-27{clip-path:url(#clip-path-29);}.cls-28{clip-path:url(#clip-path-31);}.cls-29,.cls-30{stroke-width:0.66px;}.cls-30,.cls-76,.cls-81{stroke:#fff;}.cls-31{clip-path:url(#clip-path-33);}.cls-32{stroke-width:4.87px;}.cls-33{clip-path:url(#clip-path-35);}.cls-34{stroke-width:4.62px;}.cls-35{clip-path:url(#clip-path-37);}.cls-36{clip-path:url(#clip-path-39);}.cls-37{clip-path:url(#clip-path-41);}.cls-38{clip-path:url(#clip-path-43);}.cls-39{clip-path:url(#clip-path-45);}.cls-40{stroke-width:6.05px;}.cls-41{clip-path:url(#clip-path-47);}.cls-42{clip-path:url(#clip-path-49);}.cls-43{stroke-width:0.74px;}.cls-44{stroke-width:2.98px;}.cls-45{clip-path:url(#clip-path-51);}.cls-46{stroke-width:3.84px;}.cls-47{clip-path:url(#clip-path-53);}.cls-48{stroke-width:0.76px;}.cls-49{stroke-width:3.81px;}.cls-50{clip-path:url(#clip-path-55);}.cls-51{stroke-width:0.77px;}.cls-52{stroke-width:2.31px;}.cls-53{clip-path:url(#clip-path-57);}.cls-54{clip-path:url(#clip-path-59);}.cls-55{clip-path:url(#clip-path-61);}.cls-56{clip-path:url(#clip-path-63);}.cls-57{clip-path:url(#clip-path-65);}.cls-58{clip-path:url(#clip-path-67);}.cls-59{clip-path:url(#clip-path-69);}.cls-60{clip-path:url(#clip-path-71);}.cls-61{stroke-width:1.46px;}.cls-62{clip-path:url(#clip-path-73);}.cls-63{stroke-width:0.74px;}.cls-64{clip-path:url(#clip-path-75);}.cls-65{clip-path:url(#clip-path-77);}.cls-66{stroke-width:1.39px;}.cls-67{clip-path:url(#clip-path-79);}.cls-68{clip-path:url(#clip-path-81);}.cls-69{stroke-width:0.74px;}.cls-70{clip-path:url(#clip-path-83);}.cls-71{stroke-width:0.94px;}.cls-72{clip-path:url(#clip-path-85);}.cls-73{stroke-width:0.74px;}.cls-74{clip-path:url(#clip-path-87);}.cls-75,.cls-76{stroke-width:0.75px;}.cls-77{clip-path:url(#clip-path-89);}.cls-78{clip-path:url(#clip-path-91);}.cls-79{stroke-width:0.79px;}.cls-80{clip-path:url(#clip-path-93);}.cls-81{stroke-width:0.77px;}.cls-82{clip-path:url(#clip-path-95);}.cls-83{clip-path:url(#clip-path-97);}.cls-84{stroke-width:0.75px;}.cls-85{clip-path:url(#clip-path-99);}</style><clipPath id="clip-path"><rect class="cls-1" x="27.55" y="80.53" width="113.56" height="113.56"/></clipPath><clipPath id="clip-path-3"><rect class="cls-1" x="141.1" y="80.59" width="113.43" height="113.43"/></clipPath><clipPath id="clip-path-5"><rect class="cls-1" x="253.03" y="81.51" width="111.6" height="111.6"/></clipPath><clipPath id="clip-path-7"><rect class="cls-1" x="378.68" y="93.01" width="94.29" height="94.29"/></clipPath><clipPath id="clip-path-9"><rect class="cls-1" x="486.8" y="88.12" width="104.07" height="104.07"/></clipPath><clipPath id="clip-path-11"><rect class="cls-1" x="603.36" y="85.02" width="104.28" height="104.28"/></clipPath><clipPath id="clip-path-13"><rect class="cls-1" x="712.12" y="80.44" width="113.43" height="113.43"/></clipPath><clipPath id="clip-path-15"><rect class="cls-1" x="835.19" y="93.01" width="97.28" height="97.28"/></clipPath><clipPath id="clip-path-17"><rect class="cls-1" x="944.1" y="90.77" width="104.73" height="104.73"/></clipPath><clipPath id="clip-path-19"><rect class="cls-1" x="1060.78" y="84.25" width="106.11" height="106.11"/></clipPath><clipPath id="clip-path-21"><rect class="cls-1" x="18.44" y="223.17" width="117.09" height="117.09"/></clipPath><clipPath id="clip-path-23"><rect class="cls-1" x="141.27" y="224.92" width="113.09" height="113.09"/></clipPath><clipPath id="clip-path-25"><rect class="cls-1" x="259.19" y="231.41" width="100.62" height="100.62"/></clipPath><clipPath id="clip-path-27"><rect class="cls-1" x="370.86" y="227.49" width="107.94" height="107.94"/></clipPath><clipPath id="clip-path-29"><rect class="cls-1" x="484.4" y="227.29" width="108.85" height="108.85" transform="translate(-49.51 435.22) rotate(-42.23)"/></clipPath><clipPath id="clip-path-31"><rect class="cls-1" x="603.98" y="231.61" width="99.7" height="99.7"/></clipPath><clipPath id="clip-path-33"><rect class="cls-1" x="718.69" y="219.56" width="104.28" height="104.28"/></clipPath><clipPath id="clip-path-35"><rect class="cls-1" x="836.7" y="228.61" width="98.92" height="98.92"/></clipPath><clipPath id="clip-path-37"><rect class="cls-1" x="940.29" y="228.41" width="117.09" height="117.09"/></clipPath><clipPath id="clip-path-39"><rect class="cls-1" x="1045.8" y="207.05" width="142.05" height="142.05"/></clipPath><clipPath id="clip-path-41"><rect class="cls-1" x="20.27" y="362.13" width="113.43" height="113.43"/></clipPath><clipPath id="clip-path-43"><rect class="cls-1" x="137.45" y="364.23" width="113.43" height="113.43"/></clipPath><clipPath id="clip-path-45"><rect class="cls-1" x="252.78" y="371.23" width="113.43" height="113.43"/></clipPath><clipPath id="clip-path-47"><rect class="cls-1" x="367.64" y="364.76" width="112.37" height="112.37"/></clipPath><clipPath id="clip-path-49"><rect class="cls-1" x="483.03" y="365.15" width="111.6" height="111.6"/></clipPath><clipPath id="clip-path-51"><rect class="cls-1" x="597.91" y="361.26" width="115.17" height="115.17"/></clipPath><clipPath id="clip-path-53"><rect class="cls-1" x="713.66" y="370.77" width="114.34" height="114.34"/></clipPath><clipPath id="clip-path-55"><rect class="cls-1" x="828.53" y="363.32" width="115.26" height="115.26"/></clipPath><clipPath id="clip-path-57"><rect class="cls-1" x="948.83" y="367.59" width="106.71" height="106.71"/></clipPath><clipPath id="clip-path-59"><rect class="cls-1" x="1063.06" y="373.08" width="101.53" height="101.53"/></clipPath><clipPath id="clip-path-61"><rect class="cls-1" x="24.56" y="505.34" width="108.55" height="108.55"/></clipPath><clipPath id="clip-path-63"><rect class="cls-1" x="139.51" y="507.01" width="105.2" height="105.2"/></clipPath><clipPath id="clip-path-65"><rect class="cls-1" x="258.07" y="508.18" width="102.86" height="102.86"/></clipPath><clipPath id="clip-path-67"><rect class="cls-1" x="368.95" y="509.61" width="109.77" height="109.77"/></clipPath><clipPath id="clip-path-69"><rect class="cls-1" x="483.49" y="509.15" width="110.68" height="110.68"/></clipPath><clipPath id="clip-path-71"><rect class="cls-1" x="600.61" y="509.61" width="109.77" height="109.77"/></clipPath><clipPath id="clip-path-73"><rect class="cls-1" x="713.49" y="509.15" width="110.68" height="110.68"/></clipPath><clipPath id="clip-path-75"><rect class="cls-1" x="828.95" y="507.73" width="109.77" height="109.77"/></clipPath><clipPath id="clip-path-77"><rect class="cls-1" x="950.13" y="510.28" width="104.13" height="104.13"/></clipPath><clipPath id="clip-path-79"><rect class="cls-1" x="1061.49" y="504.27" width="110.68" height="110.68"/></clipPath><clipPath id="clip-path-81"><rect class="cls-1" x="23.03" y="644.58" width="111.6" height="111.6"/></clipPath><clipPath id="clip-path-83"><rect class="cls-1" x="131.92" y="632.57" width="140.29" height="140.29"/></clipPath><clipPath id="clip-path-85"><rect class="cls-1" x="253.7" y="650.38" width="111.6" height="111.6"/></clipPath><clipPath id="clip-path-87"><rect class="cls-1" x="368.57" y="644.12" width="112.51" height="112.51"/></clipPath><clipPath id="clip-path-89"><rect class="cls-1" x="484.56" y="644.77" width="111.21" height="111.21"/></clipPath><clipPath id="clip-path-91"><rect class="cls-1" x="592.37" y="645.72" width="118.92" height="118.92"/></clipPath><clipPath id="clip-path-93"><rect class="cls-1" x="710.74" y="642.29" width="116.17" height="116.17"/></clipPath><clipPath id="clip-path-95"><rect class="cls-1" x="828.49" y="645.04" width="110.68" height="110.68"/></clipPath><clipPath id="clip-path-97"><rect class="cls-1" x="1057.57" y="649.92" width="112.51" height="112.51"/></clipPath><clipPath id="clip-path-99"><rect class="cls-1" x="940.19" y="632.33" width="122.62" height="122.62"/></clipPath></defs><g id="レイヤー_3" data-name="レイヤー 3"><rect class="cls-2" width="1187.86" height="841.89"/></g><g id="テンプレート"><rect class="cls-3" x="28.83" y="87.3" width="100" height="100"/><rect class="cls-3" x="143.83" y="87.3" width="100" height="100"/><rect class="cls-3" x="258.83" y="87.3" width="100" height="100"/><rect class="cls-3" x="373.83" y="87.3" width="100" height="100"/><rect class="cls-3" x="488.83" y="87.3" width="100" height="100"/><rect class="cls-3" x="603.83" y="87.3" width="100" height="100"/><rect class="cls-3" x="718.83" y="87.3" width="100" height="100"/><rect class="cls-3" x="833.83" y="87.3" width="100" height="100"/><rect class="cls-3" x="948.83" y="87.3" width="100" height="100"/><rect class="cls-3" x="1063.83" y="87.3" width="100" height="100"/><rect class="cls-3" x="28.83" y="228.07" width="100" height="100"/><rect class="cls-3" x="143.83" y="228.07" width="100" height="100"/><rect class="cls-3" x="258.83" y="228.07" width="100" height="100"/><rect class="cls-3" x="373.83" y="228.07" width="100" height="100"/><rect class="cls-3" x="488.83" y="228.07" width="100" height="100"/><rect class="cls-3" x="603.83" y="228.07" width="100" height="100"/><rect class="cls-3" x="718.83" y="228.07" width="100" height="100"/><rect class="cls-3" x="833.83" y="228.07" width="100" height="100"/><rect class="cls-3" x="948.83" y="228.07" width="100" height="100"/><rect class="cls-3" x="1063.83" y="228.07" width="100" height="100"/><rect class="cls-3" x="28.83" y="368.84" width="100" height="100"/><rect class="cls-3" x="143.83" y="368.84" width="100" height="100"/><rect class="cls-3" x="258.83" y="368.84" width="100" height="100"/><rect class="cls-3" x="373.83" y="368.84" width="100" height="100"/><rect class="cls-3" x="488.83" y="368.84" width="100" height="100"/><rect class="cls-3" x="603.83" y="368.84" width="100" height="100"/><rect class="cls-3" x="718.83" y="368.84" width="100" height="100"/><rect class="cls-3" x="833.83" y="368.84" width="100" height="100"/><rect class="cls-3" x="948.83" y="368.84" width="100" height="100"/><rect class="cls-3" x="1063.83" y="368.84" width="100" height="100"/><rect class="cls-3" x="28.83" y="509.61" width="100" height="100"/><rect class="cls-3" x="143.83" y="509.61" width="100" height="100"/><rect class="cls-3" x="258.83" y="509.61" width="100" height="100"/><rect class="cls-3" x="373.83" y="509.61" width="100" height="100"/><rect class="cls-3" x="488.83" y="509.61" width="100" height="100"/><rect class="cls-3" x="603.83" y="509.61" width="100" height="100"/><rect class="cls-3" x="718.83" y="509.61" width="100" height="100"/><rect class="cls-3" x="833.83" y="509.61" width="100" height="100"/><rect class="cls-3" x="948.83" y="509.61" width="100" height="100"/><rect class="cls-3" x="1063.83" y="509.61" width="100" height="100"/><rect class="cls-3" x="28.83" y="650.38" width="100" height="100"/><rect class="cls-3" x="143.83" y="650.38" width="100" height="100"/><rect class="cls-3" x="258.83" y="650.38" width="100" height="100"/><rect class="cls-3" x="373.83" y="650.38" width="100" height="100"/><rect class="cls-3" x="488.83" y="650.38" width="100" height="100"/><rect class="cls-3" x="603.83" y="650.38" width="100" height="100"/><rect class="cls-3" x="718.83" y="650.38" width="100" height="100"/><rect class="cls-3" x="833.83" y="650.38" width="100" height="100"/><rect class="cls-3" x="948.83" y="650.38" width="100" height="100"/><rect class="cls-3" x="1063.83" y="650.38" width="100" height="100"/></g><g id="アイコン名"><text class="cls-4" transform="translate(54.83 213.41)">パソコン</text><text class="cls-4" transform="translate(176.16 213.41)">現在地</text><text class="cls-4" transform="translate(279.5 213.41)">スピーカー</text><text class="cls-4" transform="translate(406.83 213.41)">信号機</text><text class="cls-4" transform="translate(522.16 213.41)">ズーム</text><text class="cls-4" transform="translate(619.5 213.41)">ズームバック</text><text class="cls-4" transform="translate(758.83 213.41)">爆弾</text><text class="cls-4" transform="translate(850.16 213.41)">目覚まし時計</text><text class="cls-4" transform="translate(965.5 213.41)">パソコン画面</text><text class="cls-4" transform="translate(1104.83 213.41)">お墓</text><text class="cls-4" transform="translate(54.83 351.9)">動画再生</text><text class="cls-4" transform="translate(176.16 351.9)">しずく</text><text class="cls-4" transform="translate(297.5 351.9)">危険</text><text class="cls-4" transform="translate(418.83 351.9)">星</text><text class="cls-4" transform="translate(528.16 351.9)">タグ</text><text class="cls-4" transform="translate(643.5 351.9)">ペン</text><text class="cls-4" transform="translate(752.83 351.9)">ロック</text><text class="cls-4" transform="translate(856.16 351.9)">ロック解除</text><text class="cls-4" transform="translate(983.5 351.9)">バナー</text><text class="cls-4" transform="translate(1104.83 351.9)">歯車</text><text class="cls-4" transform="translate(48.83 492.39)">プレゼント</text><text class="cls-4" transform="translate(176.16 492.39)">かばん</text><text class="cls-4" transform="translate(273.5 492.39)">カチューシャ</text><text class="cls-4" transform="translate(400.83 492.39)">フラスコ</text><text class="cls-4" transform="translate(516.16 492.39)">　ゴミ箱</text><text class="cls-4" transform="translate(649.5 492.39)">車</text><text class="cls-4" transform="translate(758.83 492.39)">電車</text><text class="cls-4" transform="translate(862.16 492.39)">コーヒー</text><text class="cls-4" transform="translate(989.5 492.39)">看板</text><text class="cls-4" transform="translate(1098.83 492.39)">絆創膏</text><text class="cls-4" transform="translate(66.83 630.89)">矢印</text><text class="cls-4" transform="translate(182.16 630.89)">オン</text><text class="cls-4" transform="translate(297.5 630.89)">オフ</text><text class="cls-4" transform="translate(406.83 630.89)">リスト</text><text class="cls-4" transform="translate(511.61 630.89)">充<tspan class="cls-5" x="12" y="0">電</tspan><tspan x="27" y="0">100%</tspan></text><text class="cls-4" transform="translate(631.5 630.89)">充電なし</text><text class="cls-4" transform="translate(752.83 630.89)">充電中</text><text class="cls-4" transform="translate(880.16 630.89)">旗</text><text class="cls-4" transform="translate(989.5 630.89)">天秤</text><text class="cls-4" transform="translate(1104.83 630.89)">ドア</text><text class="cls-4" transform="translate(66.83 773.38)">電球</text><text class="cls-4" transform="translate(188.16 773.38)">箱</text><text class="cls-4" transform="translate(303.5 773.38)">虫</text><text class="cls-4" transform="translate(406.83 773.38)">カメラ</text><text class="cls-4" transform="translate(516.16 773.38)">チケット</text><text class="cls-4" transform="translate(649.5 773.38)">本</text><text class="cls-4" transform="translate(758.83 773.38)">検索</text><text class="cls-4" transform="translate(862.16 773.38)">消しゴム</text><text class="cls-4" transform="translate(977.5 773.38)">ラジカセ</text><text class="cls-4" transform="translate(1104.83 773.38)">画鋲</text><g class="cls-6"><g class="cls-6"><rect x="48.36" y="110.43" width="68.13" height="43.15" rx="3.51"/><path d="M113,110.81a3.13,3.13,0,0,1,3.13,3.13v36.13A3.13,3.13,0,0,1,113,153.2H51.87a3.13,3.13,0,0,1-3.13-3.13V113.94a3.13,3.13,0,0,1,3.13-3.13H113m0-.76H51.87A3.89,3.89,0,0,0,48,113.94v36.13A3.89,3.89,0,0,0,51.87,154H113a3.89,3.89,0,0,0,3.89-3.89V113.94a3.89,3.89,0,0,0-3.89-3.89"/><rect class="cls-7" x="52.15" y="114.21" width="60.56" height="35.58" rx="3.51"/><path d="M109.21,114.59a3.14,3.14,0,0,1,3.13,3.13v28.57a3.14,3.14,0,0,1-3.13,3.13H55.66a3.13,3.13,0,0,1-3.13-3.13V117.72a3.13,3.13,0,0,1,3.13-3.13h53.55m0-.75H55.66a3.89,3.89,0,0,0-3.89,3.88v28.57a3.89,3.89,0,0,0,3.89,3.88h53.55a3.88,3.88,0,0,0,3.88-3.88V117.72a3.88,3.88,0,0,0-3.88-3.88"/><path d="M51.34,155.1a6.18,6.18,0,0,0-5.25,3.48l-3.45,8.18A2.34,2.34,0,0,0,45,170.25h74.3a2.38,2.38,0,0,0,2.37-3.51l-3.28-8.13a6.06,6.06,0,0,0-5.2-3.51Z"/><path class="cls-8" d="M51.34,155.1a6.18,6.18,0,0,0-5.25,3.48l-3.45,8.18A2.34,2.34,0,0,0,45,170.25h74.3a2.38,2.38,0,0,0,2.37-3.51l-3.28-8.13a6.06,6.06,0,0,0-5.2-3.51Z"/><path class="cls-7" d="M80.65,165.32c-2.09,0-4,.48-4.24,1.07s1.25,1.07,3.33,1.07h4c2.08,0,3.59-.48,3.36-1.07s-2.14-1.07-4.22-1.07Z"/><path class="cls-8" d="M80.65,165.32c-2.09,0-4,.48-4.24,1.07s1.25,1.07,3.33,1.07h4c2.08,0,3.59-.48,3.36-1.07s-2.14-1.07-4.22-1.07Z"/><path d="M77.35,134.18c-3.19-6-2.12-13.13-.71-13.48s3.91,1.77,4.62,12.06H83c0-1.06,2.13-12.42,4.16-12.1,1.16,0,2.94,4.3-.43,13.52,2.3,1.42,6,9.5-4.7,9.36s-7.19-7.23-4.71-9.36"/></g></g><g class="cls-9"><g class="cls-9"><path d="M196.62,97.32c-.8-1.93-2.1-1.92-2.89,0l-31.14,75.43c-.8,1.93,0,2.61,1.78,1.52L192,157.39a6.83,6.83,0,0,1,6.45,0l27.79,16.9c1.78,1.08,2.58.4,1.78-1.52Z"/><path class="cls-10" d="M196.62,97.32c-.8-1.93-2.1-1.92-2.89,0l-31.14,75.43c-.8,1.93,0,2.61,1.78,1.52L192,157.39a6.83,6.83,0,0,1,6.45,0l27.79,16.9c1.78,1.08,2.58.4,1.78-1.52Z"/><path class="cls-7" d="M192,138.25c-2.14-4-1.43-8.78-.48-9s2.61,1.19,3.09,8.07h1.18c0-.71,1.43-8.3,2.79-8.09.77,0,2,2.87-.29,9,1.54.95,4,6.36-3.15,6.27s-4.81-4.84-3.14-6.27"/></g></g><g class="cls-11"><g class="cls-11"><rect x="286.14" y="94.52" width="51.34" height="87.05" rx="5.61"/><path d="M331.86,94.9a5.25,5.25,0,0,1,5.24,5.24V176a5.25,5.25,0,0,1-5.24,5.24H291.75a5.25,5.25,0,0,1-5.24-5.24V100.14a5.25,5.25,0,0,1,5.24-5.24h40.11m0-.75H291.75a6,6,0,0,0-6,6V176a6,6,0,0,0,6,6h40.11a6,6,0,0,0,6-6V100.14a6,6,0,0,0-6-6"/><path d="M311.81,137.3a17.11,17.11,0,1,1,17.11-17.11,17.12,17.12,0,0,1-17.11,17.11"/><path class="cls-7" d="M311.81,103.82a16.37,16.37,0,1,1-16.37,16.37,16.39,16.39,0,0,1,16.37-16.37m0-1.48a17.86,17.86,0,1,0,17.85,17.85,17.86,17.86,0,0,0-17.85-17.85"/><path d="M312.06,171.51a10.67,10.67,0,1,1,10.67-10.67,10.68,10.68,0,0,1-10.67,10.67"/><path class="cls-7" d="M312.06,150.92a9.93,9.93,0,1,1-9.93,9.92,9.94,9.94,0,0,1,9.93-9.92m0-1.49a11.42,11.42,0,1,0,11.41,11.41,11.41,11.41,0,0,0-11.41-11.41"/><path class="cls-7" d="M311.87,161.84a1.19,1.19,0,1,1,1.19-1.18,1.18,1.18,0,0,1-1.19,1.18"/><path class="cls-7" d="M311.87,159.85a.81.81,0,1,1-.81.81.82.82,0,0,1,.81-.81m0-.75a1.56,1.56,0,1,0,1.56,1.56,1.56,1.56,0,0,0-1.56-1.56"/><path class="cls-7" d="M309.9,120c-1.32-2.51-.88-5.45-.29-5.6s1.62.74,1.91,5h.74c0-.44.88-5.15,1.73-5,.48,0,1.22,1.78-.18,5.61.95.59,2.5,3.94-1.95,3.88s-3-3-2-3.88"/></g></g><g class="cls-12"><g class="cls-12"><path d="M425.52,184.47a17,17,0,0,1-17-17V125.18a17,17,0,1,1,33.95,0V167.5a17,17,0,0,1-17,17"/><path d="M425.52,108.52a16.68,16.68,0,0,1,16.66,16.66V167.5a16.66,16.66,0,0,1-33.32,0V125.18a16.67,16.67,0,0,1,16.66-16.66m0-.63h0a17.29,17.29,0,0,0-17.29,17.29V167.5a17.29,17.29,0,1,0,34.57,0V125.18a17.29,17.29,0,0,0-17.28-17.29"/><path class="cls-7" d="M425.52,134.4A10.42,10.42,0,1,1,435.93,124a10.42,10.42,0,0,1-10.41,10.41"/><path d="M425.52,113.88A10.11,10.11,0,1,1,415.42,124a10.12,10.12,0,0,1,10.1-10.11m0-.62A10.73,10.73,0,1,0,436.25,124a10.72,10.72,0,0,0-10.73-10.73"/><path class="cls-7" d="M425.52,181.49a10.42,10.42,0,1,1,10.41-10.41,10.42,10.42,0,0,1-10.41,10.41"/><path d="M425.52,161a10.1,10.1,0,1,1-10.1,10.1,10.11,10.11,0,0,1,10.1-10.1m0-.63a10.73,10.73,0,1,0,10.73,10.73,10.72,10.72,0,0,0-10.73-10.73"/><path class="cls-7" d="M425.52,158.25a10.42,10.42,0,1,1,10.41-10.42,10.43,10.43,0,0,1-10.41,10.42"/><path d="M425.52,137.73a10.1,10.1,0,1,1-10.1,10.1,10.11,10.11,0,0,1,10.1-10.1m0-.63a10.73,10.73,0,1,0,10.73,10.73,10.72,10.72,0,0,0-10.73-10.73"/><path d="M424.55,109c-.9-13-4.05-15.74-5.85-15.29s-3.14,9.36.83,17a2.27,2.27,0,0,1,1-.31l.22-.13a10.39,10.39,0,0,1,3.44-1.11,1.83,1.83,0,0,1,.35-.14"/><path d="M432.08,93.65c-2.54-.4-5.21,13.63-5.27,15.29h.27a2.16,2.16,0,0,1,1.26.35,9.17,9.17,0,0,1,3.26,1.34c4.19-11.58,1.95-16.93.48-17"/></g></g><g class="cls-13"><g class="cls-13"><path class="cls-7" d="M550.63,157.5a24.28,24.28,0,1,1,24.28-24.28,24.31,24.31,0,0,1-24.28,24.28"/><path d="M550.63,112.41a20.81,20.81,0,1,1-20.82,20.81,20.83,20.83,0,0,1,20.82-20.81m0-6.94a27.75,27.75,0,1,0,27.75,27.75,27.75,27.75,0,0,0-27.75-27.75"/><path class="cls-7" d="M506.29,178.44a1.5,1.5,0,0,1-1.06-2.55L529.12,152a1.49,1.49,0,0,1,2.11,2.11L507.34,178a1.48,1.48,0,0,1-1,.44"/><path d="M530.18,148.09a5,5,0,0,0-3.51,1.46l-23.89,23.88a5,5,0,0,0,3.51,8.47,4.9,4.9,0,0,0,3.5-1.45l23.89-23.89a5,5,0,0,0-3.5-8.47"/><path class="cls-7" d="M537,132.53v.69a2.09,2.09,0,0,0,2.09,2.09h23a2.08,2.08,0,0,0,2.09-2.09v-.69a2.09,2.09,0,0,0-2.09-2.09h-23a2.1,2.1,0,0,0-2.09,2.09"/><path d="M562.05,130.44h-23a2.1,2.1,0,0,0-2.09,2.09v.69a2.09,2.09,0,0,0,2.09,2.09h23a2.08,2.08,0,0,0,2.09-2.09v-.69a2.09,2.09,0,0,0-2.09-2.09"/><path class="cls-7" d="M549.76,146.5h.7a2.08,2.08,0,0,0,2.08-2.09v-23a2.09,2.09,0,0,0-2.08-2.09h-.7a2.09,2.09,0,0,0-2.08,2.09v23a2.08,2.08,0,0,0,2.08,2.09"/><path d="M550.46,119.34h-.7a2.09,2.09,0,0,0-2.08,2.09v23a2.08,2.08,0,0,0,2.08,2.09h.7a2.08,2.08,0,0,0,2.08-2.09v-23a2.09,2.09,0,0,0-2.08-2.09"/><path d="M549.73,108.1c-1.13-16.32-5.07-19.7-7.32-19.14s-3.93,11.72,1,21.27a2.76,2.76,0,0,1,1.26-.4l.27-.15a13,13,0,0,1,4.31-1.39,3.43,3.43,0,0,1,.44-.19"/><path d="M559.16,88.91c-3.18-.5-6.52,17.07-6.6,19.14h.34a2.67,2.67,0,0,1,1.59.45,11.14,11.14,0,0,1,4.07,1.68c5.25-14.51,2.45-21.21.6-21.26"/></g></g><g class="cls-14"><g class="cls-14"><path class="cls-7" d="M663.87,158.07a24.34,24.34,0,1,1,24.33-24.34,24.36,24.36,0,0,1-24.33,24.34"/><path d="M663.87,112.88A20.86,20.86,0,1,1,643,133.73a20.88,20.88,0,0,1,20.86-20.85m0-6.95a27.81,27.81,0,1,0,27.81,27.8,27.81,27.81,0,0,0-27.81-27.8"/><path class="cls-7" d="M619.44,179a1.48,1.48,0,0,1-1.06-.43,1.51,1.51,0,0,1,0-2.12l23.94-23.94a1.5,1.5,0,1,1,2.12,2.12L620.5,178.61a1.48,1.48,0,0,1-1.06.43"/><path d="M643.38,148.64a5,5,0,0,0-3.52,1.45L615.92,174a5,5,0,1,0,7,7l23.93-23.93a5,5,0,0,0-3.51-8.49"/><path class="cls-7" d="M650.2,133v.7a2.1,2.1,0,0,0,2.09,2.09h23a2.09,2.09,0,0,0,2.09-2.09V133a2.09,2.09,0,0,0-2.09-2.09h-23A2.1,2.1,0,0,0,650.2,133"/><path d="M675.32,131h-23A2.1,2.1,0,0,0,650.2,133v.7a2.1,2.1,0,0,0,2.09,2.09h23a2.09,2.09,0,0,0,2.09-2.09V133a2.09,2.09,0,0,0-2.09-2.09"/><path d="M663,108.57c-1.14-16.36-5.09-19.75-7.35-19.18s-3.93,11.74,1,21.31a2.76,2.76,0,0,1,1.27-.4l.27-.16a13.43,13.43,0,0,1,4.32-1.39,2.53,2.53,0,0,1,.44-.18"/><path d="M672.43,89.33c-3.19-.5-6.54,17.11-6.62,19.19h.34a2.74,2.74,0,0,1,1.59.44,11.38,11.38,0,0,1,4.08,1.69c5.27-14.54,2.45-21.25.61-21.31"/></g></g><g class="cls-15"><g class="cls-15"><path d="M768.45,177.61a27.22,27.22,0,1,1,27.23-27.22,27.25,27.25,0,0,1-27.23,27.22"/><path d="M768.45,123.54a26.85,26.85,0,1,1-26.84,26.85,26.88,26.88,0,0,1,26.84-26.85m0-.75a27.6,27.6,0,1,0,27.6,27.6,27.6,27.6,0,0,0-27.6-27.6"/><rect x="757.11" y="119.39" width="22.69" height="15.12"/><path d="M779.42,134.13H757.49V119.76h21.93Zm.75-15.12H756.73v15.88h23.44Z"/><path d="M764.47,128.08s.2-16.26,11.55-17.77,11.34-9.07,11.34-9.07l2.27,1.51s-3,7.56-14.37,10.59c-8.32,1.51-7.76,14.74-7.76,14.74"/><path class="cls-10" d="M764.47,128.08s.2-16.26,11.55-17.77,11.34-9.07,11.34-9.07l2.27,1.51s-3,7.56-14.37,10.59c-8.32,1.51-7.76,14.74-7.76,14.74"/><path class="cls-7" d="M764,153.74c-3.29-6.21-2.19-13.51-.73-13.88s4,1.83,4.75,12.42h1.82c0-1.1,2.2-12.78,4.28-12.45,1.2,0,3,4.42-.44,13.91,2.37,1.46,6.21,9.78-4.84,9.64s-7.4-7.45-4.84-9.64"/></g></g><g class="cls-16"><g class="cls-16"><path d="M882.86,123.49a27.57,27.57,0,1,1-27.56,27.56,27.59,27.59,0,0,1,27.56-27.56m0-6.49a34.05,34.05,0,1,0,34,34.05,34.05,34.05,0,0,0-34-34.05"/><path d="M862.15,112.74l-18.64,18.64a2.23,2.23,0,0,0,3.15,3.15l18.64-18.65a2.22,2.22,0,0,0-3.15-3.14"/><path class="cls-17" d="M862.15,112.74l-18.64,18.64a2.23,2.23,0,0,0,3.15,3.15l18.64-18.65a2.22,2.22,0,0,0-3.15-3.14Z"/><path d="M903.46,112.91l18.64,18.64A2.23,2.23,0,1,1,919,134.7l-18.64-18.64a2.23,2.23,0,0,1,3.15-3.15"/><path class="cls-17" d="M903.46,112.91l18.64,18.64A2.23,2.23,0,1,1,919,134.7l-18.64-18.64a2.23,2.23,0,0,1,3.15-3.15Z"/><path d="M881.12,119.79c-1.52-22.06-6.85-26.62-9.9-25.86s-5.3,15.83,1.42,28.74a3.56,3.56,0,0,1,1.7-.54l.36-.21a17.78,17.78,0,0,1,5.83-1.88,5.22,5.22,0,0,1,.59-.25"/><path d="M893.87,93.85c-4.31-.67-8.81,23.08-8.93,25.87h.46a3.66,3.66,0,0,1,2.14.6,15.33,15.33,0,0,1,5.51,2.27c7.1-19.6,3.3-28.65.82-28.73"/></g></g><g class="cls-18"><g class="cls-18"><rect x="953.53" y="109.97" width="89.37" height="66.33" rx="5.63"/><path d="M1037.26,110.32a5.29,5.29,0,0,1,5.29,5.28v55.07a5.29,5.29,0,0,1-5.29,5.28h-78.1a5.29,5.29,0,0,1-5.28-5.28V115.6a5.29,5.29,0,0,1,5.28-5.28h78.1m0-.7h-78.1a6,6,0,0,0-6,6v55.07a6,6,0,0,0,6,6h78.1a6,6,0,0,0,6-6V115.6a6,6,0,0,0-6-6"/><rect class="cls-7" x="956.32" y="118.35" width="83.78" height="55.16" rx="5.63"/><path d="M1034.47,118.7a5.29,5.29,0,0,1,5.28,5.28v43.89a5.29,5.29,0,0,1-5.28,5.29H962a5.29,5.29,0,0,1-5.28-5.29V124A5.29,5.29,0,0,1,962,118.7h72.52m0-.7H962a6,6,0,0,0-6,6v43.89a6,6,0,0,0,6,6h72.52a6,6,0,0,0,6-6V124a6,6,0,0,0-6-6"/><path class="cls-7" d="M1019.16,116.25a2.09,2.09,0,1,1,2.09-2.09,2.1,2.1,0,0,1-2.09,2.09"/><path d="M1019.16,112.41a1.75,1.75,0,1,1-1.75,1.75,1.75,1.75,0,0,1,1.75-1.75m0-.69a2.44,2.44,0,1,0,2.44,2.44,2.45,2.45,0,0,0-2.44-2.44"/><path class="cls-7" d="M1025.44,116.25a2.09,2.09,0,1,1,2.1-2.09,2.1,2.1,0,0,1-2.1,2.09"/><path d="M1025.44,112.41a1.75,1.75,0,1,1-1.74,1.75,1.76,1.76,0,0,1,1.74-1.75m0-.69a2.44,2.44,0,1,0,2.45,2.44,2.44,2.44,0,0,0-2.45-2.44"/><path class="cls-7" d="M1031.73,116.25a2.09,2.09,0,1,1,2.09-2.09,2.1,2.1,0,0,1-2.09,2.09"/><path d="M1031.73,112.41a1.75,1.75,0,1,1-1.75,1.75,1.75,1.75,0,0,1,1.75-1.75m0-.69a2.44,2.44,0,1,0,2.44,2.44,2.45,2.45,0,0,0-2.44-2.44"/><path d="M993.1,150c-4.41-8.33-2.94-18.14-1-18.63s5.39,2.46,6.37,16.67h2.45c0-1.47,2.94-17.16,5.75-16.72,1.61,0,4.07,5.94-.6,18.68,3.19,2,8.34,13.13-6.49,12.94s-9.93-10-6.5-12.94"/></g></g><g class="cls-19"><polygon class="cls-7" points="1094.38 112.51 1103.08 173.41 1121.11 173.41 1129.77 112.51 1112.07 94.86 1094.38 112.51"/><polygon class="cls-20" points="1094.38 112.51 1103.08 173.41 1121.11 173.41 1129.77 112.51 1112.07 94.86 1094.38 112.51"/><rect class="cls-7" x="1094.38" y="173.41" width="35.76" height="3.87"/><rect class="cls-20" x="1094.38" y="173.41" width="35.76" height="3.87"/><g class="cls-19"><path d="M1108.58,124.86c-2.23-4.22-1.48-9.17-.49-9.42s2.72,1.24,3.22,8.42h1.24c0-.74,1.48-8.67,2.9-8.44.81,0,2.06,3-.3,9.44,1.61,1,4.21,6.63-3.28,6.53s-5-5-3.29-6.53"/></g></g><g class="cls-21"><g class="cls-21"><path d="M41.24,265.72c6.19-6.18,59.14-2.84,66.57,0s5.53,31.31,2.69,36-65.46,4.75-69.26,0-2.85-33.2,0-36"/><path class="cls-22" d="M41.24,265.72c6.19-6.18,59.14-2.84,66.57,0s5.53,31.31,2.69,36-65.46,4.75-69.26,0S38.39,268.57,41.24,265.72Z"/><path d="M74.52,266c-1.3-18.85-5.86-22.75-8.46-22.1s-4.53,13.53,1.21,24.55a3.14,3.14,0,0,1,1.46-.45,3.14,3.14,0,0,1,.31-.18,15.09,15.09,0,0,1,5-1.61,3.26,3.26,0,0,1,.5-.21"/><path d="M85.41,243.84c-3.67-.58-7.53,19.72-7.62,22.11h.39a3.16,3.16,0,0,1,1.83.51,12.88,12.88,0,0,1,4.71,1.95c6.06-16.75,2.82-24.49.69-24.56"/><polygon class="cls-7" points="71.03 277.21 71.03 290.33 82.39 283.77 71.03 277.21"/></g></g><g class="cls-23"><g class="cls-23"><path d="M195.18,250.93c-13.57,15.83-32.42,61.34,0,61.34s14.32-46.26,0-61.34"/><path class="cls-24" d="M195.18,250.93c-13.57,15.83-32.42,61.34,0,61.34S209.5,266,195.18,250.93Z"/><path class="cls-7" d="M205.77,279.88c-1.37-2.41-1.74-5.5-1.4-5.73s1.16.55,2.27,4.91l.45-.1c-.09-.45-.57-5.42,0-5.39.3-.05,1.14,1.67,1.11,5.8.72.48,2.41,3.73-.36,4.26s-2.5-2.71-2-3.75"/></g></g><g class="cls-25"><g class="cls-25"><path d="M272.89,312.91a1,1,0,0,1-.86-.49,1,1,0,0,1,0-1l37.82-65.5a1,1,0,0,1,.86-.49,1,1,0,0,1,.85.49l37.82,65.5a1,1,0,0,1,0,1,1,1,0,0,1-.86.49Z"/><path d="M310.71,245.76a.65.65,0,0,1,.56.33l37.82,65.5a.65.65,0,0,1,0,.66.65.65,0,0,1-.57.33H272.89a.65.65,0,0,1-.57-.33.65.65,0,0,1,0-.66l37.82-65.5a.66.66,0,0,1,.57-.33m0-.67a1.3,1.3,0,0,0-1.15.67l-37.82,65.5a1.33,1.33,0,0,0,1.15,2h75.63a1.33,1.33,0,0,0,1.15-2l-37.81-65.5a1.32,1.32,0,0,0-1.15-.67"/><path class="cls-7" d="M308,282.77c-1.39-7.32-.92-15.92-.31-16.36s1.69,2.16,2,14.64h.77c0-1.29.92-15.07,1.8-14.68.5,0,1.27,5.21-.19,16.4,1,1.72,2.62,11.52-2,11.35s-3.12-8.77-2-11.35"/><path class="cls-7" d="M312.18,300.5a2,2,0,1,1-2-2,2,2,0,0,1,2,2"/></g></g><g class="cls-26"><g class="cls-26"><path d="M447.39,315.81a1.38,1.38,0,0,1-.61-.18l-19.87-10.45a5,5,0,0,0-4.16,0l-19.87,10.45a1.34,1.34,0,0,1-.61.18.36.36,0,0,1-.31-.13,1,1,0,0,1-.1-.8l3.79-22.12a5,5,0,0,0-1.28-4l-16.08-15.66c-.29-.3-.43-.59-.37-.79s.35-.36.77-.42l22.21-3.23a4.92,4.92,0,0,0,3.36-2.44l9.94-20.13c.18-.37.42-.6.63-.6s.45.23.63.6l9.94,20.13a4.92,4.92,0,0,0,3.36,2.44L461,271.93c.41.06.7.22.76.42s-.07.49-.37.79L445.29,288.8a5,5,0,0,0-1.28,4l3.79,22.12a1,1,0,0,1-.1.8.36.36,0,0,1-.31.13"/><path d="M424.83,245.89a.92.92,0,0,1,.31.4l9.94,20.13a5.29,5.29,0,0,0,3.63,2.64l22.21,3.23a1,1,0,0,1,.48.16.83.83,0,0,1-.28.43L445,288.55a5.32,5.32,0,0,0-1.39,4.27l3.8,22.12a.85.85,0,0,1,0,.5h-.05a1,1,0,0,1-.44-.14l-19.87-10.45a5.29,5.29,0,0,0-4.49,0l-19.87,10.45a1,1,0,0,1-.45.14h0a.92.92,0,0,1,0-.51l3.8-22.12a5.32,5.32,0,0,0-1.39-4.27l-16.07-15.67a.91.91,0,0,1-.29-.41s.14-.13.48-.18L411,269.06a5.31,5.31,0,0,0,3.64-2.64l9.93-20.13a.92.92,0,0,1,.31-.4m0-.72c-.35,0-.69.27-.95.8l-9.94,20.13a4.6,4.6,0,0,1-3.09,2.25l-22.22,3.23c-1.17.17-1.44,1-.59,1.81l16.08,15.67a4.63,4.63,0,0,1,1.18,3.64l-3.8,22.12c-.14.85.18,1.35.77,1.35a1.72,1.72,0,0,0,.78-.22l19.87-10.45a4.55,4.55,0,0,1,3.82,0L446.61,316a1.72,1.72,0,0,0,.78.22c.59,0,.91-.5.77-1.35l-3.8-22.12a4.63,4.63,0,0,1,1.18-3.64l16.08-15.67c.85-.83.58-1.64-.59-1.81l-22.22-3.23a4.62,4.62,0,0,1-3.09-2.25L425.79,246c-.27-.53-.61-.8-1-.8"/><path d="M430,261.88c6.69-12.69,5.37-17,3.47-17.59s-8.27,7-9,16.34a2.17,2.17,0,0,1,1.1.28,2.43,2.43,0,0,1,.27,0,11.16,11.16,0,0,1,3.79.91,2,2,0,0,1,.41.06"/><path d="M445.71,251.8c-2.09-1.8-12.63,9.81-13.64,11.31l.25.15a2.28,2.28,0,0,1,1,1.05,9.62,9.62,0,0,1,2.2,3.09c10.51-8.46,11.55-14.72,10.23-15.6"/></g></g><g class="cls-27"><g class="cls-27"><path d="M531.42,323.23a1.82,1.82,0,0,1-2.56-.12l-32.19-35.47a1.82,1.82,0,0,1,.13-2.56l36.64-33.25a6.45,6.45,0,0,1,3.55-1.44l35.38-1.09a1.61,1.61,0,0,1,1.24.48,1.64,1.64,0,0,1,.46,1.24l-1.6,33a5.73,5.73,0,0,1-1.6,3.39Z"/><path d="M533.68,252.09a6.23,6.23,0,0,1,3.32-1.34l35.38-1.09a1.26,1.26,0,0,1,1.33,1.35l-1.6,33a5.37,5.37,0,0,1-1.48,3.13L531.18,323a1.44,1.44,0,0,1-2-.1l-32.19-35.47a1.45,1.45,0,0,1,.1-2.05l36.64-33.25m-.49-.53-36.64,33.25a2.19,2.19,0,0,0-.15,3.07l32.19,35.47a2.19,2.19,0,0,0,3.08.15l39.44-35.8a6,6,0,0,0,1.72-3.64l1.6-33a2,2,0,0,0-2.07-2.11L537,250a6.79,6.79,0,0,0-3.79,1.53"/><path class="cls-7" d="M562.15,261.41c-2.85-1-4.62-3.68-4.26-4.22s1.81-.58,5.12,2.59l.58-.53c-.32-.35-3-4.72-2.24-5.22.39-.33,2.25.54,3.89,4.57,1.18-.22,4.81,1.33,1.24,4.48s-4.51-.23-4.33-1.67"/></g></g><g class="cls-28"><polygon points="680.55 242.25 621.54 310.8 618.93 320.35 627.61 317.74 688.36 248.32 680.55 242.25"/><polygon class="cls-29" points="680.55 242.25 621.54 310.8 618.93 320.35 627.61 317.74 688.36 248.32 680.55 242.25"/><line class="cls-7" x1="620.6" y1="310.05" x2="628.57" y2="318.69"/><line class="cls-30" x1="620.6" y1="310.05" x2="628.57" y2="318.69"/><polygon class="cls-7" points="620.61 316.42 619.93 319.02 622.52 318.3 620.61 316.42"/><polygon class="cls-30" points="620.61 316.42 619.93 319.02 622.52 318.3 620.61 316.42"/><g class="cls-28"><path d="M683.5,245.64c5.72-8.21,5.14-11.33,3.85-11.93s-6.36,4.08-7.65,10.53a1.72,1.72,0,0,1,.75.29l.19,0a7.89,7.89,0,0,1,2.58,1,1,1,0,0,1,.28.08"/><path d="M694.69,240.11c-1.33-1.46-9.65,5.63-10.49,6.58l.17.13a1.65,1.65,0,0,1,.58.82,7,7,0,0,1,1.3,2.36c8.06-4.89,9.29-9.16,8.44-9.89"/></g></g><g class="cls-31"><g class="cls-31"><rect x="743.37" y="265.1" width="54.92" height="43.1" rx="1.62"/><path d="M796.67,265.44a1.27,1.27,0,0,1,1.27,1.27v39.87a1.27,1.27,0,0,1-1.27,1.27H745a1.27,1.27,0,0,1-1.27-1.27V266.71a1.27,1.27,0,0,1,1.27-1.27h51.68m0-.69H745a2,2,0,0,0-2,2v39.87a2,2,0,0,0,2,2h51.68a2,2,0,0,0,2-2V266.71a2,2,0,0,0-2-2"/><path class="cls-32" d="M748.58,267.18c0-10.73,10.58-24,21.9-24s21.9,10.1,21.9,22.72"/><path class="cls-7" d="M766.77,290.64c-2.68-6.62-1.79-14.42-.6-14.81s3.27,1.95,3.87,13.25h1.49c0-1.17,1.78-13.63,3.48-13.28,1,0,2.47,4.71-.36,14.84,1.93,1.56,5.06,10.43-3.94,10.28s-6-7.94-3.94-10.28"/></g></g><g class="cls-33"><g class="cls-33"><rect x="842.31" y="274.03" width="52.1" height="40.89" rx="1.53"/><path d="M892.88,274.36a1.21,1.21,0,0,1,1.2,1.21v37.81a1.21,1.21,0,0,1-1.2,1.21h-49a1.21,1.21,0,0,1-1.2-1.21V275.57a1.21,1.21,0,0,1,1.2-1.21h49m0-.66h-49a1.87,1.87,0,0,0-1.86,1.87v37.81a1.87,1.87,0,0,0,1.86,1.87h49a1.87,1.87,0,0,0,1.86-1.87V275.57a1.87,1.87,0,0,0-1.86-1.87"/><path class="cls-34" d="M927.71,276c0-10.18-10-22.75-20.77-22.75s-20.77,9.58-20.77,21.55"/><path class="cls-7" d="M864.5,298.26c-2.54-6.28-1.69-13.67-.56-14s3.1,1.85,3.67,12.56H869c0-1.11,1.69-12.93,3.31-12.6.92,0,2.34,4.47-.35,14.08,1.84,1.48,4.8,9.89-3.74,9.75s-5.71-7.53-3.74-9.75"/></g></g><g class="cls-35"><g class="cls-35"><path d="M1017.76,268.4a2.28,2.28,0,0,1-1.45-.49l-6.48-5.64a2.3,2.3,0,0,1-.64-2.13l2.75-10a3.27,3.27,0,0,1,1.62-1.86l9.4-4-5.54,6.36a2,2,0,0,0,.19,2.75l6.48,5.64a1.95,1.95,0,0,0,2.75-.19l5.54-6.36-2.71,9.87a3.3,3.3,0,0,1-1.62,1.86l-9.54,4.1a1.93,1.93,0,0,1-.75.14"/><path d="M1021.55,245.26l-4.42,5.07a2.34,2.34,0,0,0,.23,3.31l6.47,5.64a2.36,2.36,0,0,0,3.31-.23l4.41-5.07-2.25,8.21a2.94,2.94,0,0,1-1.41,1.61l-9.54,4.1a1.48,1.48,0,0,1-.59.11,1.9,1.9,0,0,1-1.2-.39l-6.47-5.64a2,2,0,0,1-.53-1.73l2.76-10a2.94,2.94,0,0,1,1.4-1.62l7.83-3.36m1.94-1.6a1.58,1.58,0,0,0-.54.15l-9.54,4.1a3.69,3.69,0,0,0-1.85,2.12l-2.75,10a2.71,2.71,0,0,0,.77,2.53l6.47,5.64a2.72,2.72,0,0,0,1.71.58,2.4,2.4,0,0,0,.9-.17l9.54-4.1a3.69,3.69,0,0,0,1.85-2.12l2.75-10c.13-.48.09-.73-.07-.73s-.31.13-.54.4l-5.64,6.48a1.57,1.57,0,0,1-1.18.53,1.6,1.6,0,0,1-1-.38l-6.47-5.64a1.56,1.56,0,0,1-.15-2.2l5.64-6.48c.39-.45.42-.71.13-.71"/><path d="M981.63,310.44a1.94,1.94,0,0,0-.19-2.75L975,302.05a2,2,0,0,0-1.28-.48,1.92,1.92,0,0,0-1.47.67l-5.54,6.36,2.71-9.87a3.26,3.26,0,0,1,1.62-1.86l9.54-4.1a1.93,1.93,0,0,1,.75-.14,2.34,2.34,0,0,1,1.45.48l6.47,5.64a2.33,2.33,0,0,1,.65,2.14l-2.75,10a3.28,3.28,0,0,1-1.63,1.86l-9.4,4Z"/><path d="M981.3,293a1.89,1.89,0,0,1,1.19.39l6.48,5.64a1.94,1.94,0,0,1,.52,1.73l-2.75,10a2.88,2.88,0,0,1-1.4,1.61l-7.83,3.37,4.42-5.07a2.35,2.35,0,0,0-.23-3.31l-6.47-5.64a2.36,2.36,0,0,0-3.31.23l-4.42,5.07,2.26-8.21a2.94,2.94,0,0,1,1.41-1.61l9.53-4.1a1.57,1.57,0,0,1,.6-.11m0-.78a2.19,2.19,0,0,0-.9.17l-9.54,4.1a3.69,3.69,0,0,0-1.85,2.12l-2.75,10c-.13.48-.1.73.07.73s.3-.13.54-.4l5.64-6.48a1.57,1.57,0,0,1,1.18-.53,1.52,1.52,0,0,1,1,.38l6.48,5.64a1.57,1.57,0,0,1,.15,2.2l-5.64,6.48c-.39.45-.42.71-.14.71a1.57,1.57,0,0,0,.55-.15l9.54-4.1a3.64,3.64,0,0,0,1.84-2.12l2.75-10a2.7,2.7,0,0,0-.76-2.53L983,292.82a2.72,2.72,0,0,0-1.71-.58"/><rect x="972.29" y="276.04" width="52.3" height="11.71" transform="translate(130.08 849.61) rotate(-48.94)"/><path d="M1011.24,258.88l8.24,7.18-33.84,38.85-8.24-7.18Zm-.08-1.1-34.86,40,9.41,8.21,34.87-40Z"/><path d="M1016.16,248.52c-4.44-7.38-7.1-8-8-7.22s1,6.43,5.58,9.72a1.41,1.41,0,0,1,.49-.48l.09-.14a7.13,7.13,0,0,1,1.69-1.69,1.45,1.45,0,0,1,.17-.19"/><path d="M1016,237.26c-1.61.53,1,9.57,1.49,10.56l.15-.08a1.36,1.36,0,0,1,.85-.17,6,6,0,0,1,2.32-.19c-1-8.06-3.93-10.53-4.81-10.12"/></g></g><g class="cls-36"><polygon points="1107.98 315.41 1105.96 307.87 1093.77 300.84 1086.07 302.9 1079.85 292.12 1086.58 285.38 1086.58 271.31 1079.62 264.35 1085.78 253.67 1093.74 255.81 1105.93 248.77 1108.11 240.66 1121.94 240.66 1124.13 248.82 1136.32 255.86 1144.04 253.79 1149.56 263.37 1141.62 271.31 1141.62 285.38 1149.33 293.1 1143.59 303.04 1135.38 300.84 1123.18 307.87 1121.17 315.41 1107.98 315.41"/><path d="M1121.58,241.13l2,7.62.11.38.33.2,11.86,6.84.34.2.37-.11,7.18-1.92,5.16,9-7.55,7.55-.27.27v14.47l.27.28,7.32,7.32-5.37,9.31-7.68-2.06-.38-.1-.34.19-11.85,6.85-.34.19-.1.38-1.88,7h-12.46l-1.87-7-.1-.38-.34-.19-11.85-6.85-.34-.19-.38.1-7.16,1.92-5.86-10.15,6.34-6.34.27-.28V271.11l-.27-.27-6.57-6.57,5.8-10,7.42,2,.38.1.34-.19,11.85-6.84.34-.2.1-.38,2-7.57Zm.73-.95h-14.57l-2.22,8.28-11.84,6.84-8.13-2.18-6.52,11.3,7.08,7.09v13.68l-6.85,6.85,6.58,11.41,7.86-2.11,11.86,6.85,2.06,7.69h13.91l2.06-7.69,11.85-6.85,8.38,2.25,6.11-10.57-7.84-7.83V271.51l8.07-8.07-5.89-10.2-7.88,2.11-11.85-6.84Z"/><g class="cls-36"><path class="cls-7" d="M1110,279.4c-3.26-5.63-2.17-12.24-.72-12.58s4,1.66,4.7,11.25h1.81c0-1,2.18-11.58,4.25-11.28,1.19,0,3,4-.44,12.61,2.35,1.32,6.16,8.85-4.8,8.73s-7.34-6.75-4.8-8.73"/></g></g><g class="cls-37"><g class="cls-37"><path class="cls-7" d="M75.26,405.24c-1.52-21.9-6.81-26.43-9.83-25.67s-5.26,15.71,1.4,28.52a3.48,3.48,0,0,1,1.69-.53c.12-.07.24-.15.37-.21a17.39,17.39,0,0,1,5.78-1.86,2.83,2.83,0,0,1,.59-.25"/><path class="cls-10" d="M75.26,405.24c-1.52-21.9-6.81-26.43-9.83-25.67s-5.26,15.71,1.4,28.52a3.48,3.48,0,0,1,1.69-.53c.12-.07.24-.15.37-.21a17.39,17.39,0,0,1,5.78-1.86A2.83,2.83,0,0,1,75.26,405.24Z"/><path class="cls-7" d="M87.91,379.49c-4.28-.67-8.75,22.9-8.86,25.68h.45a3.57,3.57,0,0,1,2.13.59A15.27,15.27,0,0,1,87.1,408c7-19.46,3.27-28.44.81-28.52"/><path class="cls-10" d="M87.91,379.49c-4.28-.67-8.75,22.9-8.86,25.68h.45a3.57,3.57,0,0,1,2.13.59A15.27,15.27,0,0,1,87.1,408C94.14,388.55,90.37,379.57,87.91,379.49Z"/><rect x="49.39" y="411.66" width="53.69" height="46.13"/><path d="M102.7,457.41H49.76V412H102.7Zm.75-46.13H49v46.88h54.44Z"/><rect x="39.56" y="404.85" width="73.35" height="13.61"/><path class="cls-7" d="M112.53,418.09H39.93V405.23h72.6Zm.75-13.62H39.18v14.37h74.1Z"/><rect class="cls-7" x="70.56" y="405.61" width="12.1" height="52.18"/><path d="M82.28,457.41H70.94V406H82.28ZM83,405.23H70.18v52.93H83Z"/></g></g><g class="cls-38"><g class="cls-38"><rect x="158.25" y="411.49" width="74.11" height="42.35" rx="1.19"/><path d="M231.16,411.87a.81.81,0,0,1,.81.81v40a.81.81,0,0,1-.81.81H159.44a.82.82,0,0,1-.82-.81v-40a.82.82,0,0,1,.82-.81h71.72m0-.76H159.44a1.57,1.57,0,0,0-1.57,1.57v40a1.57,1.57,0,0,0,1.57,1.57h71.72a1.57,1.57,0,0,0,1.57-1.57v-40a1.57,1.57,0,0,0-1.57-1.57"/><path d="M196.81,400.53a9.45,9.45,0,0,1,0,18.9h-5.29a9.45,9.45,0,0,1,0-18.9h5.29m0-3.78h-5.29a13.23,13.23,0,1,0,0,26.46h5.29a13.23,13.23,0,1,0,0-26.46"/><path d="M192.82,399.08c-1.12-16.12-5-19.46-7.24-18.9s-3.88,11.56,1,21a2.79,2.79,0,0,1,1.25-.39l.26-.15a12.82,12.82,0,0,1,4.26-1.37,2.14,2.14,0,0,1,.44-.18"/><path d="M202.13,380.12c-3.15-.49-6.44,16.86-6.52,18.91h.33a2.67,2.67,0,0,1,1.57.44,11.2,11.2,0,0,1,4,1.65c5.19-14.32,2.41-20.93.6-21"/></g></g><g class="cls-39"><g class="cls-39"><path class="cls-40" d="M280.35,456.83c-4.05-14.9,1-34.94,15.26-42.85s30.4.67,36.69,14.35c4.28,9.31,4.65,20.23,2.13,30.08"/><path d="M303.27,409c-1.73-25-7.78-30.19-11.23-29.33s-6,18,1.6,32.59a4.15,4.15,0,0,1,1.93-.61l.42-.24a20,20,0,0,1,6.61-2.12,4.51,4.51,0,0,1,.67-.29"/><path d="M323.77,381.08c-4.88-.77-10,26.17-10.12,29.34l.52,0a4.13,4.13,0,0,1,2.43.69,17.32,17.32,0,0,1,6.25,2.57c8-22.23,3.74-32.5.92-32.58"/></g></g><g class="cls-41"><g class="cls-41"><path d="M392.14,461.77a3.14,3.14,0,0,1-2.93-1.42,1.33,1.33,0,0,1,.25-1.48l23.26-27.59V391.74h-6.23c-1.13,0-2.09-.6-2.09-1.31v-1.51c0-.71,1-1.31,2.09-1.31h33.12c1.14,0,2.09.6,2.09,1.31v1.51c0,.71-.95,1.31-2.09,1.31h-7.42v39.52l23.28,27.61a1.32,1.32,0,0,1,.25,1.48,3.13,3.13,0,0,1-2.93,1.42Z"/><path d="M439.61,388c1,0,1.72.5,1.72.94v1.51c0,.44-.74.94-1.72.94h-7.79v40l.17.21,23.2,27.51a1,1,0,0,1,.19,1.08,2.82,2.82,0,0,1-2.59,1.21H392.14a2.82,2.82,0,0,1-2.59-1.21,1,1,0,0,1,.2-1.08l23.17-27.48.18-.21V391.37h-6.61c-1,0-1.72-.5-1.72-.94v-1.51c0-.44.74-.94,1.72-.94h33.12m0-.75H406.49c-1.36,0-2.46.76-2.46,1.69v1.51c0,.93,1.1,1.69,2.46,1.69h5.86v39l-23.17,27.48c-1.32,1.56.33,3.52,3,3.52h60.65c2.64,0,4.29-2,3-3.52l-23.2-27.51v-39h7.05c1.36,0,2.47-.76,2.47-1.69v-1.51c0-.93-1.11-1.69-2.47-1.69"/><path class="cls-7" d="M396.89,458a.9.9,0,0,1-.85-.56.92.92,0,0,1,.17-1L409.82,442h25.79l13.61,14.49a.92.92,0,0,1,.17,1,.9.9,0,0,1-.85.56Z"/><path d="M435.44,442.34l13.5,14.38a.55.55,0,0,1-.4.93H396.89a.53.53,0,0,1-.51-.33.55.55,0,0,1,.1-.6L410,442.34h25.45m.33-.75H409.66l-13.72,14.62a1.3,1.3,0,0,0,.95,2.19h51.65a1.3,1.3,0,0,0,.95-2.19Z"/><path d="M421.8,389.59c-1.18-17.08-5.31-20.62-7.67-20s-4.1,12.26,1.1,22.26a2.82,2.82,0,0,1,1.32-.42l.28-.16a13.7,13.7,0,0,1,4.51-1.45,2.67,2.67,0,0,1,.46-.2"/><path d="M430.93,369.5c-3.34-.53-6.83,17.87-6.92,20h.36A2.81,2.81,0,0,1,426,390a11.79,11.79,0,0,1,4.27,1.75c5.49-15.18,2.55-22.19.63-22.25"/></g></g><g class="cls-42"><polygon points="509.44 396.02 563.24 396.02 556.32 457.03 516.61 457.03 509.44 396.02"/><polygon class="cls-43" points="509.44 396.02 563.24 396.02 556.32 457.03 516.61 457.03 509.44 396.02"/><path d="M502,393.05h0Z"/><line class="cls-44" x1="502" y1="393.05" x2="572.28" y2="393.05"/><g class="cls-42"><path class="cls-44" d="M529.9,391.19c0-6,13.59-5.21,13.59,0"/><path d="M535.8,386.84c-.7-10.11-3.15-12.21-4.54-11.86s-2.43,7.26.65,13.17a1.67,1.67,0,0,1,.78-.24l.16-.1a8.15,8.15,0,0,1,2.67-.86l.28-.11"/><path d="M541.64,375c-2-.31-4,10.57-4.09,11.86h.21a1.6,1.6,0,0,1,1,.28,6.79,6.79,0,0,1,2.52,1c3.26-9,1.52-13.14.38-13.17"/></g></g><g class="cls-45"><g class="cls-45"><rect x="619.03" y="414.57" width="68.33" height="30.76" rx="4.66"/><path d="M682.7,415a4.28,4.28,0,0,1,4.28,4.28v21.44A4.28,4.28,0,0,1,682.7,445h-59a4.28,4.28,0,0,1-4.27-4.28V419.23a4.28,4.28,0,0,1,4.27-4.28h59m0-.77h-59a5,5,0,0,0-5,5.05v21.44a5,5,0,0,0,5,5.05h59a5,5,0,0,0,5-5.05V419.23a5,5,0,0,0-5-5.05"/><polygon class="cls-46" points="670.99 397.34 634.64 397.34 625.55 412.75 680.84 412.75 670.99 397.34"/><path d="M631.12,456.08h-5.76a.18.18,0,0,1-.19-.19V444.75a.19.19,0,0,1,.19-.19h5.76a.19.19,0,0,1,.19.19v11.14a.18.18,0,0,1-.19.19"/><rect class="cls-46" x="625.17" y="444.56" width="6.14" height="11.52" rx="0.19"/><path d="M681,456.08h-5.76a.18.18,0,0,1-.19-.19V444.75a.19.19,0,0,1,.19-.19H681a.2.2,0,0,1,.19.19v11.14a.19.19,0,0,1-.19.19"/><rect class="cls-46" x="675.08" y="444.56" width="6.14" height="11.52" rx="0.19"/><path class="cls-7" d="M626.85,424.79c-1.58-2.42-1.06-5.27-.35-5.42s1.93.72,2.29,4.85h.88c0-.43,1.05-5,2.06-4.86.58,0,1.46,1.72-.21,5.43,1.14.57,3,3.81-2.34,3.75s-3.56-2.9-2.33-3.75"/><path class="cls-7" d="M674.65,424.83c-1.58-2.62-1.06-5.71-.35-5.86s1.93.77,2.29,5.25h.88c0-.47,1-5.4,2.06-5.27.58,0,1.46,1.87-.21,5.88,1.14.62,3,4.13-2.34,4.08s-3.56-3.15-2.33-4.08"/></g></g><g class="cls-47"><g class="cls-47"><path d="M746.62,391.16a1.91,1.91,0,0,0-1.74,1.57s-7.21,48.64-7.21,57.92,66.55,7.43,66.24,0-7.79-57.92-7.79-57.92a1.91,1.91,0,0,0-1.74-1.57Z"/><path class="cls-48" d="M746.62,391.16a1.91,1.91,0,0,0-1.74,1.57s-7.21,48.64-7.21,57.92,66.55,7.43,66.24,0-7.79-57.92-7.79-57.92a1.91,1.91,0,0,0-1.74-1.57Z"/><path d="M751.13,463h-5.38a.19.19,0,0,1-.19-.19V452.7a.2.2,0,0,1,.19-.19h5.38a.19.19,0,0,1,.18.19v10.12a.18.18,0,0,1-.18.19"/><rect class="cls-49" x="745.56" y="452.51" width="5.75" height="10.5" rx="0.19"/><path d="M796,463h-5.38a.19.19,0,0,1-.19-.19V452.7a.2.2,0,0,1,.19-.19H796a.19.19,0,0,1,.18.19v10.12a.18.18,0,0,1-.18.19"/><rect class="cls-49" x="790.42" y="452.51" width="5.75" height="10.5" rx="0.19"/><path class="cls-7" d="M746.86,435c-1.58-2.62-1.05-5.7-.35-5.85s1.93.77,2.28,5.23h.88c0-.46,1.05-5.38,2.05-5.24.58,0,1.46,1.86-.21,5.86,1.14.62,3,4.12-2.33,4.06s-3.55-3.14-2.32-4.06"/><path class="cls-7" d="M789.57,435c-1.58-2.62-1.05-5.7-.35-5.85s1.93.77,2.28,5.23h.88c0-.46,1.06-5.38,2.06-5.24.58,0,1.46,1.86-.21,5.86,1.14.62,3,4.12-2.33,4.06s-3.55-3.14-2.33-4.06"/><path class="cls-7" d="M753.51,399.59a2.25,2.25,0,0,0-2,1.49s-5,16.64-5,20,49.21,2.68,49,0-5.48-20-5.48-20a2.24,2.24,0,0,0-2-1.49Z"/><path class="cls-48" d="M753.51,399.59a2.25,2.25,0,0,0-2,1.49s-5,16.64-5,20,49.21,2.68,49,0-5.48-20-5.48-20a2.24,2.24,0,0,0-2-1.49Z"/><path class="cls-7" d="M786.68,397.72H755.53a1.14,1.14,0,0,1-1.14-1.14v-1.43a1.14,1.14,0,0,1,1.14-1.14h31.15a1.14,1.14,0,0,1,1.14,1.14v1.43a1.14,1.14,0,0,1-1.14,1.14"/><rect class="cls-48" x="754.39" y="394.01" width="33.43" height="3.71" rx="1.14"/></g></g><g class="cls-50"><g class="cls-50"><path d="M858.89,399.81c5.38-3.07,40.38-3.84,49,0,.17,8.46,0,48.41,0,48.41-10.58,2.31-45.93,1.54-49,0Z"/><path class="cls-51" d="M858.89,399.81c5.38-3.07,40.38-3.84,49,0,.17,8.46,0,48.41,0,48.41-10.58,2.31-45.93,1.54-49,0Z"/><path class="cls-7" d="M905,402.5c0,1.49-9.8,2.69-21.9,2.69s-21.9-1.2-21.9-2.69,9.81-2.69,21.9-2.69S905,401,905,402.5"/><ellipse class="cls-51" cx="883.09" cy="402.5" rx="21.9" ry="2.69"/><rect class="cls-52" x="901.92" y="412.11" width="20.75" height="25.36" rx="4.93"/><path d="M915.74,411.62c-.61-10.36-2.76-12.5-4-12.15s-2.14,7.44.57,13.5a1.24,1.24,0,0,1,.68-.25l.15-.1a6.36,6.36,0,0,1,2.34-.88,1.34,1.34,0,0,1,.24-.12"/><path d="M920.2,399.44c-1.74-.32-3.55,10.84-3.6,12.15h.19a1.28,1.28,0,0,1,.86.29,5.71,5.71,0,0,1,2.22,1.06c2.85-9.2,1.33-13.46.33-13.49"/></g></g><g class="cls-53"><rect x="997.7" y="411" width="4.49" height="56.54"/><path d="M1001.84,467.19h-3.79V411.36h3.79Zm.71-56.55h-5.21V467.9h5.21Z"/><rect x="971.02" y="392.13" width="57.84" height="28.57"/><path d="M1028.51,420.34H971.38V392.49h57.13Zm.71-28.56H970.67v29.27h58.55Z"/><g class="cls-53"><path d="M998.62,392.67c-1.18-17.07-5.3-20.61-7.66-20s-4.11,12.25,1.09,22.24a2.85,2.85,0,0,1,1.32-.41l.28-.17a13.94,13.94,0,0,1,4.51-1.45,3.71,3.71,0,0,1,.46-.19"/><path d="M1008.48,372.59c-3.33-.52-6.82,17.86-6.9,20h.35a2.85,2.85,0,0,1,1.66.46,11.86,11.86,0,0,1,4.26,1.76c5.5-15.17,2.56-22.18.63-22.24"/></g></g><g class="cls-54"><g class="cls-54"><path d="M1083,432.31a11.51,11.51,0,0,1,0-23h61.6a11.51,11.51,0,0,1,0,23Z"/><path d="M1144.63,409.63a11.17,11.17,0,0,1,0,22.34H1083a11.17,11.17,0,0,1,0-22.34h61.6m0-.68H1083a11.85,11.85,0,0,0,0,23.7h61.6a11.85,11.85,0,0,0,0-23.7"/><rect class="cls-7" x="1098.6" y="412.1" width="29.78" height="17.39" rx="1.38"/><path d="M1127,412.44a1,1,0,0,1,1,1v14.64a1,1,0,0,1-1,1h-27a1,1,0,0,1-1-1V413.48a1,1,0,0,1,1-1h27m0-.68h-27a1.72,1.72,0,0,0-1.72,1.72v14.64a1.71,1.71,0,0,0,1.72,1.71h27a1.71,1.71,0,0,0,1.71-1.71V413.48a1.72,1.72,0,0,0-1.71-1.72"/><path d="M1083.58,414.93a1,1,0,0,0,0-2,1,1,0,0,0,0,2"/><path d="M1143.28,414.73a1,1,0,0,0,0-2,1,1,0,0,0,0,2"/><path class="cls-7" d="M1134.49,415.24c-.43-.81-.29-1.76-.1-1.81s.53.24.62,1.62h.24c0-.15.28-1.67.55-1.62s.4.57,0,1.81c.31.19.81,1.27-.63,1.25s-1-1-.63-1.25"/><path class="cls-7" d="M1086.43,424.71c-.42-.81-.28-1.75-.09-1.8s.52.24.62,1.61h.23c0-.14.29-1.66.56-1.62s.39.58-.06,1.81c.31.19.81,1.27-.63,1.26s-1-1-.63-1.26"/><path class="cls-7" d="M1093.2,428.1c-.42-.81-.28-1.76-.09-1.81s.52.24.61,1.62h.24c0-.15.29-1.67.56-1.62s.39.57-.06,1.81c.31.19.81,1.27-.63,1.25s-1-1-.63-1.25"/><path class="cls-7" d="M1091.85,413.88c-.43-.81-.29-1.76-.1-1.8s.53.23.62,1.61h.24c0-.14.28-1.66.56-1.62s.39.58-.06,1.81c.31.19.81,1.27-.63,1.26s-1-1-.63-1.26"/><path class="cls-7" d="M1138.55,428.1c-.42-.81-.28-1.76-.09-1.81s.52.24.62,1.62h.23c0-.15.29-1.67.56-1.62s.4.57-.06,1.81c.31.19.81,1.27-.63,1.25s-1-1-.63-1.25"/><path class="cls-7" d="M1147.35,426.74c-.42-.8-.28-1.75-.09-1.8s.52.24.62,1.61h.23c0-.14.29-1.66.56-1.62s.4.58-.06,1.81c.31.19.81,1.27-.63,1.26s-1-1-.63-1.26"/><path class="cls-7" d="M1132.46,424.71c-.43-.81-.28-1.75-.09-1.8s.52.24.61,1.61h.24c0-.14.29-1.66.56-1.62s.39.58-.06,1.81c.31.19.81,1.27-.63,1.26s-1-1-.63-1.26"/><path class="cls-7" d="M1141.94,420.65c-.43-.81-.29-1.76-.1-1.8s.53.23.62,1.61h.24c0-.14.28-1.66.56-1.62s.39.58-.06,1.81c.31.19.81,1.27-.63,1.25s-1-1-.63-1.25"/><path class="cls-7" d="M1149.38,416.59c-.42-.81-.28-1.76-.09-1.81s.52.24.62,1.62h.23c0-.14.29-1.66.56-1.62s.4.57-.06,1.81c.31.19.81,1.27-.63,1.25s-1-1-.63-1.25"/><path class="cls-7" d="M1077.1,425.39c-.43-.81-.29-1.76-.1-1.81s.53.24.62,1.62h.24c0-.14.28-1.66.56-1.62s.39.57-.06,1.81c.31.19.81,1.27-.63,1.25s-1-1-.63-1.25"/><path class="cls-7" d="M1081.16,416.59c-.43-.81-.28-1.76-.09-1.81s.52.24.61,1.62h.24c0-.14.29-1.66.56-1.62s.39.57-.06,1.81c.31.19.81,1.27-.63,1.25s-1-1-.63-1.25"/></g></g><g class="cls-55"><polygon points="89.94 567.93 35.77 567.93 35.77 555.63 89.94 555.63 89.94 541.58 124.37 561.46 89.94 581.34 89.94 567.93"/><path d="M90.3,542.21l33.35,19.25L90.3,580.72V567.57H36.13V556H90.3V542.21ZM89.58,541v14.31H35.41v13H89.58V582l35.52-20.51Z"/><g class="cls-55"><path d="M48,561.24c-.43-21-4.15-25.44-6.38-24.79s-4.32,14.91.15,27.31A2.21,2.21,0,0,1,43,563.3a2.69,2.69,0,0,1,.27-.2,11,11,0,0,1,4.27-1.64,1.81,1.81,0,0,1,.44-.22"/><path d="M55.11,536.42c-3.12-.62-6.18,22-6.23,24.63l.33,0a2.17,2.17,0,0,1,1.55.56,9.73,9.73,0,0,1,4,2.12c5-18.66,2.14-27.24.34-27.29"/></g></g><g class="cls-56"><g class="cls-56"><path d="M170.37,581a20,20,0,1,1,0-40h50.49a20,20,0,1,1,0,40Z"/><path d="M220.86,541.38a19.64,19.64,0,1,1,0,39.27H170.37a19.64,19.64,0,1,1,0-39.27h50.49m0-.7H170.37a20.34,20.34,0,1,0,0,40.67h50.49a20.34,20.34,0,1,0,0-40.67"/><path class="cls-7" d="M220.86,580.3A19.29,19.29,0,1,1,240.15,561a19.31,19.31,0,0,1-19.29,19.29"/><path d="M220.86,542.08A18.94,18.94,0,1,1,201.93,561a19,19,0,0,1,18.93-18.93m0-.7A19.64,19.64,0,1,0,240.5,561a19.64,19.64,0,0,0-19.64-19.63"/><path d="M219.06,541.86c-1.41-20.31-6.31-24.51-9.11-23.81s-4.89,14.57,1.3,26.45a3.3,3.3,0,0,1,1.56-.49,3.79,3.79,0,0,1,.34-.2,16.25,16.25,0,0,1,5.36-1.72,3,3,0,0,1,.55-.23"/><path d="M230.79,518c-4-.62-8.11,21.24-8.22,23.81H223a3.33,3.33,0,0,1,2,.56,14,14,0,0,1,5.07,2.09c6.53-18,3-26.38.75-26.45"/></g></g><g class="cls-57"><g class="cls-57"><path class="cls-7" d="M284.81,578.81a19.2,19.2,0,0,1,0-38.4h49.37a19.2,19.2,0,0,1,0,38.4Z"/><path d="M334.18,541.1a18.52,18.52,0,1,1,0,37H284.81a18.52,18.52,0,0,1,0-37h49.37m0-1.37H284.81a19.89,19.89,0,0,0,0,39.77h49.37a19.89,19.89,0,1,0,0-39.77"/><path class="cls-7" d="M284.81,578.13a18.52,18.52,0,1,1,18.52-18.52,18.53,18.53,0,0,1-18.52,18.52"/><path d="M284.81,541.78A17.83,17.83,0,1,1,267,559.61a17.85,17.85,0,0,1,17.83-17.83m0-1.37a19.2,19.2,0,1,0,19.2,19.2,19.2,19.2,0,0,0-19.2-19.2"/><path d="M282,541.1c-1.38-19.85-6.17-24-8.92-23.27s-4.77,14.24,1.28,25.86a3.18,3.18,0,0,1,1.53-.48l.33-.19a15.71,15.71,0,0,1,5.24-1.69,2.92,2.92,0,0,1,.54-.23"/><path d="M293.44,517.76c-3.87-.61-7.93,20.77-8,23.28h.41a3.29,3.29,0,0,1,1.93.54,13.75,13.75,0,0,1,5,2c6.39-17.64,3-25.79.73-25.86"/></g></g><g class="cls-58"><g class="cls-58"><path d="M404.8,542.91a2.56,2.56,0,0,1,0-5.12h56.35a2.56,2.56,0,0,1,0,5.12Z"/><path d="M461.15,538.15a2.2,2.2,0,1,1,0,4.39H404.8a2.2,2.2,0,0,1,0-4.39h56.35m0-.73H404.8a2.93,2.93,0,0,0,0,5.85h56.35a2.93,2.93,0,1,0,0-5.85"/><path d="M404.8,583.16a2.57,2.57,0,0,1,0-5.13h56.35a2.57,2.57,0,0,1,0,5.13Z"/><path d="M461.15,578.4a2.2,2.2,0,1,1,0,4.39H404.8a2.2,2.2,0,0,1,0-4.39h56.35m0-.73H404.8a2.93,2.93,0,0,0,0,5.85h56.35a2.93,2.93,0,1,0,0-5.85"/><path d="M404.8,562.67a2.57,2.57,0,0,1,0-5.13h56.35a2.57,2.57,0,0,1,0,5.13Z"/><path d="M461.15,557.91a2.2,2.2,0,1,1,0,4.39H404.8a2.2,2.2,0,0,1,0-4.39h56.35m0-.73H404.8a2.93,2.93,0,0,0,0,5.85h56.35a2.93,2.93,0,1,0,0-5.85"/><path d="M390.09,541.72c-1.69-2.72-1.13-5.92-.38-6.08s2.06.8,2.44,5.44h.94c0-.48,1.12-5.6,2.19-5.46.62,0,1.56,1.94-.22,6.1,1.21.64,3.19,4.28-2.49,4.22s-3.8-3.26-2.48-4.22"/><path d="M390,560.75c-1.69-2.72-1.13-5.92-.38-6.08s2.06.8,2.44,5.43H393c0-.47,1.12-5.59,2.19-5.45.62,0,1.56,1.94-.22,6.1,1.21.63,3.18,4.28-2.49,4.22s-3.8-3.27-2.48-4.22"/><path d="M390,579.77c-1.69-2.72-1.13-5.92-.38-6.08s2.06.8,2.44,5.44H393c0-.48,1.12-5.6,2.19-5.45.62,0,1.56,1.93-.22,6.09,1.21.64,3.18,4.28-2.49,4.22s-3.8-3.26-2.48-4.22"/></g></g><g class="cls-59"><g class="cls-59"><path d="M538.24,549.76c-.65-9.42-2.93-11.38-4.23-11s-2.27,6.76.61,12.28a1.46,1.46,0,0,1,.72-.23l.16-.09a7.38,7.38,0,0,1,2.49-.8l.25-.11"/><path d="M543.69,538.68c-1.84-.29-3.77,9.86-3.82,11.05h.2a1.56,1.56,0,0,1,.92.25,6.53,6.53,0,0,1,2.35,1c3-8.37,1.41-12.24.35-12.27"/><rect class="cls-7" x="504.15" y="549.74" width="70.84" height="24.35"/><path d="M574.25,573.35H504.89V550.48h69.36ZM575,549H504.15a.74.74,0,0,0-.74.74v24.35a.74.74,0,0,0,.74.74H575a.75.75,0,0,0,.74-.74V549.74A.74.74,0,0,0,575,549"/><rect class="cls-7" x="575.73" y="556.38" width="2.21" height="11.81"/><path d="M577.2,567.45h-.74V557.12h.74Zm.74-11.81h-2.21a.74.74,0,0,0-.74.74v11.81a.74.74,0,0,0,.74.73h2.21a.74.74,0,0,0,.74-.73V556.38a.74.74,0,0,0-.74-.74"/><rect x="505.99" y="551.58" width="67.15" height="20.66" rx="0.37"/><path d="M572.77,571.87H506.36V552h66.41Zm0-20.66H506.36a.74.74,0,0,0-.73.74v19.92a.74.74,0,0,0,.73.74h66.41a.74.74,0,0,0,.74-.74V552a.74.74,0,0,0-.74-.74"/></g></g><g class="cls-60"><g class="cls-60"><path d="M655.65,550.62c-.65-9.35-2.91-11.29-4.2-11s-2.25,6.71.6,12.18a1.61,1.61,0,0,1,.72-.22l.15-.09a7.42,7.42,0,0,1,2.47-.8,1.17,1.17,0,0,1,.26-.1"/><path d="M661.05,539.62c-1.83-.29-3.74,9.78-3.79,11h.2a1.53,1.53,0,0,1,.91.26,6.25,6.25,0,0,1,2.33,1c3-8.31,1.4-12.15.35-12.18"/><rect class="cls-7" x="621.83" y="550.59" width="70.25" height="24.15"/><path d="M691.36,574H622.57V551.32h68.79Zm.73-24.15H621.83a.73.73,0,0,0-.73.73v24.15a.73.73,0,0,0,.73.73h70.26a.73.73,0,0,0,.73-.73V550.59a.73.73,0,0,0-.73-.73"/><rect class="cls-7" x="692.82" y="556.45" width="2.2" height="11.71"/><path d="M694.28,567.42h-.73V557.18h.73Zm.73-11.71h-2.19a.74.74,0,0,0-.73.74v11.7a.74.74,0,0,0,.73.74H695a.74.74,0,0,0,.74-.74v-11.7a.74.74,0,0,0-.74-.74"/><line class="cls-61" x1="627.32" y1="531.93" x2="687.33" y2="588.28"/><path d="M624,572.91a.37.37,0,0,1-.37-.36V552.79a.37.37,0,0,1,.74,0v19.76a.37.37,0,0,1-.37.36"/><path d="M624,552.06a.73.73,0,0,0-.73.73v19.76a.73.73,0,0,0,1.46,0V552.79a.73.73,0,0,0-.73-.73"/></g></g><g class="cls-62"><g class="cls-62"><path d="M766,549.76c-.65-9.42-2.93-11.38-4.23-11s-2.27,6.76.6,12.28a1.54,1.54,0,0,1,.73-.23l.16-.09a7.38,7.38,0,0,1,2.49-.8l.25-.11"/><path d="M771.47,538.68c-1.83-.29-3.76,9.86-3.81,11.05h.2a1.53,1.53,0,0,1,.91.25,6.58,6.58,0,0,1,2.36,1c3-8.37,1.41-12.24.34-12.27"/><rect class="cls-7" x="731.94" y="549.74" width="70.84" height="24.35"/><path d="M802,573.35H732.67V550.48H802Zm.73-24.35H731.94a.74.74,0,0,0-.74.74v24.35a.74.74,0,0,0,.74.74h70.83a.74.74,0,0,0,.74-.74V549.74a.74.74,0,0,0-.74-.74"/><rect class="cls-7" x="803.51" y="556.38" width="2.21" height="11.81"/><path d="M805,567.45h-.74V557.12H805Zm.74-11.81h-2.22a.74.74,0,0,0-.74.74v11.81a.74.74,0,0,0,.74.73h2.22a.73.73,0,0,0,.73-.73V556.38a.74.74,0,0,0-.73-.74"/><rect x="733.78" y="551.58" width="67.15" height="20.66" rx="0.37"/><path d="M800.56,571.87H734.15V552h66.41Zm0-20.66H734.15a.74.74,0,0,0-.74.74v19.92a.74.74,0,0,0,.74.74h66.41a.74.74,0,0,0,.74-.74V552a.74.74,0,0,0-.74-.74"/><polygon class="cls-7" points="772.87 554.34 760.53 560.88 766.7 564.8 760.53 570.7 772.87 564.37 767.66 560.88 772.87 554.34"/><polygon class="cls-63" points="772.87 554.34 760.53 560.88 766.7 564.8 760.53 570.7 772.87 564.37 767.66 560.88 772.87 554.34"/></g></g><g class="cls-64"><rect x="879.07" y="525.66" width="5.12" height="79.77"/><path d="M883.83,605.06h-4.39V526h4.39Zm.73-79.77h-5.85v80.5h5.85Z"/><polygon points="884.79 525.46 921.78 546.13 884.21 567.83 884.79 525.46"/><path d="M885.15,526.08,921,546.14l-36.46,21.05Zm-.72-1.24-.6,43.63,38.69-22.34Z"/><g class="cls-64"><path d="M878.84,521c-2-3.67-1.3-8-.43-8.21s2.37,1.08,2.81,7.35h1.08c0-.65,1.29-7.57,2.53-7.37.71,0,1.79,2.61-.26,8.23,1.4.87,3.67,5.79-2.87,5.7s-4.37-4.4-2.86-5.7"/></g></g><g class="cls-65"><polygon points="976.75 598.09 1000.8 577.38 1024.86 598.09 976.75 598.09"/><path d="M1000.8,577.83l23.12,19.91H977.68Zm0-.91-25,21.52h50Z"/><line class="cls-66" x1="964.41" y1="585.95" x2="1037.89" y2="567.89"/><g class="cls-65"><path d="M967,566.17c-8.49-10.3-9.23-24.32-6.65-25.56s8.17,1.87,13.57,21.31l3.4-.7c-.41-2-.79-24.63,3.22-24.82,2.25-.39,7.33,7.07,4.49,26.08,5,1.82,15.29,15.84-5.34,19.79s-16.61-11-12.69-16.1"/><path d="M1019.34,560.5c-5.54-6.21-6.34-14.92-4.77-15.76s5.14,1,9,12.94l2.1-.52c-.31-1.25-1.09-15.31,1.4-15.53,1.39-.29,4.74,4.23,3.43,16.13,3.14,1,9.9,9.49-2.84,12.45s-10.62-6.47-8.29-9.71"/></g></g><g class="cls-67"><g class="cls-67"><rect x="1085.47" y="517.18" width="58.29" height="86.33" rx="0.17"/><path d="M1143.4,603.15h-57.56v-85.6h57.56Zm.19-86.34h-57.95a.54.54,0,0,0-.54.54v86a.55.55,0,0,0,.54.55h57.95a.55.55,0,0,0,.54-.55v-86a.54.54,0,0,0-.54-.54"/><path class="cls-7" d="M1092.75,560.12c-1.23-2.17-.82-4.73-.27-4.86s1.5.64,1.78,4.35h.68c0-.38.82-4.48,1.6-4.37.45,0,1.14,1.55-.16,4.88.89.52,2.33,3.43-1.82,3.38s-2.77-2.61-1.81-3.38"/></g></g><g class="cls-68"><g class="cls-68"><path d="M55.4,688.15c0-9.93,12.41-23.59,22.35-23.59s22.82,11.17,22.82,23.59-14.13,26.08-14.13,33.53v11.17H70V721.68c0-7.45-14.59-22.35-14.59-33.53"/><path class="cls-69" d="M55.4,688.15c0-9.93,12.41-23.59,22.35-23.59s22.82,11.17,22.82,23.59-14.13,26.08-14.13,33.53v11.17H70V721.68C70,714.23,55.4,699.33,55.4,688.15Z"/><path d="M70.3,735.34h16c0,9.93-16,9.93-16,0"/><path class="cls-69" d="M70.3,735.34h16C86.26,745.27,70.3,745.27,70.3,735.34Z"/><path class="cls-7" d="M75,723.72c-1.92-6.17-1.28-13.43-.42-13.79s2.34,1.81,2.77,12.34h1.06c0-1.09,1.28-12.71,2.5-12.38.7,0,1.77,4.39-.25,13.83,1.38,1.45,3.62,9.72-2.83,9.58s-4.32-7.4-2.83-9.58"/><line class="cls-69" x1="86.44" y1="663.32" x2="88.92" y2="654.62"/><line class="cls-69" x1="91.41" y1="664.56" x2="96.37" y2="657.11"/><line class="cls-69" x1="95.13" y1="668.28" x2="102.58" y2="662.07"/></g></g><g class="cls-70"><polygon class="cls-71" points="165.12 691.96 174.47 674.19 224.44 674.19 216.24 691.96 216.56 725.62 165.12 725.62 165.12 691.96"/><line class="cls-71" x1="165.59" y1="691.96" x2="216.24" y2="691.96"/><polyline class="cls-71" points="224.44 674.19 224.44 708.22 216.56 725.62"/><g class="cls-70"><path d="M187.5,711.27c-2.42-4.57-1.61-9.95-.54-10.21s3,1.34,3.5,9.13h1.34c0-.8,1.61-9.4,3.15-9.16.88,0,2.23,3.25-.32,10.24,1.74,1.07,4.56,7.19-3.57,7.09s-5.44-5.48-3.56-7.09"/></g></g><g class="cls-72"><g class="cls-72"><path d="M306.89,744.5c-10.25,0-18.6-15.52-18.6-34.6s8.35-34.6,18.6-34.6,18.6,15.52,18.6,34.6-8.34,34.6-18.6,34.6"/><path d="M306.89,675.68c10.05,0,18.23,15.35,18.23,34.22s-8.18,34.22-18.23,34.22-18.22-15.35-18.22-34.22,8.17-34.22,18.22-34.22m0-.75c-10.47,0-19,15.66-19,35s8.5,35,19,35,19-15.66,19-35-8.5-35-19-35"/><polyline class="cls-73" points="289.41 697.62 280.42 697.62 276.6 690.53"/><polyline class="cls-73" points="324.59 697.28 333.9 697.28 337.61 690.18"/><polyline class="cls-73" points="290.9 724.41 283.22 724.41 278.96 718.06"/><polyline class="cls-73" points="322.89 724.41 331.54 724.41 335.04 718.06"/><path d="M306,680.25c-1.09-19.06-4.89-23-7.06-22.35s-3.78,13.68,1,24.84a2.36,2.36,0,0,1,1.22-.47l.26-.18a11,11,0,0,1,4.15-1.62,1.93,1.93,0,0,1,.43-.22"/><path d="M315.1,657.83c-3.07-.58-6.28,19.95-6.36,22.36h.32a2.29,2.29,0,0,1,1.53.52,9.92,9.92,0,0,1,3.93,2c5.06-16.95,2.35-24.77.58-24.84"/><polyline class="cls-73" points="325.12 711.02 333.77 711.02 337.27 704.67"/><polyline class="cls-73" points="288.67 711.02 280.01 711.02 276.52 704.67"/></g></g><g class="cls-74"><g class="cls-74"><rect x="389.2" y="685" width="66.76" height="41.26" rx="0.38"/><path d="M455.59,725.88h-66v-40.5h66Zm0-41.25h-66a.75.75,0,0,0-.75.75v40.5a.74.74,0,0,0,.75.75h66a.75.75,0,0,0,.75-.75v-40.5a.76.76,0,0,0-.75-.75"/><path d="M409,684.63l6.65-6.6a2.12,2.12,0,0,1,1.29-.53h11.42a2.2,2.2,0,0,1,1.29.52l6.88,6.61"/><path class="cls-75" d="M409,684.63l6.65-6.6a2.12,2.12,0,0,1,1.29-.53h11.42a2.2,2.2,0,0,1,1.29.52l6.88,6.61"/><path d="M436.46,706a14.26,14.26,0,1,1-14.25-14.26A14.25,14.25,0,0,1,436.46,706"/><circle class="cls-76" cx="422.21" cy="706.01" r="14.25"/><path class="cls-7" d="M446.13,691.94c-1.28-2.4-.85-5.23-.29-5.37s1.56.71,1.84,4.81h.71c0-.43.85-5,1.66-4.83.46,0,1.17,1.72-.17,5.39.92.57,2.4,3.79-1.88,3.74s-2.86-2.89-1.87-3.74"/></g></g><g class="cls-77"><g class="cls-77"><path d="M510.14,725.22v-8.3c7.32-2.56,11.86-7.56,11.86-13.08s-4.54-10.51-11.86-13.08V683h59.31v7.12c-8.44,2.21-14.09,7.72-14.09,13.76s5.65,11.55,14.09,13.76v7.62Z"/><path d="M569.08,683.33v6.47c-8.58,2.32-14.09,7.79-14.09,14s5.51,11.72,14.09,14v7H510.51v-7.67c7.33-2.64,11.86-7.72,11.86-13.34s-4.53-10.69-11.86-13.34v-7.17h58.57m.74-.74H509.77V691c7,2.39,11.86,7.23,11.86,12.81s-4.82,10.42-11.86,12.82v8.93h60.05v-8.28c-8.23-2.06-14.09-7.31-14.09-13.47s5.86-11.4,14.09-13.47Z"/><path class="cls-7" d="M517.82,722.4c-1.18-2.22-.78-4.84-.26-5s1.44.65,1.7,4.45h.66c0-.39.78-4.58,1.53-4.47.43,0,1.09,1.59-.16,5,.85.53,2.23,3.51-1.73,3.46s-2.65-2.67-1.74-3.46"/></g></g><g class="cls-78"><g class="cls-78"><path class="cls-7" d="M684.73,666.33H628.34c-5.45,0-4.06,7.91,0,7.91h56.39l4.56-7.91Z"/><path class="cls-79" d="M684.73,666.33H628.34c-5.45,0-4.06,7.91,0,7.91h56.39l4.56-7.91Z"/><polygon class="cls-7" points="684.73 736.89 689.29 729.9 689.29 667.92 684.73 675.17 684.73 736.89"/><polygon class="cls-79" points="684.73 736.89 689.29 729.9 689.29 667.92 684.73 675.17 684.73 736.89"/><path d="M684.73,738.08h-60V669.89a4,4,0,0,0,3.58,4.35h56.39Z"/><path class="cls-79" d="M684.73,738.08h-60V669.89a4,4,0,0,0,3.58,4.35h56.39Z"/><path class="cls-7" d="M650.29,705.7c-3-5.59-2-12.18-.65-12.51s3.62,1.65,4.28,11.2h1.64c0-1,2-11.53,3.86-11.24,1.08,0,2.74,4-.39,12.55,2.13,1.32,5.6,8.82-4.37,8.69s-6.67-6.71-4.37-8.69"/><path d="M688.54,667.64l-61,.28c-1,0-2.46,2.24-1.75,4.29s-.55-.59-.71-2.05-.66-2,.38-2.52a5.79,5.79,0,0,0,1.6-1.12l3.11-.2h59.16Z"/></g></g><g class="cls-80"><g class="cls-80"><path d="M767.67,734.07a33.29,33.29,0,0,1-33.3-33.3,33.3,33.3,0,1,1,33.3,33.3"/><path d="M767.67,667.85a32.91,32.91,0,1,1-32.92,32.92,33,33,0,0,1,32.92-32.92m0-.77a33.67,33.67,0,1,0,14.93,3.48,33.69,33.69,0,0,0-14.93-3.48"/><polygon class="cls-7" points="748.31 727.87 757.6 695.35 784.82 673.79 773.87 705.41 748.31 727.87"/><polygon class="cls-81" points="748.31 727.87 757.6 695.35 784.82 673.79 773.87 705.41 748.31 727.87"/><path d="M764.43,700.94c-1.25-2.37-.83-5.14-.27-5.28s1.52.69,1.8,4.72h.7c0-.42.83-4.86,1.62-4.74.46,0,1.16,1.68-.16,5.3.9.55,2.36,3.71-1.85,3.66s-2.81-2.83-1.84-3.66"/></g></g><g class="cls-82"><g class="cls-82"><path class="cls-7" d="M879.48,680.24,904.55,702l10.16-11.7-6-5.2c10-6.69,11.92-12.18,10.86-13.17-1.56-1.91-12.1,6.39-15.36,9.26l-2-1.72c8.7-11.64,8.24-16.06,6.48-16.9-1.59-.76-8.05,4.67-11.43,12.6l-7.64-6.64Z"/><path class="cls-63" d="M879.48,680.24,904.55,702l10.16-11.7-6-5.2c10-6.69,11.92-12.18,10.86-13.17-1.56-1.91-12.1,6.39-15.36,9.26l-2-1.72c8.7-11.64,8.24-16.06,6.48-16.9-1.59-.76-8.05,4.67-11.43,12.6l-7.64-6.64Z"/><rect x="848.33" y="687.87" width="59.77" height="39.11" transform="translate(-231.71 906.85) rotate(-49.04)"/><path d="M883.08,672.56l29,25.16-38.69,44.57-29-25.15Zm-.08-1-39.66,45.69,30.09,26.12,39.66-45.69Z"/></g></g><g class="cls-83"><g class="cls-83"><path d="M1119.09,672.09l25.3,18.39c-11.58,2.21-13.79,9.28-13.69,18.83s-2.37,17.32-4.9,20.79l-38-27.64c4.51-5.22,10.14-8.56,17.85-10.4,8.21-2.53,15.35-8,13.45-20"/><path class="cls-84" d="M1119.09,672.09l25.3,18.39c-11.58,2.21-13.79,9.28-13.69,18.83s-2.37,17.32-4.9,20.79l-38-27.64c4.51-5.22,10.14-8.56,17.85-10.4C1113.85,689.53,1121,684.1,1119.09,672.09Z"/><path d="M1104.61,714.7s-15.62,22.65-18.29,29.74c6.62-4.22,22.45-26.72,22.45-26.72"/><path class="cls-84" d="M1104.61,714.7s-15.62,22.65-18.29,29.74c6.62-4.22,22.45-26.72,22.45-26.72"/><path d="M1128.41,683.05c10.39-12.94,9.95-18,8-19s-10.75,6.27-13.83,16.58a2.37,2.37,0,0,1,1.15.51l.3.05a11.74,11.74,0,0,1,4,1.71,1.66,1.66,0,0,1,.43.14"/><path d="M1148.11,674.68c-1.87-2.4-16.22,8.63-17.69,10.13l.24.21a2.43,2.43,0,0,1,.8,1.34,10.34,10.34,0,0,1,1.69,3.85c13.58-7.52,16.21-14.32,15-15.53"/></g></g><g class="cls-85"><g class="cls-85"><rect x="979.02" y="665.43" width="40.06" height="72.76" rx="6.67"/><path d="M1012.41,665.84a6.26,6.26,0,0,1,6.25,6.26v59.42a6.26,6.26,0,0,1-6.25,6.26H985.68a6.27,6.27,0,0,1-6.26-6.26V672.1a6.27,6.27,0,0,1,6.26-6.26h26.73m0-.81H985.68a7.07,7.07,0,0,0-7.07,7.07v59.42a7.08,7.08,0,0,0,7.07,7.08h26.73a7.08,7.08,0,0,0,7.07-7.08V672.1a7.07,7.07,0,0,0-7.07-7.07"/><path d="M998.64,681.78a5.72,5.72,0,1,1,5.72-5.72,5.73,5.73,0,0,1-5.72,5.72"/><path class="cls-7" d="M998.64,670.75a5.32,5.32,0,1,1-5.32,5.31,5.31,5.31,0,0,1,5.32-5.31m0-.82h0a6.13,6.13,0,1,0,6.13,6.13,6.13,6.13,0,0,0-6.13-6.13"/><rect x="983.1" y="690.78" width="31.88" height="41.69" rx="3.5"/><path class="cls-7" d="M1011.49,691.19a3.09,3.09,0,0,1,3.09,3.08V729a3.09,3.09,0,0,1-3.09,3.09H986.6a3.09,3.09,0,0,1-3.09-3.09v-34.7a3.09,3.09,0,0,1,3.09-3.08h24.89m0-.82H986.6a3.91,3.91,0,0,0-3.91,3.9V729a3.91,3.91,0,0,0,3.91,3.91h24.89a3.9,3.9,0,0,0,3.9-3.91v-34.7a3.9,3.9,0,0,0-3.9-3.9"/><path class="cls-7" d="M995.34,716.83c-2.52-4.75-1.68-10.34-.56-10.62s3.07,1.4,3.63,9.5h1.39c0-.84,1.68-9.78,3.28-9.53.91,0,2.32,3.38-.34,10.65,1.81,1.11,4.75,7.48-3.7,7.37s-5.66-5.7-3.7-7.37"/></g></g><text/><text/></g></svg>