<?xml version="1.0" encoding="utf-8"?>
<!-- Generator: Adobe Illustrator 25.2.1, SVG Export Plug-In . SVG Version: 6.00 Build 0)  -->
<svg version="1.1" id="レイヤー_1" xmlns="http://www.w3.org/2000/svg" xmlns:xlink="http://www.w3.org/1999/xlink" x="0px"
	 y="0px" viewBox="0 0 1190.6 841.9" style="enable-background:new 0 0 1190.6 841.9;" xml:space="preserve">
<style type="text/css">
	.st0{opacity:0.51;fill:#FFFFFF;enable-background:new    ;}
	.st1{fill:none;stroke:#CCCCCC;stroke-miterlimit:10;}
	.st2{font-family:'KozGoPro-Regular-83pv-RKSJ-H';}
	.st3{font-size:12px;}
	.st4{letter-spacing:3;}
	.st5{fill:#32457B;}
	.st6{fill:#3E2F34;}
	.st7{fill:#756760;stroke:#3E2F34;stroke-width:1.3;stroke-miterlimit:10;}
	.st8{fill:#C6E9E1;}
	.st9{fill:#FE5014;stroke:#3E2F34;stroke-width:1.17;stroke-miterlimit:10;}
	.st10{fill:#FE5014;stroke:#3E2F34;stroke-width:1.16;stroke-miterlimit:10;}
	.st11{fill:none;stroke:#3E2F34;stroke-width:1.16;stroke-miterlimit:10;}
	.st12{fill:none;stroke:#3E2F34;stroke-width:1.17;stroke-miterlimit:10;}
	.st13{fill:#372D32;stroke:#3E2F34;stroke-width:1.16;stroke-miterlimit:10;}
	.st14{fill:#EFF882;}
	.st15{fill:#67A595;stroke:#3E2F34;stroke-width:1.16;stroke-miterlimit:10;}
	.st16{fill:#352B2F;stroke:#392F34;stroke-width:1.37;stroke-miterlimit:10;}
	.st17{fill:#B9E27D;}
	.st18{fill:#FFFFFF;stroke:#3E2F34;stroke-width:1.28;stroke-miterlimit:10;}
	.st19{fill:#FD3F1F;stroke:#3E2F34;stroke-width:1.49;stroke-miterlimit:10;}
	.st20{fill:#F1E654;stroke:#3E2F34;stroke-width:0.96;stroke-miterlimit:10;}
	.st21{fill:#FD3F1F;stroke:#3E2F34;stroke-width:0.96;stroke-miterlimit:10;}
	.st22{fill:#3E2F34;stroke:#3E2F34;stroke-width:0.96;stroke-miterlimit:10;}
	.st23{fill:#FFFFFF;stroke:#3E2F34;stroke-width:0.96;stroke-miterlimit:10;}
	.st24{fill:#C3BFB9;stroke:#3E2F34;stroke-width:2;stroke-miterlimit:10;}
	.st25{fill:#EFF873;stroke:#3E2F34;stroke-width:2;stroke-miterlimit:10;}
	.st26{fill:#FBB5BC;}
	.st27{fill:#F379BB;stroke:#3E2F34;stroke-width:1.22;stroke-miterlimit:10;}
	.st28{fill:#C3BFB9;stroke:#3E2F34;stroke-width:1.22;stroke-miterlimit:10;}
	.st29{fill:#C3BFB9;stroke:#3E2F34;stroke-width:0.72;stroke-miterlimit:10;}
	.st30{fill:#FFFFFF;stroke:#3E2F34;stroke-width:1.22;stroke-miterlimit:10;}
	.st31{fill:none;stroke:#3E2F34;stroke-width:1.22;stroke-miterlimit:10;}
	.st32{fill:#3E2F34;stroke:#3E2F34;stroke-width:1.22;stroke-miterlimit:10;}
	.st33{fill:#FCB981;}
	.st34{fill:#FB4E42;stroke:#3E2F34;}
	.st35{fill:#3E2F34;stroke:#3E2F34;stroke-width:0.81;}
	.st36{fill:none;stroke:#3E2F34;stroke-width:0.75;}
	.st37{fill:#C3BFB9;stroke:#3E2F34;stroke-width:1.12;}
	.st38{fill:#85814B;}
	.st39{fill:none;stroke:#3E2F34;stroke-width:0.66;stroke-miterlimit:10;}
	.st40{fill:none;stroke:#3E2F34;stroke-width:0.91;stroke-miterlimit:10;}
	.st41{fill:#E8B7DA;stroke:#3E2F34;stroke-width:1.45;stroke-miterlimit:10;}
	.st42{fill:#FFFFFF;stroke:#3E2F34;stroke-width:1.45;stroke-miterlimit:10;}
	.st43{fill:#BFE5AB;stroke:#3E2F34;stroke-width:1.45;stroke-miterlimit:10;}
	.st44{fill:#8A8281;stroke:#3E2F34;stroke-width:2.99;stroke-miterlimit:10;}
	.st45{fill:#51474C;stroke:#3E2F34;stroke-width:2.23;stroke-miterlimit:10;}
	.st46{fill:#CBD1C1;stroke:#3E2F34;stroke-width:1.07;stroke-miterlimit:10;}
	.st47{fill:#CBD1C1;stroke:#3E2F34;stroke-width:1.05;stroke-miterlimit:10;}
	.st48{fill:#CBD1C1;stroke:#3E2F34;stroke-miterlimit:10;}
	.st49{fill:none;stroke:#3E2F34;stroke-width:1.05;stroke-miterlimit:10;}
	.st50{fill:#BCBD7D;}
	.st51{fill:#FE7D12;stroke:#3E2F34;stroke-width:1.16;stroke-miterlimit:10;}
	.st52{fill:#BE4304;}
	.st53{fill:#3E2F34;stroke:#3E2F34;stroke-width:0.8387;stroke-miterlimit:9.985;}
	.st54{fill:#3E2F34;stroke:#3E2F34;stroke-width:0.84;stroke-miterlimit:10;}
	.st55{fill:#1D4616;stroke:#3E2F34;stroke-width:0.67;stroke-miterlimit:10;}
	.st56{fill:#85C12D;stroke:#3E2F34;stroke-width:1.86;stroke-miterlimit:10;}
	.st57{fill:#F5FBB8;}
	.st58{fill:#FFFFFF;stroke:#3E2F34;stroke-width:1.87;stroke-miterlimit:10;}
	.st59{fill:#FFFFFF;stroke:#3E2F34;stroke-width:1.46;stroke-miterlimit:10;}
	.st60{fill:#461704;stroke:#3E2F34;stroke-width:0.36;stroke-miterlimit:10;}
	.st61{fill:#3E2F34;stroke:#3E2F34;stroke-width:0.36;stroke-miterlimit:10;}
	.st62{fill:#FD4525;stroke:#3E2F34;stroke-width:0.83;stroke-miterlimit:10;}
	.st63{fill:#7F4317;stroke:#3E2F34;stroke-width:0.53;stroke-miterlimit:10;}
	.st64{fill:#FD4525;stroke:#3E2F34;stroke-width:0.73;stroke-miterlimit:10;}
	.st65{fill:#EAF65A;stroke:#3E2F34;stroke-width:0.75;stroke-miterlimit:10;}
	.st66{fill:#BD7D4C;stroke:#3E2F34;stroke-width:0.87;stroke-miterlimit:10;}
	.st67{fill:#3C7F21;stroke:#3E2F34;stroke-width:1.85;stroke-miterlimit:10;}
	.st68{fill:#BD7D4C;}
	.st69{fill:#3E2F34;stroke:#3E2F34;stroke-width:0.58;stroke-miterlimit:10;}
	.st70{fill:#FD4525;stroke:#3E2F34;stroke-width:0.58;stroke-miterlimit:10;}
	.st71{fill:#FCB981;stroke:#3E2F34;stroke-width:0.41;stroke-miterlimit:10;}
	.st72{fill:#FFFFFF;}
	.st73{fill:#3E2F34;stroke:#3E2F34;stroke-width:0.41;stroke-miterlimit:10;}
	.st74{fill:#3E2F34;stroke:#3E2F34;stroke-width:0.55;stroke-miterlimit:10;}
	.st75{fill:#EFF882;stroke:#3E2F34;stroke-width:0.48;stroke-miterlimit:10;}
	.st76{fill:#EFF882;stroke:#3E2F34;stroke-width:0.45;stroke-miterlimit:10;}
	.st77{fill:#7F4317;stroke:#3E2F34;stroke-width:1.88;stroke-miterlimit:10;}
	.st78{fill:#F379BB;stroke:#3E2F34;stroke-width:1.2;stroke-miterlimit:10;}
	.st79{fill:#8CC0AE;}
	.st80{fill:#BE1519;stroke:#3E2F34;stroke-width:1.04;stroke-miterlimit:10;}
	.st81{fill:#284313;stroke:#3E2F34;stroke-width:1.18;stroke-miterlimit:10;}
	.st82{fill:#F8BA50;}
	.st83{fill:#FFFFFF;stroke:#3E2F34;stroke-width:1.4;stroke-miterlimit:10;}
	.st84{fill:#BD7D4C;stroke:#3E2F34;stroke-width:1.4;stroke-miterlimit:10;}
	.st85{fill:#3E2F34;stroke:#3E2F34;stroke-width:0.42;stroke-miterlimit:10;}
	.st86{fill:#FE7D12;stroke:#3E2F34;stroke-miterlimit:10;}
	.st87{fill:#567F1B;stroke:#3E2F34;stroke-miterlimit:10;}
	.st88{fill:#91C344;stroke:#3D2F34;stroke-width:1.89;stroke-miterlimit:10;}
	.st89{fill:#FFFFFF;stroke:#3D2F34;stroke-width:1.89;stroke-miterlimit:10;}
	.st90{fill:#E8593F;stroke:#3D2F34;stroke-width:1.42;stroke-miterlimit:10;}
	.st91{fill:#89C17C;}
	.st92{fill:#FBB5BC;stroke:#3E2F34;stroke-width:1.78;stroke-miterlimit:10;}
	.st93{fill:#D1EB63;stroke:#3E2F34;stroke-width:2;stroke-miterlimit:10;}
	.st94{fill:#FFFFFF;stroke:#3E2F34;stroke-width:3;stroke-miterlimit:10;}
	.st95{fill:#3E2F34;stroke:#3E2F34;stroke-width:0.75;stroke-miterlimit:10;}
	.st96{fill:#3E2F34;stroke:#3E2F34;stroke-miterlimit:10;}
	.st97{fill:#6AC3A9;}
	.st98{fill:#51474C;stroke:#3E2F34;stroke-width:2.21;stroke-miterlimit:10;}
	.st99{fill:#51474C;}
	.st100{fill:#EAF65A;stroke:#3E2F34;stroke-width:0.94;stroke-miterlimit:10;}
	.st101{fill:#51474C;stroke:#3E2F34;stroke-width:0.83;stroke-miterlimit:10;}
	.st102{fill:#8A8281;stroke:#3E2F34;stroke-width:1.01;stroke-miterlimit:10;}
	.st103{fill:#FC1F25;stroke:#3E2F34;stroke-width:2;stroke-miterlimit:10;}
	.st104{fill:#86C250;stroke:#3E2F34;stroke-width:1.6;stroke-miterlimit:10;}
	.st105{fill:#F94552;stroke:#3E2F34;stroke-miterlimit:10;}
	.st106{fill:#1F191C;}
	.st107{fill:#F94552;}
	.st108{fill:#461704;stroke:#3E2F34;stroke-width:1.06;stroke-miterlimit:10;}
	.st109{fill:#461704;}
	.st110{fill:#461704;stroke:#3E2F34;stroke-width:0.93;stroke-miterlimit:10;}
	.st111{fill:#FFFFFF;stroke:#3E2F34;stroke-width:1.38;stroke-miterlimit:10;}
	.st112{fill:#C3BFB9;stroke:#3E2F34;stroke-width:2.2;stroke-miterlimit:10;}
	.st113{fill:#FFFFFF;stroke:#3E2F34;stroke-width:1.03;stroke-miterlimit:10;}
	.st114{fill:none;stroke:#3E2F34;stroke-width:1.03;stroke-miterlimit:10;}
	.st115{fill:#C6E9E1;stroke:#3E2F34;stroke-width:0.69;stroke-miterlimit:10;}
	.st116{fill:#8A8281;stroke:#3E2F34;stroke-width:0.69;stroke-miterlimit:10;}
	.st117{fill:#51474C;stroke:#3E2F34;stroke-width:0.69;stroke-miterlimit:10;}
	.st118{fill:#9ED9CF;}
	.st119{fill:#F94552;stroke:#3E2F34;stroke-width:2.01;stroke-miterlimit:10;}
	.st120{fill:#461704;stroke:#3E2F34;stroke-width:3.13;stroke-miterlimit:10;}
	.st121{fill:#E3C899;stroke:#3E2F34;stroke-width:3.13;stroke-miterlimit:10;}
	.st122{fill:none;stroke:#3E2F34;stroke-width:2.09;stroke-miterlimit:10;}
	.st123{fill:#FC7A4F;}
	.st124{fill:#7F4317;stroke:#3E2F34;stroke-width:3.63;stroke-miterlimit:10;}
	.st125{fill:#D4C79D;}
	.st126{fill:#C7AE88;}
	.st127{fill:#190805;}
	.st128{fill:#F5BA2B;}
	.st129{fill:#7F4317;stroke:#3E2F34;stroke-width:3.95;stroke-miterlimit:10;}
	.st130{fill:#F8BA50;stroke:#3E2F34;stroke-width:1.97;stroke-miterlimit:10;}
	.st131{fill:#FD4525;}
	.st132{fill:#65B831;}
	.st133{fill:none;stroke:#3E2F34;stroke-width:0.73;stroke-miterlimit:10;}
	.st134{fill:#85D0C4;}
	.st135{font-family:'ToppanBunkyuMidashiGothicStdN-ExtraBold-83pv-RKSJ-H';}
	.st136{font-size:40.2801px;}
	.st137{fill:none;stroke:#3E2F34;stroke-width:0.7532;stroke-miterlimit:10.0424;}
	.st138{fill:#9ED9CF;stroke:#3E2F34;stroke-width:1.62;stroke-miterlimit:10;}
	.st139{fill:none;stroke:#3E2F34;stroke-width:1.21;stroke-miterlimit:10;}
	.st140{fill:#F8BA50;stroke:#3E2F34;stroke-width:1.7;stroke-miterlimit:10;}
	.st141{fill:#BD7D4C;stroke:#3E2F34;stroke-width:1.7;stroke-miterlimit:10;}
	.st142{fill:#FFFFFF;stroke:#3E2F34;stroke-width:1.51;stroke-miterlimit:10;}
	.st143{fill:none;stroke:#3E2F34;stroke-width:0.71;stroke-miterlimit:10;}
	.st144{fill:#3E2F34;stroke:#3E2F34;stroke-width:1.51;stroke-miterlimit:10;}
	.st145{fill:#5B827B;}
	.st146{fill:#C3BFB9;stroke:#3D2F34;stroke-width:1.06;stroke-miterlimit:10;}
	.st147{fill:#C3BFB9;}
	.st148{fill-rule:evenodd;clip-rule:evenodd;fill:#FE450E;stroke:#3E2F34;stroke-width:1.14;stroke-miterlimit:10;}
	.st149{fill-rule:evenodd;clip-rule:evenodd;fill:#FE450E;stroke:#3E2F34;stroke-width:0.74;stroke-miterlimit:10;}
	.st150{fill:#7F4317;}
	.st151{fill:#FE450E;stroke:#3D2F34;stroke-width:2.01;stroke-miterlimit:10;}
	.st152{fill:#FFFFFF;stroke:#3D2F34;stroke-width:2.01;stroke-miterlimit:10;}
	.st153{fill:#3D7F21;}
	.st154{fill:#FE450E;}
	.st155{fill:#E0E85B;stroke:#3D2F34;stroke-width:3.41;stroke-miterlimit:10;}
	.st156{fill:#FFFFFF;stroke:#3E2F34;stroke-width:1.3;stroke-miterlimit:10;}
	.st157{font-size:7.14px;glyph-orientation-vertical:0;writing-mode:tb;}
	.st158{fill:#FE7B26;}
	.st159{fill:#567F1B;stroke:#3E2F34;stroke-width:1.7;stroke-miterlimit:10;}
	.st160{fill:#BE4304;stroke:#3E2F34;stroke-width:1.7;stroke-miterlimit:10;}
	.st161{fill:#B8BC4F;}
	.st162{fill:none;stroke:#3E2F34;stroke-width:0.93;stroke-miterlimit:10;}
	.st163{fill:#FFFFFF;stroke:#3D2F34;stroke-width:1.69;stroke-miterlimit:10;}
	.st164{fill:#FFFFFF;stroke:#3D2E34;stroke-width:2;stroke-miterlimit:10;}
	.st165{fill:#1F191C;stroke:#3E2F34;stroke-width:1.16;stroke-miterlimit:10;}
	.st166{fill:#ED7527;}
	.st167{fill:#3D2F34;}
	.st168{fill:#7FB32D;stroke:#3D2F34;stroke-width:0.42;stroke-miterlimit:10;}
	.st169{fill:#567F1B;stroke:#3D2F34;stroke-width:0.57;stroke-miterlimit:10;}
	.st170{fill:#BD7D4C;stroke:#3D2F34;stroke-width:3.52;stroke-miterlimit:10;}
	.st171{fill:#7F4317;stroke:#3D2F34;stroke-width:2.34;stroke-miterlimit:10;}
	.st172{fill:#461704;stroke:#3D2F34;stroke-width:1.16;stroke-miterlimit:10;}
	.st173{fill:none;stroke:#3D2F34;stroke-width:0.86;stroke-miterlimit:10;}
	.st174{fill:#85C12D;}
	.st175{fill:#BD7D4C;stroke:#3D2F34;stroke-width:2.58;stroke-miterlimit:10;}
	.st176{fill:#BCBD7D;stroke:#3D2F34;stroke-width:1.87;stroke-miterlimit:10;}
	.st177{fill:none;stroke:#3D2F34;stroke-width:1.87;stroke-miterlimit:10;}
	.st178{fill:#65B831;stroke:#3D2F34;stroke-width:2.3;stroke-miterlimit:10;}
	.st179{fill:#65B831;stroke:#3D2F34;stroke-miterlimit:10;}
</style>
<g id="レイヤー_3">
	<rect class="st0" width="1190.6" height="841.9"/>
</g>
<rect x="28.8" y="87.3" class="st1" width="100" height="100"/>
<rect x="143.8" y="87.3" class="st1" width="100" height="100"/>
<rect x="258.8" y="87.3" class="st1" width="100" height="100"/>
<rect x="373.8" y="87.3" class="st1" width="100" height="100"/>
<rect x="488.8" y="87.3" class="st1" width="100" height="100"/>
<rect x="603.8" y="87.3" class="st1" width="100" height="100"/>
<rect x="718.8" y="87.3" class="st1" width="100" height="100"/>
<rect x="833.8" y="87.3" class="st1" width="100" height="100"/>
<rect x="948.8" y="87.3" class="st1" width="100" height="100"/>
<rect x="1063.8" y="87.3" class="st1" width="100" height="100"/>
<rect x="28.8" y="228.1" class="st1" width="100" height="100"/>
<rect x="143.8" y="228.1" class="st1" width="100" height="100"/>
<rect x="258.8" y="228.1" class="st1" width="100" height="100"/>
<rect x="373.8" y="228.1" class="st1" width="100" height="100"/>
<rect x="488.8" y="228.1" class="st1" width="100" height="100"/>
<rect x="603.8" y="228.1" class="st1" width="100" height="100"/>
<rect x="718.8" y="228.1" class="st1" width="100" height="100"/>
<rect x="833.8" y="228.1" class="st1" width="100" height="100"/>
<rect x="948.8" y="228.1" class="st1" width="100" height="100"/>
<rect x="1063.8" y="228.1" class="st1" width="100" height="100"/>
<rect x="28.8" y="368.8" class="st1" width="100" height="100"/>
<rect x="143.8" y="368.8" class="st1" width="100" height="100"/>
<rect x="258.8" y="368.8" class="st1" width="100" height="100"/>
<rect x="373.8" y="368.8" class="st1" width="100" height="100"/>
<rect x="488.8" y="368.8" class="st1" width="100" height="100"/>
<rect x="603.8" y="368.8" class="st1" width="100" height="100"/>
<rect x="718.8" y="368.8" class="st1" width="100" height="100"/>
<rect x="833.8" y="368.8" class="st1" width="100" height="100"/>
<rect x="948.8" y="368.8" class="st1" width="100" height="100"/>
<rect x="1063.8" y="368.8" class="st1" width="100" height="100"/>
<rect x="28.8" y="509.6" class="st1" width="100" height="100"/>
<rect x="143.8" y="509.6" class="st1" width="100" height="100"/>
<rect x="258.8" y="509.6" class="st1" width="100" height="100"/>
<rect x="373.8" y="509.6" class="st1" width="100" height="100"/>
<rect x="488.8" y="509.6" class="st1" width="100" height="100"/>
<rect x="603.8" y="509.6" class="st1" width="100" height="100"/>
<rect x="718.8" y="509.6" class="st1" width="100" height="100"/>
<rect x="833.8" y="509.6" class="st1" width="100" height="100"/>
<rect x="948.8" y="509.6" class="st1" width="100" height="100"/>
<rect x="1063.8" y="509.6" class="st1" width="100" height="100"/>
<rect x="28.8" y="650.4" class="st1" width="100" height="100"/>
<rect x="143.8" y="650.4" class="st1" width="100" height="100"/>
<rect x="258.8" y="650.4" class="st1" width="100" height="100"/>
<rect x="373.8" y="650.4" class="st1" width="100" height="100"/>
<rect x="488.8" y="650.4" class="st1" width="100" height="100"/>
<rect x="603.8" y="650.4" class="st1" width="100" height="100"/>
<rect x="718.8" y="650.4" class="st1" width="100" height="100"/>
<rect x="833.8" y="650.4" class="st1" width="100" height="100"/>
<rect x="948.8" y="650.4" class="st1" width="100" height="100"/>
<rect x="1063.8" y="650.4" class="st1" width="100" height="100"/>
<g id="アイコン名">
	<text transform="matrix(1 0 0 1 54.83 213.41)" class="st2 st3">コウモリ</text>
	<text transform="matrix(1 0 0 1 182.16 213.41)" class="st2 st3">金魚</text>
	<text transform="matrix(1 0 0 1 291.5 213.41)" class="st2 st3">イルカ</text>
	<text transform="matrix(1 0 0 1 400.83 213.41)" class="st2 st3">ニワトリ</text>
	<text transform="matrix(1 0 0 1 534.16 213.41)" class="st2 st3">月</text>
	<text transform="matrix(1 0 0 1 637.5 213.41)" class="st2 st3">うさぎ</text>
	<text transform="matrix(1 0 0 1 746.83 213.41)" class="st2 st3">赤とんぼ</text>
	<text transform="matrix(1 0 0 1 863.36 213.41)" class="st2 st3 st4">3</text>
	<text transform="matrix(1 0 0 1 872.97 213.41)" class="st2 st3">色団子</text>
	<text transform="matrix(1 0 0 1 983.5 213.41)" class="st2 st3">カブト</text>
	<text transform="matrix(1 0 0 1 1092.83 213.41)" class="st2 st3">かぼちゃ</text>
	<text transform="matrix(1 0 0 1 60.83 351.9)" class="st2 st3">葉っぱ</text>
	<text transform="matrix(1 0 0 1 170.16 351.9)" class="st2 st3">雪だるま</text>
	<text transform="matrix(1 0 0 1 261.5 351.9)" class="st2 st3">クリスマスツリー</text>
	<text transform="matrix(1 0 0 1 406.83 351.9)" class="st2 st3">だるま</text>
	<text transform="matrix(1 0 0 1 486.16 351.9)" class="st2 st3">バレンタインチョコ</text>
	<text transform="matrix(1 0 0 1 631.5 351.9)" class="st2 st3">くつした</text>
	<text transform="matrix(1 0 0 1 758.83 351.9)" class="st2 st3">もち</text>
	<text transform="matrix(1 0 0 1 856.16 351.9)" class="st2 st3">うさぎもち</text>
	<text transform="matrix(1 0 0 1 983.5 351.9)" class="st2 st3">さくら</text>
	<text transform="matrix(1 0 0 1 1098.83 351.9)" class="st2 st3">ドクロ</text>
	<text transform="matrix(1 0 0 1 66.83 492.39)" class="st2 st3">黒猫</text>
	<text transform="matrix(1 0 0 1 176.16 492.39)" class="st2 st3">リボン</text>
	<text transform="matrix(1 0 0 1 293.5 492.39)" class="st2 st3">リボン</text>
	<text transform="matrix(1 0 0 1 412.83 492.39)" class="st2 st3">学校</text>
	<text transform="matrix(1 0 0 1 528.16 492.39)" class="st2 st3">おに</text>
	<text transform="matrix(1 0 0 1 643.5 492.39)" class="st2 st3">太陽</text>
	<text transform="matrix(1 0 0 1 752.83 492.39)" class="st2 st3">きのこ</text>
	<text transform="matrix(1 0 0 1 862.16 492.39)" class="st2 st3">フクロウ</text>
	<text transform="matrix(1 0 0 1 989.5 492.39)" class="st2 st3">くり</text>
	<text transform="matrix(1 0 0 1 1086.83 492.39)" class="st2 st3">さくらんぼ</text>
	<text transform="matrix(1 0 0 1 66.83 630.89)" class="st2 st3">帽子</text>
	<text transform="matrix(1 0 0 1 176.16 630.89)" class="st2 st3">うちわ</text>
	<text transform="matrix(1 0 0 1 291.5 630.89)" class="st2 st3">ヨット</text>
	<text transform="matrix(1 0 0 1 382.83 630.89)" class="st2 st3">てるてるぼうず</text>
	<text transform="matrix(1 0 0 1 534.16 630.89)" class="st2 st3">雲</text>
	<text transform="matrix(1 0 0 1 631.5 630.89)" class="st2 st3">サンダル</text>
	<text transform="matrix(1 0 0 1 752.83 630.89)" class="st2 st3">おでん</text>
	<text transform="matrix(1 0 0 1 874.16 630.89)" class="st2 st3">蝋燭</text>
	<text transform="matrix(1 0 0 1 971.5 630.89)" class="st2 st3">プレゼント</text>
	<text transform="matrix(1 0 0 1 1110.83 630.89)" class="st2 st3">星</text>
	<text transform="matrix(1 0 0 1 60.83 773.38)" class="st2 st3">お年玉</text>
	<text transform="matrix(1 0 0 1 182.16 773.38)" class="st2 st3">かき</text>
	<text transform="matrix(1 0 0 1 297.5 773.38)" class="st2 st3">書類</text>
	<text transform="matrix(1 0 0 1 406.83 773.38)" class="st2 st3">おばけ</text>
	<text transform="matrix(1 0 0 1 516.16 773.38)" class="st2 st3">おにぎり</text>
	<text transform="matrix(1 0 0 1 637.5 773.38)" class="st2 st3">みかん</text>
	<text transform="matrix(1 0 0 1 746.83 773.38)" class="st2 st3">クッキー</text>
	<text transform="matrix(1 0 0 1 862.16 773.38)" class="st2 st3">どんぐり</text>
	<text transform="matrix(1 0 0 1 983.5 773.38)" class="st2 st3">ほうき</text>
	<text transform="matrix(1 0 0 1 1104.83 773.38)" class="st2 st3">枝豆</text>
	<circle class="st5" cx="78.8" cy="137.3" r="47.4"/>
	<path class="st6" d="M78.8,91c25.6,0,46.4,20.7,46.4,46.3c0,25.6-20.7,46.4-46.3,46.4S32.5,163,32.5,137.4c0,0,0,0,0-0.1
		C32.5,111.7,53.3,91,78.8,91 M78.8,88.8c-26.8,0-48.5,21.7-48.5,48.5s21.7,48.5,48.5,48.5s48.5-21.7,48.5-48.5
		C127.3,110.6,105.6,88.8,78.8,88.8z"/>
	<path class="st7" d="M60.7,145.2c-0.9-1.9-3.1-5-4.8-5.1s-6.4,4.8-6.4,4.8s-2.9-5.4-5.5-4.5s-8.2,4.9-8.2,4.9s6.3-18.8,14.9-20.2
		c7.8-1.3,13.5,5.4,13.5,5.4s2.7-14.4,4.9-17.5c1.7-2.3,4.1,3.2,5.1,5.9c0.3,0.8,1.1,1.4,2,1.3c1.6,0,3.9-0.1,4.6-0.1
		c1.6,0,3.9-7.5,6-7.5c1.9,0,2.8,6.5,2.8,6.5l1.9,10.3c0.9-0.9,7-5.7,14-4.7c12.1,1.9,16.8,19.6,16.8,19.6s-7.5-5.6-10.2-5.6
		c-3,0-4.7,5.6-4.7,5.6s-4.9-5.5-6.5-4.7s-3.7,4.7-3.7,4.7s-4.7-5.6-5.9-7.4c-0.9-1.3-6.9,19.7-12.8,19.5
		c-4.2-0.2-11.5-15.9-12.4-18C66.1,138.4,62.6,144.3,60.7,145.2z"/>
	<circle class="st8" cx="193.8" cy="137.3" r="47.9"/>
	<path class="st6" d="M193.8,90.4c25.9,0,46.9,20.9,46.9,46.8c0,25.9-20.9,46.9-46.8,46.9c-25.9,0-46.9-20.9-46.9-46.8c0,0,0,0,0,0
		C147,111.4,168,90.5,193.8,90.4 M193.9,88.3c-27.1,0-49,21.9-49,49s21.9,49,49,49s49-21.9,49-49S220.9,88.3,193.9,88.3z"/>
	<path class="st9" d="M200.2,147.1c0,0,8.6,8.1,6.4,8.4s-4.1,0.3-4.2,1.8s3.5,9.9,2.2,10.4s-7.3,0.9-10.9-4.1s-2.4-12.4-2.4-12.4
		S198.4,149.4,200.2,147.1z"/>
	<path class="st10" d="M168.3,121.8c-0.9,0.9,2.2-13,7.6-18.3c5.9-5.9,12.6-7.1,14.3-6.3s0,5.8,0.8,6.6s5.1,1.6,6.7,4.3
		c1.4,2.2,0.9,3.9,0.4,6.1s-1.2,3.4-1.7,5.6c0,0-0.5,2.2-0.6,2.5c-0.2,0.5-0.7,0.8-1.2,0.8L168.3,121.8L168.3,121.8"/>
	<path class="st10" d="M204.3,142.8c-2,0-3.6,6.7-9,9c-7,3-9.5,0.5-9.5,1.5v3c0,2-1.8,7.6-4.7,7.3s-7.8-4.3-8.7-9.6l-1-3.4
		c0,0-15-2.4-19.2-6.6c-2.4-2.3-3.4-5.7-2.5-8.9c1.1-5.8,16.2-13,22.7-13.9c6.3-0.9,11.8-1.3,17.6,0.2c10.7,2.9,10.2,8.4,12.7,7.9
		c2.9-0.6,6.6-8.6,16.5-10.5c8.8-1.7,17.8,0.3,14,7c-2.1,3.7-6,11-6,11s4.4,3.5,7,6c7,7-2,12-14,10
		C208.3,149.8,205.8,142.8,204.3,142.8z"/>
	<path class="st11" d="M179.5,148.4c1.1,0.3,5.9-0.6,6.3,6.9"/>
	<path class="st12" d="M171.2,151c1.1-1.3,3.5-12.9,3-15.8"/>
	<path class="st13" d="M160.9,136.8c0,0.6-0.5,1.1-1.1,1.1c-0.6,0-1.1-0.5-1.1-1.1c0-0.6,0.5-1.1,1.1-1.1c0,0,0,0,0,0
		C160.4,135.7,160.9,136.2,160.9,136.8z"/>
	<path class="st10" d="M224.3,135.8"/>
	<circle class="st14" cx="308.8" cy="137.3" r="47.5"/>
	<path class="st6" d="M308.8,90.8c25.7,0,46.5,20.8,46.5,46.5s-20.8,46.5-46.5,46.5s-46.5-20.8-46.5-46.5
		C262.4,111.6,283.2,90.8,308.8,90.8 M308.8,88.8c-26.8,0-48.5,21.7-48.5,48.5s21.7,48.5,48.5,48.5s48.5-21.7,48.5-48.5
		C357.3,110.5,335.6,88.8,308.8,88.8z"/>
	<path class="st15" d="M331.7,107.1c0,0,29.7,3.9,3.9,14.7l-15.4,9.5c0,0,3.8,8.1,3.1,8.9s-9.5-2.2-11-1.2s-8.8,8.2-6.9,14.1
		s2.7,8.6,4.4,8s9.6-5,15.8-2s-10.2,9.7-10.7,10.4s2.2,10.4,0.2,13s-10.4-9-11.2-11.8s-0.6-2-1.5-2.1s-19-7.7-20.8-24
		c0-11.9,0.5-14.1-0.7-15s-9.7-6.3-10.2-9.7s17.9-7.2,18.7-7.2s12.3-14.9,24.1-15.2S331.7,107.1,331.7,107.1z"/>
	<path class="st15" d="M320.3,131.2c-0.9-1.8-2.4-3.3-4.3-4.1"/>
	<circle class="st16" cx="326.3" cy="109.8" r="0.6"/>
	<path class="st15" d="M313.1,138.9c-2-0.6-4.1-1.3-6-2.2"/>
	<path class="st11" d="M337.5,120.9c0,0-6.2,1.5-9.8-1.4"/>
	<circle class="st17" cx="423.8" cy="137.3" r="47.5"/>
	<path class="st6" d="M423.8,90.8c25.7,0,46.5,20.8,46.5,46.5s-20.8,46.5-46.5,46.5s-46.5-20.8-46.5-46.5
		C377.4,111.6,398.2,90.8,423.8,90.8 M423.8,88.8c-26.8,0-48.5,21.7-48.5,48.5s21.7,48.5,48.5,48.5s48.5-21.7,48.5-48.5
		C472.3,110.5,450.6,88.8,423.8,88.8z"/>
	<path class="st18" d="M396.2,114.9c1-0.7,8.5-4.6,11.5,0s4.8,17.4,17.6,18s14.9,0,14.9,0s1.7-9.2,19-8.5s1.4,8.8,1.4,8.8
		s3.7,4.3-3.4,5.3c0,0,6.1,3.9-1.7,5.9c0,0,3,3.3-9.5,5.9c0,0-10.9,15.1-17.6,15.1s-7.1-3.9-9.5-3.9s-3.1,3.9-8.1,3.9
		S395.9,152,396.2,139S396.2,114.9,396.2,114.9z"/>
	<path class="st19" d="M400,112.7c0,0-0.6-7.6,2.7-9.3c3.6-1.9,7.1-3.6,9.5-2.6s2,8.2,2,8.2s7.5,0.5,5.8,3.7s-6.4,2.2-6.4,2.2
		s4.6,3.7,1,5.2s-4.5-0.5-4.5-0.5S408.8,110.5,400,112.7z"/>
	<path class="st20" d="M395.7,115c0,0-7.5,4.4-7.5,5.8s7.6,3.4,7.6,3.4L395.7,115z"/>
	<path class="st21" d="M396.2,136.1c0,0-10.8,1.3-9.8-2s6.2-10.7,6.2-10.7l3.8,1.2L396.2,136.1z"/>
	<ellipse class="st22" cx="400.3" cy="119" rx="0.5" ry="1.8"/>
	<path class="st23" d="M421.3,133.3c0,0,12.7-2.6,15.4-1.2s-5,5.1-5,5.1s9.6,3.2,8.6,6.6s-13.6,1.6-13.6,1.6s4.8,5.9,3.1,7.5
		s-12,0-12,0"/>
	<path class="st20" d="M408.7,165.4v6.5c0,0-4.1,1.8-3.9,3.6c0.1,0.8,3.7,0,3.7,0s-0.1,3,1.5,2.9c1.5,0,1.4-2.9,1.4-2.9
		s3.3,0.8,3.8-0.4s-3.5-3-3.5-3v-6.7H408.7z"/>
	<path class="st20" d="M426.2,165.9v6.5c0,0-4.1,1.8-3.9,3.5c0.1,0.8,3.7,0,3.7,0s-0.1,3,1.5,2.9c1.5,0,1.4-2.9,1.4-2.9
		s3.3,0.8,3.8-0.4s-3.5-3-3.5-3v-6.7L426.2,165.9z"/>
	<circle class="st24" cx="538.8" cy="136.7" r="46"/>
	<ellipse class="st25" cx="539.1" cy="136.7" rx="34.3" ry="33.1"/>
	<path class="st26" d="M653.8,184.8c-26.2,0-47.5-21.3-47.5-47.5s21.3-47.5,47.5-47.5c26.2,0,47.5,21.3,47.5,47.5
		C701.3,163.6,680,184.8,653.8,184.8z"/>
	<path class="st6" d="M653.8,90.9c25.6,0,46.4,20.8,46.4,46.4s-20.8,46.4-46.4,46.4c-25.6,0-46.4-20.8-46.4-46.4
		C607.4,111.7,628.2,90.9,653.8,90.9 M653.8,88.9c-26.8,0-48.5,21.7-48.5,48.5s21.7,48.5,48.5,48.5s48.5-21.7,48.5-48.5l0,0
		C702.3,110.6,680.6,88.9,653.8,88.9z"/>
	<path class="st27" d="M666.4,124.3c0,0-20.4-19.8-16.6-23.2s20.4,14,23.1,19.7"/>
	<path class="st28" d="M680.9,120.6c-0.2-0.6-15.3-25.4-23.8-23.7s15.1,28.6,15.3,29S680.9,120.6,680.9,120.6z"/>
	<path class="st29" d="M618.1,149.2c0,0-3.7,1.7-2.8,4.4c0.7,2.1,2.2,2.6,5.2,2.1"/>
	<path class="st30" d="M694.2,132.6c0.1,3.5-4,6.3-13.9,7.8c0,0,1.9,11.2-5.1,17.9c-0.5,0.5-0.7,1.3-0.4,1.9l2.2,5.7
		c2.2,0.8,4.2,1.8,6.2,3c0.5,0.4,0.6,1.1,0.2,1.6c-0.2,0.3-0.5,0.4-0.9,0.4c-3,0-7.5-0.1-10.1-0.1c-0.9,0-1.7-0.4-2.2-1.1
		c-1.6-2.2-4.9-6.8-6.6-7.6s-12-0.8-15.6-0.8c-0.8,0-1.5,0.4-2,1l-0.8,1.1c-0.2,0.3-0.1,0.6,0.1,0.8c0.1,0,0.1,0.1,0.2,0.1
		c2.5,0.8,10.3,3.5,8.9,6h-28.6c-1.2,0-2.2-0.9-2.3-2.2c0.1-1.8,0.6-3.6,1.5-5.1c0.3-0.5,0.1-1.1-0.3-1.5c-2.4-2-9.3-8.8-5.3-21.3
		c4.8-15.1,17.2-12.7,20.1-11.9c3,0.8,11,2.8,13.6,2.7c3.7-0.4,7.4-1,11-1.8c0.9-0.3,0.1-4.3,5.7-7.3c2.4-1.3,9.1-1.9,14.2,0.5
		C690,124.9,694.2,130.8,694.2,132.6z"/>
	<path class="st31" d="M662.4,161.7c0,0-9.7-4-7.1-11.5"/>
	<path class="st31" d="M646.7,161.7c0,0,7.6-7.9,0-13.8"/>
	<path class="st32" d="M684.6,128.8c0,0.5-0.4,0.8-0.8,0.8c-0.5,0-0.8-0.4-0.8-0.8s0.4-0.8,0.8-0.8S684.6,128.3,684.6,128.8
		L684.6,128.8z"/>
	
		<ellipse transform="matrix(0.1626 -0.9867 0.9867 0.1626 508.1152 873.8359)" class="st33" cx="768.9" cy="137.6" rx="47" ry="47"/>
	<path class="st6" d="M768.8,91.6c25.4,0,46,20.6,46,46s-20.6,46-46,46s-46-20.6-46-46S743.4,91.6,768.8,91.6 M768.8,89.6
		c-26.5,0-48,21.5-48,48s21.5,48,48,48s48-21.5,48-48S795.3,89.6,768.8,89.6z"/>
	<path class="st34" d="M747.3,135c3.6-1.6,10,8,16.2,17.8c4.7,7.4-10.2-6.8-13.2-9.8S744.8,136.1,747.3,135z"/>
	<path class="st35" d="M747.5,129.7c0,0.8-0.5,1.4-1.1,1.4s-1.1-0.6-1.1-1.4s0.5-1.4,1.1-1.4S747.5,128.9,747.5,129.7z"/>
	<path class="st35" d="M744.1,132.6c0,0.8-0.5,1.4-1.1,1.4s-1.1-0.6-1.1-1.4s0.5-1.4,1.1-1.4S744.1,131.8,744.1,132.6z"/>
	<path class="st36" d="M770,157c0,0,14.5,3,21.2-5s17.6,0,17.6,0"/>
	<path class="st37" d="M753.8,133.1c-0.4-1,11.8-11.2,15.2-9.5S754.2,134.1,753.8,133.1z"/>
	<path class="st37" d="M752.8,131.9c-0.8-0.8,6.4-14.9,10.3-14.7S753.7,132.7,752.8,131.9z"/>
	<path class="st37" d="M742.2,137.9c0.3,1.1-13.3,9.3-16.5,7.1S741.9,136.8,742.2,137.9z"/>
	<path class="st37" d="M742.9,139.2c0.7,0.9-8.7,13.8-12.4,12.9S742.2,138.3,742.9,139.2z"/>
	<circle class="st38" cx="883.8" cy="137.3" r="47.5"/>
	<path class="st6" d="M883.8,90.8c25.7,0,46.5,20.8,46.5,46.5s-20.8,46.5-46.5,46.5s-46.5-20.8-46.5-46.5
		C837.4,111.6,858.2,90.8,883.8,90.8 M883.8,88.8c-26.8,0-48.5,21.7-48.5,48.5s21.7,48.5,48.5,48.5s48.5-21.7,48.5-48.5
		C932.3,110.5,910.6,88.8,883.8,88.8z"/>
	<line class="st39" x1="883.5" y1="170.8" x2="883.5" y2="170.8"/>
	<line class="st40" x1="883" y1="181.7" x2="883" y2="93.1"/>
	
		<ellipse transform="matrix(0.8485 -0.5292 0.5292 0.8485 76.4408 483.942)" class="st41" cx="883.5" cy="108.5" rx="11.9" ry="11.9"/>
	<path class="st42" d="M880.3,143.8c-6.3-1.7-10.1-8.2-8.4-14.6c1.7-6.3,8.2-10.1,14.6-8.4c6.3,1.7,10.1,8.2,8.4,14.6
		C893.2,141.8,886.7,145.6,880.3,143.8C880.3,143.8,880.3,143.8,880.3,143.8z"/>
	<path class="st43" d="M880.3,167.8c-6.3-1.7-10.1-8.2-8.4-14.6c1.7-6.3,8.2-10.1,14.6-8.4c6.3,1.7,10.1,8.2,8.4,14.6
		C893.2,165.7,886.7,169.5,880.3,167.8C880.4,167.8,880.3,167.8,880.3,167.8z"/>
	
		<ellipse transform="matrix(0.1602 -0.9871 0.9871 0.1602 702.8146 1101.6595)" class="st8" cx="998.8" cy="137.8" rx="48" ry="48"/>
	<path class="st6" d="M998.8,90.8c26,0,47,21,47,47s-21,47-47,47c-26,0-47-21-47-47C951.9,111.9,972.9,90.8,998.8,90.8 M998.8,88.8
		c-27.1,0-49,21.9-49,49s21.9,49,49,49s49-21.9,49-49S1025.9,88.8,998.8,88.8L998.8,88.8z"/>
	<path class="st44" d="M996.2,105.9l-38,46c-0.4,0.5-0.3,1.2,0.2,1.6c0.2,0.2,0.5,0.3,0.7,0.3h79.3c0.6,0,1.2-0.5,1.2-1.1
		c0-0.3-0.1-0.6-0.3-0.8l-20.2-22.5l-21-23.5c-0.4-0.5-1.2-0.5-1.6-0.1C996.3,105.8,996.2,105.9,996.2,105.9z"/>
	<path class="st45" d="M996.5,106.8l-28.3,34.3c-0.3,0.4-0.3,0.9,0.1,1.2c0.2,0.1,0.4,0.2,0.6,0.2h59c0.5,0,0.9-0.4,0.9-0.9
		c0-0.2-0.1-0.4-0.2-0.6l-15-16.8l-15.7-17.5C997.5,106.5,996.9,106.4,996.5,106.8C996.5,106.8,996.5,106.8,996.5,106.8z"/>
	<path class="st46" d="M996.8,124.7l-13.6,16.5c-0.1,0.2-0.1,0.4,0.1,0.6c0.1,0.1,0.2,0.1,0.3,0.1h28.4c0.2,0,0.4-0.2,0.4-0.4
		c0-0.1,0-0.2-0.1-0.3l-7.2-8.1l-7.5-8.4C997.3,124.5,997.1,124.5,996.8,124.7C996.9,124.7,996.9,124.7,996.8,124.7z"/>
	<path class="st47" d="M1013.7,113.7l-9.4,18.6l3.6,4l21.6-23.8c0.3-0.3,0.2-0.7-0.1-1c-0.1-0.1-0.3-0.2-0.5-0.2h-11.3
		C1016,111.3,1014.5,112.2,1013.7,113.7z"/>
	<path class="st48" d="M980.7,113.3l10.3,18.3l-4.1,4.3l-19.6-22.2c-0.4-0.5-0.4-1.3,0.2-1.8c0.2-0.2,0.5-0.3,0.8-0.3h9.8
		C979.2,111.6,980.2,112.3,980.7,113.3z"/>
	<line class="st49" x1="997.1" y1="124.5" x2="997.1" y2="106.7"/>
	<circle class="st50" cx="1113.8" cy="137.8" r="46.5"/>
	<path class="st6" d="M1113.8,92.2c25.1,0,45.5,20.4,45.5,45.5s-20.4,45.5-45.5,45.5s-45.5-20.4-45.5-45.5
		C1068.4,112.6,1088.7,92.3,1113.8,92.2 M1113.8,90.2c-26.2,0-47.5,21.3-47.5,47.5s21.3,47.5,47.5,47.5s47.5-21.3,47.5-47.5
		S1140.1,90.2,1113.8,90.2z"/>
	<path class="st51" d="M1114.2,111.1c9,0,38.1,0.8,38.1,30.4s-34.9,31.5-37.9,31.5s-38.8-1.1-38.8-32.2S1112.7,111.1,1114.2,111.1z"
		/>
	<path class="st52" d="M1105.3,112.2c0,0-8,1-12,3c-2.8,1.4-9,17.7-7.9,29s4.4,21.5,6.9,23c5,3,12,4,12,4c-3.5-8.6-5.2-17.7-5.1-27
		C1099.3,128.6,1105.3,112.2,1105.3,112.2z"/>
	<path class="st52" d="M1124.3,171.1c0,0,9-1.8,13-4.8c3.6-2.7,4.9-12.7,4-24c-1-12-7-27-9-28s-8-2-9-2c3.4,8.6,5.1,17.8,5,27
		C1128.2,154.8,1124.3,171.1,1124.3,171.1z"/>
	
		<ellipse transform="matrix(0.1302 -0.9915 0.9915 0.1302 844.7767 1242.0139)" class="st53" cx="1130.3" cy="139.5" rx="4.9" ry="4.9"/>
	<circle class="st54" cx="1098.1" cy="137.6" r="4.9"/>
	<polygon class="st54" points="1113.8,140.4 1109.2,145.1 1118.3,145.1 	"/>
	<polyline class="st55" points="1111.2,111 1109.9,102.7 1118.1,102.7 1117,111 	"/>
	<path class="st54" d="M1089.9,142.5c0,0,0.8,8.5,4.3,12.1c2.6,2.4,5.4,4.6,8.5,6.4v-1.4h4.9v2.7c2,0.4,3.9,0.6,5.9,0.7
		c2.2-0.1,4.3-0.3,6.5-0.7v-2.7h4.3v1.5c0,0,6.6-2.6,9.8-7.8c1.9-3,3.1-6.4,3.4-9.9c-2.7,3.2-6.2,5.5-10.2,6.7v3.8h-5.8v-2.6
		c-2.5,0.4-5,0.6-7.5,0.7c-2.7-0.1-5.4-0.4-8.1-0.8v2.7h-5.6v-4.3C1100.3,149.4,1096.8,148.8,1089.9,142.5z"/>
	<circle class="st14" cx="78.8" cy="278.1" r="46.5"/>
	<path class="st6" d="M78.8,232.6c25.1,0,45.5,20.4,45.5,45.5s-20.4,45.5-45.5,45.5s-45.5-20.4-45.5-45.5
		C33.4,253,53.7,232.6,78.8,232.6 M78.8,230.6c-26.2,0-47.5,21.3-47.5,47.5s21.3,47.5,47.5,47.5s47.5-21.3,47.5-47.5
		S105.1,230.6,78.8,230.6L78.8,230.6z"/>
	<path class="st56" d="M54.6,258.4c4.6-6.5,15.2-15.6,34.3-14.6s19.8,2.8,20.6,4.5c1.4,3.2,9.1,25.9-3.5,44.7s-34.3,21.6-52.7,14.5
		l-3.2,3.2l-3.8-3.8l3.5-3.5C49.7,303.5,39.6,279.3,54.6,258.4z"/>
	<polyline class="st6" points="60,294.8 60.4,272.3 62.8,291.7 73.8,280.8 74.2,257.4 76.6,277.6 95.6,258.7 78.3,279.6 99.2,279.9 
		75.8,282 65.1,293.8 85.3,294.5 63.3,297.8 	"/>
	<circle class="st57" cx="194.2" cy="278.1" r="47.5"/>
	<path class="st6" d="M194.2,231.6c25.7,0,46.5,20.8,46.5,46.5s-20.8,46.5-46.5,46.5s-46.5-20.8-46.5-46.5l0,0
		C147.7,252.4,168.5,231.6,194.2,231.6 M194.2,229.6c-26.8,0-48.5,21.7-48.5,48.5s21.7,48.5,48.5,48.5s48.5-21.7,48.5-48.5
		C242.7,251.3,220.9,229.6,194.2,229.6z"/>
	
		<ellipse transform="matrix(0.5258 -0.8506 0.8506 0.5258 -161.5992 306.8215)" class="st58" cx="194.4" cy="298.3" rx="23.1" ry="23.1"/>
	<circle class="st59" cx="194.4" cy="263.7" r="18"/>
	<path class="st60" d="M192.4,293.7c-0.3-1.1,0.4-2.2,1.5-2.4s2.2,0.4,2.4,1.5c0.3,1.1-0.4,2.2-1.5,2.4c0,0,0,0,0,0
		C193.8,295.5,192.7,294.8,192.4,293.7z"/>
	<path class="st60" d="M192.4,303.3c-0.3-1.1,0.4-2.2,1.5-2.4s2.2,0.4,2.4,1.5c0.3,1.1-0.4,2.2-1.5,2.4c0,0,0,0,0,0
		C193.8,305,192.7,304.4,192.4,303.3z"/>
	<path class="st61" d="M185.1,262c-0.3-1.1,0.4-2.2,1.5-2.4s2.2,0.4,2.4,1.5c0.3,1.1-0.4,2.2-1.5,2.4c0,0,0,0,0,0
		C186.4,263.7,185.4,263.1,185.1,262z"/>
	<path class="st61" d="M198.9,262c-0.3-1.1,0.4-2.2,1.5-2.4s2.2,0.4,2.4,1.5c0.3,1.1-0.4,2.2-1.5,2.4c0,0,0,0,0,0
		C200.2,263.7,199.2,263.1,198.9,262z"/>
	<path class="st62" d="M211,236.9l9.6,9.6c0.4,0.4,0.4,1.1,0,1.6l-8.4,8.4c-0.4,0.4-1.1,0.4-1.6,0l-9.6-9.6c-0.4-0.4-0.4-1.1,0-1.6
		l8.4-8.4C209.8,236.5,210.5,236.5,211,236.9z"/>
	<path class="st63" d="M207.7,284.8l13.7-13.7c0.4-0.4,1.1-0.4,1.5,0l0.7,0.7c0.4,0.4,0.4,1.1,0,1.5l-13.7,13.7
		c-0.4,0.4-1.1,0.4-1.5,0l-0.7-0.7C207.3,285.8,207.3,285.2,207.7,284.8z"/>
	<path class="st63" d="M178.6,286.9l-13.7-13.7c-0.4-0.4-0.4-1.1,0-1.5l0.7-0.7c0.4-0.4,1.1-0.4,1.5,0l13.7,13.7
		c0.4,0.4,0.4,1.1,0,1.5l-0.7,0.7C179.7,287.3,179,287.3,178.6,286.9z"/>
	<path class="st64" d="M181.1,274.9h26.5c1.6,0,2.8,1.3,2.8,2.8v2.6c0,1.6-1.3,2.8-2.8,2.8h-26.5c-1.6,0-2.8-1.3-2.8-2.8v-2.6
		C178.3,276.1,179.6,274.9,181.1,274.9z"/>
	<circle class="st14" cx="308.8" cy="278.1" r="47.5"/>
	<path class="st6" d="M308.8,231.6c25.7,0,46.5,20.8,46.5,46.5s-20.8,46.5-46.5,46.5s-46.5-20.8-46.5-46.5l0,0
		C262.4,252.4,283.2,231.6,308.8,231.6 M308.8,229.6c-26.8,0-48.5,21.7-48.5,48.5s21.7,48.5,48.5,48.5s48.5-21.7,48.5-48.5
		C357.3,251.3,335.6,229.6,308.8,229.6z"/>
	<path class="st65" d="M308.9,238.9l1.9,3.8c0.1,0.2,0.2,0.3,0.4,0.3l4.2,0.6c0.3,0,0.5,0.3,0.4,0.6c0,0.1-0.1,0.2-0.2,0.3l-3,3
		c-0.1,0.1-0.2,0.3-0.1,0.4l0.7,4.2c0,0.3-0.2,0.5-0.4,0.6c-0.1,0-0.2,0-0.3-0.1l-3.8-2c-0.1-0.1-0.3-0.1-0.5,0l-3.8,2
		c-0.3,0.1-0.6,0-0.7-0.2c0-0.1-0.1-0.2-0.1-0.3l0.7-4.2c0-0.2,0-0.3-0.1-0.4l-3-3c-0.2-0.2-0.2-0.5,0-0.7c0.1-0.1,0.2-0.1,0.3-0.1
		l4.2-0.6c0.2,0,0.3-0.1,0.4-0.3l1.9-3.8c0.2-0.2,0.5-0.3,0.7-0.1C308.9,238.8,308.9,238.8,308.9,238.9z"/>
	<path class="st66" d="M301.1,304.3l14.4,0.2v12.6c0,0.8,0,1.9-0.9,2.1s-11.4,0-12.2,0s-1.3-1-1.3-2.7
		C301.2,315.1,301.1,304.3,301.1,304.3z"/>
	<path class="st67" d="M308.5,304.3h-27.9c-1.2,0-2.1-0.9-2.1-2.1c0,0,0,0,0-0.1c0-1.1,0.6-2.5,2.4-4.3c2.6-2.6,3.8-4,4.4-4.6
		c0.3-0.4,0.5-0.8,0.5-1.3c0-0.6-0.1-1.4-0.4-1.7c-0.6-0.5-5-3-0.8-7s7.8-7.1,7.6-8.5s-5.3-3.2-0.4-7.8s6.9-6.3,7.9-7.2s6.5-7,8.9-7
		"/>
	<path class="st67" d="M308.1,304.3H336c1.2,0,2.1-0.9,2.1-2.1c0,0,0,0,0,0c0-1.1-0.6-2.5-2.4-4.3c-2.6-2.6-3.8-4-4.4-4.6
		c-0.3-0.4-0.5-0.8-0.5-1.3c0-0.6,0-1.4,0.4-1.7c0.6-0.5,5-3,0.8-7s-7.8-7.1-7.6-8.5s5.3-3.2,0.4-7.8s-6.9-6.3-7.9-7.2s-6.5-7-8.9-7
		"/>
	<circle class="st68" cx="423.8" cy="278.5" r="47.5"/>
	<path class="st6" d="M423.8,232c25.7,0,46.5,20.8,46.5,46.5S449.5,325,423.8,325s-46.5-20.8-46.5-46.5
		C377.4,252.8,398.2,232,423.8,232 M423.8,230c-26.8,0-48.5,21.7-48.5,48.5S397,327,423.8,327s48.5-21.7,48.5-48.5
		S450.6,230,423.8,230z"/>
	<path class="st69" d="M425.7,238.5c-2.9,0-13.7,1.2-21.4,7.5c-4,3.3-7.1,7.7-8.9,12.5c-3.2,9.1-4.4,12.5-5.8,17.3
		c-1.5,5.3-2.5,21.2,5.6,30.5s24.2,11.3,30.5,11.3"/>
	<path class="st69" d="M425.7,238.5c2.9,0,13.7,1.2,21.4,7.5c4,3.3,7.1,7.7,8.9,12.5c3.2,9.1,4.4,12.5,5.8,17.3
		c1.5,5.3,2.5,21.2-5.7,30.5s-24.2,11.3-30.5,11.3"/>
	<path class="st70" d="M424.2,239c-2.9,0-13.7,1.2-21.4,7.5c-4,3.3-7,7.6-8.9,12.5c-3.2,9.1-4.4,12.5-5.8,17.3
		c-1.5,5.3-2.5,21.2,5.7,30.5s24.2,11.3,30.5,11.3"/>
	<path class="st70" d="M424.2,239c2.9,0,13.7,1.2,21.5,7.5c4,3.3,7,7.6,8.9,12.5c3.2,9.1,4.4,12.5,5.8,17.3
		c1.5,5.3,2.5,21.2-5.7,30.5s-24.2,11.3-30.5,11.3"/>
	<path class="st71" d="M424.4,252.8h-13c-1.2,0-5.6,0.3-7.6,3.9s-3.8,10.5-4.2,11.9s-2.9,11.2-0.5,14s3.9,3.1,7.2,3.5s18,0,18,0"/>
	<path class="st71" d="M424.4,252.8h13c1.2,0,5.6,0.3,7.6,3.9s3.8,10.5,4.2,11.9s2.9,11.2,0.5,14s-3.9,3.1-7.2,3.5s-18,0-18,0"/>
	<path class="st72" d="M417.5,267.3c0,2.8-2.2,5-5,5s-5-2.2-5-5s2.2-5,5-5S417.5,264.5,417.5,267.3z"/>
	<path class="st73" d="M408.5,253.7c2.1,0.1,4.2,0.7,6.2,1.7c2.4,1.2,3.6,2,4.5,2s0.5-0.5,1-1.1s2.4-0.3,2.6,0.6s0.7,2.5-2.3,2.9
		s-11-1.5-12.3-1.5c-1.2,0.1-2.1,0.9-2.4,2c0,0.7,0.2,1.3,0.6,1.9c0.5,1.2,0,2.6-1,3.3c-1.5,0.9-4.9-0.3-4.6-4.7
		c0-2.5,1.4-4.9,3.6-6.2C404.6,254.3,405.7,253.7,408.5,253.7z"/>
	<path class="st73" d="M440.4,253.7c-2.1,0.1-4.2,0.7-6.2,1.7c-2.4,1.2-3.6,2-4.5,2s-0.4-0.5-1-1.1s-2.4-0.3-2.6,0.6
		s-0.7,2.5,2.3,2.9s11-1.5,12.3-1.5c1.2,0.1,2.1,0.9,2.4,2c0,0.7-0.2,1.3-0.6,1.9c-0.5,1.2-0.1,2.6,1,3.3c1.5,0.9,4.9-0.3,4.6-4.7
		c0-2.5-1.4-4.9-3.6-6.2C444.2,254.3,443.2,253.7,440.4,253.7z"/>
	<path class="st73" d="M415.9,267.3c0,1.8-1.5,3.3-3.3,3.3c-1.8,0-3.3-1.5-3.3-3.3c0-1.8,1.5-3.3,3.3-3.3S415.9,265.5,415.9,267.3
		C415.9,267.3,415.9,267.3,415.9,267.3z"/>
	<circle class="st72" cx="436.7" cy="267.3" r="5"/>
	<path class="st73" d="M440,267.3c0,1.8-1.5,3.3-3.3,3.3c-1.8,0-3.3-1.5-3.3-3.3c0-1.8,1.5-3.3,3.3-3.3c0,0,0,0,0,0
		C438.5,264,440,265.5,440,267.3C440,267.3,440,267.3,440,267.3z"/>
	<path class="st74" d="M401.5,271.1c-0.2-0.3-0.5-0.4-0.8-0.2c-0.1,0.1-0.2,0.2-0.3,0.4c-0.6,2.4-1.1,8,0,9.9
		c1.6,2.6,4.3,4.9,10.2,3.9s4.3-1.8,4.3-1.8s-2.9-0.6-3-1.3s1.3-1.6,1.1-2.1s-3.3-0.1-3.5-0.4s0.9-3.1,0.4-3.3s-5.2,0-6-1
		C403.5,274.5,402.3,272.4,401.5,271.1z"/>
	<path class="st74" d="M447.1,270.9c0.2-0.3,0.5-0.4,0.8-0.2c0.1,0.1,0.2,0.2,0.3,0.4c0.6,2.4,1.1,8,0,9.9
		c-1.6,2.6-4.3,4.9-10.2,3.9s-4.3-1.8-4.3-1.8s2.9-0.6,3-1.3s-1.3-1.6-1.1-2.1s3.3-0.1,3.5-0.4s-0.8-3.1-0.4-3.3s5.2,0,6-1
		C445.1,274.3,446.3,272.2,447.1,270.9z"/>
	<path class="st75" d="M408.4,289.9c1.4,0,4.2,0.1,4,5.8s0.2,9,0.6,10c0.5,1.5,2.2,6.3-1.9,6s-7.2-15-7.2-16.6
		S403.7,289.9,408.4,289.9z"/>
	<path class="st75" d="M440.4,289.9c-1.4,0-4.2,0.1-4,5.8s-0.2,9-0.6,10c-0.5,1.5-2.2,6.3,1.9,6s7.2-15,7.2-16.6
		S445,289.9,440.4,289.9z"/>
	<path class="st76" d="M395.7,285c1.3,0,3.9,0,3.8,5.5s0.2,8.4,0.5,9.4c0.4,1.4,2.1,5.9-1.8,5.7s-6.8-14.1-6.7-15.6
		S391.3,285,395.7,285z"/>
	<path class="st76" d="M453.2,285c-1.3,0-3.9,0-3.8,5.5s-0.2,8.4-0.5,9.4c-0.4,1.4-2.1,5.9,1.8,5.7s6.8-14.1,6.7-15.6
		S457.5,285,453.2,285z"/>
	<circle class="st33" cx="538.8" cy="277.8" r="47.5"/>
	<path class="st6" d="M538.8,231.3c25.7,0,46.5,20.8,46.5,46.5s-20.8,46.5-46.5,46.5s-46.5-20.8-46.5-46.5l0,0
		C492.4,252.1,513.2,231.3,538.8,231.3 M538.8,229.3c-26.8,0-48.5,21.7-48.5,48.5s21.7,48.5,48.5,48.5s48.5-21.7,48.5-48.5
		S565.6,229.3,538.8,229.3L538.8,229.3z"/>
	<path class="st77" d="M531.2,304.7c0,0-33.7-19.2-33.7-39.6c0-16.3,20.3-28.5,33.7-10.7c11.5-17.4,33.5-8.9,33.5,10.5
		C564.6,285.5,531.2,304.7,531.2,304.7z"/>
	<path class="st78" d="M559.1,314.7c0,0-22.2-14.1-22.2-24.5s13.7-18.9,22.2-7.6c7.3-11.1,22.2-4.2,22.2,7.6
		C581.3,302.7,559.1,314.7,559.1,314.7z"/>
	<circle class="st79" cx="653.8" cy="278.6" r="47.5"/>
	<path class="st6" d="M653.8,232.1c25.7,0,46.5,20.8,46.5,46.5s-20.8,46.5-46.5,46.5s-46.5-20.8-46.5-46.5l0,0
		C607.4,252.9,628.2,232.1,653.8,232.1 M653.8,230.1c-26.8,0-48.5,21.7-48.5,48.5s21.7,48.5,48.5,48.5s48.5-21.7,48.5-48.5
		C702.3,251.8,680.6,230.1,653.8,230.1z"/>
	<path class="st80" d="M651.1,261.4c3.2-0.6,18.1-4.8,23.2,1.3c0,0,0.6,17.2,0.9,22.2c0.2,3.4,4.7,15.5-10.1,18.5
		c-6.8,1.8-15.4,1.9-26,2c-10.3,0.1-18.5-9.6-8.1-19c6.1-5.5,21.7-4.4,21.7-4.4L651.1,261.4z"/>
	<path class="st81" d="M652.8,262.7c-1.7-0.1-3.1-1.5-3.1-3.2c-0.2-4-1.4-10.2,0.5-12.1c3.6-3.7,23.8-4.3,25.6,1.2
		c0.8,2.4,0.8,7.3-0.1,11.1c-0.4,2-2.1,3.5-4.1,3.5L652.8,262.7z"/>
	<path class="st72" d="M666.3,272.9c1.7-0.6,3.5,0.3,4,2s-0.3,3.5-2,4s-3.5-0.3-4-2c0,0,0,0,0,0
		C663.8,275.3,664.7,273.5,666.3,272.9z"/>
	<path class="st72" d="M655.3,264.3c1.7-0.6,3.5,0.3,4,2s-0.3,3.5-2,4s-3.5-0.3-4-2c0,0,0,0,0,0
		C652.8,266.6,653.7,264.8,655.3,264.3z"/>
	<path class="st72" d="M656,281.7c1.7-0.6,3.5,0.3,4,2s-0.3,3.5-2,4s-3.5-0.3-4-2c0,0,0,0,0,0C653.4,284.1,654.3,282.3,656,281.7
		C656,281.7,656,281.7,656,281.7z"/>
	<path class="st72" d="M669.6,288.9c1.7-0.6,3.5,0.3,4,2s-0.3,3.5-2,4s-3.5-0.3-4-2c0,0,0,0,0,0C667,291.3,667.9,289.5,669.6,288.9z
		"/>
	
		<ellipse transform="matrix(0.6337 -0.7736 0.7736 0.6337 9.7411 617.0398)" class="st72" cx="656.4" cy="298.2" rx="3.2" ry="3.2"/>
	<path class="st72" d="M642.5,285.6c1.7-0.6,3.5,0.3,4,2s-0.3,3.5-2,4c-1.7,0.6-3.5-0.3-4-2c0,0,0,0,0,0
		C639.9,287.9,640.8,286.1,642.5,285.6z"/>
	<path class="st72" d="M634.1,296.3c1.7-0.6,3.5,0.3,4,2s-0.3,3.5-2,4c-1.7,0.6-3.5-0.3-4-2c0,0,0,0,0,0
		C631.6,298.6,632.5,296.9,634.1,296.3z"/>
	<circle class="st82" cx="768.8" cy="278.6" r="47.5"/>
	<path class="st6" d="M768.8,232.1c25.7,0,46.5,20.8,46.5,46.5s-20.8,46.5-46.5,46.5s-46.5-20.8-46.5-46.5l0,0
		C722.4,252.9,743.2,232.1,768.8,232.1 M768.8,230.1c-26.8,0-48.5,21.7-48.5,48.5s21.7,48.5,48.5,48.5s48.5-21.7,48.5-48.5
		C817.3,251.8,795.6,230.1,768.8,230.1z"/>
	<ellipse class="st83" cx="769" cy="278" rx="31.5" ry="13.4"/>
	<ellipse class="st83" cx="768.7" cy="264.6" rx="22.5" ry="9.2"/>
	<polyline class="st84" points="769,283.2 736.2,283.2 736.2,292 744,292 744,315.8 769,315.8 	"/>
	<polyline class="st84" points="769,283.2 801.9,283.2 801.9,292 794.1,292 794.1,315.8 769,315.8 	"/>
	<path class="st85" d="M775.9,299.5c0,3.8-3.1,6.9-6.9,6.9s-6.9-3.1-6.9-6.9c0-3.8,3.1-6.9,6.9-6.9c0,0,0,0,0,0
		C772.8,292.6,775.9,295.7,775.9,299.5z"/>
	<circle class="st86" cx="769.1" cy="253.2" r="9.7"/>
	<path class="st87" d="M776.2,242.7c-0.2-0.8-2.4-0.8-4.7-0.1s-4.1,2-3.8,2.8s2.4,0.8,4.7,0.1S776.5,243.5,776.2,242.7z"/>
	<circle class="st14" cx="883" cy="278.1" r="47.5"/>
	<path class="st6" d="M883,231.6c25.7,0,46.5,20.8,46.5,46.5s-20.8,46.5-46.5,46.5s-46.5-20.8-46.5-46.5l0,0
		C836.5,252.4,857.3,231.6,883,231.6 M883,229.6c-26.8,0-48.5,21.7-48.5,48.5s21.7,48.5,48.5,48.5s48.5-21.7,48.5-48.5
		S909.8,229.6,883,229.6L883,229.6z"/>
	<path class="st88" d="M856.2,265c0.9-1.9,9.8-15.5,13.1-17.3s13.7-7.7,18.1-7.7S877,257.9,876,258.4
		C874.5,259.1,856.2,265,856.2,265z"/>
	<path class="st89" d="M872.7,307.4c4.5,0.1,31.8-0.1,40.7-4.7c7.2-3.8,12.7-10.3,10.8-19.8c-2.8-14.2-20.6-23.8-38.8-24.2
		c-20.8-0.4-36.7,8.7-41.6,18.5s-3,16.8,0.1,21.2C848.5,305,859.4,307.1,872.7,307.4z"/>
	<path class="st90" d="M864.2,286.3c0.3,2.4-1.5,4.6-3.9,4.9c-2.4,0.3-4.6-1.5-4.9-3.9c-0.3-2.4,1.5-4.6,3.9-4.9c0.2,0,0.3,0,0.5,0
		C862.1,282.2,864.1,284,864.2,286.3z"/>
	<path class="st90" d="M848.8,279.3c0.2,2.4-1.5,4.6-4,4.8s-4.6-1.5-4.8-4c-0.2-2.4,1.5-4.6,4-4.8c0.1,0,0.3,0,0.4,0
		C846.7,275.2,848.7,277,848.8,279.3C848.8,279.3,848.8,279.3,848.8,279.3z"/>
	<path class="st88" d="M870.2,274.4c0,0,17.4-0.1,26.2-6.8s15.6-13.1,15.3-14.9s-19.9,2.1-26.6,6.5
		C878.4,263.7,870.2,272.6,870.2,274.4z"/>
	
		<ellipse transform="matrix(0.1602 -0.9871 0.9871 0.1602 563.8623 1219.8806)" class="st91" cx="998.8" cy="278.6" rx="47.5" ry="47.5"/>
	<path class="st6" d="M998.8,232.1c25.7,0,46.5,20.8,46.5,46.5s-20.8,46.5-46.5,46.5s-46.5-20.8-46.5-46.5l0,0
		C952.4,252.9,973.2,232.1,998.8,232.1 M998.8,230.1c-26.8,0-48.5,21.7-48.5,48.5s21.7,48.5,48.5,48.5s48.5-21.7,48.5-48.5
		C1047.3,251.8,1025.6,230.1,998.8,230.1L998.8,230.1z"/>
	<polygon class="st26" points="983.7,257.4 1015.2,257.4 1025.8,287.6 1000.2,307.6 999.3,307.6 973.7,287.6 	"/>
	<path class="st92" d="M1015.2,257.5c0,0-0.9-13.4-1.2-13.7s-8.7-6.4-9.3-6.4s-5.3,5.2-5.3,5.2s-4.9-5.2-5.6-5.2s-8.5,6-8.8,6.4
		s-1.5,13.7-1.5,13.7"/>
	<path class="st92" d="M999.3,307.2c0,0-8.9,10-9.4,10.1s-10.8-0.3-11.3-0.7s-1-7.4-1-7.4s-7.1,1.1-7.6,0.7s-3-9.9-3.1-10.5
		s7.2-11.8,7.2-11.8"/>
	<path class="st92" d="M1000.3,307c0,0,9,9.9,9.5,10s10.4,0.1,10.9-0.3s1.2-7.5,1.2-7.5s6.9,1.3,7.4,1s3.5-10.2,3.6-10.7
		s-7.3-11.7-7.3-11.7"/>
	<path class="st92" d="M1025.8,287.6c0,0,12.2-5.5,12.4-6s3.3-9.9,3.1-10.5s-6.8-3.5-6.8-3.5s3.4-6.1,3.2-6.7s-8.6-6.5-9.1-6.7
		s-13.4,3.4-13.4,3.4"/>
	<path class="st92" d="M973.7,287.6c0,0-12.4-5-12.6-5.5s-3.3-10.3-3.1-10.9s6.6-3.4,6.6-3.4s-3.4-6.3-3.2-6.9s8.3-6.2,8.8-6.4
		s13.5,2.9,13.5,2.9"/>
	<rect x="997.7" y="268.3" class="st72" width="2.8" height="15.4"/>
	
		<rect x="997.3" y="276.3" transform="matrix(0.7071 -0.7071 0.7071 0.7071 97.9973 791.9852)" class="st72" width="15.4" height="2.8"/>
	
		<rect x="991.9" y="269.6" transform="matrix(0.7786 -0.6276 0.6276 0.7786 45.9617 684.7623)" class="st72" width="2.8" height="15.4"/>
	<circle class="st93" cx="1113.8" cy="278.1" r="48"/>
	<path class="st94" d="M1114.2,236.6c-4,0-27.3-0.8-37.8,23c-8,18-1.4,35.2-0.2,36.9c3.9,5.5,9.7,8.3,11.5,10.2s4.2,2.8,4.2,10.2
		c0,2.3,10.2,1.9,10.2,0c0-2.2-0.2-5.2-0.1-7.3h1.4c0,0,0.1,6.1,0.1,7.3c0,1.8,9.7,1.8,9.7,0s0.1-7,0.1-8.3h1.6v8.3
		c0,1.8,9.7,1.8,9.7,0l0.8-7.7l1.2,0.1v7.8c0,1.5,9.7,1.3,9.8-0.3s0.5-5.2,1.5-6.8c2.9-4.5,11.4-8.1,14.7-13.7
		c2.3-3.9,6.2-19.3,0.1-33.8S1135.2,236.6,1114.2,236.6z"/>
	<ellipse class="st95" cx="1132.2" cy="282.6" rx="10.4" ry="10.2"/>
	<ellipse class="st95" cx="1096.5" cy="282.6" rx="10.4" ry="10.2"/>
	<path class="st96" d="M1112.6,292.5l-3.3,4.5c-0.6,0.9-0.4,2.2,0.6,2.8c0.3,0.2,0.7,0.3,1.1,0.3h6.9c1.1,0,2-0.9,2-2
		c0-0.4-0.1-0.8-0.4-1.1l-3.5-4.5c-0.7-0.9-1.9-1.1-2.8-0.4C1112.8,292.2,1112.7,292.4,1112.6,292.5z"/>
	<circle class="st97" cx="79.7" cy="418.8" r="47.5"/>
	<path class="st6" d="M79.7,372.3c25.7,0,46.5,20.8,46.5,46.5s-20.8,46.5-46.5,46.5s-46.5-20.8-46.5-46.5
		C33.2,393.2,54,372.4,79.7,372.3 M79.7,370.3c-26.8,0-48.5,21.7-48.5,48.5s21.7,48.5,48.5,48.5s48.5-21.7,48.5-48.5l0,0
		C128.2,392.1,106.5,370.3,79.7,370.3C79.7,370.3,79.7,370.3,79.7,370.3z"/>
	<path class="st98" d="M46.8,410.5l-2.4-18.4c-0.2-1.4,0.8-2.6,2.1-2.8c0.4-0.1,0.8,0,1.2,0.1l18.6,6.8L46.8,410.5z"/>
	<path class="st98" d="M93.8,395.7l17.2-7.1c1.3-0.5,2.7,0.1,3.2,1.3c0.2,0.4,0.2,0.8,0.2,1.2l-1.8,19.7L93.8,395.7z"/>
	<path class="st99" d="M79.7,456.1c-20.2,0-36.6-14.1-36.6-31.4s16.4-31.4,36.6-31.4s36.6,14.1,36.6,31.4S99.9,456.1,79.7,456.1z"/>
	<path class="st6" d="M79.7,394.1c19.8,0,35.8,13.7,35.8,30.6s-16.1,30.6-35.8,30.6s-35.8-13.7-35.8-30.6S60,394.1,79.7,394.1
		 M79.7,392.6c-20.6,0-37.3,14.4-37.3,32.1s16.7,32.1,37.3,32.1s37.3-14.4,37.3-32.1S100.3,392.6,79.7,392.6L79.7,392.6z"/>
	<path class="st100" d="M72.1,420c0,1.8-2.8,3.3-6.2,3.3s-6.1-1.5-6.1-3.3s2.8-3.3,6.1-3.3S72.1,418.2,72.1,420z"/>
	<path class="st101" d="M69.6,420c0.3,1.8-0.9,3.6-2.7,3.9s-3.6-0.9-3.9-2.7c-0.3-1.8,0.9-3.6,2.7-3.9c0.2,0,0.4-0.1,0.6-0.1
		C68,417.1,69.4,418.3,69.6,420z"/>
	<path class="st100" d="M87.5,420c0,1.8,2.8,3.3,6.1,3.3s6.1-1.5,6.1-3.3s-2.8-3.3-6.1-3.3S87.5,418.2,87.5,420z"/>
	<path class="st101" d="M90.1,420c-0.3,1.8,0.9,3.6,2.7,3.9c1.8,0.3,3.6-0.9,3.9-2.7c0.3-1.8-0.9-3.6-2.7-3.9
		c-0.2,0-0.4-0.1-0.6-0.1C91.7,417.1,90.2,418.3,90.1,420z"/>
	<path class="st102" d="M84.4,429.4c0,1.3-2.3,2.3-5.2,2.3s-5.2-1-5.2-2.3s2.3-2.3,5.2-2.3S84.4,428.1,84.4,429.4z"/>
	<circle class="st14" cx="308.8" cy="420" r="47.5"/>
	<path class="st6" d="M308.8,373.5c25.7,0,46.5,20.8,46.5,46.5s-20.8,46.5-46.5,46.5s-46.5-20.8-46.5-46.5
		C262.4,394.3,283.2,373.5,308.8,373.5 M308.8,371.5c-26.8,0-48.5,21.7-48.5,48.5s21.7,48.5,48.5,48.5s48.5-21.7,48.5-48.5
		S335.6,371.5,308.8,371.5z"/>
	<path class="st103" d="M308.4,422.5c0,0-17.1,33.3-18.4,33.3s-4.8-9.5-4.8-9.5s-8.8,2.7-9.7,2s15.4-28.5,15.4-28.5L308.4,422.5z"/>
	<path class="st103" d="M308.4,423.2c0,0,17.1,33.3,18.4,33.3s4.8-9.5,4.8-9.5s8.8,2.7,9.7,2s-15.4-28.5-15.4-28.5L308.4,423.2z"/>
	<path class="st103" d="M315.4,406.7c0,0,25.9-8.6,29.3-8.6s3.9,2.1,3.9,3.6v25.6c0,1.5-2.3,2.9-5.2,2.6s-28-7.9-28-7.9L315.4,406.7
		z"/>
	<path class="st103" d="M301.5,406.3c0,0-25.9-8.6-29.3-8.6s-3.9,2.1-3.9,3.6V427c0,1.5,2.4,2.9,5.2,2.6s28-7.9,28-7.9L301.5,406.3z
		"/>
	<path class="st103" d="M303.7,404.8h9.5c1.2,0,2.2,1,2.2,2.2v14.1c0,1.2-1,2.2-2.2,2.2h-9.5c-1.2,0-2.2-1-2.2-2.2V407
		C301.5,405.8,302.4,404.8,303.7,404.8z"/>
	<circle class="st8" cx="194.4" cy="420.9" r="47.5"/>
	<path class="st6" d="M194.4,374.4c25.7,0,46.5,20.8,46.5,46.5s-20.8,46.5-46.5,46.5s-46.5-20.8-46.5-46.5l0,0
		C147.9,395.3,168.7,374.5,194.4,374.4 M194.4,372.4c-26.8,0-48.5,21.7-48.5,48.5s21.7,48.5,48.5,48.5s48.5-21.7,48.5-48.5
		C242.9,394.2,221.2,372.4,194.4,372.4z"/>
	<path class="st104" d="M153.7,407.4h80.9c0.7,0,1.2,0.6,1.2,1.2c0,0,0,0.1,0,0.1c-0.6,7.1-5.3,39.5-40.5,39.5s-41.8-32.2-42.9-39.4
		c-0.1-0.7,0.4-1.3,1-1.4C153.6,407.4,153.6,407.4,153.7,407.4z"/>
	<path class="st105" d="M156,407.4h75.4c0.6,0,1.2,0.5,1.2,1.1c0,0,0,0.1,0,0.1c-0.6,6.6-5,36.8-37.7,36.8s-39-30-40-36.7
		c-0.1-0.6,0.4-1.2,1-1.3C155.9,407.4,155.9,407.4,156,407.4z"/>
	<ellipse class="st106" cx="194.7" cy="430.3" rx="1.1" ry="2.3"/>
	<path class="st106" d="M216.3,430.3c0,1.3-0.5,2.3-1.1,2.3s-1.1-1-1.1-2.3s0.5-2.3,1.1-2.3S216.3,429,216.3,430.3z"/>
	<ellipse class="st106" cx="174.3" cy="430.3" rx="1.1" ry="2.3"/>
	<path class="st106" d="M187.1,417.2c0,1.3-0.5,2.3-1.1,2.3s-1.1-1-1.1-2.3s0.5-2.3,1.1-2.3S187.1,415.9,187.1,417.2z"/>
	<ellipse class="st106" cx="166.5" cy="417.2" rx="1.1" ry="2.3"/>
	<path class="st106" d="M206.5,417.2c0,1.3-0.5,2.3-1.1,2.3s-1.1-1-1.1-2.3s0.5-2.3,1.1-2.3S206.5,415.9,206.5,417.2z"/>
	<path class="st106" d="M223.9,417.2c0,1.3-0.5,2.3-1.1,2.3s-1.1-1-1.1-2.3s0.5-2.3,1.1-2.3S223.9,415.9,223.9,417.2z"/>
	<circle class="st91" cx="538.8" cy="419" r="47.5"/>
	<path class="st6" d="M538.8,372.5c25.7,0,46.5,20.8,46.5,46.5s-20.8,46.5-46.5,46.5s-46.5-20.8-46.5-46.5
		C492.4,393.3,513.2,372.5,538.8,372.5 M538.8,370.5c-26.8,0-48.5,21.7-48.5,48.5s21.7,48.5,48.5,48.5s48.5-21.7,48.5-48.5
		S565.6,370.5,538.8,370.5L538.8,370.5z"/>
	<ellipse class="st107" cx="539.3" cy="420.5" rx="37.2" ry="30.2"/>
	<path class="st6" d="M539.3,391.1c20.1,0,36.4,13.2,36.4,29.4s-16.3,29.4-36.4,29.4s-36.4-13.2-36.4-29.4S519.3,391.1,539.3,391.1
		 M539.3,389.5c-21,0-38,13.9-38,31s17,31,38,31s38-13.9,38-31S560.3,389.5,539.3,389.5z"/>
	<path class="st108" d="M567.6,395.4c7,0,12.7,3.1,12.7,6.9s-5.7,6.9-12.7,6.9"/>
	<path class="st108" d="M574,408.6c0,3.8-5.7,6.9-12.7,6.9s-12.7-3.1-12.7-6.9"/>
	<path class="st108" d="M552.8,409.7c0,3.8-5.7,6.9-12.7,6.9s-12.7-3.1-12.7-6.9"/>
	<path class="st108" d="M529.7,409.1c-0.2,3.8-6,6.6-13,6.3s-12.5-3.6-12.4-7.4"/>
	<path class="st108" d="M572.5,395.9c0-3.8-5.7-6.9-12.7-6.9s-12.7,3.1-12.7,6.9"/>
	<path class="st108" d="M551.4,394.8c0-3.8-5.7-6.9-12.7-6.9S526,391,526,394.8"/>
	<path class="st108" d="M530.5,393.7c-0.3-3.8-6.2-6.4-13.2-5.8s-12.4,4.1-12.1,7.9"/>
	<path class="st108" d="M510.4,395.4c-7,0-12.7,3.1-12.7,6.9s5.7,6.9,12.7,6.9"/>
	<ellipse class="st109" cx="537" cy="402.3" rx="38.6" ry="10.6"/>
	<path class="st51" d="M538.9,381l-9.6,14.2c-0.8,1.2-0.2,3.2,0.9,3.2h18.4c1.1,0,1.7-2,1-3.2l-8.8-14.2c-0.1-0.5-0.7-0.8-1.2-0.7
		C539.2,380.4,539,380.7,538.9,381z"/>
	<ellipse class="st110" cx="550.8" cy="425.5" rx="3" ry="3.5"/>
	<ellipse class="st110" cx="525.8" cy="425.5" rx="3" ry="3.5"/>
	<path class="st111" d="M549.1,437l-0.7,2.3c-0.3,0.9-1.3,1.4-2.2,1.1c-0.4-0.1-0.8-0.4-1-0.9l-1.3-2.6"/>
	<path class="st111" d="M526.8,436.6l0.7,2.3c0.3,0.9,1.3,1.4,2.2,1.1c0.4-0.1,0.8-0.4,1-0.9l1.3-2.6"/>
	<circle class="st68" cx="423.8" cy="418.5" r="47.5"/>
	<path class="st6" d="M423.8,372c25.7,0,46.5,20.8,46.5,46.5S449.5,465,423.8,465s-46.5-20.8-46.5-46.5
		C377.4,392.8,398.2,372,423.8,372 M423.8,370c-26.8,0-48.5,21.7-48.5,48.5S397,467,423.8,467s48.5-21.7,48.5-48.5
		S450.6,370,423.8,370z"/>
	<polygon class="st112" points="385.9,405.1 410,405.1 410,388.2 436.6,388.2 436.6,405.1 460.9,405.1 460.9,441.4 385.9,441.4 	"/>
	<circle class="st113" cx="423.4" cy="398.8" r="7.5"/>
	<polyline class="st114" points="423.4,394.1 423.4,398.8 428.3,398.8 	"/>
	<rect x="440.1" y="412.8" class="st115" width="6.9" height="5.7"/>
	<rect x="451.5" y="412.8" class="st115" width="6.9" height="5.7"/>
	<rect x="414.3" y="433.7" class="st116" width="18.4" height="6.5"/>
	<rect x="388.8" y="412.8" class="st115" width="6.9" height="5.7"/>
	<rect x="388.8" y="422.1" class="st115" width="6.9" height="5.7"/>
	<rect x="400" y="422.1" class="st115" width="6.9" height="5.7"/>
	<rect x="400" y="412.8" class="st115" width="6.9" height="5.7"/>
	<rect x="414.3" y="412.8" class="st115" width="6.9" height="5.7"/>
	<rect x="414.3" y="422.1" class="st115" width="6.9" height="5.7"/>
	<rect x="425.8" y="412.8" class="st115" width="6.9" height="5.7"/>
	<rect x="425.8" y="422.1" class="st115" width="6.9" height="5.7"/>
	<rect x="451.5" y="422.1" class="st115" width="6.9" height="5.7"/>
	<rect x="440.1" y="422.1" class="st115" width="6.9" height="5.7"/>
	<rect x="412.3" y="431.7" class="st117" width="22.5" height="2"/>
	<circle class="st118" cx="653.8" cy="419.5" r="47.5"/>
	<path class="st6" d="M653.8,373c25.7,0,46.5,20.8,46.5,46.5S679.5,466,653.8,466s-46.5-20.8-46.5-46.5
		C607.4,393.8,628.2,373,653.8,373 M653.8,371c-26.8,0-48.5,21.7-48.5,48.5S627,468,653.8,468s48.5-21.7,48.5-48.5
		C702.3,392.7,680.6,371,653.8,371z"/>
	<circle class="st119" cx="653.5" cy="417.8" r="19.8"/>
	<rect x="650.9" y="382.5" class="st119" width="4.2" height="13.1"/>
	<rect x="651.4" y="440" class="st119" width="4.2" height="13.1"/>
	
		<rect x="625.6" y="435.6" transform="matrix(0.6607 -0.7507 0.7507 0.6607 -114.0525 623.0294)" class="st119" width="13.1" height="4.2"/>
	
		<rect x="666.8" y="394.6" transform="matrix(0.6607 -0.7507 0.7507 0.6607 -69.2915 640.0441)" class="st119" width="13.1" height="4.2"/>
	
		<rect x="631.6" y="390.1" transform="matrix(0.7507 -0.6607 0.6607 0.7507 -104.0857 517.5296)" class="st119" width="4.2" height="13.1"/>
	
		<rect x="672.1" y="432.5" transform="matrix(0.7507 -0.6607 0.6607 0.7507 -121.9417 554.8917)" class="st119" width="4.2" height="13.1"/>
	<rect x="676.2" y="416.8" class="st119" width="13.1" height="4.2"/>
	<rect x="616.7" y="416.4" class="st119" width="13.1" height="4.2"/>
	<circle class="st68" cx="768.7" cy="419" r="47.5"/>
	<path class="st6" d="M768.7,372.5c25.7,0,46.5,20.8,46.5,46.5s-20.8,46.5-46.5,46.5s-46.5-20.8-46.5-46.5
		C722.2,393.3,743,372.5,768.7,372.5 M768.7,370.5c-26.8,0-48.5,21.7-48.5,48.5s21.7,48.5,48.5,48.5s48.5-21.7,48.5-48.5
		C817.2,392.2,795.5,370.5,768.7,370.5C768.7,370.5,768.7,370.5,768.7,370.5z"/>
	<path class="st120" d="M777.3,383.2c8.8,1.9,15.8,22.3,13.4,29.5s-41.4-3.9-41.4-10.3C749.3,395.8,766.1,380.8,777.3,383.2z"/>
	<path class="st121" d="M757.7,408.8l21.5,6.3c0,0-5.3,44.7-21.5,41.4S757.7,408.8,757.7,408.8z"/>
	<line class="st122" x1="757.7" y1="432.8" x2="761.1" y2="416.3"/>
	<line class="st122" x1="763.2" y1="449.3" x2="766.6" y2="432.8"/>
	<circle class="st123" cx="883.8" cy="419" r="47.5"/>
	<path class="st6" d="M883.8,372.5c25.7,0,46.5,20.8,46.5,46.5s-20.8,46.5-46.5,46.5s-46.5-20.8-46.5-46.5
		C837.4,393.3,858.2,372.5,883.8,372.5 M883.8,370.5c-26.8,0-48.5,21.7-48.5,48.5s21.7,48.5,48.5,48.5s48.5-21.7,48.5-48.5
		S910.6,370.5,883.8,370.5L883.8,370.5z"/>
	<path class="st124" d="M884.9,386c4.5,0,16.6,3.6,22.2,15.2s17.4,34.1,5.7,46.7s-53.4,7.6-59.8-1c-8.1-8.5-3.2-27.7,7.7-47.3
		C869.1,384.7,884.9,386,884.9,386z"/>
	<path class="st124" d="M872.2,387.7l-7.8-5.3c-1.1-0.8-2.6-0.5-3.4,0.6c-0.4,0.5-0.5,1.2-0.4,1.8l2.1,11.2"/>
	<path class="st124" d="M895.5,388.6l7.8-5.3c1.1-0.7,2.6-0.4,3.4,0.7c0.3,0.5,0.5,1.2,0.4,1.8l-2.1,11.2"/>
	<ellipse class="st125" cx="883.4" cy="437.2" rx="17.7" ry="16.4"/>
	<ellipse class="st126" cx="883.4" cy="408.2" rx="24.2" ry="15.4"/>
	<path class="st72" d="M898.9,410.4c0,3.5-2.8,6.3-6.3,6.3c-3.5,0-6.3-2.8-6.3-6.3c0-3.5,2.8-6.3,6.3-6.3c0,0,0,0,0,0
		C896.1,404.1,898.9,406.9,898.9,410.4z"/>
	<path class="st72" d="M880.5,410.1c0,3.5-2.8,6.3-6.3,6.3c-3.5,0-6.3-2.8-6.3-6.3c0-3.5,2.8-6.3,6.3-6.3c0,0,0,0,0,0
		C877.7,403.8,880.5,406.6,880.5,410.1C880.5,410.1,880.5,410.1,880.5,410.1z"/>
	<circle class="st127" cx="874.2" cy="409.6" r="4.8"/>
	<circle class="st127" cx="892.6" cy="410.4" r="4.8"/>
	<path class="st109" d="M905.3,401.7l-21.8,8.5l-20.6-10.5c0,0,2.5-12,20.5-12S905.3,401.7,905.3,401.7z"/>
	<path class="st128" d="M880.1,413.6h6.7c0.9,0,1.5,0.7,1.5,1.5c0,0.3-0.1,0.5-0.2,0.8l-3.3,5.9c-0.4,0.7-1.4,1-2.1,0.6
		c-0.2-0.1-0.4-0.3-0.6-0.6l-3.3-5.9c-0.4-0.7-0.2-1.7,0.6-2.1C879.5,413.7,879.8,413.6,880.1,413.6z"/>
	<rect x="881.5" y="403" class="st109" width="3.9" height="10.5"/>
	<path class="st109" d="M875.3,431.3c0,0.9-0.7,1.6-1.6,1.6c-0.9,0-1.6-0.7-1.6-1.6c0-0.9,0.7-1.6,1.6-1.6S875.3,430.4,875.3,431.3
		L875.3,431.3z"/>
	<path class="st109" d="M885,431.3c0,0.9-0.7,1.6-1.6,1.6c-0.9,0-1.6-0.7-1.6-1.6c0-0.9,0.7-1.6,1.6-1.6S885,430.4,885,431.3
		L885,431.3z"/>
	<path class="st109" d="M894.2,431.3c0,0.9-0.7,1.6-1.6,1.6c-0.9,0-1.6-0.7-1.6-1.6c0-0.9,0.7-1.6,1.6-1.6S894.2,430.4,894.2,431.3
		L894.2,431.3z"/>
	<path class="st109" d="M875.5,440.6c0,0.9-0.7,1.6-1.6,1.6c-0.9,0-1.6-0.7-1.6-1.6c0-0.9,0.7-1.6,1.6-1.6c0,0,0,0,0,0
		C874.9,439,875.6,439.7,875.5,440.6z"/>
	<circle class="st109" cx="883.6" cy="440.6" r="1.6"/>
	<path class="st109" d="M894.4,440.6c0,0.9-0.7,1.6-1.6,1.6c-0.9,0-1.6-0.7-1.6-1.6c0-0.9,0.7-1.6,1.6-1.6S894.4,439.7,894.4,440.6
		L894.4,440.6z"/>
	
		<ellipse transform="matrix(0.1602 -0.9871 0.9871 0.1602 425.4035 1337.6819)" class="st50" cx="998.8" cy="418.8" rx="47.5" ry="47.5"/>
	<path class="st6" d="M998.8,372.3c25.7,0,46.5,20.8,46.5,46.5s-20.8,46.5-46.5,46.5s-46.5-20.8-46.5-46.5
		C952.4,393.2,973.2,372.4,998.8,372.3 M998.8,370.3c-26.8,0-48.5,21.7-48.5,48.5s21.7,48.5,48.5,48.5s48.5-21.7,48.5-48.5
		C1047.3,392.1,1025.6,370.3,998.8,370.3L998.8,370.3z"/>
	<path class="st129" d="M998.7,389.8c0,0,31.6,20.4,28.5,41.6c-2.9,19.5-27.7,14.4-30.8,14.9c-2.8,0.5-26.6,0.6-28.2-17.1
		C966.9,414.5,993,391.2,998.7,389.8z"/>
	<path class="st130" d="M1023.8,435.1c-1.1,5.2-8.8,10.7-24.2,10.6s-29-5.2-28.6-13.2s12-11.4,26.8-11.4S1025.5,427.4,1023.8,435.1z
		"/>
	<circle class="st14" cx="1113.7" cy="419.5" r="47.5"/>
	<path class="st6" d="M1113.7,373c25.7,0,46.5,20.8,46.5,46.5s-20.8,46.5-46.5,46.5s-46.5-20.8-46.5-46.5
		C1067.2,393.8,1088,373,1113.7,373 M1113.7,371c-26.8,0-48.5,21.7-48.5,48.5s21.7,48.5,48.5,48.5s48.5-21.7,48.5-48.5
		S1140.5,371,1113.7,371z"/>
	<ellipse class="st131" cx="1125.5" cy="446.2" rx="13.8" ry="13.3"/>
	<path class="st6" d="M1125.5,433.4c7.1,0.3,12.6,6.2,12.4,13.3c-0.3,7.1-6.2,12.6-13.3,12.4c-6.9-0.3-12.4-5.9-12.4-12.9
		C1112.3,439,1118.2,433.2,1125.5,433.4 M1125.5,432.4c-7.6,0.3-13.6,6.6-13.3,14.3c0.3,7.6,6.6,13.6,14.3,13.3
		c7.4-0.3,13.3-6.4,13.3-13.8C1139.6,438.5,1133.2,432.3,1125.5,432.4z"/>
	<path class="st131" d="M1085.5,446.2c-7.4-0.3-13.1-6.4-12.9-13.8c0.3-7.4,6.4-13.1,13.8-12.9c7.2,0.3,12.9,6.1,12.9,13.3
		C1099.1,440.4,1093,446.3,1085.5,446.2z"/>
	<path class="st6" d="M1085.5,420c7.1,0.3,12.6,6.2,12.4,13.3c-0.3,7.1-6.2,12.6-13.3,12.4c-6.9-0.3-12.4-5.9-12.4-12.9
		C1072.3,425.6,1078.2,419.9,1085.5,420 M1085.5,419c-7.6,0.3-13.6,6.7-13.3,14.3c0.3,7.6,6.7,13.6,14.3,13.3
		c7.4-0.3,13.3-6.4,13.3-13.8C1099.6,425.1,1093.2,418.9,1085.5,419z"/>
	
		<rect x="1085.7" y="407.1" transform="matrix(0.6821 -0.7312 0.7312 0.6821 53.032 938.9282)" class="st132" width="41.6" height="2.8"/>
	<path class="st6" d="M1119.6,393l1.2,1.1l-27.7,29.6l-1.2-1.1L1119.6,393 M1119.6,391.5l-29.1,31.2l2.8,2.6l29.1-31.2L1119.6,391.5
		z"/>
	
		<rect x="1122.6" y="393.7" transform="matrix(0.9986 -5.320740e-02 5.320740e-02 0.9986 -20.4639 60.3919)" class="st132" width="2.8" height="41.6"/>
	<path class="st6" d="M1123.7,394.3l2.2,40.5l-1.7,0.1l-2.2-40.5L1123.7,394.3 M1124.7,393.2l-3.8,0.2l2.3,42.6l3.8-0.2
		L1124.7,393.2z"/>
	<path class="st132" d="M1132,398.5c-5.1,0-9-1.7-9.4-4.1c-0.5-3.1,4.7-6.7,11.5-7.8c1.3-0.2,2.6-0.3,3.9-0.3c5.1,0,9,1.7,9.4,4.1
		c0.5,3.1-4.8,6.7-11.5,7.8C1134.6,398.4,1133.3,398.5,1132,398.5z"/>
	<path class="st6" d="M1138,387.1L1138,387.1c4.6,0,8.3,1.5,8.6,3.5c0.4,2.4-4.2,5.8-10.8,6.9c-1.3,0.2-2.5,0.3-3.8,0.3
		c-4.6,0-8.3-1.5-8.6-3.5c-0.4-2.4,4.2-5.8,10.8-6.9C1135.4,387.2,1136.7,387.1,1138,387.1 M1138,385.5c-1.4,0-2.7,0.1-4.1,0.3
		c-7.3,1.2-12.7,5-12.1,8.7c0.5,2.9,4.7,4.8,10.2,4.8c1.3,0,2.7-0.1,4-0.3c7.3-1.2,12.7-5,12.1-8.7
		C1147.6,387.4,1143.4,385.5,1138,385.5L1138,385.5z"/>
	<path class="st132" d="M1117.2,395c-3.4-0.2-6.6-1.2-9.5-2.9c-2.7-1.5-5.1-3.6-6.9-6.2c-1.4-2.1-1.7-4-1-5.2s2.2-1.8,4.3-1.8
		c3.4,0.2,6.6,1.2,9.5,2.9c2.7,1.5,5.1,3.6,6.9,6.2c1.4,2,1.7,4,1,5.2S1119.3,395,1117.2,395z"/>
	<path class="st6" d="M1104.1,379.7L1104.1,379.7c3.2,0.2,6.4,1.1,9.1,2.8c2.6,1.4,4.9,3.5,6.7,5.9c1.2,1.8,1.6,3.4,1,4.4
		s-1.8,1.4-3.6,1.4c-3.2-0.2-6.4-1.1-9.1-2.8c-2.6-1.4-4.9-3.5-6.7-5.9c-1.2-1.8-1.5-3.4-1-4.4S1102.3,379.7,1104.1,379.7
		 M1104.1,378.1c-2.3,0-4.2,0.7-5,2.1c-1.8,3.2,1.8,8.8,8.2,12.4c3,1.8,6.4,2.8,9.9,3c2.3,0,4.2-0.7,5-2.1c1.8-3.2-1.8-8.8-8.2-12.4
		C1111,379.3,1107.6,378.3,1104.1,378.1L1104.1,378.1z"/>
	<circle class="st118" cx="79.6" cy="559.6" r="47.5"/>
	<path class="st6" d="M79.6,513.1c25.7,0,46.5,20.8,46.5,46.5s-20.8,46.5-46.5,46.5s-46.5-20.8-46.5-46.5
		C33.1,533.9,53.9,513.1,79.6,513.1 M79.6,511.1c-26.8,0-48.5,21.7-48.5,48.5s21.7,48.5,48.5,48.5s48.5-21.7,48.5-48.5l0,0
		C128.1,532.8,106.4,511.1,79.6,511.1C79.6,511.1,79.6,511.1,79.6,511.1z"/>
	<path class="st68" d="M79.8,576.1c-13,0-23.5-10.5-23.5-23.5c0-13,10.5-23.5,23.5-23.5s23.5,10.5,23.5,23.5l0,0
		C103.2,565.5,92.7,576,79.8,576.1z"/>
	<path class="st6" d="M79.8,529.6c12.7,0,23,10.3,23,23s-10.3,23-23,23s-23-10.3-23-23l0,0C56.8,539.9,67.1,529.6,79.8,529.6
		 M79.8,528.6c-13.3,0-24,10.7-24,24s10.7,24,24,24s24-10.7,24-24S93,528.6,79.8,528.6z"/>
	<path class="st131" d="M79.8,556.5c-14.6,0-23.5-2.3-23.5-4s8.9-4,23.5-4s23.5,2.3,23.5,4S94.4,556.5,79.8,556.5z"/>
	<path class="st6" d="M79.8,549c5.5-0.1,11.1,0.4,16.5,1.2c5.2,0.9,6.5,2,6.6,2.3s-1.4,1.4-6.6,2.3c-5.5,0.9-11,1.3-16.5,1.2
		c-5.5,0.1-11.1-0.4-16.5-1.2c-5.2-0.9-6.5-2-6.6-2.3s1.4-1.4,6.6-2.3C68.7,549.4,74.2,548.9,79.8,549 M79.8,548.1
		c-13.2,0-24,2-24,4.4s10.7,4.4,24,4.4s24-2,24-4.4S93.1,548.1,79.8,548.1z"/>
	<path class="st68" d="M79.8,577c-24.4,0-45-5.8-45-12.7s20.6-12.7,45-12.7s45,5.8,45,12.7S104.2,577,79.8,577z"/>
	<path class="st6" d="M79.8,552.1c26.6,0,44.5,6.3,44.5,12.2s-17.9,12.2-44.5,12.2s-44.5-6.3-44.5-12.2S53.1,552.1,79.8,552.1
		 M79.8,551.1c-25.1,0-45.5,5.9-45.5,13.2s20.4,13.2,45.5,13.2s45.5-5.9,45.5-13.2S104.9,551.1,79.8,551.1z"/>
	<path class="st99" d="M78.7,572.8c-16.6,0-30.6-3.6-30.6-7.8s14-7.8,30.6-7.8s30.6,3.5,30.6,7.8S95.3,572.8,78.7,572.8z"/>
	<path class="st6" d="M78.7,557.6c7.3-0.1,14.6,0.7,21.7,2.4c5.4,1.4,8.6,3.3,8.6,5.1s-3.2,3.7-8.6,5.1c-7.1,1.6-14.4,2.4-21.7,2.3
		c-7.3,0.1-14.6-0.7-21.7-2.3c-5.4-1.4-8.6-3.3-8.6-5.1s3.2-3.7,8.6-5.1C64.1,558.3,71.4,557.5,78.7,557.6 M78.7,557
		c-17.1,0-30.9,3.6-30.9,8.1s13.8,8.1,30.9,8.1s30.9-3.6,30.9-8.1S95.8,557,78.7,557L78.7,557z"/>
	<path class="st133" d="M88.6,543.8c4.7,0.1,9.4,1.1,13.7,2.9"/>
	<path class="st133" d="M76.4,540.5c-4.7-0.8-9.4-0.6-14,0.5"/>
	<path class="st133" d="M63.5,555.7c-4.7,0.3-9.3,1.5-13.5,3.6"/>
	<path class="st133" d="M95.6,573.7c4.7-0.3,9.3-1.5,13.5-3.6"/>
	<circle class="st14" cx="194.2" cy="559.6" r="47.5"/>
	<path class="st6" d="M194.2,513.1c25.7,0,46.5,20.8,46.5,46.5s-20.8,46.5-46.5,46.5s-46.5-20.8-46.5-46.5
		C147.7,533.9,168.5,513.1,194.2,513.1 M194.2,511.1c-26.8,0-48.5,21.7-48.5,48.5s21.7,48.5,48.5,48.5s48.5-21.7,48.5-48.5l0,0
		C242.7,532.8,220.9,511.1,194.2,511.1z"/>
	<path class="st134" d="M198.8,584.9c-3.6,0-7.2-0.5-10.8-1.4c-9.5-2.5-17.8-8.4-23.1-16.6c-5.1-7.7-6.7-17.2-4.4-26.2
		c3.9-14.5,18.1-24.7,34.6-24.7c3.6,0,7.2,0.5,10.7,1.4c9.5,2.5,17.8,8.4,23.2,16.7c5.1,7.7,6.7,17.2,4.4,26.2
		C229.4,574.8,215.2,584.9,198.8,584.9z"/>
	<path class="st6" d="M195.1,515.2v1.6c3.6,0,7.1,0.5,10.5,1.4c9.3,2.4,17.4,8.2,22.7,16.3c5,7.5,6.5,16.8,4.3,25.5
		c-3.8,14.2-17.7,24.1-33.8,24.1c-3.6,0-7.1-0.5-10.5-1.4c-19.6-5.3-31.7-24.1-26.9-41.8c3.8-14.2,17.7-24,33.8-24L195.1,515.2
		 M195,515.3c-16.5,0-31.2,9.9-35.3,25.2c-5,18.7,7.5,38.3,28.1,43.8c3.6,1,7.3,1.5,11,1.5c16.5,0,31.2-9.9,35.3-25.2
		c5-18.7-7.5-38.3-28.1-43.8C202.5,515.8,198.8,515.3,195,515.3L195,515.3z"/>
	<path class="st68" d="M183.1,603.9c-0.2,0-0.4,0-0.6-0.1c-2.7-0.7-0.8-7.8,1.5-16c1.1-4.2,4.2-15.4,6.8-15.4h0.2
		c1.2,0.3,1.2,2.7,1,4.5c-0.5,3.9-1.4,7.7-2.5,11.4c-0.4,1.5-0.8,2.9-1.1,4.3C186.9,598.7,185.6,603.9,183.1,603.9z"/>
	<path class="st6" d="M190.8,571.7v1.5c0.2,0.1,0.7,0.8,0.5,3.8c-0.5,3.8-1.4,7.6-2.4,11.3c-0.4,1.5-0.8,2.9-1.1,4.3
		c-1.3,5.2-2.7,10.7-4.6,10.7c-0.1,0-0.3,0-0.4-0.1c-0.9-0.2-0.8-2.5-0.6-3.8c1.4-7.6,3.5-15.1,6.2-22.3c1.6-3.7,2.5-3.8,2.5-3.8
		V571.7 M190.8,571.7c-2.8,0-5.2,7.3-7.5,16c-2.4,9.1-4.3,16-0.9,16.9c0.3,0.1,0.5,0.1,0.8,0.1c3.7,0,4.8-7.6,7.1-16
		c2.4-9.1,3.9-16.1,0.9-16.9C191,571.7,190.9,571.7,190.8,571.7L190.8,571.7z"/>
	<text transform="matrix(0.9659 0.2589 -0.2589 0.9659 174.2094 559.1797)" class="st131 st135 st136">祭</text>
	<text transform="matrix(0.9659 0.2589 -0.2589 0.9659 174.2094 559.1797)" class="st137 st135 st136">祭</text>
	<circle class="st14" cx="308.8" cy="559.6" r="47.5"/>
	<path class="st6" d="M308.8,513.1c25.7,0,46.5,20.8,46.5,46.5s-20.8,46.5-46.5,46.5s-46.5-20.8-46.5-46.5
		C262.4,533.9,283.2,513.1,308.8,513.1 M308.8,511.1c-26.8,0-48.5,21.7-48.5,48.5s21.7,48.5,48.5,48.5s48.5-21.7,48.5-48.5l0,0
		C357.3,532.8,335.6,511.1,308.8,511.1z"/>
	<path class="st138" d="M279.2,571.3h57.7c2,0,3-3.2,1.6-5.1l-33.7-44.7c-0.6-0.9-1.8-1.1-2.7-0.6c-0.3,0.2-0.6,0.6-0.8,0.9
		l-24.1,44.7C276.3,568.5,277.4,571.3,279.2,571.3z"/>
	<line class="st139" x1="302.6" y1="571.3" x2="302.6" y2="520"/>
	<rect x="301" y="571.8" class="st140" width="3.3" height="14.2"/>
	<path class="st141" d="M271.1,577.5l75.9,1c0.9,0,1.6,0.7,1.6,1.6c0,0.5-0.2,0.9-0.5,1.2c-6.3,5.7-24.8,9.2-41.5,9.2
		s-31-4.6-36.7-10.3c-0.6-0.6-0.6-1.7,0-2.3C270.3,577.6,270.7,577.5,271.1,577.5z"/>
	<circle class="st134" cx="424.2" cy="559.6" r="47.5"/>
	<path class="st6" d="M424.2,513.1c25.7,0,46.5,20.8,46.5,46.5s-20.8,46.5-46.5,46.5s-46.5-20.8-46.5-46.5
		C377.7,533.9,398.5,513.1,424.2,513.1 M424.2,511.1c-26.8,0-48.5,21.7-48.5,48.5s21.7,48.5,48.5,48.5s48.5-21.7,48.5-48.5l0,0
		C472.7,532.8,451,511.1,424.2,511.1z"/>
	<path class="st142" d="M413.8,557c0,0-19,34.7-17,36.4s9.4-0.8,9.4-0.8s3.1,4.9,5.2,5.2c5.2,0.7,12.8-4,12.8-4s6.7,4.5,10.4,3.8
		s8.5-6.4,8.5-6.4s5.7,4.5,9.7,2.9c2-0.8-17.2-38-17.2-38L413.8,557z"/>
	<ellipse class="st143" cx="424.2" cy="521.7" rx="2.4" ry="6.6"/>
	<path class="st72" d="M424.2,562c-9.5,0-17.2-7.7-17.2-17.2c0-9.5,7.7-17.2,17.2-17.2s17.2,7.7,17.2,17.2l0,0
		C441.3,554.3,433.7,562,424.2,562z"/>
	<path class="st6" d="M424.2,528.4c9.1,0,16.4,7.3,16.4,16.4c0,9.1-7.3,16.4-16.4,16.4s-16.4-7.3-16.4-16.4c0,0,0,0,0,0
		C407.8,535.7,415.1,528.4,424.2,528.4 M424.2,526.9c-9.9,0-17.9,8-17.9,17.9s8,17.9,17.9,17.9s17.9-8,17.9-17.9l0,0
		C442.1,534.9,434.1,526.9,424.2,526.9z"/>
	<path class="st144" d="M431.7,543.4c0,0.8-0.6,1.4-1.4,1.4s-1.4-0.6-1.4-1.4c0-0.8,0.6-1.4,1.4-1.4h0
		C431.1,542,431.7,542.6,431.7,543.4z"/>
	<path class="st144" d="M419.5,543.4c0,0.8-0.6,1.4-1.4,1.4c-0.8,0-1.4-0.6-1.4-1.4c0-0.8,0.6-1.4,1.4-1.4c0,0,0,0,0,0
		C418.8,542,419.5,542.6,419.5,543.4z"/>
	<circle class="st145" cx="538.5" cy="559.9" r="47.5"/>
	<path class="st6" d="M538.5,513.4c25.7,0,46.5,20.8,46.5,46.5s-20.8,46.5-46.5,46.5S492,585.6,492,559.9
		C492,534.2,512.8,513.4,538.5,513.4 M538.5,511.4c-26.8,0-48.5,21.7-48.5,48.5s21.7,48.5,48.5,48.5c26.8,0,48.5-21.7,48.5-48.5l0,0
		C587,533.1,565.3,511.4,538.5,511.4z"/>
	<path class="st146" d="M566.5,557.5c7,0,12.7,3.1,12.7,6.9s-5.7,6.9-12.7,6.9"/>
	<path class="st146" d="M572.9,570.8c0,3.8-5.7,6.9-12.7,6.9s-12.7-3.1-12.7-6.9"/>
	<path class="st146" d="M551.7,571.8c0,3.8-5.7,6.9-12.7,6.9s-12.7-3.1-12.7-6.9"/>
	<path class="st146" d="M528.6,571.3c-0.2,3.8-6,6.6-13,6.3s-12.5-3.6-12.4-7.4"/>
	<path class="st146" d="M571.4,558c0-3.8-5.7-6.9-12.7-6.9S546,554.2,546,558"/>
	<path class="st146" d="M529.4,555.9c-0.3-3.8-6.2-6.4-13.2-5.8s-12.4,4.1-12.1,7.9"/>
	<path class="st146" d="M506.6,557c-7,0-12.7,3.1-12.7,6.9s5.7,6.9,12.7,6.9"/>
	<ellipse class="st147" cx="535.9" cy="564.4" rx="38.6" ry="10.6"/>
	<path class="st146" d="M551.2,554.7c0-3.8-5.7-6.9-12.7-6.9s-12.7,3.1-12.7,6.9"/>
	<circle class="st14" cx="653" cy="559.1" r="47.5"/>
	<path class="st6" d="M653,512.7c25.7,0,46.5,20.8,46.5,46.5s-20.8,46.5-46.5,46.5s-46.5-20.8-46.5-46.5
		C606.5,533.5,627.3,512.7,653,512.7 M653,510.7c-26.8,0-48.5,21.7-48.5,48.5s21.7,48.5,48.5,48.5s48.5-21.7,48.5-48.5l0,0
		C701.5,532.4,679.8,510.7,653,510.7z"/>
	<path class="st68" d="M669.7,591.6c-10,0-11.9-13.5-13.5-32.5c-1.1-13.7,0.8-24,5.4-29c1.9-2.2,4.7-3.4,7.7-3.4
		c3.3,0.1,6.4,1.7,8.5,4.2c5.5,6.2,7.9,18,6.3,30.7C681.5,582,679.3,591.6,669.7,591.6z"/>
	<path class="st6" d="M669.2,527.7c3,0.1,5.9,1.5,7.7,3.9c5.3,6,7.6,17.4,6.1,29.9c-2.7,21.5-5.1,29.1-13.4,29.1
		c-4.1,0-6.8-2.4-8.7-7.8s-2.9-13.5-3.8-23.8c-1.5-18,2.6-25.4,5.2-28.2C664.1,528.7,666.6,527.6,669.2,527.7 M669.2,525.7
		c-10.6,0-15.8,12.9-14.1,33.5c1.7,20.3,3.9,33.5,14.5,33.5s12.9-10.7,15.3-30.9C687.6,541.1,679.8,525.7,669.2,525.7L669.2,525.7z"
		/>
	<path class="st68" d="M622.9,586.3c-1.7,0-3.4-0.6-4.9-1.6c-8-5.4-4.5-14.6,4.8-33c6.8-13.4,17.2-22.4,26-22.4
		c5.2,0,9.5,3.8,10.2,8.9c1,6.8-3.1,16.4-11.7,27.1C638.1,576.8,629.9,586.3,622.9,586.3L622.9,586.3z"/>
	<path class="st6" d="M648.8,530.4c4.7-0.1,8.6,3.4,9.3,8c0.6,3.8-0.2,12.2-11.5,26.3c-8.7,10.9-17.1,20.7-23.7,20.7
		c-1.5,0-3-0.5-4.3-1.4c-3.5-2.4-4.6-5.5-3.7-10.5s4-11.6,8.8-21.2C631.3,537.2,641.8,530.4,648.8,530.4 M648.8,528.4
		c-8.6,0-19.5,8.4-26.8,22.9c-9.2,18.2-13.3,28.3-4.5,34.2c1.6,1.1,3.5,1.7,5.4,1.8c7.2,0,15.1-8.7,25.3-21.4
		c12.9-16.1,15.8-29.7,7-35.7C653.3,529.1,651,528.4,648.8,528.4L648.8,528.4z"/>
	<path class="st148" d="M665.3,546.2c-2.7,6.1-5.3,10.7-5.7,10.3s1.5-5.8,4.2-11.9s5.3-10.7,5.7-10.3S668,540.1,665.3,546.2z"/>
	<path class="st148" d="M675.4,544.6c2.9,6,4.9,11.2,4.5,11.6s-3.1-4-6-9.9s-4.9-11.2-4.5-11.6S672.5,538.7,675.4,544.6z"/>
	<path class="st148" d="M640.4,543.8c-5.9,3.1-10.8,5.1-10.9,4.5s4.7-3.6,10.7-6.7s10.8-5,10.9-4.5S646.4,540.7,640.4,543.8z"/>
	<path class="st148" d="M649.4,548.9c-1.5,6.5-3.1,11.8-3.8,11.9s0.1-5,1.5-11.5s3.1-11.8,3.8-11.9S650.8,542.4,649.4,548.9z"/>
	<path class="st149" d="M671,536.8c0,1.7-0.6,3-1.3,3s-1.3-1.3-1.3-3s0.6-3,1.3-3S671,535.2,671,536.8z"/>
	<path class="st149" d="M650.6,539.4c-1,1.3-2.3,2-2.8,1.6s-0.2-1.8,0.8-3.2s2.3-2,2.8-1.6S651.6,538.1,650.6,539.4z"/>
	<circle class="st150" cx="768.8" cy="559.1" r="47.5"/>
	<path class="st6" d="M768.8,512.6c25.7,0,46.5,20.8,46.5,46.5s-20.8,46.5-46.5,46.5s-46.5-20.8-46.5-46.5
		C722.4,533.4,743.2,512.6,768.8,512.6 M768.8,510.6c-26.8,0-48.5,21.7-48.5,48.5s21.7,48.5,48.5,48.5s48.5-21.7,48.5-48.5l0,0
		C817.3,532.3,795.6,510.6,768.8,510.6z"/>
	<path class="st147" d="M791.6,558.2c-0.2,0-0.4,0-0.5-0.2l-25-18.5c-0.3-0.3-0.5-0.8-0.3-1.2c0.2-1,0.9-1.9,1.9-2.3l26.4-8.4
		c0.2,0,0.3-0.1,0.5-0.1c0.2,0,0.5,0.1,0.6,0.2c0.2,0.3,0.3,0.6,0.3,0.9l-1.4,26.8C793.9,556.9,792.9,558,791.6,558.2L791.6,558.2z"
		/>
	<path class="st6" d="M794.5,528.5L794.5,528.5c0,0.1,0,0.2,0,0.2l-1.4,26.9c-0.1,0.9-0.7,1.6-1.5,1.8l-25-18.5
		c-0.1-0.3,0-0.5,0.1-0.8c0.2-0.6,0.6-1,1.2-1.2l26.4-8.4L794.5,528.5 M794.5,526.8c-0.2,0-0.5,0-0.7,0.1l-26.4,8.4
		c-2.2,0.7-3.4,3.9-1.8,5l25,18.5c0.3,0.2,0.6,0.3,1,0.3c1.8-0.2,3.1-1.6,3.2-3.4l1.4-26.9c0.2-1-0.5-1.9-1.5-2
		C794.6,526.7,794.5,526.7,794.5,526.8L794.5,526.8z"/>
	<path class="st68" d="M770.9,573c-2.9,0-5.7-0.9-8.1-2.7c-5.9-4.2-7.3-12.4-3.1-18.3c2.4-3.3,6.3-5.2,10.3-5.2
		c2.9,0,5.7,0.9,8.1,2.7c5.9,4.2,7.3,12.4,3.1,18.3C778.8,571.1,774.9,573,770.9,573z"/>
	<path class="st6" d="M770.1,547.7L770.1,547.7c2.7,0,5.4,0.9,7.6,2.5c5.5,3.9,6.8,11.6,2.9,17.1c-2.3,3.1-5.8,4.8-9.7,4.8
		c-2.7,0-5.4-0.9-7.6-2.5c-5.5-3.9-6.8-11.6-2.9-17.1C762.7,549.5,766.3,547.7,770.1,547.7 M770.1,546c-4.3,0-8.4,2-11,5.5
		c-4.5,6.3-3,15,3.2,19.5c2.5,1.8,5.5,2.8,8.6,2.8c4.3,0,8.4-2,11-5.5c4.5-6.3,3.1-15-3.2-19.5c0,0,0,0,0,0
		C776.1,547,773.1,546,770.1,546L770.1,546z"/>
	<path class="st50" d="M766.7,592.1c-0.4,0-0.9-0.1-1.2-0.4l-23.8-17.6c-0.9-0.7-1.1-2-0.4-2.9c0,0,0,0,0,0l6.3-8.6
		c0.4-0.5,1-0.8,1.7-0.8c0.4,0,0.9,0.1,1.2,0.4l23.8,17.6c0.9,0.7,1.1,2,0.4,2.9l-6.3,8.6C768,591.8,767.3,592.1,766.7,592.1z"/>
	<path class="st6" d="M749.2,562.5c0.3,0,0.6,0.1,0.8,0.3l23.8,17.6c0.6,0.4,0.7,1.3,0.3,1.8l-6.3,8.6c-0.4,0.6-1.3,0.7-1.8,0.3
		c0,0,0,0,0,0l-23.8-17.6c-0.6-0.4-0.7-1.3-0.3-1.8l6.3-8.6C748.4,562.7,748.8,562.5,749.2,562.5 M749.2,561c-0.9,0-1.8,0.4-2.3,1.2
		l-6.3,8.6c-0.9,1.3-0.7,3.1,0.6,4c0,0,0,0,0,0l23.8,17.6c1.3,0.9,3.1,0.7,4-0.6c0,0,0,0,0,0l6.3-8.6c0.9-1.3,0.7-3.1-0.6-4
		c0,0,0,0,0,0l-23.8-17.6C750.4,561.2,749.8,561,749.2,561L749.2,561z"/>
	
		<rect x="741.5" y="586.2" transform="matrix(0.5941 -0.8044 0.8044 0.5941 -170.1734 841.1183)" class="st99" width="13.8" height="6"/>
	<path class="st6" d="M750.1,582.4l4.2,3.1l-7.7,10.4l-4.2-3.1L750.1,582.4 M749.9,581.2l-8.7,11.8l5.5,4.1l8.7-11.8L749.9,581.2
		L749.9,581.2z"/>
	<circle class="st14" cx="883.6" cy="559.2" r="47.5"/>
	<path class="st6" d="M883.6,512.8c25.7,0,46.5,20.8,46.5,46.5s-20.8,46.5-46.5,46.5s-46.5-20.8-46.5-46.5
		C837.2,533.6,858,512.8,883.6,512.8 M883.6,510.8c-26.8,0-48.5,21.7-48.5,48.5s21.7,48.5,48.5,48.5s48.5-21.7,48.5-48.5l0,0
		C932.1,532.5,910.4,510.8,883.6,510.8z"/>
	<path class="st151" d="M884.2,521.9c0,0,16.1,10.4,14.5,21.2c-1.5,9.9-14.1,7.3-15.7,7.6c-1.4,0.2-13.5,0.3-14.3-8.7
		C868,534.4,881.3,522.6,884.2,521.9z"/>
	<rect x="877.3" y="553.2" class="st152" width="13" height="43"/>
	
		<ellipse transform="matrix(0.9533 -0.3019 0.3019 0.9533 -122.4239 327.6391)" class="st14" cx="998.7" cy="559.9" rx="47.5" ry="47.5"/>
	<path class="st6" d="M998.7,513.4c25.7,0,46.5,20.8,46.5,46.5s-20.8,46.5-46.5,46.5s-46.5-20.8-46.5-46.5
		C952.2,534.3,973,513.5,998.7,513.4 M998.7,511.4c-26.8,0-48.5,21.7-48.5,48.5s21.7,48.5,48.5,48.5s48.5-21.7,48.5-48.5v0
		C1047.2,533.1,1025.5,511.4,998.7,511.4L998.7,511.4z"/>
	<path class="st153" d="M970.9,537.2h56.6c1.6,0,3,1.3,3,3v47.6c0,1.6-1.3,3-3,3h-56.6c-1.6,0-3-1.3-3-3v-47.6
		C967.9,538.5,969.2,537.2,970.9,537.2z"/>
	<path class="st6" d="M1027.5,537.9c1.2,0,2.2,1,2.2,2.2v47.6c0,1.2-1,2.2-2.2,2.2l0,0h-56.6c-1.2,0-2.2-1-2.2-2.2l0,0v-47.6
		c0-1.2,1-2.2,2.2-2.2H1027.5 M1027.5,536.4h-56.6c-2,0-3.7,1.7-3.7,3.7l0,0v47.6c0,2,1.7,3.7,3.7,3.7h56.6c2,0,3.7-1.7,3.7-3.7
		v-47.6C1031.2,538.1,1029.5,536.4,1027.5,536.4z"/>
	<rect x="968" y="559.8" class="st154" width="62.4" height="7.4"/>
	<path class="st6" d="M1029.6,560.5v5.8h-60.8v-5.8H1029.6 M1031.2,559h-64v9h64V559z"/>
	<rect x="995" y="537.2" class="st154" width="7.5" height="53.5"/>
	<path class="st6" d="M1001.8,537.9V590h-6.1v-52.1H1001.8 M1003.2,536.4h-9v55h9V536.4z"/>
	<path class="st154" d="M995,538.5c-2.5,0-5-0.4-7.4-1.2c-6.7-2-10.8-5.5-10.2-7.5c0.3-1.1,2.3-1.8,5.2-1.8c2.5,0,5,0.4,7.4,1.2
		c6.7,2,10.8,5.5,10.2,7.5C999.9,537.8,997.9,538.5,995,538.5z"/>
	<path class="st6" d="M982.6,528.8L982.6,528.8c2.4,0,4.9,0.4,7.2,1.2c2.8,0.8,5.3,2,7.7,3.7c1.6,1.3,2.2,2.3,2,2.8
		s-1.5,1.3-4.5,1.3c-2.4,0-4.9-0.4-7.2-1.2c-6.9-2.1-10-5.4-9.7-6.5C978.2,529.6,979.6,528.8,982.6,528.8 M982.6,527.3
		c-3.2,0-5.5,0.8-5.9,2.4c-0.8,2.6,4,6.4,10.7,8.4c2.5,0.8,5,1.2,7.6,1.2c3.2,0,5.5-0.8,5.9-2.4c0.8-2.6-4-6.4-10.7-8.4
		C987.7,527.8,985.2,527.4,982.6,527.3z"/>
	<path class="st154" d="M1003.6,538.9c-2.7,0-4.6-0.7-5-1.8c-0.6-1.9,3.4-5.5,10.1-7.6c2.5-0.8,5-1.2,7.7-1.3c2.7,0,4.6,0.7,5,1.8
		c0.6,1.9-3.4,5.5-10.1,7.6C1008.7,538.4,1006.2,538.8,1003.6,538.9z"/>
	<path class="st6" d="M1016.3,529L1016.3,529c2.8,0,4.1,0.7,4.3,1.2c0.3,1.1-2.7,4.5-9.6,6.7c-2.4,0.8-4.9,1.2-7.4,1.3
		c-2.8,0-4.1-0.7-4.3-1.2c-0.4-1.1,2.7-4.5,9.6-6.7C1011.3,529.5,1013.8,529.1,1016.3,529 M1016.3,527.5c-2.7,0.1-5.3,0.5-7.9,1.3
		c-6.7,2.1-11.4,5.9-10.5,8.5c0.5,1.5,2.6,2.3,5.7,2.3c2.7-0.1,5.3-0.5,7.9-1.3c6.6-2.1,11.4-5.9,10.5-8.5
		C1021.5,528.3,1019.3,527.5,1016.3,527.5L1016.3,527.5z"/>
	<path class="st154" d="M999.1,539.4c-2.4,0-4.4-2.1-4.3-4.5c0-2.4,2.1-4.4,4.5-4.3c2.4,0,4.3,2,4.3,4.4
		C1003.6,537.5,1001.6,539.4,999.1,539.4C999.1,539.4,999.1,539.4,999.1,539.4z"/>
	<path class="st6" d="M999.1,531c2.2,0,4,1.8,4,4s-1.8,4-4,4s-4-1.8-4-4S996.9,531,999.1,531 M999.1,530.1c-2.7,0.1-4.8,2.3-4.7,5
		c0.1,2.7,2.3,4.8,5,4.7c2.6-0.1,4.7-2.2,4.7-4.9C1004.1,532.2,1001.9,530.1,999.1,530.1C999.2,530.1,999.1,530.1,999.1,530.1z"/>
	<circle class="st134" cx="1113.7" cy="559.7" r="47.5"/>
	<path class="st6" d="M1113.7,513.1c25.7,0,46.5,20.8,46.5,46.5s-20.8,46.5-46.5,46.5s-46.5-20.8-46.5-46.5
		C1067.2,533.9,1088,513.1,1113.7,513.1 M1113.7,511.1c-26.8,0-48.5,21.7-48.5,48.5s21.7,48.5,48.5,48.5s48.5-21.7,48.5-48.5l0,0
		C1162.2,532.8,1140.5,511.1,1113.7,511.1z"/>
	<path class="st155" d="M1115,526.9l8.6,17.3c0.3,0.7,1,1.2,1.8,1.3l19.1,2.8c1.3,0.2,2.2,1.4,2,2.7c-0.1,0.5-0.3,0.9-0.7,1.3
		l-13.8,13.5c-0.6,0.5-0.8,1.3-0.7,2.1l3.3,19c0.2,1.3-0.6,2.5-1.9,2.7c-0.5,0.1-1,0-1.5-0.2l-17.1-9c-0.7-0.4-1.5-0.4-2.2,0
		l-17.1,9c-1.2,0.6-2.6,0.1-3.2-1c-0.2-0.5-0.3-1-0.2-1.5l3.3-19c0.1-0.8-0.1-1.5-0.7-2.1l-13.9-13.4c-0.9-0.9-0.9-2.4,0-3.3
		c0.4-0.4,0.8-0.6,1.3-0.7l19.1-2.8c0.8-0.1,1.4-0.6,1.8-1.3l8.6-17.3c0.5-1.2,1.9-1.7,3.1-1.2C1114.3,526,1114.8,526.4,1115,526.9z
		"/>
	<circle class="st14" cx="76.4" cy="700.4" r="47.5"/>
	<path class="st6" d="M76.4,653.9c25.7,0,46.5,20.8,46.5,46.5s-20.8,46.5-46.5,46.5s-46.5-20.8-46.5-46.5l0,0
		C29.9,674.7,50.7,653.9,76.4,653.9 M76.4,651.9c-26.8,0-48.5,21.7-48.5,48.5s21.7,48.5,48.5,48.5s48.5-21.7,48.5-48.5
		C124.9,673.6,103.2,651.9,76.4,651.9C76.4,651.9,76.4,651.9,76.4,651.9z"/>
	<rect x="52" y="665.8" class="st72" width="50.1" height="70.1"/>
	<path class="st6" d="M101.6,666.2v69.2H52.4v-69.2H101.6 M102.5,665.3h-51v71h51V665.3z"/>
	<rect x="52" y="700.4" class="st131" width="50.1" height="2.7"/>
	<path class="st6" d="M101.6,700.9v1.8H52.4v-1.8H101.6 M102.5,700h-51v3.6h51V700L102.5,700z"/>
	<path class="st6" d="M82.8,695.6c0.1,0,0.3,0,0.4,0.1c0.2,0.3-0.3,2-2.6,4c-1.1,1.1-2.5,1.8-4,2c-0.1,0-0.3,0-0.4-0.1
		c0,0-0.1-0.4,0.3-1.2c0.6-1,1.4-2,2.3-2.7C79.9,696.5,81.3,695.8,82.8,695.6 M82.8,694.7c-1.7,0.2-3.3,1-4.6,2.2
		c-2.3,2-3.5,4.3-2.7,5.3c0.3,0.3,0.7,0.4,1.1,0.4c1.7-0.2,3.3-1,4.6-2.2c2.3-2,3.5-4.3,2.7-5.3C83.6,694.8,83.2,694.6,82.8,694.7z"
		/>
	<path class="st6" d="M68.9,694.9c0.8,0,2.3,0.7,3.9,2.3c0.9,0.8,1.6,1.8,2.1,2.9c0.3,0.9,0.2,1.2,0.2,1.3c-0.1,0-0.2,0.1-0.3,0.1
		c-1.5-0.3-2.9-1.1-3.9-2.3c-2.1-2.1-2.5-3.9-2.3-4.2C68.7,694.9,68.8,694.8,68.9,694.9 M68.9,693.9c-0.3,0-0.7,0.1-0.9,0.3
		c-0.9,0.9,0.1,3.3,2.3,5.5c1.6,1.6,3.4,2.6,4.6,2.6c0.3,0,0.7-0.1,0.9-0.3c0.9-0.9-0.1-3.3-2.2-5.5C71.8,694.9,70,693.9,68.9,693.9
		z"/>
	<path class="st156" d="M76.1,701.5c-0.7,1-4.6,4.8-7.3,4.8"/>
	<path class="st156" d="M75.5,701.4c0.7,1,4.6,4.8,7.3,4.8"/>
	<text transform="matrix(1 0 0 1 76.17 671.27)" class="st6 st135 st157">お年玉</text>
	<circle class="st8" cx="192.8" cy="700.7" r="47.5"/>
	<path class="st6" d="M192.8,654.2c25.7,0,46.5,20.8,46.5,46.5s-20.8,46.5-46.5,46.5s-46.5-20.8-46.5-46.5
		C146.3,675.1,167.2,654.2,192.8,654.2 M192.8,652.2c-26.8,0-48.5,21.7-48.5,48.5s21.7,48.5,48.5,48.5s48.5-21.7,48.5-48.5
		C241.3,673.9,219.6,652.2,192.8,652.2C192.8,652.2,192.8,652.2,192.8,652.2z"/>
	<path class="st158" d="M193,734.7c-21.2,0-38.4-14.4-38.4-32.1s17.2-32.1,38.4-32.1s38.4,14.4,38.4,32.1S214.2,734.7,193,734.7z"/>
	<path class="st6" d="M193,671.5c20.6,0,37.4,13.9,37.4,31s-16.8,31-37.4,31s-37.4-13.9-37.4-31S172.4,671.5,193,671.5 M193,669.4
		c-21.8,0-39.5,14.8-39.5,33.2s17.7,33.1,39.5,33.1s39.5-14.8,39.5-33.1S214.8,669.4,193,669.4z"/>
	<path class="st159" d="M184.8,677.6c0,1.1,0.9,2,2,2c3.6-0.2,11-0.4,12.8-0.1c2.3,0.4,2.3-2.9,2.2-3.7c-0.5-2.1-1.2-4.1-2-6.1
		c-1-2.6-6.7-5.9-6.7-5.9c-2,1.5-3.8,3.2-5.6,5.1c-1.2,1.5-2.8,7.1-2.8,7.6L184.8,677.6z"/>
	<path class="st159" d="M184.9,693.9c0-1.1,0.9-1.9,2-1.9c3.6,0.2,11,0.5,12.8,0.2c2.3-0.3,2.3,2.9,2.2,3.7c-0.6,2-1.3,4-2.1,6
		c-1,2.6-6.8,5.9-6.8,5.9c-2-1.6-3.8-3.3-5.5-5.1c-1.2-1.5-2.8-7.1-2.7-7.7L184.9,693.9z"/>
	<path class="st159" d="M204.3,695c-1.1,0-1.9-0.9-1.9-2c-0.1-3.9-0.4-12-0.8-13.9c-0.5-2.5,2.5-2.7,3.3-2.7
		c1.9,0.5,3.8,1.1,5.7,1.8c2.4,0.9,5.9,6.9,5.9,6.9c-1.3,2.2-2.7,4.4-4.3,6.4c-1.3,1.4-6.3,3.5-6.8,3.5L204.3,695z"/>
	<path class="st159" d="M183.5,676.9c1.1,0.2,1.8,1.1,1.8,2.2c-0.2,3.9-0.6,12-0.3,13.9c0.3,2.5-2.7,2.5-3.4,2.3
		c-1.9-0.6-3.7-1.4-5.5-2.3c-2.4-1.1-5.3-7.4-5.3-7.4c1.4-2.1,3-4.1,4.8-6c1.4-1.3,6.5-2.9,7.1-2.9L183.5,676.9z"/>
	<ellipse class="st160" cx="194.1" cy="686.3" rx="8.5" ry="6.4"/>
	<circle class="st26" cx="308.5" cy="699.7" r="47.5"/>
	<path class="st6" d="M308.5,653.2c25.7,0,46.5,20.8,46.5,46.5s-20.8,46.5-46.5,46.5S262,725.4,262,699.7
		C262,674,282.8,653.2,308.5,653.2 M308.5,651.2c-26.8,0-48.5,21.7-48.5,48.5s21.7,48.5,48.5,48.5s48.5-21.7,48.5-48.5l0,0
		C357,672.9,335.3,651.2,308.5,651.2z"/>
	<path class="st50" d="M309.6,675.2h35.1c1.1,0,1.9,0.9,1.9,1.9v46.3c0,1.1-0.9,1.9-1.9,1.9h-35.1c-1.1,0-1.9-0.9-1.9-1.9v-46.3
		C307.7,676,308.6,675.2,309.6,675.2z"/>
	<path class="st6" d="M344.8,675.6c0.8,0,1.5,0.6,1.5,1.5l0,0v46.2c0,0.8-0.6,1.5-1.4,1.5h0h-35.1c-0.8,0-1.5-0.6-1.5-1.5l0,0v-46.2
		c0-0.8,0.6-1.5,1.4-1.5h0H344.8 M344.8,674.7h-35.1c-1.3,0-2.4,1.1-2.4,2.4v46.2c0,1.3,1.1,2.4,2.4,2.4h35.1c1.3,0,2.4-1.1,2.4-2.4
		v-46.2C347.1,675.8,346.1,674.7,344.8,674.7z"/>
	<path class="st161" d="M272.6,675.2h35.1c1.1,0,1.9,0.9,1.9,1.9v46.3c0,1.1-0.9,1.9-1.9,1.9h-35.1c-1.1,0-1.9-0.9-1.9-1.9v-46.3
		C270.6,676,271.5,675.2,272.6,675.2z"/>
	<path class="st6" d="M307.7,675.6c0.8,0,1.5,0.6,1.5,1.5l0,0v46.2c0,0.8-0.6,1.5-1.4,1.5h0h-35.1c-0.8,0-1.5-0.6-1.5-1.5l0,0v-46.2
		c0-0.8,0.6-1.5,1.4-1.5h0H307.7 M307.7,674.7h-35.1c-1.3,0-2.4,1.1-2.4,2.4v46.2c0,1.3,1.1,2.4,2.4,2.4h35.1c1.3,0,2.4-1.1,2.4-2.4
		v-46.2C310,675.8,309,674.7,307.7,674.7z"/>
	<path class="st72" d="M311.5,675.1H342c1.1,0,2,0.9,2,2v44.4c0,1.1-0.9,2-2,2h-30.5c-1.1,0-2-0.9-2-2v-44.4
		C309.5,676,310.4,675.1,311.5,675.1z"/>
	<path class="st6" d="M342,675.5c0.8,0,1.5,0.7,1.5,1.5v44.4c0,0.9-0.7,1.5-1.5,1.5c0,0,0,0,0,0h-30.5c-0.8,0-1.5-0.7-1.5-1.5v-44.4
		c0-0.8,0.7-1.5,1.5-1.5H342 M342,674.7h-30.5c-1.3,0-2.4,1.1-2.4,2.4v44.4c0,1.3,1.1,2.4,2.4,2.4c0,0,0,0,0,0H342
		c1.3,0,2.4-1.1,2.4-2.4c0,0,0,0,0,0v-44.4C344.4,675.8,343.3,674.7,342,674.7C342,674.7,342,674.7,342,674.7z"/>
	<path class="st72" d="M276.3,675.1h30.5c1.1,0,2,0.9,2,2v44.4c0,1.1-0.9,2-2,2h-30.5c-1.1,0-2-0.9-2-2v-44.4
		C274.3,676,275.2,675.1,276.3,675.1z"/>
	<path class="st6" d="M306.8,675.5c0.8,0,1.5,0.7,1.5,1.5v44.4c0,0.8-0.7,1.5-1.5,1.5h-30.5c-0.8,0-1.5-0.7-1.5-1.5v-44.4
		c0-0.8,0.7-1.5,1.5-1.5H306.8 M306.8,674.7h-30.5c-1.3,0-2.4,1.1-2.4,2.4c0,0,0,0,0,0v44.4c0,1.3,1.1,2.4,2.4,2.4c0,0,0,0,0,0h30.5
		c1.3,0,2.4-1.1,2.4-2.4l0,0v-44.4C309.1,675.7,308.1,674.7,306.8,674.7z"/>
	<line class="st162" x1="280.8" y1="685.3" x2="300.3" y2="685.3"/>
	<line class="st162" x1="281.8" y1="692.8" x2="303.1" y2="692.8"/>
	<line class="st162" x1="284.1" y1="699.3" x2="300.8" y2="699.3"/>
	<line class="st162" x1="280.8" y1="705.8" x2="304" y2="705.8"/>
	<line class="st162" x1="282.7" y1="711.3" x2="301.2" y2="711.3"/>
	<line class="st162" x1="317.9" y1="687.2" x2="334.6" y2="687.2"/>
	<line class="st162" x1="319.8" y1="693.7" x2="337.4" y2="693.7"/>
	<line class="st162" x1="317" y1="703.9" x2="330" y2="703.9"/>
	<line class="st162" x1="321.6" y1="711.3" x2="339.3" y2="711.3"/>
	<line class="st162" x1="326.3" y1="700.2" x2="336.5" y2="700.2"/>
	<circle class="st99" cx="425.7" cy="700.9" r="47.5"/>
	<path class="st6" d="M425.7,654.4c25.7,0,46.5,20.8,46.5,46.5s-20.8,46.5-46.5,46.5s-46.5-20.8-46.5-46.5
		C379.2,675.2,400,654.4,425.7,654.4 M425.7,652.4c-26.8,0-48.5,21.7-48.5,48.5s21.7,48.5,48.5,48.5s48.5-21.7,48.5-48.5l0,0
		C474.2,674.1,452.5,652.4,425.7,652.4C425.7,652.4,425.7,652.4,425.7,652.4z"/>
	<path class="st163" d="M404.2,692c0,0-14.3,36.4-12,38.3s10.6-0.9,10.6-0.9s3.5,5.5,5.9,5.8c5.9,0.8,14.5-4.4,14.5-4.4
		s7.5,5,11.7,4.2s9.6-7.1,9.6-7.1s6.4,5,11,3.2c2.2-0.8-8.9-38.1-8.9-38.1l-4.6-15.5c-5-16.5-26.5-17.6-32.2-0.9L404.2,692z"/>
	<path class="st163" d="M429.1,694.3c0,0,0,6.7,3.4,6.7s4.6-6.7,4.6-6.7"/>
	<path class="st163" d="M414.1,693.9c0,0,0,6.7,3.4,6.7s4.6-6.7,4.6-6.7"/>
	<path class="st163" d="M431.3,681.5c0,0.3-0.3,0.6-0.6,0.6c-0.3,0-0.6-0.2-0.6-0.5c0-0.3,0.2-0.6,0.5-0.6c0,0,0.1,0,0.1,0
		C431.1,680.9,431.3,681.2,431.3,681.5z"/>
	<path class="st163" d="M422.3,681.5c0,0.3-0.2,0.6-0.5,0.6c-0.3,0-0.6-0.2-0.6-0.5c0-0.3,0.2-0.6,0.5-0.6c0,0,0,0,0,0
		C422,680.9,422.3,681.2,422.3,681.5z"/>
	<circle class="st123" cx="540.1" cy="700.6" r="47.5"/>
	<path class="st6" d="M540.1,654.1c25.7,0,46.5,20.8,46.5,46.5s-20.8,46.5-46.5,46.5s-46.5-20.8-46.5-46.5
		C493.7,674.9,514.5,654.1,540.1,654.1 M540.1,652.1c-26.8,0-48.5,21.7-48.5,48.5s21.7,48.5,48.5,48.5s48.5-21.7,48.5-48.5
		S566.9,652.1,540.1,652.1L540.1,652.1z"/>
	<path class="st164" d="M538.8,667.1c29.1,0,35.9,47.9,36,50.5c0,2.3,0.1,7-3.3,8.2c-2.5,0.9-60.6,0.9-64,0.2
		c-4.7-1.1-4.8-8-3.7-11.6C504.5,711.9,516.3,667.1,538.8,667.1z"/>
	<rect x="526.7" y="692.7" class="st165" width="25.6" height="33.8"/>
	<circle class="st14" cx="653.8" cy="701.8" r="47.5"/>
	<path class="st6" d="M653.8,655.3c25.7,0,46.5,20.8,46.5,46.5s-20.8,46.5-46.5,46.5s-46.5-20.8-46.5-46.5
		C607.4,676.1,628.2,655.3,653.8,655.3 M653.8,653.3c-26.8,0-48.5,21.7-48.5,48.5s21.7,48.5,48.5,48.5s48.5-21.7,48.5-48.5
		S680.6,653.3,653.8,653.3L653.8,653.3z"/>
	<path class="st166" d="M653.8,737.7c-21.2,0-38.4-15.2-38.4-34s17.2-34,38.4-34s38.4,15.2,38.4,34S675,737.7,653.8,737.7z"/>
	<path class="st167" d="M653.8,670.8c20.6,0,37.3,14.8,37.3,32.9s-16.7,32.9-37.3,32.9s-37.3-14.8-37.3-32.9
		S633.2,670.8,653.8,670.8 M653.8,668.6c-21.8,0-39.5,15.7-39.5,35.1s17.7,35.1,39.5,35.1s39.5-15.7,39.5-35.1
		S675.7,668.6,653.8,668.6z"/>
	<path class="st168" d="M662.2,670.4c1.5-0.9,4.5-1.8,8.3,0.2s3.8,2.4,3.8,2.8c0,0.8-0.5,6.1-4.8,8.8s-9,1.3-12.1-1.9l-1,0.4
		l-0.4-1.1l1-0.4C656.9,679.2,657.2,673.3,662.2,670.4z"/>
	<ellipse class="st169" cx="655" cy="681.8" rx="4" ry="3.5"/>
	<circle class="st123" cx="770.5" cy="700.2" r="47.5"/>
	<path class="st6" d="M770.5,653.7c25.7,0,46.5,20.8,46.5,46.5s-20.8,46.5-46.5,46.5S724,725.9,724,700.2
		C724,674.5,744.8,653.7,770.5,653.7 M770.5,651.7c-26.8,0-48.5,21.7-48.5,48.5s21.7,48.5,48.5,48.5S819,727,819,700.2l0,0
		C819,673.4,797.3,651.7,770.5,651.7C770.5,651.7,770.5,651.7,770.5,651.7z"/>
	<ellipse class="st68" cx="770.7" cy="701.2" rx="40.5" ry="23"/>
	<path class="st6" d="M770.7,679.2c10.7,0,20.8,2.4,28.3,6.8c7.2,4.2,11.2,9.6,11.2,15.2s-4,11.1-11.2,15.2
		c-7.5,4.4-17.6,6.8-28.3,6.8s-20.8-2.4-28.3-6.8c-7.2-4.2-11.2-9.6-11.2-15.2s4-11.1,11.2-15.2
		C749.9,681.6,759.9,679.2,770.7,679.2 M770.7,677.2c-22.9,0-41.5,10.8-41.5,24s18.6,24,41.5,24s41.5-10.7,41.5-24
		S793.6,677.2,770.7,677.2z"/>
	<ellipse class="st109" cx="750.7" cy="690.2" rx="2" ry="1.5"/>
	<path class="st6" d="M750.7,689.2c0.8,0,1.5,0.5,1.5,1s-0.7,1-1.5,1s-1.5-0.5-1.5-1S749.9,689.2,750.7,689.2 M750.7,688.2
		c-1.1,0.2-1.8,1.3-1.5,2.5s1.3,1.8,2.5,1.5c0.9-0.2,1.6-1,1.6-2C753,688.9,751.9,688.1,750.7,688.2z"/>
	<path class="st109" d="M762.7,703.7c-1.1,0-2-0.7-2-1.5s0.9-1.5,2-1.5s2,0.7,2,1.5S763.8,703.7,762.7,703.7z"/>
	<path class="st6" d="M762.7,701.2c0.8,0,1.5,0.5,1.5,1s-0.7,1-1.5,1s-1.5-0.5-1.5-1S761.9,701.2,762.7,701.2 M762.7,700.2
		c-1.1,0.2-1.8,1.3-1.5,2.5s1.3,1.8,2.5,1.5c0.9-0.2,1.6-1,1.6-2C765,700.9,763.9,700.1,762.7,700.2z"/>
	<ellipse class="st109" cx="787.7" cy="692.2" rx="2" ry="1.5"/>
	<path class="st6" d="M787.7,691.2c0.8,0,1.5,0.5,1.5,1s-0.7,1-1.5,1s-1.5-0.5-1.5-1S786.9,691.2,787.7,691.2 M787.7,690.2
		c-1.1,0.2-1.8,1.3-1.5,2.5s1.3,1.8,2.5,1.5c0.9-0.2,1.6-1,1.6-2C790,690.9,788.9,690.1,787.7,690.2z"/>
	<ellipse class="st109" cx="776.7" cy="710.2" rx="2" ry="1.5"/>
	<path class="st6" d="M776.7,709.2c0.8,0,1.5,0.5,1.5,1s-0.7,1-1.5,1s-1.5-0.5-1.5-1S775.9,709.2,776.7,709.2 M776.7,708.2
		c-1.1,0.2-1.8,1.3-1.5,2.5s1.3,1.8,2.5,1.5c0.9-0.2,1.6-1,1.6-2C779,708.9,777.9,708.1,776.7,708.2z"/>
	<ellipse class="st109" cx="799.7" cy="702.2" rx="2" ry="1.5"/>
	<path class="st6" d="M799.7,701.2c0.8,0,1.5,0.5,1.5,1s-0.7,1-1.5,1s-1.5-0.5-1.5-1S798.9,701.2,799.7,701.2 M799.7,700.2
		c-1.1,0.2-1.8,1.3-1.5,2.5s1.3,1.8,2.5,1.5c0.9-0.2,1.6-1,1.6-2C802,700.9,800.9,700.1,799.7,700.2z"/>
	<ellipse class="st109" cx="771.7" cy="686.2" rx="2" ry="1.5"/>
	<path class="st6" d="M771.7,685.2c0.8,0,1.5,0.5,1.5,1s-0.7,1-1.5,1s-1.5-0.5-1.5-1S770.9,685.2,771.7,685.2 M771.7,684.2
		c-1.1,0.2-1.8,1.3-1.5,2.5s1.3,1.8,2.5,1.5c0.9-0.2,1.6-1,1.6-2C774,684.9,772.9,684.1,771.7,684.2z"/>
	<ellipse class="st109" cx="744.7" cy="708.2" rx="2" ry="1.5"/>
	<path class="st6" d="M744.7,707.2c0.8,0,1.5,0.5,1.5,1s-0.7,1-1.5,1s-1.5-0.5-1.5-1S743.9,707.2,744.7,707.2 M744.7,706.2
		c-1.1,0.2-1.8,1.3-1.5,2.5s1.3,1.8,2.5,1.5c0.9-0.2,1.6-1,1.6-2C747,706.9,745.9,706.1,744.7,706.2z"/>
	<circle class="st14" cx="883.5" cy="699.3" r="47.5"/>
	<path class="st6" d="M883.5,652.8c25.7,0,46.5,20.8,46.5,46.5s-20.8,46.5-46.5,46.5S837,724.9,837,699.3
		C837,673.6,857.8,652.8,883.5,652.8 M883.5,650.8c-26.8,0-48.5,21.7-48.5,48.5s21.7,48.5,48.5,48.5S932,726,932,699.3
		C932,672.5,910.3,650.8,883.5,650.8C883.5,650.8,883.5,650.8,883.5,650.8z"/>
	<path class="st170" d="M870.8,674.3l39.9,13.6c0,0-10.8,55.2-39.9,44C840.2,720.3,870.8,674.3,870.8,674.3z"/>
	
		<ellipse transform="matrix(0.3448 -0.9387 0.9387 0.3448 -57.1609 1282.6068)" class="st171" cx="890.2" cy="682.2" rx="14.7" ry="22.3"/>
	
		<rect x="887.7" y="674.3" transform="matrix(0.3448 -0.9387 0.9387 0.3448 -50.3857 1280.5892)" class="st172" width="8.8" height="4.1"/>
	<path class="st173" d="M861.1,693.8c3.9,4,8.4,7.1,13.5,9.3"/>
	<path class="st173" d="M872.5,712.9c4.8,2.7,10.1,4.5,15.6,5.2"/>
	<path class="st173" d="M888.4,703.8c4.8,2.7,10.1,4.5,15.6,5.2"/>
	<circle class="st174" cx="999.7" cy="700.9" r="47.5"/>
	<path class="st6" d="M999.7,654.4c25.7,0,46.5,20.8,46.5,46.5s-20.8,46.5-46.5,46.5c-25.7,0-46.5-20.8-46.5-46.5
		C953.3,675.3,974.1,654.5,999.7,654.4 M999.7,652.4c-26.8,0-48.5,21.7-48.5,48.5s21.7,48.5,48.5,48.5c26.8,0,48.5-21.7,48.5-48.5
		l0,0C1048.2,674.2,1026.5,652.4,999.7,652.4z"/>
	<path class="st175" d="M990.5,712.1l1.6,1.5c0.9,0.8,2.2,0.7,3-0.1c0.1-0.1,0.1-0.1,0.2-0.2l32.7-42.9c0.8-1.1,0.7-2.5-0.3-3.5
		l-1.6-1.5c-0.9-0.8-2.2-0.7-3,0.1c-0.1,0.1-0.1,0.1-0.2,0.2l-32.7,42.9C989.4,709.7,989.5,711.2,990.5,712.1z"/>
	<path class="st176" d="M997.6,741.2c0,1.1-0.6,3.6-1.1,3.2l-36.7-24.8c-0.4-0.3-0.4-0.8-0.1-1.1c0.1-0.1,0.2-0.2,0.3-0.2l32.2-13.2
		c1.8,1.7,6.1,4,6.2,4.5L997.6,741.2z"/>
	<line class="st177" x1="977.7" y1="716.5" x2="968.9" y2="725.4"/>
	<line class="st177" x1="988.9" y1="716.5" x2="976.1" y2="730.7"/>
	<line class="st177" x1="988.9" y1="730.7" x2="984.1" y2="736"/>
	<circle class="st14" cx="1114.3" cy="699.7" r="47.5"/>
	<path class="st6" d="M1114.3,653.2c25.7,0,46.5,20.8,46.5,46.5s-20.8,46.5-46.5,46.5s-46.5-20.8-46.5-46.5l0,0
		C1067.8,674,1088.6,653.2,1114.3,653.2 M1114.3,651.2c-26.8,0-48.5,21.7-48.5,48.5s21.7,48.5,48.5,48.5s48.5-21.7,48.5-48.5l0,0
		C1162.8,672.9,1141.1,651.2,1114.3,651.2z"/>
	<path class="st178" d="M1137.4,696.2c6.1-7.2,4.9-16.1,3.4-21.4c-0.9-3-3.8-5-6.9-4.8c-7.7,0.6-20.7,3.5-22.2,9.8
		c-0.2,1-0.4,2-0.5,3c-0.2,1.9,0.4,4.8-1.1,5.8c-2.6,1.9-8.1,3.8-10,7c-1.4,2.4-1.4,4.9-2,7c-0.7,2.3-3.6,4.2-5.9,4.7
		c-3.6,1.1-6.8,3.3-9.1,6.3c-2,3-2.2,9.2-1.7,14.8c0.4,3.2,2.9,5.7,6.1,6c4.1,0.4,9.6,0.4,13.6-1.9c4.4-2.6,8.4-5.9,11.8-9.7
		c0.2-0.2,0.3-0.4,0.5-0.6c1.7-1.6,10.3-9.3,12.7-11.7c4.1-4.1,7.7-8.6,10.7-13.6C1136.9,696.8,1137.1,696.5,1137.4,696.2z"/>
	<path class="st179" d="M1139.7,673l-3.1-2.5l4.4-5.5c0.7-0.8,1.9-0.9,2.7-0.3l0,0c0.9,0.7,1,2,0.3,2.9c0,0,0,0,0,0L1139.7,673z"/>
</g>
</svg>
