<svg xmlns="http://www.w3.org/2000/svg" viewBox="0 0 1190.55 841.89"><defs><style>.cls-1,.cls-6,.cls-94,.cls-98{fill:#fff;}.cls-1{opacity:0.51;}.cls-10,.cls-100,.cls-102,.cls-103,.cls-104,.cls-107,.cls-108,.cls-12,.cls-14,.cls-15,.cls-17,.cls-19,.cls-2,.cls-20,.cls-22,.cls-24,.cls-25,.cls-31,.cls-32,.cls-35,.cls-38,.cls-39,.cls-41,.cls-42,.cls-45,.cls-46,.cls-47,.cls-50,.cls-51,.cls-52,.cls-54,.cls-55,.cls-57,.cls-59,.cls-60,.cls-63,.cls-64,.cls-66,.cls-68,.cls-70,.cls-71,.cls-72,.cls-75,.cls-77,.cls-8,.cls-80,.cls-82,.cls-84,.cls-86,.cls-87,.cls-89,.cls-9,.cls-90,.cls-91,.cls-92,.cls-93,.cls-99{fill:none;}.cls-2{stroke:#dbdcdc;}.cls-10,.cls-100,.cls-102,.cls-103,.cls-104,.cls-107,.cls-108,.cls-12,.cls-14,.cls-15,.cls-17,.cls-19,.cls-2,.cls-20,.cls-22,.cls-24,.cls-25,.cls-27,.cls-28,.cls-31,.cls-32,.cls-35,.cls-38,.cls-39,.cls-41,.cls-42,.cls-45,.cls-47,.cls-5,.cls-50,.cls-51,.cls-52,.cls-54,.cls-55,.cls-57,.cls-59,.cls-63,.cls-64,.cls-66,.cls-68,.cls-70,.cls-71,.cls-72,.cls-75,.cls-77,.cls-8,.cls-80,.cls-82,.cls-83,.cls-84,.cls-86,.cls-87,.cls-89,.cls-9,.cls-90,.cls-91,.cls-92,.cls-93,.cls-94,.cls-99{stroke-miterlimit:10;}.cls-3{font-size:12px;fill:#231815;font-family:KozGoPro-Regular-83pv-RKSJ-H, Kozuka Gothic Pro;}.cls-4{letter-spacing:0.25em;}.cls-5{fill:#2d1606;}.cls-27,.cls-28,.cls-5,.cls-60,.cls-83,.cls-84{stroke:#231815;}.cls-7{fill:#38220c;}.cls-103,.cls-104,.cls-12,.cls-8,.cls-9{stroke:#f7e288;}.cls-32,.cls-9{stroke-width:0.5px;}.cls-10{stroke:#38220c;}.cls-11{fill:#f7e288;}.cls-102,.cls-107,.cls-12,.cls-17,.cls-22,.cls-51,.cls-52,.cls-57,.cls-64,.cls-75,.cls-87,.cls-93{stroke-width:4px;}.cls-13{fill:#415027;}.cls-14,.cls-17{stroke:#f7d880;}.cls-15{stroke:#ed731c;}.cls-16{fill:#f7d880;}.cls-18{fill:#c1c0c0;}.cls-19,.cls-20,.cls-70{stroke:#070e28;}.cls-103,.cls-19,.cls-35,.cls-38,.cls-42,.cls-59,.cls-63,.cls-68,.cls-84,.cls-86,.cls-91{stroke-width:2px;}.cls-21{fill:#c23922;}.cls-22,.cls-50,.cls-80{stroke:#fff;}.cls-23{fill:#debc2d;}.cls-107,.cls-24,.cls-25{stroke:#0f1835;}.cls-25,.cls-82,.cls-89{stroke-width:0.75px;}.cls-26{fill:#0f1835;}.cls-27{fill:#c84b2d;}.cls-106,.cls-28{fill:#f3ebc7;}.cls-29{fill:#151413;}.cls-30{fill:#040000;}.cls-31,.cls-32,.cls-82{stroke:#040000;}.cls-33{fill:#c96035;}.cls-34{fill:#1b1006;}.cls-35,.cls-45,.cls-87{stroke:#e8b347;}.cls-36,.cls-97{fill:#e8b347;}.cls-37{fill:#8e955a;}.cls-38,.cls-39,.cls-57{stroke:#283a1c;}.cls-100,.cls-104,.cls-108,.cls-39,.cls-47,.cls-70,.cls-71,.cls-80,.cls-90,.cls-92,.cls-94,.cls-99{stroke-width:3px;}.cls-40{fill:#86aeb0;}.cls-41,.cls-42,.cls-94{stroke:#1c1d1d;}.cls-43{fill:#1c1d1d;}.cls-44{fill:#301706;}.cls-47,.cls-75{stroke:#5abfc4;}.cls-48{fill:#5abfc4;}.cls-49{fill:#171c3e;}.cls-51{stroke:#f4be2c;}.cls-52{stroke:#c96035;}.cls-53{fill:#b3cae4;}.cls-54{stroke:#1a274c;}.cls-55{stroke:#808faa;stroke-width:5px;}.cls-56{font-size:57.93px;font-family:AcuminPro-Regular, AcuminPro Regular;}.cls-56,.cls-96{fill:#283a1c;}.cls-58{fill:#5ca3d7;}.cls-102,.cls-59{stroke:#093759;}.cls-60{stroke-linejoin:round;stroke-width:11px;}.cls-61{fill:#093759;}.cls-62{fill:#df974b;}.cls-63{stroke:#c96519;}.cls-64{stroke:#43220e;}.cls-65{fill:#041607;}.cls-66,.cls-99{stroke:#a2d19c;}.cls-67{fill:#a2d19c;}.cls-68{stroke:#e6782f;}.cls-69{fill:#e6782f;}.cls-71,.cls-72{stroke:#000;}.cls-73{fill:#412574;}.cls-74{fill:#f1bb33;}.cls-76{fill:#001827;}.cls-77{stroke:#fbf2cc;}.cls-78,.cls-79{fill:#f19337;}.cls-79{font-size:23.71px;}.cls-79,.cls-95{font-family:KozGoPr6N-Regular-83pv-RKSJ-H, Kozuka Gothic Pr6N;}.cls-81{fill:#c8653e;}.cls-83{fill:#2b4a9d;}.cls-85{fill:#fdf5e5;}.cls-86{stroke:#fdf5e5;}.cls-88{fill:#002a34;}.cls-89,.cls-90{stroke:#dd582e;}.cls-91{stroke:#002a34;}.cls-92,.cls-93{stroke:#c23922;}.cls-95{font-size:27.08px;}.cls-97{font-size:53.98px;font-family:PShueiGoKinStdN-L-83pv-RKSJ-H, A P-OTF Shuei KakuGo Kin StdN;}.cls-98{font-size:36.76px;}.cls-101,.cls-98{font-family:PShueiGoKinStd-B-83pv-RKSJ-H, A P-OTF Shuei KakuGo Kin Std;}.cls-100{stroke:#041607;}.cls-101{font-size:36.45px;fill:#808faa;}.cls-105{fill:#f4be2c;}.cls-108{stroke:#f19337;}</style></defs><g id="レイヤー_57" data-name="レイヤー 57"><rect class="cls-1" width="1190.55" height="841.89"/></g><g id="テンプレート"><rect class="cls-2" x="28.83" y="87.3" width="100" height="100"/><rect class="cls-2" x="143.83" y="87.3" width="100" height="100"/><rect class="cls-2" x="258.83" y="87.3" width="100" height="100"/><rect class="cls-2" x="373.83" y="87.3" width="100" height="100"/><rect class="cls-2" x="488.83" y="87.3" width="100" height="100"/><rect class="cls-2" x="603.83" y="87.3" width="100" height="100"/><rect class="cls-2" x="718.83" y="87.3" width="100" height="100"/><rect class="cls-2" x="833.83" y="87.3" width="100" height="100"/><rect class="cls-2" x="948.83" y="87.3" width="100" height="100"/><rect class="cls-2" x="1063.83" y="87.3" width="100" height="100"/><rect class="cls-2" x="28.83" y="228.07" width="100" height="100"/><rect class="cls-2" x="143.83" y="228.07" width="100" height="100"/><rect class="cls-2" x="258.83" y="228.07" width="100" height="100"/><rect class="cls-2" x="373.83" y="228.07" width="100" height="100"/><rect class="cls-2" x="488.83" y="228.07" width="100" height="100"/><rect class="cls-2" x="603.83" y="228.07" width="100" height="100"/><rect class="cls-2" x="718.83" y="228.07" width="100" height="100"/><rect class="cls-2" x="833.83" y="228.07" width="100" height="100"/><rect class="cls-2" x="948.83" y="228.07" width="100" height="100"/><rect class="cls-2" x="1063.83" y="228.07" width="100" height="100"/><rect class="cls-2" x="28.83" y="368.84" width="100" height="100"/><rect class="cls-2" x="143.83" y="368.84" width="100" height="100"/><rect class="cls-2" x="258.83" y="368.84" width="100" height="100"/><rect class="cls-2" x="373.83" y="368.84" width="100" height="100"/><rect class="cls-2" x="488.83" y="368.84" width="100" height="100"/><rect class="cls-2" x="603.83" y="368.84" width="100" height="100"/><rect class="cls-2" x="718.83" y="368.84" width="100" height="100"/><rect class="cls-2" x="833.83" y="368.84" width="100" height="100"/><rect class="cls-2" x="948.83" y="368.84" width="100" height="100"/><rect class="cls-2" x="1063.83" y="368.84" width="100" height="100"/><rect class="cls-2" x="28.83" y="509.61" width="100" height="100"/><rect class="cls-2" x="143.83" y="509.61" width="100" height="100"/><rect class="cls-2" x="258.83" y="509.61" width="100" height="100"/><rect class="cls-2" x="373.83" y="509.61" width="100" height="100"/><rect class="cls-2" x="488.83" y="509.61" width="100" height="100"/><rect class="cls-2" x="603.83" y="509.61" width="100" height="100"/><rect class="cls-2" x="718.83" y="509.61" width="100" height="100"/><rect class="cls-2" x="833.83" y="509.61" width="100" height="100"/><rect class="cls-2" x="948.83" y="509.61" width="100" height="100"/><rect class="cls-2" x="1063.83" y="509.61" width="100" height="100"/><rect class="cls-2" x="28.83" y="650.38" width="100" height="100"/><rect class="cls-2" x="143.83" y="650.38" width="100" height="100"/><rect class="cls-2" x="258.83" y="650.38" width="100" height="100"/><rect class="cls-2" x="373.83" y="650.38" width="100" height="100"/><rect class="cls-2" x="488.83" y="650.38" width="100" height="100"/><rect class="cls-2" x="603.83" y="650.38" width="100" height="100"/><rect class="cls-2" x="718.83" y="650.38" width="100" height="100"/><rect class="cls-2" x="833.83" y="650.38" width="100" height="100"/><rect class="cls-2" x="948.83" y="650.38" width="100" height="100"/><rect class="cls-2" x="1063.83" y="650.38" width="100" height="100"/></g><g id="アイコン名"><text class="cls-3" transform="translate(60.83 213.41)">ロック</text><text class="cls-3" transform="translate(164.16 213.41)">ロック解除</text><text class="cls-3" transform="translate(267.5 213.41)">ファイルに追加</text><text class="cls-3" transform="translate(376.83 213.41)">ファイルから削除</text><text class="cls-3" transform="translate(522.16 213.41)">早送り</text><text class="cls-3" transform="translate(631.5 213.41)">巻き戻し</text><text class="cls-3" transform="translate(758.83 213.41)">表示</text><text class="cls-3" transform="translate(862.16 213.41)">レイヤー</text><text class="cls-3" transform="translate(959.5 213.41)">おやすみモード</text><text class="cls-3" transform="translate(1092.83 213.41)">画面収録</text><text class="cls-3" transform="translate(54.83 351.9)">スキャン</text><text class="cls-3" transform="translate(164.16 351.9)">全画面表示</text><text class="cls-3" transform="translate(267.5 351.9)">全画面表示終了</text><text class="cls-3" transform="translate(400.83 351.9)">テキスト</text><text class="cls-3" transform="translate(522.16 351.9)">アプリ</text><text class="cls-3" transform="translate(643.5 351.9)">共有</text><text class="cls-3" transform="translate(752.83 351.9)">リスト</text><text class="cls-3" transform="translate(862.16 351.9)">お知らせ</text><text class="cls-3" transform="translate(983.5 351.9)">グラフ</text><text class="cls-3" transform="translate(1086.83 351.9)">ビデオオフ</text><text class="cls-3" transform="translate(60.06 492.39)">Airplay</text><text class="cls-3" transform="translate(173.77 492.39)">Airdrop</text><text class="cls-3" transform="translate(291.5 492.39)">リンク</text><text class="cls-3" transform="translate(394.83 492.39)">フラッシュ</text><text class="cls-3" transform="translate(498.16 492.39)">自動フラッシュ</text><text class="cls-3" transform="translate(613.5 492.39)">フラッシュオフ</text><text class="cls-3" transform="translate(758.83 492.39)">編集</text><text class="cls-3" transform="translate(856.16 492.39)">レストラン</text><text class="cls-3" transform="translate(990.78 492.39)">GPS</text><text class="cls-3" transform="translate(1092.61 492.39)">GP<tspan class="cls-4" x="15.12" y="0">S</tspan><tspan x="24.44" y="0">オフ</tspan></text><text class="cls-3" transform="translate(66.83 630.89)">禁止</text><text class="cls-3" transform="translate(164.16 630.89)">カレンダー</text><text class="cls-3" transform="translate(273.5 630.89)">バックアップ</text><text class="cls-3" transform="translate(388.83 630.89)">アップデート</text><text class="cls-3" transform="translate(528.16 630.89)">送る</text><text class="cls-3" transform="translate(619.5 630.89)">コピーライト</text><text class="cls-3" transform="translate(722.83 630.89)">バッテリーエラー</text><text class="cls-3" transform="translate(862.16 630.89)">タイマー</text><text class="cls-3" transform="translate(983.5 630.89)">通話中</text><text class="cls-3" transform="translate(1079.01 630.89)">ハイビジョン</text><text/><text class="cls-3" transform="translate(30.83 773.38)">その他のメニュー</text><text class="cls-3" transform="translate(170.16 773.38)">リピート</text><text class="cls-3" transform="translate(279.5 773.38)">シャッフル</text><text class="cls-3" transform="translate(394.83 773.38)">買い物かご</text><text class="cls-3" transform="translate(528.16 773.38)">調整</text><text class="cls-3" transform="translate(643.5 773.38)">設定</text><text class="cls-3" transform="translate(752.83 773.38)">フラグ</text><text class="cls-3" transform="translate(838.16 773.38)">クレジットカード</text><text class="cls-3" transform="translate(989.5 773.38)">言語</text><text class="cls-3" transform="translate(1104.83 773.38)">充電</text></g><g id="レイヤー_56" data-name="レイヤー 56"><rect class="cls-5" x="27.65" y="87.93" width="100" height="100"/><rect class="cls-5" x="142.55" y="87.93" width="100" height="100"/><rect class="cls-5" x="258.32" y="87.93" width="100" height="100"/><rect class="cls-5" x="373.18" y="87.93" width="100" height="100"/><rect class="cls-5" x="487.63" y="87.93" width="100" height="100"/><rect class="cls-5" x="602.93" y="87.93" width="100" height="100"/><rect class="cls-5" x="717.99" y="87.93" width="100" height="100"/><rect class="cls-5" x="833.45" y="87.93" width="100" height="100"/><rect class="cls-5" x="947.19" y="87.93" width="100" height="100"/><rect class="cls-5" x="1062.9" y="87.93" width="100" height="100"/><rect class="cls-5" x="27.65" y="228.75" width="100" height="100"/><rect class="cls-5" x="142.55" y="228.75" width="100" height="100"/><rect class="cls-5" x="258.32" y="228.75" width="100" height="100"/><rect class="cls-5" x="373.18" y="228.75" width="100" height="100"/><rect class="cls-5" x="487.63" y="228.75" width="100" height="100"/><rect class="cls-5" x="602.93" y="228.75" width="100" height="100"/><rect class="cls-5" x="717.99" y="228.75" width="100" height="100"/><rect class="cls-5" x="833.45" y="228.75" width="100" height="100"/><rect class="cls-5" x="947.19" y="228.75" width="100" height="100"/><rect class="cls-5" x="1062.9" y="228.75" width="100" height="100"/><rect class="cls-5" x="27.65" y="369.5" width="100" height="100"/><rect class="cls-5" x="142.55" y="369.5" width="100" height="100"/><rect class="cls-5" x="258.32" y="369.5" width="100" height="100"/><rect class="cls-5" x="373.18" y="369.5" width="100" height="100"/><rect class="cls-5" x="487.63" y="369.5" width="100" height="100"/><rect class="cls-5" x="602.93" y="369.5" width="100" height="100"/><rect class="cls-5" x="717.99" y="369.5" width="100" height="100"/><rect class="cls-5" x="833.45" y="369.5" width="100" height="100"/><rect class="cls-5" x="947.19" y="369.5" width="100" height="100"/><rect class="cls-5" x="1062.9" y="369.5" width="100" height="100"/><rect class="cls-5" x="27.65" y="509.43" width="100" height="100"/><rect class="cls-5" x="142.55" y="509.43" width="100" height="100"/><rect class="cls-5" x="258.32" y="509.43" width="100" height="100"/><rect class="cls-5" x="373.18" y="509.43" width="100" height="100"/><rect class="cls-5" x="487.63" y="509.43" width="100" height="100"/><rect class="cls-5" x="602.93" y="509.43" width="100" height="100"/><rect class="cls-5" x="717.99" y="509.43" width="100" height="100"/><rect class="cls-5" x="833.45" y="509.43" width="100" height="100"/><rect class="cls-5" x="947.19" y="509.43" width="100" height="100"/><rect class="cls-5" x="1062.9" y="509.43" width="100" height="100"/><rect class="cls-5" x="27.65" y="650.17" width="100" height="100"/><rect class="cls-5" x="142.55" y="650.17" width="100" height="100"/><rect class="cls-5" x="258.32" y="650.17" width="100" height="100"/><rect class="cls-5" x="373.18" y="650.17" width="100" height="100"/><rect class="cls-5" x="487.63" y="650.17" width="100" height="100"/><rect class="cls-5" x="602.93" y="650.17" width="100" height="100"/><rect class="cls-5" x="717.99" y="650.17" width="100" height="100"/><rect class="cls-5" x="833.45" y="650.17" width="100" height="100"/><rect class="cls-5" x="947.19" y="650.17" width="100" height="100"/><rect class="cls-5" x="1062.9" y="650.17" width="100" height="100"/></g><g id="ロック"><circle class="cls-6" cx="78.73" cy="137.5" r="43.36"/><circle class="cls-7" cx="78.73" cy="137.5" r="39.52"/><circle class="cls-8" cx="78.73" cy="137.65" r="39.71"/><circle class="cls-8" cx="78.73" cy="137.75" r="36.79"/><circle class="cls-9" cx="78.66" cy="137.75" r="34.8"/><line class="cls-10" x1="78.67" y1="123.25" x2="79.04" y2="159.14"/><line class="cls-10" x1="61.02" y1="126.4" x2="74.47" y2="128.75"/><line class="cls-10" x1="60.15" y1="136.81" x2="73.61" y2="139.16"/><line class="cls-10" x1="60.15" y1="147.71" x2="73.61" y2="150.06"/><line class="cls-10" x1="84.2" y1="139.16" x2="97.53" y2="136.81"/><line class="cls-10" x1="84.2" y1="150.06" x2="97.53" y2="147.71"/><g id="レイヤー_4" data-name="レイヤー 4"><rect class="cls-11" x="57.48" y="129.23" width="42.36" height="28.12"/><polyline class="cls-12" points="71.26 129.23 71.26 112.61 87.02 112.61 87.02 129.23"/><ellipse class="cls-7" cx="78.77" cy="143.29" rx="3.58" ry="3.41"/></g></g><g id="ロック解除"><circle class="cls-6" cx="193.83" cy="137.3" r="43.36"/><circle class="cls-13" cx="193.83" cy="137.3" r="38.83"/><circle class="cls-14" cx="193.99" cy="137.3" r="37.04"/><circle class="cls-15" cx="193.99" cy="137.3" r="36.3"/><rect class="cls-16" x="172.99" y="128.1" width="42.36" height="28.12"/><polyline class="cls-17" points="186.76 128.1 186.76 111.48 202.53 111.48 202.53 119.79"/><ellipse class="cls-13" cx="194.27" cy="142.17" rx="3.58" ry="3.41"/></g><g id="ファイルに追加"><circle class="cls-6" cx="309.5" cy="137.3" r="43.36"/><circle class="cls-18" cx="309.5" cy="137.3" r="39.52"/><circle class="cls-19" cx="309.5" cy="137.45" r="39.19"/><circle class="cls-20" cx="309.5" cy="137.59" r="36.11"/><g id="ファイルに追加-2" data-name="ファイルに追加"><polygon class="cls-21" points="285.23 115.45 285.23 154.73 333.77 154.73 333.77 121.4 311.72 121.19 303.73 115.45 285.23 115.45"/><line class="cls-22" x1="299.74" y1="137.29" x2="321.38" y2="137.29"/><line class="cls-22" x1="310.5" y1="127.38" x2="310.5" y2="149.11"/></g></g><g id="ファイルから削除"><circle class="cls-6" cx="424.83" cy="137.5" r="43.36"/><circle class="cls-23" cx="424.83" cy="137.5" r="39.52"/><circle class="cls-24" cx="424.83" cy="137.64" r="39.19"/><circle class="cls-25" cx="424.83" cy="137.93" r="37.26"/><polyline class="cls-23" points="445.53 152.68 435.46 152.68 435.46 163.31"/><line class="cls-24" x1="447.21" y1="157.05" x2="437.75" y2="147.8"/><g id="ファイルから削除-2" data-name="ファイルから削除"><polygon class="cls-26" points="401.56 117.86 401.56 157.14 450.1 157.14 450.1 123.81 428.06 123.6 420.06 117.86 401.56 117.86"/><line class="cls-22" x1="416.5" y1="138.77" x2="435.16" y2="138.77"/></g></g><g id="早送り"><circle class="cls-6" cx="538.83" cy="138.77" r="43.36"/><circle class="cls-27" cx="538.83" cy="138.77" r="40.77"/><circle class="cls-28" cx="538.83" cy="138.77" r="31.43"/><polygon class="cls-29" points="520.67 124.59 520.67 151.27 541.97 137.42 520.67 124.59"/><polyline class="cls-29" points="564.87 137.42 543.57 124.59 543.57 151.27"/></g><g id="巻き戻し"><circle class="cls-6" cx="653.83" cy="137.99" r="43.36"/><circle class="cls-30" cx="653.83" cy="138.41" r="35.88"/><circle class="cls-31" cx="653.83" cy="138.27" r="40.57"/><circle class="cls-32" cx="653.83" cy="138.27" r="38.95"/><polygon class="cls-33" points="674.33 124.93 674.33 151.61 653.03 137.76 674.33 124.93"/><polyline class="cls-33" points="630.13 137.76 651.43 124.93 651.43 151.61"/></g><g id="表示"><circle class="cls-6" cx="768.83" cy="138.41" r="43.36"/><circle class="cls-34" cx="768.83" cy="138.41" r="39.52"/><circle class="cls-35" cx="768.83" cy="138.55" r="39.19"/><path class="cls-36" d="M738.5,139.35c5.67-7.27,17.4-16.52,30.3-16.52,15,0,26.22,9.13,31.85,16.81,0,0-15.81,14.64-32.47,14.64C754.48,154.28,738.5,139.35,738.5,139.35Z"/><circle class="cls-34" cx="768.7" cy="138.17" r="7.09"/></g><g id="レイヤー"><circle class="cls-6" cx="883.83" cy="138.77" r="43.36"/><circle class="cls-37" cx="883.83" cy="137.3" r="39.52"/><circle class="cls-38" cx="883.9" cy="138.63" r="39.3"/><rect class="cls-39" x="857.67" y="118.89" width="34.86" height="25.45"/><line class="cls-39" x1="895.95" y1="123.76" x2="901.96" y2="123.76"/><line class="cls-39" x1="900.47" y1="153.28" x2="900.47" y2="122.88"/><line class="cls-39" x1="862.73" y1="147.67" x2="862.73" y2="153.68"/><line class="cls-39" x1="901.96" y1="152.22" x2="863.52" y2="152.22"/><line class="cls-39" x1="903.63" y1="130.87" x2="909.64" y2="130.87"/><line class="cls-39" x1="908.15" y1="160.38" x2="908.15" y2="129.99"/><line class="cls-39" x1="870.41" y1="154.77" x2="870.41" y2="160.78"/><line class="cls-39" x1="909.64" y1="159.32" x2="871.19" y2="159.32"/></g><g id="おやすみモード"><circle class="cls-6" cx="998.83" cy="138.27" r="43.36"/><circle class="cls-40" cx="998.83" cy="138.27" r="39.52"/><circle class="cls-41" cx="998.83" cy="138.41" r="39.19"/><circle class="cls-42" cx="998.83" cy="138.41" r="36.56"/><path class="cls-43" d="M990.34,110.73c-18.17,12-18.53,32.18-9.39,43,13,15.41,34.91,12.7,43.67-4.07,0,0-17.49,3.9-29.36-8C986.58,132.89,990.34,110.73,990.34,110.73Z"/></g><g id="画面収録"><circle class="cls-6" cx="1113.83" cy="137.89" r="43.36"/><circle class="cls-44" cx="1113.83" cy="137.89" r="39.52"/><circle class="cls-45" cx="1113.83" cy="137.89" r="37.59"/><rect class="cls-46" x="1088" y="94.04" width="51.67" height="38.19"/><circle class="cls-47" cx="1113.83" cy="137.89" r="25.15"/><circle class="cls-48" cx="1113.83" cy="137.78" r="13.19"/></g><g id="スキャン"><text/><circle class="cls-6" cx="78.66" cy="278.22" r="43.36"/><circle class="cls-49" cx="78.66" cy="278.22" r="39.52"/><circle class="cls-50" cx="78.59" cy="278.47" r="35.21"/><line class="cls-46" x1="57.83" y1="271.61" x2="57.83" y2="260.81"/><line class="cls-51" x1="66.15" y1="278.07" x2="92.14" y2="278.07"/><line class="cls-51" x1="74.01" y1="258.73" x2="56.99" y2="258.73"/><line class="cls-51" x1="58.57" y1="273.66" x2="58.57" y2="256.64"/><line class="cls-51" x1="98.63" y1="274.25" x2="98.63" y2="257.23"/><line class="cls-51" x1="83.7" y1="258.81" x2="100.72" y2="258.81"/><line class="cls-51" x1="58.56" y1="282.71" x2="58.56" y2="299.73"/><line class="cls-51" x1="73.49" y1="298.15" x2="56.46" y2="298.15"/><line class="cls-51" x1="82.86" y1="298.21" x2="99.88" y2="298.21"/><line class="cls-51" x1="98.29" y1="283.28" x2="98.29" y2="300.3"/></g><g id="全画面表示"><circle class="cls-6" cx="193.75" cy="278.47" r="43.36"/><circle class="cls-30" cx="193.75" cy="278.9" r="35.88"/><circle class="cls-31" cx="193.75" cy="278.75" r="40.57"/><circle class="cls-32" cx="193.75" cy="278.75" r="38.95"/><line class="cls-52" x1="189.59" y1="258.73" x2="172.56" y2="258.73"/><line class="cls-52" x1="174.15" y1="273.66" x2="174.15" y2="256.64"/><line class="cls-52" x1="214.2" y1="274.25" x2="214.2" y2="257.23"/><line class="cls-52" x1="199.27" y1="258.81" x2="216.29" y2="258.81"/><line class="cls-52" x1="174.13" y1="282.71" x2="174.13" y2="299.73"/><line class="cls-52" x1="189.06" y1="298.15" x2="172.04" y2="298.15"/><line class="cls-52" x1="198.43" y1="298.21" x2="215.45" y2="298.21"/><line class="cls-52" x1="213.87" y1="283.28" x2="213.87" y2="300.3"/></g><g id="全画面表示終了"><circle class="cls-6" cx="308.83" cy="278.07" r="43.36"/><circle class="cls-53" cx="308.83" cy="278.07" r="38.99"/><circle class="cls-54" cx="308.83" cy="278.07" r="40.02"/><line class="cls-55" x1="315.74" y1="252.65" x2="315.74" y2="274.17"/><line class="cls-55" x1="334.67" y1="272.08" x2="313.15" y2="272.08"/><line class="cls-55" x1="335.21" y1="286.06" x2="313.69" y2="286.06"/><line class="cls-55" x1="315.78" y1="304.98" x2="315.78" y2="283.46"/><line class="cls-55" x1="282.45" y1="271.57" x2="303.97" y2="271.57"/><line class="cls-55" x1="301.88" y1="252.65" x2="301.88" y2="274.17"/><line class="cls-55" x1="301.85" y1="304.98" x2="301.85" y2="283.46"/><line class="cls-55" x1="282.92" y1="285.55" x2="304.44" y2="285.55"/></g><g id="テキスト"><circle class="cls-6" cx="422.47" cy="278.36" r="43.36"/><circle class="cls-37" cx="422.47" cy="276.89" r="39.52"/><circle class="cls-38" cx="422.54" cy="278.22" r="39.3"/><text class="cls-56" transform="translate(403.8 291.76) scale(1.05 1)">A</text><line class="cls-57" x1="402.58" y1="296.69" x2="444.94" y2="296.69"/></g><g id="アプリ"><circle class="cls-6" cx="538.77" cy="279.48" r="43.36"/><circle class="cls-58" cx="538.77" cy="279.48" r="39.52"/><circle class="cls-59" cx="538.77" cy="279.62" r="39.19"/><circle class="cls-50" cx="538.77" cy="279.62" r="37.71"/><path class="cls-60" d="M517.89,288.68"/><rect class="cls-61" x="516.34" y="257.4" width="18.8" height="18.8" rx="2.83"/><rect class="cls-61" x="542.52" y="257.4" width="18.8" height="18.8" rx="2.83"/><rect class="cls-61" x="516.34" y="283.46" width="18.8" height="18.8" rx="2.83"/><rect class="cls-61" x="542.52" y="283.86" width="18.8" height="18.8" rx="2.83"/></g><g id="共有"><circle class="cls-6" cx="653.03" cy="278.97" r="43.36"/><circle class="cls-62" cx="653.03" cy="278.97" r="39.52"/><circle class="cls-63" cx="653.03" cy="279.33" r="36.08"/><path class="cls-64" d="M644.51,283.6c25.19,0,27.38-9.52,27.38-14.79,0-4.35-2.09-12.32-20.57-12.32-14.2,0-19.45,8.83-16.68,19.67"/><path class="cls-64" d="M671.09,283.6c4.63,4.23,7.14,17.85-15.88,17.85-15.52,0-20.57-4.68-20.57-12.32,0-13,13.37-13,25.35-13"/></g><g id="リスト"><circle class="cls-6" cx="768.7" cy="279.97" r="43.36"/><circle class="cls-65" cx="768.52" cy="279.57" r="40.66"/><circle class="cls-66" cx="768.7" cy="279.57" r="38.68"/><rect class="cls-67" x="744.26" y="264.34" width="5.79" height="5.81"/><rect class="cls-67" x="754.45" y="264.34" width="40.44" height="5.81"/><rect class="cls-67" x="744.26" y="276.39" width="5.79" height="5.81"/><rect class="cls-67" x="754.45" y="276.39" width="40.44" height="5.81"/><rect class="cls-67" x="744.26" y="288.08" width="5.79" height="5.81"/><rect class="cls-67" x="754.45" y="288.08" width="40.44" height="5.81"/></g><g id="お知らせ"><circle class="cls-6" cx="883.83" cy="278.97" r="43.36"/><circle class="cls-23" cx="884.45" cy="278.97" r="39.52"/><circle class="cls-24" cx="883.83" cy="279.11" r="39.19"/><circle class="cls-25" cx="883.83" cy="279.39" r="37.26"/><polyline class="cls-23" points="904.53 294.15 894.46 294.15 894.46 304.78"/><path class="cls-26" d="M866.28,291s-1.56-17.82-.35-24.61a18.41,18.41,0,0,1,18.52-14.64c11.49,0,17,9,18.6,14.64,1.16,4.12-.43,19.87-.43,24.61,0,0,5.21,2.17,6.51,6.09H859.77S863,291.45,866.28,291Z"/><path class="cls-26" d="M879.42,298.53h11.25s-.94,4.8-5.27,4.8A6.12,6.12,0,0,1,879.42,298.53Z"/><path class="cls-26" d="M882.7,253s-.26-3.91,2.22-3.91S887.4,253,887.4,253Z"/></g><g id="グラフ"><circle class="cls-6" cx="999.85" cy="278.07" r="43.36"/><circle class="cls-30" cx="999.65" cy="278.33" r="37.54"/><circle class="cls-68" cx="999.65" cy="278.07" r="39.45"/><rect class="cls-69" x="979.9" y="273.91" width="9.81" height="23.91"/><rect class="cls-69" x="994.85" y="251.06" width="9.81" height="46.76"/><rect class="cls-69" x="1009.98" y="263.89" width="9.81" height="33.93"/></g><g id="ビデオoff"><circle class="cls-6" cx="1114.45" cy="278.07" r="43.36"/><circle class="cls-18" cx="1114.45" cy="278.07" r="39.52"/><circle class="cls-19" cx="1114.45" cy="278.22" r="39.19"/><circle class="cls-20" cx="1114.45" cy="278.36" r="36.11"/><line class="cls-70" x1="1093.81" y1="254.94" x2="1133.85" y2="298.47"/><polygon class="cls-21" points="1104.57 262.51 1129.89 290.05 1129.89 281.17 1142.33 291.36 1142.33 266.3 1129.89 274.93 1129.89 262.51 1104.57 262.51"/><polygon class="cls-21" points="1098.91 262.65 1127.73 293.78 1091.7 293.78 1091.7 262.65 1098.91 262.65"/></g><g id="Airplay"><circle class="cls-6" cx="79.14" cy="418.84" r="43.36"/><circle class="cls-27" cx="79.14" cy="418.84" r="40.77"/><circle class="cls-28" cx="79.14" cy="418.84" r="31.43"/><polygon points="79.3 425.33 66.41 438.32 91.97 438.32 79.3 425.33"/><path class="cls-71" d="M68.92,429.05H61.55a2.85,2.85,0,0,1-2.84-2.84v-19.8a2.85,2.85,0,0,1,2.84-2.84H96.11A2.85,2.85,0,0,1,99,406.41v19.8a2.85,2.85,0,0,1-2.84,2.84H89.35"/><line class="cls-72" x1="96.37" y1="421.55" x2="96.37" y2="421.55"/></g><g id="Airdrop"><circle class="cls-6" cx="194.64" cy="419.45" r="43.36"/><circle class="cls-73" cx="194.64" cy="419.45" r="39.52"/><circle class="cls-50" cx="194.64" cy="419.73" r="35.72"/><circle class="cls-74" cx="194.85" cy="419.42" r="26.73"/><circle class="cls-73" cx="194.85" cy="419.65" r="23.08"/><circle class="cls-74" cx="194.85" cy="419.42" r="17.85"/><circle class="cls-73" cx="194.85" cy="419.65" r="14.33"/><circle class="cls-74" cx="194.85" cy="419.42" r="9.96"/><circle class="cls-73" cx="194.85" cy="419.42" r="6.85"/><polygon class="cls-73" points="195.02 422.7 176.58 446.15 213.13 446.15 195.02 422.7"/></g><g id="リンク"><circle class="cls-6" cx="310.56" cy="419.42" r="43.36"/><circle class="cls-44" cx="310.56" cy="419.42" r="39.52"/><circle class="cls-45" cx="310.56" cy="419.42" r="37.59"/><rect class="cls-46" x="284.72" y="375.58" width="51.67" height="38.19"/><path class="cls-75" d="M336.82,419.7c0,5.75-5.1,10.46-11.34,10.46H295.32c-6.24,0-11.34-4.71-11.34-10.46s5.1-10.46,11.34-10.46h30.16C331.72,409.24,336.82,414,336.82,419.7Z"/><line class="cls-75" x1="299.09" y1="419.5" x2="321.71" y2="419.5"/><rect class="cls-44" x="308.49" y="403.61" width="3.81" height="10.85"/><rect class="cls-44" x="308.49" y="427.43" width="3.81" height="10.85"/></g><g id="フラッシュ"><circle class="cls-6" cx="423.83" cy="419.73" r="43.36"/><circle class="cls-7" cx="423.83" cy="419.73" r="39.52"/><circle class="cls-8" cx="423.83" cy="419.88" r="39.71"/><circle class="cls-8" cx="423.83" cy="419.98" r="36.79"/><circle class="cls-9" cx="423.76" cy="419.98" r="34.8"/><line class="cls-10" x1="423.77" y1="405.48" x2="424.14" y2="441.37"/><line class="cls-10" x1="406.11" y1="408.63" x2="419.57" y2="410.98"/><line class="cls-10" x1="405.25" y1="419.04" x2="418.7" y2="421.39"/><line class="cls-10" x1="405.25" y1="429.94" x2="418.7" y2="432.29"/><line class="cls-10" x1="429.3" y1="421.39" x2="442.63" y2="419.04"/><line class="cls-10" x1="429.3" y1="432.29" x2="442.63" y2="429.94"/><polygon class="cls-11" points="411.06 396.53 411.06 423.81 421.44 423.81 421.44 446.98 438.6 418.23 426.06 418.23 435.52 396.53 411.06 396.53"/></g><g id="自動フラッシュ"><circle class="cls-6" cx="538.83" cy="419.45" r="43.36"/><circle class="cls-76" cx="538.83" cy="419.45" r="39.52"/><circle class="cls-77" cx="538.83" cy="419.45" r="37.12"/><polygon class="cls-78" points="521.5 396.53 521.5 423.81 531.88 423.81 531.88 446.98 549.04 418.23 536.5 418.23 545.97 396.53 521.5 396.53"/><text class="cls-79" transform="translate(546.13 415.17) scale(1.24 1)">A</text></g><g id="フラッシュオフ"><circle class="cls-6" cx="653.03" cy="419.04" r="43.36"/><circle class="cls-40" cx="653.03" cy="419.04" r="39.52"/><circle class="cls-41" cx="653.03" cy="419.18" r="39.19"/><circle class="cls-42" cx="653.03" cy="419.18" r="36.56"/><line class="cls-80" x1="634.64" y1="397.38" x2="673.77" y2="440.3"/><polygon class="cls-43" points="641.73 400.97 656.73 417.56 666.19 395.86 641.73 395.86 641.73 400.97"/><polygon class="cls-43" points="664.46 425.61 669.27 417.56 656.73 417.56 664.46 425.61"/><polygon class="cls-43" points="641.73 407.38 662.28 429.94 652.1 446.98 652.1 423.81 641.73 423.81 641.73 407.38"/></g><g id="編集"><circle class="cls-6" cx="769.58" cy="419.73" r="43.36"/><circle class="cls-81" cx="769.51" cy="420.24" r="36.16"/><circle class="cls-82" cx="769.3" cy="419.87" r="40.92"/><circle class="cls-82" cx="769.51" cy="420.24" r="36.47"/><line class="cls-83" x1="759.87" y1="411.79" x2="759.87" y2="435.44"/><line class="cls-83" x1="770.69" y1="411.79" x2="770.69" y2="435.44"/><path class="cls-84" d="M779.76,417.58"/><path class="cls-84" d="M759.39,417.58"/><circle class="cls-85" cx="768.03" cy="418.49" r="20.3"/><line class="cls-84" x1="757.84" y1="418.35" x2="778.21" y2="418.35"/><circle class="cls-85" cx="769.58" cy="419.98" r="26.71"/><polygon class="cls-30" points="781.38 399.75 752.83 429.93 752.21 437.93 760.78 437.12 789.17 407.12 781.38 399.75"/><line class="cls-86" x1="776.2" y1="403.54" x2="787.09" y2="413.92"/></g><g id="レストラン"><circle class="cls-6" cx="883.9" cy="418.35" r="43.36"/><circle class="cls-13" cx="883.9" cy="418.35" r="38.83"/><circle class="cls-14" cx="884.06" cy="418.35" r="37.04"/><circle class="cls-15" cx="884.06" cy="418.35" r="36.3"/><path class="cls-16" d="M888,424.69V406c0-4,11.32-12.19,11.32-12.19v49.16H895.9V424.69Z"/><path class="cls-16" d="M871.79,424.53v18.4h3.64v-18.4s6.36-2.07,6.36-5V395.23h-2.73v15.62H875V395.23h-3.18v15.84l-3.78,0V395.23h-3.33v24.29C864.68,421.05,869.78,424.53,871.79,424.53Z"/></g><g id="GPS"><circle class="cls-6" cx="999.45" cy="417.58" r="43.36"/><circle class="cls-34" cx="999.45" cy="417.58" r="39.52"/><circle class="cls-35" cx="999.45" cy="417.72" r="39.19"/><circle class="cls-87" cx="999.98" cy="417.58" r="20.3"/><circle class="cls-36" cx="999.98" cy="417.58" r="10.23"/><line class="cls-87" x1="999.98" y1="388.51" x2="999.98" y2="395.76"/><line class="cls-87" x1="999.98" y1="439.39" x2="999.98" y2="446.64"/><line class="cls-87" x1="1020.28" y1="417.58" x2="1029.56" y2="417.58"/><line class="cls-87" x1="980.46" y1="417.58" x2="970.13" y2="417.58"/></g><g id="GPSオフ"><circle class="cls-6" cx="1113.83" cy="419.87" r="43.36"/><circle class="cls-88" cx="1113.83" cy="419.87" r="40.32"/><circle class="cls-89" cx="1113.83" cy="419.87" r="37.23"/><circle class="cls-89" cx="1113.83" cy="419.87" r="35.56"/><circle class="cls-87" cx="1113.97" cy="419.87" r="19.95"/><line class="cls-87" x1="1113.97" y1="391.3" x2="1113.97" y2="398.43"/><line class="cls-87" x1="1113.97" y1="441.32" x2="1113.97" y2="448.45"/><line class="cls-87" x1="1133.92" y1="419.87" x2="1143.05" y2="419.87"/><line class="cls-87" x1="1094.77" y1="419.87" x2="1084.62" y2="419.87"/><line class="cls-90" x1="1093.78" y1="398.06" x2="1136.25" y2="441.68"/><line class="cls-91" x1="1095.6" y1="396.29" x2="1138.07" y2="439.91"/></g><g id="禁止"><circle class="cls-6" cx="78.59" cy="559.61" r="43.36"/><circle class="cls-62" cx="78.59" cy="559.61" r="39.52"/><circle class="cls-63" cx="78.59" cy="559.97" r="36.08"/><circle class="cls-64" cx="78.83" cy="560.51" r="25.95"/><line class="cls-64" x1="61.63" y1="543.09" x2="97.49" y2="578.54"/></g><g id="カレンダー"><circle class="cls-6" cx="193.71" cy="560.23" r="43.36"/><circle class="cls-18" cx="193.71" cy="560.23" r="39.52"/><circle class="cls-19" cx="193.71" cy="560.37" r="39.19"/><circle class="cls-20" cx="193.71" cy="560.51" r="36.11"/><rect class="cls-92" x="174.01" y="543.55" width="40.58" height="38.41"/><rect class="cls-21" x="174.01" y="543.55" width="40.25" height="9.45"/><rect class="cls-21" x="179.28" y="556.28" width="12.96" height="12.96"/><line class="cls-93" x1="184" y1="543.55" x2="184" y2="534.56"/><line class="cls-93" x1="205.07" y1="542.46" x2="205.07" y2="534.56"/></g><g id="バックアップ"><circle class="cls-6" cx="308.83" cy="559.97" r="43.36"/><circle class="cls-30" cx="308.63" cy="560.23" r="37.54"/><circle class="cls-68" cx="308.63" cy="559.97" r="39.45"/><path class="cls-69" d="M291,574.52h38.93s8.68-.95,8.68-12.12c0-5.43-4.82-10.31-12.86-10.31,0,0,0-12.53-15.74-13.42-10-.56-17.63,6.43-17.63,10.42,0,0-12,1.89-12,13.31C280.39,568.94,284.83,574.52,291,574.52Z"/><polygon points="317.79 556.13 312.63 556.13 312.59 568.14 304.81 568.14 304.81 556.13 299.87 556.13 308.7 547.87 317.79 556.13"/></g><g id="アップデート"><circle class="cls-6" cx="422.54" cy="560.51" r="43.36"/><circle class="cls-40" cx="422.54" cy="560.51" r="39.52"/><circle class="cls-41" cx="422.54" cy="560.65" r="39.19"/><circle class="cls-42" cx="422.54" cy="560.65" r="36.56"/><rect class="cls-94" x="406.3" y="534.73" width="32.33" height="51.84"/><rect class="cls-43" x="407.07" y="533.38" width="32.33" height="6.16"/><rect class="cls-43" x="405.36" y="581.94" width="33.27" height="4.63"/><text class="cls-95" transform="translate(408.94 571.89)">⇩</text><polygon points="413.25 563.63 418.93 563.63 418.96 550.39 426 550.39 426 563.63 430.46 563.63 422.48 572.73 413.25 563.63"/></g><g id="送る"><circle class="cls-6" cx="538.77" cy="559.97" r="43.36"/><circle class="cls-37" cx="538.77" cy="558.5" r="39.52"/><circle class="cls-38" cx="538.84" cy="559.83" r="39.3"/><polygon class="cls-96" points="515.92 540.04 515.92 557.35 571.96 559.61 515.92 540.04"/><polygon class="cls-96" points="515.92 579.18 515.92 561.79 571.96 559.61 515.92 579.18"/></g><g id="コピーライト"><circle class="cls-6" cx="654.4" cy="558.86" r="43.36"/><circle class="cls-34" cx="654.4" cy="558.86" r="39.52"/><circle class="cls-35" cx="654.4" cy="559" r="39.19"/><text class="cls-97" transform="translate(631.43 578.3) scale(1.14 1)">C</text></g><g id="バッテリーエラー"><circle class="cls-6" cx="768.03" cy="560.51" r="43.36"/><circle class="cls-73" cx="768.03" cy="560.51" r="39.52"/><circle class="cls-50" cx="768.03" cy="560.79" r="35.72"/><polygon class="cls-74" points="751.6 540.62 751.6 582.69 784.45 582.69 784.45 540.62 775.87 540.62 775.87 535.03 761.16 535.03 761.16 540.48 751.6 540.62"/><text class="cls-98" transform="translate(746.09 575.24) scale(1.21 1)">！</text></g><g id="タイマー"><circle class="cls-6" cx="885.05" cy="559.83" r="43.36"/><circle class="cls-65" cx="884.86" cy="559.43" r="40.66"/><circle class="cls-66" cx="885.05" cy="559.43" r="38.68"/><circle class="cls-67" cx="885.2" cy="562.7" r="25.07"/><line class="cls-99" x1="875.1" y1="533.24" x2="894.91" y2="533.24"/><line class="cls-99" x1="903.31" y1="545.98" x2="908.49" y2="541.2"/><line class="cls-100" x1="885.2" y1="544.82" x2="885.2" y2="562.28"/></g><g id="通話中"><circle class="cls-6" cx="999.85" cy="559.85" r="43.36"/><circle class="cls-44" cx="999.85" cy="559.85" r="39.52"/><circle class="cls-45" cx="999.85" cy="559.85" r="37.59"/><rect class="cls-46" x="974.01" y="516.01" width="51.67" height="38.19"/><path class="cls-75" d="M1011,559.93"/><path class="cls-75" d="M988.38,559.93"/><rect class="cls-44" x="997.78" y="544.04" width="3.81" height="10.85"/><rect class="cls-44" x="997.78" y="567.86" width="3.81" height="10.85"/><path class="cls-48" d="M993.3,536.06l-.41,11.17-8,5.14c-1,8.26,5.41,21.51,18.25,22.18l3-4,11.94,1s.92,13.58-1.6,13.48c-20-.72-26.37-8.25-31.59-14.91-11.72-15-5.54-32.14-4.45-34.13C981.71,533.47,993.3,536.06,993.3,536.06Z"/><path class="cls-47" d="M1001.58,548s6.16-1.22,9.91,3.75c4.56,6,1.82,9.86,1.82,9.86"/><path class="cls-47" d="M1000.51,540.41s10.39-1.94,17.08,6.46c8.38,10.51,3.13,17,3.13,17"/></g><g id="ハイビジョン"><circle class="cls-6" cx="1114.45" cy="559.61" r="43.36"/><circle class="cls-53" cx="1114.45" cy="559.61" r="38.99"/><circle class="cls-54" cx="1114.45" cy="559.61" r="40.02"/><text class="cls-101" transform="translate(1085.4 573.29) scale(1.15 1)">HD</text></g><g id="その他"><circle class="cls-6" cx="78.59" cy="700.52" r="43.36"/><circle class="cls-13" cx="78.59" cy="700.52" r="38.83"/><circle class="cls-14" cx="78.75" cy="700.52" r="37.04"/><circle class="cls-15" cx="78.75" cy="700.52" r="36.3"/><circle class="cls-16" cx="78.5" cy="682.84" r="4.07"/><circle class="cls-16" cx="78.5" cy="700.38" r="4.07"/><circle class="cls-16" cx="78.31" cy="717.92" r="4.07"/></g><g id="リピート"><circle class="cls-6" cx="194.16" cy="700.87" r="43.36"/><circle class="cls-88" cx="194.9" cy="702.06" r="40.32"/><circle class="cls-89" cx="194.16" cy="700.87" r="37.23"/><circle class="cls-89" cx="194.16" cy="700.87" r="35.56"/><line class="cls-91" x1="175.93" y1="677.29" x2="218.4" y2="720.91"/><polyline class="cls-87" points="213.59 687.77 171.29 687.77 171.29 700.17"/><path class="cls-87" d="M216.48,688.21"/><polygon class="cls-36" points="209.23 679.14 209.23 697.28 219.72 687.85 209.23 679.14"/><polyline class="cls-87" points="175.06 711.17 217.36 711.17 217.36 698.77"/><polygon class="cls-36" points="179.42 719.8 179.42 701.66 168.93 711.1 179.42 719.8"/></g><g id="シャッフル"><circle class="cls-6" cx="308.83" cy="700.52" r="43.36"/><circle class="cls-58" cx="308.83" cy="700.52" r="39.52"/><circle class="cls-59" cx="308.83" cy="700.66" r="39.19"/><circle class="cls-50" cx="308.83" cy="700.66" r="37.71"/><path class="cls-60" d="M288,709.72"/><polygon class="cls-61" points="325.76 702.73 325.76 722.56 337.23 712.25 325.76 702.73"/><polygon class="cls-61" points="326.03 695.76 326.03 677.63 336.52 687.06 326.03 695.76"/><path class="cls-102" d="M285.79,686.81s10-1.31,15.43,5c3.8,4.41,3.37,15.73,12.44,18.8a48.86,48.86,0,0,0,15.57,2"/><path class="cls-102" d="M330.16,689.38s-9.36-6.15-16.79,6c-3,5-4.88,14.66-13.95,17.73a36.17,36.17,0,0,1-15,1.28"/></g><g id="買い物かご"><circle class="cls-6" cx="423.83" cy="700.1" r="43.36"/><circle class="cls-30" cx="423.83" cy="700.52" r="35.88"/><circle class="cls-31" cx="423.83" cy="700.38" r="40.57"/><circle class="cls-32" cx="423.83" cy="700.1" r="38.95"/><polygon class="cls-33" points="400.38 697.48 447.38 697.48 436.73 722.34 411.39 722.34 400.38 697.48"/><line class="cls-52" x1="396.31" y1="697.48" x2="451.35" y2="697.48"/><line class="cls-52" x1="402.94" y1="696.53" x2="416.08" y2="676.29"/><line class="cls-52" x1="443.78" y1="696.86" x2="431.71" y2="675.96"/></g><g id="調整"><circle class="cls-6" cx="540.06" cy="701.38" r="43.36"/><circle class="cls-7" cx="540.06" cy="701.38" r="39.52"/><circle class="cls-8" cx="540.06" cy="701.53" r="39.71"/><circle class="cls-8" cx="540.05" cy="701.63" r="36.79"/><circle class="cls-9" cx="539.98" cy="701.63" r="34.8"/><line class="cls-10" x1="539.99" y1="687.13" x2="540.36" y2="723.02"/><line class="cls-10" x1="522.34" y1="690.28" x2="535.79" y2="692.63"/><line class="cls-10" x1="521.47" y1="700.69" x2="534.93" y2="703.04"/><line class="cls-10" x1="521.47" y1="711.59" x2="534.93" y2="713.94"/><line class="cls-10" x1="545.52" y1="703.04" x2="558.85" y2="700.69"/><line class="cls-10" x1="545.52" y1="713.94" x2="558.85" y2="711.59"/><circle class="cls-103" cx="523.17" cy="699.85" r="4.47"/><circle class="cls-103" cx="540.12" cy="710.52" r="4.47"/><circle class="cls-103" cx="557.18" cy="690.45" r="4.47"/><line class="cls-104" x1="523.17" y1="680.01" x2="523.17" y2="695.38"/><line class="cls-104" x1="523.17" y1="704.32" x2="523.17" y2="720.45"/><line class="cls-104" x1="540.12" y1="680.01" x2="540.12" y2="705.5"/><line class="cls-104" x1="540.12" y1="714.99" x2="540.12" y2="720.45"/><line class="cls-104" x1="557.18" y1="694.91" x2="557.18" y2="720.45"/><line class="cls-104" x1="557.18" y1="685.98" x2="557.18" y2="680.01"/></g><g id="設定"><circle class="cls-6" cx="654.94" cy="700.87" r="43.36"/><circle class="cls-81" cx="654.87" cy="701.38" r="36.16"/><circle class="cls-82" cx="654.66" cy="701.01" r="40.92"/><circle class="cls-82" cx="654.87" cy="701.38" r="36.47"/><line class="cls-83" x1="645.23" y1="692.93" x2="645.23" y2="716.58"/><line class="cls-83" x1="656.05" y1="692.93" x2="656.05" y2="716.58"/><path class="cls-84" d="M665.12,698.71"/><path class="cls-84" d="M644.75,698.71"/><circle class="cls-85" cx="653.38" cy="699.62" r="20.3"/><line class="cls-84" x1="643.2" y1="699.49" x2="663.57" y2="699.49"/><circle class="cls-85" cx="654.94" cy="701.12" r="26.71"/><rect x="650.18" y="678.78" width="10.18" height="44.67"/><polygon points="639.29 692.03 655.11 681.91 672.31 692.86 671.29 711.71 655.21 720.52 638.65 710.54 639.29 692.03 639.29 692.03"/><rect x="649.85" y="678.22" width="10.18" height="46.34" transform="translate(975.91 -202.97) rotate(62.58)"/><rect x="649.98" y="678.01" width="10.18" height="45.94" transform="translate(-279.53 917.8) rotate(-60)"/><circle class="cls-6" cx="655.64" cy="701.02" r="7.91"/></g><g id="フラグ"><circle class="cls-6" cx="768.52" cy="700.38" r="43.36"/><circle class="cls-49" cx="768.52" cy="700.38" r="39.52"/><circle class="cls-50" cx="768.44" cy="700.63" r="35.21"/><line class="cls-46" x1="747.68" y1="693.77" x2="747.68" y2="682.97"/><line class="cls-51" x1="750.48" y1="678.49" x2="750.48" y2="723.53"/><polygon class="cls-105" points="755.14 678.49 791.18 678.49 782.6 689.59 791.18 699.11 755.14 699.11 755.14 678.49"/></g><g id="クレジットカード"><circle class="cls-6" cx="883.67" cy="701.53" r="43.36"/><circle class="cls-27" cx="883.67" cy="701.53" r="40.77"/><circle class="cls-28" cx="883.67" cy="701.53" r="31.43"/><line class="cls-72" x1="900.91" y1="704.23" x2="900.91" y2="704.23"/><rect x="860.74" y="694.9" width="45.86" height="22.49"/><rect x="860.74" y="685.81" width="45.86" height="7.44"/><rect class="cls-106" x="865.9" y="699.16" width="12.67" height="2.27"/><rect class="cls-106" x="865.9" y="706.67" width="17.77" height="2.18"/><rect class="cls-106" x="880.96" y="699.16" width="2.71" height="2.27"/></g><g id="言語"><circle class="cls-6" cx="998.83" cy="699.35" r="43.36"/><circle class="cls-23" cx="999.45" cy="699.35" r="39.52"/><circle class="cls-24" cx="998.83" cy="699.49" r="39.19"/><circle class="cls-25" cx="998.83" cy="699.78" r="37.26"/><polyline class="cls-23" points="1019.53 714.53 1009.46 714.53 1009.46 725.16"/><circle class="cls-107" cx="999.06" cy="699.78" r="28.73"/><line class="cls-107" x1="973.21" y1="687.24" x2="1024.62" y2="687.24"/><line class="cls-107" x1="972.95" y1="711.73" x2="1024.62" y2="711.73"/><path class="cls-107" d="M996.23,671.68s-9.71,12.15-9.71,27.85c0,15.54,9.71,28.34,9.71,28.34"/><path class="cls-107" d="M1001.5,671.67s9.71,12.16,9.71,27.86c0,15.54-9.71,28.35-9.71,28.35"/></g><g id="充電"><circle class="cls-6" cx="1114.45" cy="700.52" r="43.36"/><circle class="cls-76" cx="1114.45" cy="700.52" r="39.52"/><circle class="cls-77" cx="1114.45" cy="700.52" r="37.12"/><rect class="cls-78" x="1098.64" y="682.24" width="30.93" height="26.59"/><line class="cls-108" x1="1113.83" y1="705.18" x2="1113.83" y2="731.37"/><line class="cls-108" x1="1106.47" y1="672.81" x2="1106.47" y2="683.37"/><line class="cls-108" x1="1122.3" y1="672.81" x2="1122.3" y2="685.8"/></g></svg>