<?xml version="1.0" encoding="utf-8"?>
<!-- Generator: Adobe Illustrator 25.2.1, SVG Export Plug-In . SVG Version: 6.00 Build 0)  -->
<svg version="1.1" id="レイヤー_1" xmlns="http://www.w3.org/2000/svg" xmlns:xlink="http://www.w3.org/1999/xlink" x="0px"
	 y="0px" viewBox="0 0 1190.6 841.9" style="enable-background:new 0 0 1190.6 841.9;" xml:space="preserve">
<style type="text/css">
	.st0{opacity:0.51;fill:#FFFFFF;enable-background:new    ;}
	.st1{fill:none;stroke:#CCCCCC;stroke-miterlimit:10;}
	.st2{font-family:'KozGoPro-Regular-83pv-RKSJ-H';}
	.st3{font-size:12px;}
	.st4{fill:#D5B2B1;}
	.st5{fill:#EACBCC;}
	.st6{fill:none;stroke:#D5B2B1;stroke-width:3;stroke-miterlimit:10;}
	.st7{fill:#FFFFFF;}
	.st8{fill:#E7B8BA;}
	.st9{fill:#C89597;}
	.st10{fill:#F4E9E8;}
	.st11{fill:#E3B6B8;}
	.st12{fill:#FDFEFF;}
	.st13{fill:#33419B;}
	.st14{fill:#C6CC7C;}
	.st15{fill:#EACBCC;stroke:#FFFFFF;stroke-width:0.5;stroke-miterlimit:10;}
	.st16{fill:none;}
	.st17{fill:#DBCAC7;}
	.st18{fill:#FFFCFD;}
	.st19{fill:#FCFCFB;}
	.st20{fill:none;stroke:#EACBCC;stroke-width:5;stroke-miterlimit:10;}
	.st21{fill:none;stroke:#EACBCC;stroke-width:3;stroke-miterlimit:10;}
	.st22{fill:#E7CACA;}
	.st23{font-family:'RoHMinchoStd-UB-83pv-RKSJ-H';}
	.st24{font-size:13.15px;}
	.st25{fill:none;stroke:#C89597;stroke-width:2;stroke-miterlimit:10;}
</style>
<g id="レイヤー_5">
	<rect class="st0" width="1190.6" height="841.9"/>
</g>
<rect x="28.8" y="87.3" class="st1" width="100" height="100"/>
<rect x="143.8" y="87.3" class="st1" width="100" height="100"/>
<rect x="258.8" y="87.3" class="st1" width="100" height="100"/>
<rect x="373.8" y="87.3" class="st1" width="100" height="100"/>
<rect x="488.8" y="87.3" class="st1" width="100" height="100"/>
<rect x="603.8" y="87.3" class="st1" width="100" height="100"/>
<rect x="718.8" y="87.3" class="st1" width="100" height="100"/>
<rect x="833.8" y="87.3" class="st1" width="100" height="100"/>
<rect x="948.8" y="87.3" class="st1" width="100" height="100"/>
<rect x="1063.8" y="87.3" class="st1" width="100" height="100"/>
<rect x="28.8" y="228.1" class="st1" width="100" height="100"/>
<rect x="143.8" y="228.1" class="st1" width="100" height="100"/>
<rect x="258.8" y="228.1" class="st1" width="100" height="100"/>
<rect x="373.8" y="228.1" class="st1" width="100" height="100"/>
<rect x="488.8" y="228.1" class="st1" width="100" height="100"/>
<rect x="603.8" y="228.1" class="st1" width="100" height="100"/>
<rect x="718.8" y="228.1" class="st1" width="100" height="100"/>
<rect x="833.8" y="228.1" class="st1" width="100" height="100"/>
<rect x="948.8" y="228.1" class="st1" width="100" height="100"/>
<rect x="1063.8" y="228.1" class="st1" width="100" height="100"/>
<rect x="28.8" y="368.8" class="st1" width="100" height="100"/>
<rect x="143.8" y="368.8" class="st1" width="100" height="100"/>
<rect x="258.8" y="368.8" class="st1" width="100" height="100"/>
<rect x="373.8" y="368.8" class="st1" width="100" height="100"/>
<rect x="488.8" y="368.8" class="st1" width="100" height="100"/>
<rect x="603.8" y="368.8" class="st1" width="100" height="100"/>
<rect x="718.8" y="368.8" class="st1" width="100" height="100"/>
<rect x="833.8" y="368.8" class="st1" width="100" height="100"/>
<rect x="948.8" y="368.8" class="st1" width="100" height="100"/>
<rect x="1063.8" y="368.8" class="st1" width="100" height="100"/>
<rect x="28.8" y="509.6" class="st1" width="100" height="100"/>
<rect x="143.8" y="509.6" class="st1" width="100" height="100"/>
<rect x="258.8" y="509.6" class="st1" width="100" height="100"/>
<rect x="373.8" y="509.6" class="st1" width="100" height="100"/>
<rect x="488.8" y="509.6" class="st1" width="100" height="100"/>
<rect x="603.8" y="509.6" class="st1" width="100" height="100"/>
<rect x="718.8" y="509.6" class="st1" width="100" height="100"/>
<rect x="833.8" y="509.6" class="st1" width="100" height="100"/>
<rect x="948.8" y="509.6" class="st1" width="100" height="100"/>
<rect x="1063.8" y="509.6" class="st1" width="100" height="100"/>
<rect x="28.8" y="650.4" class="st1" width="100" height="100"/>
<rect x="143.8" y="650.4" class="st1" width="100" height="100"/>
<rect x="258.8" y="650.4" class="st1" width="100" height="100"/>
<rect x="373.8" y="650.4" class="st1" width="100" height="100"/>
<rect x="488.8" y="650.4" class="st1" width="100" height="100"/>
<rect x="603.8" y="650.4" class="st1" width="100" height="100"/>
<rect x="718.8" y="650.4" class="st1" width="100" height="100"/>
<rect x="833.8" y="650.4" class="st1" width="100" height="100"/>
<rect x="948.8" y="650.4" class="st1" width="100" height="100"/>
<rect x="1063.8" y="650.4" class="st1" width="100" height="100"/>
<g id="アイコン名">
	<text transform="matrix(1 0 0 1 60.83 213.41)" class="st2 st3">メール</text>
	<text transform="matrix(1 0 0 1 164.16 213.41)" class="st2 st3">メール送信</text>
	<text transform="matrix(1 0 0 1 279.5 213.41)" class="st2 st3">メール受信</text>
	<text transform="matrix(1 0 0 1 412.83 213.41)" class="st2 st3">音楽</text>
	<text transform="matrix(1 0 0 1 528.16 213.41)" class="st2 st3">時計</text>
	<text transform="matrix(1 0 0 1 643.5 213.41)" class="st2 st3">禁止</text>
	<text transform="matrix(1 0 0 1 760.27 213.41)" class="st2 st3">SNS</text>
	<text transform="matrix(1 0 0 1 874.16 213.41)" class="st2 st3">注意</text>
	<text transform="matrix(1 0 0 1 983.5 213.41)" class="st2 st3">カメラ</text>
	<text transform="matrix(1 0 0 1 1098.83 213.41)" class="st2 st3">虫眼鏡</text>
	<text transform="matrix(1 0 0 1 54.83 351.9)" class="st2 st3">アイコン</text>
	<text transform="matrix(1 0 0 1 164.16 351.9)" class="st2 st3">再生ボタン</text>
	<text transform="matrix(1 0 0 1 291.5 351.9)" class="st2 st3">ゴミ箱</text>
	<text transform="matrix(1 0 0 1 418.83 351.9)" class="st2 st3">星</text>
	<text transform="matrix(1 0 0 1 522.16 351.9)" class="st2 st3">ビデオ</text>
	<text transform="matrix(1 0 0 1 643.5 351.9)" class="st2 st3">電源</text>
	<text transform="matrix(1 0 0 1 746.83 351.9)" class="st2 st3">アイコン</text>
	<text transform="matrix(1 0 0 1 880.16 351.9)" class="st2 st3">鍵</text>
	<text transform="matrix(1 0 0 1 989.5 351.9)" class="st2 st3">メモ</text>
	<text transform="matrix(1 0 0 1 1092.83 351.9)" class="st2 st3">チェック</text>
	<text transform="matrix(1 0 0 1 36.83 492.39)" class="st2 st3">スマートフォン</text>
	<text transform="matrix(1 0 0 1 170.16 492.39)" class="st2 st3">アイコン</text>
	<text transform="matrix(1 0 0 1 285.5 492.39)" class="st2 st3">アイコン</text>
	<text transform="matrix(1 0 0 1 400.83 492.39)" class="st2 st3">コピー機</text>
	<text transform="matrix(1 0 0 1 492.16 492.39)" class="st2 st3">クレジットカード</text>
	<text transform="matrix(1 0 0 1 643.5 492.39)" class="st2 st3">鉛筆</text>
	<text transform="matrix(1 0 0 1 734.83 492.39)" class="st2 st3">目覚まし時計</text>
	<text transform="matrix(1 0 0 1 868.16 492.39)" class="st2 st3">りぼん</text>
	<text transform="matrix(1 0 0 1 977.5 492.39)" class="st2 st3">アイコン</text>
	<text transform="matrix(1 0 0 1 1092.83 492.39)" class="st2 st3">アイコン</text>
	<text transform="matrix(1 0 0 1 54.83 630.89)" class="st2 st3">アイコン</text>
	<text transform="matrix(1 0 0 1 170.16 630.89)" class="st2 st3">アイコン</text>
	<text transform="matrix(1 0 0 1 285.5 630.89)" class="st2 st3">アイコン</text>
	<text transform="matrix(1 0 0 1 400.83 630.89)" class="st2 st3">アイコン</text>
	<text transform="matrix(1 0 0 1 516.16 630.89)" class="st2 st3">アイコン</text>
	<text transform="matrix(1 0 0 1 631.5 630.89)" class="st2 st3">アイコン</text>
	<text transform="matrix(1 0 0 1 746.83 630.89)" class="st2 st3">アイコン</text>
	<text transform="matrix(1 0 0 1 862.16 630.89)" class="st2 st3">アイコン</text>
	<text transform="matrix(1 0 0 1 977.5 630.89)" class="st2 st3">アイコン</text>
	<text transform="matrix(1 0 0 1 1092.83 630.89)" class="st2 st3">アイコン</text>
	<text transform="matrix(1 0 0 1 54.83 773.38)" class="st2 st3">アイコン</text>
	<text transform="matrix(1 0 0 1 170.16 773.38)" class="st2 st3">アイコン</text>
	<text transform="matrix(1 0 0 1 285.5 773.38)" class="st2 st3">アイコン</text>
	<text transform="matrix(1 0 0 1 400.83 773.38)" class="st2 st3">アイコン</text>
	<text transform="matrix(1 0 0 1 516.16 773.38)" class="st2 st3">アイコン</text>
	<text transform="matrix(1 0 0 1 631.5 773.38)" class="st2 st3">アイコン</text>
	<text transform="matrix(1 0 0 1 746.83 773.38)" class="st2 st3">アイコン</text>
	<text transform="matrix(1 0 0 1 862.16 773.38)" class="st2 st3">アイコン</text>
	<text transform="matrix(1 0 0 1 977.5 773.38)" class="st2 st3">アイコン</text>
	<text transform="matrix(1 0 0 1 1092.83 773.38)" class="st2 st3">アイコン</text>
</g>
<g id="デザイン">
	<polyline class="st4" points="103.8,718.4 107.3,724.7 98.9,718.4 	"/>
	<ellipse class="st4" cx="91.8" cy="707.5" rx="20.6" ry="14.1"/>
	<circle class="st5" cx="1114.3" cy="417.9" r="23.4"/>
	<path class="st6" d="M973.6,426.8L973.6,426.8z"/>
	<path class="st6" d="M973.4,413.3L973.4,413.3z"/>
	<path class="st5" d="M51.6,112.8h53.1c4.3,0,7.7,3.5,7.7,7.7v33.6c0,4.3-3.5,7.7-7.7,7.7H51.6c-4.3,0-7.7-3.5-7.7-7.7v-33.6
		C43.9,116.2,47.3,112.8,51.6,112.8z"/>
	<polygon class="st7" points="40.9,114.3 78.2,138.4 115.5,114.3 116.4,115.7 78.2,140.9 39.9,115.9 	"/>
	
		<rect x="195.1" y="110.8" transform="matrix(0.7071 -0.7071 0.7071 0.7071 -20.3783 178.9859)" class="st8" width="21.6" height="6.7"/>
	<polygon class="st8" points="218.6,101.7 218.6,112.2 207.4,101.7 	"/>
	
		<rect x="284.1" y="151.5" transform="matrix(0.7071 -0.7071 0.7071 0.7071 -23.0758 253.8838)" class="st8" width="21.6" height="6.7"/>
	<polygon class="st8" points="282.1,167.2 282.1,156.7 293.5,167.2 	"/>
	<rect x="445" y="113.4" class="st5" width="3.1" height="38.6"/>
	<rect x="406.9" y="113.4" class="st5" width="2.7" height="38.6"/>
	<ellipse transform="matrix(0.9877 -0.1563 0.1563 0.9877 -19.0922 64.6398)" class="st5" cx="401.6" cy="153.8" rx="8.4" ry="6"/>
	<ellipse transform="matrix(0.9753 -0.2209 0.2209 0.9753 -23.0867 101.016)" class="st5" cx="440.2" cy="153.7" rx="8.4" ry="6"/>
	<circle class="st5" cx="653.8" cy="137.3" r="29.2"/>
	<circle class="st7" cx="653.8" cy="137.3" r="21.9"/>
	
		<rect x="625.7" y="132.4" transform="matrix(0.7515 -0.6597 0.6597 0.7515 71.943 465.4418)" class="st5" width="56.2" height="9.6"/>
	<path d="M134.6,218.1"/>
	<polyline class="st5" points="752,151.5 747.1,161 758.9,151.5 	"/>
	<ellipse class="st5" cx="768.8" cy="134.9" rx="29" ry="21.3"/>
	<polygon class="st4" points="749.8,151 747.1,161 756.2,154.1 	"/>
	<polygon class="st5" points="883.8,106.5 919.4,157.4 852.9,157.4 	"/>
	<circle class="st4" cx="884.6" cy="150.4" r="3.3"/>
	<path class="st4" d="M884.6,119.4L884.6,119.4c2.1,0,3.7,1.7,3.7,3.7v17.8c0,2.1-1.7,3.7-3.7,3.7h0c-2.1,0-3.7-1.7-3.7-3.7v-17.8
		C880.9,121,882.6,119.4,884.6,119.4z"/>
	<path class="st5" d="M972.3,120.4h53c2.9,0,5.3,2.4,5.3,5.3v31.8c0,2.9-2.4,5.3-5.3,5.3h-53c-2.9,0-5.3-2.4-5.3-5.3v-31.8
		C967,122.7,969.4,120.4,972.3,120.4z"/>
	<circle class="st7" cx="998.3" cy="141.5" r="15.1"/>
	<rect x="973.3" y="114.4" class="st4" width="19.8" height="6.7"/>
	<circle class="st9" cx="998.3" cy="141.5" r="11.8"/>
	<circle class="st5" cx="1121.8" cy="128.3" r="21.9"/>
	<path class="st5" d="M1112.3,142.1L1112.3,142.1c1.8,1.6,2,4.4,0.4,6.2l-17.2,19.4c-1.6,1.8-4.4,2-6.2,0.4l0,0
		c-1.8-1.6-2-4.4-0.4-6.2l17.2-19.4C1107.7,140.6,1110.5,140.4,1112.3,142.1z"/>
	<rect x="56.2" y="267.7" class="st5" width="45.3" height="36.3"/>
	<polygon class="st5" points="48,273.7 109.7,273.7 78.6,244.7 	"/>
	<rect x="68.8" y="278.7" class="st10" width="20.1" height="14.1"/>
	<circle class="st5" cx="194.2" cy="278.1" r="28.8"/>
	<polygon class="st7" points="184.8,263.7 184.8,295.4 213,277.6 	"/>
	<path class="st4" d="M300.2,253.2h17.7c0.8,0,1.5,0.7,1.5,1.5v4.9c0,0.8-0.7,1.5-1.5,1.5h-17.7c-0.8,0-1.5-0.7-1.5-1.5v-4.9
		C298.7,253.9,299.4,253.2,300.2,253.2z"/>
	<polygon class="st5" points="423.8,255.9 431,270.5 447.2,272.8 435.5,284.2 438.3,300.3 423.8,292.7 409.4,300.3 412.2,284.2 
		400.5,272.8 416.6,270.5 	"/>
	<path class="st5" d="M550.6,298h-37.9c-3.4-0.1-6.1-3-6-6.5v-24c-0.1-3.4,2.6-6.3,6-6.5h37.9c3.4,0.1,6.1,3,6,6.5v24
		C556.7,295,554.1,297.9,550.6,298z"/>
	<polygon class="st5" points="567.9,268.1 567.9,289.3 555.6,286.3 555.6,271.6 	"/>
	<circle class="st5" cx="653.8" cy="278.6" r="22.5"/>
	<circle class="st7" cx="653.8" cy="278.6" r="16.3"/>
	<path class="st9" d="M653.1,251.8h1.4c1,0,1.8,0.8,1.8,1.8v16.6c0,1-0.8,1.8-1.8,1.8h-1.4c-1,0-1.8-0.8-1.8-1.8v-16.6
		C651.3,252.6,652.1,251.8,653.1,251.8z"/>
	<rect x="646.5" y="254.6" class="st7" width="4.8" height="11.3"/>
	<rect x="656.3" y="254.6" class="st7" width="4.8" height="11.3"/>
	<circle class="st5" cx="769.3" cy="278.1" r="23.8"/>
	<circle class="st7" cx="768.8" cy="278.4" r="16.4"/>
	
		<rect x="778.8" y="283" transform="matrix(0.7963 -0.6049 0.6049 0.7963 -16.0711 535.0493)" class="st7" width="15.3" height="16.9"/>
	<polygon class="st5" points="788.3,290.1 782.4,276 797.8,278 	"/>
	<ellipse class="st11" cx="884.6" cy="269.1" rx="15.7" ry="17.3"/>
	<ellipse class="st7" cx="884.6" cy="268.6" rx="11.5" ry="12.6"/>
	<path class="st5" d="M866,268.5h37.2c2.4,0,4.3,1.9,4.3,4.3V300c0,2.4-1.9,4.3-4.3,4.3H866c-2.4,0-4.3-1.9-4.3-4.3v-27.1
		C861.7,270.5,863.6,268.5,866,268.5z"/>
	<circle class="st7" cx="884.5" cy="282.5" r="5.6"/>
	<path class="st7" d="M884.5,279.8L884.5,279.8c1.4,0,2.6,1.2,2.6,2.6v11.5c0,1.4-1.2,2.6-2.6,2.6h0c-1.4,0-2.6-1.2-2.6-2.6v-11.5
		C882,280.9,883.1,279.8,884.5,279.8z"/>
	<path class="st5" d="M981.2,249.1h35.2c3,0,5.4,2.4,5.4,5.4v48.8c0,3-2.4,5.4-5.4,5.4h-35.2c-3,0-5.4-2.4-5.4-5.4v-48.8
		C975.8,251.5,978.2,249.1,981.2,249.1z"/>
	<rect x="985.1" y="260.3" class="st9" width="28.2" height="1"/>
	<rect x="985.1" y="268.5" class="st9" width="28.2" height="1"/>
	<rect x="985.1" y="278.4" class="st9" width="28.2" height="1"/>
	<rect x="985.1" y="287.1" class="st9" width="28.2" height="1"/>
	<rect x="985.1" y="296.1" class="st9" width="28.2" height="1"/>
	<path class="st4" d="M1097.2,280.8l14.4,11.6c1.9,1.5,2.1,4.2,0.7,6v0c-1.5,1.9-4.2,2.1-6,0.7l-14.4-11.6c-1.9-1.5-2.1-4.2-0.7-6v0
		C1092.7,279.6,1095.4,279.3,1097.2,280.8z"/>
	<path class="st5" d="M1139.1,265.4l-26,32.4c-1.5,1.9-4.2,2.1-6,0.7l-1.1-0.9c-1.9-1.5-2.1-4.2-0.7-6l26-32.4
		c1.5-1.9,4.2-2.1,6-0.7l1.1,0.9C1140.3,260.8,1140.6,263.5,1139.1,265.4z"/>
	<path class="st5" d="M60.4,385.1h38.3c1.8,0,3.2,1.4,3.2,3.2v61c0,1.8-1.4,3.2-3.2,3.2H60.4c-1.8,0-3.2-1.4-3.2-3.2v-61
		C57.2,386.6,58.6,385.1,60.4,385.1z"/>
	<rect x="64.5" y="392.6" class="st10" width="30.8" height="44.3"/>
	<circle class="st4" cx="79.9" cy="445.2" r="3.9"/>
	<circle class="st12" cx="768.8" cy="134.9" r="2.7"/>
	<circle class="st7" cx="758.9" cy="134.9" r="2.7"/>
	<circle class="st7" cx="778.4" cy="134.9" r="2.7"/>
	<circle class="st4" cx="187.1" cy="440.8" r="4.8"/>
	<rect x="178.9" y="431.6" class="st5" width="34.7" height="3"/>
	
		<rect x="201.5" y="418.2" transform="matrix(0.2766 -0.961 0.961 0.2766 -246.657 511.5835)" class="st5" width="30.1" height="3"/>
	
		<rect x="175.7" y="405.1" transform="matrix(0.9769 -0.2139 0.2139 0.9769 -85.714 47.6082)" class="st5" width="3" height="29.6"/>
	<circle class="st4" cx="205.8" cy="440.8" r="4.8"/>
	<rect x="159.1" y="405.2" class="st5" width="16.3" height="3.3"/>
	<rect x="193.7" y="392.9" class="st5" width="5.2" height="23.3"/>
	<polygon class="st4" points="189.3,413.6 203.9,413.6 196.6,423.4 	"/>
	
		<rect x="285.4" y="408.9" transform="matrix(0.6817 -0.7316 0.7316 0.6817 -212.6036 360.956)" class="st5" width="46.4" height="31.9"/>
	<polygon class="st5" points="312.8,397 336.5,396.8 336.1,418.7 	"/>
	<circle class="st7" cx="325.7" cy="406.5" r="4.7"/>
	<rect x="397.3" y="401.8" class="st5" width="58.6" height="36.2"/>
	<rect x="415.7" y="420.8" class="st5" width="23.5" height="29.9"/>
	<rect x="417.2" y="427.1" class="st7" width="20.3" height="21.9"/>
	<rect x="415.7" y="393" class="st5" width="21.9" height="7.5"/>
	<rect x="508.4" y="399.1" class="st5" width="60" height="39.3"/>
	<path class="st13" d="M766.5,399.9h0.6c0.6,0,1.1,0.5,1.1,1.1v19c0,0.6-0.5,1.1-1.1,1.1h-0.6c-0.6,0-1.1-0.5-1.1-1.1v-19
		C765.4,400.4,765.9,399.9,766.5,399.9z"/>
	<path class="st5" d="M753.5,433.7l1,0.5c1,0.5,1.5,1.7,1,2.8l-2.9,6.1c-0.5,1-1.7,1.5-2.8,1l-1-0.5c-1-0.5-1.5-1.7-1-2.8l2.9-6.1
		C751.2,433.7,752.4,433.2,753.5,433.7z"/>
	<path class="st13" d="M779.3,417.3l0,0.1c0.1,0.6-0.2,1.2-0.8,1.3l-11.6,2.6c-0.6,0.1-1.2-0.2-1.3-0.8l0-0.1
		c-0.1-0.6,0.2-1.2,0.8-1.3l11.6-2.6C778.6,416.3,779.1,416.7,779.3,417.3z"/>
	<path class="st5" d="M781.1,434.6l1-0.6c1-0.6,2.3-0.3,2.9,0.6l3.7,5.7c0.6,1,0.3,2.3-0.6,2.9l-1,0.6c-1,0.6-2.3,0.3-2.9-0.6
		l-3.7-5.7C779.9,436.6,780.2,435.3,781.1,434.6z"/>
	<path class="st14" d="M29.2,588.8"/>
	<path class="st5" d="M885.2,409.4c0,0,16.5-10.4,20.8-9.2s3.7,8.5,2.4,12.7s5.8,13.9-2.4,13.4s-20.7-4.3-20.7-4.3L885.2,409.4z"/>
	<path class="st5" d="M880.8,421.3c0,0-13.9,15.3-14.3,18.6l-1-4.5l-6,0.2c0,0,3.9-10.1,8.3-11S880.8,421.3,880.8,421.3z"/>
	<path class="st5" d="M884.7,421.5c0,0,13.8,15.3,14.3,18.6l1-4.5l5.9,0.2c0,0-3.9-10.1-8.3-11S884.7,421.5,884.7,421.5z"/>
	<path class="st9" d="M880.5,409.2"/>
	<path class="st9" d="M885.2,409.2L885.2,409.2z"/>
	<path class="st5" d="M880.3,409.2v12.5c0,0-12.1,3.7-20,4.3s-1.1-9.2-2.3-13.4s-1.8-11.6,2.3-12.7S880.3,409.2,880.3,409.2z"/>
	<path class="st9" d="M857.5,424.5c3-3,7-4.9,11.3-5.5c4-0.4,8.1,0.5,11.5,2.6c0,0-8.6,2.4-10,2.7s-5.9,1.2-6.8,1.3
		s-3.4,0.6-4.3,0.2S857.9,425.3,857.5,424.5z"/>
	<path class="st9" d="M908.7,424.5c-3.2-3-7.2-5-11.6-5.5c-4.1-0.4-8.3,0.5-11.9,2.6c0,0,8.9,2.4,10.3,2.7s6,1.2,7,1.3
		s3.5,0.6,4.5,0.2S908.3,425.3,908.7,424.5z"/>
	<path class="st9" d="M880.1,414c0,0-3.7-4.1-6.1-4.2S880.1,414,880.1,414z"/>
	<path class="st9" d="M885.2,414.5c0,0,4.1-4.9,5.8-4.6S885.2,414.5,885.2,414.5z"/>
	<path class="st9" d="M880.1,415c0,0-3.2-0.8-4.2,0S880.1,415,880.1,415z"/>
	<path class="st9" d="M885.2,414.9c0,0,4.3-0.6,4.8,0.4S885.2,414.9,885.2,414.9z"/>
	<path class="st9" d="M880.5,409.2l-0.1,12.5L880.5,409.2z"/>
	<rect x="880.5" y="409.1" class="st15" width="4.5" height="12.5"/>
	<path class="st16" d="M887.6,412.8c0.2-0.3,0.4-0.5,0.7-0.7c0.2-0.2,0.5-0.3,0.7-0.5s0.4-0.4,0.7-0.6c0.2-0.1,0.4-0.2,0.6-0.4"/>
	<path class="st16" d="M874.7,410.2c0.1,0,0.2,0,0.3,0.1c0.1,0,0.1,0,0.2,0.1c0,0,0.1,0.1,0.1,0.1l0.1,0.1c0.1,0,0.1,0.1,0.2,0.1
		c0,0,0.1,0.1,0.1,0.1c0,0,0.1,0.1,0.1,0.1c0.1,0,0.1,0.1,0.2,0.1l0.1,0.1l0.3,0.2c0.1,0,0.1,0.1,0.2,0.1c0.1,0,0.1,0.1,0.2,0.1
		l0.2,0.1c0.1,0,0.1,0.1,0.2,0.2c0.1,0.1,0.2,0.1,0.2,0.2c0.1,0.1,0.1,0.2,0.2,0.2l0.2,0.1c0.1,0,0.2,0.1,0.2,0.1
		c0.1,0,0.1,0.1,0.2,0.1"/>
	<path class="st16" d="M908.5,425.1c0,0,0.1,0,0.1,0l0.1-0.1c0.1-0.1,0.1-0.1,0.1-0.2"/>
	<path class="st16" d="M909.2,424.5L909.2,424.5L909.2,424.5L909.2,424.5L909.2,424.5L909.2,424.5L909.2,424.5L909.2,424.5
		L909.2,424.5"/>
	<path class="st16" d="M909.1,424.5h0.1l0,0l0,0l0,0l0,0l0,0l0,0l0,0l0,0"/>
	<path class="st16" d="M909.1,424.5L909.1,424.5L909.1,424.5L909.1,424.5L909.1,424.5L909.1,424.5L909.1,424.5L909.1,424.5
		L909.1,424.5L909.1,424.5L909.1,424.5L909.1,424.5L909.1,424.5L909.1,424.5L909.1,424.5L909.1,424.5L909.1,424.5L909.1,424.5
		L909.1,424.5L909.1,424.5L909.1,424.5"/>
	<path class="st16" d="M909.1,424.5L909.1,424.5L909.1,424.5L909.1,424.5L909.1,424.5L909.1,424.5"/>
	<polygon class="st7" points="40.9,115.3 78.2,140.6 115.5,115.3 116.4,116.8 78.2,143.2 39.9,117.1 	"/>
	<polygon class="st9" points="750.6,435 754.7,438.7 753.8,440.6 750.2,435.9 	"/>
	<polygon class="st9" points="785.5,435.4 781.3,438.8 782.6,440.7 786.2,436.5 	"/>
	<path class="st5" d="M758.8,395c-1.5-5.4-7.2-8.6-12.7-7.1c-5.4,1.5-8.6,7.2-7.1,12.7c0.9,3.1,3.2,5.7,6.2,6.8
		C748,401.7,752.8,397.2,758.8,395z"/>
	<path class="st5" d="M791.1,407.4c5.3-2.1,7.8-8,5.8-13.3c-2.1-5.3-8-7.8-13.3-5.8c-3,1.2-5.3,3.8-6.1,6.9
		C783.3,397.4,788.2,401.7,791.1,407.4z"/>
	<path class="st9" d="M745.3,407.4c-0.9-0.3-1.8-0.8-2.5-1.4c0,0,4.5-3.9,7.3-6.9s5-9.4,5-9.4c1.7,1.5,2.9,3.3,3.7,5.4
		c-3.1,1.2-6,3-8.4,5.3C748.3,402.4,746.5,404.7,745.3,407.4z"/>
	<path class="st9" d="M790.9,407.4c0.9-0.3,1.8-0.8,2.5-1.4c0,0-4.6-3.8-7.5-6.8s-5.2-9.3-5.2-9.3c-1.6,1.5-2.9,3.3-3.6,5.4
		c3.2,1.1,6.1,2.9,8.5,5.1C787.8,402.5,789.6,404.8,790.9,407.4z"/>
	
		<ellipse transform="matrix(0.2589 -0.9659 0.9659 0.2589 171.7725 1013.2428)" class="st7" cx="746.2" cy="394.7" rx="2" ry="1.5"/>
	
		<ellipse transform="matrix(0.2556 -0.9668 0.9668 0.2556 166.2625 1014.0826)" class="st7" cx="741.7" cy="399.1" rx="1.1" ry="0.7"/>
	<ellipse class="st7" cx="786.5" cy="390" rx="2" ry="1.4"/>
	<ellipse transform="matrix(0.9893 -0.1459 0.1459 0.9893 -48.7358 118.5524)" class="st7" cx="783.8" cy="391.5" rx="1" ry="0.8"/>
	<rect x="766.7" y="390.9" class="st9" width="2.6" height="4.4"/>
	<path class="st5" d="M762.8,388.9h10.5c0.7,0,1.2,0.6,1.2,1.2v0c0,0.7-0.6,1.2-1.2,1.2h-10.5c-0.7,0-1.2-0.6-1.2-1.2v0
		C761.5,389.4,762.1,388.9,762.8,388.9z"/>
	<path class="st9" d="M773.2,388.9c0.7,0.1,1.2,0.7,1.1,1.3c-0.1,0.6-0.5,1.1-1.1,1.1h-10.5c-0.4,0-0.8-0.2-1-0.5
		c-0.1-0.2,1.1,0.3,2.1,0.3h7.4c0.6,0.1,1.3-0.2,1.8-0.6C773.4,390.1,773.2,388.9,773.2,388.9z"/>
	<circle class="st5" cx="768.2" cy="418.5" r="24.2"/>
	<path class="st7" d="M765.1,389.6h-2.2c-0.1,0-0.1-0.1-0.2-0.1s0,0,0,0l0,0c0-0.1,0.1-0.2,0.2-0.2c0,0,0,0,0,0h2.2
		c0.1,0,0.2,0.1,0.2,0.2c0,0,0,0,0,0l0,0C765.3,389.5,765.2,389.6,765.1,389.6C765.1,389.6,765.1,389.6,765.1,389.6z"/>
	
		<ellipse transform="matrix(0.7763 -0.6304 0.6304 0.7763 -75.1137 567.822)" class="st7" cx="762.4" cy="389.7" rx="0.2" ry="0.2"/>
	<circle class="st4" cx="768.2" cy="418.5" r="20"/>
	<path class="st7" d="M751.2,404c0.1-0.3,0.5-0.7,0.8-0.9s0.8-0.7,1.2-1.1c0.8-0.6,1.6-1.2,2.5-1.7c0.4-0.3,0-0.9-0.4-0.6
		c-1,0.6-1.9,1.2-2.8,1.9c-0.6,0.5-1.8,1.4-2,2.2C750.4,404.3,751.1,404.5,751.2,404L751.2,404z"/>
	<path class="st7" d="M751,404.3c0.8-0.6,1.6-1.4,2.4-2c0.4-0.3,0.9-0.7,1.3-1c0.5-0.3,0.9-0.6,1.2-1c0.1-0.2,0-0.4-0.2-0.5
		c-0.2-0.1-0.3,0-0.4,0.1c-0.3,0.4-0.7,0.6-1.1,0.9c-0.5,0.4-1,0.8-1.5,1.1s-0.7,0.5-1,0.8s-0.7,0.7-1,0.9S750.7,404.6,751,404.3
		L751,404.3z"/>
	<path class="st7" d="M750.6,403.5c0,0,0,0.1,0,0.1c0-0.1,0,0,0,0s0,0.1,0,0.1l0.2-0.2h0.2l0.2,0.1l0,0l0.1,0.2c0,0,0,0.1,0,0.1
		l0.1-0.1l0.1-0.1c0.1-0.1,0.2-0.2,0.2-0.2c0.4-0.3,0-0.9-0.4-0.6c-0.2,0.1-0.3,0.2-0.4,0.4c-0.2,0.1-0.3,0.3-0.3,0.5
		c-0.1,0.2,0.1,0.5,0.3,0.6c0.1,0,0.1,0,0.2,0c0.1,0,0.2-0.1,0.3-0.2c0-0.1,0-0.1,0-0.2c0-0.1,0,0,0,0.1c0-0.1,0-0.1,0,0
		c0.1-0.2,0-0.4-0.1-0.5c-0.2-0.1-0.4,0-0.5,0.1L750.6,403.5z"/>
	<path class="st7" d="M750.4,403.7c-0.1,0.1-0.1,0.2-0.1,0.4c0.1,0.2,0.3,0.3,0.5,0.3c0,0,0.1,0,0.1,0l0.1-0.1l-0.1,0.1l0,0h-0.1
		l0,0l-0.5-0.5l0,0L750.4,403.7L750.4,403.7L750.4,403.7L750.4,403.7l0.2-0.2l0,0h0.3l0,0l0.2,0.2l0,0v0.1l0,0v0.1v0v0.1l0,0v0.1
		l0,0l-0.1,0.1l0,0l-0.5-0.1l0,0v-0.2L750.4,403.7L750.4,403.7L750.4,403.7l0.1-0.1l0,0l0.1-0.1l0,0l0.2-0.1l0,0l0.4,0.4
		c0,0,0,0,0-0.1v0.1c0,0,0-0.1,0-0.1v0.1l0,0L750.4,403.7l0.1-0.1C750.5,403.6,750.5,403.7,750.4,403.7L750.4,403.7L750.4,403.7
		c0,0.1,0,0.2,0.1,0.3c0,0.1,0.1,0.2,0.2,0.2c0.2,0.1,0.4,0,0.5-0.1c0,0,0,0,0,0l0,0c0.1-0.2,0-0.4-0.1-0.5c0,0,0,0,0,0
		c-0.2-0.1-0.4,0-0.5,0.1l0,0l0.7,0.4c0.1-0.1,0.1-0.3,0.1-0.4c0-0.2-0.1-0.3-0.3-0.4c-0.1,0-0.1,0-0.2,0c-0.1,0-0.2,0.1-0.2,0.2
		c-0.1,0.1-0.1,0.3-0.1,0.4c0,0.1,0,0.2,0.1,0.3c0.1,0.1,0.2,0.1,0.3,0.1c0.2,0,0.3-0.1,0.4-0.2c0-0.1,0.1-0.1,0.1-0.2
		c0-0.2-0.1-0.3-0.3-0.4c-0.1,0-0.2,0-0.3,0c-0.1,0.1-0.2,0.2-0.2,0.3c0,0.1,0,0.1,0,0.2c0,0.2,0.2,0.4,0.4,0.3
		c0.2,0,0.3-0.1,0.3-0.3c0.1-0.2-0.1-0.4-0.3-0.5c-0.1,0-0.1,0-0.2,0c-0.1,0-0.2,0.1-0.2,0.1l0.1-0.1l0,0l0.5,0.2l0,0v0.2v0.1l0,0
		c0.1-0.2,0-0.4-0.2-0.5c-0.2-0.1-0.3,0-0.4,0.1L750.4,403.7z"/>
	<path class="st7" d="M755.7,399.6L755.7,399.6c0,0-0.1,0-0.1,0c-0.1,0-0.1,0-0.1,0.1c0,0-0.1,0.1-0.1,0.1c0,0,0,0.1,0,0.1v0.1
		c0,0.1,0.1,0.1,0.1,0.2l0.1,0.1c0.1,0,0.1,0,0.2,0l0,0c0,0,0.1,0,0.1,0c0,0,0.1,0,0.1-0.1c0,0,0.1-0.1,0.1-0.1c0,0,0-0.1,0-0.1
		v-0.1c0-0.1,0-0.1-0.1-0.2l-0.1-0.1C755.9,399.6,755.8,399.6,755.7,399.6L755.7,399.6z"/>
	<path class="st7" d="M755.5,399.6c-0.1,0-0.2,0.1-0.2,0.2c0,0-0.1,0.2,0,0.1l0.6,0.1l0,0v0.2c0,0.1-0.1,0.2,0,0.1l0,0c0,0,0,0,0,0
		h0h0.1l0.1-0.1c0.1-0.2,0.1-0.4-0.1-0.5C755.8,399.5,755.6,399.5,755.5,399.6C755.6,399.5,755.5,399.6,755.5,399.6
		c-0.2,0-0.2,0.1-0.3,0.1c-0.1,0.1-0.2,0.2-0.3,0.3c-0.1,0.2,0.1,0.4,0.3,0.5c0.2,0.1,0.4-0.1,0.5-0.3c0,0.1-0.1,0.1,0,0.1l0,0
		c0,0,0.1-0.1,0.1-0.1l0,0c0,0,0.1,0,0,0l0,0h0.1h-0.2l0,0L755.5,399.6C755.6,399.6,755.6,399.6,755.5,399.6L755.5,399.6
		c-0.1,0-0.1,0.1-0.2,0.1c0,0-0.1,0.1-0.1,0.1c-0.1,0.1-0.1,0.3,0,0.5c0.1,0.2,0.3,0.2,0.5,0.1c0,0,0,0,0.1-0.1l0.1-0.1
		c0.1-0.1,0,0.1-0.1,0.1c0.2,0,0.3-0.2,0.3-0.4c0,0,0,0,0,0C756,399.6,755.8,399.5,755.5,399.6C755.6,399.6,755.6,399.6,755.5,399.6
		L755.5,399.6z"/>
	<path class="st7" d="M755.7,399.6c-0.1,0-0.2,0-0.3,0.1l-0.1,0.1c0,0-0.1,0.1,0,0s0,0,0,0l0,0c0,0-0.1,0.1-0.1,0.1
		c0,0-0.1,0.1-0.1,0.2c0,0.1,0,0.2,0,0.2c0,0.1,0.1,0.1,0.1,0.1c0.1,0.1,0.1,0.1,0.2,0.1c0.1,0,0.2,0,0.3-0.1l0,0l0,0h-0.1l0,0
		l-0.4-0.5c0,0,0.1-0.1,0,0s0,0,0,0l0,0c0,0-0.1,0.1-0.1,0.1c0,0,0,0,0,0.1s0.1-0.1,0,0c-0.1,0.1-0.1,0.1-0.1,0.2
		c0,0.1,0,0.3,0.1,0.4c0.1,0.1,0.2,0.1,0.4,0.1c0.1,0,0.2-0.1,0.3-0.2c0.1-0.1,0.2-0.2,0.2-0.3C756.1,400,756,399.8,755.7,399.6
		c-0.1,0-0.3,0.1-0.4,0.3c0-0.1,0.1-0.2,0-0.1l0,0l-0.1,0.1l-0.1,0.1l0,0l0,0h0.1l0,0l0.5,0.5l0,0l-0.1,0.2l0.1-0.1c0,0,0,0,0-0.1
		s0,0,0,0s-0.1,0.1,0,0s0.2-0.1,0.2-0.2c0-0.1,0-0.1,0-0.2c0-0.1,0-0.2-0.1-0.2c-0.1-0.1-0.2-0.2-0.4-0.1c-0.1,0-0.1,0.1-0.2,0.1
		s0.1,0,0,0h0h0.1l0,0h0.1l0,0l0.3,0.6c-0.1,0-0.1,0.1,0,0l0,0h0.1l0.1-0.1l0,0l0,0h-0.1l0,0h-0.1l0,0c0.2,0,0.4-0.2,0.4-0.4
		c0-0.2-0.2-0.4-0.4-0.4L755.7,399.6z"/>
	<path class="st7" d="M749.5,405.1c-0.2,0.3-0.4,0.6-0.6,0.9l0.7,0.3c0,0.1,0,0,0,0l0.1-0.1c0,0,0.1-0.2,0.1-0.1l0.1,0
		c0.2-0.1,0.3-0.3,0.3-0.5c0-0.2-0.2-0.4-0.4-0.4c0,0-0.1,0-0.1,0c-0.1,0-0.2,0.1-0.3,0.2c-0.1,0.1-0.2,0.2-0.3,0.3
		c-0.2,0.2-0.3,0.5-0.3,0.8c0.1,0.2,0.3,0.3,0.5,0.3c0,0,0.1,0,0.1,0c0.1-0.1,0.2-0.2,0.3-0.3c0-0.1,0.1-0.1,0.1-0.2V406
		c0-0.1,0-0.1,0,0c0.2-0.1,0.2-0.3,0.1-0.5c-0.1-0.2-0.3-0.2-0.5-0.1c-0.1,0.1-0.2,0.2-0.3,0.4c-0.1,0.1-0.2,0.2-0.2,0.4l0.2-0.1
		l0,0l0.5,0.2c0,0.1,0,0,0,0s0.1-0.1,0.2-0.2c0,0,0.1-0.1,0.1-0.1l0.1-0.1c0,0,0.1-0.1,0-0.1l-0.2,0.1l0,0l-0.5-0.4l0,0l0-0.2
		c-0.1,0.1-0.2,0.2-0.3,0.3c-0.1,0.1-0.3,0.3-0.3,0.5c0,0.2,0,0.4,0.2,0.4c0.2,0.1,0.4,0,0.5-0.2c0.2-0.2,0.3-0.5,0.5-0.7
		C750.2,405.3,749.7,404.8,749.5,405.1L749.5,405.1z"/>
	<path class="st7" d="M768,403.7L768,403.7c0.4,0,0.8,0.3,0.8,0.8v14c0,0.4-0.3,0.8-0.8,0.8h0c-0.4,0-0.8-0.3-0.8-0.8v-14
		C767.2,404,767.6,403.7,768,403.7z"/>
	<path class="st7" d="M761.3,428.6L761.3,428.6c-0.4-0.2-0.4-0.7-0.2-1.1l6.3-9.2c0.2-0.4,0.7-0.4,1.1-0.2l0,0
		c0.4,0.2,0.4,0.7,0.2,1.1l-6.3,9.2C762.1,428.7,761.6,428.8,761.3,428.6z"/>
	<polygon class="st7" points="768,401.6 766.4,404.8 769.8,404.8 	"/>
	<polygon class="st7" points="760.4,429.2 763.8,428 761.3,425.6 	"/>
	<circle class="st9" cx="768" cy="418.1" r="2.1"/>
	<polygon class="st4" points="639.2,424.7 650.5,433.8 636.4,438.9 	"/>
	<polygon class="st9" points="636.4,438.9 639,437.9 636.9,436.2 	"/>
	<path class="st5" d="M671.8,397.1L671.8,397.1c3.2,2.7,3.6,7.6,0.9,10.8l-20.5,24.3c-2.7,3.2-7.6,3.6-10.8,0.9l0,0
		c-3.2-2.7-3.6-7.6-0.9-10.8l20.5-24.3C663.8,394.8,668.6,394.4,671.8,397.1z"/>
	
		<ellipse transform="matrix(0.6112 -0.7915 0.7915 0.6112 -56.6606 681.7263)" class="st4" cx="665.5" cy="398.5" rx="4.6" ry="6.4"/>
	<ellipse transform="matrix(0.615 -0.7885 0.7885 0.615 -59.0523 681.5973)" class="st9" cx="668.4" cy="401.3" rx="2.1" ry="2.8"/>
	<rect x="508.4" y="407" class="st4" width="60" height="5.6"/>
	<rect x="508.4" y="406.3" class="st7" width="60" height="0.7"/>
	<rect x="508.4" y="412.6" class="st7" width="60" height="0.7"/>
	<circle class="st10" cx="1121.8" cy="128.3" r="16.2"/>
	
		<ellipse transform="matrix(0.999 -4.466556e-02 4.466556e-02 0.999 -4.6075 50.7504)" class="st7" cx="1133.4" cy="128.5" rx="2.3" ry="4.2"/>
	<path class="st7" d="M1131.1,128.6c-0.2-1.8-0.5-3.5-1-5.2c-0.7-2.2-1.2-4.3,0.7-4.8s4.3,3.8,4.9,10L1131.1,128.6z"/>
	<ellipse class="st17" cx="1109.5" cy="130.3" rx="1.6" ry="3.1"/>
	<path class="st9" d="M1105.6,143c2.1,2.1,4.5,3.9,7.1,5.3l-2.3,2.6l-5.3-7.3L1105.6,143z"/>
	<circle class="st5" cx="538" cy="139" r="31.4"/>
	<path class="st5" d="M410.2,110.3h34.6c1.8,0,3.3,1.5,3.3,3.3v2.5c0,1.8-1.5,3.3-3.3,3.3h-34.6c-1.8,0-3.3-1.5-3.3-3.3v-2.5
		C406.9,111.8,408.4,110.3,410.2,110.3z"/>
	<ellipse transform="matrix(0.993 -0.1179 0.1179 0.993 -10.4977 49.3862)" class="st7" cx="412.2" cy="113.4" rx="3.2" ry="1.1"/>
	<path class="st7" d="M408.5,113"/>
	<path class="st9" d="M406.9,148.6c1.1,0.7,2,1.7,2.7,2.7v-1.6c-0.5-1-1.6-1.6-2.7-1.4V148.6z"/>
	<ellipse transform="matrix(0.65 -0.76 0.76 0.65 -82.4047 644.2767)" class="st7" cx="658.2" cy="411.6" rx="5" ry="1.3"/>
	
		<ellipse transform="matrix(0.7424 -0.6699 0.6699 0.7424 -108.3055 542.9413)" class="st7" cx="651.9" cy="412.3" rx="1.1" ry="0.9"/>
	<circle class="st10" cx="538" cy="138.3" r="26"/>
	<path class="st7" d="M537.2,118.4h0.9c0.4,0,0.8,0.3,0.8,0.8v21.2c0,0.4-0.3,0.8-0.8,0.8h-0.9c-0.4,0-0.8-0.3-0.8-0.8v-21.2
		C536.5,118.8,536.8,118.4,537.2,118.4z"/>
	<path class="st7" d="M553.9,148.7l-0.5,0.7c-0.2,0.4-0.7,0.5-1.1,0.2l-15.5-9.7c-0.4-0.2-0.5-0.7-0.2-1.1l0.5-0.7
		c0.2-0.4,0.7-0.5,1.1-0.2l15.5,9.7C554,147.9,554.1,148.4,553.9,148.7z"/>
	<polygon class="st18" points="537.6,115.6 535.1,120.6 540.5,120.6 	"/>
	<polygon class="st7" points="555.9,149.9 552.8,145.4 550.1,150 	"/>
	<path class="st5" d="M541.1,139c0,0.2,0,0.4-0.1,0.6c0,0,0,0.1,0,0.1c-0.4,1.7-2.2,2.8-3.9,2.4s-2.8-2.2-2.4-3.9
		c0.4-1.7,2.2-2.8,3.9-2.4C540,136.2,541.1,137.5,541.1,139L541.1,139z"/>
	<path class="st9" d="M541.5,140.1l-1.6,1.9l-0.4-0.2c0.3-0.2,0.6-0.5,0.8-0.8c0.2-0.4,0.4-0.7,0.5-1.2L541.5,140.1z"/>
	<path class="st9" d="M536.5,135.5h2.4v0.5c-0.4-0.1-0.8-0.2-1.1-0.2c-0.4,0-0.9,0.1-1.3,0.3V135.5z"/>
	<line class="st16" x1="540.8" y1="142.5" x2="539.9" y2="142"/>
	<ellipse transform="matrix(0.7071 -0.7071 0.7071 0.7071 60.0735 419.5422)" class="st19" cx="536.5" cy="137.3" rx="1" ry="0.5"/>
	<ellipse transform="matrix(0.5 -0.866 0.866 0.5 147.8191 532.9308)" class="st19" cx="535.4" cy="138.5" rx="0.4" ry="0.3"/>
	
		<ellipse transform="matrix(0.7071 -0.7071 0.7071 0.7071 69.2977 401.0611)" class="st19" cx="518.8" cy="116.9" rx="4.9" ry="0.9"/>
	
		<ellipse transform="matrix(0.4343 -0.9008 0.9008 0.4343 181.5831 531.5508)" class="st19" cx="514" cy="121.2" rx="1.2" ry="0.6"/>
	
		<ellipse transform="matrix(0.9665 -0.2568 0.2568 0.9665 -50.9504 141.4975)" class="st7" cx="516.3" cy="265.8" rx="5.2" ry="1.9"/>
	
		<ellipse transform="matrix(0.5711 -0.8209 0.8209 0.5711 -3.1509 535.1316)" class="st7" cx="510.6" cy="270.6" rx="1.5" ry="0.9"/>
	<polygon class="st9" points="556.6,271.3 556.6,286.5 562.2,287.9 557.1,271.2 	"/>
	
		<ellipse transform="matrix(0.4653 -0.8852 0.8852 0.4653 226.5561 624.6058)" class="st7" cx="630.3" cy="124.8" rx="4.8" ry="1.2"/>
	<ellipse transform="matrix(0.3102 -0.9507 0.9507 0.3102 306.4128 690.61)" class="st7" cx="629.1" cy="134.2" rx="1.3" ry="0.7"/>
	<path class="st4" d="M666.8,119.6c1.5,1.1,3,2,6.3,7.2l-1.5,1.3c-0.8-1.3-1.6-2.5-2.5-3.7c-0.8-0.9-3.8-3.5-3.8-3.5L666.8,119.6z"
		/>
	<path class="st4" d="M640.9,155c-1.5-1.1-3-2-6.3-7.2l1.5-1.3c0.8,1.3,1.6,2.5,2.5,3.7c0.8,0.9,3.8,3.5,3.8,3.5L640.9,155z"/>
	<path class="st4" d="M665.2,120.9c0,0,1.8,3.2,1.7,5.9c-0.2,2.3-0.7,4.5-1.4,6.6l6.1-5.4l-1.5-4.2l-2.8-2.9H665.2z"/>
	<polygon class="st4" points="423.8,255.9 423.8,278.1 416.6,270.5 	"/>
	<polygon class="st4" points="423.8,278.1 400.5,272.8 412.2,284.2 	"/>
	<polygon class="st4" points="409.4,300.3 423.8,278.1 423.8,292.7 	"/>
	<polygon class="st4" points="438.3,300.3 423.8,278.1 435.5,284.2 	"/>
	<polygon class="st4" points="447.2,272.8 423.8,278.1 431,270.5 	"/>
	
		<ellipse transform="matrix(0.8211 -0.5708 0.5708 0.8211 92.6583 592.1078)" class="st7" cx="990.9" cy="148.2" rx="0.9" ry="1.2"/>
	<circle class="st11" cx="884.5" cy="282.5" r="3.8"/>
	<path class="st11" d="M884.5,284.6L884.5,284.6c0.7,0,1.3,0.6,1.3,1.3v7.7c0,0.7-0.6,1.3-1.3,1.3h0c-0.7,0-1.3-0.6-1.3-1.3v-7.7
		C883.2,285.2,883.8,284.6,884.5,284.6z"/>
	<polygon class="st7" points="81.8,437 95.3,423.4 95.3,418.9 76,437 	"/>
	<polygon class="st7" points="85.7,437 95.3,427.1 95.3,431.6 90.5,437 	"/>
	
		<ellipse transform="matrix(0.7506 -0.6608 0.6608 0.7506 -273.3551 162.3517)" class="st7" cx="78.4" cy="443.3" rx="1.1" ry="0.8"/>
	
		<ellipse transform="matrix(0.3216 -0.9469 0.9469 0.3216 -368.9531 374.8565)" class="st7" cx="77.1" cy="444.9" rx="0.6" ry="0.4"/>
	<path class="st9" d="M83.3,443.4c0.8,1.4,0.6,3.1-0.5,4.3c-0.6,0.7-1.4,1.2-2.4,1.4c-0.9,0.1-1.8-0.1-2.6-0.6L83.3,443.4z"/>
	
		<ellipse transform="matrix(0.7071 -0.7071 0.7071 0.7071 34.9546 610.884)" class="st19" cx="754.9" cy="263.2" rx="6.5" ry="1.5"/>
	<ellipse transform="matrix(0.3851 -0.9229 0.9229 0.3851 208.3443 857.9637)" class="st19" cx="748" cy="272.6" rx="2" ry="1.1"/>
	<path class="st7" d="M882.9,124.7v10.2c0,0.3-0.2,0.5-0.5,0.5l0,0c-0.3,0-0.5-0.2-0.5-0.5v-10.2c0-0.3,0.2-0.5,0.5-0.5l0,0
		C882.6,124.2,882.9,124.4,882.9,124.7z"/>
	<ellipse class="st7" cx="882.4" cy="136.9" rx="0.5" ry="0.7"/>
	<path class="st7" d="M882.5,148.6c-0.3,0.2-0.5,0.5-0.6,0.9c-0.1,0.4-0.1,0.7,0,1.1c0.1,0.6,0.4,0.7,0.6,0.6s0.1-0.5,0-0.7
		c-0.2-0.3-0.2-0.6,0-0.9c0.2-0.2,0.7-0.6,0.6-0.8S883,148.5,882.5,148.6z"/>
	<ellipse transform="matrix(0.806 -0.5919 0.5919 0.806 81.3297 551.9465)" class="st7" cx="882.8" cy="151.9" rx="0.2" ry="0.4"/>
	<path class="st7" d="M991.5,135.5c-1,0.9-1.7,2.2-2,3.6c-0.2,2-0.5,1.9,0,4.4s1.4,2.6,2,2.4s0.5-2,0-2.8c-0.6-1.1-0.6-2.4-0.2-3.5
		c0.6-0.9,2.4-2.2,2.1-3.3S993.2,135,991.5,135.5z"/>
	<path class="st5" d="M166.7,130.5H204c4.3,0,7.7,3.5,7.7,7.7v22.3c0,4.3-3.5,7.7-7.7,7.7h-37.3c-4.3,0-7.7-3.5-7.7-7.7v-22.3
		C159,134,162.4,130.5,166.7,130.5z"/>
	<polygon class="st7" points="156.7,131.7 185.4,150.2 214.1,131.7 214.8,132.8 185.4,152.1 155.9,133 	"/>
	<polygon class="st7" points="156.7,132.5 185.4,151.9 214.1,132.5 214.8,133.7 185.4,154 155.9,133.8 	"/>
	<path class="st5" d="M300.7,99.2H338c4.3,0,7.7,3.5,7.7,7.7v22.3c0,4.3-3.5,7.7-7.7,7.7h-37.3c-4.3,0-7.7-3.5-7.7-7.7v-22.3
		C292.9,102.7,296.4,99.2,300.7,99.2z"/>
	<polygon class="st7" points="290.6,100.4 319.3,118.9 348,100.4 348.7,101.5 319.3,120.8 289.9,101.6 	"/>
	<polygon class="st7" points="290.6,101.2 319.3,120.6 348,101.2 348.7,102.3 319.3,122.6 289.9,102.5 	"/>
	<rect x="298.7" y="258.8" class="st9" width="20.6" height="0.7"/>
	<path class="st9" d="M319.3,255.7v3.1h-20.6c0,0,7.2-0.3,10.8-0.8C312.8,257.6,316.1,256.9,319.3,255.7z"/>
	<polygon class="st4" points="186.6,266.3 186.6,291.6 209.7,277.4 201.9,273.7 	"/>
	<path class="st9" d="M186.6,280.9c0,0,2.1-2.6,7.6-1.9s6.7-0.2,8.8-1.7s6.8,0.1,6.8,0.1l-23.2,14.1L186.6,280.9z"/>
	<rect x="56.2" y="273.7" class="st7" width="45.3" height="0.9"/>
	<polygon class="st7" points="85.5,292.9 88.9,289.2 88.9,287.6 83.7,292.9 	"/>
	<polygon class="st7" points="81.8,292.9 88.9,285.8 88.9,284.2 79.9,292.9 	"/>
	<path class="st7" d="M301.8,436.4c-0.2-1.3,0-2.6,0.4-3.8c0.6-1,1.4-1.9,2.3-2.6c2.1-1.4,4.3-2.6,6.7-3.4c2.1-0.9,3.9-1.6,5.2-3.6
		c0.6-1,1.2-2.1,1.7-3.2c0.3-1.1,0.8-2.2,1.2-3.2c0.3-0.4-0.2-0.8-0.6-0.8c-0.5-0.1-1,0.2-1.3,0.6c-0.5,1-0.9,2.1-1.2,3.2
		c-0.5,1.2-1.2,2.4-1.9,3.4c-0.7,0.9-1.7,1.6-2.8,1.9c-1.2,0.5-2.4,0.9-3.6,1.4c-2.2,0.9-4.2,2.2-5.9,3.8c-0.9,0.8-1.5,1.7-2,2.8
		c-0.3,1.2-0.4,2.4-0.3,3.6C299.8,437.5,301.8,437.2,301.8,436.4L301.8,436.4z"/>
	<path class="st9" d="M187.4,441.5c1.7-1,3.4-3.8,3.4-3.8s3.3,4.2-1.7,7.4c-2.3,1-4.9,0.1-6.1-2.1
		C184.5,442.7,185.9,442.2,187.4,441.5z"/>
	<path class="st9" d="M206,441.5c1.7-1,3.4-3.8,3.4-3.8s3.3,4.2-1.7,7.4c-2.3,1-4.9,0.1-6.1-2.1C203.1,442.7,204.6,442.2,206,441.5z
		"/>
	<path class="st7" d="M182.9,439.8l0.7-1.6c0.1-0.2,0.3-0.2,0.4-0.2h0c0.2,0.1,0.2,0.3,0.2,0.4l-0.7,1.6c-0.1,0.2-0.3,0.2-0.4,0.2
		l0,0C182.9,440.2,182.9,440,182.9,439.8z"/>
	<path class="st7" d="M201,438.9l0.7-1.6c0.1-0.2,0.3-0.2,0.4-0.2h0c0.2,0.1,0.2,0.3,0.2,0.4l-0.7,1.6c-0.1,0.2-0.3,0.2-0.4,0.2h0
		C200.9,439.3,200.9,439.1,201,438.9z"/>
	<ellipse class="st7" cx="183" cy="440.9" rx="0.2" ry="0.3"/>
	<ellipse class="st7" cx="201.8" cy="440.8" rx="0.2" ry="0.3"/>
	<polygon class="st4" points="415.7,438 417.2,438 417.2,449 437.6,449 437.6,438 439.1,438 439.1,450.7 415.7,450.7 	"/>
	<circle class="st20" cx="998.8" cy="419.3" r="26.6"/>
	<path class="st21" d="M1001.7,393c0,0,6.6,12.2,6.6,26.3s-6.6,26.3-6.6,26.3"/>
	<path class="st21" d="M996.2,393.3c0,0-6.3,12.2-6.3,26.3s6.3,26.3,6.3,26.3"/>
	<path class="st21" d="M1106.1,401.3"/>
	<path class="st9" d="M1104.8,402.1l1.2,2.9c2.5-1.3,5.3-2,8.1-2c4,0.2,6.3,1.7,6.8,4.5s-2,6-3.8,7.5s-4.8,4.8-5,6.6
		c-0.1,1.9-0.1,3.8,0,5.7h3.4c0,0-0.5-4,0.1-5.4c0.8-1.7,1.9-3.2,3.3-4.5c1.3-1.1,4.5-4.2,5.3-6.4s1-6.4-1.6-8.5s-4.9-2.7-8.3-2.8
		C1111.1,399.9,1107.8,400.7,1104.8,402.1z"/>
	<circle class="st9" cx="1113.8" cy="432.4" r="2.6"/>
	
		<ellipse transform="matrix(0.3812 -0.9245 0.9245 0.3812 -483.9903 400.6644)" class="st5" cx="57.3" cy="561.9" rx="19.8" ry="10.6"/>
	
		<ellipse transform="matrix(0.9023 -0.4311 0.4311 0.9023 -232.2082 94.9142)" class="st5" cx="93.3" cy="559.8" rx="10.4" ry="19.7"/>
	<path class="st5" d="M64.1,543.4c0,0,6.4,2.9,11.1,2.9s11.5-2.9,11.5-2.9l1.3,25.1H64.1V543.4z"/>
	<circle class="st4" cx="87.5" cy="550.7" r="1.8"/>
	<circle class="st4" cx="91.8" cy="554.5" r="1.8"/>
	<circle class="st4" cx="87.9" cy="558.7" r="1.8"/>
	<circle class="st4" cx="83.7" cy="554.7" r="1.8"/>
	<path class="st4" d="M61.2,550.1h1.1c0.5,0,0.9,0.4,0.9,0.9v8.7c0,0.5-0.4,0.9-0.9,0.9h-1.1c-0.5,0-0.9-0.4-0.9-0.9V551
		C60.3,550.5,60.7,550.1,61.2,550.1z"/>
	<path class="st4" d="M67.1,554.8v0.9c0,0.6-0.5,1-1,1h-8.5c-0.6,0-1-0.5-1-1v-0.9c0-0.6,0.5-1,1-1h8.5
		C66.7,553.8,67.1,554.2,67.1,554.8z"/>
	<path class="st5" d="M179.1,534.5h35c3.4,0,6.1,2.7,6.1,6.1v40.8c0,3.4-2.7,6.1-6.1,6.1h-35c-3.4,0-6.1-2.7-6.1-6.1v-40.8
		C173,537.2,175.7,534.5,179.1,534.5z"/>
	<polygon class="st9" points="202.3,535.4 201.6,553.3 219.8,553.1 	"/>
	
		<rect x="209.1" y="522.9" transform="matrix(0.7071 -0.7071 0.7071 0.7071 -317.1595 311.4901)" class="st7" width="16.7" height="31.3"/>
	<rect x="184.3" y="547" class="st9" width="24.5" height="0.8"/>
	<rect x="184.3" y="553.9" class="st9" width="24.5" height="0.8"/>
	<rect x="184.3" y="561.8" class="st9" width="24.5" height="0.8"/>
	<rect x="184.3" y="569.6" class="st9" width="24.5" height="0.8"/>
	<rect x="184.3" y="577.2" class="st9" width="24.5" height="0.8"/>
	<polygon class="st5" points="285.4,535.4 322.8,546.2 322.8,559.6 285.4,566.6 	"/>
	<path class="st9" d="M285.4,535.4c3.2,0,5.2,4.3,5.2,14.7s0,17.3-5.2,16.5c-3.2,0-2.2-11.2-2.4-15.6S282.1,535.4,285.4,535.4z"/>
	<path class="st4" d="M322.8,546.2c0,0,10-3.7,11.4-2.5s1.4,17.8,0,18.8s-11.4-2.9-11.4-2.9V546.2z"/>
	<path class="st4" d="M318.8,560.4c0,0,2.6,10.5,4.8,13.1c2.1,2.3,4.3,4.4,6.6,6.3l6.4-6c0,0-5.6-4.3-6.4-5.1s-3.8-7.7-3.8-7.7
		l-3.7-1.3L318.8,560.4z"/>
	<path class="st4" d="M313.6,561.3c1,0.7,2.1,1.4,3.2,2c1.1,0.4,2.2,0.5,3.4,0.5l0.7,2.5c0,0-3.8,0.8-5.8-0.3
		c-1.9-1.2-3.7-2.5-5.4-4L313.6,561.3z"/>
	<path class="st5" d="M409.7,532.4h35c3.4,0,6.1,2.7,6.1,6.1v40.8c0,3.4-2.7,6.1-6.1,6.1h-35c-3.4,0-6.1-2.7-6.1-6.1v-40.8
		C403.6,535.2,406.4,532.4,409.7,532.4z"/>
	<polygon class="st9" points="432.9,533.4 432.2,551.3 450.4,551 	"/>
	
		<rect x="439.7" y="520.9" transform="matrix(0.7071 -0.7071 0.7071 0.7071 -248.1716 473.9932)" class="st7" width="16.7" height="31.3"/>
	<rect x="415" y="544.9" class="st9" width="24.5" height="0.8"/>
	<rect x="415" y="551.9" class="st9" width="24.5" height="0.8"/>
	<rect x="415" y="559.8" class="st9" width="24.5" height="0.8"/>
	<rect x="415" y="567.6" class="st9" width="24.5" height="0.8"/>
	<rect x="415" y="575.2" class="st9" width="24.5" height="0.8"/>
	<path class="st7" d="M439.6,564.4l8.7,7c0.8,0.7,1,1.9,0.3,2.7l-1.4,1.8c-0.7,0.8-1.9,1-2.7,0.3l-8.7-7c-0.8-0.7-1-1.9-0.3-2.7
		l1.4-1.8C437.6,563.8,438.8,563.7,439.6,564.4z"/>
	<path class="st7" d="M463.3,555.9l-15.1,18.8c-0.8,1-2.2,1.1-3.2,0.3l-2.2-1.7c-1-0.8-1.1-2.2-0.3-3.2l15.1-18.8
		c0.8-1,2.2-1.1,3.2-0.3l2.2,1.7C464,553.5,464.1,554.9,463.3,555.9z"/>
	<path class="st4" d="M440,565.9l6.5,5.2c0.8,0.7,1,1.9,0.3,2.7l0,0c-0.7,0.8-1.9,1-2.7,0.3l-6.5-5.2c-0.8-0.7-1-1.9-0.3-2.7l0,0
		C437.9,565.3,439.1,565.2,440,565.9z"/>
	<path class="st5" d="M458.7,559.2l-11.4,14.1c-0.8,1-2.2,1.1-3.2,0.3l0,0c-1-0.8-1.1-2.2-0.3-3.2l11.4-14.1c0.8-1,2.2-1.1,3.2-0.3
		l0,0C459.3,556.8,459.4,558.2,458.7,559.2z"/>
	<path class="st4" d="M525.5,537.4h9.5c2.4,0,4.4,2,4.4,4.4v18.4c0,2.4-2,4.4-4.4,4.4h-9.5c-2.4,0-4.4-2-4.4-4.4v-18.4
		C521.1,539.4,523,537.4,525.5,537.4z"/>
	<path class="st5" d="M543.3,537.4H557c0.9,0,1.7,0.8,1.7,1.7v9c0,0.9-0.8,1.7-1.7,1.7h-13.7c-0.9,0-1.7-0.8-1.7-1.7v-9
		C541.6,538.2,542.3,537.4,543.3,537.4z"/>
	<path class="st9" d="M523.5,566.2h13.3c0.9,0,1.7,0.8,1.7,1.7v9c0,0.9-0.8,1.7-1.7,1.7h-13.3c-0.9,0-1.7-0.8-1.7-1.7v-9
		C521.8,567,522.6,566.2,523.5,566.2z"/>
	<path class="st9" d="M545.4,551.8h9.5c2.4,0,4.4,2,4.4,4.4v18.3c0,2.4-2,4.4-4.4,4.4h-9.5c-2.4,0-4.4-2-4.4-4.4v-18.3
		C541,553.8,543,551.8,545.4,551.8z"/>
	<path class="st5" d="M666.7,571.5h-21.9c-2,0-3.8-1.2-4.4-3.2c-0.1-0.4-0.2-0.7-0.2-1.1v-28.3c0.1-2.4,2.1-4.4,4.6-4.3h21.9
		c2.4-0.1,4.5,1.8,4.6,4.3v28.3C671.2,569.6,669.2,571.5,666.7,571.5z"/>
	<polygon class="st5" points="640.3,581 655.5,571.5 671.3,581.6 671.3,566.9 640.3,566.9 	"/>
	<circle class="st5" cx="770.8" cy="557" r="24.9"/>
	<circle class="st7" cx="770.8" cy="557.8" r="8.5"/>
	<rect x="768.6" y="530.8" class="st7" width="4.4" height="22.3"/>
	<rect x="776.9" y="555.3" class="st7" width="22.3" height="4.9"/>
	<path class="st20" d="M866.5,537.6h38.5c1.5,0,2.7,1.2,2.7,2.7v36.4c0,1.5-1.2,2.7-2.7,2.7h-38.5c-1.5,0-2.7-1.2-2.7-2.7v-36.4
		C863.9,538.8,865.1,537.6,866.5,537.6z"/>
	<path class="st5" d="M873.7,530.2h2c0.9,0,1.6,0.7,1.6,1.6v9.6c0,0.9-0.7,1.6-1.6,1.6h-2c-0.9,0-1.6-0.7-1.6-1.6v-9.6
		C872.1,530.9,872.8,530.2,873.7,530.2z"/>
	<path class="st5" d="M895.2,530.2h1.7c0.9,0,1.6,0.7,1.6,1.6v9.6c0,0.9-0.7,1.6-1.6,1.6h-1.7c-0.9,0-1.6-0.7-1.6-1.6v-9.6
		C893.6,530.9,894.3,530.2,895.2,530.2z"/>
	<rect x="871.2" y="549.1" class="st5" width="5.8" height="5.8"/>
	<rect x="871.2" y="557.6" class="st9" width="5.8" height="5.8"/>
	<rect x="871.2" y="566.1" class="st5" width="5.8" height="5.8"/>
	<rect x="882.8" y="549.1" class="st11" width="5.8" height="5.8"/>
	<rect x="882.8" y="557.6" class="st5" width="5.8" height="5.8"/>
	<rect x="882.8" y="566.1" class="st5" width="5.8" height="5.8"/>
	<rect x="893.6" y="549.1" class="st5" width="5.8" height="5.8"/>
	<rect x="893.6" y="557.6" class="st5" width="5.8" height="5.8"/>
	<rect x="893.6" y="566.1" class="st4" width="5.8" height="5.8"/>
	<path class="st7" d="M873.7,533.3L873.7,533.3c0.2,0,0.4,0.2,0.4,0.4v4.4c0,0.2-0.2,0.4-0.4,0.4l0,0c-0.2,0-0.4-0.2-0.4-0.4v-4.4
		C873.3,533.4,873.5,533.3,873.7,533.3z"/>
	<path class="st7" d="M894.9,533.3L894.9,533.3c0.2,0,0.4,0.2,0.4,0.4v4.4c0,0.2-0.2,0.4-0.4,0.4l0,0c-0.2,0-0.4-0.2-0.4-0.4v-4.4
		C894.5,533.4,894.7,533.3,894.9,533.3z"/>
	<ellipse class="st7" cx="873.7" cy="532.2" rx="0.4" ry="0.6"/>
	<ellipse class="st7" cx="894.9" cy="532.2" rx="0.4" ry="0.6"/>
	<rect x="774.6" y="531.2" class="st7" width="1.1" height="22.3"/>
	<rect x="777.3" y="561.4" class="st7" width="22.3" height="1.1"/>
	<path class="st7" d="M643,542.9L643,542.9c0.4,0,0.7,0.3,0.7,0.7v14.6c0,0.4-0.3,0.7-0.7,0.7h0c-0.4,0-0.7-0.3-0.7-0.7v-14.6
		C642.2,543.3,642.6,542.9,643,542.9z"/>
	<ellipse class="st7" cx="643" cy="540.2" rx="0.8" ry="1.1"/>
	<path class="st4" d="M289.6,259.5h39.6c0.3,0,0.5,0.2,0.5,0.5v2.3c0,0.3-0.2,0.5-0.5,0.5h-39.6c-0.3,0-0.5-0.2-0.5-0.5V260
		C289.1,259.7,289.3,259.5,289.6,259.5z"/>
	<path class="st5" d="M295,264.3h28.9c2.1,0,3.8,1.7,3.8,3.8v34c0,2.1-1.7,3.8-3.8,3.8H295c-2.1,0-3.8-1.7-3.8-3.8v-34
		C291.1,266,292.8,264.3,295,264.3z"/>
	<path class="st7" d="M309,274.6L309,274.6c0.5,0,0.9,0.4,0.9,0.9v19.8c0,0.5-0.4,0.9-0.9,0.9h0c-0.5,0-0.9-0.4-0.9-0.9v-19.8
		C308.1,275,308.5,274.6,309,274.6z"/>
	<path class="st7" d="M316.2,274.6L316.2,274.6c0.5,0,0.9,0.4,0.9,0.9v19.8c0,0.5-0.4,0.9-0.9,0.9h0c-0.5,0-0.9-0.4-0.9-0.9v-19.8
		C315.3,275,315.7,274.6,316.2,274.6z"/>
	<path class="st7" d="M301.9,274.6L301.9,274.6c0.5,0,0.9,0.4,0.9,0.9v19.8c0,0.5-0.4,0.9-0.9,0.9h0c-0.5,0-0.9-0.4-0.9-0.9v-19.8
		C301,275,301.4,274.6,301.9,274.6z"/>
	<path class="st5" d="M999.8,544l-14.3,24.8c-0.4,0.6-0.2,1.4,0.4,1.8c0.2,0.1,0.5,0.2,0.7,0.2h28.7c0.7,0,1.3-0.5,1.3-1.3
		c0-0.3-0.1-0.5-0.2-0.7L1002,544c-0.4-0.6-1.2-0.8-1.8-0.4C1000,543.7,999.9,543.8,999.8,544z"/>
	<path class="st5" d="M987.1,572.9h27.7c0.9,0,1.6,0.7,1.6,1.6v1.1c0,0.9-0.7,1.6-1.6,1.6h-27.7c-0.9,0-1.6-0.7-1.6-1.6v-1.1
		C985.5,573.6,986.2,572.9,987.1,572.9z"/>
	<path class="st7" d="M996.9,552.4L996.9,552.4c0.4,0.2,0.6,0.8,0.4,1.2l-5.6,10.6c-0.2,0.4-0.8,0.6-1.2,0.4l0,0
		c-0.4-0.2-0.6-0.8-0.4-1.2l5.6-10.6C996,552.4,996.5,552.2,996.9,552.4z"/>
	<ellipse transform="matrix(0.4983 -0.867 0.867 0.4983 27.8733 1141.3647)" class="st7" cx="1000.1" cy="546.6" rx="1.3" ry="1"/>
	<rect x="1094.6" y="538.5" class="st9" width="8.6" height="45"/>
	<rect x="1106.5" y="547" class="st5" width="8.6" height="36.5"/>
	<rect x="1118.6" y="556.3" class="st4" width="8.6" height="27.3"/>
	<rect x="1130.4" y="565.3" class="st11" width="8.6" height="18.2"/>
	<polyline class="st5" points="54.4,709 50.3,717.2 60.4,709 	"/>
	<ellipse class="st5" cx="68.9" cy="694.8" rx="24.9" ry="18.2"/>
	<circle class="st12" cx="68.3" cy="694.8" r="2"/>
	<circle class="st7" cx="60.7" cy="694.8" r="2"/>
	<circle class="st7" cx="75.5" cy="694.8" r="2"/>
	<circle class="st4" cx="193.8" cy="691.7" r="7.8"/>
	<path class="st4" d="M182.2,693.5h2.6c0,0,2,7.4,9.2,7.2s8.8-8.2,8.8-8.2h2.6l3.5,24.4h-30.2L182.2,693.5z"/>
	<rect x="308.7" y="678.2" class="st22" width="5.3" height="7.8"/>
	<rect x="324.7" y="696.6" class="st22" width="7.8" height="5.3"/>
	<rect x="289.7" y="696.6" class="st22" width="7.8" height="5.3"/>
	<rect x="308.3" y="711.3" class="st22" width="5.3" height="7.8"/>
	
		<rect x="319.3" y="684.1" transform="matrix(0.7071 -0.7071 0.7071 0.7071 -391.0005 429.6757)" class="st22" width="7.8" height="5.3"/>
	
		<rect x="295.7" y="708.7" transform="matrix(0.7071 -0.7071 0.7071 0.7071 -415.2515 420.1391)" class="st22" width="7.8" height="5.3"/>
	
		<rect x="320.5" y="707.4" transform="matrix(0.6409 -0.7676 0.7676 0.6409 -429.9379 503.4911)" class="st22" width="5.3" height="7.8"/>
	
		<rect x="296.4" y="683.4" transform="matrix(0.6409 -0.7676 0.7676 0.6409 -420.2079 476.3738)" class="st22" width="5.3" height="7.8"/>
	<path class="st22" d="M406.8,686.5h38.9c1.9,0,3.4,1.5,3.4,3.4V714c0,1.9-1.5,3.4-3.4,3.4h-38.9c-1.9,0-3.4-1.5-3.4-3.4v-24.1
		C403.4,688.1,404.9,686.5,406.8,686.5z"/>
	<path class="st9" d="M431.2,695.9l-8.3,12.4c-0.5,0.8-0.3,1.8,0.5,2.4c0.3,0.2,0.6,0.3,0.9,0.3h16.5c0.9,0,1.7-0.8,1.7-1.7
		c0-0.3-0.1-0.7-0.3-0.9l-8.3-12.4c-0.5-0.8-1.6-1-2.4-0.5C431.5,695.6,431.3,695.7,431.2,695.9z"/>
	
		<rect x="422.4" y="705.9" transform="matrix(0.8319 -0.555 0.555 0.8319 -322.6622 355.0045)" class="st22" width="4.4" height="8.2"/>
	<path class="st7" d="M417.1,702.1l-4.1,6.2c-0.5,0.8-0.3,1.8,0.5,2.4c0.3,0.2,0.6,0.3,0.9,0.3h8.2c0.9,0,1.7-0.8,1.7-1.7
		c0-0.3-0.1-0.7-0.3-0.9l-4.1-6.2c-0.5-0.8-1.5-1-2.3-0.5C417.4,701.7,417.2,701.9,417.1,702.1z"/>
	<circle class="st7" cx="413.2" cy="695.6" r="2"/>
	<circle class="st20" cx="311.1" cy="699.3" r="13.6"/>
	<circle class="st9" cx="539" cy="699.6" r="10.4"/>
	<path class="st22" d="M539,677.9h0.6c0.6,0,1,0.4,1,1v6.2c0,0.6-0.4,1-1,1H539c-0.6,0-1-0.4-1-1v-6.2
		C538,678.4,538.4,677.9,539,677.9z"/>
	<path class="st22" d="M538.7,712.2h0.7c0.6,0,1,0.4,1,1v6.2c0,0.6-0.4,1-1,1h-0.7c-0.6,0-1-0.4-1-1v-6.2
		C537.7,712.6,538.1,712.2,538.7,712.2z"/>
	<path class="st22" d="M560.2,700.3v0.6c0,0.6-0.4,1-1,1H553c-0.6,0-1-0.4-1-1v-0.6c0-0.6,0.4-1,1-1h6.2
		C559.7,699.3,560.2,699.8,560.2,700.3z"/>
	<path class="st22" d="M517.5,700.5v-0.6c0-0.6,0.4-1,1-1h6.2c0.6,0,1,0.4,1,1v0.6c0,0.6-0.4,1-1,1h-6.2
		C517.9,701.5,517.5,701,517.5,700.5z"/>
	<path class="st22" d="M555.1,685l0.4,0.5c0.4,0.4,0.3,1.1-0.1,1.4l-4.7,4c-0.4,0.4-1.1,0.3-1.4-0.1l-0.4-0.5
		c-0.4-0.4-0.3-1.1,0.1-1.4l4.7-4C554.1,684.5,554.7,684.5,555.1,685z"/>
	<path class="st22" d="M529.8,709.5l0.4,0.4c0.4,0.4,0.3,1.1-0.1,1.4l-4.7,4c-0.4,0.4-1.1,0.3-1.4-0.1l-0.4-0.4
		c-0.4-0.4-0.3-1.1,0.1-1.4l4.7-4C528.8,709,529.5,709,529.8,709.5z"/>
	<path class="st22" d="M523.7,684.9l0.4-0.3c0.4-0.4,1.1-0.3,1.4,0.1l4,4.7c0.4,0.4,0.3,1.1-0.1,1.4l-0.4,0.3
		c-0.4,0.4-1.1,0.3-1.4-0.1l-4-4.7C523.3,685.8,523.3,685.2,523.7,684.9z"/>
	<path class="st22" d="M549.7,709.9l0.3-0.3c0.4-0.4,1.1-0.3,1.4,0.1l4,4.7c0.4,0.4,0.3,1.1-0.1,1.4l-0.3,0.3
		c-0.4,0.4-1.1,0.3-1.4-0.1l-4-4.7C549.3,710.9,549.3,710.3,549.7,709.9z"/>
	<path class="st22" d="M636.3,688h35.1c1.4,0,2.5,1.1,2.5,2.5v0.2c0,1.4-1.1,2.5-2.5,2.5h-35.1c-1.4,0-2.5-1.1-2.5-2.5v-0.2
		C633.8,689.1,634.9,688,636.3,688z"/>
	<path class="st9" d="M636.3,698.6h35.1c1.4,0,2.5,1.1,2.5,2.5v0.2c0,1.4-1.1,2.5-2.5,2.5h-35.1c-1.4,0-2.5-1.1-2.5-2.5v-0.2
		C633.8,699.7,634.9,698.6,636.3,698.6z"/>
	<path class="st11" d="M636.3,709.7h35.1c1.4,0,2.5,1.1,2.5,2.5v0.2c0,1.4-1.1,2.5-2.5,2.5h-35.1c-1.4,0-2.5-1.1-2.5-2.5v-0.2
		C633.8,710.8,634.9,709.7,636.3,709.7z"/>
	<path class="st22" d="M765.9,688.8l14.4,12c1.1,0.9,1.2,2.5,0.3,3.6l-0.1,0.1c-0.9,1.1-2.5,1.2-3.6,0.3l-14.4-12
		c-1.1-0.9-1.2-2.5-0.3-3.6l0.1-0.1C763.2,688.1,764.8,687.9,765.9,688.8z"/>
	<path class="st22" d="M761.2,710.9l16.6-10.2c1-0.6,2.4-0.3,3,0.7l0.3,0.6c0.6,1,0.3,2.4-0.7,3l-16.6,10.2c-1,0.6-2.4,0.3-3-0.7
		l-0.3-0.6C759.8,712.9,760.1,711.5,761.2,710.9z"/>
	<circle class="st22" cx="883" cy="698" r="22.5"/>
	<rect x="850.7" y="691.5" class="st7" width="67.1" height="16.7"/>
	<text transform="matrix(1 0 0 1 860.96 705.7)" class="st9 st23 st24">WWW</text>
	<path class="st22" d="M977.1,679h46.1c2.5,0,4.4,2,4.4,4.4v27.4c0,2.5-2,4.4-4.4,4.4h-46.1c-2.5,0-4.4-2-4.4-4.4v-27.4
		C972.7,681,974.6,679,977.1,679z"/>
	<path class="st10" d="M981.5,681.9h37.3c2.5,0,4.4,2,4.4,4.4V708c0,2.5-2,4.4-4.4,4.4h-37.3c-2.5,0-4.4-2-4.4-4.4v-21.6
		C977,683.9,979,681.9,981.5,681.9z"/>
	<polygon class="st7" points="1023.2,704.8 1016.8,712.4 1013.3,712.4 1023.2,700.9 	"/>
	<polygon class="st7" points="1010.6,712.4 1023.2,697.5 1023.2,694.4 1007.2,712.4 	"/>
	<rect x="999" y="715.2" class="st22" width="3.5" height="4.1"/>
	<path class="st22" d="M992.1,719.3h17.4c0.7,0,1.3,0.6,1.3,1.3v2.5c0,0.7-0.6,1.3-1.3,1.3h-17.4c-0.7,0-1.3-0.6-1.3-1.3v-2.5
		C990.8,719.9,991.4,719.3,992.1,719.3z"/>
	<ellipse class="st22" cx="1115.2" cy="700.9" rx="22.8" ry="22.2"/>
	<ellipse class="st9" cx="1108.8" cy="696.8" rx="2" ry="4.1"/>
	<ellipse class="st9" cx="1121.1" cy="696.8" rx="2" ry="4.1"/>
	<path class="st25" d="M1103.8,705.3c0,0,4.4,6.5,11,6.5s11.8-6.5,11.8-6.5"/>
</g>
<g id="レイヤー_4">
	<path class="st4" d="M393.7,156.4c0,0,10.1,1.9,16-2c-0.3,1-0.9,1.8-1.6,2.5c-0.8,0.7-1.7,1.3-2.7,1.8c-1.6,0.7-3.2,1-4.9,1
		c-1.4,0-2.8-0.3-4-0.9c-0.7-0.4-1.4-0.9-2-1.4C394.2,157.1,393.9,156.8,393.7,156.4z"/>
	<path class="st4" d="M432.2,156.4c0,0,10.1,1.9,16-2c-0.3,1-0.9,1.8-1.6,2.5c-0.8,0.7-1.7,1.3-2.7,1.8c-1.6,0.7-3.2,1-4.9,1
		c-1.4,0-2.7-0.3-4-0.9c-0.7-0.4-1.4-0.8-2-1.4C432.6,157.1,432.4,156.8,432.2,156.4z"/>
	<ellipse transform="matrix(0.913 -0.408 0.408 0.913 -26.8787 175.4421)" class="st7" cx="397.8" cy="150.7" rx="2.1" ry="1"/>
	<ellipse transform="matrix(0.5 -0.866 0.866 0.5 65.2819 418.7491)" class="st7" cx="395.3" cy="152.8" rx="0.7" ry="0.6"/>
	<ellipse transform="matrix(0.913 -0.408 0.408 0.913 -23.5329 191.3323)" class="st7" cx="436.8" cy="150.8" rx="2.1" ry="1"/>
	<ellipse transform="matrix(0.5 -0.866 0.866 0.5 84.6485 452.4991)" class="st7" cx="434.2" cy="152.9" rx="0.7" ry="0.6"/>
	<path class="st9" d="M448.1,151c-0.3-0.6-0.7-1.2-1.2-1.6c-0.5-0.5-1.2-0.8-1.8-1.1v-0.1c0.9,0.1,1.7,0.3,2.5,0.7
		c0.3,0.2,0.5,0.4,0.6,0.7V151z"/>
</g>
</svg>
