<?xml version="1.0" encoding="utf-8"?>
<!-- Generator: Adobe Illustrator 25.2.1, SVG Export Plug-In . SVG Version: 6.00 Build 0)  -->
<svg version="1.1" id="レイヤー_1" xmlns="http://www.w3.org/2000/svg" xmlns:xlink="http://www.w3.org/1999/xlink" x="0px"
	 y="0px" viewBox="0 0 1190.6 841.9" style="enable-background:new 0 0 1190.6 841.9;" xml:space="preserve">
<style type="text/css">
	.st0{opacity:0.5;fill:#FFFFFF;enable-background:new    ;}
	.st1{fill:none;stroke:#CCCCCC;stroke-miterlimit:10;}
	.st2{font-family:'KozGoPro-Regular-83pv-RKSJ-H';}
	.st3{font-size:12px;}
	.st4{letter-spacing:3;}
	.st5{fill:#050404;stroke:#050404;stroke-miterlimit:10;}
	.st6{fill:#FFFFFF;stroke:#050404;stroke-miterlimit:10;}
	.st7{fill:#1C3560;stroke:#050404;stroke-miterlimit:10;}
	.st8{fill:#FFFFFF;}
	.st9{fill:#050404;}
	.st10{fill:#1C3560;}
	.st11{fill:#1B325C;stroke:#060405;stroke-miterlimit:10;}
	.st12{fill:#FFFFFF;stroke:#060405;stroke-miterlimit:10;}
	.st13{fill:#060405;}
	.st14{fill:#1B325C;}
	.st15{fill:#192F58;stroke:#060405;stroke-miterlimit:10;}
	.st16{fill:#192F58;}
	.st17{fill:#FFFFFF;stroke:#050404;stroke-width:6;stroke-miterlimit:10;}
	.st18{fill:#FFFFFF;stroke:#FFFFFF;stroke-miterlimit:10;}
	.st19{fill:#51474C;stroke:#060405;stroke-miterlimit:10;}
	.st20{fill:#372D32;stroke:#060405;stroke-miterlimit:10;}
	.st21{fill:#F33815;}
	.st22{font-size:12.33px;}
	.st23{font-size:6.96px;}
	.st24{fill:#FFFFFF;stroke:#050404;stroke-width:2;stroke-miterlimit:10;}
	.st25{fill:none;stroke:#050404;stroke-miterlimit:10;}
	.st26{fill:#E03515;}
	.st27{font-size:12.71px;}
	.st28{fill:#5F7FAC;stroke:#050404;stroke-miterlimit:10;}
	.st29{fill:#FFFFFF;stroke:#050404;stroke-width:0.75;stroke-miterlimit:10;}
	.st30{fill:#EFF882;stroke:#050404;stroke-miterlimit:10;}
	.st31{fill:#F6589E;stroke:#050404;stroke-miterlimit:10;}
	.st32{stroke:#050404;stroke-miterlimit:10;}
	.st33{fill:none;stroke:#FFFFFF;stroke-miterlimit:10;}
	.st34{fill:#FFFFFF;stroke:#050404;stroke-width:1.5;stroke-miterlimit:10;}
	.st35{fill:#050404;stroke:#FFFFFF;stroke-miterlimit:10;}
	.st36{fill:#A7A19C;stroke:#060405;stroke-miterlimit:10;}
	.st37{fill:#FFFFFF;stroke:#060405;stroke-width:0.75;stroke-miterlimit:10;}
	.st38{fill:#EFF886;}
	.st39{fill:#050404;stroke:#060405;stroke-miterlimit:10;}
	.st40{fill:#E7ED80;stroke:#060405;stroke-miterlimit:10;}
	.st41{fill:none;stroke:#050404;stroke-width:2;stroke-miterlimit:10;}
	.st42{font-size:35.96px;}
	.st43{fill:none;stroke:#000000;stroke-width:2;stroke-miterlimit:10;}
	.st44{font-size:23.92px;}
	.st45{fill:#050404;stroke:#050404;stroke-width:1.0032;stroke-miterlimit:10.0319;}
	.st46{fill:#8A8281;stroke:#050404;stroke-miterlimit:10;}
	.st47{fill:#C3BFB9;stroke:#050404;stroke-miterlimit:10;}
	.st48{fill:#1F191C;}
	.st49{fill:#A7A19C;stroke:#050404;stroke-miterlimit:10;}
	.st50{fill:#FFFFFF;stroke:#050404;stroke-width:0.25;stroke-miterlimit:10;}
	.st51{font-size:28.9858px;}
	.st52{fill:#FFFFFF;stroke:#050404;stroke-width:1;stroke-miterlimit:10;}
</style>
<g id="レイヤー_7">
	<rect y="0" class="st0" width="1190.6" height="841.9"/>
</g>
<rect x="28.8" y="87.3" class="st1" width="100" height="100"/>
<rect x="143.8" y="87.3" class="st1" width="100" height="100"/>
<rect x="258.8" y="87.3" class="st1" width="100" height="100"/>
<rect x="373.8" y="87.3" class="st1" width="100" height="100"/>
<rect x="488.8" y="87.3" class="st1" width="100" height="100"/>
<rect x="603.8" y="87.3" class="st1" width="100" height="100"/>
<rect x="718.8" y="87.3" class="st1" width="100" height="100"/>
<rect x="833.8" y="87.3" class="st1" width="100" height="100"/>
<rect x="948.8" y="87.3" class="st1" width="100" height="100"/>
<rect x="1063.8" y="87.3" class="st1" width="100" height="100"/>
<rect x="28.8" y="228.1" class="st1" width="100" height="100"/>
<rect x="143.8" y="228.1" class="st1" width="100" height="100"/>
<rect x="258.8" y="228.1" class="st1" width="100" height="100"/>
<rect x="373.8" y="228.1" class="st1" width="100" height="100"/>
<rect x="488.8" y="228.1" class="st1" width="100" height="100"/>
<rect x="603.8" y="228.1" class="st1" width="100" height="100"/>
<rect x="718.8" y="228.1" class="st1" width="100" height="100"/>
<rect x="833.8" y="228.1" class="st1" width="100" height="100"/>
<rect x="948.8" y="228.1" class="st1" width="100" height="100"/>
<rect x="1063.8" y="228.1" class="st1" width="100" height="100"/>
<rect x="28.8" y="368.8" class="st1" width="100" height="100"/>
<rect x="143.8" y="368.8" class="st1" width="100" height="100"/>
<rect x="258.8" y="368.8" class="st1" width="100" height="100"/>
<rect x="373.8" y="368.8" class="st1" width="100" height="100"/>
<rect x="488.8" y="368.8" class="st1" width="100" height="100"/>
<rect x="603.8" y="368.8" class="st1" width="100" height="100"/>
<rect x="718.8" y="368.8" class="st1" width="100" height="100"/>
<rect x="833.8" y="368.8" class="st1" width="100" height="100"/>
<rect x="948.8" y="368.8" class="st1" width="100" height="100"/>
<rect x="1063.8" y="368.8" class="st1" width="100" height="100"/>
<rect x="28.8" y="509.6" class="st1" width="100" height="100"/>
<rect x="143.8" y="509.6" class="st1" width="100" height="100"/>
<rect x="258.8" y="509.6" class="st1" width="100" height="100"/>
<rect x="373.8" y="509.6" class="st1" width="100" height="100"/>
<rect x="488.8" y="509.6" class="st1" width="100" height="100"/>
<rect x="603.8" y="509.6" class="st1" width="100" height="100"/>
<rect x="718.8" y="509.6" class="st1" width="100" height="100"/>
<rect x="833.8" y="509.6" class="st1" width="100" height="100"/>
<rect x="948.8" y="509.6" class="st1" width="100" height="100"/>
<rect x="1063.8" y="509.6" class="st1" width="100" height="100"/>
<rect x="28.8" y="650.4" class="st1" width="100" height="100"/>
<rect x="143.8" y="650.4" class="st1" width="100" height="100"/>
<rect x="258.8" y="650.4" class="st1" width="100" height="100"/>
<rect x="373.8" y="650.4" class="st1" width="100" height="100"/>
<rect x="488.8" y="650.4" class="st1" width="100" height="100"/>
<rect x="603.8" y="650.4" class="st1" width="100" height="100"/>
<rect x="718.8" y="650.4" class="st1" width="100" height="100"/>
<rect x="833.8" y="650.4" class="st1" width="100" height="100"/>
<rect x="948.8" y="650.4" class="st1" width="100" height="100"/>
<rect x="1063.8" y="650.4" class="st1" width="100" height="100"/>
<g id="アイコン名">
	<text transform="matrix(1 0 0 1 66.83 213.41)" class="st2 st3">爆発</text>
	<text transform="matrix(1 0 0 1 176.16 213.41)" class="st2 st3">心電図</text>
	<text transform="matrix(1 0 0 1 291.5 213.41)" class="st2 st3">テレビ</text>
	<text transform="matrix(1 0 0 1 406.83 213.41)" class="st2 st3">ゲーム</text>
	<text transform="matrix(1 0 0 1 534.16 213.41)" class="st2 st3">雷</text>
	<text transform="matrix(1 0 0 1 619.5 213.41)" class="st2 st3">ダウンロード</text>
	<text transform="matrix(1 0 0 1 758.83 213.41)" class="st2 st3">時計</text>
	<text transform="matrix(1 0 0 1 868.16 213.41)" class="st2 st3">メール</text>
	<text transform="matrix(1 0 0 1 983.5 213.41)" class="st2 st3">カメラ</text>
	<text transform="matrix(1 0 0 1 1098.83 213.41)" class="st2 st3">スター</text>
	<text transform="matrix(1 0 0 1 60.83 351.9)" class="st2 st3">スマホ</text>
	<text transform="matrix(1 0 0 1 182.16 351.9)" class="st2 st3">再生</text>
	<text transform="matrix(1 0 0 1 291.5 351.9)" class="st2 st3">虫眼鏡</text>
	<text transform="matrix(1 0 0 1 412.83 351.9)" class="st2 st3">お金</text>
	<text transform="matrix(1 0 0 1 528.16 351.9)" class="st2 st3">電波</text>
	<text transform="matrix(1 0 0 1 643.5 351.9)" class="st2 st3">写真</text>
	<text transform="matrix(1 0 0 1 752.83 351.9)" class="st2 st3">レンチ</text>
	<text transform="matrix(1 0 0 1 862.16 351.9)" class="st2 st3">ストップ</text>
	<text transform="matrix(1 0 0 1 977.5 351.9)" class="st2 st3">タイマー</text>
	<text transform="matrix(1 0 0 1 1104.83 351.9)" class="st2 st3">献血</text>
	<text transform="matrix(1 0 0 1 49.44 492.39)" class="st2 st3">SI</text>
	<text transform="matrix(1 0 0 1 58.81 492.39)" class="st2 st3 st4">M</text>
	<text transform="matrix(1 0 0 1 72.23 492.39)" class="st2 st3">カード</text>
	<text transform="matrix(1 0 0 1 176.16 492.39)" class="st2 st3">ハート</text>
	<text transform="matrix(1 0 0 1 285.5 492.39)" class="st2 st3">飲みのも</text>
	<text transform="matrix(1 0 0 1 406.83 492.39)" class="st2 st3">飛ばし</text>
	<text transform="matrix(1 0 0 1 516.16 492.39)" class="st2 st3">ファイル</text>
	<text transform="matrix(1 0 0 1 643.5 492.39)" class="st2 st3">ペン</text>
	<text transform="matrix(1 0 0 1 746.83 492.39)" class="st2 st3">ミュート</text>
	<text transform="matrix(1 0 0 1 874.16 492.39)" class="st2 st3">メモ</text>
	<text transform="matrix(1 0 0 1 983.5 492.39)" class="st2 st3">マウス</text>
	<text transform="matrix(1 0 0 1 1098.83 492.39)" class="st2 st3">電話帳</text>
	<text transform="matrix(1 0 0 1 54.83 630.89)" class="st2 st3">フラッグ</text>
	<text transform="matrix(1 0 0 1 182.16 630.89)" class="st2 st3">野球</text>
	<text transform="matrix(1 0 0 1 285.5 630.89)" class="st2 st3">ラーメン</text>
	<text transform="matrix(1 0 0 1 418.83 630.89)" class="st2 st3">雲</text>
	<text transform="matrix(1 0 0 1 528.16 630.89)" class="st2 st3">あめ</text>
	<text transform="matrix(1 0 0 1 647.5 630.89)" class="st2 st3">CD</text>
	<text transform="matrix(1 0 0 1 740.83 630.89)" class="st2 st3">リサイクル</text>
	<text transform="matrix(1 0 0 1 868.16 630.89)" class="st2 st3">ロック</text>
	<text transform="matrix(1 0 0 1 977.5 630.89)" class="st2 st3">マーカー</text>
	<text transform="matrix(1 0 0 1 1086.83 630.89)" class="st2 st3">サングラス</text>
	<text transform="matrix(1 0 0 1 66.83 773.38)" class="st2 st3">くつ</text>
	<text transform="matrix(1 0 0 1 164.16 773.38)" class="st2 st3">交通カード</text>
	<text transform="matrix(1 0 0 1 297.5 773.38)" class="st2 st3">電車</text>
	<text transform="matrix(1 0 0 1 406.83 773.38)" class="st2 st3">角砂糖</text>
	<text transform="matrix(1 0 0 1 528.16 773.38)" class="st2 st3">求人</text>
	<text transform="matrix(1 0 0 1 649.5 773.38)" class="st2 st3">家</text>
	<text transform="matrix(1 0 0 1 758.83 773.38)" class="st2 st3">切断</text>
	<text transform="matrix(1 0 0 1 868.16 773.38)" class="st2 st3">ライト</text>
	<text transform="matrix(1 0 0 1 965.5 773.38)" class="st2 st3">ファッション</text>
	<text transform="matrix(1 0 0 1 1104.83 773.38)" class="st2 st3">はな</text>
</g>
<g id="レイヤー_1_1_">
	<polygon class="st5" points="88.5,146.2 82.8,129 95.7,141.1 95.6,119.2 103.8,137.6 110.7,119.1 111.1,135.9 126.8,130.5 
		114.4,140.1 121.6,149.6 112.5,148.8 116.7,166.6 107.9,156.1 106.5,168.3 100.2,160.3 90.4,176.1 87.8,164.9 93.2,156.3 
		71.2,165.4 79.6,156.4 69,149 86.6,148.3 	"/>
	<path class="st6" d="M233.2,179.9h-39.9c-0.9,0-1.5-0.7-1.5-1.5v-31.7c0-0.9,0.7-1.5,1.5-1.5h39.9c0.9,0,1.5,0.7,1.5,1.5v31.7
		C234.7,179.2,234.1,179.9,233.2,179.9z"/>
	<path class="st6" d="M87.5,564.7l-9,23.6l4.3-0.5l6.9-18.5c0.4-1.2,1.7-1.8,2.8-1.4c0.2,0.1,0.5,0.2,0.7,0.4
		c0.8,0.7,1.8,1.2,2.9,1.4c4,0.8,11.1,0.1,6.7,1.3c-2.9,0.8,11.5,8.6,8.8,4.5c-2.1-3.2,1.9-2.4,3.7-4.8s0,0,4-6.1
		c0.8-1.2,0.3-3.5,0.3-5.3c0-1.2-0.9-2.2-2.1-2.2c-0.2,0-0.4,0-0.6,0.1c-1,0.2,2.9-2.2-1.7-0.3c-1.3,0.5-2.1-1.8-4.9-2.4
		s-10.2-1.9-9.9-2c4.6-0.5-0.6-0.7-1.3-1.2c-0.4-0.4-1-0.5-1.6-0.5c-1.1,0.1-2.8,0.1-3.4-1c-0.6-0.7-1.5-1.1-2.4-1
		c-1.1-0.1-2.2,0.8-2.3,1.9l-1.8,13.5C87.6,564.3,87.6,564.5,87.5,564.7z"/>
	<ellipse transform="matrix(0.4145 -0.91 0.91 0.4145 -515.7545 406.9394)" class="st7" cx="58.4" cy="604.3" rx="2.7" ry="6.1"/>
	<ellipse transform="matrix(0.4145 -0.91 0.91 0.4145 -504.8945 414.2997)" class="st7" cx="69.5" cy="599.5" rx="2.7" ry="6.1"/>
	<path class="st7" d="M74.8,560.3c0.7,2.2,6.8,21.1,1.3,32.4c-6.4,13.2-21.5,11.7-23,8.4c0-0.1-0.1-0.1-0.2-0.1c0,0,0,0,0,0
		c-3.5,1.9-13.3,2.1-16-1.3c-0.1-0.1-0.1-0.2,0-0.2c2.4-4.1,9.5-7.8,11.6-22.3c0.3-8.2,8.1-16.3,7.4-15.6s-10.2-15.6,7.5-18.3
		c10.8-1.4,12.6,8.4,12.8,8.8c0,0,0.1,0.1,0.1,0.1l3.7,1.2c0.1,0,0.2,0.1,0.1,0.2c0,0,0,0.1-0.1,0.1l-3.1,3.1c0,0.1,0,0.1,0,0.2
		C77,557.4,74.7,560.2,74.8,560.3z"/>
	<path class="st6" d="M77,571.9c0,0,4.9,22.1-8,27.9S52.8,600,52.8,600C53.8,597.9,72.6,553.7,77,571.9z"/>
	<ellipse class="st8" cx="64.5" cy="555.4" rx="11.6" ry="8.8"/>
	<circle class="st9" cx="66.5" cy="552" r="1.4"/>
	<path class="st10" d="M75.9,556.7l-1.9,1.4c0,0-5.7-2.2-2.7-4.1c1.4-0.9-0.1-7.2-6.8-6.8c-2.7,0.2-10.9,4.1-1.4,13.6
		c-1.4,1.4-10.9,2.7-10.6-8.1c0.1-4.2,1.2-8.4,12.7-9.7c7.2-0.2,8.8,4.2,10.8,8.9c4.7,1.3,3.8,1.3,3.8,1.3l0,0
		C78.7,554.6,77.4,555.8,75.9,556.7z"/>
	<path class="st7" d="M65.3,569.9L65.3,569.9c-1.2,4.2,6.3,11.7,18.4,12.6c4.7,0.4,6.6,5.5-4.5,7.5c-4.6,0.9-18.2-9.1-18.4-13.5
		l-0.1-0.4"/>
	<path class="st6" d="M424.1,592.8l36.4,4.8c0,0,13.5-5,11-17.4s-11.3-11.9-18.4-3.8c-3.2,3.6,6.4-12.3,4.6-16.8s-12.5-7.4-17.9-5.2
		s-9.3,10.3-9.5,16.4c-0.2,6.6-1.2-16.5-12.1-5.8S413.7,590.1,424.1,592.8z"/>
	<ellipse transform="matrix(0.4007 -0.9162 0.9162 0.4007 -313.6998 728.4529)" class="st11" cx="400" cy="604" rx="3" ry="7"/>
	<ellipse transform="matrix(0.4007 -0.9162 0.9162 0.4007 -301.1732 736.9907)" class="st11" cx="412.7" cy="598.7" rx="3" ry="7"/>
	<path class="st11" d="M418.8,554.9c0.8,2.4,7.8,23.5,1.5,36.2c-7.4,14.8-24.7,13-26.4,9.3c0-0.1-0.2-0.2-0.3-0.1c0,0,0,0,0,0
		c-4.1,2.1-15.2,2.3-18.4-1.5c-0.1-0.1-0.1-0.2,0-0.3c2.7-4.6,10.9-8.7,13.3-24.9c0.4-9.2,9.2-18.2,8.5-17.5s-11.7-17.5,8.6-20.5
		c12.5-1.5,14.5,9.3,14.8,9.8c0,0,0.1,0.1,0.1,0.1l4.2,1.4c0.1,0,0.2,0.1,0.2,0.3c0,0,0,0.1-0.1,0.1l-3.5,3.4
		c-0.1,0.1-0.1,0.2,0,0.2C421.3,551.6,418.7,554.8,418.8,554.9z"/>
	<path class="st12" d="M421.3,567.8c0,0,5.6,24.6-9.2,31.1s-18.6,0.3-18.6,0.3C394.8,596.8,416.3,547.5,421.3,567.8z"/>
	<ellipse class="st8" cx="407" cy="549.4" rx="13.3" ry="9.9"/>
	<ellipse class="st13" cx="409.3" cy="545.6" rx="1.6" ry="1.5"/>
	<path class="st14" d="M420,550.8l-2.1,1.6c0,0-6.5-2.4-3.1-4.5c1.6-1-0.2-8-7.8-7.6c-3.1,0.2-12.5,4.5-1.6,15.2
		c-1.6,1.5-12.5,3-12.2-9.1c0.1-4.7,1.4-9.4,14.6-10.8c8.3-0.2,10.1,4.7,12.4,9.9c5.4,1.5,4.4,1.5,4.4,1.5l0,0
		C423.3,548.5,421.7,549.8,420,550.8z"/>
	<path class="st11" d="M407.9,565.6L407.9,565.6c-1.4,4.7,7.2,13,21.1,14.1c5.4,0.4,7.6,6.1-5.2,8.4c-5.3,1-20.9-10.1-21.1-15.1
		l-0.1-0.5"/>
	<path class="st8" d="M676.9,587.9c-2.8,0-5.1-2.3-5.1-5.1c0-2.8,2.3-5.1,5.1-5.1c2.8,0,5.1,2.3,5.1,5.1
		C682.1,585.6,679.8,587.9,676.9,587.9z"/>
	<path class="st9" d="M676.9,580.2c1.5,0,2.6,1.2,2.6,2.6c0,1.5-1.2,2.6-2.6,2.6c-1.5,0-2.6-1.2-2.6-2.6c0,0,0,0,0,0
		C674.3,581.3,675.5,580.2,676.9,580.2 M676.9,575.2c-4.2,0-7.6,3.4-7.6,7.6c0,4.2,3.4,7.6,7.6,7.6c4.2,0,7.6-3.4,7.6-7.6
		c0,0,0,0,0,0C684.6,578.6,681.2,575.2,676.9,575.2z"/>
	<path class="st9" d="M676.9,573.8c5,0,9,4,9,9s-4,9-9,9s-9-4-9-9S672,573.8,676.9,573.8 M676.9,561.8c-11.6,0-21,9.4-21,21
		s9.4,21,21,21s21-9.4,21-21S688.5,561.8,676.9,561.8L676.9,561.8z"/>
	<ellipse transform="matrix(0.4007 -0.9162 0.9162 0.4007 -176.2525 941.4653)" class="st15" cx="631.5" cy="605.5" rx="3" ry="7"/>
	<ellipse transform="matrix(0.4007 -0.9162 0.9162 0.4007 -163.72 950.0124)" class="st15" cx="644.3" cy="600.1" rx="3" ry="7"/>
	<path class="st15" d="M650.3,556.4c0.8,2.4,7.8,23.5,1.5,36.2c-7.3,14.8-24.7,13-26.4,9.3c0-0.1-0.1-0.2-0.2-0.1c0,0,0,0-0.1,0
		c-4,2.1-15.2,2.3-18.4-1.5c-0.1-0.1-0.1-0.2,0-0.3c2.8-4.6,10.9-8.7,13.3-24.9c0.4-9.2,9.2-18.2,8.5-17.5s-11.7-17.5,8.6-20.5
		c12.5-1.5,14.5,9.3,14.8,9.8c0,0,0.1,0.1,0.1,0.1l4.2,1.4c0.1,0,0.2,0.2,0.1,0.3c0,0,0,0.1-0.1,0.1l-3.5,3.4
		c-0.1,0.1-0.1,0.2-0.1,0.2C652.9,553,650.3,556.2,650.3,556.4z"/>
	<path class="st12" d="M652.9,569.3c0,0,5.6,24.6-9.2,31.1s-18.6,0.3-18.6,0.3C626.3,598.2,647.8,548.9,652.9,569.3z"/>
	<ellipse class="st8" cx="638.5" cy="550.8" rx="13.3" ry="9.9"/>
	<ellipse class="st13" cx="640.9" cy="547" rx="1.6" ry="1.5"/>
	<path class="st16" d="M651.6,552.3l-2.1,1.6c0,0-6.5-2.4-3.1-4.5c1.6-1-0.2-8-7.8-7.6c-3.1,0.2-12.5,4.5-1.6,15.2
		c-1.6,1.5-12.5,3-12.2-9.1c0.1-4.7,1.4-9.4,14.6-10.8c8.3-0.2,10.1,4.7,12.4,9.9c5.4,1.5,4.4,1.5,4.4,1.5l0,0
		C654.9,550,653.3,551.3,651.6,552.3z"/>
	<path class="st15" d="M639.5,567L639.5,567c-1.4,4.7,7.2,13.1,21.1,14.1c5.4,0.4,7.6,6.1-5.2,8.4c-5.3,1-20.9-10.1-21.1-15.1
		l-0.1-0.5"/>
	<path class="st5" d="M1018.3,593.5c0.6,0.1,1,0.6,1.2,1.2c5.5,14.6,2,14.6,7.3,0.3c0.2-0.7,0.6-1.3,1.3-1.3c2.9-0.1,10-1.5,10-11.2
		c0-12.3-10.9-12.6-12.6-12.6s-14.5-1.1-14.6,9.6C1010.8,589,1011.5,592.5,1018.3,593.5z"/>
	<path class="st17" d="M1039,578.3c0,8.7-6.3,15.7-14.9,15.7c-8.6,0-15.7-7-15.7-15.7c0-8.6,7-17.1,15.7-17.1
		C1032.7,561.2,1039,569.6,1039,578.3z"/>
	
		<ellipse transform="matrix(0.4007 -0.9162 0.9162 0.4007 38.6198 1254.4454)" class="st15" cx="978.2" cy="597.7" rx="3.3" ry="7.6"/>
	
		<ellipse transform="matrix(0.4007 -0.9162 0.9162 0.4007 52.2347 1263.7227)" class="st15" cx="992.1" cy="591.9" rx="3.3" ry="7.6"/>
	<path class="st15" d="M998.6,544.4c0.9,2.6,8.5,25.5,1.6,39.3c-8,16-26.8,14.2-28.7,10.1c0-0.1-0.2-0.2-0.3-0.1c0,0,0,0,0,0
		c-4.4,2.3-16.5,2.5-20-1.6c-0.1-0.1-0.1-0.2,0-0.3c3-5,11.8-9.4,14.4-27c0.4-10,10-19.8,9.2-19s-12.7-19,9.3-22.3
		c13.6-1.7,15.8,10.2,16.1,10.6c0,0.1,0.1,0.1,0.1,0.1l4.6,1.5c0.1,0,0.2,0.2,0.2,0.3c0,0,0,0.1-0.1,0.1l-3.8,3.7
		c-0.1,0.1-0.1,0.2-0.1,0.3C1001.4,540.8,998.6,544.2,998.6,544.4z"/>
	<path class="st12" d="M1001.4,558.4c0,0,6.1,26.8-10,33.8s-20.2,0.3-20.2,0.3C972.5,589.9,995.9,536.3,1001.4,558.4z"/>
	<ellipse class="st8" cx="985.8" cy="538.4" rx="14.4" ry="10.7"/>
	<ellipse class="st13" cx="988.3" cy="534.2" rx="1.7" ry="1.7"/>
	<path class="st16" d="M1000,539.9l-2.3,1.7c0,0-7.1-2.6-3.4-4.9c1.8-1.1-0.2-8.7-8.5-8.2c-3.4,0.2-13.6,4.9-1.7,16.5
		c-1.7,1.7-13.5,3.3-13.3-9.9c0.1-5.2,1.5-10.2,15.9-11.7c9-0.2,11,5.1,13.5,10.8c5.8,1.6,4.7,1.6,4.7,1.6l0,0
		C1003.5,537.4,1001.9,538.8,1000,539.9z"/>
	<path class="st15" d="M986.8,556L986.8,556c-1.5,5.1,7.9,14.2,22.9,15.3c5.9,0.4,8.2,6.6-5.6,9.1c-5.8,1-22.7-11-22.9-16.4
		l-0.2-0.5"/>
	<path class="st9" d="M1144.1,582.9c-4.2,0-7.7-3.4-7.7-7.7V568h14.3c2.1,0,3.8,1.7,3.8,3.8c0,0,0,0,0,0v7.4c0,2.1-1.7,3.8-3.8,3.8
		L1144.1,582.9z"/>
	<path class="st9" d="M1150.8,568.5c1.8,0,3.3,1.5,3.3,3.3v7.4c0,1.8-1.5,3.3-3.3,3.3h-6.7c-4,0-7.2-3.2-7.2-7.2v-6.8L1150.8,568.5
		 M1150.8,567.5h-14.8v7.8c0,4.5,3.6,8.2,8.2,8.2c0,0,0,0,0,0h6.7c2.4,0,4.3-1.9,4.3-4.3v-7.4C1155,569.4,1153.1,567.5,1150.8,567.5
		L1150.8,567.5z"/>
	<path class="st9" d="M1120,582.9c-1.6,0-1.7-0.5-2-1.9c-0.1-0.6-0.3-1.2-0.5-1.7l-1.8-7.5c0.2-2.2,2.1-3.8,4.3-3.7h16.2v5.9
		c0,5-4.6,9-10.2,9L1120,582.9z"/>
	<path class="st9" d="M1135.7,568.5v5.4c0,4.7-4.3,8.5-9.7,8.5h-6c-1.2,0-1.2-0.2-1.6-1.5c-0.1-0.6-0.3-1.2-0.5-1.7l-1.8-7.5
		c0.2-1.9,1.9-3.3,3.8-3.2L1135.7,568.5 M1136.7,567.5H1120c-2.5-0.1-4.7,1.8-4.8,4.3l1.8,7.7c0.9,2.4,0.4,4,3,4h6
		c5.9,0,10.7-4.2,10.7-9.5L1136.7,567.5C1136.6,567.5,1136.6,567.5,1136.7,567.5L1136.7,567.5z"/>
	<path class="st18" d="M1120.4,569.5h2.9v4C1121.6,572.9,1120.4,571.3,1120.4,569.5z"/>
	<path class="st18" d="M1138.2,569.5h3v4C1139.4,572.9,1138.2,571.3,1138.2,569.5z"/>
	<path class="st9" d="M1152.1,569l7.5-11.1l1.9,1.3c-0.1,0-0.2,0-0.3,0c-0.3,0-0.5-0.1-0.8-0.1c-0.2-0.1-0.3-0.1-0.5-0.1h-0.3
		l-0.2,0.2l-6.4,9.6c-0.1,0.2-0.1,0.5,0.1,0.9L1152.1,569z"/>
	<path class="st9" d="M1159.5,557.4c-0.2,0-0.3,0.1-0.4,0.2l-7.5,11.2c-0.1,0.2-0.1,0.5,0.1,0.6c0,0,0,0,0,0l2.6,1.7l0,0
		c0.1,0-1-1.8-0.9-2l6.4-9.5c0,0,0,0,0.1,0c0.4,0.1,0.8,0.2,1.3,0.2c0.4,0,0.9-0.2,1.1-0.5l-2.6-1.7
		C1159.6,557.5,1159.6,557.5,1159.5,557.4L1159.5,557.4z"/>
	<path class="st9" d="M1116.2,569.8l7.5-11.1l1.9,1.3c-0.1,0-0.2,0-0.3,0c-0.3,0-0.5-0.1-0.8-0.2c-0.2-0.1-0.3-0.1-0.5-0.1h-0.3
		l-0.2,0.3l-6.4,9.5c-0.2,0.2-0.1,0.5,0,0.9L1116.2,569.8z"/>
	<path class="st9" d="M1123.7,558.2c-0.2,0-0.3,0.1-0.4,0.2l-7.5,11.2c-0.1,0.2-0.1,0.5,0.1,0.6c0,0,0,0,0,0l2.6,1.7l0,0
		c0.1,0-1-1.8-0.9-2l6.4-9.6c0,0,0.1,0,0.1,0c0.4,0.1,0.8,0.2,1.3,0.2c0.4,0,0.9-0.2,1.1-0.5l-2.6-1.7
		C1123.8,558.3,1123.7,558.3,1123.7,558.2L1123.7,558.2z"/>
	
		<ellipse transform="matrix(0.4007 -0.9162 0.9162 0.4007 101.968 1359.6691)" class="st15" cx="1090.3" cy="601.9" rx="3.1" ry="7"/>
	
		<ellipse transform="matrix(0.4007 -0.9162 0.9162 0.4007 114.5079 1368.1992)" class="st15" cx="1103.1" cy="596.6" rx="3.1" ry="7"/>
	<path class="st15" d="M1109.1,552.8c0.8,2.4,7.8,23.5,1.5,36.2c-7.3,14.8-24.7,13-26.4,9.3c0-0.1-0.2-0.2-0.3-0.1c0,0,0,0,0,0
		c-4,2.1-15.2,2.3-18.4-1.5c-0.1-0.1-0.1-0.2,0-0.3c2.7-4.6,10.9-8.7,13.3-24.9c0.4-9.2,9.2-18.2,8.5-17.5s-11.7-17.5,8.6-20.5
		c12.5-1.5,14.5,9.3,14.8,9.8c0,0,0.1,0.1,0.1,0.1l4.2,1.4c0.1,0,0.2,0.2,0.2,0.3c0,0,0,0.1-0.1,0.1l-3.5,3.4
		c-0.1,0.1-0.1,0.2-0.1,0.2C1111.6,549.5,1109,552.7,1109.1,552.8z"/>
	<path class="st12" d="M1111.7,565.7c0,0,5.6,24.6-9.2,31.1s-18.6,0.3-18.6,0.3C1085.1,594.7,1106.6,545.4,1111.7,565.7z"/>
	<ellipse class="st8" cx="1097.3" cy="547.3" rx="13.3" ry="9.9"/>
	<ellipse class="st13" cx="1099.6" cy="543.5" rx="1.6" ry="1.5"/>
	<path class="st16" d="M1110.3,548.7l-2.1,1.6c0,0-6.5-2.4-3.1-4.5c1.6-1-0.2-8-7.8-7.6c-3.1,0.2-12.5,4.5-1.6,15.2
		c-1.6,1.5-12.5,3-12.2-9.1c0.1-4.8,1.4-9.4,14.6-10.8c8.3-0.2,10.1,4.7,12.4,9.9c5.3,1.5,4.3,1.5,4.3,1.5l0,0
		C1113.6,546.4,1112.1,547.7,1110.3,548.7z"/>
	<path class="st15" d="M1098.3,563.5L1098.3,563.5c-1.4,4.7,7.2,13.1,21.1,14.1c5.4,0.4,7.6,6.1-5.2,8.4c-5.3,1-20.8-10.1-21.1-15.1
		l-0.1-0.5"/>
	<path class="st13" d="M114.3,736.5l-33-8.4c-0.9-0.2-1.4-1.1-1.2-2c0,0,0,0,0,0l2-7.8c0.2-0.9,1.1-1.4,2-1.1
		c0.4,0.1,0.7,0.3,0.9,0.6c0.8,1.2,2.1,2.1,3.5,2.4c2.1,0.6,4.3-0.3,5.3-2.3c0.5-0.8,1.4-1,2.2-0.6c0,0,0,0,0,0l19.9,12
		c0,0,1.9,2.1,1.3,4.4c-0.5,1.8-1.3,2.5-2.2,2.7C114.9,736.5,114.6,736.6,114.3,736.5z"/>
	<path class="st13" d="M80.2,727.9l33.9,8.7c0.2,0.1,0.4,0.3,0.3,0.5l0,0c-0.1,0.2-0.3,0.4-0.5,0.3l-33.9-8.7
		c-0.2-0.1-0.4-0.3-0.3-0.5l0,0C79.7,728,79.9,727.9,80.2,727.9z"/>
	<ellipse transform="matrix(0.4145 -0.91 0.91 0.4145 -642.7056 489.8716)" class="st19" cx="59.4" cy="744.4" rx="2.7" ry="6.1"/>
	<ellipse transform="matrix(0.4145 -0.91 0.91 0.4145 -631.8579 497.2227)" class="st20" cx="70.5" cy="739.7" rx="2.7" ry="6.1"/>
	<path class="st20" d="M75.7,700.5c0.7,2.2,6.8,21.1,1.3,32.4c-6.4,13.2-21.5,11.7-23,8.3c0-0.1-0.1-0.1-0.2-0.1c0,0,0,0,0,0
		c-3.5,1.9-13.3,2.1-16.1-1.3c-0.1-0.1-0.1-0.2,0-0.2c2.3-4,9.1-7.5,11.4-21c0.1-0.9,0.4-1.8,0.7-2.7c2.5-7.3,5.9-12.1,6.9-14.3
		c0.9-1.9-0.1-17.9,7.5-18.4c10.8-1.4,12.6,8.3,12.8,8.7c0,0,0.1,0.1,0.1,0.1l8.6-0.4c0.5,0,1,0.1,1.4,0.5l2.8,2.2
		c0.3,0.3,0.4,0.8,0.1,1.1c-0.1,0.2-0.3,0.3-0.6,0.3l-11.7,0.9c0,0.1,0,0.2,0,0.2C78,697.5,75.7,700.4,75.7,700.5z"/>
	<path class="st12" d="M78,713c0,0,4.9,22.1-8,27.9s-16.2,0.3-16.2,0.3C54.8,739,73.6,694.8,78,713z"/>
	<circle class="st13" cx="67.5" cy="692.1" r="1.4"/>
	<path class="st20" d="M66.3,710L66.3,710c-1.2,4.2,6.3,11.7,18.4,12.6c4.7,0.4,6.6,5.5-4.5,7.5c-4.6,0.9-18.2-9.1-18.4-13.5
		l-0.1-0.4"/>
	<path class="st21" d="M56.6,701.6l-1.6,2.6c0,0,6-2,6.7-10.2c0.2-2.2,4.6-5.4,4.6-5.4c0.8-0.7,0.8-1.9,0.1-2.6
		c0-0.1-0.1-0.1-0.1-0.1c-1.4-1.5-8.3-1.6-8.3,7.4C58,700,56.6,701.6,56.6,701.6z"/>
	<path class="st21" d="M77,694.6c-0.1-0.3,0-0.6,0.3-0.8c0.1,0,0.1,0,0.2,0l7.3-0.2c0.3,0,3.1-0.1,3.3,0l1,0.7c0,0,1.5,0.9,0.1,1.1
		s-10.3,0.7-11.4,0.8c-0.1,0-0.2,0-0.2-0.1L77,694.6z"/>
	<path class="st8" d="M200.4,702.6h37.4c2.2,0,4,1.8,4,4v20.5c0,2.2-1.8,4-4,4h-37.4c-2.2,0-4-1.8-4-4v-20.5
		C196.4,704.4,198.2,702.6,200.4,702.6z"/>
	<path class="st9" d="M237.8,703.1c1.9,0,3.5,1.6,3.5,3.5v20.5c0,1.9-1.6,3.5-3.5,3.5h-37.4c-1.9,0-3.5-1.6-3.5-3.5v-20.5
		c0-1.9,1.6-3.5,3.5-3.5H237.8 M237.8,702.1h-37.4c-2.5,0-4.5,2-4.5,4.5v20.5c0,2.5,2,4.5,4.5,4.5h37.4c2.5,0,4.5-2,4.5-4.5v-20.5
		C242.3,704.1,240.3,702.1,237.8,702.1z"/>
	<polygon class="st9" points="218.4,727.7 228.6,707.9 238.6,707.9 238.6,727.7 	"/>
	<path class="st9" d="M238.1,708.4v18.8h-18.9l9.7-18.8H238.1 M239.1,707.4h-10.8l-10.8,20.8h21.6V707.4z"/>
	<path class="st9" d="M209.7,707.3c-2.2-0.2-3.8-2.2-3.6-4.4c0.2-2.2,2.2-3.8,4.4-3.6c2.1,0.2,3.7,1.9,3.6,4
		C214,705.7,212,707.4,209.7,707.3z"/>
	<path class="st8" d="M209.7,700c1.9,0.2,3.3,2,3,3.9s-2,3.3-3.9,3c-1.7-0.2-3.1-1.7-3.1-3.4C206,701.4,207.7,699.9,209.7,700
		 M209.7,699c-2.5,0.2-4.3,2.4-4,4.9s2.4,4.3,4.9,4c2.3-0.2,4-2.1,4-4.4C214.5,700.9,212.3,698.9,209.7,699z"/>
	<text transform="matrix(1 0 0 1 229.52 719.02)" class="st9 st2 st22">￥</text>
	<text transform="matrix(1 0 0 1 206.28 706.03)" class="st8 st2 st23">￥</text>
	<ellipse transform="matrix(0.4145 -0.91 0.91 0.4145 -570.8683 589.54)" class="st19" cx="172.7" cy="738.4" rx="2.8" ry="6.3"/>
	<ellipse transform="matrix(0.4145 -0.91 0.91 0.4145 -559.7046 597.0923)" class="st20" cx="184.2" cy="733.5" rx="2.8" ry="6.3"/>
	<path class="st20" d="M189.6,693.3c0.8,2.2,7,21.7,1.3,33.3c-6.6,13.6-22.1,12-23.7,8.6c0-0.1-0.1-0.1-0.2-0.1c0,0,0,0,0,0
		c-3.6,2-13.6,2.2-16.5-1.4c-0.1-0.1-0.1-0.2,0-0.2c2.4-4.1,9.3-7.8,11.7-21.6c0.1-0.9,0.4-1.8,0.7-2.7c2.6-7.5,6.1-12.4,7.1-14.7
		c0.9-2-0.1-18.4,7.7-18.9c11.2-1.4,13,8.6,13.2,9c0,0,0.1,0.1,0.1,0.1l8.9-0.4c0.5,0,1,0.1,1.4,0.5l2.9,2.3
		c0.4,0.3,0.4,0.8,0.1,1.2c-0.1,0.2-0.4,0.3-0.6,0.3l-12,0.9c-0.1,0.1-0.1,0.1-0.1,0.2C191.9,690.2,189.6,693.2,189.6,693.3z"/>
	<path class="st12" d="M191.9,706.2c0,0,5,22.7-8.2,28.7s-16.7,0.3-16.7,0.3C168.1,732.8,187.4,687.4,191.9,706.2z"/>
	<circle class="st13" cx="181.1" cy="684.7" r="1.4"/>
	<path class="st20" d="M179.9,703.1L179.9,703.1c-1.2,4.3,6.5,12,18.9,13c4.9,0.4,6.8,5.6-4.6,7.7c-4.7,0.9-18.7-9.3-18.9-13.9
		l-0.1-0.4"/>
	<path class="st21" d="M170,694.5l-1.6,2.7c0,0,6.2-2,6.9-10.5c0.2-2.3,4.7-5.5,4.7-5.5c0.8-0.7,0.9-1.9,0.1-2.7
		c0-0.1-0.1-0.1-0.1-0.1c-1.5-1.5-8.5-1.7-8.5,7.6C171.4,692.7,170,694.5,170,694.5z"/>
	<path class="st21" d="M190.8,687.2c-0.1-0.3,0-0.7,0.3-0.8c0.1,0,0.1,0,0.2,0l7.5-0.2c0.3,0,3.1-0.1,3.4,0l1,0.8c0,0,1.6,1,0.1,1.2
		s-10.6,0.7-11.8,0.8c-0.1,0-0.1,0-0.2-0.1L190.8,687.2z"/>
	<circle class="st9" cx="315.1" cy="737.4" r="2.9"/>
	<path class="st9" d="M307.4,736.9c-0.7,0-1.3-0.6-1.3-1.3l0,0v-18.6c0-2.5,2-4.4,4.4-4.4l0,0h40.8c3,0,5.4,2.4,5.4,5.4v17.7
		c0,0.7-0.6,1.3-1.3,1.3l0,0H307.4z"/>
	<path class="st9" d="M351.3,713.1c2.7,0,4.9,2.2,4.9,4.9v17.7c0,0.4-0.3,0.8-0.7,0.8c0,0,0,0,0,0h-48.1c-0.4,0-0.8-0.3-0.8-0.8l0,0
		v-18.6c0-2.2,1.8-3.9,3.9-3.9H351.3 M351.3,712.1h-40.8c-2.7,0-4.9,2.2-4.9,4.9l0,0v18.6c0,1,0.8,1.8,1.8,1.8l0,0h48.1
		c1,0,1.8-0.8,1.8-1.8l0,0V718C357.2,714.8,354.6,712.1,351.3,712.1L351.3,712.1z"/>
	<circle class="st9" cx="322.9" cy="737.4" r="2.9"/>
	<circle class="st9" cx="340.6" cy="737.4" r="2.9"/>
	<circle class="st9" cx="348.3" cy="737.4" r="2.9"/>
	<rect x="314.4" y="724.1" class="st8" width="5.6" height="10.9"/>
	<rect x="324.4" y="718.7" class="st8" width="5.3" height="4.2"/>
	<rect x="340.6" y="718.7" class="st8" width="6.1" height="4.2"/>
	<rect x="333.5" y="718.7" class="st8" width="3.5" height="4.5"/>
	<polygon class="st6" points="319.3,704.5 314.4,708.4 318,712.1 322.1,708.3 	"/>
	<polygon class="st6" points="343.9,705.4 338.9,709.3 342.6,713 346.7,709.2 	"/>
	<ellipse transform="matrix(0.4145 -0.91 0.91 0.4145 -510.6067 692.3679)" class="st19" cx="282.8" cy="743" rx="2.8" ry="6.3"/>
	<ellipse transform="matrix(0.4145 -0.91 0.91 0.4145 -499.4429 699.9202)" class="st20" cx="294.2" cy="738.1" rx="2.8" ry="6.3"/>
	<path class="st20" d="M299.6,697.8c0.7,2.2,7,21.7,1.3,33.3c-6.6,13.6-22.1,12-23.7,8.6c0-0.1-0.1-0.1-0.2-0.1c0,0,0,0,0,0
		c-3.6,2-13.6,2.2-16.5-1.4c-0.1-0.1-0.1-0.2,0-0.2c2.4-4.1,9.3-7.8,11.7-21.6c0.1-0.9,0.4-1.8,0.7-2.7c2.6-7.5,6.1-12.4,7.1-14.7
		c0.9-2-0.1-18.4,7.7-18.9c11.2-1.4,13,8.6,13.2,9c0,0,0.1,0.1,0.1,0.1l8.9-0.4c0.5,0,1,0.1,1.4,0.5l2.9,2.3
		c0.4,0.3,0.4,0.8,0.1,1.2c-0.1,0.2-0.4,0.3-0.6,0.3l-12,0.9c-0.1,0.1-0.1,0.2,0,0.2C301.9,694.8,299.6,697.7,299.6,697.8z"/>
	<path class="st12" d="M301.9,710.8c0,0,5,22.7-8.2,28.7s-16.7,0.3-16.7,0.3C278.1,737.4,297.4,692,301.9,710.8z"/>
	<circle class="st13" cx="291.2" cy="689.2" r="1.4"/>
	<path class="st20" d="M289.9,707.7L289.9,707.7c-1.2,4.3,6.5,12,18.9,13c4.9,0.4,6.8,5.6-4.6,7.7c-4.7,0.9-18.7-9.3-18.9-13.9
		l-0.1-0.4"/>
	<path class="st21" d="M280,699l-1.6,2.7c0,0,6.2-2.1,6.9-10.5c0.2-2.3,4.7-5.5,4.7-5.5c0.8-0.7,0.9-1.9,0.1-2.7
		c0-0.1-0.1-0.1-0.1-0.1c-1.5-1.5-8.5-1.7-8.5,7.6C281.4,697.3,280,699,280,699z"/>
	<path class="st21" d="M300.9,691.8c-0.1-0.3,0-0.7,0.3-0.8c0.1,0,0.1,0,0.2,0l7.5-0.2c0.3,0,3.1-0.1,3.4,0l1,0.8c0,0,1.6,1,0.1,1.2
		s-10.6,0.7-11.8,0.8c-0.1,0-0.2,0-0.2-0.1L300.9,691.8z"/>
	<path class="st20" d="M418.4,702.1L418.4,702.1c-1.4,4.7,7,13,20.5,14.1c5.3,0.4,7.4,6.1-5,8.4c-5.1,1-20.3-10.1-20.5-15.1
		l-0.1-0.5"/>
	<polygon class="st24" points="442.4,705.9 429.5,710.2 429.5,726.5 442.6,733.3 455.3,727 455.3,710.7 	"/>
	<polyline class="st6" points="429.5,710.2 442.4,716.6 455.3,710.7 	"/>
	<line class="st25" x1="442.4" y1="716.6" x2="442.4" y2="733.3"/>
	<circle class="st9" cx="434" cy="716.7" r="0.2"/>
	<ellipse class="st9" cx="437.8" cy="717.8" rx="0.1" ry="0.2"/>
	<ellipse class="st9" cx="434.6" cy="721" rx="0.1" ry="0.2"/>
	<circle class="st9" cx="437.8" cy="723.3" r="0.1"/>
	<circle class="st9" cx="435.1" cy="725.6" r="0.2"/>
	<ellipse class="st9" cx="442.4" cy="708.3" rx="0.2" ry="0.1"/>
	<ellipse class="st9" cx="443.4" cy="711.7" rx="0.2" ry="0.1"/>
	<ellipse class="st9" cx="446.2" cy="711.4" rx="0.4" ry="0.2"/>
	<ellipse class="st9" cx="437.4" cy="710.6" rx="0.3" ry="0.1"/>
	<circle class="st9" cx="452.3" cy="716.7" r="0.3"/>
	<circle class="st9" cx="445.6" cy="718.8" r="0.3"/>
	<ellipse class="st9" cx="448.5" cy="720.1" rx="0.3" ry="0.2"/>
	<circle class="st9" cx="446.1" cy="722.5" r="0.2"/>
	<circle class="st9" cx="451.3" cy="720.5" r="0.2"/>
	<circle class="st9" cx="448.8" cy="725.1" r="0.3"/>
	<ellipse transform="matrix(0.4145 -0.91 0.91 0.4145 -442.9773 803.0794)" class="st19" cx="402.7" cy="745.8" rx="3" ry="6.8"/>
	<ellipse transform="matrix(0.4145 -0.91 0.91 0.4145 -430.8574 811.2944)" class="st20" cx="415.1" cy="740.5" rx="3" ry="6.8"/>
	<path class="st20" d="M420.9,696.8c0.8,2.4,7.6,23.5,1.4,36.2c-7.2,14.8-24,13-25.7,9.3c0-0.1-0.1-0.1-0.2-0.1c0,0,0,0,0,0
		c-3.9,2.2-14.8,2.3-17.9-1.5c-0.1-0.1-0.1-0.2,0-0.3c2.6-4.4,10.1-8.4,12.7-23.5c0.2-1,0.4-2,0.7-3c2.8-8.1,6.6-13.5,7.7-15.9
		c1-2.1-0.1-20,8.3-20.5c12.1-1.5,14.1,9.3,14.4,9.8c0,0,0.1,0.1,0.1,0.1l9.6-0.4c0.6,0,1.1,0.2,1.6,0.5l3.1,2.5
		c0.4,0.3,0.5,0.9,0.1,1.3c-0.2,0.2-0.4,0.3-0.6,0.3l-13,1c-0.1,0.1-0.1,0.2,0,0.2C423.4,693.5,420.9,696.7,420.9,696.8z"/>
	<path class="st12" d="M423.4,710.8c0,0,5.4,24.6-9,31.1s-18.1,0.3-18.1,0.3C397.6,739.8,418.5,690.5,423.4,710.8z"/>
	<circle class="st13" cx="411.8" cy="687.5" r="1.5"/>
	<path class="st20" d="M410.4,707.4L410.4,707.4c-1.4,4.7,7,13,20.5,14.1c5.3,0.4,7.4,6.1-5,8.4c-5.1,1-20.3-10.1-20.5-15.1
		l-0.1-0.5"/>
	<path class="st21" d="M399.6,698.1l-1.8,2.9c0,0,6.7-2.2,7.4-11.4c0.2-2.5,5.1-6,5.1-6c0.9-0.8,0.9-2.1,0.2-2.9
		c-0.1-0.1-0.1-0.1-0.2-0.2c-1.6-1.6-9.2-1.8-9.2,8.2C401.2,696.2,399.6,698.1,399.6,698.1z"/>
	<path class="st21" d="M422.3,690.2c-0.1-0.3,0-0.7,0.4-0.8c0.1,0,0.1,0,0.2,0l8.2-0.2c0.4,0,3.4-0.1,3.7,0l1.1,0.8
		c0,0,1.7,1,0.1,1.2s-11.5,0.8-12.8,0.8c-0.1,0-0.1,0-0.2-0.1L422.3,690.2z"/>
	<path class="st9" d="M553,711L553,711c1.6,1.2,1.9,3.5,0.7,5.1l-10,13.3c-1.2,1.6-3.5,1.9-5.1,0.7v0c-1.6-1.2-1.9-3.5-0.7-5.1
		l10-13.3C549.1,710.1,551.4,709.8,553,711z"/>
	<circle class="st6" cx="560.7" cy="700.8" r="17.2"/>
	<path class="st5" d="M561.1,717.5c0.8,0.6,2-0.3,2.2-1.3c0.7-3.9,1.6-12.2-2.7-15.5c-2.6-2-11.3,1.3-15,3c-0.8,0.4-1.4,1.3-0.7,1.8
		c0,0-0.3,3.1,6.2,8.3C554,716.2,557.5,717.4,561.1,717.5z"/>
	<circle class="st6" cx="562.6" cy="698.2" r="4.5"/>
	<ellipse transform="matrix(0.4145 -0.91 0.91 0.4145 -375.8117 903.8128)" class="st19" cx="514.5" cy="744" rx="2.8" ry="6.3"/>
	<ellipse transform="matrix(0.4145 -0.91 0.91 0.4145 -364.6461 911.3771)" class="st20" cx="526" cy="739.1" rx="2.8" ry="6.3"/>
	<path class="st20" d="M531.4,698.8c0.8,2.2,7,21.7,1.3,33.3c-6.6,13.6-22.1,12-23.7,8.6c0-0.1-0.1-0.1-0.2-0.1c0,0,0,0,0,0
		c-3.6,2-13.6,2.2-16.5-1.4c0-0.1,0-0.2,0-0.2c2.4-4.1,9.3-7.8,11.7-21.6c0.2-0.9,0.4-1.8,0.7-2.7c2.6-7.5,6.1-12.4,7.1-14.7
		c0.9-2-0.1-18.4,7.7-18.9c11.2-1.4,13,8.6,13.2,9c0,0,0.1,0.1,0.1,0.1l8.9-0.4c0.5,0,1,0.1,1.4,0.5l2.9,2.3
		c0.4,0.3,0.4,0.8,0.2,1.1c-0.1,0.2-0.4,0.3-0.6,0.3l-12,0.9c0,0.1,0,0.2,0,0.2C533.7,695.8,531.3,698.7,531.4,698.8z"/>
	<path class="st12" d="M533.7,711.7c0,0,5,22.7-8.2,28.7s-16.7,0.3-16.7,0.3C509.9,738.4,529.2,693,533.7,711.7z"/>
	<circle class="st13" cx="522.9" cy="690.2" r="1.4"/>
	<path class="st20" d="M521.7,708.6L521.7,708.6c-1.2,4.3,6.5,12,18.9,13c4.9,0.4,6.8,5.6-4.6,7.7c-4.7,0.9-18.7-9.3-18.9-13.9
		L517,715"/>
	<path class="st21" d="M511.8,700l-1.7,2.7c0,0,6.2-2.1,6.9-10.5c0.2-2.3,4.7-5.5,4.7-5.5c0.8-0.7,0.9-1.9,0.2-2.7
		c-0.1-0.1-0.1-0.1-0.2-0.2c-1.5-1.5-8.5-1.7-8.5,7.6C513.2,698.3,511.8,700,511.8,700z"/>
	<path class="st21" d="M532.6,692.8c-0.1-0.3,0-0.6,0.3-0.8c0.1,0,0.1,0,0.2,0l7.5-0.2c0.3,0,3.1-0.1,3.4,0l1,0.8c0,0,1.6,1,0.1,1.2
		s-10.6,0.7-11.8,0.8c-0.1,0-0.2,0-0.2-0.1L532.6,692.8z"/>
	<polygon class="st6" points="665.7,703.8 648.8,713.2 653.8,714.9 649.3,727.4 683.6,738.9 687.9,726.3 692.5,727.9 686.6,710.7 	
		"/>
	
		<rect x="654.7" y="722.4" transform="matrix(0.3181 -0.948 0.948 0.3181 -236.2751 1120.6635)" class="st6" width="12.4" height="4.5"/>
	
		<rect x="674.3" y="721.8" transform="matrix(0.3181 -0.948 0.948 0.3181 -226.9133 1137.0637)" class="st6" width="5.4" height="9"/>
	
		<ellipse transform="matrix(0.4145 -0.91 0.91 0.4145 -312.4898 1007.0001)" class="st19" cx="626.4" cy="746.4" rx="2.8" ry="6.3"/>
	
		<ellipse transform="matrix(0.4145 -0.91 0.91 0.4145 -301.3353 1014.5646)" class="st20" cx="637.8" cy="741.5" rx="2.8" ry="6.3"/>
	<path class="st20" d="M643.2,701.2c0.7,2.2,7,21.7,1.3,33.3c-6.6,13.6-22.1,12-23.7,8.6c0-0.1-0.1-0.1-0.2-0.1c0,0,0,0,0,0
		c-3.6,2-13.6,2.2-16.5-1.4c-0.1-0.1-0.1-0.2,0-0.2c2.4-4.1,9.3-7.8,11.7-21.6c0.1-0.9,0.4-1.8,0.7-2.7c2.6-7.5,6.1-12.4,7.1-14.7
		c0.9-2-0.1-18.4,7.7-18.9c11.2-1.4,13,8.6,13.2,9c0,0,0.1,0.1,0.1,0.1l8.9-0.4c0.5,0,1,0.1,1.4,0.5l2.9,2.3
		c0.4,0.3,0.4,0.8,0.1,1.2c-0.1,0.2-0.4,0.3-0.6,0.3l-12,0.9c0,0.1,0,0.2,0,0.2C645.5,698.2,643.2,701.1,643.2,701.2z"/>
	<path class="st12" d="M645.5,714.1c0,0,5,22.7-8.2,28.7s-16.7,0.3-16.7,0.3C621.8,740.8,641,695.4,645.5,714.1z"/>
	<circle class="st13" cx="634.8" cy="692.6" r="1.4"/>
	<path class="st20" d="M633.5,711L633.5,711c-1.2,4.3,6.5,12,18.9,13c4.9,0.4,6.8,5.6-4.6,7.7c-4.8,0.9-18.7-9.3-18.9-13.9l-0.1-0.4
		"/>
	<path class="st21" d="M623.6,702.4L622,705c0,0,6.2-2.1,6.8-10.5c0.2-2.3,4.7-5.5,4.7-5.5c0.8-0.7,0.9-1.9,0.2-2.7
		c-0.1-0.1-0.1-0.1-0.2-0.2c-1.5-1.5-8.5-1.7-8.5,7.6C625,700.7,623.6,702.4,623.6,702.4z"/>
	<path class="st21" d="M644.5,695.2c-0.1-0.3,0-0.7,0.3-0.8c0.1,0,0.1,0,0.2,0l7.5-0.2c0.3,0,3.1-0.1,3.4,0l1,0.8c0,0,1.6,1,0.1,1.2
		s-10.6,0.7-11.8,0.8c-0.1,0-0.2,0-0.2-0.1L644.5,695.2z"/>
	<rect x="769.5" y="720.5" class="st9" width="7.2" height="2.9"/>
	<ellipse class="st9" cx="782.6" cy="721.9" rx="6.9" ry="8.1"/>
	<path class="st9" d="M782.5,713.8h6.2c0.4,0,0.7,0.3,0.7,0.7v14.8c0,0.4-0.3,0.7-0.7,0.7h-6.2c-0.4,0-0.7-0.3-0.7-0.7v-14.8
		C781.8,714.1,782.1,713.8,782.5,713.8z"/>
	<rect x="809.8" y="720.5" class="st9" width="7.2" height="2.9"/>
	<ellipse class="st9" cx="803.9" cy="721.9" rx="6.9" ry="8.1"/>
	<path class="st9" d="M804,730h-6.2c-0.4,0-0.7-0.3-0.7-0.7v-14.8c0-0.4,0.3-0.7,0.7-0.7h6.2c0.4,0,0.7,0.3,0.7,0.7v14.8
		C804.7,729.7,804.4,730,804,730z"/>
	
		<ellipse transform="matrix(0.4145 -0.91 0.91 0.4145 -240.0194 1112.3186)" class="st19" cx="744.5" cy="742.7" rx="2.8" ry="6.3"/>
	
		<ellipse transform="matrix(0.4145 -0.91 0.91 0.4145 -228.8556 1119.8708)" class="st20" cx="755.9" cy="737.8" rx="2.8" ry="6.3"/>
	<path class="st20" d="M761.3,697.5c0.8,2.2,7,21.7,1.3,33.3c-6.6,13.6-22.2,12-23.7,8.6c0-0.1-0.1-0.1-0.2-0.1c0,0,0,0,0,0
		c-3.6,2-13.7,2.2-16.5-1.4c-0.1-0.1-0.1-0.2,0-0.2c2.4-4.1,9.3-7.8,11.7-21.6c0.1-0.9,0.4-1.8,0.7-2.7c2.6-7.5,6.1-12.4,7.1-14.7
		c0.9-2-0.1-18.4,7.7-18.9c11.2-1.4,13,8.6,13.2,9c0,0,0.1,0.1,0.1,0.1l8.9-0.4c0.5,0,1,0.1,1.4,0.5l2.9,2.3
		c0.4,0.3,0.4,0.8,0.1,1.2c-0.1,0.2-0.4,0.3-0.6,0.3l-12,0.9c-0.1,0.1-0.1,0.2,0,0.2C763.6,694.5,761.3,697.4,761.3,697.5z"/>
	<path class="st12" d="M763.6,710.5c0,0,5,22.7-8.2,28.7s-16.7,0.3-16.7,0.3C739.8,737.1,759.1,691.7,763.6,710.5z"/>
	<circle class="st13" cx="752.9" cy="688.9" r="1.4"/>
	<path class="st20" d="M751.6,707.3L751.6,707.3c-1.2,4.3,6.5,12,18.9,13c4.9,0.4,6.8,5.6-4.6,7.7c-4.8,0.9-18.7-9.3-18.9-13.9
		l-0.1-0.4"/>
	<path class="st26" d="M741.7,698.7l-1.7,2.7c0,0,6.2-2.1,6.8-10.5c0.2-2.3,4.7-5.5,4.7-5.5c0.8-0.7,0.9-1.9,0.2-2.7
		c0-0.1-0.1-0.1-0.2-0.2c-1.5-1.5-8.5-1.7-8.5,7.6C743.1,697,741.7,698.7,741.7,698.7z"/>
	<path class="st26" d="M762.6,691.5c-0.1-0.3,0-0.7,0.3-0.8c0.1,0,0.1,0,0.2,0l7.5-0.2c0.3,0,3.1-0.1,3.4,0l1,0.8c0,0,1.6,1,0.1,1.2
		s-10.6,0.7-11.8,0.8c-0.1,0-0.2,0-0.2-0.1L762.6,691.5z"/>
	<path class="st9" d="M886.7,705.8l2.1-1.2c0.3-0.2,0.6-0.1,0.8,0.2l3.5,6c0.2,0.3,0.1,0.6-0.2,0.8l-2.1,1.2
		c-0.3,0.2-0.6,0.1-0.8-0.2l-3.5-6C886.3,706.3,886.4,705.9,886.7,705.8z"/>
	<path class="st9" d="M887.9,708.4c-0.1,0.1-0.1,0.2-0.1,0.3c0.5,1.4,5,9.3-3.3,14.1c-6.8,3.9-1,8,0.1,8.7c0.1,0.1,0.2,0.1,0.3,0
		l27-15.5c0.1-0.1,0.2-0.2,0.2-0.4c-0.3-1.3-2.2-7.3-8.4-3.7c-9.6,5.5-10.9-3.1-13.3-4.8c-0.1,0-0.1-0.1-0.2-0.1
		C889.4,707.1,888.5,707.6,887.9,708.4z"/>
	<path class="st9" d="M893.8,727.3l8.9-5.1c0,0,3,4.6-1.7,7.3C895.8,732.5,893.8,727.3,893.8,727.3z"/>
	<ellipse transform="matrix(0.4145 -0.91 0.91 0.4145 -173.8804 1217.6913)" class="st19" cx="859.4" cy="744" rx="2.8" ry="6.3"/>
	
		<ellipse transform="matrix(0.4145 -0.91 0.91 0.4145 -162.7152 1225.2543)" class="st20" cx="870.9" cy="739.1" rx="2.8" ry="6.3"/>
	<path class="st20" d="M876.3,698.8c0.8,2.2,7,21.7,1.3,33.3c-6.6,13.6-22.2,12-23.7,8.6c0-0.1-0.1-0.1-0.2-0.1c0,0,0,0,0,0
		c-3.6,2-13.6,2.2-16.5-1.4c0-0.1,0-0.2,0-0.2c2.4-4.1,9.3-7.8,11.7-21.6c0.2-0.9,0.4-1.8,0.7-2.7c2.6-7.5,6.1-12.4,7.1-14.7
		c0.9-2-0.1-18.4,7.7-18.9c11.2-1.4,13,8.6,13.2,9c0,0,0.1,0.1,0.1,0.1l8.9-0.4c0.5,0,1,0.1,1.4,0.5l2.9,2.3
		c0.4,0.3,0.4,0.8,0.2,1.1c-0.1,0.2-0.4,0.3-0.6,0.3l-12,0.9c0,0.1,0,0.2,0,0.2C878.6,695.8,876.2,698.7,876.3,698.8z"/>
	<path class="st12" d="M878.6,711.7c0,0,5,22.7-8.2,28.7s-16.7,0.3-16.7,0.3C854.8,738.4,874.1,693,878.6,711.7z"/>
	<circle class="st13" cx="867.8" cy="690.2" r="1.4"/>
	<path class="st20" d="M862.1,708.4L862.1,708.4c2.7,3.6,13.5,2.1,21.8-7.2c3.2-3.7,8.6-2,3.3,8.4c-2.2,4.3-18.7,9.2-22.5,6.6
		l-0.4-0.2"/>
	<path class="st26" d="M856.7,700l-1.7,2.7c0,0,6.2-2.1,6.9-10.5c0.2-2.3,4.7-5.5,4.7-5.5c0.8-0.7,0.9-1.9,0.2-2.7
		c-0.1-0.1-0.1-0.1-0.2-0.2c-1.5-1.5-8.5-1.7-8.5,7.6C858.1,698.3,856.7,700,856.7,700z"/>
	<path class="st26" d="M877.5,692.8c-0.1-0.3,0-0.6,0.3-0.8c0.1,0,0.1,0,0.2,0l7.5-0.2c0.3,0,3.1-0.1,3.4,0l1,0.8c0,0,1.6,1,0.1,1.2
		s-10.6,0.7-11.8,0.8c-0.1,0-0.2,0-0.2-0.1L877.5,692.8z"/>
	<path class="st6" d="M1004.5,712.6l-0.7-8.5c-0.1-0.8,0.2-1.6,0.8-2.2c1-1.1,2.4-1.8,3.8-2.1c1.9-0.3,3.7-0.2,5.6,0.1
		c0.2,0,0.4,0.1,0.6,0.3l4.7,4.4c1.1,1.1,2.9,1,4-0.1c0.1-0.1,0.2-0.2,0.2-0.3l3.6-5c0.1-0.2,0.3-0.3,0.6-0.4
		c1.6-0.5,3.2-0.7,4.9-0.7c1.7,0.1,3.3,0.6,4.7,1.4c0.5,0.3,0.7,0.7,0.7,1.3l0.5,9.7c0,0.5-0.3,0.9-0.7,1.1l-6.7,2.5
		c-0.5,0.2-0.8,0.6-0.7,1.1l0.5,6.4c0,0.2,0.1,0.3,0.2,0.5l10.1,16.5c0.3,0.5,0.2,1.2-0.3,1.5c-0.1,0.1-0.3,0.1-0.5,0.2
		c0,0-11.8,4-8.6,1.3s-19.5,2.5-16.1,0.7c5.3-2.8-14.1,1.1-14.1,1.1c-0.7,0.1-1.4-0.5-1.4-1.2c0-0.3,0.1-0.6,0.3-0.9l11.9-16.2
		c0.1-0.2,0.2-0.4,0.2-0.6v-7.5c0-0.5-0.3-0.8-0.7-1l-6.4-2.2C1004.8,713.4,1004.5,713,1004.5,712.6z"/>
	
		<ellipse transform="matrix(0.4145 -0.91 0.91 0.4145 -105.9613 1327.5287)" class="st19" cx="978.8" cy="746.1" rx="2.8" ry="6.3"/>
	<ellipse transform="matrix(0.4145 -0.91 0.91 0.4145 -94.8019 1335.0826)" class="st20" cx="990.2" cy="741.2" rx="2.8" ry="6.3"/>
	<path class="st20" d="M995.6,701c0.8,2.2,7,21.7,1.3,33.3c-6.6,13.6-22.2,12-23.7,8.6c0-0.1-0.1-0.1-0.2-0.1c0,0,0,0,0,0
		c-3.6,2-13.7,2.2-16.5-1.4c0-0.1,0-0.2,0-0.2c2.4-4.1,9.3-7.8,11.7-21.6c0.1-0.9,0.4-1.8,0.7-2.7c2.6-7.5,6.1-12.4,7.1-14.7
		c0.9-2-0.1-18.4,7.7-18.9c11.2-1.4,13,8.6,13.2,9c0,0,0.1,0.1,0.1,0.1l8.9-0.4c0.5,0,1,0.1,1.4,0.5l2.9,2.3
		c0.4,0.3,0.4,0.8,0.2,1.1c-0.1,0.2-0.4,0.3-0.6,0.3l-12,0.9c0,0.1,0,0.2,0,0.2C997.9,697.9,995.6,700.8,995.6,701z"/>
	<path class="st12" d="M997.9,713.9c0,0,5,22.7-8.2,28.6s-16.7,0.3-16.7,0.3C974.1,740.5,993.4,695.1,997.9,713.9z"/>
	<circle class="st13" cx="987.2" cy="692.4" r="1.4"/>
	<path class="st20" d="M981.5,710.5L981.5,710.5c2.7,3.6,13.5,2.1,21.8-7.2c3.2-3.7,8.6-2,3.3,8.4c-2.2,4.3-18.7,9.2-22.5,6.6
		l-0.4-0.2"/>
	<path class="st26" d="M976,702.1l-1.7,2.7c0,0,6.2-2.1,6.9-10.5c0.2-2.3,4.7-5.5,4.7-5.5c0.8-0.7,0.9-1.9,0.2-2.7
		c-0.1-0.1-0.1-0.1-0.2-0.2c-1.5-1.5-8.5-1.7-8.5,7.6C977.4,700.4,976,702.1,976,702.1z"/>
	<path class="st26" d="M996.9,694.9c-0.1-0.3,0-0.7,0.3-0.8c0.1,0,0.1,0,0.2,0l7.5-0.2c0.3,0,3.2-0.1,3.4,0l1,0.8c0,0,1.6,1,0.1,1.2
		s-10.6,0.7-11.8,0.8c-0.1,0-0.2,0-0.2-0.1L996.9,694.9z"/>
	<circle class="st5" cx="1135.7" cy="711.9" r="8.5"/>
	<circle class="st5" cx="1135.7" cy="722.8" r="8.5"/>
	<circle class="st5" cx="1147" cy="721" r="8.5"/>
	<circle class="st5" cx="1141.4" cy="733.7" r="8.5"/>
	<circle class="st5" cx="1127" cy="733.7" r="8.5"/>
	<circle class="st5" cx="1124.4" cy="720.4" r="8.5"/>
	<ellipse class="st6" cx="1135.7" cy="722.3" rx="2.9" ry="3.4"/>
	
		<ellipse transform="matrix(0.4145 -0.91 0.91 0.4145 -40.2999 1432.7332)" class="st19" cx="1093.4" cy="747.7" rx="2.8" ry="6.3"/>
	
		<ellipse transform="matrix(0.4145 -0.91 0.91 0.4145 -29.1347 1440.2963)" class="st20" cx="1104.8" cy="742.8" rx="2.8" ry="6.3"/>
	<path class="st20" d="M1110.2,702.5c0.8,2.2,7,21.7,1.3,33.3c-6.6,13.6-22.2,12-23.7,8.6c0-0.1-0.1-0.1-0.2-0.1c0,0,0,0,0,0
		c-3.6,2-13.7,2.2-16.5-1.4c-0.1-0.1-0.1-0.2,0-0.2c2.4-4.1,9.3-7.8,11.7-21.6c0.1-0.9,0.4-1.8,0.7-2.7c2.6-7.5,6.1-12.4,7.1-14.7
		c0.9-2-0.1-18.4,7.7-18.9c11.2-1.4,13,8.6,13.2,9c0,0,0.1,0.1,0.1,0.1l8.9-0.4c0.5,0,1,0.1,1.4,0.5l2.9,2.3
		c0.4,0.3,0.4,0.8,0.1,1.2c-0.1,0.2-0.4,0.3-0.6,0.3l-12,0.9c0,0.1,0,0.2,0,0.2C1112.5,699.5,1110.2,702.4,1110.2,702.5z"/>
	<path class="st12" d="M1112.5,715.4c0,0,5,22.7-8.2,28.7s-16.7,0.3-16.7,0.3C1088.7,742.1,1108,696.7,1112.5,715.4z"/>
	<circle class="st13" cx="1101.8" cy="693.9" r="1.4"/>
	<path class="st20" d="M1099,712L1099,712c-0.7,4.5,7.8,11.2,20.3,10.7c4.9-0.2,7.4,4.8-3.7,8.2c-4.6,1.4-19.6-7.1-20.3-11.7
		l-0.2-0.4"/>
	<path class="st26" d="M1090.6,703.7l-1.7,2.7c0,0,6.2-2,6.8-10.5c0.2-2.3,4.7-5.5,4.7-5.5c0.8-0.7,0.9-1.9,0.2-2.7
		c-0.1-0.1-0.1-0.1-0.2-0.2c-1.5-1.5-8.5-1.7-8.5,7.6C1092,702,1090.6,703.7,1090.6,703.7z"/>
	<path class="st26" d="M1111.5,696.5c-0.1-0.3,0-0.7,0.3-0.8c0.1,0,0.1,0,0.2,0l7.5-0.2c0.3,0,3.1-0.1,3.4,0l1,0.8
		c0,0,1.6,1,0.1,1.2s-10.6,0.7-11.8,0.8c-0.1,0-0.1,0-0.2-0.1L1111.5,696.5z"/>
</g>
<g id="レイヤー_2_1_">
	<path class="st6" d="M127,418l-12.1,35.9c-0.2,0.6-0.9,1-1.5,1l-26.6-3.6c-0.8-0.1-1.3-0.8-1.2-1.6c0-0.1,0-0.2,0.1-0.3l14.2-42.2
		l0.7-2c0.2-0.7,1-1.1,1.8-0.9c0,0,0,0,0,0l3.9,1.3c0.6,0.2,1,0.7,1,1.3l0,0c0,0.8,0.7,1.4,1.5,1.3c0.2,0,0.5-0.1,0.7-0.2l0.8-0.5
		c0.4-0.2,0.8-0.3,1.2-0.1l4.1,1.4c0.6,0.2,1,0.7,1,1.3v0.2c0,0.8,0.7,1.4,1.5,1.3c0.2,0,0.4-0.1,0.5-0.1l2.4-1.2
		c0.3-0.2,0.7-0.2,1.1-0.1l3.1,1l2.4,0.8c0.7,0.2,1.1,1,0.9,1.8c0,0,0,0,0,0L127,418z"/>
	<text transform="matrix(0.9479 0.3185 -0.3185 0.9479 94.6399 433.09)" class="st9 st2 st27">SIM</text>
	<path class="st28" d="M94.4,389.2c0,0-7.4-14.9-19.8-14.9c-17.4,0-27.3,47.1-24.8,62s-22.3,32.2-7.4,27.3c9.9-7.4,8.7-6.6,14.6,1.2
		c2.8,3.7,20.2,3.7,22.6,1.2c0-2.5-9.9-2.5-7.4-7.4s17.4-19.8,14.9-29.7s-7.1-27.4,0-29.8c7.4-2.5,17.4-2.5,17.4-2.5s-2.5-5-5-5
		S94.4,389.2,94.4,389.2z"/>
	<path class="st29" d="M83.8,403c0,0-11.5,2.3-12.8,12.9s-0.5,35.2,2.8,40.3l10.6-15.4C84.4,440.7,85.6,419.2,83.8,403z"/>
	<path class="st28" d="M65.2,420.5c0,0,21.6,1.1,31.8,15.8c2.2,4.5-1.4,5.1-7.1,4c-10.6-2.1-28.1-10-28.1-10"/>
	<circle class="st6" cx="80.8" cy="385.5" r="1.2"/>
	<path class="st30" d="M94.9,389.4l-2.5,5l2.5,3.3c0,0,12.4,1.7,9.9-0.8C103.4,392.6,99.5,389.6,94.9,389.4z"/>
	<path class="st31" d="M206.4,458.8c0,0-19.6-52.5,8.6-43.4c13.2,4.2,8.3,13.5,6.6,16.5s4.4-17.7,18.7-2.3
		C257.6,448.3,206.4,458.8,206.4,458.8z"/>
	<path class="st28" d="M203.2,398.4c0,0-6.7-13.4-17.8-13.4c-15.6,0-24.4,42.2-22.2,55.5s-20,28.9-6.7,24.4c8.9-6.7,7.8-6,13.1,1.1
		c2.5,3.3,18,3.3,20.3,1.1c0-2.2-8.9-2.2-6.7-6.7s15.6-17.8,13.3-26.7s-6.3-24.5,0-26.7c6.7-2.2,15.6-2.2,15.6-2.2s-2.2-4.5-4.4-4.5
		S203.2,398.4,203.2,398.4z"/>
	<path class="st29" d="M193.7,410.6c0,0-10.3,2-11.5,11.5s-0.4,31.5,2.5,36.1l9.5-13.8C194.2,444.5,195.3,425.2,193.7,410.6z"/>
	<path class="st28" d="M177.1,426.4c0,0,19.4,1,28.5,14.2c2,4-1.3,4.5-6.4,3.5c-9.5-1.9-25.2-9-25.2-9"/>
	<circle class="st6" cx="191" cy="395" r="1.1"/>
	<path class="st30" d="M203.7,398.5l-2.2,4.5l2.2,2.9c0,0,11.1,1.5,8.9-0.7C211.3,401.3,207.8,398.7,203.7,398.5z"/>
	<path class="st32" d="M344.8,402.4l7.3,3.2c0.3,0.1,0.4,0.5,0.3,0.8l-0.4,1c-0.1,0.3-0.5,0.4-0.8,0.3l-7.3-3.2
		c-0.3-0.1-0.4-0.5-0.3-0.8l0.4-1C344.1,402.4,344.5,402.3,344.8,402.4z"/>
	<path class="st5" d="M341.2,408.8l-2.7,6.2c0,0-7,0.7-9.5,6.3L314.1,455l19.6,8.5l14.9-33.5c2.5-5.6-1.9-10.8-1.9-10.8l2.7-6.7
		L341.2,408.8z"/>
	<path class="st28" d="M324,392.9c0,0-7.2-14.4-19.1-14.4c-16.8,0-26.3,45.5-23.9,59.8s-21.5,31.1-7.2,26.3
		c9.6-7.2,8.4-6.4,14.1,1.2c2.7,3.6,19.4,3.6,21.8,1.2c0-2.4-9.6-2.4-7.2-7.2s16.8-19.1,14.4-28.7s-6.8-26.5,0-28.7
		c7.2-2.4,16.8-2.4,16.8-2.4s-2.4-4.8-4.8-4.8S324,392.9,324,392.9z"/>
	<path class="st29" d="M313.8,406.2c0,0-11.1,2.2-12.4,12.4s-0.5,34,2.7,38.8l10.2-14.9C314.3,442.6,315.5,421.8,313.8,406.2z"/>
	<path class="st28" d="M295.9,423.1c0,0,20.9,1.1,30.7,15.3c2.1,4.3-1.4,4.9-6.9,3.8c-10.2-2-27.1-9.7-27.1-9.7"/>
	<circle class="st6" cx="310.9" cy="389.3" r="1.2"/>
	<path class="st30" d="M325.6,393.5l-2.4,4.8l2.4,3.1c0,0,12,1.6,9.6-0.8C333.8,396.6,330,393.7,325.6,393.5z"/>
	<path class="st5" d="M426.8,414.2h3.2c1.9,0,3.4,1.5,3.4,3.4v47.9c0,1.9-1.5,3.4-3.4,3.4h-3.2c-1.9,0-3.4-1.5-3.4-3.4v-47.9
		C423.4,415.7,424.9,414.2,426.8,414.2z"/>
	<path class="st5" d="M432.9,433.3l31.2-19.9c1.2-0.8,2.8-0.4,3.6,0.8c0.3,0.4,0.4,0.9,0.4,1.4v49.1c0,1.4-1.2,2.6-2.6,2.6
		c-0.6,0-1.1-0.2-1.6-0.6l-31.2-24.4c-0.6-0.5-1-1.2-1-2v-4.8C431.7,434.6,432.2,433.8,432.9,433.3z"/>
	<path class="st28" d="M427.6,395.5c0,0-6.9-13.7-18.3-13.7c-16,0-25.2,43.5-22.9,57.2s-20.6,29.7-6.9,25.2c9.1-6.9,8-6.1,13.5,1.1
		c2.6,3.4,18.6,3.4,20.9,1.1c0-2.3-9.1-2.3-6.9-6.9s16-18.3,13.7-27.5s-6.5-25.3,0-27.5c6.9-2.3,16-2.3,16-2.3s-2.3-4.6-4.6-4.6
		S427.6,395.5,427.6,395.5z"/>
	<path class="st29" d="M417.8,408.1c0,0-10.6,2.1-11.8,11.9s-0.5,32.5,2.6,37.1l9.8-14.2C418.3,442.9,419.4,423.1,417.8,408.1z"/>
	<path class="st28" d="M400.7,424.3c0,0,20,1,29.4,14.6c2.1,4.1-1.3,4.7-6.6,3.6c-9.8-1.9-25.9-9.2-25.9-9.2"/>
	<circle class="st6" cx="415" cy="392" r="1.1"/>
	<path class="st30" d="M428,395.6l-2.3,4.6l2.3,3c0,0,11.4,1.6,9.1-0.7C435.8,398.5,432.2,395.8,428,395.6z"/>
	<path class="st6" d="M543.6,438.8l11-36.2c0.5-1.6,2.1-2.5,3.7-2c0,0,0,0,0,0l3.3,1c0.9,0.3,1.6,0.9,1.9,1.7l1,2.5
		c0.2,0.4,0.4,0.7,0.7,1l1.6,1.5c0.3,0.3,0.8,0.6,1.2,0.7l17.4,5.3c1.6,0.5,2.5,2.1,2,3.7c0,0,0,0,0,0l-9.4,31.1
		c-0.5,1.6-2.1,2.5-3.7,2c0,0,0,0,0,0l-28.6-8.7C544.1,442,543.2,440.4,543.6,438.8z"/>
	<path class="st6" d="M549.4,445c-1.6-0.5-2.5-2.1-2.1-3.7c0.1-0.5,0.4-0.9,0.8-1.3l0,0l13.9-14.4c0.8-0.9,2-1.2,3.2-0.8l21.5,7.3
		c1.6,0.5,2.4,2.2,1.9,3.8c0,0.1-0.1,0.2-0.1,0.3l-7.4,15.7c-0.6,1.4-2.2,2-3.6,1.6L549.4,445z"/>
	<path class="st28" d="M552.2,389.2c0,0-7.3-14.6-19.5-14.6c-17.1,0-26.9,46.4-24.4,61s-22,31.7-7.3,26.9c9.8-7.3,8.5-6.5,14.4,1.2
		c2.7,3.7,19.8,3.7,22.3,1.2c0-2.4-9.8-2.4-7.3-7.3s17.1-19.5,14.6-29.3s-7-27,0-29.3c7.3-2.4,17.1-2.4,17.1-2.4s-2.4-4.9-4.9-4.9
		S552.2,389.2,552.2,389.2z"/>
	<path class="st29" d="M541.7,402.7c0,0-11.3,2.2-12.6,12.7s-0.5,34.7,2.8,39.7l10.5-15.2C542.3,439.8,543.5,418.6,541.7,402.7z"/>
	<path class="st28" d="M523.5,419.9c0,0,21.3,1.1,31.3,15.6c2.2,4.4-1.4,5-7,3.9c-10.4-2-27.7-9.9-27.7-9.9"/>
	<circle class="st6" cx="538.8" cy="385.5" r="1.2"/>
	<path class="st30" d="M551.5,388.5l-2.4,4.9l2.4,3.2c0,0,12.2,1.7,9.8-0.8C559.9,391.6,556,388.7,551.5,388.5z"/>
	<path class="st6" d="M671.4,418.1l9.2-0.8c1.6-0.1,2.8-1.5,2.6-3.1c0-0.1,0-0.2-0.1-0.3l-1-4.7c-0.1-0.6-0.5-1.2-1-1.6l-2.3-1.9
		c-0.7-0.5-1.6-0.8-2.4-0.6l-5,1c-0.8,0.2-1.4,0.6-1.8,1.3l-1.6,2.5c-0.4,0.6-0.5,1.4-0.4,2.1l0.7,4
		C668.6,417.3,669.9,418.3,671.4,418.1z"/>
	<path class="st6" d="M672.8,421.6l9.3-0.6c1.4-0.1,2.7,0.9,3,2.3l6.1,29.5c0.1,0.5,0.1,1-0.1,1.4l-2.8,9.3
		c-0.5,1.5-2.1,2.4-3.6,1.9c-0.5-0.2-1-0.5-1.3-0.9l-6.2-7.2c-0.3-0.4-0.5-0.8-0.6-1.3l-6.5-31c-0.3-1.6,0.6-3.1,2.2-3.4
		C672.5,421.6,672.7,421.6,672.8,421.6z"/>
	<path class="st28" d="M673,383.9c0,0-7.5-15.1-20.1-15.1c-17.6,0-27.6,47.7-25.1,62.8s-22.6,32.6-7.5,27.6c10-7.5,8.8-6.7,14.8,1.2
		c2.8,3.8,20.4,3.8,22.9,1.3c0-2.5-10-2.5-7.5-7.5s17.6-20.1,15.1-30.1s-7.2-27.7,0-30.1c7.5-2.5,17.6-2.5,17.6-2.5s-2.5-5-5-5
		S673,383.9,673,383.9z"/>
	<path class="st29" d="M662.2,397.8c0,0-11.7,2.3-13,13s-0.5,35.6,2.8,40.8l10.8-15.5C662.8,436,664,414.2,662.2,397.8z"/>
	<path class="st28" d="M643.4,415.5c0,0,21.9,1.1,32.2,16c2.3,4.5-1.5,5.1-7.2,4c-10.7-2.1-28.5-10.1-28.5-10.1"/>
	<circle class="st6" cx="659.2" cy="380.1" r="1.3"/>
	<path class="st30" d="M673.4,384.2l-2.5,5l2.5,3.3c0,0,12.6,1.7,10-0.8C681.9,387.4,677.9,384.4,673.4,384.2z"/>
	<path class="st28" d="M787.9,386.1c0,0-7.8-15.6-20.9-15.6c-18.3,0-28.7,49.6-26.1,65.2s-23.5,33.9-7.8,28.7
		c10.4-7.8,9.1-7,15.3,1.3c2.9,3.9,21.2,3.9,23.8,1.3c0-2.6-10.4-2.6-7.8-7.8s18.3-20.9,15.7-31.3s-7.4-28.8,0-31.3
		c7.8-2.6,18.3-2.6,18.3-2.6s-2.6-5.2-5.2-5.2S787.9,386.1,787.9,386.1z"/>
	<path class="st29" d="M776.7,400.6c0,0-12.1,2.4-13.5,13.5s-0.5,37,3,42.4l11.2-16.2C777.3,440.3,778.5,417.6,776.7,400.6z"/>
	<circle class="st6" cx="773.5" cy="382.2" r="1.3"/>
	<path class="st30" d="M788.4,386.3l-2.6,5.2l2.6,3.5c0,0,13,1.8,10.4-0.8C797.3,389.6,793.2,386.5,788.4,386.3z"/>
	<path class="st5" d="M816.9,405.8L816.9,405.8c2.5,2.4,2.6,6.4,0.1,8.9l-9.9,10.2c-2.4,2.5-6.4,2.6-8.9,0.1l0,0
		c-2.5-2.4-2.6-6.4-0.1-8.9L808,406C810.4,403.5,814.4,403.4,816.9,405.8z"/>
	<path class="st25" d="M793.6,411.8c0,0-8.8,9-0.8,16.7c6.8,6.6,13.8,6.1,19,0.8"/>
	
		<rect x="782.1" y="432.6" transform="matrix(0.6958 -0.7182 0.7182 0.6958 -71.9995 698.342)" class="st9" width="12.6" height="3.2"/>
	<line class="st25" x1="797.8" y1="398.4" x2="806.6" y2="443.1"/>
	<line class="st33" x1="799.6" y1="398.4" x2="808.4" y2="443.1"/>
	<path class="st28" d="M757.2,419c0,0,22.7,1.2,33.5,16.7c2.3,4.7-1.5,5.3-7.5,4.2c-11.1-2.2-29.6-10.5-29.6-10.5"/>
	<path class="st34" d="M904.7,404.6l19.8,4.5c4.1,0.9,6.6,5,5.7,9l-7.4,33c-0.9,4.1-5,6.6-9,5.7l-19.8-4.5c-4.1-0.9-6.6-5-5.7-9
		l7.4-33C896.6,406.2,900.6,403.6,904.7,404.6z"/>
	<path class="st35" d="M892.9,414.9l4.1,0.9c0.9,0.2,1.5,1.1,1.3,2l-0.1,0.4c-0.2,0.9-1.1,1.5-2,1.3l-4.1-0.9
		c-0.9-0.2-1.5-1.1-1.3-2l0.1-0.4C891.1,415.2,892,414.7,892.9,414.9z"/>
	<path class="st35" d="M890.7,424.8l4.1,0.9c0.9,0.2,1.5,1.1,1.3,2l-0.1,0.4c-0.2,0.9-1.1,1.5-2,1.3l-4.1-0.9
		c-0.9-0.2-1.5-1.1-1.3-2l0.1-0.4C888.9,425.1,889.8,424.5,890.7,424.8z"/>
	<path class="st35" d="M888.5,434.6l4.1,0.9c0.9,0.2,1.5,1.1,1.3,2l-0.1,0.4c-0.2,0.9-1.1,1.5-2,1.3l-4.1-0.9
		c-0.9-0.2-1.5-1.1-1.3-2l0.1-0.4C886.6,435,887.6,434.4,888.5,434.6z"/>
	
		<rect x="911" y="408.6" transform="matrix(0.2193 -0.9756 0.9756 0.2193 305.2856 1215.6741)" class="st9" width="2.5" height="16.9"/>
	
		<rect x="911.9" y="411.8" transform="matrix(0.2193 -0.9756 0.9756 0.2193 300.0435 1220.5767)" class="st9" width="1.7" height="21.9"/>
	
		<rect x="907.5" y="419.4" transform="matrix(0.2193 -0.9756 0.9756 0.2193 292.5024 1219.5551)" class="st9" width="1.7" height="15.2"/>
	
		<rect x="904.4" y="427.3" transform="matrix(0.2193 -0.9756 0.9756 0.2193 284.0039 1221.3606)" class="st9" width="1.7" height="11.8"/>
	<path class="st28" d="M894,387.5c0,0-7.8-15.6-20.8-15.6c-18.2,0-28.7,49.5-26,65.1s-23.4,33.9-7.8,28.6c10.4-7.8,9.1-7,15.3,1.3
		c2.9,3.9,21.2,3.9,23.8,1.3c0-2.6-10.4-2.6-7.8-7.8s18.2-20.8,15.6-31.3s-7.4-28.8,0-31.2c7.8-2.6,18.2-2.6,18.2-2.6
		s-2.6-5.2-5.2-5.2S894,387.5,894,387.5z"/>
	<path class="st29" d="M882.8,401.9c0,0-12.1,2.4-13.5,13.5s-0.5,37,3,42.3l11.2-16.2C883.4,441.5,884.7,418.9,882.8,401.9z"/>
	<path class="st28" d="M863.3,420.3c0,0,22.7,1.2,33.4,16.7c2.3,4.7-1.5,5.3-7.5,4.2c-11.1-2.2-29.5-10.5-29.5-10.5"/>
	<circle class="st6" cx="879.7" cy="383.6" r="1.3"/>
	<path class="st30" d="M894.5,387.7l-2.6,5.2l2.6,3.4c0,0,13,1.8,10.4-0.8C903.4,391,899.3,387.8,894.5,387.7z"/>
	<path class="st6" d="M108.9,258.1l12.7,5.9c3.7,1.7,5.4,6.2,3.6,9.9L108,310.8c-1.7,3.7-6.2,5.4-9.9,3.6l-12.7-5.9
		c-3.7-1.7-5.4-6.2-3.6-9.9L99,261.7C100.7,258,105.2,256.4,108.9,258.1z"/>
	<path class="st6" d="M106.8,265.2l10.8,5c1.9,0.9,2.7,3.1,1.8,5l-10.1,21.7c-0.9,1.9-3.1,2.7-5,1.8l-10.8-5c-1.9-0.9-2.7-3.1-1.8-5
		l10.1-21.7C102.7,265.1,104.9,264.3,106.8,265.2z"/>
	<circle class="st6" cx="94.8" cy="304.9" r="2.4"/>
	<path class="st36" d="M87.2,250.9c0,0-7.2-14.5-19.3-14.5c-16.9,0-26.6,45.9-24.2,60.4s-21.7,31.4-7.3,26.6
		c9.7-7.2,8.5-6.5,14.2,1.2c2.7,3.6,19.6,3.6,22,1.2c0-2.4-9.7-2.4-7.2-7.2s16.9-19.3,14.5-29s-6.9-26.7,0-29
		c7.2-2.4,16.9-2.4,16.9-2.4s-2.4-4.8-4.8-4.8S87.2,250.9,87.2,250.9z"/>
	<path class="st37" d="M76.9,264.2c0,0-11.2,2.2-12.5,12.5s-0.5,34.3,2.7,39.2l10.3-15C77.4,301,78.6,280,76.9,264.2z"/>
	<path class="st36" d="M58.8,281.3c0,0,21.1,1.1,31,15.4c2.2,4.4-1.4,4.9-6.9,3.9c-10.3-2-27.4-9.8-27.4-9.8"/>
	<path class="st38" d="M87,250.5c0,0-23.2-11-22.6-13s-4.9,2.4-6.4,4s26.3,12.6,27,15S87,250.5,87,250.5z"/>
	<circle class="st39" cx="73.8" cy="247.3" r="1.1"/>
	<path class="st40" d="M87.2,250.9l-2.4,4.8l2.4,3.2c0,0,12.1,1.6,9.7-0.8C95.5,253.9,91.7,251,87.2,250.9z"/>
	<path class="st6" d="M192.4,282.2h44.4c3.9,0,7.1,3.2,7.1,7.1v22.4c0,3.9-3.2,7.1-7.1,7.1h-44.4c-3.9,0-7.1-3.2-7.1-7.1v-22.4
		C185.4,285.3,188.5,282.2,192.4,282.2z"/>
	<polygon class="st6" points="207.3,293.1 207.3,309.6 225.6,299.5 	"/>
	<path class="st36" d="M194.4,260.4c0,0-6.5-13-17.3-13c-15.2,0-23.8,41.2-21.7,54.2s-19.5,28.2-6.5,23.8c8.7-6.5,7.6-5.8,12.7,1.1
		c2.4,3.2,17.6,3.2,19.8,1.1c0-2.2-8.7-2.2-6.5-6.5s15.2-17.3,13-26s-6.2-23.9,0-26c6.5-2.2,15.2-2.2,15.2-2.2s-2.2-4.3-4.3-4.3
		S194.4,260.4,194.4,260.4z"/>
	<path class="st37" d="M185.1,272.3c0,0-10.1,2-11.2,11.2s-0.4,30.7,2.5,35.2l9.3-13.5C185.6,305.3,186.6,286.5,185.1,272.3z"/>
	<path class="st36" d="M168.9,287.7c0,0,18.9,1,27.8,13.8c1.9,3.9-1.3,4.4-6.2,3.5c-9.2-1.8-24.6-8.8-24.6-8.8"/>
	<path class="st38" d="M194.1,260.1c0,0-20.8-9.9-20.2-11.6s-4.4,2.2-5.7,3.6s23.6,11.3,24.2,13.4S194.1,260.1,194.1,260.1z"/>
	<circle class="st39" cx="182.4" cy="257.2" r="1"/>
	<path class="st40" d="M194.4,260.4l-2.2,4.3l2.2,2.9c0,0,10.8,1.5,8.7-0.7C201.8,263.1,198.4,260.5,194.4,260.4z"/>
	<path class="st5" d="M331.5,281.5l0.4,0.4c1.4,1.3,1.4,3.5,0.1,4.9l-16.7,17.4c-1.3,1.4-3.5,1.4-4.9,0.1l-0.4-0.4
		c-1.4-1.3-1.4-3.5-0.1-4.9l16.7-17.4C327.9,280.2,330.1,280.1,331.5,281.5z"/>
	<circle class="st41" cx="341.3" cy="272.5" r="13.9"/>
	<path class="st36" d="M317.6,251.1c0,0-7.2-14.5-19.3-14.5c-16.9,0-26.6,45.9-24.2,60.4s-21.8,31.4-7.2,26.6
		c9.7-7.2,8.5-6.5,14.2,1.2c2.7,3.6,19.6,3.6,22,1.2c0-2.4-9.7-2.4-7.2-7.2s16.9-19.3,14.5-29s-6.9-26.7,0-29
		c7.2-2.4,16.9-2.4,16.9-2.4s-2.4-4.8-4.8-4.8S317.6,251.1,317.6,251.1z"/>
	<path class="st37" d="M307.2,264.5c0,0-11.2,2.2-12.5,12.5s-0.5,34.3,2.7,39.2l10.3-15C307.8,301.2,309,280.3,307.2,264.5z"/>
	<path class="st36" d="M289.2,281.6c0,0,21.1,1.1,31,15.4c2.2,4.4-1.4,5-7,3.9c-10.3-2-27.4-9.8-27.4-9.8"/>
	<path class="st38" d="M317.3,250.8c0,0-23.2-11-22.6-13s-4.9,2.4-6.4,4s26.3,12.6,27,15C316,259.2,317.3,250.8,317.3,250.8z"/>
	<circle class="st39" cx="304.2" cy="247.6" r="1.1"/>
	<path class="st40" d="M317.6,251.1l-2.4,4.8l2.4,3.2c0,0,12.1,1.6,9.7-0.8C325.9,254.2,322,251.3,317.6,251.1z"/>
	<path class="st5" d="M466.7,308.2c-4.1,11.3-16.5,17.2-27.8,13.1c-11.3-4.1-17.2-16.5-13.1-27.8c1.8-5.1,5.5-9.3,10.3-11.9
		c5.4-2.9,11.8-3.3,17.5-1.2C464.9,284.5,470.8,296.9,466.7,308.2z"/>
	<path class="st5" d="M445.2,258.6l3.4,21.5l10.9,3.9l12.1-11.3c-2,0.2-10.6,0.3-10.2-3.5s-10.5-6.6-7.8-7.6
		S445.2,258.6,445.2,258.6z"/>
	<text transform="matrix(0.9409 0.3387 -0.3387 0.9409 434.11 309.65)" class="st8 st2 st42">¥</text>
	<path class="st36" d="M432.3,251.1c0,0-7.3-14.5-19.3-14.5c-16.9,0-26.6,45.9-24.2,60.4s-21.8,31.4-7.2,26.6
		c9.7-7.2,8.5-6.5,14.2,1.2c2.7,3.6,19.6,3.6,22,1.2c0-2.4-9.7-2.4-7.2-7.2s16.9-19.3,14.5-29s-6.9-26.7,0-29
		c7.2-2.4,16.9-2.4,16.9-2.4s-2.4-4.8-4.8-4.8S432.3,251.1,432.3,251.1z"/>
	<path class="st37" d="M421.9,264.5c0,0-11.2,2.2-12.5,12.5s-0.5,34.3,2.7,39.2l10.4-15C422.5,301.3,423.6,280.3,421.9,264.5z"/>
	<path class="st36" d="M403.9,281.6c0,0,21.1,1.1,31,15.4c2.2,4.4-1.4,5-7,3.9c-10.3-2-27.4-9.8-27.4-9.8"/>
	<path class="st38" d="M432,250.8c0,0-23.2-11-22.6-13s-4.9,2.4-6.4,4s26.3,12.6,27,15C430.7,259.2,432,250.8,432,250.8z"/>
	<circle class="st39" cx="418.9" cy="247.6" r="1.1"/>
	<path class="st40" d="M432.3,251.1l-2.4,4.8l2.4,3.2c0,0,12.1,1.6,9.7-0.8C440.6,254.2,436.7,251.3,432.3,251.1z"/>
	<rect x="528.3" y="295.4" transform="matrix(0.2433 -0.97 0.97 0.2433 123.6482 753.5907)" class="st5" width="33" height="4.4"/>
	<rect x="543.5" y="306" transform="matrix(0.2433 -0.97 0.97 0.2433 118.1355 767.8768)" class="st5" width="15.4" height="4.4"/>
	<rect x="550.4" y="306" transform="matrix(0.2433 -0.97 0.97 0.2433 124.9968 776.684)" class="st5" width="19.8" height="4.4"/>
	<rect x="556.4" y="305" transform="matrix(0.2433 -0.97 0.97 0.2433 133.0917 784.9529)" class="st5" width="26.4" height="4.4"/>
	<rect x="563.3" y="305" transform="matrix(0.2433 -0.97 0.97 0.2433 139.9567 793.7454)" class="st5" width="30.8" height="4.4"/>
	<rect x="544.7" y="269.6" transform="matrix(0.2433 -0.97 0.97 0.2433 148.4139 742.6354)" class="st5" width="11" height="13.2"/>
	<path class="st36" d="M544.7,251.3c0,0-7.2-14.5-19.3-14.5c-16.9,0-26.6,45.9-24.2,60.4s-21.8,31.4-7.2,26.6
		c9.7-7.2,8.5-6.5,14.2,1.2c2.7,3.6,19.6,3.6,22,1.2c0-2.4-9.7-2.4-7.2-7.2s16.9-19.3,14.5-29s-6.9-26.7,0-29
		c7.2-2.4,16.9-2.4,16.9-2.4s-2.4-4.8-4.8-4.8S544.7,251.3,544.7,251.3z"/>
	<path class="st37" d="M534.4,264.7c0,0-11.2,2.2-12.5,12.5s-0.5,34.3,2.7,39.2l10.3-15C534.9,301.5,536.1,280.5,534.4,264.7z"/>
	<path class="st36" d="M516.3,281.8c0,0,21.1,1.1,31,15.4c2.2,4.4-1.4,4.9-6.9,3.9c-10.3-2-27.4-9.8-27.4-9.8"/>
	<path class="st38" d="M544.5,251c0,0-23.2-11-22.6-13s-4.9,2.4-6.4,4s26.3,12.6,27,15C543.1,259.4,544.5,251,544.5,251z"/>
	<circle class="st39" cx="531.3" cy="247.8" r="1.1"/>
	<path class="st40" d="M544.7,251.3l-2.4,4.8l2.4,3.2c0,0,12.1,1.6,9.7-0.8C553,254.4,549.2,251.5,544.7,251.3z"/>
	<path class="st6" d="M661,318.2l9.7-18.8c0.3-0.5,0.9-0.7,1.4-0.4c0.3,0.2,0.5,0.5,0.6,0.8l1.1,8.1c0.1,0.6,0.6,1,1.2,1
		c0.3,0,0.7-0.3,0.8-0.6l10.2-17.9c0.2-0.4,0.7-0.5,1.1-0.3c0.2,0.1,0.4,0.4,0.4,0.6l2.3,32.1c0.1,1.5-1,2.8-2.6,2.9
		c-0.3,0-0.6,0-0.9-0.1l-23.9-7L661,318.2z"/>
	<path class="st5" d="M689.8,325.3l-3.1-13.4c-0.1-0.5-0.6-0.9-1.1-0.8c-0.3,0-0.5,0.2-0.7,0.5l-6.4,8.9c-0.3,0.5-0.9,0.6-1.4,0.3
		c-0.1-0.1-0.2-0.2-0.3-0.3l-4-5.7c-0.3-0.5-0.9-0.6-1.4-0.3c-0.1,0.1-0.2,0.1-0.2,0.2l-2.7,3c-0.3,0.4-1,0.5-1.4,0.1
		c-0.1-0.1-0.2-0.2-0.3-0.3l-0.9-1.5c-0.3-0.5-0.9-0.7-1.4-0.4c-0.1,0-0.1,0.1-0.2,0.1l-1.8,1.4c-0.5,0.3-0.6,0.9-0.2,1.4
		c0.1,0.2,0.3,0.3,0.6,0.4l25.5,7.8c0.5,0.2,1.1,0,1.3-0.6C689.8,325.8,689.9,325.5,689.8,325.3z"/>
	<path class="st25" d="M664.1,274.7l34.8,10.2c1.8,0.5,2.9,2.4,2.3,4.3l-10.3,35.5c-0.4,1.4-1.9,2.2-3.3,1.8l0,0l-36.5-10.6
		c-1.3-0.4-2-1.7-1.6-2.9l10.4-35.8C660.5,275.1,662.3,274.1,664.1,274.7L664.1,274.7L664.1,274.7z"/>
	<circle class="st32" cx="671.5" cy="285.4" r="3.6"/>
	<path class="st36" d="M661.7,251.3c0,0-7.2-14.5-19.3-14.5c-16.9,0-26.6,45.9-24.2,60.4s-21.8,31.4-7.3,26.6
		c9.7-7.2,8.5-6.5,14.2,1.2c2.7,3.6,19.6,3.6,22,1.2c0-2.4-9.7-2.4-7.2-7.2s16.9-19.3,14.5-29s-6.9-26.7,0-29
		c7.2-2.4,16.9-2.4,16.9-2.4s-2.4-4.8-4.8-4.8S661.7,251.3,661.7,251.3z"/>
	<path class="st37" d="M651.3,264.7c0,0-11.2,2.2-12.5,12.5s-0.5,34.3,2.7,39.2l10.3-15C651.9,301.5,653,280.5,651.3,264.7z"/>
	<path class="st36" d="M633.2,281.8c0,0,21.1,1.1,31,15.4c2.2,4.4-1.4,4.9-6.9,3.9c-10.3-2-27.4-9.8-27.4-9.8"/>
	<path class="st38" d="M661.4,251c0,0-23.2-11-22.6-13s-4.9,2.4-6.4,4s26.3,12.6,27,15C660.1,259.4,661.4,251,661.4,251z"/>
	<circle class="st39" cx="648.3" cy="247.8" r="1.1"/>
	<path class="st40" d="M661.7,251.3l-2.4,4.8l2.4,3.2c0,0,12.1,1.6,9.7-0.8C670,254.4,666.1,251.5,661.7,251.3z"/>
	<path class="st5" d="M795.4,258.7l-11.6,14.1l12.6,11.5l12.2-14.8c0,0,11.5,9.5,3.4,19.4s-22.8,2.6-22.8,2.6l-20.1,22.8l-5.4-4.4
		l19.4-22.7c0,0-10.5-14.1-2.4-24S795.4,258.7,795.4,258.7z"/>
	<path class="st36" d="M776.3,251.7c0,0-7.3-14.5-19.3-14.5c-16.9,0-26.6,45.9-24.2,60.4s-21.8,31.4-7.2,26.6
		c9.7-7.2,8.5-6.5,14.2,1.2c2.7,3.6,19.6,3.6,22,1.2c0-2.4-9.7-2.4-7.2-7.2s16.9-19.3,14.5-29s-6.9-26.7,0-29c7.2-2.4,17-2.4,17-2.4
		s-2.4-4.8-4.8-4.8S776.3,251.7,776.3,251.7z"/>
	<path class="st37" d="M765.9,265.1c0,0-11.2,2.2-12.5,12.5s-0.5,34.3,2.7,39.2l10.3-15C766.5,301.9,767.6,280.9,765.9,265.1z"/>
	<path class="st36" d="M747.8,282.2c0,0,21.1,1.1,31,15.4c2.2,4.4-1.4,4.9-7,3.9c-10.3-2-27.4-9.8-27.4-9.8"/>
	<path class="st38" d="M776,251.4c0,0-23.2-11-22.6-13s-4.9,2.4-6.4,4s26.3,12.6,27,15C774.7,259.8,776,251.4,776,251.4z"/>
	<circle class="st39" cx="762.9" cy="248.2" r="1.1"/>
	<path class="st40" d="M776.3,251.7l-2.4,4.8l2.4,3.2c0,0,12.1,1.6,9.7-0.8C784.6,254.7,780.7,251.9,776.3,251.7z"/>
	<circle class="st43" cx="907.8" cy="301.2" r="20.5"/>
	<rect x="903.7" y="294.5" width="2.3" height="10.9"/>
	<rect x="909.5" y="294.5" width="2.3" height="10.9"/>
	<path class="st36" d="M890.7,252.1c0,0-7.1-14.2-18.9-14.2c-16.5,0-26,44.9-23.6,59.1s-21.3,30.7-7.1,26c9.5-7.1,8.3-6.3,13.9,1.2
		c2.7,3.5,19.2,3.5,21.6,1.2c0-2.4-9.5-2.4-7.1-7.1s16.5-18.9,14.2-28.4s-6.7-26.1,0-28.4c7.1-2.4,16.5-2.4,16.5-2.4
		s-2.4-4.7-4.7-4.7S890.7,252.1,890.7,252.1z"/>
	<path class="st37" d="M880.6,265.1c0,0-11,2.2-12.2,12.3s-0.5,33.5,2.7,38.4l10.1-14.7C881.2,301.1,882.3,280.6,880.6,265.1z"/>
	<path class="st36" d="M862.9,281.8c0,0,20.6,1,30.3,15.1c2.1,4.3-1.4,4.8-6.8,3.8c-10.1-2-26.8-9.5-26.8-9.5"/>
	<path class="st38" d="M890.5,251.7c0,0-22.7-10.7-22.1-12.7s-4.8,2.4-6.3,3.9s25.7,12.3,26.4,14.7
		C889.2,259.9,890.5,251.7,890.5,251.7z"/>
	<circle class="st39" cx="877.6" cy="248.6" r="1.1"/>
	<path class="st40" d="M890.7,252.1l-2.4,4.7l2.4,3.1c0,0,11.8,1.6,9.5-0.8C898.8,255,895.1,252.2,890.7,252.1z"/>
	
		<ellipse transform="matrix(0.3827 -0.9239 0.9239 0.3827 349.5128 1130.6029)" class="st6" cx="1020.8" cy="303.8" rx="19.9" ry="19.9"/>
	<polygon class="st5" points="1044.3,292 1046.5,297.7 1045.1,298.2 1042.9,292.5 	"/>
	
		<rect x="1028.5" y="277.8" transform="matrix(0.3226 -0.9465 0.9465 0.3226 432.1479 1164.421)" class="st32" width="2.2" height="5"/>
	<text transform="matrix(0.9465 0.3226 -0.3226 0.9465 1006.46 306.3899)" class="st9 st2 st44">60</text>
	<path class="st36" d="M1005.8,250.8c0,0-7.3-14.5-19.3-14.5c-16.9,0-26.6,45.9-24.2,60.4s-21.8,31.4-7.2,26.6
		c9.7-7.2,8.5-6.5,14.2,1.2c2.7,3.6,19.6,3.6,22,1.2c0-2.4-9.7-2.4-7.2-7.2s16.9-19.3,14.5-29s-6.9-26.7,0-29
		c7.3-2.4,16.9-2.4,16.9-2.4s-2.4-4.8-4.8-4.8S1005.8,250.8,1005.8,250.8z"/>
	<path class="st37" d="M995.5,264.2c0,0-11.2,2.2-12.5,12.5s-0.5,34.3,2.7,39.3l10.3-15C996,301,997.2,280,995.5,264.2z"/>
	<path class="st36" d="M977.4,281.2c0,0,21.1,1.1,31,15.4c2.2,4.4-1.4,5-7,3.9c-10.3-2-27.4-9.8-27.4-9.8"/>
	<path class="st38" d="M1005.5,250.5c0,0-23.2-11-22.6-13s-4.9,2.4-6.4,4s26.3,12.6,27,15S1005.5,250.5,1005.5,250.5z"/>
	<circle class="st39" cx="992.4" cy="247.3" r="1.1"/>
	<path class="st40" d="M1005.8,250.8l-2.4,4.8l2.4,3.2c0,0,12.1,1.6,9.7-0.8C1014.1,253.8,1010.3,250.9,1005.8,250.8z"/>
	<path class="st6" d="M1144.3,259.5l-18.9,26.7c-5.7,7.9-6.9,18.3-3.1,27.3c2.3,5.2,6.3,9.9,13.3,11.5c7.5,1.7,13.1-1.2,17.1-5.5
		c6.1-6.5,8.5-15.7,6.4-24.4l-8-34.3c-0.5-2-2.5-3.3-4.5-2.9C1145.7,258.1,1144.9,258.7,1144.3,259.5z"/>
	
		<rect x="1129.8" y="295.1" transform="matrix(0.2256 -0.9742 0.9742 0.2256 594.5276 1341.2675)" class="st32" width="22.4" height="3.2"/>
	
		<rect x="1139.4" y="285.5" transform="matrix(0.2256 -0.9742 0.9742 0.2256 594.5276 1341.2675)" class="st32" width="3.2" height="22.4"/>
	<path class="st36" d="M1124.2,250.2c0,0-7.2-14.5-19.3-14.5c-16.9,0-26.6,45.9-24.2,60.4s-21.8,31.4-7.2,26.6
		c9.7-7.2,8.5-6.5,14.2,1.2c2.7,3.6,19.6,3.6,22.1,1.2c0-2.4-9.7-2.4-7.2-7.3s16.9-19.3,14.5-29s-6.9-26.7,0-29
		c7.2-2.4,16.9-2.4,16.9-2.4s-2.4-4.8-4.8-4.8S1124.2,250.2,1124.2,250.2z"/>
	<path class="st37" d="M1113.8,263.6c0,0-11.2,2.2-12.5,12.5s-0.5,34.3,2.7,39.2l10.3-15C1114.4,300.4,1115.5,279.4,1113.8,263.6z"
		/>
	<path class="st36" d="M1095.7,280.7c0,0,21.1,1.1,31,15.4c2.2,4.4-1.4,5-6.9,3.9c-10.3-2-27.4-9.8-27.4-9.8"/>
	<path class="st38" d="M1123.9,249.9c0,0-23.2-11-22.6-13s-4.9,2.4-6.4,4s26.3,12.6,27,15C1122.6,258.3,1123.9,249.9,1123.9,249.9z"
		/>
	<circle class="st39" cx="1110.8" cy="246.7" r="1.1"/>
	<path class="st40" d="M1124.2,250.2l-2.4,4.8l2.4,3.2c0,0,12.1,1.6,9.7-0.8C1132.5,253.2,1128.6,250.4,1124.2,250.2z"/>
	<path class="st6" d="M1004.8,448.1L1004.8,448.1c-4.7-6.7-2.3-16.5,5.3-21.9l12.3-8.6c4.9-3.4,11.2-2.7,14.2,1.6l3.1,4.4l3.5,5
		c2.8,4,1.4,9.8-3.1,12.9l-13,9.1C1019.6,456,1009.6,454.9,1004.8,448.1z"/>
	<polyline class="st6" points="1039,424.2 1028.8,431.3 1020.3,419.1 1036.5,442.3 	"/>
	<path class="st28" d="M1007.5,388.9c0,0-7.5-14.9-19.9-14.9c-17.4,0-27.4,47.3-24.9,62.2s-22.4,32.3-7.5,27.4
		c10-7.5,8.7-6.7,14.6,1.2c2.8,3.7,20.2,3.7,22.7,1.2c0-2.5-10-2.5-7.5-7.5s17.4-19.9,14.9-29.9s-7.1-27.5,0-29.9
		c7.5-2.5,17.4-2.5,17.4-2.5s-2.5-5-5-5S1007.5,388.9,1007.5,388.9z"/>
	<path class="st29" d="M996.8,402.7c0,0-11.5,2.3-12.9,12.9s-0.5,35.3,2.8,40.4l10.7-15.5C997.4,440.5,998.6,418.9,996.8,402.7z"/>
	<path class="st28" d="M978.2,420.3c0,0,21.7,1.1,31.9,15.9c2.2,4.5-1.4,5.1-7.2,4c-10.6-2.1-28.2-10-28.2-10"/>
	<circle class="st6" cx="993.8" cy="385.2" r="1.2"/>
	<path class="st30" d="M1008,389.1l-2.5,5l2.5,3.3c0,0,12.4,1.7,10-0.8C1016.5,392.2,1012.6,389.3,1008,389.1z"/>
	
		<rect x="1116.9" y="420.3" transform="matrix(0.3138 -0.9495 0.9495 0.3138 364.2065 1381.1707)" class="st35" width="41.6" height="36.7"/>
	<path class="st18" d="M1146.4,425.4l-1.5,4.3l-4.2-1.4c-3.6,3.7-5.3,8.9-4.6,14l4.2,1.4l-1.5,4.6l-7.7-2.5c0.6-8.2,3.2-16.1,7.6-23
		L1146.4,425.4z"/>
	<path class="st18" d="M1117.5,446.8c1.1,2.1,31.1,12,31.1,12s-32.7-7.3-32.2-14.1"/>
	<path class="st28" d="M1123.3,395.4c0,0-7-14-18.7-14c-16.3,0-25.7,44.4-23.3,58.4s-21,30.3-7,25.7c9.3-7,8.2-6.3,13.7,1.2
		c2.6,3.5,19,3.5,21.3,1.2c0-2.3-9.3-2.3-7-7s16.3-18.7,14-28s-6.6-25.8,0-28c7-2.3,16.3-2.3,16.3-2.3s-2.3-4.7-4.7-4.7
		S1123.3,395.4,1123.3,395.4z"/>
	<path class="st29" d="M1113.3,408.3c0,0-10.8,2.1-12.1,12.1s-0.5,33.1,2.7,37.9l10-14.5C1113.8,443.8,1114.9,423.6,1113.3,408.3z"
		/>
	<path class="st28" d="M1095.8,424.8c0,0,20.3,1,29.9,14.9c2.1,4.2-1.3,4.8-6.7,3.7c-9.9-1.9-26.5-9.4-26.5-9.4"/>
	<circle class="st6" cx="1110.4" cy="391.9" r="1.2"/>
	<path class="st30" d="M1123.7,395.6l-2.3,4.7l2.3,3.1c0,0,11.7,1.6,9.3-0.7C1131.7,398.5,1128,395.7,1123.7,395.6z"/>
	<ellipse transform="matrix(0.4145 -0.91 0.91 0.4145 -447.1606 511.8604)" class="st7" cx="174.2" cy="603.5" rx="3.1" ry="7"/>
	<ellipse transform="matrix(0.4145 -0.91 0.91 0.4145 -434.722 520.2942)" class="st7" cx="187" cy="598" rx="3.1" ry="7"/>
	<path class="st7" d="M193,553.1c0.8,2.5,7.8,24.2,1.5,37.2c-7.3,15.2-24.6,13.4-26.4,9.6c0-0.1-0.2-0.2-0.3-0.1c0,0,0,0,0,0
		c-4,2.2-15.2,2.4-18.4-1.5c-0.1-0.1-0.1-0.2,0-0.3c2.7-4.7,10.9-8.9,13.3-25.6c0.4-9.4,9.2-18.7,8.5-17.9s-11.7-17.9,8.6-21
		c12.5-1.6,14.5,9.6,14.8,10.1c0,0,0.1,0.1,0.1,0.1l4.2,1.4c0.1,0,0.2,0.2,0.1,0.3c0,0,0,0.1-0.1,0.1l-3.5,3.5
		c-0.1,0.1-0.1,0.2-0.1,0.2C195.6,549.7,193,553,193,553.1z"/>
	<path class="st6" d="M195.6,566.3c0,0,5.6,25.3-9.2,31.9s-18.6,0.3-18.6,0.3C169.1,596.1,190.5,545.5,195.6,566.3z"/>
	<ellipse class="st8" cx="181.2" cy="547.4" rx="13.2" ry="10.1"/>
	<circle class="st9" cx="183.6" cy="543.5" r="1.6"/>
	<path class="st10" d="M194.3,548.9l-2.1,1.6c0,0-6.5-2.5-3.1-4.7c1.6-1-0.2-8.2-7.8-7.8c-3.1,0.2-12.5,4.7-1.6,15.6
		c-1.6,1.6-12.5,3.1-12.2-9.3c0.1-4.9,1.4-9.7,14.6-11.1c8.3-0.2,10.1,4.8,12.4,10.2c5.4,1.5,4.4,1.5,4.4,1.5l0,0
		C197.5,546.5,196,547.9,194.3,548.9z"/>
	<path class="st7" d="M182.2,564L182.2,564c-1.4,4.8,7.2,13.4,21.1,14.5c5.4,0.4,7.6,6.3-5.2,8.6c-5.3,1-20.8-10.4-21-15.5l-0.1-0.5
		"/>
	<path class="st6" d="M223,595.1"/>
	<path class="st6" d="M202.5,565.3c0,0-0.9,9.1-1.2,9.8l-4,11.1c-0.8,2.1,0.2,4.5,2.2,5.4l0,0c2.2,1,4.8,0.1,5.8-2.1
		c0-0.1,0.1-0.1,0.1-0.2l4.9-11.7c0.3-0.8,5.1-6.4,6.9-8.6c0.3-0.3,0.6-0.7,0.8-1.1l11.5-24.3c0.9-2.4,1.1-4.5-1.4-5.2l-7.9-2.2
		c-2-0.6-4.4-0.1-5.3,1.8C214.8,538,202.3,564.3,202.5,565.3z"/>
	<path class="st6" d="M196.7,590.3l5.7,2.2c1.2,0.4,1.8,1.7,1.3,2.9l-0.3,0.7c-0.4,1.2-1.7,1.8-2.9,1.3l-5.7-2.2
		c-1.2-0.4-1.8-1.7-1.3-2.9l0.3-0.7C194.2,590.5,195.5,589.9,196.7,590.3z"/>
	
		<rect x="202.3" y="576.4" transform="matrix(0.5098 -0.8603 0.8603 0.5098 -399.2338 459.9315)" class="st29" width="3.3" height="7.8"/>
	
		<rect x="200.7" y="582.4" transform="matrix(0.5098 -0.8603 0.8603 0.5098 -405.2142 461.4648)" class="st29" width="3.3" height="7.8"/>
	<circle class="st6" cx="226.1" cy="582.6" r="5.5"/>
	<path class="st6" d="M226.8,577.1c0,0-2.3,7.7-5.4,7.5"/>
	<path class="st6" d="M231.1,580.2c0,0-6.3,4.4-5.6,7.8"/>
	
		<ellipse transform="matrix(0.4007 -0.9162 0.9162 0.4007 -380.6535 627.1527)" class="st7" cx="289.1" cy="604.5" rx="3.2" ry="7.3"/>
	<ellipse transform="matrix(0.4007 -0.9162 0.9162 0.4007 -367.5978 636.052)" class="st7" cx="302.4" cy="599" rx="3.2" ry="7.3"/>
	<path class="st7" d="M308.6,553.4c0.9,2.5,8.1,24.5,1.5,37.7c-7.7,15.4-25.7,13.6-27.5,9.7c0-0.1-0.2-0.2-0.3-0.1c0,0,0,0,0,0
		c-4.2,2.2-15.8,2.4-19.2-1.6c-0.1-0.1-0.1-0.2,0-0.3c2.9-4.8,11.3-9,13.9-25.9c0.4-9.5,9.6-19,8.8-18.2s-12.2-18.2,8.9-21.3
		c13-1.6,15.1,9.7,15.4,10.2c0,0,0.1,0.1,0.1,0.1l4.4,1.4c0.1,0,0.2,0.2,0.2,0.3c0,0,0,0.1-0.1,0.1l-3.7,3.6
		c-0.1,0.1-0.1,0.2-0.1,0.2C311.3,549.9,308.6,553.3,308.6,553.4z"/>
	<path class="st6" d="M311.3,566.8c0,0,5.8,25.7-9.6,32.4s-19.4,0.3-19.4,0.3C283.6,597,306.1,545.7,311.3,566.8z"/>
	<ellipse class="st8" cx="296.4" cy="547.6" rx="13.8" ry="10.3"/>
	<ellipse class="st9" cx="298.8" cy="543.7" rx="1.6" ry="1.6"/>
	<path class="st10" d="M310,549.1l-2.2,1.7c0,0-6.8-2.5-3.2-4.7c1.7-1.1-0.2-8.4-8.1-7.9c-3.2,0.2-13,4.7-1.6,15.8
		c-1.6,1.6-13,3.2-12.7-9.5c0.1-5,1.5-9.8,15.2-11.2c8.6-0.2,10.5,4.9,12.9,10.4c5.6,1.5,4.5,1.5,4.5,1.5l0,0
		C313.4,546.7,311.8,548.1,310,549.1z"/>
	<path class="st7" d="M297.4,564.5L297.4,564.5c-1.4,4.9,7.5,13.6,22,14.7c5.7,0.4,7.9,6.4-5.4,8.8c-5.5,1-21.7-10.6-22-15.8
		l-0.1-0.5"/>
	<path class="st6" d="M318.9,552l38.4,13.3c1.2,0.4,1.8,1.6,1.4,2.8c-0.1,0.2-0.2,0.5-0.3,0.7l-11.1,14.6c-0.9,1.1-2.3,1.6-3.7,1.2
		l-4-1.2c-1.1-0.3-2.3,0.3-2.7,1.3l-2.6,7l-16-5.5l3.1-8.6c0.1-0.4-1.9-1-2.3-1.1l-3.1-1.1c-0.3-0.1-0.5-3.2-0.5-3.5l-1.8-14
		C314.6,554.7,312.5,550,318.9,552z"/>
	<path class="st6" d="M325.5,551c1.4-0.5,7.6-3.4,5.7-7.5s-1.5-7.2,0.7-9.8"/>
	<path class="st6" d="M336.2,554.8c1.4-0.5,7.6-3.4,5.6-7.5s-1.5-7.2,0.7-9.8"/>
	<path class="st6" d="M348.5,559c1.4-0.5,7.6-3.4,5.7-7.5s-1.5-7.2,0.7-9.8"/>
	
		<ellipse transform="matrix(0.4007 -0.9162 0.9162 0.4007 -244.9595 832.0751)" class="st11" cx="513.5" cy="603.3" rx="2.9" ry="6.7"/>
	
		<ellipse transform="matrix(0.4007 -0.9162 0.9162 0.4007 -232.9135 840.2628)" class="st11" cx="525.8" cy="598.2" rx="2.9" ry="6.7"/>
	<path class="st11" d="M531.6,556.1c0.8,2.3,7.5,22.6,1.4,34.8c-7.1,14.2-23.7,12.5-25.4,9c0-0.1-0.2-0.2-0.3-0.1c0,0,0,0,0,0
		c-3.9,2.1-14.6,2.2-17.7-1.5c-0.1-0.1-0.1-0.2,0-0.3c2.6-4.4,10.4-8.3,12.8-23.9c0.4-8.8,8.9-17.5,8.1-16.8s-11.2-16.8,8.2-19.7
		c12-1.5,13.9,9,14.2,9.4c0,0,0.1,0.1,0.1,0.1l4.1,1.3c0.1,0,0.2,0.2,0.1,0.3c0,0,0,0.1,0,0.1l-3.4,3.3c-0.1,0.1-0.1,0.2,0,0.2
		C534,553,531.5,556,531.6,556.1z"/>
	<path class="st12" d="M534,568.5c0,0,5.4,23.6-8.8,29.9s-17.9,0.3-17.9,0.3C508.5,596.3,529.2,549,534,568.5z"/>
	<ellipse class="st8" cx="520.3" cy="550.8" rx="12.7" ry="9.5"/>
	<ellipse class="st13" cx="522.5" cy="547.2" rx="1.5" ry="1.5"/>
	<path class="st14" d="M532.8,552.2l-2,1.5c0,0-6.3-2.3-3-4.4c1.5-1-0.2-7.7-7.5-7.3c-3,0.2-12,4.4-1.5,14.6
		c-1.5,1.5-12,2.9-11.7-8.7c0.1-4.5,1.3-9,14-10.4c8-0.2,9.7,4.5,11.9,9.5c5.2,1.4,4.2,1.4,4.2,1.4l0,0
		C536,550,534.5,551.2,532.8,552.2z"/>
	<path class="st11" d="M516.2,566.3L516.2,566.3c1.9,4.3,13.4,5.1,24.2-2.7c4.2-3.1,9.3-0.2,1.4,9.4c-3.3,4-21.6,5.4-24.8,1.9
		l-0.4-0.3"/>
	<path class="st6" d="M543.8,573.2l35,4.6c0,0,12.1-0.7,9.8-12.6s-10-15.5-16.8-7.7c-3,3.5,4.5-7.3,2.7-11.5s-11.5-7.3-16.7-5.1
		s-7.8,5.5-8,11.3c-0.2,6.3-2.1-8.8-12.5,1.5S533.7,570.6,543.8,573.2z"/>
	<path class="st6" d="M543,577.8c0,0-7,6.6-4.5,7.9S544.9,582.8,543,577.8z"/>
	<path class="st6" d="M554.5,579.1c0,0-7,6.6-4.5,7.9S556.4,584,554.5,579.1z"/>
	<path class="st6" d="M568.6,580.4c0,0-7,6.6-4.5,7.9S570.5,585.3,568.6,580.4z"/>
	
		<ellipse transform="matrix(0.4007 -0.9162 0.9162 0.4007 -107.4143 1050.5459)" class="st15" cx="749.3" cy="607.4" rx="3" ry="7"/>
	<ellipse transform="matrix(0.4007 -0.9162 0.9162 0.4007 -94.8817 1059.0929)" class="st15" cx="762.1" cy="602.1" rx="3" ry="7"/>
	<path class="st15" d="M768.1,558.3c0.8,2.4,7.8,23.5,1.5,36.2c-7.3,14.8-24.7,13-26.4,9.3c0-0.1-0.2-0.2-0.3-0.1c0,0,0,0,0,0
		c-4.1,2.2-15.2,2.3-18.4-1.5c-0.1-0.1-0.1-0.2,0-0.3c2.7-4.6,10.9-8.7,13.3-24.9c0.4-9.2,9.2-18.2,8.5-17.5s-11.7-17.5,8.6-20.5
		c12.5-1.5,14.5,9.3,14.8,9.8c0,0,0.1,0.1,0.1,0.1l4.2,1.4c0.1,0,0.2,0.1,0.2,0.3c0,0,0,0.1-0.1,0.1l-3.5,3.4
		c-0.1,0.1-0.1,0.2,0,0.2C770.7,555,768.1,558.2,768.1,558.3z"/>
	<path class="st12" d="M770.7,571.2c0,0,5.6,24.6-9.2,31.1s-18.6,0.3-18.6,0.3C744.1,600.2,765.6,550.9,770.7,571.2z"/>
	<ellipse class="st8" cx="756.3" cy="552.8" rx="13.3" ry="9.9"/>
	<ellipse class="st13" cx="758.7" cy="549" rx="1.6" ry="1.5"/>
	<path class="st16" d="M769.4,554.2l-2.1,1.6c0,0-6.5-2.4-3.1-4.6c1.6-1-0.2-8-7.8-7.6c-3.1,0.2-12.5,4.5-1.6,15.2
		c-1.6,1.5-12.5,3-12.2-9.1c0.1-4.7,1.4-9.4,14.6-10.8c8.3-0.2,10.1,4.7,12.4,9.9c5.4,1.5,4.4,1.5,4.4,1.5l0,0
		C772.6,551.9,771.1,553.2,769.4,554.2z"/>
	<path class="st15" d="M757.3,568.9L757.3,568.9c-1.4,4.7,7.2,13.1,21.1,14.1c5.4,0.4,7.6,6.1-5.2,8.4c-5.3,1-20.8-10.1-21.1-15.1
		l-0.2-0.5"/>
	<path class="st5" d="M779.2,556.8l1.9,0.2c1.3,0.1,2.2,1.2,2.1,2.5l-1.3,14.8c-0.1,1.3-1.2,2.2-2.5,2.1l-1.9-0.2
		c-1.3-0.1-2.2-1.2-2.1-2.5l1.3-14.8C776.8,557.7,778,556.7,779.2,556.8z"/>
	<circle class="st5" cx="779.9" cy="559.4" r="3.2"/>
	<path class="st5" d="M809.1,561.8l-0.1,0.6c-0.1,1.6-1.6,2.8-3.2,2.7l-25.7-2.3c-1.6-0.1-2.8-1.6-2.7-3.2l0.1-0.6
		c0.1-1.6,1.6-2.8,3.2-2.7l25.7,2.3C808.1,558.8,809.3,560.2,809.1,561.8z"/>
	<path class="st5" d="M808.8,563l-1.2,1.5c-0.8,1-2.3,1.1-3.2,0.3l-10.9-9.2c-1-0.8-1.1-2.3-0.3-3.2l1.2-1.5c0.8-1,2.3-1.1,3.2-0.3
		l10.9,9.2C809.5,560.6,809.6,562,808.8,563z"/>
	<path class="st5" d="M807.8,560.1l0.8,1.8c0.5,1.1,0,2.5-1.1,3l-13,6c-1.1,0.5-2.5,0-3-1.1l-0.8-1.8c-0.5-1.1,0-2.5,1.1-3l13-6
		C805.9,558.4,807.3,558.9,807.8,560.1z"/>
	<path class="st5" d="M804.1,593.9l-1.9-0.1c-1.3-0.1-2.2-1.2-2.1-2.5l1.2-14.8c0.1-1.3,1.2-2.2,2.5-2.1l1.9,0.1
		c1.3,0.1,2.2,1.2,2.1,2.5l-1.2,14.8C806.5,593.1,805.4,594,804.1,593.9z"/>
	<circle class="st5" cx="803.4" cy="591.4" r="3.2"/>
	<path class="st45" d="M776.5,587.2l0-0.6c0.1-1.6,1.6-2.9,3.2-2.7l25.8,2.1c1.6,0.1,2.9,1.6,2.7,3.2l0,0.6
		c-0.1,1.6-1.6,2.9-3.2,2.7l-25.8-2.1C777.6,590.3,776.3,588.8,776.5,587.2z"/>
	<path class="st5" d="M774.5,588.1l1.2-1.5c0.8-1,2.2-1.1,3.2-0.3l11,9.1c1,0.8,1.1,2.2,0.3,3.2l-1.2,1.5c-0.8,1-2.2,1.1-3.2,0.3
		l-11-9.1C773.8,590.5,773.7,589.1,774.5,588.1z"/>
	<path class="st5" d="M775.5,591l-0.8-1.7c-0.5-1.1-0.1-2.5,1.1-3.1l12.9-6.1c1.1-0.5,2.5-0.1,3.1,1.1l0.8,1.7
		c0.5,1.1,0.1,2.5-1.1,3.1l-12.9,6.1C777.4,592.7,776,592.2,775.5,591z"/>
	
		<ellipse transform="matrix(0.4007 -0.9162 0.9162 0.4007 -33.6955 1155.2645)" class="st15" cx="866.2" cy="603.4" rx="3.3" ry="7.6"/>
	
		<ellipse transform="matrix(0.4007 -0.9162 0.9162 0.4007 -20.0808 1164.5417)" class="st15" cx="880.1" cy="597.6" rx="3.3" ry="7.6"/>
	<path class="st15" d="M886.6,550.1c0.9,2.6,8.5,25.5,1.6,39.3c-8,16-26.8,14.2-28.7,10.1c0-0.1-0.2-0.2-0.3-0.1c0,0,0,0,0,0
		c-4.4,2.3-16.5,2.5-20-1.6c-0.1-0.1-0.1-0.2,0-0.3c3-5,11.8-9.4,14.4-27c0.4-10,10-19.8,9.2-19s-12.7-19,9.3-22.3
		c13.6-1.7,15.8,10.2,16.1,10.6c0,0.1,0.1,0.1,0.1,0.1l4.6,1.5c0.1,0,0.2,0.2,0.2,0.3c0,0,0,0.1-0.1,0.1l-3.8,3.7
		c-0.1,0.1-0.1,0.2-0.1,0.3C889.4,546.5,886.6,549.9,886.6,550.1z"/>
	<path class="st12" d="M889.4,564.1c0,0,6.1,26.8-10,33.8s-20.2,0.3-20.2,0.3C860.6,595.5,883.9,542,889.4,564.1z"/>
	<ellipse class="st8" cx="873.8" cy="544" rx="14.4" ry="10.7"/>
	<ellipse class="st13" cx="876.4" cy="539.9" rx="1.7" ry="1.7"/>
	<path class="st16" d="M888,545.6l-2.3,1.8c0,0-7.1-2.6-3.4-5c1.8-1.1-0.2-8.7-8.5-8.2c-3.4,0.2-13.6,4.9-1.7,16.5
		c-1.7,1.7-13.5,3.3-13.3-9.9c0.1-5.2,1.5-10.2,15.9-11.7c9-0.2,11,5.1,13.5,10.8c5.8,1.6,4.7,1.6,4.7,1.6l0,0
		C891.6,543.1,889.9,544.5,888,545.6z"/>
	<path class="st15" d="M874.9,561.6L874.9,561.6c-1.5,5.1,7.9,14.2,22.9,15.3c5.9,0.4,8.2,6.6-5.6,9.1c-5.8,1-22.7-11-22.9-16.4
		l-0.2-0.5"/>
	<path class="st8" d="M910.6,578.3c-5.5,0-9.9-5.4-9.9-12.1s4.4-12.1,9.9-12.1s9.9,5.4,9.9,12.1S916,578.3,910.6,578.3z"/>
	<path class="st9" d="M910.6,555.7c4.6,0,8.4,4.8,8.4,10.6s-3.8,10.6-8.4,10.6s-8.4-4.8-8.4-10.6S906,555.7,910.6,555.7
		 M910.6,552.7c-6.3,0-11.4,6.1-11.4,13.6s5.1,13.6,11.4,13.6s11.4-6.1,11.4-13.6S916.9,552.7,910.6,552.7z"/>
	<path class="st9" d="M895.7,568.3h29.8c0.9,0,1.5,0.7,1.5,1.5v24.3c0,0.9-0.7,1.5-1.5,1.5h-29.8c-0.9,0-1.5-0.7-1.5-1.5v-24.3
		C894.2,569,894.8,568.3,895.7,568.3z"/>
	<path class="st9" d="M925.5,569.8L925.5,569.8v24.3l0,0h-29.8h0v-24.3 M895.7,569.8h29.8 M925.5,566.8h-29.8c-1.7,0-3,1.3-3,2.9
		c0,0,0,0,0,0.1v24.3c0,1.7,1.3,3,3,3c0,0,0,0,0.1,0h29.8c1.7,0,3-1.3,3-3v-24.3C928.5,568.2,927.1,566.8,925.5,566.8z"/>
	<circle class="st8" cx="910.6" cy="582.6" r="4.4"/>
	<path class="st9" d="M910.6,578.7c2.1,0,3.9,1.7,3.9,3.9c0,2.1-1.7,3.9-3.9,3.9c-2.1,0-3.9-1.7-3.9-3.9S908.4,578.7,910.6,578.7
		L910.6,578.7 M910.6,577.7c-2.7,0-4.9,2.2-4.9,4.9c0,2.7,2.2,4.9,4.9,4.9c2.7,0,4.9-2.2,4.9-4.9c0,0,0,0,0,0
		C915.5,579.9,913.3,577.7,910.6,577.7z"/>
</g>
<g id="編集モード">
	<g id="レイヤー_1-2">
		<path class="st6" d="M191.7,160.2h11.4c0.5,0,1,0.3,1.3,0.7l5.7,9.5c0.4,0.7,1.4,1,2.1,0.5c0.3-0.2,0.6-0.6,0.7-0.9l2.1-9.8
			c0.2-0.8,1-1.3,1.9-1.1c0.6,0.1,1,0.6,1.1,1.2l0,0c0.1,0.7,0.8,1.3,1.5,1.3h15.1"/>
		<ellipse class="st46" cx="177.4" cy="180.3" rx="6.2" ry="2.7"/>
		<path class="st47" d="M184.3,138.6c0.7,2.2,6.9,21.3,1.3,32.7c-6.5,13.3-21.7,11.8-23.2,8.4c0-0.1-0.1-0.1-0.2-0.1c0,0,0,0,0,0
			c-3.6,1.9-13.4,2.1-16.2-1.4c0-0.1,0-0.2,0-0.2c2.4-4.1,9.6-7.8,11.7-22.5c0.4-8.3,8.1-16.5,7.4-15.8s-10.3-15.8,7.6-18.5
			c11-1.4,12.8,8.4,13,8.9c0,0,0.1,0.1,0.1,0.1l3.7,1.2c0.1,0,0.2,0.2,0.1,0.3c0,0,0,0.1-0.1,0.1l-3.1,3.1c0,0.1,0,0.2,0,0.2
			C186.6,135.6,184.3,138.5,184.3,138.6z"/>
		<ellipse class="st8" cx="173.9" cy="133.6" rx="11.7" ry="8.9"/>
		<circle class="st9" cx="176" cy="130.2" r="1.4"/>
		<path class="st48" d="M185.4,134.9l-1.9,1.4c0,0-5.7-2.2-2.7-4.1c1.4-0.9-0.1-7.3-6.9-6.9c-2.7,0.2-11,4.1-1.4,13.7
			c-1.4,1.4-11,2.7-10.7-8.2c0.1-4.3,1.2-8.5,12.8-9.8c7.3-0.2,8.9,4.2,10.9,9c4.7,1.3,3.8,1.3,3.8,1.3l0,0
			C188.3,132.9,186.9,134,185.4,134.9z"/>
		<path class="st49" d="M174.8,148.3L174.8,148.3c-1.2,4.3,6.4,11.8,18.6,12.7c4.8,0.4,6.7,5.5-4.6,7.6c-4.7,0.9-18.3-9.2-18.5-13.7
			l-0.1-0.4"/>
		<path class="st6" d="M437.5,153.9l26.7,11.8c3.1,1.3,4.5,4.9,3.3,8c-2.2,5.5-6.2,12.8-11.5,10.8c-4.6-1.8-4.7-5.7-4-8.9
			c0.7-3-0.8-6-3.6-7.2l-4.1-1.9c-2.3-1.1-5-0.6-6.9,1.1c-2.5,2.4-6.2,5.1-9.6,3.8c-4.6-1.6-2.4-10.2,2.4-15.9
			C431.9,153.5,434.9,152.8,437.5,153.9z"/>
		<rect x="432.6" y="159.8" class="st6" width="0" height="7.3"/>
		<polygon class="st6" points="429.1,162.2 436,164.7 436,164.7 		"/>
		<circle class="st50" cx="460.7" cy="171.7" r="1"/>
		<circle class="st50" cx="458" cy="172.7" r="1"/>
		<circle class="st50" cx="461.6" cy="173.7" r="1.1"/>
		<circle class="st50" cx="459" cy="175.4" r="1"/>
		<path class="st6" d="M449.5,157.8c0,0,10.9-23.6,10.2-17.3s8-2.9,8.8-4.8"/>
		<ellipse class="st46" cx="412.3" cy="181.8" rx="6.1" ry="2.7"/>
		<path class="st47" d="M419.1,140.7c0.7,2.2,6.8,21,1.3,32.3c-6.4,13.2-21.4,11.6-23,8.3c0-0.1-0.1-0.1-0.2-0.1c0,0,0,0,0,0
			c-3.5,1.9-13.2,2.1-16-1.4c-0.1-0.1-0.1-0.2,0-0.2c2.4-4.1,9.5-7.7,11.5-22.2c0.3-8.2,8-16.3,7.4-15.6s-10.2-15.6,7.5-18.3
			c10.9-1.3,12.6,8.4,12.9,8.8c0,0,0.1,0.1,0.1,0.1l3.7,1.2c0.1,0,0.2,0.1,0.1,0.2c0,0,0,0.1-0.1,0.1l-3.1,3.1c0,0.1,0,0.1,0,0.2
			C421.4,137.7,419.1,140.6,419.1,140.7z"/>
		<ellipse class="st8" cx="408.9" cy="135.7" rx="11.5" ry="8.8"/>
		<circle class="st9" cx="410.9" cy="132.3" r="1.4"/>
		<path class="st48" d="M420.2,137l-1.9,1.4c0,0-5.7-2.1-2.7-4.1c1.4-0.9-0.1-7.2-6.8-6.8c-2.7,0.2-10.9,4.1-1.4,13.6
			c-1.4,1.4-10.9,2.7-10.6-8.1c0.1-4.2,1.2-8.4,12.7-9.6c7.2-0.2,8.8,4.2,10.8,8.9c4.7,1.3,3.8,1.3,3.8,1.3l0,0
			C423.1,135,421.8,136.1,420.2,137z"/>
		<path class="st49" d="M409.7,150.2L409.7,150.2c-1.2,4.2,6.3,11.7,18.3,12.6c4.7,0.4,6.6,5.4-4.5,7.5c-4.6,0.9-18.1-9.1-18.3-13.5
			l-0.1-0.4"/>
		<path class="st6" d="M880.5,145.4h40.2c4.6,0,8.4,3.7,8.4,8.4v23.4c0,4.6-3.7,8.4-8.4,8.4h-40.2c-4.6,0-8.4-3.7-8.4-8.4v-23.4
			C872.2,149.2,875.9,145.4,880.5,145.4z"/>
		<path class="st6" d="M897.7,167l-19.8-16.9c-1.1-1-1.2-2.6-0.3-3.7c0.5-0.6,1.2-0.9,2-0.9h43.5c1.5,0,2.6,1.2,2.6,2.7
			c0,0.9-0.4,1.7-1.1,2.2l-23.7,16.8C899.9,167.8,898.6,167.8,897.7,167z"/>
		<ellipse class="st46" cx="862.2" cy="182.2" rx="5.1" ry="2.3"/>
		<path class="st47" d="M868,147.7c0.6,1.8,5.7,17.7,1.1,27.2c-5.4,11.1-18,9.8-19.3,7c0-0.1-0.1-0.1-0.2-0.1c0,0,0,0,0,0
			c-3,1.6-11.1,1.7-13.4-1.1c0-0.1,0-0.1,0-0.2c2-3.4,7.9-6.5,9.7-18.7c0.3-6.9,6.8-13.7,6.2-13.1s-8.5-13.1,6.3-15.4
			c9.1-1.1,10.6,7,10.8,7.4c0,0,0.1,0.1,0.1,0.1l3.1,1c0.1,0,0.1,0.1,0.1,0.2c0,0,0,0,0,0.1l-2.6,2.6c0,0.1,0,0.1,0,0.2
			C869.8,145.2,867.9,147.6,868,147.7z"/>
		<ellipse class="st8" cx="859.4" cy="143.5" rx="9.7" ry="7.4"/>
		<circle class="st9" cx="861.1" cy="140.7" r="1.1"/>
		<path class="st48" d="M868.9,144.6l-1.6,1.2c0,0-4.8-1.8-2.3-3.4c1.2-0.8-0.1-6-5.7-5.7c-2.3,0.1-9.1,3.4-1.1,11.4
			c-1.1,1.1-9.1,2.3-8.9-6.8c0.1-3.6,1-7.1,10.7-8.1c6-0.1,7.4,3.5,9,7.5c3.9,1.1,3.2,1.1,3.2,1.1l0,0
			C871.2,142.9,870.1,143.8,868.9,144.6z"/>
		<path class="st49" d="M860.1,155.7L860.1,155.7c-1,3.6,5.3,9.8,15.4,10.6c4,0.3,5.5,4.6-3.8,6.3c-3.9,0.7-15.2-7.6-15.4-11.4
			l-0.1-0.4"/>
		<path class="st6" d="M990.9,150.4v24.2c0,2.3,1.8,4.1,4.1,4.1h45.5c2.3,0,4.1-1.8,4.1-4.1v-24.3c0-2.3-1.8-4.1-4.1-4.1h-7.2
			c-2.3,0-4.1-1.8-4.1-4.1v-1.9c0-2.3-1.8-4.1-4.1-4.1h-13.8c-2.3,0-4.1,1.8-4.1,4.1v2.1c0,2.3-1.8,4.1-4.1,4.1c0,0,0,0-0.1,0
			l-7.8-0.1C992.8,146.3,991,148.1,990.9,150.4C990.9,150.4,990.9,150.4,990.9,150.4z"/>
		<ellipse class="st6" cx="1016.7" cy="160.3" rx="7.7" ry="7.8"/>
		<ellipse class="st46" cx="980.9" cy="177.8" rx="4.8" ry="2.1"/>
		<path class="st47" d="M986.3,145.6c0.6,1.7,5.3,16.5,1,25.3c-5,10.3-16.8,9.1-18,6.5c0-0.1-0.1-0.1-0.2-0.1c0,0,0,0,0,0
			c-2.8,1.5-10.3,1.6-12.5-1.1c0-0.1,0-0.1,0-0.2c1.9-3.2,7.4-6.1,9-17.4c0.3-6.4,6.3-12.7,5.8-12.2s-8-12.2,5.8-14.3
			c8.5-1.1,9.9,6.5,10.1,6.9c0,0,0.1,0.1,0.1,0.1l2.9,1c0.1,0,0.1,0.1,0.1,0.2c0,0,0,0.1,0,0.1l-2.4,2.4c0,0.1,0,0.1,0,0.2
			C988,143.2,986.3,145.5,986.3,145.6z"/>
		<ellipse class="st8" cx="978.3" cy="141.7" rx="9" ry="6.9"/>
		<circle class="st9" cx="979.9" cy="139" r="1.1"/>
		<path class="st48" d="M987.2,142.7l-1.5,1.1c0,0-4.5-1.7-2.1-3.2c1.1-0.7-0.1-5.6-5.3-5.3c-2.1,0.1-8.5,3.2-1.1,10.6
			c-1.1,1.1-8.5,2.1-8.3-6.4c0.1-3.3,1-6.6,9.9-7.6c5.6-0.1,6.9,3.3,8.4,6.9c3.7,1,3,1,3,1l0,0C989.4,141.1,988.4,142,987.2,142.7z"
			/>
		<path class="st49" d="M978.9,153L978.9,153c-0.9,3.3,4.9,9.1,14.4,9.9c3.7,0.3,5.2,4.3-3.5,5.9c-3.6,0.7-14.2-7.1-14.3-10.6
			l-0.1-0.3"/>
		<path class="st30" d="M1137,139.4l1.5,11.1c0.2,1.1,0.9,2.1,1.9,2.6l10,5.1c1.7,0.9,2.4,3,1.5,4.7c-0.3,0.7-0.9,1.2-1.6,1.6
			l-10.1,4.9c-1,0.5-1.8,1.5-1.9,2.6l-1.8,11c-0.3,1.9-2,3.2-3.9,3c-0.8-0.1-1.5-0.5-2.1-1.1l-7.7-8.1c-0.8-0.8-1.9-1.2-3.1-1
			l-11.1,1.8c-1.9,0.3-3.7-1-4-2.9c-0.1-0.8,0-1.5,0.4-2.2l5.3-9.9c0.5-1,0.5-2.2,0-3.2l-5.1-10c-0.9-1.7-0.2-3.8,1.5-4.7
			c0.7-0.3,1.4-0.5,2.2-0.3l11,2c1.1,0.2,2.3-0.2,3.1-1l7.9-7.9c1.3-1.4,3.5-1.6,4.9-0.3C1136.5,137.7,1136.9,138.6,1137,139.4z"/>
		<ellipse class="st46" cx="1096.5" cy="183.7" rx="5" ry="2.2"/>
		<path class="st47" d="M1102.1,150c0.6,1.8,5.5,17.2,1,26.5c-5.2,10.8-17.5,9.5-18.8,6.8c0-0.1-0.1-0.1-0.2-0.1c0,0,0,0,0,0
			c-2.9,1.6-10.8,1.7-13.1-1.1c0-0.1,0-0.1,0-0.2c2-3.3,7.7-6.3,9.4-18.2c0.3-6.7,6.6-13.3,6-12.8s-8.3-12.8,6.1-15
			c8.9-1.1,10.3,6.8,10.5,7.2c0,0,0.1,0.1,0.1,0.1l3,1c0.1,0,0.1,0.1,0.1,0.2c0,0,0,0,0,0.1l-2.5,2.5c0,0.1,0,0.1,0,0.2
			C1103.9,147.6,1102,150,1102.1,150z"/>
		<ellipse class="st8" cx="1093.7" cy="146" rx="9.4" ry="7.2"/>
		<circle class="st9" cx="1095.3" cy="143.2" r="1.1"/>
		<path class="st48" d="M1103,147l-1.5,1.2c0,0-4.7-1.8-2.2-3.3c1.2-0.7-0.1-5.9-5.5-5.6c-2.2,0.1-8.9,3.3-1.1,11.1
			c-1.1,1.1-8.9,2.2-8.7-6.6c0.1-3.5,1-6.9,10.4-7.9c5.9-0.1,7.2,3.4,8.8,7.3c3.8,1.1,3.1,1.1,3.1,1.1l0,0
			C1105.3,145.3,1104.2,146.3,1103,147z"/>
		<path class="st49" d="M1094.4,157.8L1094.4,157.8c-1,3.4,5.1,9.6,15,10.3c3.9,0.3,5.4,4.5-3.7,6.1c-3.8,0.7-14.8-7.4-15-11.1
			l-0.1-0.4"/>
		<circle class="st6" cx="790.3" cy="157.5" r="28.5"/>
		<path class="st6" d="M788.6,162L788.6,162c-0.7,0-1.2-0.5-1.2-1.2v-26.4c0-0.7,0.5-1.2,1.2-1.2l0,0c0.7,0,1.2,0.5,1.2,1.2v26.4
			C789.8,161.4,789.3,162,788.6,162z"/>
		<path class="st6" d="M788.6,159.6h19.2c0.7,0,1.2,0.5,1.2,1.2l0,0c0,0.7-0.5,1.2-1.2,1.2h-19.2c-0.7,0-1.2-0.5-1.2-1.2l0,0
			C787.4,160.1,787.9,159.6,788.6,159.6z"/>
		<ellipse class="st46" cx="751.8" cy="185" rx="5.3" ry="2.3"/>
		<path class="st47" d="M757.7,149.4c0.6,1.9,5.8,18.2,1.1,28c-5.5,11.4-18.5,10.1-19.9,7.2c0-0.1-0.1-0.1-0.2-0.1
			c-3,1.7-11.4,1.8-13.8-1.2c0-0.1,0-0.1,0-0.2c2.1-3.5,8.2-6.7,10-19.2c0.3-7.1,7-14.1,6.4-13.5s-8.8-13.5,6.5-15.8
			c9.4-1.2,10.9,7.2,11.1,7.6c0,0,0.1,0.1,0.1,0.1l3.2,1.1c0.1,0,0.1,0.1,0.1,0.2c0,0,0,0.1,0,0.1l-2.6,2.6c0,0.1,0,0.1,0,0.2
			C759.7,146.8,757.7,149.3,757.7,149.4z"/>
		<ellipse class="st8" cx="748.9" cy="145.1" rx="10" ry="7.6"/>
		<circle class="st9" cx="750.6" cy="142.2" r="1.2"/>
		<path class="st48" d="M758.7,146.2l-1.6,1.2c0,0-4.9-1.9-2.3-3.5c1.2-0.8-0.1-6.2-5.9-5.9c-2.3,0.1-9.4,3.5-1.2,11.7
			c-1.2,1.2-9.4,2.4-9.2-7c0.1-3.7,1-7.3,11-8.3c6.2-0.1,7.6,3.6,9.3,7.7c4,1.1,3.3,1.1,3.3,1.1l0,0
			C761.2,144.5,760,145.4,758.7,146.2z"/>
		<path class="st49" d="M749.6,157.6L749.6,157.6c-1,3.6,5.4,10.1,15.8,10.9c4.1,0.3,5.7,4.7-3.9,6.5c-4,0.7-15.7-7.8-15.8-11.7
			l-0.1-0.4"/>
		<path class="st6" d="M664.1,131.1l-7.6,37.1c-0.8,4.1,1.8,8.1,5.9,8.9l23.8,4.9c4.1,0.8,8.1-1.8,8.9-5.9c0,0,0,0,0,0l6.9-33.7
			c0.5-2.7-0.4-5.4-2.4-7.2l-5.3-4.6c-1-0.9-2.2-1.5-3.5-1.7l-17.8-3.7C669,124.4,665,127,664.1,131.1z"/>
		<text transform="matrix(0.9798 0.2 -0.2 0.9798 661.9307 161.7105)" class="st9 st2 st51">↓</text>
		<ellipse class="st46" cx="644.3" cy="182.9" rx="5.3" ry="2.4"/>
		<path class="st47" d="M650.3,146.8c0.6,1.9,5.9,18.4,1.1,28.4c-5.6,11.6-18.8,10.2-20.2,7.3c0-0.1-0.1-0.1-0.2-0.1c0,0,0,0,0,0
			c-3.1,1.7-11.6,1.8-14-1.2c0-0.1,0-0.1,0-0.2c2.1-3.6,8.3-6.8,10.1-19.5c0.3-7.2,7-14.3,6.5-13.7s-8.9-13.7,6.5-16
			c9.5-1.2,11.1,7.3,11.3,7.7c0,0,0.1,0.1,0.1,0.1l3.2,1.1c0.1,0,0.1,0.1,0.1,0.2c0,0,0,0.1,0,0.1l-2.7,2.7c0,0.1,0,0.1,0,0.2
			C652.3,144.2,650.3,146.7,650.3,146.8z"/>
		<ellipse class="st8" cx="641.3" cy="142.5" rx="10.1" ry="7.7"/>
		<circle class="st9" cx="643.1" cy="139.5" r="1.2"/>
		<path class="st48" d="M651.3,143.6l-1.6,1.3c0,0-5-1.9-2.4-3.6c1.2-0.8-0.1-6.3-6-5.9c-2.4,0.1-9.5,3.6-1.2,11.9
			c-1.2,1.2-9.5,2.4-9.3-7.1c0.1-3.7,1.1-7.4,11.1-8.5c6.3-0.1,7.7,3.7,9.4,7.8c4.1,1.1,3.3,1.1,3.3,1.1l0,0
			C653.8,141.8,652.6,142.8,651.3,143.6z"/>
		<path class="st49" d="M642.1,155.2L642.1,155.2c-1,3.7,5.5,10.2,16.1,11c4.2,0.3,5.8,4.8-3.9,6.6c-4,0.8-15.9-7.9-16.1-11.8
			l-0.1-0.4"/>
		<path class="st6" d="M555.5,126.8l20.3,6.7c0.3,0.1,0.5,0.4,0.4,0.7c0,0.1-0.1,0.2-0.2,0.3l-21.7,15.4c-0.3,0.2-0.4,0.5-0.2,0.8
			c0.1,0.1,0.2,0.2,0.3,0.2l8.4,4c0.3,0.1,0.4,0.5,0.3,0.8c0,0.1-0.1,0.1-0.1,0.2l-27.5,24.3c-0.2,0.2-0.6,0.2-0.8-0.1
			c-0.1-0.1-0.1-0.2-0.1-0.4l1-18c0-0.2,0.2-0.5,0.4-0.5l12.8-2.9c0.3-0.1,0.5-0.4,0.4-0.7c0-0.1-0.1-0.2-0.2-0.3l-10.2-7.8
			c-0.3-0.2-0.3-0.5-0.1-0.8c0,0,0,0,0,0L555.5,126.8L555.5,126.8z"/>
		<ellipse class="st46" cx="524" cy="183.4" rx="5.9" ry="2.6"/>
		<path class="st47" d="M530.6,143.6c0.7,2.1,6.5,20.3,1.2,31.3c-6.2,12.8-20.7,11.3-22.2,8.1c0-0.1-0.1-0.1-0.2-0.1c0,0,0,0,0,0
			c-3.4,1.9-12.8,2-15.5-1.3c0-0.1,0-0.2,0-0.2c2.3-3.9,9.1-7.5,11.2-21.5c0.3-7.9,7.8-15.7,7.1-15.1s-9.8-15.1,7.2-17.7
			c10.5-1.3,12.2,8.1,12.4,8.5c0,0,0.1,0.1,0.1,0.1l3.6,1.2c0.1,0,0.2,0.1,0.1,0.3c0,0,0,0.1,0,0.1l-3,2.9c-0.1,0.1-0.1,0.1,0,0.2
			C532.8,140.8,530.6,143.5,530.6,143.6z"/>
		<ellipse class="st8" cx="520.7" cy="138.8" rx="11.1" ry="8.5"/>
		<circle class="st9" cx="522.7" cy="135.6" r="1.3"/>
		<path class="st48" d="M531.7,140.1l-1.8,1.4c0,0-5.5-2.1-2.6-3.9c1.4-0.9-0.1-6.9-6.5-6.6c-2.6,0.2-10.5,3.9-1.3,13.1
			c-1.3,1.3-10.5,2.6-10.3-7.8c0.1-4.1,1.2-8.1,12.3-9.3c7-0.2,8.5,4,10.4,8.6c4.5,1.3,3.7,1.3,3.7,1.3l0,0
			C534.4,138.1,533.1,139.2,531.7,140.1z"/>
		<path class="st49" d="M521.5,152.8L521.5,152.8c-1.2,4.1,6.1,11.3,17.7,12.2c4.6,0.3,6.4,5.3-4.3,7.2c-4.5,0.8-17.5-8.8-17.7-13.1
			l-0.1-0.4"/>
		<path class="st6" d="M313.1,143.5h24.8c6.1,0,11.1,5,11.1,11.1v12.2c0,6.1-5,11.1-11.1,11.1h-24.8c-6.1,0-11.1-5-11.1-11.1v-12.2
			C301.9,148.5,306.9,143.5,313.1,143.5z"/>
		
			<rect x="315.7" y="131.7" transform="matrix(0.7961 -0.6052 0.6052 0.7961 -18.6991 219.1568)" class="st52" width="0.3" height="11.3"/>
		
			<rect x="330.9" y="138.8" transform="matrix(0.7096 -0.7046 0.7046 0.7096 -0.203 277.34)" class="st6" width="10.8" height="0.3"/>
		<path class="st6" d="M318.3,152.9h14.4c3.8,0,6.9,3.1,6.9,6.9v4.9c0,3.8-3.1,6.9-6.9,6.9h-14.4c-3.8,0-6.9-3.1-6.9-6.9v-4.9
			C311.3,156,314.4,152.9,318.3,152.9z"/>
		<ellipse class="st46" cx="288.9" cy="180.2" rx="5.8" ry="2.6"/>
		<path class="st47" d="M295.4,141.1c0.7,2.1,6.4,20,1.2,30.7c-6.1,12.5-20.4,11.1-21.8,7.9c0-0.1-0.1-0.1-0.2-0.1c0,0,0,0,0,0
			c-3.3,1.8-12.6,2-15.2-1.3c0-0.1,0-0.2,0-0.2c2.3-3.9,9-7.4,11-21.1c0.3-7.8,7.6-15.5,7-14.8s-9.7-14.8,7.1-17.4
			c10.3-1.3,12,7.9,12.2,8.3c0,0,0.1,0.1,0.1,0.1l3.5,1.2c0.1,0,0.2,0.1,0.1,0.2c0,0,0,0.1-0.1,0.1l-2.9,2.9c0,0.1,0,0.1,0,0.2
			C297.5,138.3,295.4,141,295.4,141.1z"/>
		<ellipse class="st8" cx="285.6" cy="136.4" rx="11" ry="8.4"/>
		<circle class="st9" cx="287.6" cy="133.2" r="1.3"/>
		<path class="st48" d="M296.4,137.6l-1.8,1.4c0,0-5.4-2-2.6-3.9c1.3-0.9-0.1-6.8-6.5-6.4c-2.6,0.1-10.3,3.9-1.3,12.9
			c-1.3,1.3-10.3,2.6-10.1-7.7c0.1-4,1.1-8,12-9.2c6.9-0.1,8.3,4,10.2,8.4c4.4,1.2,3.6,1.2,3.6,1.2l0,0
			C299.1,135.7,297.8,136.8,296.4,137.6z"/>
		<path class="st49" d="M286.5,150.2L286.5,150.2c-1.1,4,6,11.1,17.4,11.9c4.5,0.4,6.3,5.2-4.3,7.1c-4.4,0.8-17.2-8.6-17.4-12.8
			l-0.1-0.4"/>
		<polygon class="st6" points="92.2,146.1 88.2,133.9 97.4,142.5 97.4,126.9 103.2,140 108.2,126.8 108.4,138.7 119.7,134.9 
			110.8,141.8 115.9,148.6 109.4,147.9 112.5,160.7 106.1,153.2 105.1,161.9 100.6,156.2 93.6,167.5 91.8,159.5 95.6,153.3 
			79.8,159.9 85.9,153.4 78.3,148.2 90.9,147.6 		"/>
		<ellipse class="st46" cx="61.6" cy="177" rx="5.6" ry="2.5"/>
		<path class="st47" d="M67.9,139.5c0.7,2,6.2,19.1,1.2,29.4c-5.8,12-19.5,10.6-20.9,7.6c0-0.1-0.1-0.1-0.2-0.1c0,0,0,0,0,0
			c-3.2,1.7-12,1.9-14.6-1.2c0-0.1,0-0.2,0-0.2c2.2-3.7,8.6-7.1,10.5-20.3c0.3-7.5,7.3-14.8,6.7-14.2s-9.3-14.2,6.8-16.7
			c9.9-1.2,11.5,7.6,11.7,8c0,0,0.1,0.1,0.1,0.1l3.3,1.1c0.1,0,0.1,0.1,0.1,0.2c0,0,0,0.1,0,0.1l-2.8,2.8c-0.1,0.1-0.1,0.1-0.1,0.2
			C69.9,136.8,67.8,139.4,67.9,139.5z"/>
		<ellipse class="st8" cx="58.5" cy="135" rx="10.5" ry="8"/>
		<circle class="st9" cx="60.4" cy="131.9" r="1.2"/>
		<path class="st48" d="M68.9,136.2l-1.7,1.3c0,0-5.2-2-2.5-3.7c1.3-0.8-0.1-6.5-6.2-6.2c-2.5,0.2-9.9,3.7-1.2,12.3
			c-1.2,1.2-9.9,2.5-9.7-7.4c0.1-3.9,1.1-7.7,11.5-8.8c6.6-0.1,8,3.8,9.8,8.1c4.2,1.2,3.4,1.2,3.4,1.2l0,0
			C71.5,134.3,70.3,135.4,68.9,136.2z"/>
		<path class="st49" d="M59.3,148.2L59.3,148.2c-1.1,3.8,5.7,10.6,16.7,11.5c4.3,0.3,6,5-4.1,6.8c-4.2,0.8-16.5-8.2-16.7-12.3
			l-0.1-0.4"/>
	</g>
</g>
</svg>
