<svg xmlns="http://www.w3.org/2000/svg" viewBox="0 0 1190.55 841.89"><defs><style>.cls-1,.cls-11,.cls-6{fill:#fff;}.cls-1{opacity:0.51;}.cls-12,.cls-13,.cls-2{fill:none;stroke-miterlimit:10;}.cls-2{stroke:#ccc;}.cls-3{font-size:12px;font-family:KozGoPro-Regular-83pv-RKSJ-H, Kozuka Gothic Pro;}.cls-4{letter-spacing:0.25em;}.cls-5{letter-spacing:-0.5em;}.cls-7{fill:#e8caca;}.cls-8{fill:#c39395;}.cls-10,.cls-9{fill:#e0b4b5;}.cls-10{font-size:31.7px;}.cls-10,.cls-11{font-family:ToppanBunkyuMidashiMinchoStdN-ExtraBold-83pv-RKSJ-H, Toppan Bunkyu Midashi Mincho;}.cls-11{font-size:24px;}.cls-12{stroke:#c39395;}.cls-12,.cls-13{stroke-width:5px;}.cls-13{stroke:#e8caca;}</style></defs><g id="レイヤー_4" data-name="レイヤー 4"><rect class="cls-1" width="1190.55" height="841.89"/></g><g id="テンプレート"><rect class="cls-2" x="28.83" y="87.3" width="100" height="100"/><rect class="cls-2" x="143.83" y="87.3" width="100" height="100"/><rect class="cls-2" x="258.83" y="87.3" width="100" height="100"/><rect class="cls-2" x="373.83" y="87.3" width="100" height="100"/><rect class="cls-2" x="488.83" y="87.3" width="100" height="100"/><rect class="cls-2" x="603.83" y="87.3" width="100" height="100"/><rect class="cls-2" x="718.83" y="87.3" width="100" height="100"/><rect class="cls-2" x="833.83" y="87.3" width="100" height="100"/><rect class="cls-2" x="948.83" y="87.3" width="100" height="100"/><rect class="cls-2" x="1063.83" y="87.3" width="100" height="100"/><rect class="cls-2" x="28.83" y="228.07" width="100" height="100"/><rect class="cls-2" x="143.83" y="228.07" width="100" height="100"/><rect class="cls-2" x="258.83" y="228.07" width="100" height="100"/><rect class="cls-2" x="373.83" y="228.07" width="100" height="100"/><rect class="cls-2" x="488.83" y="228.07" width="100" height="100"/><rect class="cls-2" x="603.83" y="228.07" width="100" height="100"/><rect class="cls-2" x="718.83" y="228.07" width="100" height="100"/><rect class="cls-2" x="833.83" y="228.07" width="100" height="100"/><rect class="cls-2" x="948.83" y="228.07" width="100" height="100"/><rect class="cls-2" x="1063.83" y="228.07" width="100" height="100"/><rect class="cls-2" x="28.83" y="368.84" width="100" height="100"/><rect class="cls-2" x="143.83" y="368.84" width="100" height="100"/><rect class="cls-2" x="258.83" y="368.84" width="100" height="100"/><rect class="cls-2" x="373.83" y="368.84" width="100" height="100"/><rect class="cls-2" x="488.83" y="368.84" width="100" height="100"/><rect class="cls-2" x="603.83" y="368.84" width="100" height="100"/><rect class="cls-2" x="718.83" y="368.84" width="100" height="100"/><rect class="cls-2" x="833.83" y="368.84" width="100" height="100"/><rect class="cls-2" x="948.83" y="368.84" width="100" height="100"/><rect class="cls-2" x="1063.83" y="368.84" width="100" height="100"/><rect class="cls-2" x="28.83" y="509.61" width="100" height="100"/><rect class="cls-2" x="143.83" y="509.61" width="100" height="100"/><rect class="cls-2" x="258.83" y="509.61" width="100" height="100"/><rect class="cls-2" x="373.83" y="509.61" width="100" height="100"/><rect class="cls-2" x="488.83" y="509.61" width="100" height="100"/><rect class="cls-2" x="603.83" y="509.61" width="100" height="100"/><rect class="cls-2" x="718.83" y="509.61" width="100" height="100"/><rect class="cls-2" x="833.83" y="509.61" width="100" height="100"/><rect class="cls-2" x="948.83" y="509.61" width="100" height="100"/><rect class="cls-2" x="1063.83" y="509.61" width="100" height="100"/><rect class="cls-2" x="28.83" y="650.38" width="100" height="100"/><rect class="cls-2" x="143.83" y="650.38" width="100" height="100"/><rect class="cls-2" x="258.83" y="650.38" width="100" height="100"/><rect class="cls-2" x="373.83" y="650.38" width="100" height="100"/><rect class="cls-2" x="488.83" y="650.38" width="100" height="100"/><rect class="cls-2" x="603.83" y="650.38" width="100" height="100"/><rect class="cls-2" x="718.83" y="650.38" width="100" height="100"/><rect class="cls-2" x="833.83" y="650.38" width="100" height="100"/><rect class="cls-2" x="948.83" y="650.38" width="100" height="100"/><rect class="cls-2" x="1063.83" y="650.38" width="100" height="100"/><text/></g><g id="アイコン名"><text class="cls-3" transform="translate(66.83 213.41)">ばつ</text><text class="cls-3" transform="translate(186.08 213.41)">&lt;&gt;</text><text class="cls-3" transform="translate(299.12 213.41)">&lt;/&gt;</text><text class="cls-3" transform="translate(400.83 213.41)">ファイル</text><text class="cls-3" transform="translate(522.16 213.41)">ボタン</text><text class="cls-3" transform="translate(643.5 213.41)">文字</text><text class="cls-3" transform="translate(752.83 213.41)">工事系</text><text class="cls-3" transform="translate(878.3 213.41)">[→</text><text class="cls-3" transform="translate(983.5 213.41)">なんか</text><text class="cls-3" transform="translate(1111.41 213.41)">Ai</text><text class="cls-3" transform="translate(48.83 351.9)">サングラス</text><text class="cls-3" transform="translate(188.16 351.9)">め</text><text class="cls-3" transform="translate(279.5 351.9)">止まるやつ</text><text class="cls-3" transform="translate(418.83 351.9)">星</text><text class="cls-3" transform="translate(534.16 351.9)">枠</text><text class="cls-3" transform="translate(649.5 351.9)">薬</text><text class="cls-3" transform="translate(758.83 351.9)">名刺</text><text class="cls-3" transform="translate(880.16 351.9)">！</text><text class="cls-3" transform="translate(994.92 351.9)">xd</text><text class="cls-3" transform="translate(1110.87 351.9)">Ps</text><text class="cls-3" transform="translate(54.83 492.39)">伊達眼鏡</text><text class="cls-3" transform="translate(137.94 492.39)">メガ<tspan class="cls-4" x="24" y="0">ネ(</tspan><tspan x="45.72" y="0">レンズあ</tspan><tspan class="cls-4" x="93.72" y="0">り</tspan><tspan x="108.72" y="0">)</tspan></text><text class="cls-3" transform="translate(283.28 492.39)">ね<tspan class="cls-4" x="12" y="0">こ(無</tspan><tspan x="48.72" y="0">)</tspan></text><text class="cls-3" transform="translate(386.61 492.39)">ね<tspan class="cls-4" x="12" y="0">こ(</tspan><tspan x="33.72" y="0">苦笑</tspan><tspan class="cls-4" x="57.72" y="0">い</tspan><tspan x="72.72" y="0">)</tspan></text><text class="cls-3" transform="translate(501.94 492.39)">ね<tspan class="cls-4" x="12" y="0">こ(</tspan><tspan x="33.72" y="0">まゆ</tspan><tspan class="cls-4" x="57.72" y="0">げ</tspan><tspan x="72.72" y="0">)</tspan></text><text class="cls-3" transform="translate(623.28 492.39)">ね<tspan class="cls-4" x="12" y="0">こ(</tspan><tspan x="33.72" y="0">ア</tspan><tspan class="cls-4" x="45.72" y="0">セ</tspan><tspan x="60.72" y="0">)</tspan></text><text class="cls-3" transform="translate(732.61 492.39)"><tspan class="cls-4">薬(</tspan><tspan x="21.72" y="0">たくさ</tspan><tspan class="cls-4" x="57.72" y="0">ん</tspan><tspan x="72.72" y="0">)</tspan></text><text class="cls-3" transform="translate(835.94 492.39)">ね<tspan class="cls-4" x="12" y="0">こ(</tspan><tspan x="33.72" y="0">コロナ対</tspan><tspan class="cls-4" x="81.72" y="0">策</tspan><tspan x="96.72" y="0">)</tspan></text><text class="cls-3" transform="translate(957.28 492.39)">ね<tspan class="cls-4" x="12" y="0">こ(</tspan><tspan x="33.72" y="0">ドン引</tspan><tspan class="cls-4" x="69.72" y="0">き</tspan><tspan x="84.72" y="0">)</tspan></text><text class="cls-3" transform="translate(1084.61 492.39)">ね<tspan class="cls-4" x="12" y="0">こ(</tspan><tspan x="33.72" y="0">女</tspan><tspan class="cls-4" x="45.72" y="0">装</tspan><tspan x="60.72" y="0">)</tspan></text><text class="cls-3" transform="translate(66.83 630.89)">ぬこ</text><text class="cls-3" transform="translate(176.16 630.89)">マウス</text><text class="cls-3" transform="translate(267.5 630.89)">ホワイトボード</text><text class="cls-3" transform="translate(418.83 630.89)">的</text><text class="cls-3" transform="translate(531.16 630.89)">←<tspan class="cls-5" x="12" y="0">］</tspan></text><text class="cls-3" transform="translate(619.5 630.89)">ダウンロード</text><text class="cls-3" transform="translate(734.83 630.89)">アップロード</text><text class="cls-3" transform="translate(862.16 630.89)">アイコン</text><text class="cls-3" transform="translate(977.5 630.89)">アイコン</text><text class="cls-3" transform="translate(1066.61 630.89)">うさ<tspan class="cls-4" x="24" y="0">ぎ(</tspan><tspan x="45.72" y="0">ドン引</tspan><tspan class="cls-4" x="81.72" y="0">き</tspan><tspan x="96.72" y="0">)</tspan></text><text class="cls-3" transform="translate(22.61 773.38)">うさ<tspan class="cls-4" x="24" y="0">ぎ(</tspan><tspan x="45.72" y="0">コロナ対</tspan><tspan class="cls-4" x="93.72" y="0">策</tspan><tspan x="108.72" y="0">)</tspan></text><text class="cls-3" transform="translate(149.94 773.38)">うさ<tspan class="cls-4" x="24" y="0">ぎ(</tspan><tspan x="45.72" y="0">苦笑</tspan><tspan class="cls-4" x="69.72" y="0">い</tspan><tspan x="84.72" y="0">)</tspan></text><text class="cls-3" transform="translate(265.28 773.38)">うさ<tspan class="cls-4" x="24" y="0">ぎ(</tspan><tspan x="45.72" y="0">まゆ</tspan><tspan class="cls-4" x="69.72" y="0">げ</tspan><tspan x="84.72" y="0">)</tspan></text><text class="cls-3" transform="translate(386.61 773.38)">うさ<tspan class="cls-4" x="24" y="0">ぎ(</tspan><tspan x="45.72" y="0">ア</tspan><tspan class="cls-4" x="57.72" y="0">セ</tspan><tspan x="72.72" y="0">)</tspan></text><text class="cls-3" transform="translate(507.94 773.38)">うさ<tspan class="cls-4" x="24" y="0">ぎ(無</tspan><tspan x="60.72" y="0">)</tspan></text><text class="cls-3" transform="translate(617.28 773.38)">うさ<tspan class="cls-4" x="24" y="0">ぎ(</tspan><tspan x="45.72" y="0">女</tspan><tspan class="cls-4" x="57.72" y="0">装</tspan><tspan x="72.72" y="0">)</tspan></text><text class="cls-3" transform="translate(720.61 773.38)">く<tspan class="cls-4" x="12" y="0">ま(</tspan><tspan x="33.72" y="0">コロナ対</tspan><tspan class="cls-4" x="81.72" y="0">策</tspan><tspan x="96.72" y="0">)</tspan></text><text class="cls-3" transform="translate(841.94 773.38)">く<tspan class="cls-4" x="12" y="0">ま(</tspan><tspan x="33.72" y="0">ドン引</tspan><tspan class="cls-4" x="69.72" y="0">き</tspan><tspan x="84.72" y="0">)</tspan></text><text class="cls-3" transform="translate(975.28 773.38)">く<tspan class="cls-4" x="12" y="0">ま(無</tspan><tspan x="48.72" y="0">)</tspan></text><text class="cls-3" transform="translate(1084.61 773.38)">く<tspan class="cls-4" x="12" y="0">ま(</tspan><tspan x="33.72" y="0">ア</tspan><tspan class="cls-4" x="45.72" y="0">セ</tspan><tspan x="60.72" y="0">)</tspan></text><rect x="66.71" y="144.11" width="18.78" height="0.78"/><text/><rect class="cls-6" x="1015.97" y="419.63" width="0.89" height="12.45"/><rect class="cls-7" x="269.37" y="531.76" width="79.59" height="50.38"/><rect class="cls-6" x="274.73" y="534.94" width="69.53" height="44.01"/><circle class="cls-7" cx="423.83" cy="560.51" r="25.56"/><circle class="cls-6" cx="423.83" cy="560.51" r="20.1"/><circle class="cls-7" cx="423.83" cy="560.51" r="13.86"/></g><g id="レイヤー_3" data-name="レイヤー 3"><ellipse class="cls-7" cx="1101.72" cy="544.68" rx="5.93" ry="25.76" transform="translate(-59.94 143.43) rotate(-7.25)"/><ellipse class="cls-7" cx="1125.98" cy="544.68" rx="25.76" ry="5.93" transform="translate(466.16 1607.3) rotate(-83.98)"/><ellipse class="cls-7" cx="193.83" cy="281.38" rx="24.22" ry="12.73"/><rect class="cls-7" x="512.57" y="128" width="54.37" height="27.23" rx="13.35"/><rect class="cls-8" x="742.43" y="144.62" width="37.55" height="8.49" rx="2.88" transform="translate(190.21 673.79) rotate(-53.66)"/><circle class="cls-6" cx="773.87" cy="131.43" r="12.66"/><rect class="cls-8" x="72.99" y="119.4" width="9.28" height="37.14" rx="3.62" transform="translate(-71.23 84.08) rotate(-40.73)"/><rect class="cls-7" x="72.48" y="119.64" width="9.81" height="37.14" rx="3.62" transform="translate(120.4 -14.24) rotate(45)"/><path class="cls-8" d="M172.52,142.82h0a5.78,5.78,0,0,1,0-7l7.91-9.7a3.52,3.52,0,0,1,5.69,0h0a5.76,5.76,0,0,1,0,7l-7.91,9.71A3.52,3.52,0,0,1,172.52,142.82Z"/><path class="cls-7" d="M187.63,149.56h0c-1.29,2.27-3.8,2.89-5.62,1.38l-9.13-7.58a5.6,5.6,0,0,1-.95-6.84h0c1.29-2.27,3.81-2.89,5.62-1.38l9.13,7.58A5.58,5.58,0,0,1,187.63,149.56Z"/><path class="cls-8" d="M200.65,149.22h0c1.28,2.28,3.82,2.92,5.67,1.43l9.31-7.5a5.55,5.55,0,0,0,1-6.84h0c-1.28-2.28-3.82-2.92-5.68-1.43l-9.31,7.51A5.55,5.55,0,0,0,200.65,149.22Z"/><circle class="cls-9" cx="774.67" cy="130.56" r="12.66"/><circle class="cls-6" cx="778.34" cy="126.46" r="9.31"/><circle class="cls-6" cx="752.29" cy="160.98" r="1.31"/><rect class="cls-9" x="396.52" y="121.68" width="22.02" height="10.11"/><path class="cls-9" d="M418.54,121.68c0,.9,1.71,5.29,4,5.29h-4Z"/><rect class="cls-7" x="396.52" y="126.97" width="52.1" height="32.79" rx="3.62"/><rect class="cls-6" x="516.63" y="130.78" width="46.25" height="21.69" rx="10.84"/><circle class="cls-9" cx="528.07" cy="141.62" r="9.18"/><text class="cls-10" transform="translate(641.15 145.69) scale(1.17 1)">A</text><rect class="cls-8" x="639.49" y="148.5" width="32.3" height="3.51"/><path class="cls-8" d="M285,142.66h0a5.78,5.78,0,0,1,0-7l7.91-9.7a3.52,3.52,0,0,1,5.69,0h0a5.78,5.78,0,0,1,0,7l-7.91,9.7A3.52,3.52,0,0,1,285,142.66Z"/><path class="cls-7" d="M300.13,149.41h0c-1.29,2.27-3.8,2.88-5.62,1.38l-9.13-7.59a5.6,5.6,0,0,1-.95-6.84h0c1.29-2.27,3.81-2.89,5.62-1.38l9.13,7.58A5.6,5.6,0,0,1,300.13,149.41Z"/><path class="cls-8" d="M322.58,149.48h0c1.28,2.28,3.82,2.92,5.67,1.43l9.31-7.51a5.55,5.55,0,0,0,1-6.83h0c-1.28-2.28-3.82-2.92-5.67-1.43l-9.31,7.51A5.53,5.53,0,0,0,322.58,149.48Z"/><rect class="cls-9" x="309.37" y="119.52" width="5.49" height="38.87" rx="2.33" transform="translate(101.05 -129.7) rotate(27.85)"/><rect class="cls-7" x="872.66" y="142.86" width="6.86" height="20.06" rx="3.43" transform="translate(1028.98 -723.19) rotate(90)"/><rect class="cls-8" x="879" y="132.54" width="21.26" height="6.68" rx="2.12"/><path class="cls-9" d="M892.45,129.17v13.42a1.1,1.1,0,0,0,1.65.95l11.63-6.71a1.1,1.1,0,0,0,0-1.9l-11.63-6.71A1.1,1.1,0,0,0,892.45,129.17Z"/><rect class="cls-9" x="866.06" y="115.43" width="6.86" height="40.9" rx="3.43"/><rect class="cls-7" x="872.66" y="108.83" width="6.86" height="20.06" rx="3.43" transform="translate(994.95 -757.23) rotate(90)"/><rect class="cls-9" x="972.26" y="114" width="56.05" height="48.71" rx="3.76"/><rect class="cls-7" x="978.04" y="123.84" width="44.06" height="34.99" rx="2.54"/><circle class="cls-6" cx="1012.75" cy="119.28" r="2.13"/><circle class="cls-6" cx="1003.98" cy="119.28" r="2.13"/><circle class="cls-6" cx="1020.9" cy="119.28" r="2.13"/><rect class="cls-6" x="1003.2" y="129.9" width="14.07" height="14.07" rx="2"/><rect class="cls-6" x="981.88" y="131.15" width="17.54" height="3.23" rx="1.61"/><rect class="cls-6" x="982.27" y="139.7" width="17.54" height="3.27" rx="1.63"/><rect class="cls-6" x="981.88" y="148.67" width="35.84" height="3.26" rx="1.63"/><rect class="cls-7" x="1087.83" y="113.74" width="49.24" height="49.24" rx="5.84"/><rect class="cls-7" x="1087.83" y="253.45" width="49.24" height="49.24" rx="5.84"/><rect class="cls-7" x="974.21" y="253.45" width="49.24" height="49.24" rx="5.84"/><text class="cls-11" transform="translate(1097.67 147.33)">Ai</text><text class="cls-11" transform="translate(1097.67 287.31)">Ps</text><text class="cls-11" transform="translate(981.88 287.55)">Xd</text><text/><text/><text/><rect class="cls-6" x="64.87" y="139.36" width="12.84" height="1.39" rx="0.7" transform="translate(-78.16 91.43) rotate(-45)"/><ellipse class="cls-6" cx="76.94" cy="134.3" rx="1.26" ry="0.67" transform="translate(-73.68 98.65) rotate(-46.88)"/><rect class="cls-6" x="172.21" y="144.27" width="9.43" height="1.13" rx="0.57" transform="translate(128.43 -78.61) rotate(38.45)"/><ellipse class="cls-6" cx="181.71" cy="148.64" rx="0.65" ry="0.86" transform="matrix(0.62, -0.78, 0.78, 0.62, -47.69, 198.52)"/><path class="cls-7" d="M216.2,142.66h0a5.72,5.72,0,0,0,0-7l-8-9.7a3.59,3.59,0,0,0-5.76,0h0a5.72,5.72,0,0,0,0,7l8,9.7A3.59,3.59,0,0,0,216.2,142.66Z"/><rect class="cls-6" x="206.51" y="131.99" width="9.43" height="1.13" rx="0.57" transform="matrix(-0.63, -0.78, 0.78, -0.63, 241.52, 380.09)"/><ellipse class="cls-6" cx="207.37" cy="127.81" rx="0.65" ry="0.86" transform="translate(-34.17 159.36) rotate(-39.09)"/><path class="cls-7" d="M338.13,142.92h0a5.72,5.72,0,0,0,0-7l-8-9.7a3.59,3.59,0,0,0-5.76,0h0a5.7,5.7,0,0,0,0,7l8,9.71A3.6,3.6,0,0,0,338.13,142.92Z"/><rect class="cls-6" x="328.08" y="131.65" width="9.43" height="1.13" rx="0.57" transform="translate(440 473.89) rotate(-129.09)"/><ellipse class="cls-6" cx="328.94" cy="127.47" rx="0.65" ry="0.86" transform="translate(-6.75 235.93) rotate(-39.09)"/><rect class="cls-6" x="285.31" y="143.57" width="9.43" height="1.13" rx="0.57" transform="translate(152.52 -149.09) rotate(38.45)"/><ellipse class="cls-6" cx="294.81" cy="147.94" rx="0.65" ry="0.86" transform="matrix(0.62, -0.78, 0.78, 0.62, -4.37, 286.83)"/><rect class="cls-6" x="307.29" y="135.88" width="9.43" height="1.13" rx="0.57" transform="translate(45.61 348.58) rotate(-62.15)"/><ellipse class="cls-6" cx="309.18" cy="141.8" rx="0.86" ry="0.65" transform="translate(31.79 338.65) rotate(-60)"/><rect class="cls-6" x="444.51" y="132.52" width="1.9" height="16.51" rx="0.95"/><ellipse class="cls-6" cx="445.46" cy="130.23" rx="0.84" ry="1.29"/><rect class="cls-7" x="876.55" y="251.45" width="12.22" height="34.73" rx="6.11"/><rect class="cls-9" x="877.31" y="288.43" width="10.69" height="10.69" rx="5.05"/><path class="cls-9" d="M888.76,257.56v22.52c-.07,2-1.2,4.42-3.07,5.3s-2.26.85-3,.8L886.73,253A5.9,5.9,0,0,1,888.76,257.56Z"/><rect class="cls-6" x="878.26" y="259.68" width="1.36" height="15.05" rx="0.68"/><rect class="cls-6" x="878.26" y="256.88" width="1.35" height="1.35" rx="0.68"/><rect class="cls-9" x="736.85" y="260.96" width="64.09" height="45.45" rx="6.08"/><rect class="cls-6" x="742.79" y="265.17" width="52.2" height="37.02" rx="6.08"/><rect class="cls-8" x="772.44" y="274.56" width="14.8" height="2.23" rx="1.04"/><rect class="cls-7" x="772.49" y="286.68" width="14.8" height="2.27" rx="1.04"/><rect class="cls-9" x="772.44" y="280.62" width="14.8" height="2.26" rx="1.04"/><rect class="cls-7" x="748.64" y="283.44" width="19.92" height="11.83" rx="5.09"/><circle class="cls-6" cx="758.19" cy="279.53" r="7.56"/><circle class="cls-7" cx="758.19" cy="279.53" r="5.7"/><rect class="cls-7" x="748.64" y="289.36" width="19.92" height="6.03"/><rect class="cls-6" x="749.89" y="288.71" width="0.93" height="5.74" rx="0.47"/><circle class="cls-6" cx="750.36" cy="287.78" r="0.47"/><circle class="cls-6" cx="754.63" cy="276.58" r="0.34"/><rect class="cls-6" x="753.64" y="276.98" width="0.56" height="1.99" rx="0.28" transform="translate(208.59 -312.18) rotate(27.02)"/><rect class="cls-6" x="773.6" y="274.98" width="4.73" height="0.27" rx="0.13"/><rect class="cls-6" x="773.6" y="280.99" width="4.73" height="0.27" rx="0.13"/><rect class="cls-6" x="773.6" y="287.17" width="4.73" height="0.27" rx="0.13"/><rect class="cls-7" x="632.63" y="249.51" width="43.8" height="58.86" rx="5.74"/><rect class="cls-7" x="632.63" y="301.05" width="0.65" height="2.45"/><rect class="cls-7" x="675.69" y="301" width="0.73" height="2.85"/><rect class="cls-6" x="636.92" y="253.68" width="34.96" height="51.92" rx="3.06"/><rect class="cls-8" x="644.31" y="260.95" width="6.81" height="3.36" rx="1.47"/><rect class="cls-8" x="644.31" y="287.64" width="6.81" height="3.36" rx="1.47"/><rect class="cls-9" x="658.3" y="287.64" width="6.81" height="3.36" rx="1.47"/><rect class="cls-7" x="658.3" y="269.84" width="6.81" height="3.36" rx="1.47"/><rect class="cls-9" x="658.3" y="260.95" width="6.81" height="3.36" rx="1.47"/><rect class="cls-7" x="644.31" y="278.74" width="6.81" height="3.36" rx="1.47"/><rect class="cls-9" x="644.31" y="269.84" width="6.81" height="3.36" rx="1.47"/><rect class="cls-8" x="658.3" y="278.74" width="6.81" height="3.36" rx="1.47"/><rect class="cls-6" x="645.38" y="261.49" width="2.56" height="0.39" rx="0.2"/><rect class="cls-6" x="645.37" y="270.37" width="2.56" height="0.39" rx="0.2"/><rect class="cls-6" x="645.37" y="279.13" width="2.56" height="0.39" rx="0.2"/><rect class="cls-6" x="645.37" y="288.19" width="2.56" height="0.39" rx="0.2"/><rect class="cls-6" x="659.35" y="288.19" width="2.56" height="0.39" rx="0.2"/><rect class="cls-6" x="659.35" y="279.13" width="2.56" height="0.39" rx="0.2"/><rect class="cls-6" x="659.33" y="270.37" width="2.56" height="0.39" rx="0.2"/><rect class="cls-6" x="659.14" y="261.49" width="2.56" height="0.39" rx="0.2"/><rect class="cls-8" x="658.3" y="296.54" width="6.81" height="3.36" rx="1.47"/><rect class="cls-6" x="659.36" y="297.08" width="2.56" height="0.39" rx="0.2"/><rect class="cls-7" x="644.53" y="296.54" width="6.81" height="3.36" rx="1.47"/><rect class="cls-6" x="645.59" y="296.93" width="2.56" height="0.39" rx="0.2"/><rect class="cls-8" x="509.74" y="261.77" width="13.94" height="5.41" rx="2.15" transform="translate(781.19 -252.23) rotate(90)"/><rect class="cls-7" x="514.01" y="257.51" width="13.94" height="5.41" rx="2.15"/><rect class="cls-6" x="516.52" y="258.33" width="5.07" height="0.55" rx="0.22"/><circle class="cls-6" cx="522.05" cy="258.61" r="0.27"/><rect class="cls-7" x="552.81" y="261.77" width="13.94" height="5.41" rx="2.15" transform="translate(824.26 -295.31) rotate(90)"/><rect class="cls-8" x="552.81" y="283.05" width="13.94" height="5.41" rx="2.15" transform="translate(274.03 845.54) rotate(-90)"/><rect class="cls-7" x="548.55" y="287.31" width="13.94" height="5.41" rx="2.15" transform="translate(1111.04 580.03) rotate(180)"/><rect class="cls-6" x="550.45" y="287.97" width="5.07" height="0.55" rx="0.22" transform="translate(1105.97 576.48) rotate(180)"/><circle class="cls-6" cx="556.23" cy="288.24" r="0.27"/><rect class="cls-7" x="510.36" y="282.34" width="13.94" height="5.41" rx="2.15" transform="translate(232.28 802.37) rotate(-90)"/><rect class="cls-8" x="514.62" y="286.6" width="13.94" height="5.41" rx="2.15"/><rect class="cls-6" x="520.55" y="287.27" width="5.07" height="0.55" rx="0.22"/><circle class="cls-6" cx="526.08" cy="287.55" r="0.27"/><rect class="cls-8" x="548.55" y="257.51" width="13.94" height="5.41" rx="2.15" transform="translate(1111.04 520.43) rotate(-180)"/><rect class="cls-6" x="550.12" y="258.08" width="5.07" height="0.55" rx="0.22"/><circle class="cls-6" cx="555.65" cy="258.35" r="0.27"/><path class="cls-12" d="M423.36,298.2l16.9-29.28a1,1,0,0,0-.84-1.46H405.61a1,1,0,0,0-.85,1.46l16.91,29.28A1,1,0,0,0,423.36,298.2Z"/><path class="cls-13" d="M421.64,256.6l-18,31.2a1,1,0,0,0,.87,1.51h36a1,1,0,0,0,.87-1.51l-18-31.2A1,1,0,0,0,421.64,256.6Z"/><circle class="cls-9" cx="422.51" cy="278.19" r="4.66"/><rect class="cls-6" x="413.78" y="258.87" width="1.41" height="15.61" rx="0.71" transform="translate(188.87 -171.51) rotate(30)"/><circle class="cls-6" cx="419.14" cy="258.61" r="0.81"/><circle class="cls-6" cx="419.93" cy="275.34" r="0.27"/><rect class="cls-6" x="418.99" y="275.59" width="0.46" height="1.68" rx="0.23" transform="translate(194.38 -172.57) rotate(30)"/><circle class="cls-7" cx="309.5" cy="274.95" r="24.33"/><rect class="cls-6" x="290.65" y="270.31" width="38.5" height="9.28" rx="1.83"/><ellipse class="cls-6" cx="193.83" cy="281.69" rx="20.82" ry="10.17"/><circle class="cls-9" cx="193.83" cy="281.38" r="8.46"/><circle class="cls-7" cx="55.6" cy="421.78" r="11.72"/><circle class="cls-7" cx="89.94" cy="421.44" r="11.72"/><rect class="cls-7" x="66.04" y="418.88" width="14.16" height="3.76"/><rect class="cls-7" x="95.03" y="415.67" width="17.92" height="3.76" transform="translate(-179.23 93.6) rotate(-27.18)"/><rect class="cls-7" x="58.76" y="411.35" width="14.24" height="3.76" transform="translate(-169.26 67.1) rotate(-25.13)"/><rect class="cls-7" x="71.18" y="409.4" width="8.74" height="3.76" transform="translate(83.24 -6.81) rotate(11.46)"/><rect class="cls-7" x="110.6" y="412.65" width="8.74" height="3.76" transform="translate(84.67 -14.58) rotate(11.46)"/><circle class="cls-7" cx="54.05" cy="282.47" r="11.72"/><circle class="cls-7" cx="88.39" cy="282.13" r="11.72"/><rect class="cls-7" x="64.49" y="279.57" width="14.16" height="3.76"/><rect class="cls-7" x="93.48" y="276.36" width="17.92" height="3.76" transform="translate(-115.77 77.51) rotate(-27.18)"/><rect class="cls-7" x="57.21" y="272.04" width="14.24" height="3.76" transform="translate(-110.24 53.25) rotate(-25.13)"/><rect class="cls-7" x="69.62" y="270.09" width="8.74" height="3.76" transform="translate(55.53 -9.28) rotate(11.46)"/><rect class="cls-7" x="109.05" y="273.34" width="8.74" height="3.76" transform="translate(56.96 -17.05) rotate(11.46)"/><circle class="cls-6" cx="55.6" cy="421.78" r="8.29"/><circle class="cls-6" cx="89.94" cy="421.44" r="8.29"/><circle class="cls-7" cx="170.75" cy="421.54" r="11.72"/><circle class="cls-7" cx="205.09" cy="421.2" r="11.72"/><rect class="cls-7" x="181.19" y="418.64" width="14.16" height="3.76"/><rect class="cls-7" x="210.18" y="415.43" width="17.92" height="3.76" transform="translate(-166.41 146.16) rotate(-27.18)"/><rect class="cls-7" x="173.91" y="411.11" width="14.24" height="3.76" transform="translate(-158.26 115.98) rotate(-25.13)"/><rect class="cls-7" x="186.33" y="409.16" width="8.74" height="3.76" transform="translate(85.49 -29.7) rotate(11.46)"/><rect class="cls-7" x="225.75" y="412.41" width="8.74" height="3.76" transform="translate(86.92 -37.47) rotate(11.46)"/><circle class="cls-6" cx="170.75" cy="421.54" r="8.29"/><circle class="cls-6" cx="205.09" cy="421.2" r="8.29"/><rect class="cls-7" x="168.89" y="424.79" width="14.6" height="1.54" transform="translate(-266.02 296.74) rotate(-51.27)"/><rect class="cls-7" x="165.94" y="423.14" width="16.39" height="1.54" transform="translate(-265.5 294.52) rotate(-51.27)"/><rect class="cls-7" x="203.29" y="424.31" width="14.6" height="1.54" transform="translate(-252.77 323.39) rotate(-51.27)"/><rect class="cls-7" x="200.34" y="422.66" width="16.39" height="1.54" transform="translate(-252.25 321.17) rotate(-51.27)"/><circle class="cls-8" cx="193.83" cy="281.38" r="6.45"/><path class="cls-7" d="M289,397.85l.83,15.45a1.77,1.77,0,0,0,2.57,1.48L303.67,409a1.77,1.77,0,0,0,.3-2.95l-12.08-9.67A1.76,1.76,0,0,0,289,397.85Z"/><path class="cls-7" d="M331.14,396.78l-12.3,9.39a1.77,1.77,0,0,0,.23,3l11.11,6a1.77,1.77,0,0,0,2.61-1.41L334,398.32A1.77,1.77,0,0,0,331.14,396.78Z"/><path class="cls-6" d="M291,401.77l.48,9.1a1.77,1.77,0,0,0,2.58,1.48l6.63-3.4A1.77,1.77,0,0,0,301,406l-7.12-5.71A1.77,1.77,0,0,0,291,401.77Z"/><path class="cls-6" d="M328.81,401l-7.51,5.73a1.77,1.77,0,0,0,.23,3l6.78,3.69a1.77,1.77,0,0,0,2.61-1.42l.72-9.42A1.76,1.76,0,0,0,328.81,401Z"/><ellipse class="cls-7" cx="311.19" cy="421.9" rx="24.57" ry="18.02"/><rect class="cls-7" x="281.23" y="424.64" width="10.8" height="1.22" transform="translate(123.46 -60.93) rotate(15.43)"/><rect class="cls-7" x="281.23" y="428.09" width="10.8" height="1.22"/><polygon class="cls-7" points="331.36 427.84 341.37 424.93 341.06 423.74 331.05 426.65 331.36 427.84"/><rect class="cls-7" x="331.02" y="428.68" width="10.39" height="1.24" transform="translate(672.43 858.59) rotate(180)"/><circle class="cls-6" cx="302.98" cy="421.51" r="4.24"/><circle class="cls-6" cx="319.54" cy="421.51" r="4.24"/><circle class="cls-7" cx="302.98" cy="421.51" r="3.18"/><circle class="cls-7" cx="319.54" cy="421.51" r="3.18"/><path class="cls-7" d="M402.54,397.16l.82,15.45a1.78,1.78,0,0,0,2.58,1.48l11.25-5.78a1.76,1.76,0,0,0,.29-2.95l-12.07-9.68A1.77,1.77,0,0,0,402.54,397.16Z"/><path class="cls-7" d="M444.66,396.09l-12.3,9.39a1.77,1.77,0,0,0,.23,3l11.11,6a1.77,1.77,0,0,0,2.61-1.41l1.18-15.43A1.76,1.76,0,0,0,444.66,396.09Z"/><path class="cls-6" d="M404.54,401.08l.49,9.1a1.76,1.76,0,0,0,2.57,1.48l6.63-3.4a1.77,1.77,0,0,0,.3-3l-7.12-5.7A1.77,1.77,0,0,0,404.54,401.08Z"/><path class="cls-6" d="M442.32,400.26l-7.5,5.73a1.77,1.77,0,0,0,.23,3l6.78,3.69a1.77,1.77,0,0,0,2.61-1.42l.72-9.42A1.77,1.77,0,0,0,442.32,400.26Z"/><ellipse class="cls-7" cx="424.71" cy="421.21" rx="24.57" ry="18.02"/><rect class="cls-7" x="394.74" y="423.94" width="10.8" height="1.22" transform="translate(127.36 -91.15) rotate(15.43)"/><rect class="cls-7" x="394.74" y="427.4" width="10.8" height="1.22"/><polygon class="cls-7" points="444.88 427.15 454.89 424.24 454.58 423.05 444.57 425.96 444.88 427.15"/><rect class="cls-7" x="444.54" y="427.99" width="10.39" height="1.24" transform="translate(899.46 857.21) rotate(180)"/><circle class="cls-6" cx="416.5" cy="420.82" r="4.24"/><circle class="cls-6" cx="433.06" cy="420.82" r="4.24"/><circle class="cls-7" cx="416.5" cy="420.82" r="3.18"/><circle class="cls-7" cx="433.06" cy="420.82" r="3.18"/><line class="cls-6" x1="426.88" y1="424.55" x2="424.71" y2="427.4"/><path class="cls-6" d="M426.37,424.58h-2.92a.19.19,0,0,0-.16.28l1.46,2.53a.19.19,0,0,0,.32,0l1.46-2.53A.19.19,0,0,0,426.37,424.58Z"/><rect class="cls-6" x="424.6" y="426.61" width="0.62" height="3.39"/><polygon class="cls-6" points="428.61 429.15 421.71 429.06 424.8 434.91 428.61 429.15"/><rect class="cls-7" x="408.55" y="415.31" width="11.7" height="3.14" transform="translate(-144.65 235.3) rotate(-27.18)"/><path class="cls-6" d="M405.54,417.63s-1.75,2.31-1.58,3.46c.1.68.44,1.51,1.37,1.56s1.38-.17,1.51-1.44S405.54,417.63,405.54,417.63Z"/><path class="cls-7" d="M516.54,398.22l.82,15.45a1.78,1.78,0,0,0,2.58,1.48l11.25-5.78a1.76,1.76,0,0,0,.29-2.95l-12.07-9.68A1.77,1.77,0,0,0,516.54,398.22Z"/><path class="cls-7" d="M558.66,397.15l-12.3,9.39a1.77,1.77,0,0,0,.23,3l11.11,6a1.77,1.77,0,0,0,2.61-1.41l1.18-15.43A1.76,1.76,0,0,0,558.66,397.15Z"/><path class="cls-6" d="M518.54,402.13l.49,9.11a1.76,1.76,0,0,0,2.57,1.48l6.63-3.4a1.77,1.77,0,0,0,.3-3l-7.12-5.7A1.77,1.77,0,0,0,518.54,402.13Z"/><path class="cls-6" d="M556.32,401.32l-7.5,5.73a1.77,1.77,0,0,0,.23,3l6.78,3.69a1.77,1.77,0,0,0,2.61-1.42l.72-9.42A1.77,1.77,0,0,0,556.32,401.32Z"/><ellipse class="cls-7" cx="538.71" cy="422.27" rx="24.57" ry="18.02"/><rect class="cls-7" x="508.74" y="425" width="10.8" height="1.22" transform="translate(131.75 -121.44) rotate(15.43)"/><rect class="cls-7" x="508.74" y="428.46" width="10.8" height="1.22"/><polygon class="cls-7" points="558.88 428.21 568.89 425.3 568.58 424.11 558.57 427.02 558.88 428.21"/><rect class="cls-7" x="558.54" y="429.05" width="10.39" height="1.24" transform="translate(1127.46 859.33) rotate(180)"/><circle class="cls-6" cx="530.5" cy="421.87" r="4.24"/><circle class="cls-6" cx="547.06" cy="421.87" r="4.24"/><circle class="cls-7" cx="530.5" cy="421.87" r="3.18"/><circle class="cls-7" cx="547.06" cy="421.87" r="3.18"/><rect class="cls-6" x="523.48" y="413.82" width="12.17" height="2.73"/><rect class="cls-6" x="540.97" y="413.82" width="12.17" height="2.73"/><path class="cls-7" d="M633.35,400.42l.82,15.45a1.77,1.77,0,0,0,2.57,1.48L648,411.57a1.77,1.77,0,0,0,.3-2.95l-12.07-9.68A1.77,1.77,0,0,0,633.35,400.42Z"/><path class="cls-7" d="M675.46,399.35l-12.29,9.39a1.76,1.76,0,0,0,.23,2.95l11.11,6a1.76,1.76,0,0,0,2.6-1.42l1.19-15.42A1.77,1.77,0,0,0,675.46,399.35Z"/><path class="cls-6" d="M635.35,404.33l.49,9.11a1.76,1.76,0,0,0,2.57,1.48l6.63-3.4a1.78,1.78,0,0,0,.3-3l-7.12-5.7A1.77,1.77,0,0,0,635.35,404.33Z"/><path class="cls-6" d="M673.13,403.52l-7.5,5.73a1.77,1.77,0,0,0,.22,3l6.79,3.68a1.76,1.76,0,0,0,2.6-1.41l.73-9.42A1.77,1.77,0,0,0,673.13,403.52Z"/><ellipse class="cls-7" cx="655.52" cy="424.47" rx="24.57" ry="18.02"/><rect class="cls-7" x="625.55" y="427.2" width="10.8" height="1.22" transform="translate(136.55 -152.43) rotate(15.43)"/><rect class="cls-7" x="625.55" y="430.66" width="10.8" height="1.22"/><polygon class="cls-7" points="675.69 430.41 685.7 427.5 685.39 426.3 675.38 429.22 675.69 430.41"/><rect class="cls-7" x="675.34" y="431.24" width="10.39" height="1.24" transform="translate(1361.07 863.73) rotate(180)"/><circle class="cls-6" cx="647.31" cy="424.07" r="4.24"/><circle class="cls-6" cx="663.87" cy="424.07" r="4.24"/><circle class="cls-7" cx="647.31" cy="424.07" r="3.18"/><circle class="cls-7" cx="663.87" cy="424.07" r="3.18"/><text/><rect class="cls-7" x="739.31" y="388.2" width="43.8" height="58.86" rx="5.74"/><rect class="cls-7" x="739.31" y="439.74" width="0.65" height="2.45"/><rect class="cls-7" x="782.38" y="439.69" width="0.73" height="2.85"/><rect class="cls-6" x="743.6" y="392.37" width="34.96" height="51.92" rx="3.06"/><rect class="cls-8" x="751" y="399.64" width="6.81" height="3.36" rx="1.47"/><rect class="cls-8" x="751" y="426.33" width="6.81" height="3.36" rx="1.47"/><rect class="cls-9" x="764.98" y="426.33" width="6.81" height="3.36" rx="1.47"/><rect class="cls-7" x="764.98" y="408.54" width="6.81" height="3.36" rx="1.47"/><rect class="cls-9" x="764.98" y="399.64" width="6.81" height="3.36" rx="1.47"/><rect class="cls-7" x="751" y="417.43" width="6.81" height="3.36" rx="1.47"/><rect class="cls-9" x="751" y="408.54" width="6.81" height="3.36" rx="1.47"/><rect class="cls-8" x="764.98" y="417.43" width="6.81" height="3.36" rx="1.47"/><rect class="cls-6" x="752.06" y="400.18" width="2.56" height="0.39" rx="0.2"/><rect class="cls-6" x="752.06" y="409.06" width="2.56" height="0.39" rx="0.2"/><rect class="cls-6" x="752.06" y="417.82" width="2.56" height="0.39" rx="0.2"/><rect class="cls-6" x="752.06" y="426.88" width="2.56" height="0.39" rx="0.2"/><rect class="cls-6" x="766.03" y="426.88" width="2.56" height="0.39" rx="0.2"/><rect class="cls-6" x="766.03" y="417.82" width="2.56" height="0.39" rx="0.2"/><rect class="cls-6" x="766.01" y="409.06" width="2.56" height="0.39" rx="0.2"/><rect class="cls-6" x="765.82" y="400.18" width="2.56" height="0.39" rx="0.2"/><rect class="cls-8" x="764.98" y="435.23" width="6.81" height="3.36" rx="1.47"/><rect class="cls-6" x="766.04" y="435.77" width="2.56" height="0.39" rx="0.2"/><rect class="cls-7" x="751.21" y="435.23" width="6.81" height="3.36" rx="1.47"/><rect class="cls-6" x="752.27" y="435.62" width="2.56" height="0.39" rx="0.2"/><text/><rect class="cls-7" x="773.02" y="409.01" width="28.28" height="38" rx="5.74"/><rect class="cls-7" x="773.02" y="442.28" width="0.42" height="1.58"/><rect class="cls-7" x="800.82" y="442.25" width="0.47" height="1.84"/><rect class="cls-6" x="775.79" y="411.7" width="22.57" height="33.52" rx="3.06"/><rect class="cls-8" x="780.56" y="416.39" width="4.4" height="2.17" rx="1.08"/><rect class="cls-8" x="780.56" y="433.63" width="4.4" height="2.17" rx="1.08"/><rect class="cls-9" x="789.59" y="433.63" width="4.4" height="2.17" rx="1.08"/><rect class="cls-7" x="789.59" y="422.14" width="4.4" height="2.17" rx="1.08"/><rect class="cls-9" x="789.59" y="416.39" width="4.4" height="2.17" rx="1.08"/><rect class="cls-7" x="780.56" y="427.88" width="4.4" height="2.17" rx="1.08"/><rect class="cls-9" x="780.56" y="422.14" width="4.4" height="2.17" rx="1.08"/><rect class="cls-8" x="789.59" y="427.88" width="4.4" height="2.17" rx="1.08"/><rect class="cls-6" x="781.25" y="416.74" width="1.65" height="0.25" rx="0.13"/><rect class="cls-6" x="781.25" y="422.48" width="1.65" height="0.25" rx="0.13"/><rect class="cls-6" x="781.25" y="428.13" width="1.65" height="0.25" rx="0.13"/><rect class="cls-6" x="781.25" y="433.98" width="1.65" height="0.25" rx="0.13"/><rect class="cls-6" x="790.27" y="433.98" width="1.65" height="0.25" rx="0.13"/><rect class="cls-6" x="790.27" y="428.13" width="1.65" height="0.25" rx="0.13"/><rect class="cls-6" x="790.26" y="422.48" width="1.65" height="0.25" rx="0.13"/><rect class="cls-6" x="790.14" y="416.74" width="1.65" height="0.25" rx="0.13"/><rect class="cls-8" x="789.59" y="439.37" width="4.4" height="2.17" rx="1.08"/><rect class="cls-6" x="790.28" y="439.72" width="1.65" height="0.25" rx="0.13"/><rect class="cls-7" x="780.71" y="439.37" width="4.4" height="2.17" rx="1.08"/><rect class="cls-6" x="781.39" y="439.62" width="1.65" height="0.25" rx="0.13"/><path class="cls-6" d="M637.29,418.61s-1.75,2.31-1.58,3.46c.1.68.44,1.51,1.36,1.56s1.39-.17,1.51-1.44S637.29,418.61,637.29,418.61Z"/><path class="cls-6" d="M635.79,424.47s-1.1,1.45-1,2.17c.07.43.28.95.86,1s.88-.1,1-.9A5.29,5.29,0,0,0,635.79,424.47Z"/><path class="cls-6" d="M674.94,427.9s-1.75,2.31-1.58,3.45c.1.69.44,1.51,1.36,1.56s1.39-.16,1.51-1.43S674.94,427.9,674.94,427.9Z"/><rect class="cls-6" x="640.46" y="418.28" width="8.48" height="1.46" transform="translate(-123.58 449.78) rotate(-35.31)"/><rect class="cls-6" x="661.85" y="418.28" width="8.48" height="1.46" transform="translate(373.01 -311.3) rotate(35.96)"/><path class="cls-7" d="M861.54,401.77l.82,15.45a1.78,1.78,0,0,0,2.58,1.48l11.25-5.78a1.76,1.76,0,0,0,.29-2.95l-12.07-9.67A1.76,1.76,0,0,0,861.54,401.77Z"/><path class="cls-7" d="M903.66,400.7l-12.3,9.39a1.77,1.77,0,0,0,.23,3l11.11,6a1.77,1.77,0,0,0,2.61-1.41l1.18-15.43A1.76,1.76,0,0,0,903.66,400.7Z"/><path class="cls-6" d="M863.54,405.69l.49,9.1a1.76,1.76,0,0,0,2.57,1.48l6.63-3.4a1.77,1.77,0,0,0,.3-3l-7.12-5.7A1.77,1.77,0,0,0,863.54,405.69Z"/><path class="cls-6" d="M901.32,404.87l-7.5,5.73a1.77,1.77,0,0,0,.23,3l6.78,3.69a1.77,1.77,0,0,0,2.61-1.42l.72-9.42A1.77,1.77,0,0,0,901.32,404.87Z"/><ellipse class="cls-7" cx="883.71" cy="425.82" rx="24.57" ry="18.02"/><rect class="cls-7" x="853.74" y="428.56" width="10.8" height="1.22" transform="translate(145.13 -213.09) rotate(15.43)"/><rect class="cls-7" x="853.74" y="432.01" width="10.8" height="1.22"/><polygon class="cls-7" points="903.88 431.76 913.89 428.85 913.58 427.66 903.57 430.57 903.88 431.76"/><rect class="cls-7" x="903.54" y="432.6" width="10.39" height="1.24" transform="translate(1817.46 866.43) rotate(180)"/><circle class="cls-6" cx="875.5" cy="425.43" r="4.24"/><circle class="cls-6" cx="892.06" cy="425.43" r="4.24"/><circle class="cls-7" cx="875.5" cy="425.43" r="3.18"/><circle class="cls-7" cx="892.06" cy="425.43" r="3.18"/><rect class="cls-6" x="872.32" y="430.08" width="22.77" height="11.72" rx="1.69"/><rect class="cls-6" x="857.41" y="428.63" width="16.47" height="1.07" transform="translate(192.08 -263.53) rotate(19.43)"/><rect class="cls-6" x="893.44" y="428.07" width="16.47" height="1.07" transform="translate(-95.65 383.26) rotate(-22.82)"/><rect class="cls-6" x="894.01" y="440.13" width="6.4" height="1.07" transform="translate(36.43 -67.5) rotate(4.4)"/><rect class="cls-6" x="868.34" y="440.53" width="6.4" height="1.07" transform="translate(-60.87 149.97) rotate(-9.5)"/><rect class="cls-7" x="875.73" y="432.99" width="16.1" height="0.78"/><rect class="cls-7" x="875.73" y="435.7" width="16.1" height="0.78"/><rect class="cls-7" x="875.73" y="438.35" width="16.1" height="0.78"/><path class="cls-7" d="M976.54,403.33l.82,15.45a1.78,1.78,0,0,0,2.58,1.48l11.25-5.78a1.76,1.76,0,0,0,.29-3l-12.07-9.68A1.77,1.77,0,0,0,976.54,403.33Z"/><path class="cls-7" d="M1018.66,402.26l-12.3,9.39a1.77,1.77,0,0,0,.23,3l11.11,6a1.77,1.77,0,0,0,2.61-1.41l1.18-15.43A1.76,1.76,0,0,0,1018.66,402.26Z"/><path class="cls-6" d="M978.54,407.24l.49,9.11a1.76,1.76,0,0,0,2.57,1.48l6.63-3.4a1.77,1.77,0,0,0,.3-3l-7.12-5.7A1.77,1.77,0,0,0,978.54,407.24Z"/><path class="cls-6" d="M1016.32,406.43l-7.5,5.73a1.77,1.77,0,0,0,.23,3l6.78,3.69a1.77,1.77,0,0,0,2.61-1.42l.72-9.42A1.77,1.77,0,0,0,1016.32,406.43Z"/><ellipse class="cls-7" cx="998.71" cy="427.38" rx="24.57" ry="18.02"/><rect class="cls-7" x="968.74" y="430.11" width="10.8" height="1.22" transform="translate(149.69 -243.63) rotate(15.43)"/><rect class="cls-7" x="968.74" y="433.57" width="10.8" height="1.22"/><polygon class="cls-7" points="1018.88 433.32 1028.89 430.41 1028.58 429.21 1018.57 432.13 1018.88 433.32"/><rect class="cls-7" x="1018.54" y="434.16" width="10.39" height="1.24" transform="translate(2047.46 869.55) rotate(180)"/><circle class="cls-6" cx="990.5" cy="426.98" r="4.24"/><circle class="cls-6" cx="1007.06" cy="426.98" r="4.24"/><circle class="cls-7" cx="990.5" cy="426.98" r="3.18"/><circle class="cls-7" cx="1007.06" cy="426.98" r="3.18"/><rect class="cls-6" x="1017.38" y="419.27" width="0.67" height="11.24"/><rect class="cls-6" x="1015.97" y="422.24" width="0.64" height="9.15"/><rect class="cls-6" x="1014.5" y="423.28" width="0.55" height="8.2"/><rect class="cls-6" x="995.5" y="434.16" width="6.62" height="1.24"/><path class="cls-6" d="M1000.17,429.37h-2.92a.19.19,0,0,0-.16.28l1.46,2.53a.19.19,0,0,0,.32,0l1.46-2.53A.19.19,0,0,0,1000.17,429.37Z"/><rect class="cls-6" x="998.4" y="431.4" width="0.62" height="3.39"/><path class="cls-7" d="M1091.54,402.13l.82,15.45a1.77,1.77,0,0,0,2.58,1.48l11.25-5.77a1.77,1.77,0,0,0,.29-3l-12.07-9.67A1.77,1.77,0,0,0,1091.54,402.13Z"/><path class="cls-7" d="M1133.66,401.06l-12.3,9.39a1.77,1.77,0,0,0,.23,3l11.11,6a1.77,1.77,0,0,0,2.61-1.42l1.18-15.43A1.76,1.76,0,0,0,1133.66,401.06Z"/><path class="cls-6" d="M1093.54,406.05l.49,9.11a1.77,1.77,0,0,0,2.57,1.48l6.63-3.41a1.77,1.77,0,0,0,.3-3l-7.12-5.71A1.77,1.77,0,0,0,1093.54,406.05Z"/><path class="cls-6" d="M1131.32,405.23l-7.5,5.74a1.76,1.76,0,0,0,.23,2.95l6.78,3.69a1.77,1.77,0,0,0,2.61-1.42l.72-9.41A1.77,1.77,0,0,0,1131.32,405.23Z"/><ellipse class="cls-7" cx="1113.71" cy="426.19" rx="24.57" ry="18.02"/><rect class="cls-7" x="1083.74" y="428.92" width="10.8" height="1.22" transform="translate(153.51 -274.27) rotate(15.43)"/><rect class="cls-7" x="1083.74" y="432.38" width="10.8" height="1.22"/><polygon class="cls-7" points="1133.88 432.13 1143.89 429.21 1143.58 428.02 1133.57 430.93 1133.88 432.13"/><rect class="cls-7" x="1133.54" y="432.96" width="10.39" height="1.24" transform="translate(2277.46 867.16) rotate(180)"/><circle class="cls-6" cx="1105.5" cy="425.79" r="4.24"/><circle class="cls-6" cx="1122.06" cy="425.79" r="4.24"/><circle class="cls-7" cx="1105.5" cy="425.79" r="3.18"/><circle class="cls-7" cx="1122.06" cy="425.79" r="3.18"/><rect class="cls-6" x="1110.17" y="432.05" width="7.33" height="1.87" rx="0.94"/><rect class="cls-6" x="1110.05" y="434.81" width="7.33" height="1.54" rx="0.77"/><rect class="cls-6" x="1100.92" y="420.7" width="0.67" height="3.01" transform="translate(-63.56 607.19) rotate(-30)"/><rect class="cls-6" x="1102.76" y="419.64" width="0.67" height="3.01" transform="translate(-62.78 607.97) rotate(-30)"/><rect class="cls-6" x="1124.33" y="420.11" width="0.67" height="3.01" transform="translate(446.34 -569.6) rotate(35.06)"/><rect class="cls-6" x="1125.86" y="421.19" width="0.67" height="3.01" transform="translate(447.24 -570.28) rotate(35.06)"/><path class="cls-6" d="M1115.21,428.27h-2.92a.18.18,0,0,0-.16.27l1.47,2.53a.18.18,0,0,0,.31,0l1.46-2.53A.18.18,0,0,0,1115.21,428.27Z"/><rect class="cls-6" x="1113.44" y="430.29" width="0.62" height="3.39"/><ellipse class="cls-6" cx="1096.6" cy="430.71" rx="3.38" ry="1.42"/><ellipse class="cls-6" cx="1129.78" cy="430.71" rx="3.38" ry="1.42"/><path class="cls-7" d="M55.93,539.51,56.75,555a1.78,1.78,0,0,0,2.58,1.48l11.25-5.78a1.77,1.77,0,0,0,.29-2.95L58.8,538A1.77,1.77,0,0,0,55.93,539.51Z"/><path class="cls-7" d="M98.05,538.43l-12.3,9.39a1.77,1.77,0,0,0,.23,3l11.11,6a1.76,1.76,0,0,0,2.6-1.42L100.88,540A1.77,1.77,0,0,0,98.05,538.43Z"/><path class="cls-6" d="M57.93,543.42l.49,9.11A1.77,1.77,0,0,0,61,554l6.63-3.41a1.77,1.77,0,0,0,.3-3L60.8,542A1.77,1.77,0,0,0,57.93,543.42Z"/><path class="cls-6" d="M95.71,542.61l-7.5,5.73a1.77,1.77,0,0,0,.22,3L95.22,555a1.76,1.76,0,0,0,2.6-1.41l.73-9.42A1.77,1.77,0,0,0,95.71,542.61Z"/><ellipse class="cls-7" cx="78.1" cy="563.56" rx="24.57" ry="18.02"/><rect class="cls-7" x="48.13" y="566.29" width="10.8" height="1.22" transform="translate(152.74 6.19) rotate(15.43)"/><rect class="cls-7" x="48.13" y="569.75" width="10.8" height="1.22"/><polygon class="cls-7" points="98.27 569.5 108.28 566.59 107.97 565.39 97.96 568.31 98.27 569.5"/><rect class="cls-7" x="97.92" y="570.33" width="10.39" height="1.24" transform="translate(206.24 1141.9) rotate(180)"/><circle class="cls-6" cx="69.89" cy="563.16" r="4.24"/><circle class="cls-6" cx="86.45" cy="563.16" r="4.24"/><circle class="cls-7" cx="69.89" cy="563.16" r="3.18"/><circle class="cls-7" cx="86.45" cy="563.16" r="3.18"/><rect class="cls-6" x="77.37" y="547.22" width="1.4" height="8.89"/><rect class="cls-6" x="80.52" y="547.22" width="1.4" height="8.89"/><rect class="cls-6" x="74.28" y="547.22" width="1.4" height="8.89"/><rect class="cls-7" x="176.27" y="535.44" width="31.4" height="49.97" rx="12"/><rect class="cls-6" x="191.25" y="534.78" width="1.08" height="7.56" rx="0.54"/><rect class="cls-6" x="188.91" y="539.72" width="5.76" height="17.62" rx="1.79"/><rect class="cls-7" x="190.13" y="540.62" width="3.31" height="8.62" rx="0.6"/><rect class="cls-6" x="190.86" y="541.31" width="1.86" height="6.96" rx="0.38"/><rect class="cls-7" x="546.4" y="529.9" width="6.86" height="20.06" rx="3.43" transform="translate(9.9 1089.76) rotate(-90)"/><rect class="cls-8" x="525.66" y="553.61" width="21.26" height="6.68" rx="2.12" transform="translate(1072.58 1113.9) rotate(180)"/><path class="cls-9" d="M533.46,563.66V550.24a1.09,1.09,0,0,0-1.64-1L520.19,556a1.1,1.1,0,0,0,0,1.9l11.63,6.71A1.09,1.09,0,0,0,533.46,563.66Z"/><rect class="cls-9" x="553" y="536.5" width="6.86" height="40.9" rx="3.43" transform="translate(1112.87 1113.9) rotate(-180)"/><rect class="cls-7" x="546.4" y="563.93" width="6.86" height="20.06" rx="3.43" transform="translate(-24.13 1123.8) rotate(-90)"/><rect class="cls-7" x="668.65" y="556.99" width="6.86" height="20.06" rx="3.43"/><rect class="cls-8" x="644.43" y="544.13" width="21.26" height="6.68" rx="2.12" transform="translate(1202.53 -107.59) rotate(90)"/><path class="cls-9" d="M661.78,550.29H648.35a1.1,1.1,0,0,0-1,1.65l6.71,11.62a1.1,1.1,0,0,0,1.9,0l6.71-11.62A1.1,1.1,0,0,0,661.78,550.29Z"/><rect class="cls-9" x="651.63" y="553.18" width="6.86" height="40.9" rx="3.43" transform="translate(81.44 1228.69) rotate(-90)"/><rect class="cls-7" x="634.61" y="556.99" width="6.86" height="20.06" rx="3.43"/><rect class="cls-7" x="782.42" y="561.18" width="6.86" height="20.06" rx="3.43"/><rect class="cls-8" x="758.2" y="554.33" width="21.26" height="6.68" rx="2.12" transform="translate(211.17 1326.5) rotate(-90)"/><path class="cls-9" d="M762.12,554.84h13.42a1.09,1.09,0,0,0,1-1.65l-6.71-11.62a1.1,1.1,0,0,0-1.9,0l-6.71,11.62A1.1,1.1,0,0,0,762.12,554.84Z"/><rect class="cls-9" x="765.4" y="557.36" width="6.86" height="40.9" rx="3.43" transform="translate(191.02 1346.64) rotate(-90)"/><rect class="cls-7" x="748.38" y="561.18" width="6.86" height="20.06" rx="3.43"/><rect class="cls-9" x="857.78" y="541.47" width="22.02" height="10.11"/><path class="cls-9" d="M879.8,541.47c0,.9,1.71,5.29,4,5.29h-4Z"/><rect class="cls-7" x="857.78" y="546.76" width="52.1" height="32.79" rx="3.62"/><rect class="cls-6" x="905.77" y="552.31" width="1.9" height="16.51" rx="0.95"/><ellipse class="cls-6" cx="906.72" cy="550.02" rx="0.84" ry="1.29"/><rect class="cls-9" x="973.75" y="540.57" width="22.02" height="10.11"/><path class="cls-9" d="M995.77,540.57c0,.9,1.71,5.29,4,5.29h-4Z"/><rect class="cls-7" x="973.75" y="545.86" width="52.1" height="32.79" rx="3.62"/><rect class="cls-6" x="1021.74" y="551.41" width="1.9" height="16.51" rx="0.95"/><ellipse class="cls-6" cx="1022.69" cy="549.12" rx="0.84" ry="1.29"/><rect class="cls-6" x="873.6" y="560.68" width="20.58" height="4.95"/><rect class="cls-6" x="873.54" y="560.68" width="20.58" height="4.95" transform="translate(1446.98 -320.68) rotate(90)"/><rect class="cls-6" x="989.51" y="559.78" width="20.58" height="4.95"/><rect class="cls-6" x="1131.72" y="562.81" width="0.89" height="12.45"/><ellipse class="cls-7" cx="1114.46" cy="570.56" rx="24.57" ry="18.02"/><rect class="cls-7" x="1084.49" y="573.29" width="10.8" height="1.22" transform="translate(191.95 -269.26) rotate(15.43)"/><rect class="cls-7" x="1084.49" y="576.75" width="10.8" height="1.22"/><polygon class="cls-7" points="1134.62 576.5 1144.63 573.58 1144.32 572.39 1134.31 575.3 1134.62 576.5"/><rect class="cls-7" x="1134.28" y="577.33" width="10.39" height="1.24" transform="translate(2278.95 1155.9) rotate(180)"/><circle class="cls-6" cx="1106.24" cy="570.16" r="4.24"/><circle class="cls-6" cx="1122.8" cy="570.16" r="4.24"/><circle class="cls-7" cx="1106.24" cy="570.16" r="3.18"/><circle class="cls-7" cx="1122.8" cy="570.16" r="3.18"/><rect class="cls-6" x="1111.24" y="577.33" width="6.62" height="1.24"/><path class="cls-6" d="M1115.92,572.55H1113a.18.18,0,0,0-.16.27l1.46,2.53a.18.18,0,0,0,.31,0l1.46-2.53A.18.18,0,0,0,1115.92,572.55Z"/><rect class="cls-6" x="1114.15" y="574.58" width="0.62" height="3.39"/><ellipse class="cls-7" cx="65.36" cy="690.31" rx="5.93" ry="25.76" transform="translate(-86.62 13.77) rotate(-7.25)"/><ellipse class="cls-7" cx="89.63" cy="690.31" rx="25.76" ry="5.93" transform="translate(-606.27 707.01) rotate(-83.98)"/><rect class="cls-6" x="95.36" y="708.43" width="0.89" height="12.45"/><ellipse class="cls-7" cx="78.1" cy="716.18" rx="24.57" ry="18.02"/><rect class="cls-7" x="48.13" y="718.91" width="10.8" height="1.22" transform="translate(193.34 11.69) rotate(15.43)"/><rect class="cls-7" x="48.13" y="722.37" width="10.8" height="1.22"/><polygon class="cls-7" points="98.27 722.12 108.28 719.21 107.97 718.01 97.96 720.93 98.27 722.12"/><rect class="cls-7" x="97.92" y="722.96" width="10.39" height="1.24" transform="translate(206.24 1447.15) rotate(180)"/><circle class="cls-6" cx="69.89" cy="715.79" r="4.24"/><circle class="cls-6" cx="86.45" cy="715.79" r="4.24"/><circle class="cls-7" cx="69.89" cy="715.79" r="3.18"/><circle class="cls-7" cx="86.45" cy="715.79" r="3.18"/><rect class="cls-6" x="66.84" y="720.38" width="22.77" height="11.72" rx="1.69"/><rect class="cls-6" x="51.92" y="718.93" width="16.47" height="1.07" transform="translate(242.78 20.97) rotate(19.43)"/><rect class="cls-6" x="87.95" y="718.38" width="16.47" height="1.07" transform="translate(-271.3 93.58) rotate(-22.82)"/><rect class="cls-6" x="88.52" y="730.44" width="6.4" height="1.07" transform="translate(56.32 -4.88) rotate(4.4)"/><rect class="cls-6" x="62.86" y="730.83" width="6.4" height="1.07" transform="translate(-119.86 20.95) rotate(-9.5)"/><rect class="cls-7" x="70.24" y="723.29" width="16.1" height="0.78"/><rect class="cls-7" x="70.24" y="726" width="16.1" height="0.78"/><rect class="cls-7" x="70.24" y="728.65" width="16.1" height="0.78"/><ellipse class="cls-7" cx="180.59" cy="689.76" rx="5.93" ry="25.76" transform="translate(-85.62 28.31) rotate(-7.25)"/><ellipse class="cls-7" cx="204.85" cy="689.76" rx="25.76" ry="5.93" transform="translate(-502.59 821.1) rotate(-83.98)"/><rect class="cls-6" x="210.59" y="707.88" width="0.89" height="12.45"/><ellipse class="cls-7" cx="193.32" cy="715.63" rx="24.57" ry="18.02"/><rect class="cls-7" x="163.35" y="718.37" width="10.8" height="1.22" transform="translate(197.35 -18.98) rotate(15.43)"/><rect class="cls-7" x="163.35" y="721.82" width="10.8" height="1.22"/><polygon class="cls-7" points="213.49 721.57 223.5 718.66 223.19 717.47 213.18 720.38 213.49 721.57"/><rect class="cls-7" x="213.15" y="722.41" width="10.39" height="1.24" transform="translate(436.68 1446.05) rotate(180)"/><circle class="cls-6" cx="185.11" cy="715.24" r="4.24"/><circle class="cls-6" cx="201.67" cy="715.24" r="4.24"/><circle class="cls-7" cx="185.11" cy="715.24" r="3.18"/><circle class="cls-7" cx="201.67" cy="715.24" r="3.18"/><path class="cls-6" d="M194.78,717.62h-2.92a.19.19,0,0,0-.16.28l1.46,2.53a.19.19,0,0,0,.32,0l1.46-2.53A.19.19,0,0,0,194.78,717.62Z"/><rect class="cls-6" x="193.01" y="719.65" width="0.62" height="3.39"/><ellipse class="cls-7" cx="298.34" cy="689.02" rx="5.93" ry="25.76" transform="translate(-84.59 43.17) rotate(-7.25)"/><ellipse class="cls-7" cx="322.6" cy="689.02" rx="25.76" ry="5.93" transform="translate(-396.46 937.54) rotate(-83.98)"/><rect class="cls-6" x="328.34" y="707.15" width="0.89" height="12.45"/><ellipse class="cls-7" cx="311.07" cy="714.9" rx="24.57" ry="18.02"/><rect class="cls-7" x="281.1" y="717.63" width="10.8" height="1.22" transform="translate(201.4 -50.34) rotate(15.43)"/><rect class="cls-7" x="281.1" y="721.09" width="10.8" height="1.22"/><polygon class="cls-7" points="331.24 720.84 341.25 717.92 340.94 716.73 330.93 719.64 331.24 720.84"/><rect class="cls-7" x="330.9" y="721.67" width="10.39" height="1.24" transform="translate(672.18 1444.58) rotate(180)"/><circle class="cls-6" cx="302.86" cy="714.5" r="4.24"/><circle class="cls-6" cx="319.42" cy="714.5" r="4.24"/><circle class="cls-7" cx="302.86" cy="714.5" r="3.18"/><circle class="cls-7" cx="319.42" cy="714.5" r="3.18"/><ellipse class="cls-7" cx="412.18" cy="689.04" rx="5.93" ry="25.76" transform="translate(-83.68 57.54) rotate(-7.25)"/><ellipse class="cls-7" cx="436.45" cy="689.04" rx="25.76" ry="5.93" transform="translate(-294.59 1050.78) rotate(-83.98)"/><rect class="cls-6" x="442.18" y="707.17" width="0.89" height="12.45"/><ellipse class="cls-7" cx="424.92" cy="714.92" rx="24.57" ry="18.02"/><rect class="cls-7" x="394.95" y="717.65" width="10.8" height="1.22" transform="translate(205.5 -80.62) rotate(15.43)"/><rect class="cls-7" x="394.95" y="721.11" width="10.8" height="1.22"/><polygon class="cls-7" points="445.08 720.86 455.1 717.95 454.78 716.75 444.77 719.67 445.08 720.86"/><rect class="cls-7" x="444.74" y="721.69" width="10.39" height="1.24" transform="translate(899.87 1444.62) rotate(180)"/><circle class="cls-6" cx="416.7" cy="714.52" r="4.24"/><circle class="cls-6" cx="433.26" cy="714.52" r="4.24"/><circle class="cls-7" cx="416.7" cy="714.52" r="3.18"/><circle class="cls-7" cx="433.26" cy="714.52" r="3.18"/><rect class="cls-6" x="421.71" y="721.69" width="6.62" height="1.24"/><path class="cls-6" d="M426.38,716.91h-2.92a.18.18,0,0,0-.16.27l1.46,2.53a.17.17,0,0,0,.31,0l1.47-2.53A.18.18,0,0,0,426.38,716.91Z"/><rect class="cls-6" x="424.61" y="718.94" width="0.62" height="3.39"/><polygon class="cls-6" points="197.08 721.79 190.18 721.7 193.27 727.54 197.08 721.79"/><path class="cls-6" d="M177.26,711.59s-1.76,2.31-1.58,3.46c.09.68.43,1.51,1.36,1.56s1.39-.17,1.51-1.44S177.26,711.59,177.26,711.59Z"/><rect class="cls-6" x="296.25" y="705.81" width="12.17" height="2.73"/><rect class="cls-6" x="313.74" y="705.81" width="12.17" height="2.73"/><path class="cls-6" d="M408.63,708.83s-1.75,2.31-1.58,3.45c.1.69.44,1.51,1.36,1.56s1.39-.16,1.51-1.43S408.63,708.83,408.63,708.83Z"/><path class="cls-6" d="M405.71,712.85s-2.34,3.08-2.11,4.61c.13.91.59,2,1.82,2.09s1.86-.22,2-1.92S405.71,712.85,405.71,712.85Z"/><path class="cls-6" d="M440.38,705.32s-1.75,2.31-1.58,3.45c.1.69.44,1.51,1.37,1.56s1.38-.16,1.51-1.43S440.38,705.32,440.38,705.32Z"/><rect class="cls-6" x="409.67" y="708.1" width="8.48" height="1.46" transform="translate(-333.59 369.7) rotate(-35.31)"/><rect class="cls-6" x="431.07" y="708.1" width="8.48" height="1.46" transform="translate(499.21 -120.54) rotate(35.96)"/><rect class="cls-6" x="1131.78" y="560.87" width="0.67" height="11.24"/><rect class="cls-6" x="1130.38" y="563.84" width="0.64" height="9.15"/><rect class="cls-6" x="1128.9" y="564.89" width="0.55" height="8.2"/><ellipse class="cls-7" cx="526.94" cy="689.41" rx="5.93" ry="25.76" transform="translate(-82.81 72.03) rotate(-7.25)"/><ellipse class="cls-7" cx="551.21" cy="689.41" rx="25.76" ry="5.93" transform="translate(-192.24 1165.24) rotate(-83.98)"/><rect class="cls-6" x="556.94" y="707.54" width="0.89" height="12.45"/><ellipse class="cls-7" cx="539.68" cy="715.29" rx="24.57" ry="18.02"/><rect class="cls-7" x="509.71" y="718.02" width="10.8" height="1.22" transform="translate(209.74 -111.14) rotate(15.43)"/><rect class="cls-7" x="509.71" y="721.48" width="10.8" height="1.22"/><polygon class="cls-7" points="559.85 721.23 569.86 718.32 569.55 717.13 559.53 720.04 559.85 721.23"/><rect class="cls-7" x="559.5" y="722.07" width="10.39" height="1.24" transform="translate(1129.39 1445.37) rotate(180)"/><circle class="cls-6" cx="531.47" cy="714.89" r="4.24"/><circle class="cls-6" cx="548.03" cy="714.89" r="4.24"/><circle class="cls-7" cx="531.47" cy="714.89" r="3.18"/><circle class="cls-7" cx="548.03" cy="714.89" r="3.18"/><ellipse class="cls-7" cx="641.55" cy="685.36" rx="5.93" ry="25.76" transform="translate(-81.38 86.47) rotate(-7.25)"/><ellipse class="cls-7" cx="665.81" cy="685.36" rx="25.76" ry="5.93" transform="translate(-85.63 1275.58) rotate(-83.98)"/><rect class="cls-6" x="671.54" y="703.49" width="0.89" height="12.45"/><ellipse class="cls-7" cx="654.28" cy="711.24" rx="24.57" ry="18.02"/><rect class="cls-7" x="624.31" y="713.97" width="10.8" height="1.22" transform="translate(212.79 -141.77) rotate(15.43)"/><rect class="cls-7" x="624.31" y="717.43" width="10.8" height="1.22"/><polygon class="cls-7" points="674.45 717.18 684.46 714.26 684.15 713.07 674.14 715.99 674.45 717.18"/><rect class="cls-7" x="674.11" y="718.01" width="10.39" height="1.24" transform="translate(1358.6 1437.26) rotate(180)"/><circle class="cls-6" cx="646.07" cy="710.84" r="4.24"/><circle class="cls-6" cx="662.63" cy="710.84" r="4.24"/><circle class="cls-7" cx="646.07" cy="710.84" r="3.18"/><circle class="cls-7" cx="662.63" cy="710.84" r="3.18"/><rect class="cls-6" x="650.81" y="717.11" width="7.33" height="1.87" rx="0.94"/><rect class="cls-6" x="650.69" y="719.87" width="7.33" height="1.54" rx="0.77"/><rect class="cls-6" x="641.56" y="705.76" width="0.67" height="3.01" transform="translate(-267.63 415.7) rotate(-30)"/><rect class="cls-6" x="643.41" y="704.7" width="0.67" height="3.01" transform="translate(-266.86 416.48) rotate(-30)"/><rect class="cls-6" x="664.97" y="705.17" width="0.67" height="3.01" transform="translate(526.74 -253.96) rotate(35.06)"/><rect class="cls-6" x="666.5" y="706.25" width="0.67" height="3.01" transform="translate(527.63 -254.64) rotate(35.06)"/><path class="cls-6" d="M655.86,713.32h-2.93a.18.18,0,0,0-.15.28l1.46,2.53a.18.18,0,0,0,.31,0L656,713.6A.18.18,0,0,0,655.86,713.32Z"/><rect class="cls-6" x="654.09" y="715.35" width="0.62" height="3.39"/><ellipse class="cls-6" cx="637.24" cy="715.77" rx="3.38" ry="1.42"/><ellipse class="cls-6" cx="670.42" cy="715.77" rx="3.38" ry="1.42"/><rect class="cls-6" x="785.97" y="695.82" width="0.89" height="12.45"/><ellipse class="cls-7" cx="768.71" cy="705.7" rx="24.57" ry="20.16"/><circle class="cls-6" cx="760.5" cy="703.17" r="4.24"/><circle class="cls-6" cx="777.06" cy="703.17" r="4.24"/><circle class="cls-7" cx="760.5" cy="703.17" r="3.18"/><circle class="cls-7" cx="777.06" cy="703.17" r="3.18"/><circle class="cls-7" cx="750.25" cy="688.42" r="7.39"/><circle class="cls-7" cx="787.63" cy="688.42" r="7.39"/><rect class="cls-6" x="900.87" y="694.41" width="0.89" height="12.45"/><ellipse class="cls-7" cx="883.6" cy="704.3" rx="24.57" ry="20.16"/><circle class="cls-6" cx="875.39" cy="701.77" r="4.24"/><circle class="cls-6" cx="891.95" cy="701.77" r="4.24"/><circle class="cls-7" cx="875.39" cy="701.77" r="3.18"/><circle class="cls-7" cx="891.95" cy="701.77" r="3.18"/><circle class="cls-7" cx="865.14" cy="687.02" r="7.39"/><circle class="cls-7" cx="902.52" cy="687.02" r="7.39"/><rect class="cls-6" x="1018.53" y="694.41" width="0.89" height="12.45"/><ellipse class="cls-7" cx="1001.27" cy="704.3" rx="24.57" ry="20.16"/><circle class="cls-6" cx="993.06" cy="701.77" r="4.24"/><circle class="cls-6" cx="1009.62" cy="701.77" r="4.24"/><circle class="cls-7" cx="993.06" cy="701.77" r="3.18"/><circle class="cls-7" cx="1009.62" cy="701.77" r="3.18"/><circle class="cls-7" cx="982.81" cy="687.02" r="7.39"/><circle class="cls-7" cx="1020.19" cy="687.02" r="7.39"/><rect class="cls-6" x="1130.87" y="694.14" width="0.89" height="12.45"/><ellipse class="cls-7" cx="1113.6" cy="704.02" rx="24.57" ry="20.16"/><circle class="cls-6" cx="1105.39" cy="701.49" r="4.24"/><circle class="cls-6" cx="1121.95" cy="701.49" r="4.24"/><circle class="cls-7" cx="1105.39" cy="701.49" r="3.18"/><circle class="cls-7" cx="1121.95" cy="701.49" r="3.18"/><circle class="cls-7" cx="1095.14" cy="686.74" r="7.39"/><circle class="cls-7" cx="1132.52" cy="686.74" r="7.39"/><rect class="cls-6" x="757.57" y="710.32" width="22.77" height="11.72" rx="1.69"/><rect class="cls-6" x="742.65" y="708.87" width="16.47" height="1.07" transform="translate(278.77 -209.4) rotate(19.43)"/><rect class="cls-6" x="778.69" y="708.32" width="16.47" height="1.07" transform="translate(-213.33 360.69) rotate(-22.82)"/><rect class="cls-6" x="779.25" y="720.38" width="6.4" height="1.07" transform="translate(57.59 -57.88) rotate(4.4)"/><rect class="cls-6" x="753.59" y="720.77" width="6.4" height="1.07" transform="translate(-108.72 134.87) rotate(-9.5)"/><rect class="cls-7" x="760.97" y="713.23" width="16.1" height="0.78"/><rect class="cls-7" x="760.97" y="715.95" width="16.1" height="0.78"/><rect class="cls-7" x="760.97" y="718.59" width="16.1" height="0.78"/><rect class="cls-6" x="880.15" y="709.93" width="6.62" height="1.24"/><path class="cls-6" d="M884.82,705.14H881.9a.19.19,0,0,0-.16.28l1.47,2.53a.18.18,0,0,0,.31,0l1.46-2.53A.19.19,0,0,0,884.82,705.14Z"/><rect class="cls-6" x="883.05" y="707.17" width="0.62" height="3.39"/><rect class="cls-6" x="900.69" y="693.46" width="0.67" height="11.24"/><rect class="cls-6" x="899.28" y="696.44" width="0.64" height="9.15"/><rect class="cls-6" x="897.81" y="697.48" width="0.55" height="8.2"/><rect class="cls-6" x="1110.53" y="709.98" width="6.62" height="1.24"/><path class="cls-6" d="M1115.2,705.19h-2.92a.19.19,0,0,0-.16.28l1.46,2.53a.19.19,0,0,0,.32,0l1.46-2.53A.19.19,0,0,0,1115.2,705.19Z"/><rect class="cls-6" x="1113.43" y="707.22" width="0.62" height="3.39"/><path class="cls-6" d="M1096.21,697.25s-1.75,2.31-1.58,3.45c.09.68.44,1.51,1.36,1.56s1.39-.16,1.51-1.43S1096.21,697.25,1096.21,697.25Z"/><path class="cls-6" d="M1094.32,702.71s-2.34,3.09-2.11,4.62c.13.91.59,2,1.82,2.08s1.86-.22,2-1.91S1094.32,702.71,1094.32,702.71Z"/><path class="cls-6" d="M1131.46,696.47s-1.75,2.31-1.58,3.45c.09.69.44,1.51,1.36,1.56s1.39-.16,1.51-1.43S1131.46,696.47,1131.46,696.47Z"/><rect class="cls-6" x="1098.7" y="695.55" width="8.48" height="1.46" transform="translate(-199.54 765.69) rotate(-35.31)"/><rect class="cls-6" x="1120.09" y="695.55" width="8.48" height="1.46" transform="translate(623.16 -527.55) rotate(35.96)"/><ellipse class="cls-9" cx="1101.18" cy="540.43" rx="3.42" ry="13.41" transform="translate(-59.41 143.33) rotate(-7.25)"/><ellipse class="cls-9" cx="1126.49" cy="539.91" rx="13.68" ry="3.42" transform="translate(471.36 1603.53) rotate(-83.98)"/><ellipse class="cls-9" cx="641.23" cy="681.34" rx="3.42" ry="13.41" transform="translate(-80.88 86.39) rotate(-7.25)"/><ellipse class="cls-9" cx="666.53" cy="680.81" rx="13.68" ry="3.42" transform="translate(-80.46 1272.23) rotate(-83.98)"/><ellipse class="cls-9" cx="526.23" cy="686.47" rx="3.42" ry="13.41" transform="translate(-82.44 71.92) rotate(-7.25)"/><ellipse class="cls-9" cx="551.53" cy="685.95" rx="13.68" ry="3.42" transform="translate(-188.5 1162.46) rotate(-83.98)"/><ellipse class="cls-9" cx="412" cy="685.52" rx="3.42" ry="13.41" transform="translate(-83.24 57.49) rotate(-7.25)"/><ellipse class="cls-9" cx="437.31" cy="684.99" rx="13.68" ry="3.42" transform="translate(-289.79 1048.01) rotate(-83.98)"/><ellipse class="cls-9" cx="297.77" cy="685.41" rx="3.42" ry="13.41" transform="translate(-84.14 43.07) rotate(-7.25)"/><ellipse class="cls-9" cx="323.08" cy="684.88" rx="13.68" ry="3.42" transform="translate(-391.93 934.31) rotate(-83.98)"/><ellipse class="cls-9" cx="180.41" cy="687.07" rx="3.42" ry="13.41" transform="translate(-85.29 28.27) rotate(-7.25)"/><ellipse class="cls-9" cx="205.72" cy="686.55" rx="13.68" ry="3.42" transform="translate(-498.63 819.09) rotate(-83.98)"/><ellipse class="cls-9" cx="65.14" cy="686.29" rx="3.42" ry="13.41" transform="translate(-86.11 13.71) rotate(-7.25)"/><ellipse class="cls-9" cx="90.45" cy="685.77" rx="13.68" ry="3.42" transform="translate(-601.02 703.76) rotate(-83.98)"/></g></svg>